G04*
G04 #@! TF.GenerationSoftware,Altium Limited,CircuitStudio,1.5.1 (13)*
G04*
G04 Layer_Color=8150272*
%FSLAX23Y23*%
%MOIN*%
G70*
G01*
G75*
%ADD48C,0.010*%
%ADD49C,0.020*%
%ADD109C,0.102*%
%ADD110C,0.068*%
%ADD111R,0.068X0.068*%
%ADD112C,0.071*%
%ADD113R,0.071X0.071*%
%ADD114R,0.071X0.071*%
%ADD115R,0.068X0.068*%
%ADD116C,0.068*%
%ADD117C,0.062*%
%ADD118R,0.062X0.062*%
%ADD119C,0.114*%
%ADD120R,0.064X0.064*%
%ADD121C,0.128*%
%ADD122C,0.165*%
%ADD123C,0.079*%
%ADD124R,0.079X0.079*%
%ADD125O,0.126X0.244*%
%ADD126C,0.058*%
%ADD127C,0.118*%
%ADD128C,0.038*%
D48*
X1683Y4134D02*
X2825D01*
Y5394D01*
X1683D02*
X2825D01*
X1683Y4134D02*
Y5394D01*
X1378Y1575D02*
X9646D01*
Y5512D01*
X1378D02*
X9646D01*
X1378Y1575D02*
Y5512D01*
D49*
X10266Y2480D02*
Y2380D01*
X10316D01*
X10333Y2396D01*
Y2413D01*
X10316Y2430D01*
X10266D01*
X10316D01*
X10333Y2446D01*
Y2463D01*
X10316Y2480D01*
X10266D01*
X10416D02*
X10383D01*
X10366Y2463D01*
Y2396D01*
X10383Y2380D01*
X10416D01*
X10433Y2396D01*
Y2463D01*
X10416Y2480D01*
X10466D02*
X10533D01*
X10499D01*
Y2380D01*
X10566Y2480D02*
X10633D01*
X10599D01*
Y2380D01*
X10716Y2480D02*
X10683D01*
X10666Y2463D01*
Y2396D01*
X10683Y2380D01*
X10716D01*
X10733Y2396D01*
Y2463D01*
X10716Y2480D01*
X10766Y2380D02*
Y2480D01*
X10799Y2446D01*
X10833Y2480D01*
Y2380D01*
X11033Y2463D02*
X11016Y2480D01*
X10983D01*
X10966Y2463D01*
Y2446D01*
X10983Y2430D01*
X11016D01*
X11033Y2413D01*
Y2396D01*
X11016Y2380D01*
X10983D01*
X10966Y2396D01*
X11066Y2380D02*
Y2480D01*
X11099Y2446D01*
X11133Y2480D01*
Y2380D01*
X10256Y1675D02*
Y1575D01*
X10306D01*
X10323Y1591D01*
Y1608D01*
X10306Y1625D01*
X10256D01*
X10306D01*
X10323Y1641D01*
Y1658D01*
X10306Y1675D01*
X10256D01*
X10406D02*
X10373D01*
X10356Y1658D01*
Y1591D01*
X10373Y1575D01*
X10406D01*
X10423Y1591D01*
Y1658D01*
X10406Y1675D01*
X10456Y1575D02*
Y1641D01*
X10489Y1675D01*
X10523Y1641D01*
Y1575D01*
Y1625D01*
X10456D01*
X10556Y1575D02*
Y1675D01*
X10606D01*
X10623Y1658D01*
Y1625D01*
X10606Y1608D01*
X10556D01*
X10589D02*
X10623Y1575D01*
X10656Y1675D02*
Y1575D01*
X10706D01*
X10723Y1591D01*
Y1658D01*
X10706Y1675D01*
X10656D01*
X10906D02*
X10873D01*
X10856Y1658D01*
Y1591D01*
X10873Y1575D01*
X10906D01*
X10923Y1591D01*
Y1658D01*
X10906Y1675D01*
X10956D02*
Y1591D01*
X10973Y1575D01*
X11006D01*
X11023Y1591D01*
Y1675D01*
X11056D02*
X11123D01*
X11089D01*
Y1575D01*
X11156Y1675D02*
Y1575D01*
X11223D01*
X11256Y1675D02*
X11289D01*
X11273D01*
Y1575D01*
X11256D01*
X11289D01*
X11339D02*
Y1675D01*
X11406Y1575D01*
Y1675D01*
X11506D02*
X11439D01*
Y1575D01*
X11506D01*
X11439Y1625D02*
X11472D01*
D109*
X7638Y4870D02*
D03*
Y5327D02*
D03*
D110*
Y4980D02*
D03*
Y5098D02*
D03*
D111*
Y5217D02*
D03*
D112*
X8268Y3958D02*
D03*
X8386Y3858D02*
D03*
X7598Y3878D02*
D03*
X3565Y5256D02*
D03*
X4606Y4923D02*
D03*
Y4823D02*
D03*
D113*
X8268Y3858D02*
D03*
X4606Y5023D02*
D03*
D114*
X8486Y3858D02*
D03*
X7498Y3878D02*
D03*
X3465Y5256D02*
D03*
D115*
X7047Y2413D02*
D03*
X3154Y3917D02*
D03*
D116*
X7047Y2513D02*
D03*
Y2913D02*
D03*
Y3013D02*
D03*
X6747D02*
D03*
Y2913D02*
D03*
Y2513D02*
D03*
Y2413D02*
D03*
X2554Y3917D02*
D03*
X2654D02*
D03*
X2754D02*
D03*
X2854D02*
D03*
X2954D02*
D03*
X3054D02*
D03*
X5089Y2106D02*
D03*
X7043Y3301D02*
D03*
X4695Y3091D02*
D03*
X7785Y2205D02*
D03*
X4109Y4484D02*
D03*
X3917Y4882D02*
D03*
X4420Y4232D02*
D03*
X5404Y3091D02*
D03*
X6254Y5118D02*
D03*
X6407Y5354D02*
D03*
D117*
X6612Y5254D02*
D03*
Y5354D02*
D03*
X6712Y5254D02*
D03*
Y5354D02*
D03*
X6812Y5254D02*
D03*
Y5354D02*
D03*
X6912Y5254D02*
D03*
Y5354D02*
D03*
X7012Y5254D02*
D03*
Y5354D02*
D03*
X7112D02*
D03*
X5712Y5254D02*
D03*
Y5354D02*
D03*
X5812Y5254D02*
D03*
Y5354D02*
D03*
X5912Y5254D02*
D03*
Y5354D02*
D03*
X6012Y5254D02*
D03*
Y5354D02*
D03*
X6112Y5254D02*
D03*
Y5354D02*
D03*
X6212D02*
D03*
X4812Y5254D02*
D03*
Y5354D02*
D03*
X4912Y5254D02*
D03*
Y5354D02*
D03*
X5012Y5254D02*
D03*
Y5354D02*
D03*
X5112Y5254D02*
D03*
Y5354D02*
D03*
X5212Y5254D02*
D03*
Y5354D02*
D03*
X5312D02*
D03*
X3912Y5254D02*
D03*
Y5354D02*
D03*
X4012Y5254D02*
D03*
Y5354D02*
D03*
X4112Y5254D02*
D03*
Y5354D02*
D03*
X4212Y5254D02*
D03*
Y5354D02*
D03*
X4312Y5254D02*
D03*
Y5354D02*
D03*
X4412D02*
D03*
D118*
X7112Y5254D02*
D03*
X6212D02*
D03*
X5312D02*
D03*
X4412D02*
D03*
D119*
X6843Y1772D02*
D03*
X6543D02*
D03*
D120*
X6693Y2079D02*
D03*
D121*
X1529Y3892D02*
D03*
Y2334D02*
D03*
X4171Y3892D02*
D03*
Y2334D02*
D03*
D122*
X9508Y5374D02*
D03*
Y1713D02*
D03*
X1516D02*
D03*
Y5374D02*
D03*
X2972Y4764D02*
D03*
X1535D02*
D03*
D123*
X5197Y2933D02*
D03*
X5000D02*
D03*
X5098D02*
D03*
X5000Y2362D02*
D03*
D124*
X5197D02*
D03*
D125*
X5319Y2638D02*
D03*
X4878D02*
D03*
D126*
X3574Y4716D02*
D03*
X3374D02*
D03*
X3474Y4516D02*
D03*
D127*
X9214Y5123D02*
D03*
X9314Y4823D02*
D03*
X9114D02*
D03*
X9314Y2898D02*
D03*
X9114D02*
D03*
X9214Y2598D02*
D03*
D128*
X5827Y2520D02*
D03*
X5728Y2520D02*
D03*
X5413Y4724D02*
D03*
X3839Y5000D02*
D03*
X8337Y4193D02*
D03*
Y4537D02*
D03*
X8100Y4449D02*
D03*
X7923Y4360D02*
D03*
X8593Y5059D02*
D03*
X8219Y4596D02*
D03*
Y4498D02*
D03*
Y4400D02*
D03*
Y4301D02*
D03*
Y4203D02*
D03*
X8583Y4764D02*
D03*
X8051Y3504D02*
D03*
Y4764D02*
D03*
X8445Y5157D02*
D03*
X7854Y4882D02*
D03*
X8031Y4882D02*
D03*
X7795Y4980D02*
D03*
Y4685D02*
D03*
X7402Y5433D02*
D03*
X3780Y5266D02*
D03*
X5541Y1634D02*
D03*
X6201Y1673D02*
D03*
X6299Y2067D02*
D03*
X5974Y2165D02*
D03*
X5679D02*
D03*
X7717Y3858D02*
D03*
X5787Y3907D02*
D03*
X4872Y4045D02*
D03*
X5197Y3819D02*
D03*
X4921Y3199D02*
D03*
X4793Y4291D02*
D03*
X4262Y4321D02*
D03*
X3720Y4380D02*
D03*
X3996Y4774D02*
D03*
X3642Y5049D02*
D03*
X3130Y5030D02*
D03*
X6201Y1811D02*
D03*
X6122Y2520D02*
D03*
X5876Y2333D02*
D03*
X5177Y4724D02*
D03*
X5276Y3819D02*
D03*
X1732Y2047D02*
D03*
X2618D02*
D03*
X3543D02*
D03*
X4419Y2884D02*
D03*
Y3898D02*
D03*
X4055Y4636D02*
D03*
X4921Y3740D02*
D03*
X5768Y2579D02*
D03*
X6053D02*
D03*
X6299Y2687D02*
D03*
X6053D02*
D03*
X7923Y4272D02*
D03*
Y4508D02*
D03*
X7992Y4567D02*
D03*
X8002Y4449D02*
D03*
X8022Y5030D02*
D03*
Y5079D02*
D03*
Y5128D02*
D03*
X7815Y5039D02*
D03*
X8219Y4104D02*
D03*
X5364Y3593D02*
D03*
X5187Y3494D02*
D03*
Y3543D02*
D03*
X5689Y3386D02*
D03*
X7185Y5128D02*
D03*
X6988D02*
D03*
X7195Y4970D02*
D03*
X6388Y3652D02*
D03*
X6526Y3789D02*
D03*
X7087Y3730D02*
D03*
X7224Y3799D02*
D03*
X6752Y3219D02*
D03*
X6801Y3445D02*
D03*
X6998D02*
D03*
X6447Y3406D02*
D03*
X7244Y3022D02*
D03*
X7579Y2234D02*
D03*
X7470D02*
D03*
X7825Y1998D02*
D03*
X4744Y3533D02*
D03*
X4637Y3514D02*
D03*
X4675Y3671D02*
D03*
X7677Y1988D02*
D03*
X7402Y1900D02*
D03*
X7677Y1939D02*
D03*
X7825D02*
D03*
X6673Y2933D02*
D03*
X7815Y2589D02*
D03*
X8140Y2667D02*
D03*
X7982Y2746D02*
D03*
X8110Y2982D02*
D03*
X7854Y3228D02*
D03*
X8386Y2589D02*
D03*
X8711Y2667D02*
D03*
X8553Y2746D02*
D03*
X8671Y2982D02*
D03*
Y3061D02*
D03*
X8425Y3228D02*
D03*
X8110Y3061D02*
D03*
X7500Y2884D02*
D03*
X5531Y2520D02*
D03*
X5945D02*
D03*
X7047Y4606D02*
D03*
X6850D02*
D03*
X6378Y5128D02*
D03*
Y5020D02*
D03*
X6791D02*
D03*
X6535Y3061D02*
D03*
X5197Y2116D02*
D03*
X4902Y2126D02*
D03*
X4695Y3376D02*
D03*
X6526Y4409D02*
D03*
X6781Y3642D02*
D03*
X6516Y4764D02*
D03*
X4803Y2953D02*
D03*
X5295D02*
D03*
X6831Y4350D02*
D03*
X7402Y2096D02*
D03*
X5148Y3150D02*
D03*
X7244Y4311D02*
D03*
X6713Y4921D02*
D03*
X6654Y3061D02*
D03*
X6171Y3878D02*
D03*
X5049Y1772D02*
D03*
X5325D02*
D03*
X4154D02*
D03*
Y1654D02*
D03*
M02*
