G04*
G04 #@! TF.GenerationSoftware,Altium Limited,CircuitStudio,1.5.1 (13)*
G04*
G04 Layer_Color=128*
%FSLAX23Y23*%
%MOIN*%
G70*
G01*
G75*
%ADD48C,0.010*%
%ADD49C,0.020*%
%ADD77C,0.005*%
D48*
X1683Y4134D02*
X2825D01*
Y5394D01*
X1683D02*
X2825D01*
X1683Y4134D02*
Y5394D01*
X1378Y1575D02*
X9646D01*
Y5512D01*
X1378D02*
X9646D01*
X1378Y1575D02*
Y5512D01*
D49*
X10256Y1675D02*
Y1575D01*
X10306D01*
X10323Y1591D01*
Y1608D01*
X10306Y1625D01*
X10256D01*
X10306D01*
X10323Y1641D01*
Y1658D01*
X10306Y1675D01*
X10256D01*
X10406D02*
X10373D01*
X10356Y1658D01*
Y1591D01*
X10373Y1575D01*
X10406D01*
X10423Y1591D01*
Y1658D01*
X10406Y1675D01*
X10456Y1575D02*
Y1641D01*
X10489Y1675D01*
X10523Y1641D01*
Y1575D01*
Y1625D01*
X10456D01*
X10556Y1575D02*
Y1675D01*
X10606D01*
X10623Y1658D01*
Y1625D01*
X10606Y1608D01*
X10556D01*
X10589D02*
X10623Y1575D01*
X10656Y1675D02*
Y1575D01*
X10706D01*
X10723Y1591D01*
Y1658D01*
X10706Y1675D01*
X10656D01*
X10906D02*
X10873D01*
X10856Y1658D01*
Y1591D01*
X10873Y1575D01*
X10906D01*
X10923Y1591D01*
Y1658D01*
X10906Y1675D01*
X10956D02*
Y1591D01*
X10973Y1575D01*
X11006D01*
X11023Y1591D01*
Y1675D01*
X11056D02*
X11123D01*
X11089D01*
Y1575D01*
X11156Y1675D02*
Y1575D01*
X11223D01*
X11256Y1675D02*
X11289D01*
X11273D01*
Y1575D01*
X11256D01*
X11289D01*
X11339D02*
Y1675D01*
X11406Y1575D01*
Y1675D01*
X11506D02*
X11439D01*
Y1575D01*
X11506D01*
X11439Y1625D02*
X11472D01*
D77*
X7606Y4870D02*
X7669D01*
X7638Y4839D02*
Y4901D01*
X7606Y5327D02*
X7669D01*
X7638Y5295D02*
Y5358D01*
X7618Y4980D02*
X7658D01*
X7638Y4960D02*
Y5000D01*
X7618Y5098D02*
X7658D01*
X7638Y5079D02*
Y5118D01*
X7618Y5217D02*
X7658D01*
X7638Y5197D02*
Y5236D01*
X8250Y3958D02*
X8285D01*
X8268Y3941D02*
Y3976D01*
X8250Y3858D02*
X8285D01*
X8268Y3841D02*
Y3876D01*
X8368Y3858D02*
X8404D01*
X8386Y3841D02*
Y3876D01*
X8468Y3858D02*
X8504D01*
X8486Y3841D02*
Y3876D01*
X7581Y3878D02*
X7616D01*
X7598Y3860D02*
Y3896D01*
X7481Y3878D02*
X7516D01*
X7498Y3860D02*
Y3896D01*
X7032Y2413D02*
X7062D01*
X7047Y2398D02*
Y2428D01*
X7032Y2513D02*
X7062D01*
X7047Y2498D02*
Y2528D01*
X7032Y2913D02*
X7062D01*
X7047Y2898D02*
Y2928D01*
X7032Y3013D02*
X7062D01*
X7047Y2998D02*
Y3028D01*
X6732Y3013D02*
X6762D01*
X6747Y2998D02*
Y3028D01*
X6732Y2913D02*
X6762D01*
X6747Y2898D02*
Y2928D01*
X6732Y2513D02*
X6762D01*
X6747Y2498D02*
Y2528D01*
X6732Y2413D02*
X6762D01*
X6747Y2398D02*
Y2428D01*
X6592Y5254D02*
X6632D01*
X6612Y5233D02*
Y5274D01*
X6592Y5354D02*
X6632D01*
X6612Y5333D02*
Y5374D01*
X6692Y5254D02*
X6732D01*
X6712Y5233D02*
Y5274D01*
X6692Y5354D02*
X6732D01*
X6712Y5333D02*
Y5374D01*
X6792Y5254D02*
X6832D01*
X6812Y5233D02*
Y5274D01*
X6792Y5354D02*
X6832D01*
X6812Y5333D02*
Y5374D01*
X6892Y5254D02*
X6932D01*
X6912Y5233D02*
Y5274D01*
X6892Y5354D02*
X6932D01*
X6912Y5333D02*
Y5374D01*
X6992Y5254D02*
X7032D01*
X7012Y5233D02*
Y5274D01*
X6992Y5354D02*
X7032D01*
X7012Y5333D02*
Y5374D01*
X7092Y5254D02*
X7132D01*
X7112Y5233D02*
Y5274D01*
X7092Y5354D02*
X7132D01*
X7112Y5333D02*
Y5374D01*
X5692Y5254D02*
X5732D01*
X5712Y5233D02*
Y5274D01*
X5692Y5354D02*
X5732D01*
X5712Y5333D02*
Y5374D01*
X5792Y5254D02*
X5832D01*
X5812Y5233D02*
Y5274D01*
X5792Y5354D02*
X5832D01*
X5812Y5333D02*
Y5374D01*
X5892Y5254D02*
X5932D01*
X5912Y5233D02*
Y5274D01*
X5892Y5354D02*
X5932D01*
X5912Y5333D02*
Y5374D01*
X5992Y5254D02*
X6032D01*
X6012Y5233D02*
Y5274D01*
X5992Y5354D02*
X6032D01*
X6012Y5333D02*
Y5374D01*
X6092Y5254D02*
X6132D01*
X6112Y5233D02*
Y5274D01*
X6092Y5354D02*
X6132D01*
X6112Y5333D02*
Y5374D01*
X6192Y5254D02*
X6232D01*
X6212Y5233D02*
Y5274D01*
X6192Y5354D02*
X6232D01*
X6212Y5333D02*
Y5374D01*
X4792Y5254D02*
X4832D01*
X4812Y5233D02*
Y5274D01*
X4792Y5354D02*
X4832D01*
X4812Y5333D02*
Y5374D01*
X4892Y5254D02*
X4932D01*
X4912Y5233D02*
Y5274D01*
X4892Y5354D02*
X4932D01*
X4912Y5333D02*
Y5374D01*
X4992Y5254D02*
X5032D01*
X5012Y5233D02*
Y5274D01*
X4992Y5354D02*
X5032D01*
X5012Y5333D02*
Y5374D01*
X5092Y5254D02*
X5132D01*
X5112Y5233D02*
Y5274D01*
X5092Y5354D02*
X5132D01*
X5112Y5333D02*
Y5374D01*
X5192Y5254D02*
X5232D01*
X5212Y5233D02*
Y5274D01*
X5192Y5354D02*
X5232D01*
X5212Y5333D02*
Y5374D01*
X5292Y5254D02*
X5332D01*
X5312Y5233D02*
Y5274D01*
X5292Y5354D02*
X5332D01*
X5312Y5333D02*
Y5374D01*
X3892Y5254D02*
X3932D01*
X3912Y5233D02*
Y5274D01*
X3892Y5354D02*
X3932D01*
X3912Y5333D02*
Y5374D01*
X3992Y5254D02*
X4032D01*
X4012Y5233D02*
Y5274D01*
X3992Y5354D02*
X4032D01*
X4012Y5333D02*
Y5374D01*
X4092Y5254D02*
X4132D01*
X4112Y5233D02*
Y5274D01*
X4092Y5354D02*
X4132D01*
X4112Y5333D02*
Y5374D01*
X4192Y5254D02*
X4232D01*
X4212Y5233D02*
Y5274D01*
X4192Y5354D02*
X4232D01*
X4212Y5333D02*
Y5374D01*
X4292Y5254D02*
X4332D01*
X4312Y5233D02*
Y5274D01*
X4292Y5354D02*
X4332D01*
X4312Y5333D02*
Y5374D01*
X4392Y5254D02*
X4432D01*
X4412Y5233D02*
Y5274D01*
X4392Y5354D02*
X4432D01*
X4412Y5333D02*
Y5374D01*
X3547Y5256D02*
X3582D01*
X3565Y5238D02*
Y5274D01*
X3447Y5256D02*
X3482D01*
X3465Y5238D02*
Y5274D01*
X4589Y4923D02*
X4624D01*
X4606Y4905D02*
Y4941D01*
X4589Y5023D02*
X4624D01*
X4606Y5005D02*
Y5041D01*
X4589Y4823D02*
X4624D01*
X4606Y4805D02*
Y4841D01*
X6807Y1772D02*
X6878D01*
X6843Y1736D02*
Y1807D01*
X6508Y1772D02*
X6579D01*
X6543Y1736D02*
Y1807D01*
X6675Y2079D02*
X6711D01*
X6693Y2061D02*
Y2097D01*
X2537Y3917D02*
X2572D01*
X2554Y3900D02*
Y3935D01*
X2637Y3917D02*
X2672D01*
X2654Y3900D02*
Y3935D01*
X2737Y3917D02*
X2772D01*
X2754Y3900D02*
Y3935D01*
X2837Y3917D02*
X2872D01*
X2854Y3900D02*
Y3935D01*
X2937Y3917D02*
X2972D01*
X2954Y3900D02*
Y3935D01*
X3037Y3917D02*
X3072D01*
X3054Y3900D02*
Y3935D01*
X3137Y3917D02*
X3172D01*
X3154Y3900D02*
Y3935D01*
X1469Y3892D02*
X1589D01*
X1529Y3832D02*
Y3952D01*
X1469Y2334D02*
X1589D01*
X1529Y2274D02*
Y2394D01*
X4111Y3892D02*
X4231D01*
X4171Y3832D02*
Y3952D01*
X4111Y2334D02*
X4231D01*
X4171Y2274D02*
Y2394D01*
X9443Y5374D02*
X9573D01*
X9508Y5309D02*
Y5439D01*
X9443Y1713D02*
X9573D01*
X9508Y1648D02*
Y1778D01*
X1451Y1713D02*
X1581D01*
X1516Y1648D02*
Y1778D01*
X1451Y5374D02*
X1581D01*
X1516Y5309D02*
Y5439D01*
X2907Y4764D02*
X3037D01*
X2972Y4699D02*
Y4829D01*
X1470Y4764D02*
X1600D01*
X1535Y4699D02*
Y4829D01*
X5173Y2933D02*
X5220D01*
X5197Y2909D02*
Y2957D01*
X4976Y2933D02*
X5024D01*
X5000Y2909D02*
Y2957D01*
X5075Y2933D02*
X5122D01*
X5098Y2909D02*
Y2957D01*
X5173Y2362D02*
X5220D01*
X5197Y2339D02*
Y2386D01*
X4976Y2362D02*
X5024D01*
X5000Y2339D02*
Y2386D01*
X5280Y2638D02*
X5358D01*
X5319Y2598D02*
Y2677D01*
X4839Y2638D02*
X4917D01*
X4878Y2598D02*
Y2677D01*
X5071Y2106D02*
X5106D01*
X5089Y2089D02*
Y2124D01*
X7026Y3301D02*
X7061D01*
X7043Y3284D02*
Y3319D01*
X3559Y4716D02*
X3589D01*
X3574Y4701D02*
Y4731D01*
X3359Y4716D02*
X3389D01*
X3374Y4701D02*
Y4731D01*
X3459Y4516D02*
X3489D01*
X3474Y4501D02*
Y4531D01*
X4677Y3091D02*
X4712D01*
X4695Y3073D02*
Y3108D01*
X7768Y2205D02*
X7803D01*
X7785Y2187D02*
Y2222D01*
X4091Y4484D02*
X4126D01*
X4109Y4466D02*
Y4501D01*
X3900Y4882D02*
X3935D01*
X3917Y4864D02*
Y4899D01*
X4402Y4232D02*
X4437D01*
X4420Y4215D02*
Y4250D01*
X5386Y3091D02*
X5421D01*
X5404Y3073D02*
Y3108D01*
X9179Y5123D02*
X9249D01*
X9214Y5088D02*
Y5158D01*
X9279Y4823D02*
X9349D01*
X9314Y4788D02*
Y4858D01*
X9079Y4823D02*
X9149D01*
X9114Y4788D02*
Y4858D01*
X9279Y2898D02*
X9349D01*
X9314Y2863D02*
Y2933D01*
X9079Y2898D02*
X9149D01*
X9114Y2863D02*
Y2933D01*
X9179Y2598D02*
X9249D01*
X9214Y2563D02*
Y2633D01*
X6237Y5118D02*
X6272D01*
X6254Y5101D02*
Y5136D01*
X6390Y5354D02*
X6425D01*
X6407Y5337D02*
Y5372D01*
X5819Y2520D02*
X5834D01*
X5827Y2512D02*
Y2527D01*
X5721Y2520D02*
X5736D01*
X5728Y2512D02*
Y2527D01*
X5406Y4724D02*
X5421D01*
X5413Y4717D02*
Y4732D01*
X3831Y5000D02*
X3846D01*
X3839Y4992D02*
Y5007D01*
X8329Y4193D02*
X8344D01*
X8337Y4185D02*
Y4200D01*
X8329Y4537D02*
X8344D01*
X8337Y4530D02*
Y4545D01*
X8093Y4449D02*
X8108D01*
X8100Y4441D02*
Y4456D01*
X7916Y4360D02*
X7931D01*
X7923Y4353D02*
Y4368D01*
X8585Y5059D02*
X8600D01*
X8593Y5052D02*
Y5067D01*
X8211Y4596D02*
X8226D01*
X8219Y4589D02*
Y4604D01*
X8211Y4498D02*
X8226D01*
X8219Y4491D02*
Y4506D01*
X8211Y4400D02*
X8226D01*
X8219Y4392D02*
Y4407D01*
X8211Y4301D02*
X8226D01*
X8219Y4294D02*
Y4309D01*
X8211Y4203D02*
X8226D01*
X8219Y4195D02*
Y4210D01*
X8575Y4764D02*
X8590D01*
X8583Y4756D02*
Y4771D01*
X8044Y3504D02*
X8059D01*
X8051Y3496D02*
Y3511D01*
X8044Y4764D02*
X8059D01*
X8051Y4756D02*
Y4771D01*
X8437Y5157D02*
X8452D01*
X8445Y5150D02*
Y5165D01*
X7847Y4882D02*
X7862D01*
X7854Y4874D02*
Y4889D01*
X8024Y4882D02*
X8039D01*
X8031Y4874D02*
Y4889D01*
X7788Y4980D02*
X7803D01*
X7795Y4973D02*
Y4988D01*
X7788Y4685D02*
X7803D01*
X7795Y4678D02*
Y4693D01*
X7394Y5433D02*
X7409D01*
X7402Y5426D02*
Y5441D01*
X3772Y5266D02*
X3787D01*
X3780Y5258D02*
Y5273D01*
X5534Y1634D02*
X5549D01*
X5541Y1626D02*
Y1641D01*
X6193Y1673D02*
X6208D01*
X6201Y1666D02*
Y1681D01*
X6292Y2067D02*
X6307D01*
X6299Y2059D02*
Y2074D01*
X5967Y2165D02*
X5982D01*
X5974Y2158D02*
Y2173D01*
X5672Y2165D02*
X5687D01*
X5679Y2158D02*
Y2173D01*
X7709Y3858D02*
X7724D01*
X7717Y3851D02*
Y3866D01*
X5780Y3907D02*
X5795D01*
X5787Y3900D02*
Y3915D01*
X4865Y4045D02*
X4880D01*
X4872Y4038D02*
Y4053D01*
X5189Y3819D02*
X5204D01*
X5197Y3811D02*
Y3826D01*
X4914Y3199D02*
X4929D01*
X4921Y3191D02*
Y3206D01*
X4786Y4291D02*
X4801D01*
X4793Y4284D02*
Y4299D01*
X4254Y4321D02*
X4269D01*
X4262Y4313D02*
Y4328D01*
X3713Y4380D02*
X3728D01*
X3720Y4372D02*
Y4387D01*
X3989Y4774D02*
X4004D01*
X3996Y4766D02*
Y4781D01*
X3634Y5049D02*
X3649D01*
X3642Y5042D02*
Y5057D01*
X3122Y5030D02*
X3137D01*
X3130Y5022D02*
Y5037D01*
X6193Y1811D02*
X6208D01*
X6201Y1804D02*
Y1819D01*
X6115Y2520D02*
X6130D01*
X6122Y2512D02*
Y2527D01*
X5868Y2333D02*
X5883D01*
X5876Y2325D02*
Y2340D01*
X5170Y4724D02*
X5185D01*
X5177Y4717D02*
Y4732D01*
X5268Y3819D02*
X5283D01*
X5276Y3811D02*
Y3826D01*
X1725Y2047D02*
X1740D01*
X1732Y2040D02*
Y2055D01*
X2611Y2047D02*
X2626D01*
X2618Y2040D02*
Y2055D01*
X3536Y2047D02*
X3551D01*
X3543Y2040D02*
Y2055D01*
X4412Y2884D02*
X4427D01*
X4419Y2876D02*
Y2891D01*
X4412Y3898D02*
X4427D01*
X4419Y3890D02*
Y3905D01*
X4048Y4636D02*
X4063D01*
X4055Y4628D02*
Y4643D01*
X4914Y3740D02*
X4929D01*
X4921Y3733D02*
Y3748D01*
X5760Y2579D02*
X5775D01*
X5768Y2571D02*
Y2586D01*
X6046Y2579D02*
X6061D01*
X6053Y2571D02*
Y2586D01*
X6292Y2687D02*
X6307D01*
X6299Y2680D02*
Y2695D01*
X6046Y2687D02*
X6061D01*
X6053Y2680D02*
Y2695D01*
X7916Y4272D02*
X7931D01*
X7923Y4264D02*
Y4279D01*
X7916Y4508D02*
X7931D01*
X7923Y4500D02*
Y4515D01*
X7985Y4567D02*
X8000D01*
X7992Y4559D02*
Y4574D01*
X7994Y4449D02*
X8009D01*
X8002Y4441D02*
Y4456D01*
X8014Y5030D02*
X8029D01*
X8022Y5022D02*
Y5037D01*
X8014Y5079D02*
X8029D01*
X8022Y5071D02*
Y5086D01*
X8014Y5128D02*
X8029D01*
X8022Y5120D02*
Y5135D01*
X7807Y5039D02*
X7822D01*
X7815Y5032D02*
Y5047D01*
X8211Y4104D02*
X8226D01*
X8219Y4097D02*
Y4112D01*
X5357Y3593D02*
X5372D01*
X5364Y3585D02*
Y3600D01*
X5180Y3494D02*
X5195D01*
X5187Y3487D02*
Y3502D01*
X5180Y3543D02*
X5195D01*
X5187Y3536D02*
Y3551D01*
X5681Y3386D02*
X5696D01*
X5689Y3378D02*
Y3393D01*
X7178Y5128D02*
X7193D01*
X7185Y5120D02*
Y5135D01*
X6981Y5128D02*
X6996D01*
X6988Y5120D02*
Y5135D01*
X7187Y4970D02*
X7202D01*
X7195Y4963D02*
Y4978D01*
X6380Y3652D02*
X6395D01*
X6388Y3644D02*
Y3659D01*
X6518Y3789D02*
X6533D01*
X6526Y3782D02*
Y3797D01*
X7079Y3730D02*
X7094D01*
X7087Y3723D02*
Y3738D01*
X7217Y3799D02*
X7232D01*
X7224Y3792D02*
Y3807D01*
X6744Y3219D02*
X6759D01*
X6752Y3211D02*
Y3226D01*
X6794Y3445D02*
X6809D01*
X6801Y3437D02*
Y3452D01*
X6991Y3445D02*
X7006D01*
X6998Y3437D02*
Y3452D01*
X6439Y3406D02*
X6454D01*
X6447Y3398D02*
Y3413D01*
X7237Y3022D02*
X7252D01*
X7244Y3014D02*
Y3029D01*
X7571Y2234D02*
X7586D01*
X7579Y2227D02*
Y2242D01*
X7463Y2234D02*
X7478D01*
X7470Y2227D02*
Y2242D01*
X7817Y1998D02*
X7832D01*
X7825Y1991D02*
Y2006D01*
X4737Y3533D02*
X4752D01*
X4744Y3526D02*
Y3541D01*
X4630Y3514D02*
X4645D01*
X4637Y3506D02*
Y3521D01*
X4668Y3671D02*
X4683D01*
X4675Y3664D02*
Y3679D01*
X7670Y1988D02*
X7685D01*
X7677Y1981D02*
Y1996D01*
X7394Y1900D02*
X7409D01*
X7402Y1892D02*
Y1907D01*
X7670Y1939D02*
X7685D01*
X7677Y1931D02*
Y1946D01*
X7817Y1939D02*
X7832D01*
X7825Y1931D02*
Y1946D01*
X6666Y2933D02*
X6681D01*
X6673Y2926D02*
Y2941D01*
X7807Y2589D02*
X7822D01*
X7815Y2581D02*
Y2596D01*
X8132Y2667D02*
X8147D01*
X8140Y2660D02*
Y2675D01*
X7975Y2746D02*
X7990D01*
X7982Y2739D02*
Y2754D01*
X8103Y2982D02*
X8118D01*
X8110Y2975D02*
Y2990D01*
X7847Y3228D02*
X7862D01*
X7854Y3221D02*
Y3236D01*
X8378Y2589D02*
X8393D01*
X8386Y2581D02*
Y2596D01*
X8703Y2667D02*
X8718D01*
X8711Y2660D02*
Y2675D01*
X8546Y2746D02*
X8561D01*
X8553Y2739D02*
Y2754D01*
X8664Y2982D02*
X8679D01*
X8671Y2975D02*
Y2990D01*
X8664Y3061D02*
X8679D01*
X8671Y3054D02*
Y3069D01*
X8418Y3228D02*
X8433D01*
X8425Y3221D02*
Y3236D01*
X8103Y3061D02*
X8118D01*
X8110Y3054D02*
Y3069D01*
X7492Y2884D02*
X7507D01*
X7500Y2876D02*
Y2891D01*
X5524Y2520D02*
X5539D01*
X5531Y2512D02*
Y2527D01*
X5937Y2520D02*
X5952D01*
X5945Y2512D02*
Y2527D01*
X7040Y4606D02*
X7055D01*
X7047Y4599D02*
Y4614D01*
X6843Y4606D02*
X6858D01*
X6850Y4599D02*
Y4614D01*
X6370Y5128D02*
X6385D01*
X6378Y5120D02*
Y5135D01*
X6370Y5020D02*
X6385D01*
X6378Y5012D02*
Y5027D01*
X6784Y5020D02*
X6799D01*
X6791Y5012D02*
Y5027D01*
X6528Y3061D02*
X6543D01*
X6535Y3054D02*
Y3069D01*
X5189Y2116D02*
X5204D01*
X5197Y2109D02*
Y2124D01*
X4894Y2126D02*
X4909D01*
X4902Y2118D02*
Y2133D01*
X4687Y3376D02*
X4702D01*
X4695Y3368D02*
Y3383D01*
X6518Y4409D02*
X6533D01*
X6526Y4402D02*
Y4417D01*
X6774Y3642D02*
X6789D01*
X6781Y3634D02*
Y3649D01*
X6508Y4764D02*
X6523D01*
X6516Y4756D02*
Y4771D01*
X4796Y2953D02*
X4811D01*
X4803Y2945D02*
Y2960D01*
X5288Y2953D02*
X5303D01*
X5295Y2945D02*
Y2960D01*
X6823Y4350D02*
X6838D01*
X6831Y4343D02*
Y4358D01*
X7394Y2096D02*
X7409D01*
X7402Y2089D02*
Y2104D01*
X5140Y3150D02*
X5155D01*
X5148Y3142D02*
Y3157D01*
X7237Y4311D02*
X7252D01*
X7244Y4304D02*
Y4319D01*
X6705Y4921D02*
X6720D01*
X6713Y4914D02*
Y4929D01*
X6646Y3061D02*
X6661D01*
X6654Y3054D02*
Y3069D01*
X6164Y3878D02*
X6179D01*
X6171Y3870D02*
Y3885D01*
X5042Y1772D02*
X5057D01*
X5049Y1764D02*
Y1779D01*
X5317Y1772D02*
X5332D01*
X5325Y1764D02*
Y1779D01*
X4146Y1772D02*
X4161D01*
X4154Y1764D02*
Y1779D01*
X4146Y1654D02*
X4161D01*
X4154Y1646D02*
Y1661D01*
M02*
