G04*
G04 #@! TF.GenerationSoftware,Altium Limited,CircuitStudio,1.5.1 (13)*
G04*
G04 Layer_Physical_Order=2*
G04 Layer_Color=16765976*
%FSLAX23Y23*%
%MOIN*%
G70*
G01*
G75*
%ADD48C,0.010*%
%ADD49C,0.020*%
%ADD54C,0.060*%
%ADD56C,0.063*%
%ADD59R,0.060X0.060*%
%ADD61C,0.054*%
%ADD63C,0.106*%
%ADD66C,0.157*%
%ADD67C,0.071*%
%ADD70C,0.050*%
%ADD71C,0.110*%
%ADD72C,0.030*%
G36*
X9626Y1594D02*
X1398D01*
Y5492D01*
X9626D01*
Y1594D01*
D02*
G37*
%LPC*%
G36*
X8666Y3086D02*
X8662Y3085D01*
X8653Y3079D01*
X8648Y3071D01*
X8647Y3066D01*
X8666D01*
Y3086D01*
D02*
G37*
G36*
X8676D02*
Y3066D01*
X8696D01*
X8695Y3071D01*
X8689Y3079D01*
X8681Y3085D01*
X8676Y3086D01*
D02*
G37*
G36*
X8105D02*
X8100Y3085D01*
X8092Y3079D01*
X8087Y3071D01*
X8086Y3066D01*
X8105D01*
Y3086D01*
D02*
G37*
G36*
X8115D02*
Y3066D01*
X8135D01*
X8134Y3071D01*
X8128Y3079D01*
X8120Y3085D01*
X8115Y3086D01*
D02*
G37*
G36*
X4946Y3194D02*
X4926D01*
Y3174D01*
X4931Y3175D01*
X4939Y3181D01*
X4945Y3189D01*
X4946Y3194D01*
D02*
G37*
G36*
X6747Y3214D02*
X6727D01*
X6728Y3209D01*
X6734Y3200D01*
X6742Y3195D01*
X6747Y3194D01*
Y3214D01*
D02*
G37*
G36*
X5148Y3175D02*
X5138Y3173D01*
X5130Y3168D01*
X5124Y3159D01*
X5122Y3150D01*
X5124Y3140D01*
X5130Y3132D01*
X5138Y3126D01*
X5148Y3124D01*
X5157Y3126D01*
X5166Y3132D01*
X5171Y3140D01*
X5173Y3150D01*
X5171Y3159D01*
X5166Y3168D01*
X5157Y3173D01*
X5148Y3175D01*
D02*
G37*
G36*
X4916Y3194D02*
X4897D01*
X4898Y3189D01*
X4903Y3181D01*
X4912Y3175D01*
X4916Y3174D01*
Y3194D01*
D02*
G37*
G36*
X8666Y3056D02*
X8647D01*
X8648Y3051D01*
X8653Y3043D01*
X8662Y3037D01*
X8666Y3037D01*
Y3056D01*
D02*
G37*
G36*
X8696D02*
X8676D01*
Y3037D01*
X8681Y3037D01*
X8689Y3043D01*
X8695Y3051D01*
X8696Y3056D01*
D02*
G37*
G36*
X8105D02*
X8086D01*
X8087Y3051D01*
X8092Y3043D01*
X8100Y3037D01*
X8105Y3037D01*
Y3056D01*
D02*
G37*
G36*
X8135D02*
X8115D01*
Y3037D01*
X8120Y3037D01*
X8128Y3043D01*
X8134Y3051D01*
X8135Y3056D01*
D02*
G37*
G36*
X6649Y3086D02*
X6644Y3085D01*
X6636Y3079D01*
X6630Y3071D01*
X6629Y3066D01*
X6649D01*
Y3086D01*
D02*
G37*
G36*
X6659D02*
Y3066D01*
X6678D01*
X6677Y3071D01*
X6672Y3079D01*
X6663Y3085D01*
X6659Y3086D01*
D02*
G37*
G36*
X4695Y3131D02*
X4684Y3130D01*
X4675Y3125D01*
X4666Y3119D01*
X4660Y3111D01*
X4656Y3101D01*
X4655Y3091D01*
X4656Y3080D01*
X4660Y3070D01*
X4666Y3062D01*
X4675Y3056D01*
X4684Y3052D01*
X4695Y3050D01*
X4705Y3052D01*
X4715Y3056D01*
X4723Y3062D01*
X4730Y3070D01*
X4734Y3080D01*
X4735Y3091D01*
X4734Y3101D01*
X4730Y3111D01*
X4723Y3119D01*
X4715Y3125D01*
X4705Y3130D01*
X4695Y3131D01*
D02*
G37*
G36*
X5404D02*
X5393Y3130D01*
X5383Y3125D01*
X5375Y3119D01*
X5369Y3111D01*
X5365Y3101D01*
X5363Y3091D01*
X5365Y3080D01*
X5369Y3070D01*
X5375Y3062D01*
X5383Y3056D01*
X5393Y3052D01*
X5404Y3050D01*
X5414Y3052D01*
X5424Y3056D01*
X5432Y3062D01*
X5438Y3070D01*
X5443Y3080D01*
X5444Y3091D01*
X5443Y3101D01*
X5438Y3111D01*
X5432Y3119D01*
X5424Y3125D01*
X5414Y3130D01*
X5404Y3131D01*
D02*
G37*
G36*
X6776Y3214D02*
X6757D01*
Y3194D01*
X6762Y3195D01*
X6770Y3200D01*
X6776Y3209D01*
X6776Y3214D01*
D02*
G37*
G36*
X8420Y3253D02*
X8415Y3252D01*
X8407Y3246D01*
X8402Y3238D01*
X8401Y3233D01*
X8420D01*
Y3253D01*
D02*
G37*
G36*
X8430D02*
Y3233D01*
X8450D01*
X8449Y3238D01*
X8443Y3246D01*
X8435Y3252D01*
X8430Y3253D01*
D02*
G37*
G36*
X7849D02*
X7845Y3252D01*
X7836Y3246D01*
X7831Y3238D01*
X7830Y3233D01*
X7849D01*
Y3253D01*
D02*
G37*
G36*
X7859D02*
Y3233D01*
X7879D01*
X7878Y3238D01*
X7872Y3246D01*
X7864Y3252D01*
X7859Y3253D01*
D02*
G37*
G36*
X5684Y3381D02*
X5664D01*
X5665Y3376D01*
X5671Y3368D01*
X5679Y3362D01*
X5684Y3361D01*
Y3381D01*
D02*
G37*
G36*
X5713D02*
X5694D01*
Y3361D01*
X5699Y3362D01*
X5707Y3368D01*
X5713Y3376D01*
X5713Y3381D01*
D02*
G37*
G36*
X7043Y3342D02*
X7033Y3340D01*
X7023Y3336D01*
X7015Y3330D01*
X7008Y3321D01*
X7004Y3312D01*
X7003Y3301D01*
X7004Y3291D01*
X7008Y3281D01*
X7015Y3273D01*
X7023Y3266D01*
X7033Y3262D01*
X7043Y3261D01*
X7054Y3262D01*
X7063Y3266D01*
X7072Y3273D01*
X7078Y3281D01*
X7082Y3291D01*
X7084Y3301D01*
X7082Y3312D01*
X7078Y3321D01*
X7072Y3330D01*
X7063Y3336D01*
X7054Y3340D01*
X7043Y3342D01*
D02*
G37*
G36*
X4695Y3401D02*
X4685Y3400D01*
X4677Y3394D01*
X4671Y3386D01*
X4669Y3376D01*
X4671Y3366D01*
X4677Y3358D01*
X4685Y3352D01*
X4695Y3350D01*
X4705Y3352D01*
X4713Y3358D01*
X4718Y3366D01*
X4720Y3376D01*
X4718Y3386D01*
X4713Y3394D01*
X4705Y3400D01*
X4695Y3401D01*
D02*
G37*
G36*
X7849Y3223D02*
X7830D01*
X7831Y3219D01*
X7836Y3210D01*
X7845Y3205D01*
X7849Y3204D01*
Y3223D01*
D02*
G37*
G36*
X7879D02*
X7859D01*
Y3204D01*
X7864Y3205D01*
X7872Y3210D01*
X7878Y3219D01*
X7879Y3223D01*
D02*
G37*
G36*
X4916Y3223D02*
X4912Y3222D01*
X4903Y3217D01*
X4898Y3209D01*
X4897Y3204D01*
X4916D01*
Y3223D01*
D02*
G37*
G36*
X4926D02*
Y3204D01*
X4946D01*
X4945Y3209D01*
X4939Y3217D01*
X4931Y3222D01*
X4926Y3223D01*
D02*
G37*
G36*
X6747Y3243D02*
X6742Y3242D01*
X6734Y3237D01*
X6728Y3228D01*
X6727Y3224D01*
X6747D01*
Y3243D01*
D02*
G37*
G36*
X6757D02*
Y3224D01*
X6776D01*
X6776Y3228D01*
X6770Y3237D01*
X6762Y3242D01*
X6757Y3243D01*
D02*
G37*
G36*
X8420Y3223D02*
X8401D01*
X8402Y3219D01*
X8407Y3210D01*
X8415Y3205D01*
X8420Y3204D01*
Y3223D01*
D02*
G37*
G36*
X8450D02*
X8430D01*
Y3204D01*
X8435Y3205D01*
X8443Y3210D01*
X8449Y3219D01*
X8450Y3223D01*
D02*
G37*
G36*
X4798Y2948D02*
X4779D01*
X4780Y2943D01*
X4785Y2935D01*
X4793Y2929D01*
X4798Y2928D01*
Y2948D01*
D02*
G37*
G36*
X4828D02*
X4808D01*
Y2928D01*
X4813Y2929D01*
X4821Y2935D01*
X4827Y2943D01*
X4828Y2948D01*
D02*
G37*
G36*
X6668Y2928D02*
X6649D01*
X6650Y2923D01*
X6655Y2915D01*
X6663Y2910D01*
X6668Y2909D01*
Y2928D01*
D02*
G37*
G36*
X6698D02*
X6678D01*
Y2909D01*
X6683Y2910D01*
X6691Y2915D01*
X6697Y2923D01*
X6698Y2928D01*
D02*
G37*
G36*
X6668Y2958D02*
X6663Y2957D01*
X6655Y2951D01*
X6650Y2943D01*
X6649Y2938D01*
X6668D01*
Y2958D01*
D02*
G37*
G36*
X6678D02*
Y2938D01*
X6698D01*
X6697Y2943D01*
X6691Y2951D01*
X6683Y2957D01*
X6678Y2958D01*
D02*
G37*
G36*
X5290Y2948D02*
X5271D01*
X5272Y2943D01*
X5277Y2935D01*
X5286Y2929D01*
X5290Y2928D01*
Y2948D01*
D02*
G37*
G36*
X5320D02*
X5300D01*
Y2928D01*
X5305Y2929D01*
X5313Y2935D01*
X5319Y2943D01*
X5320Y2948D01*
D02*
G37*
G36*
X5093Y2928D02*
X5053D01*
X5054Y2921D01*
X5059Y2910D01*
X5066Y2901D01*
X5076Y2893D01*
X5087Y2889D01*
X5093Y2888D01*
Y2928D01*
D02*
G37*
G36*
X5144D02*
X5103D01*
Y2888D01*
X5110Y2889D01*
X5121Y2893D01*
X5131Y2901D01*
X5138Y2910D01*
X5143Y2921D01*
X5144Y2928D01*
D02*
G37*
G36*
X5000Y2979D02*
X4988Y2977D01*
X4977Y2973D01*
X4968Y2965D01*
X4960Y2956D01*
X4956Y2945D01*
X4954Y2933D01*
X4956Y2921D01*
X4960Y2910D01*
X4968Y2901D01*
X4977Y2893D01*
X4988Y2889D01*
X5000Y2887D01*
X5012Y2889D01*
X5023Y2893D01*
X5032Y2901D01*
X5040Y2910D01*
X5044Y2921D01*
X5046Y2933D01*
X5044Y2945D01*
X5040Y2956D01*
X5032Y2965D01*
X5023Y2973D01*
X5012Y2977D01*
X5000Y2979D01*
D02*
G37*
G36*
X5197D02*
X5185Y2977D01*
X5174Y2973D01*
X5164Y2965D01*
X5157Y2956D01*
X5153Y2945D01*
X5151Y2933D01*
X5153Y2921D01*
X5157Y2910D01*
X5164Y2901D01*
X5174Y2893D01*
X5185Y2889D01*
X5197Y2887D01*
X5209Y2889D01*
X5220Y2893D01*
X5229Y2901D01*
X5237Y2910D01*
X5241Y2921D01*
X5243Y2933D01*
X5241Y2945D01*
X5237Y2956D01*
X5229Y2965D01*
X5220Y2973D01*
X5209Y2977D01*
X5197Y2979D01*
D02*
G37*
G36*
X9119Y2963D02*
Y2903D01*
X9179D01*
X9178Y2911D01*
X9175Y2923D01*
X9168Y2934D01*
X9160Y2944D01*
X9150Y2952D01*
X9139Y2958D01*
X9127Y2962D01*
X9119Y2963D01*
D02*
G37*
G36*
X9319D02*
Y2903D01*
X9379D01*
X9378Y2911D01*
X9375Y2923D01*
X9368Y2934D01*
X9360Y2944D01*
X9350Y2952D01*
X9339Y2958D01*
X9327Y2962D01*
X9319Y2963D01*
D02*
G37*
G36*
X9109Y2963D02*
X9101Y2962D01*
X9089Y2958D01*
X9078Y2952D01*
X9068Y2944D01*
X9060Y2934D01*
X9054Y2923D01*
X9050Y2911D01*
X9049Y2903D01*
X9109D01*
Y2963D01*
D02*
G37*
G36*
X9309D02*
X9301Y2962D01*
X9289Y2958D01*
X9278Y2952D01*
X9268Y2944D01*
X9260Y2934D01*
X9254Y2923D01*
X9250Y2911D01*
X9249Y2903D01*
X9309D01*
Y2963D01*
D02*
G37*
G36*
X5093Y2978D02*
X5087Y2977D01*
X5076Y2973D01*
X5066Y2965D01*
X5059Y2956D01*
X5054Y2945D01*
X5053Y2938D01*
X5093D01*
Y2978D01*
D02*
G37*
G36*
X7269Y3017D02*
X7249D01*
Y2997D01*
X7254Y2998D01*
X7262Y3004D01*
X7268Y3012D01*
X7269Y3017D01*
D02*
G37*
G36*
X7239Y3046D02*
X7234Y3045D01*
X7226Y3040D01*
X7221Y3031D01*
X7220Y3027D01*
X7239D01*
Y3046D01*
D02*
G37*
G36*
X7047Y3054D02*
X7037Y3052D01*
X7027Y3048D01*
X7019Y3042D01*
X7012Y3034D01*
X7008Y3024D01*
X7007Y3013D01*
X7008Y3003D01*
X7012Y2993D01*
X7019Y2985D01*
X7027Y2978D01*
X7037Y2974D01*
X7047Y2973D01*
X7058Y2974D01*
X7067Y2978D01*
X7076Y2985D01*
X7082Y2993D01*
X7086Y3003D01*
X7088Y3013D01*
X7086Y3024D01*
X7082Y3034D01*
X7076Y3042D01*
X7067Y3048D01*
X7058Y3052D01*
X7047Y3054D01*
D02*
G37*
G36*
X7239Y3017D02*
X7220D01*
X7221Y3012D01*
X7226Y3004D01*
X7234Y2998D01*
X7239Y2997D01*
Y3017D01*
D02*
G37*
G36*
X6649Y3056D02*
X6629D01*
X6630Y3051D01*
X6636Y3043D01*
X6644Y3037D01*
X6649Y3037D01*
Y3056D01*
D02*
G37*
G36*
X6678D02*
X6659D01*
Y3037D01*
X6663Y3037D01*
X6672Y3043D01*
X6677Y3051D01*
X6678Y3056D01*
D02*
G37*
G36*
X7249Y3046D02*
Y3027D01*
X7269D01*
X7268Y3031D01*
X7262Y3040D01*
X7254Y3045D01*
X7249Y3046D01*
D02*
G37*
G36*
X6535Y3087D02*
X6526Y3085D01*
X6517Y3079D01*
X6512Y3071D01*
X6510Y3061D01*
X6512Y3051D01*
X6517Y3043D01*
X6526Y3037D01*
X6535Y3036D01*
X6545Y3037D01*
X6553Y3043D01*
X6559Y3051D01*
X6561Y3061D01*
X6559Y3071D01*
X6553Y3079D01*
X6545Y3085D01*
X6535Y3087D01*
D02*
G37*
G36*
X8671Y3008D02*
X8662Y3006D01*
X8653Y3000D01*
X8648Y2992D01*
X8646Y2982D01*
X8648Y2973D01*
X8653Y2964D01*
X8662Y2959D01*
X8671Y2957D01*
X8681Y2959D01*
X8689Y2964D01*
X8695Y2973D01*
X8697Y2982D01*
X8695Y2992D01*
X8689Y3000D01*
X8681Y3006D01*
X8671Y3008D01*
D02*
G37*
G36*
X4798Y2977D02*
X4793Y2976D01*
X4785Y2971D01*
X4780Y2963D01*
X4779Y2958D01*
X4798D01*
Y2977D01*
D02*
G37*
G36*
X5103Y2978D02*
Y2938D01*
X5144D01*
X5143Y2945D01*
X5138Y2956D01*
X5131Y2965D01*
X5121Y2973D01*
X5110Y2977D01*
X5103Y2978D01*
D02*
G37*
G36*
X8110Y3008D02*
X8100Y3006D01*
X8092Y3000D01*
X8087Y2992D01*
X8085Y2982D01*
X8087Y2973D01*
X8092Y2964D01*
X8100Y2959D01*
X8110Y2957D01*
X8120Y2959D01*
X8128Y2964D01*
X8134Y2973D01*
X8136Y2982D01*
X8134Y2992D01*
X8128Y3000D01*
X8120Y3006D01*
X8110Y3008D01*
D02*
G37*
G36*
X5300Y2977D02*
Y2958D01*
X5320D01*
X5319Y2963D01*
X5313Y2971D01*
X5305Y2976D01*
X5300Y2977D01*
D02*
G37*
G36*
X6747Y3054D02*
X6737Y3052D01*
X6727Y3048D01*
X6719Y3042D01*
X6712Y3034D01*
X6708Y3024D01*
X6707Y3013D01*
X6708Y3003D01*
X6712Y2993D01*
X6719Y2985D01*
X6727Y2978D01*
X6737Y2974D01*
X6747Y2973D01*
X6758Y2974D01*
X6767Y2978D01*
X6776Y2985D01*
X6782Y2993D01*
X6786Y3003D01*
X6788Y3013D01*
X6786Y3024D01*
X6782Y3034D01*
X6776Y3042D01*
X6767Y3048D01*
X6758Y3052D01*
X6747Y3054D01*
D02*
G37*
G36*
X4808Y2977D02*
Y2958D01*
X4828D01*
X4827Y2963D01*
X4821Y2971D01*
X4813Y2976D01*
X4808Y2977D01*
D02*
G37*
G36*
X5290D02*
X5286Y2976D01*
X5277Y2971D01*
X5272Y2963D01*
X5271Y2958D01*
X5290D01*
Y2977D01*
D02*
G37*
G36*
X8527Y3900D02*
X8444D01*
Y3817D01*
X8527D01*
Y3900D01*
D02*
G37*
G36*
X1529Y3963D02*
X1516Y3961D01*
X1502Y3957D01*
X1490Y3951D01*
X1480Y3942D01*
X1471Y3931D01*
X1464Y3919D01*
X1460Y3906D01*
X1459Y3892D01*
X1460Y3879D01*
X1464Y3865D01*
X1471Y3853D01*
X1480Y3843D01*
X1490Y3834D01*
X1502Y3827D01*
X1516Y3823D01*
X1529Y3822D01*
X1543Y3823D01*
X1556Y3827D01*
X1568Y3834D01*
X1579Y3843D01*
X1588Y3853D01*
X1594Y3865D01*
X1598Y3879D01*
X1600Y3892D01*
X1598Y3906D01*
X1594Y3919D01*
X1588Y3931D01*
X1579Y3942D01*
X1568Y3951D01*
X1556Y3957D01*
X1543Y3961D01*
X1529Y3963D01*
D02*
G37*
G36*
X8386Y3900D02*
X8375Y3899D01*
X8365Y3895D01*
X8356Y3888D01*
X8350Y3879D01*
X8345Y3869D01*
X8344Y3858D01*
X8345Y3847D01*
X8350Y3837D01*
X8356Y3829D01*
X8365Y3822D01*
X8375Y3818D01*
X8386Y3816D01*
X8397Y3818D01*
X8407Y3822D01*
X8415Y3829D01*
X8422Y3837D01*
X8426Y3847D01*
X8428Y3858D01*
X8426Y3869D01*
X8422Y3879D01*
X8415Y3888D01*
X8407Y3895D01*
X8397Y3899D01*
X8386Y3900D01*
D02*
G37*
G36*
X8309Y3900D02*
X8226D01*
Y3817D01*
X8309D01*
Y3900D01*
D02*
G37*
G36*
X5202Y3843D02*
Y3824D01*
X5221D01*
X5220Y3829D01*
X5215Y3837D01*
X5207Y3842D01*
X5202Y3843D01*
D02*
G37*
G36*
X7712Y3853D02*
X7692D01*
X7693Y3849D01*
X7699Y3840D01*
X7707Y3835D01*
X7712Y3834D01*
Y3853D01*
D02*
G37*
G36*
X4171Y3963D02*
X4157Y3961D01*
X4144Y3957D01*
X4132Y3951D01*
X4121Y3942D01*
X4112Y3931D01*
X4106Y3919D01*
X4102Y3906D01*
X4100Y3892D01*
X4102Y3879D01*
X4106Y3865D01*
X4112Y3853D01*
X4121Y3843D01*
X4132Y3834D01*
X4144Y3827D01*
X4157Y3823D01*
X4171Y3822D01*
X4184Y3823D01*
X4198Y3827D01*
X4210Y3834D01*
X4220Y3843D01*
X4229Y3853D01*
X4236Y3865D01*
X4240Y3879D01*
X4241Y3892D01*
X4240Y3906D01*
X4236Y3919D01*
X4229Y3931D01*
X4220Y3942D01*
X4210Y3951D01*
X4198Y3957D01*
X4184Y3961D01*
X4171Y3963D01*
D02*
G37*
G36*
X5192Y3843D02*
X5187Y3842D01*
X5179Y3837D01*
X5173Y3829D01*
X5172Y3824D01*
X5192D01*
Y3843D01*
D02*
G37*
G36*
X6521Y3814D02*
X6516Y3813D01*
X6508Y3807D01*
X6502Y3799D01*
X6501Y3794D01*
X6521D01*
Y3814D01*
D02*
G37*
G36*
X6531D02*
Y3794D01*
X6550D01*
X6549Y3799D01*
X6544Y3807D01*
X6535Y3813D01*
X6531Y3814D01*
D02*
G37*
G36*
X7249Y3794D02*
X7229D01*
Y3775D01*
X7234Y3776D01*
X7242Y3781D01*
X7248Y3789D01*
X7249Y3794D01*
D02*
G37*
G36*
X5276Y3844D02*
X5266Y3842D01*
X5258Y3837D01*
X5252Y3829D01*
X5250Y3819D01*
X5252Y3809D01*
X5258Y3801D01*
X5266Y3795D01*
X5276Y3793D01*
X5285Y3795D01*
X5294Y3801D01*
X5299Y3809D01*
X5301Y3819D01*
X5299Y3829D01*
X5294Y3837D01*
X5285Y3842D01*
X5276Y3844D01*
D02*
G37*
G36*
X7219Y3824D02*
X7215Y3823D01*
X7206Y3817D01*
X7201Y3809D01*
X7200Y3804D01*
X7219D01*
Y3824D01*
D02*
G37*
G36*
X7229D02*
Y3804D01*
X7249D01*
X7248Y3809D01*
X7242Y3817D01*
X7234Y3823D01*
X7229Y3824D01*
D02*
G37*
G36*
X5192Y3814D02*
X5172D01*
X5173Y3809D01*
X5179Y3801D01*
X5187Y3795D01*
X5192Y3794D01*
Y3814D01*
D02*
G37*
G36*
X5221D02*
X5202D01*
Y3794D01*
X5207Y3795D01*
X5215Y3801D01*
X5220Y3809D01*
X5221Y3814D01*
D02*
G37*
G36*
X7741Y3853D02*
X7722D01*
Y3834D01*
X7726Y3835D01*
X7735Y3840D01*
X7740Y3849D01*
X7741Y3853D01*
D02*
G37*
G36*
X2854Y3958D02*
X2844Y3956D01*
X2834Y3952D01*
X2826Y3946D01*
X2819Y3937D01*
X2815Y3928D01*
X2814Y3917D01*
X2815Y3907D01*
X2819Y3897D01*
X2826Y3889D01*
X2834Y3882D01*
X2844Y3878D01*
X2854Y3877D01*
X2865Y3878D01*
X2875Y3882D01*
X2883Y3889D01*
X2889Y3897D01*
X2893Y3907D01*
X2895Y3917D01*
X2893Y3928D01*
X2889Y3937D01*
X2883Y3946D01*
X2875Y3952D01*
X2865Y3956D01*
X2854Y3958D01*
D02*
G37*
G36*
X2954D02*
X2944Y3956D01*
X2934Y3952D01*
X2926Y3946D01*
X2919Y3937D01*
X2915Y3928D01*
X2914Y3917D01*
X2915Y3907D01*
X2919Y3897D01*
X2926Y3889D01*
X2934Y3882D01*
X2944Y3878D01*
X2954Y3877D01*
X2965Y3878D01*
X2975Y3882D01*
X2983Y3889D01*
X2989Y3897D01*
X2993Y3907D01*
X2995Y3917D01*
X2993Y3928D01*
X2989Y3937D01*
X2983Y3946D01*
X2975Y3952D01*
X2965Y3956D01*
X2954Y3958D01*
D02*
G37*
G36*
X2654D02*
X2644Y3956D01*
X2634Y3952D01*
X2626Y3946D01*
X2619Y3937D01*
X2615Y3928D01*
X2614Y3917D01*
X2615Y3907D01*
X2619Y3897D01*
X2626Y3889D01*
X2634Y3882D01*
X2644Y3878D01*
X2654Y3877D01*
X2665Y3878D01*
X2675Y3882D01*
X2683Y3889D01*
X2689Y3897D01*
X2693Y3907D01*
X2695Y3917D01*
X2693Y3928D01*
X2689Y3937D01*
X2683Y3946D01*
X2675Y3952D01*
X2665Y3956D01*
X2654Y3958D01*
D02*
G37*
G36*
X2754D02*
X2744Y3956D01*
X2734Y3952D01*
X2726Y3946D01*
X2719Y3937D01*
X2715Y3928D01*
X2714Y3917D01*
X2715Y3907D01*
X2719Y3897D01*
X2726Y3889D01*
X2734Y3882D01*
X2744Y3878D01*
X2754Y3877D01*
X2765Y3878D01*
X2775Y3882D01*
X2783Y3889D01*
X2789Y3897D01*
X2793Y3907D01*
X2795Y3917D01*
X2793Y3928D01*
X2789Y3937D01*
X2783Y3946D01*
X2775Y3952D01*
X2765Y3956D01*
X2754Y3958D01*
D02*
G37*
G36*
X3194Y3912D02*
X3159D01*
Y3877D01*
X3194D01*
Y3912D01*
D02*
G37*
G36*
X6166Y3902D02*
X6162Y3902D01*
X6153Y3896D01*
X6148Y3888D01*
X6147Y3883D01*
X6166D01*
Y3902D01*
D02*
G37*
G36*
X3054Y3958D02*
X3044Y3956D01*
X3034Y3952D01*
X3026Y3946D01*
X3019Y3937D01*
X3015Y3928D01*
X3014Y3917D01*
X3015Y3907D01*
X3019Y3897D01*
X3026Y3889D01*
X3034Y3882D01*
X3044Y3878D01*
X3054Y3877D01*
X3065Y3878D01*
X3075Y3882D01*
X3083Y3889D01*
X3089Y3897D01*
X3093Y3907D01*
X3095Y3917D01*
X3093Y3928D01*
X3089Y3937D01*
X3083Y3946D01*
X3075Y3952D01*
X3065Y3956D01*
X3054Y3958D01*
D02*
G37*
G36*
X3149Y3912D02*
X3114D01*
Y3877D01*
X3149D01*
Y3912D01*
D02*
G37*
G36*
X6166Y3873D02*
X6147D01*
X6148Y3868D01*
X6153Y3860D01*
X6162Y3854D01*
X6166Y3853D01*
Y3873D01*
D02*
G37*
G36*
X6196D02*
X6176D01*
Y3853D01*
X6181Y3854D01*
X6189Y3860D01*
X6195Y3868D01*
X6196Y3873D01*
D02*
G37*
G36*
X7598Y3920D02*
X7588Y3918D01*
X7577Y3914D01*
X7569Y3908D01*
X7562Y3899D01*
X7558Y3889D01*
X7557Y3878D01*
X7558Y3867D01*
X7562Y3857D01*
X7569Y3848D01*
X7577Y3842D01*
X7588Y3838D01*
X7598Y3836D01*
X7609Y3838D01*
X7619Y3842D01*
X7628Y3848D01*
X7635Y3857D01*
X7639Y3867D01*
X7640Y3878D01*
X7639Y3889D01*
X7635Y3899D01*
X7628Y3908D01*
X7619Y3914D01*
X7609Y3918D01*
X7598Y3920D01*
D02*
G37*
G36*
X7540Y3919D02*
X7457D01*
Y3836D01*
X7540D01*
Y3919D01*
D02*
G37*
G36*
X4419Y3923D02*
X4410Y3921D01*
X4401Y3916D01*
X4396Y3907D01*
X4394Y3898D01*
X4396Y3888D01*
X4401Y3880D01*
X4410Y3874D01*
X4419Y3872D01*
X4429Y3874D01*
X4437Y3880D01*
X4443Y3888D01*
X4445Y3898D01*
X4443Y3907D01*
X4437Y3916D01*
X4429Y3921D01*
X4419Y3923D01*
D02*
G37*
G36*
X2554Y3958D02*
X2544Y3956D01*
X2534Y3952D01*
X2526Y3946D01*
X2519Y3937D01*
X2515Y3928D01*
X2514Y3917D01*
X2515Y3907D01*
X2519Y3897D01*
X2526Y3889D01*
X2534Y3882D01*
X2544Y3878D01*
X2554Y3877D01*
X2565Y3878D01*
X2575Y3882D01*
X2583Y3889D01*
X2589Y3897D01*
X2593Y3907D01*
X2595Y3917D01*
X2593Y3928D01*
X2589Y3937D01*
X2583Y3946D01*
X2575Y3952D01*
X2565Y3956D01*
X2554Y3958D01*
D02*
G37*
G36*
X7712Y3883D02*
X7707Y3882D01*
X7699Y3876D01*
X7693Y3868D01*
X7692Y3863D01*
X7712D01*
Y3883D01*
D02*
G37*
G36*
X7722D02*
Y3863D01*
X7741D01*
X7740Y3868D01*
X7735Y3876D01*
X7726Y3882D01*
X7722Y3883D01*
D02*
G37*
G36*
X6806Y3469D02*
Y3450D01*
X6826D01*
X6825Y3455D01*
X6819Y3463D01*
X6811Y3468D01*
X6806Y3469D01*
D02*
G37*
G36*
X5187Y3569D02*
X5177Y3567D01*
X5169Y3561D01*
X5163Y3553D01*
X5162Y3543D01*
X5163Y3534D01*
X5169Y3525D01*
X5174Y3522D01*
Y3516D01*
X5169Y3512D01*
X5163Y3504D01*
X5162Y3494D01*
X5163Y3484D01*
X5169Y3476D01*
X5177Y3471D01*
X5187Y3469D01*
X5197Y3471D01*
X5205Y3476D01*
X5211Y3484D01*
X5212Y3494D01*
X5211Y3504D01*
X5205Y3512D01*
X5200Y3516D01*
Y3522D01*
X5205Y3525D01*
X5211Y3534D01*
X5212Y3543D01*
X5211Y3553D01*
X5205Y3561D01*
X5197Y3567D01*
X5187Y3569D01*
D02*
G37*
G36*
X6826Y3440D02*
X6806D01*
Y3420D01*
X6811Y3421D01*
X6819Y3427D01*
X6825Y3435D01*
X6826Y3440D01*
D02*
G37*
G36*
X6796Y3469D02*
X6791Y3468D01*
X6783Y3463D01*
X6778Y3455D01*
X6777Y3450D01*
X6796D01*
Y3469D01*
D02*
G37*
G36*
X4637Y3539D02*
X4628Y3537D01*
X4619Y3532D01*
X4614Y3524D01*
X4612Y3514D01*
X4614Y3504D01*
X4619Y3496D01*
X4628Y3490D01*
X4637Y3488D01*
X4647Y3490D01*
X4655Y3496D01*
X4661Y3504D01*
X4663Y3514D01*
X4661Y3524D01*
X4655Y3532D01*
X4647Y3537D01*
X4637Y3539D01*
D02*
G37*
G36*
X8046Y3528D02*
X8041Y3527D01*
X8033Y3522D01*
X8028Y3514D01*
X8027Y3509D01*
X8046D01*
Y3528D01*
D02*
G37*
G36*
Y3499D02*
X8027D01*
X8028Y3494D01*
X8033Y3486D01*
X8041Y3480D01*
X8046Y3479D01*
Y3499D01*
D02*
G37*
G36*
X8076D02*
X8056D01*
Y3479D01*
X8061Y3480D01*
X8069Y3486D01*
X8075Y3494D01*
X8076Y3499D01*
D02*
G37*
G36*
X5684Y3410D02*
X5679Y3409D01*
X5671Y3404D01*
X5665Y3396D01*
X5664Y3391D01*
X5684D01*
Y3410D01*
D02*
G37*
G36*
X5694D02*
Y3391D01*
X5713D01*
X5713Y3396D01*
X5707Y3404D01*
X5699Y3409D01*
X5694Y3410D01*
D02*
G37*
G36*
X6442Y3401D02*
X6422D01*
X6423Y3396D01*
X6429Y3387D01*
X6437Y3382D01*
X6442Y3381D01*
Y3401D01*
D02*
G37*
G36*
X6471D02*
X6452D01*
Y3381D01*
X6457Y3382D01*
X6465Y3387D01*
X6470Y3396D01*
X6471Y3401D01*
D02*
G37*
G36*
X6998Y3470D02*
X6988Y3468D01*
X6980Y3463D01*
X6974Y3455D01*
X6973Y3445D01*
X6974Y3435D01*
X6980Y3427D01*
X6988Y3421D01*
X6998Y3419D01*
X7008Y3421D01*
X7016Y3427D01*
X7022Y3435D01*
X7024Y3445D01*
X7022Y3455D01*
X7016Y3463D01*
X7008Y3468D01*
X6998Y3470D01*
D02*
G37*
G36*
X6796Y3440D02*
X6777D01*
X6778Y3435D01*
X6783Y3427D01*
X6791Y3421D01*
X6796Y3420D01*
Y3440D01*
D02*
G37*
G36*
X6442Y3430D02*
X6437Y3429D01*
X6429Y3424D01*
X6423Y3415D01*
X6422Y3411D01*
X6442D01*
Y3430D01*
D02*
G37*
G36*
X6452D02*
Y3411D01*
X6471D01*
X6470Y3415D01*
X6465Y3424D01*
X6457Y3429D01*
X6452Y3430D01*
D02*
G37*
G36*
X8056Y3528D02*
Y3509D01*
X8076D01*
X8075Y3514D01*
X8069Y3522D01*
X8061Y3527D01*
X8056Y3528D01*
D02*
G37*
G36*
X6786Y3666D02*
Y3647D01*
X6806D01*
X6805Y3651D01*
X6800Y3660D01*
X6791Y3665D01*
X6786Y3666D01*
D02*
G37*
G36*
X7087Y3756D02*
X7077Y3754D01*
X7069Y3748D01*
X7063Y3740D01*
X7061Y3730D01*
X7063Y3721D01*
X7069Y3712D01*
X7077Y3707D01*
X7087Y3705D01*
X7096Y3707D01*
X7105Y3712D01*
X7110Y3721D01*
X7112Y3730D01*
X7110Y3740D01*
X7105Y3748D01*
X7096Y3754D01*
X7087Y3756D01*
D02*
G37*
G36*
X4675Y3697D02*
X4665Y3695D01*
X4657Y3689D01*
X4652Y3681D01*
X4650Y3671D01*
X4652Y3662D01*
X4657Y3653D01*
X4665Y3648D01*
X4675Y3646D01*
X4685Y3648D01*
X4693Y3653D01*
X4699Y3662D01*
X4701Y3671D01*
X4699Y3681D01*
X4693Y3689D01*
X4685Y3695D01*
X4675Y3697D01*
D02*
G37*
G36*
X6776Y3666D02*
X6772Y3665D01*
X6763Y3660D01*
X6758Y3651D01*
X6757Y3647D01*
X6776D01*
Y3666D01*
D02*
G37*
G36*
X6550Y3784D02*
X6531D01*
Y3765D01*
X6535Y3766D01*
X6544Y3771D01*
X6549Y3780D01*
X6550Y3784D01*
D02*
G37*
G36*
X7219Y3794D02*
X7200D01*
X7201Y3789D01*
X7206Y3781D01*
X7215Y3776D01*
X7219Y3775D01*
Y3794D01*
D02*
G37*
G36*
X4921Y3766D02*
X4912Y3764D01*
X4903Y3758D01*
X4898Y3750D01*
X4896Y3740D01*
X4898Y3730D01*
X4903Y3722D01*
X4912Y3717D01*
X4921Y3715D01*
X4931Y3717D01*
X4939Y3722D01*
X4945Y3730D01*
X4947Y3740D01*
X4945Y3750D01*
X4939Y3758D01*
X4931Y3764D01*
X4921Y3766D01*
D02*
G37*
G36*
X6521Y3784D02*
X6501D01*
X6502Y3780D01*
X6508Y3771D01*
X6516Y3766D01*
X6521Y3765D01*
Y3784D01*
D02*
G37*
G36*
X4739Y3558D02*
X4734Y3557D01*
X4726Y3551D01*
X4721Y3543D01*
X4720Y3538D01*
X4739D01*
Y3558D01*
D02*
G37*
G36*
X4749D02*
Y3538D01*
X4769D01*
X4768Y3543D01*
X4762Y3551D01*
X4754Y3557D01*
X4749Y3558D01*
D02*
G37*
G36*
X4739Y3528D02*
X4720D01*
X4721Y3524D01*
X4726Y3515D01*
X4734Y3510D01*
X4739Y3509D01*
Y3528D01*
D02*
G37*
G36*
X4769D02*
X4749D01*
Y3509D01*
X4754Y3510D01*
X4762Y3515D01*
X4768Y3524D01*
X4769Y3528D01*
D02*
G37*
G36*
X6806Y3637D02*
X6786D01*
Y3617D01*
X6791Y3618D01*
X6800Y3624D01*
X6805Y3632D01*
X6806Y3637D01*
D02*
G37*
G36*
X6388Y3677D02*
X6378Y3675D01*
X6370Y3670D01*
X6364Y3661D01*
X6362Y3652D01*
X6364Y3642D01*
X6370Y3634D01*
X6378Y3628D01*
X6388Y3626D01*
X6398Y3628D01*
X6406Y3634D01*
X6411Y3642D01*
X6413Y3652D01*
X6411Y3661D01*
X6406Y3670D01*
X6398Y3675D01*
X6388Y3677D01*
D02*
G37*
G36*
X5364Y3618D02*
X5354Y3616D01*
X5346Y3611D01*
X5341Y3602D01*
X5339Y3593D01*
X5341Y3583D01*
X5346Y3574D01*
X5354Y3569D01*
X5364Y3567D01*
X5374Y3569D01*
X5382Y3574D01*
X5388Y3583D01*
X5390Y3593D01*
X5388Y3602D01*
X5382Y3611D01*
X5374Y3616D01*
X5364Y3618D01*
D02*
G37*
G36*
X6776Y3637D02*
X6757D01*
X6758Y3632D01*
X6763Y3624D01*
X6772Y3618D01*
X6776Y3617D01*
Y3637D01*
D02*
G37*
G36*
X7047Y2954D02*
X7037Y2952D01*
X7027Y2948D01*
X7019Y2942D01*
X7012Y2934D01*
X7008Y2924D01*
X7007Y2913D01*
X7008Y2903D01*
X7012Y2893D01*
X7019Y2885D01*
X7027Y2878D01*
X7037Y2874D01*
X7047Y2873D01*
X7058Y2874D01*
X7067Y2878D01*
X7076Y2885D01*
X7082Y2893D01*
X7086Y2903D01*
X7088Y2913D01*
X7086Y2924D01*
X7082Y2934D01*
X7076Y2942D01*
X7067Y2948D01*
X7058Y2952D01*
X7047Y2954D01*
D02*
G37*
G36*
X7820Y2023D02*
X7815Y2022D01*
X7807Y2016D01*
X7801Y2008D01*
X7800Y2003D01*
X7820D01*
Y2023D01*
D02*
G37*
G36*
X7830D02*
Y2003D01*
X7849D01*
X7848Y2008D01*
X7843Y2016D01*
X7835Y2022D01*
X7830Y2023D01*
D02*
G37*
G36*
X7820Y1993D02*
X7800D01*
X7801Y1988D01*
X7807Y1980D01*
X7815Y1974D01*
X7820Y1974D01*
Y1993D01*
D02*
G37*
G36*
X7849D02*
X7830D01*
Y1974D01*
X7835Y1974D01*
X7843Y1980D01*
X7848Y1988D01*
X7849Y1993D01*
D02*
G37*
G36*
X3543Y2073D02*
X3534Y2071D01*
X3525Y2065D01*
X3520Y2057D01*
X3518Y2047D01*
X3520Y2037D01*
X3525Y2029D01*
X3534Y2024D01*
X3543Y2022D01*
X3553Y2024D01*
X3561Y2029D01*
X3567Y2037D01*
X3569Y2047D01*
X3567Y2057D01*
X3561Y2065D01*
X3553Y2071D01*
X3543Y2073D01*
D02*
G37*
G36*
X6731Y2117D02*
X6655D01*
Y2041D01*
X6731D01*
Y2117D01*
D02*
G37*
G36*
X1732Y2073D02*
X1723Y2071D01*
X1714Y2065D01*
X1709Y2057D01*
X1707Y2047D01*
X1709Y2037D01*
X1714Y2029D01*
X1723Y2024D01*
X1732Y2022D01*
X1742Y2024D01*
X1750Y2029D01*
X1756Y2037D01*
X1758Y2047D01*
X1756Y2057D01*
X1750Y2065D01*
X1742Y2071D01*
X1732Y2073D01*
D02*
G37*
G36*
X2618D02*
X2608Y2071D01*
X2600Y2065D01*
X2595Y2057D01*
X2593Y2047D01*
X2595Y2037D01*
X2600Y2029D01*
X2608Y2024D01*
X2618Y2022D01*
X2628Y2024D01*
X2636Y2029D01*
X2642Y2037D01*
X2644Y2047D01*
X2642Y2057D01*
X2636Y2065D01*
X2628Y2071D01*
X2618Y2073D01*
D02*
G37*
G36*
X7397Y1895D02*
X7377D01*
X7378Y1890D01*
X7384Y1882D01*
X7392Y1876D01*
X7397Y1875D01*
Y1895D01*
D02*
G37*
G36*
X7426D02*
X7407D01*
Y1875D01*
X7411Y1876D01*
X7420Y1882D01*
X7425Y1890D01*
X7426Y1895D01*
D02*
G37*
G36*
X6848Y1835D02*
Y1777D01*
X6905D01*
X6905Y1784D01*
X6901Y1796D01*
X6895Y1807D01*
X6887Y1817D01*
X6878Y1824D01*
X6867Y1830D01*
X6855Y1834D01*
X6848Y1835D01*
D02*
G37*
G36*
X6201Y1837D02*
X6191Y1835D01*
X6183Y1829D01*
X6177Y1821D01*
X6175Y1811D01*
X6177Y1801D01*
X6183Y1793D01*
X6191Y1787D01*
X6201Y1786D01*
X6211Y1787D01*
X6219Y1793D01*
X6224Y1801D01*
X6226Y1811D01*
X6224Y1821D01*
X6219Y1829D01*
X6211Y1835D01*
X6201Y1837D01*
D02*
G37*
G36*
X7677Y2014D02*
X7667Y2012D01*
X7659Y2006D01*
X7654Y1998D01*
X7652Y1988D01*
X7654Y1978D01*
X7659Y1970D01*
X7664Y1967D01*
Y1961D01*
X7659Y1957D01*
X7654Y1949D01*
X7652Y1939D01*
X7654Y1929D01*
X7659Y1921D01*
X7667Y1915D01*
X7677Y1913D01*
X7687Y1915D01*
X7695Y1921D01*
X7701Y1929D01*
X7703Y1939D01*
X7701Y1949D01*
X7695Y1957D01*
X7690Y1961D01*
Y1967D01*
X7695Y1970D01*
X7701Y1978D01*
X7703Y1988D01*
X7701Y1998D01*
X7695Y2006D01*
X7687Y2012D01*
X7677Y2014D01*
D02*
G37*
G36*
X7825Y1964D02*
X7815Y1963D01*
X7807Y1957D01*
X7801Y1949D01*
X7799Y1939D01*
X7801Y1929D01*
X7807Y1921D01*
X7815Y1915D01*
X7825Y1913D01*
X7835Y1915D01*
X7843Y1921D01*
X7848Y1929D01*
X7850Y1939D01*
X7848Y1949D01*
X7843Y1957D01*
X7835Y1963D01*
X7825Y1964D01*
D02*
G37*
G36*
X7397Y1924D02*
X7392Y1923D01*
X7384Y1918D01*
X7378Y1909D01*
X7377Y1905D01*
X7397D01*
Y1924D01*
D02*
G37*
G36*
X7407D02*
Y1905D01*
X7426D01*
X7425Y1909D01*
X7420Y1918D01*
X7411Y1923D01*
X7407Y1924D01*
D02*
G37*
G36*
X6294Y2062D02*
X6275D01*
X6276Y2057D01*
X6281Y2049D01*
X6289Y2043D01*
X6294Y2042D01*
Y2062D01*
D02*
G37*
G36*
X5674Y2160D02*
X5655D01*
X5656Y2156D01*
X5661Y2147D01*
X5669Y2142D01*
X5674Y2141D01*
Y2160D01*
D02*
G37*
G36*
X5704D02*
X5684D01*
Y2141D01*
X5689Y2142D01*
X5697Y2147D01*
X5703Y2156D01*
X5704Y2160D01*
D02*
G37*
G36*
X4897Y2150D02*
X4892Y2150D01*
X4884Y2144D01*
X4878Y2136D01*
X4877Y2131D01*
X4897D01*
Y2150D01*
D02*
G37*
G36*
X4907D02*
Y2131D01*
X4926D01*
X4925Y2136D01*
X4920Y2144D01*
X4911Y2150D01*
X4907Y2150D01*
D02*
G37*
G36*
X7785Y2245D02*
X7775Y2244D01*
X7765Y2240D01*
X7757Y2233D01*
X7750Y2225D01*
X7746Y2215D01*
X7745Y2205D01*
X7746Y2194D01*
X7750Y2185D01*
X7757Y2176D01*
X7765Y2170D01*
X7775Y2166D01*
X7785Y2164D01*
X7796Y2166D01*
X7806Y2170D01*
X7814Y2176D01*
X7820Y2185D01*
X7824Y2194D01*
X7826Y2205D01*
X7824Y2215D01*
X7820Y2225D01*
X7814Y2233D01*
X7806Y2240D01*
X7796Y2244D01*
X7785Y2245D01*
D02*
G37*
G36*
X5674Y2190D02*
X5669Y2189D01*
X5661Y2183D01*
X5656Y2175D01*
X5655Y2170D01*
X5674D01*
Y2190D01*
D02*
G37*
G36*
X5969Y2160D02*
X5950D01*
X5951Y2156D01*
X5956Y2147D01*
X5965Y2142D01*
X5969Y2141D01*
Y2160D01*
D02*
G37*
G36*
X5999D02*
X5979D01*
Y2141D01*
X5984Y2142D01*
X5992Y2147D01*
X5998Y2156D01*
X5999Y2160D01*
D02*
G37*
G36*
X7402Y2122D02*
X7392Y2120D01*
X7384Y2114D01*
X7378Y2106D01*
X7376Y2096D01*
X7378Y2087D01*
X7384Y2078D01*
X7392Y2073D01*
X7402Y2071D01*
X7411Y2073D01*
X7420Y2078D01*
X7425Y2087D01*
X7427Y2096D01*
X7425Y2106D01*
X7420Y2114D01*
X7411Y2120D01*
X7402Y2122D01*
D02*
G37*
G36*
X6294Y2091D02*
X6289Y2090D01*
X6281Y2085D01*
X6276Y2077D01*
X6275Y2072D01*
X6294D01*
Y2091D01*
D02*
G37*
G36*
X6324Y2062D02*
X6304D01*
Y2042D01*
X6309Y2043D01*
X6317Y2049D01*
X6323Y2057D01*
X6324Y2062D01*
D02*
G37*
G36*
X5089Y2147D02*
X5078Y2145D01*
X5068Y2141D01*
X5060Y2135D01*
X5054Y2126D01*
X5050Y2117D01*
X5048Y2106D01*
X5050Y2096D01*
X5054Y2086D01*
X5060Y2078D01*
X5068Y2071D01*
X5078Y2067D01*
X5089Y2066D01*
X5099Y2067D01*
X5109Y2071D01*
X5117Y2078D01*
X5124Y2086D01*
X5128Y2096D01*
X5129Y2106D01*
X5128Y2117D01*
X5124Y2126D01*
X5117Y2135D01*
X5109Y2141D01*
X5099Y2145D01*
X5089Y2147D01*
D02*
G37*
G36*
X4897Y2121D02*
X4877D01*
X4878Y2116D01*
X4884Y2108D01*
X4892Y2102D01*
X4897Y2101D01*
Y2121D01*
D02*
G37*
G36*
X4926D02*
X4907D01*
Y2101D01*
X4911Y2102D01*
X4920Y2108D01*
X4925Y2116D01*
X4926Y2121D01*
D02*
G37*
G36*
X6304Y2091D02*
Y2072D01*
X6324D01*
X6323Y2077D01*
X6317Y2085D01*
X6309Y2090D01*
X6304Y2091D01*
D02*
G37*
G36*
X5197Y2142D02*
X5187Y2140D01*
X5179Y2134D01*
X5173Y2126D01*
X5171Y2116D01*
X5173Y2106D01*
X5179Y2098D01*
X5187Y2093D01*
X5197Y2091D01*
X5207Y2093D01*
X5215Y2098D01*
X5220Y2106D01*
X5222Y2116D01*
X5220Y2126D01*
X5215Y2134D01*
X5207Y2140D01*
X5197Y2142D01*
D02*
G37*
G36*
X6196Y1668D02*
X6176D01*
X6177Y1663D01*
X6183Y1655D01*
X6191Y1650D01*
X6196Y1649D01*
Y1668D01*
D02*
G37*
G36*
X6225D02*
X6206D01*
Y1649D01*
X6211Y1650D01*
X6219Y1655D01*
X6224Y1663D01*
X6225Y1668D01*
D02*
G37*
G36*
X5536Y1658D02*
X5532Y1657D01*
X5523Y1652D01*
X5518Y1644D01*
X5517Y1639D01*
X5536D01*
Y1658D01*
D02*
G37*
G36*
X5546D02*
Y1639D01*
X5566D01*
X5565Y1644D01*
X5559Y1652D01*
X5551Y1657D01*
X5546Y1658D01*
D02*
G37*
G36*
X6196Y1698D02*
X6191Y1697D01*
X6183Y1691D01*
X6177Y1683D01*
X6176Y1678D01*
X6196D01*
Y1698D01*
D02*
G37*
G36*
X6206D02*
Y1678D01*
X6225D01*
X6224Y1683D01*
X6219Y1691D01*
X6211Y1697D01*
X6206Y1698D01*
D02*
G37*
G36*
X4149Y1678D02*
X4144Y1677D01*
X4136Y1672D01*
X4130Y1663D01*
X4129Y1659D01*
X4149D01*
Y1678D01*
D02*
G37*
G36*
X4159D02*
Y1659D01*
X4178D01*
X4177Y1663D01*
X4172Y1672D01*
X4163Y1677D01*
X4159Y1678D01*
D02*
G37*
G36*
X1511Y1708D02*
X1427D01*
X1428Y1695D01*
X1433Y1678D01*
X1442Y1663D01*
X1453Y1650D01*
X1466Y1638D01*
X1482Y1630D01*
X1498Y1625D01*
X1511Y1624D01*
Y1708D01*
D02*
G37*
G36*
X1604D02*
X1521D01*
Y1624D01*
X1533Y1625D01*
X1550Y1630D01*
X1565Y1638D01*
X1579Y1650D01*
X1590Y1663D01*
X1598Y1678D01*
X1603Y1695D01*
X1604Y1708D01*
D02*
G37*
G36*
X5536Y1629D02*
X5517D01*
X5518Y1624D01*
X5523Y1616D01*
X5532Y1610D01*
X5536Y1609D01*
Y1629D01*
D02*
G37*
G36*
X5566D02*
X5546D01*
Y1609D01*
X5551Y1610D01*
X5559Y1616D01*
X5565Y1624D01*
X5566Y1629D01*
D02*
G37*
G36*
X4149Y1649D02*
X4129D01*
X4130Y1644D01*
X4136Y1636D01*
X4144Y1630D01*
X4149Y1629D01*
Y1649D01*
D02*
G37*
G36*
X4178D02*
X4159D01*
Y1629D01*
X4163Y1630D01*
X4172Y1636D01*
X4177Y1644D01*
X4178Y1649D01*
D02*
G37*
G36*
X9503Y1708D02*
X9419D01*
X9420Y1695D01*
X9425Y1678D01*
X9434Y1663D01*
X9445Y1650D01*
X9458Y1638D01*
X9474Y1630D01*
X9490Y1625D01*
X9503Y1624D01*
Y1708D01*
D02*
G37*
G36*
X9597D02*
X9513D01*
Y1624D01*
X9525Y1625D01*
X9542Y1630D01*
X9557Y1638D01*
X9571Y1650D01*
X9582Y1663D01*
X9590Y1678D01*
X9595Y1695D01*
X9597Y1708D01*
D02*
G37*
G36*
X6538Y1767D02*
X6480D01*
X6481Y1759D01*
X6485Y1747D01*
X6491Y1736D01*
X6498Y1727D01*
X6508Y1719D01*
X6519Y1713D01*
X6531Y1709D01*
X6538Y1709D01*
Y1767D01*
D02*
G37*
G36*
X4178Y1767D02*
X4159D01*
Y1747D01*
X4163Y1748D01*
X4172Y1754D01*
X4177Y1762D01*
X4178Y1767D01*
D02*
G37*
G36*
X4149Y1796D02*
X4144Y1795D01*
X4136Y1790D01*
X4130Y1781D01*
X4129Y1777D01*
X4149D01*
Y1796D01*
D02*
G37*
G36*
X5325Y1797D02*
X5315Y1795D01*
X5307Y1790D01*
X5301Y1781D01*
X5299Y1772D01*
X5301Y1762D01*
X5307Y1754D01*
X5315Y1748D01*
X5325Y1746D01*
X5335Y1748D01*
X5343Y1754D01*
X5348Y1762D01*
X5350Y1772D01*
X5348Y1781D01*
X5343Y1790D01*
X5335Y1795D01*
X5325Y1797D01*
D02*
G37*
G36*
X4149Y1767D02*
X4129D01*
X4130Y1762D01*
X4136Y1754D01*
X4144Y1748D01*
X4149Y1747D01*
Y1767D01*
D02*
G37*
G36*
X6548Y1835D02*
Y1777D01*
X6606D01*
X6606Y1784D01*
X6602Y1796D01*
X6596Y1807D01*
X6588Y1817D01*
X6579Y1824D01*
X6568Y1830D01*
X6556Y1834D01*
X6548Y1835D01*
D02*
G37*
G36*
X6838D02*
X6830Y1834D01*
X6818Y1830D01*
X6807Y1824D01*
X6798Y1817D01*
X6790Y1807D01*
X6784Y1796D01*
X6780Y1784D01*
X6780Y1777D01*
X6838D01*
Y1835D01*
D02*
G37*
G36*
X4159Y1796D02*
Y1777D01*
X4178D01*
X4177Y1781D01*
X4172Y1790D01*
X4163Y1795D01*
X4159Y1796D01*
D02*
G37*
G36*
X6538Y1835D02*
X6531Y1834D01*
X6519Y1830D01*
X6508Y1824D01*
X6498Y1817D01*
X6491Y1807D01*
X6485Y1796D01*
X6481Y1784D01*
X6480Y1777D01*
X6538D01*
Y1835D01*
D02*
G37*
G36*
X6905Y1767D02*
X6848D01*
Y1709D01*
X6855Y1709D01*
X6867Y1713D01*
X6878Y1719D01*
X6887Y1727D01*
X6895Y1736D01*
X6901Y1747D01*
X6905Y1759D01*
X6905Y1767D01*
D02*
G37*
G36*
X1511Y1801D02*
X1498Y1800D01*
X1482Y1795D01*
X1466Y1787D01*
X1453Y1776D01*
X1442Y1762D01*
X1433Y1747D01*
X1428Y1730D01*
X1427Y1718D01*
X1511D01*
Y1801D01*
D02*
G37*
G36*
X6606Y1767D02*
X6548D01*
Y1709D01*
X6556Y1709D01*
X6568Y1713D01*
X6579Y1719D01*
X6588Y1727D01*
X6596Y1736D01*
X6602Y1747D01*
X6606Y1759D01*
X6606Y1767D01*
D02*
G37*
G36*
X6838D02*
X6780D01*
X6780Y1759D01*
X6784Y1747D01*
X6790Y1736D01*
X6798Y1727D01*
X6807Y1719D01*
X6818Y1713D01*
X6830Y1709D01*
X6838Y1709D01*
Y1767D01*
D02*
G37*
G36*
X9513Y1801D02*
Y1718D01*
X9597D01*
X9595Y1730D01*
X9590Y1747D01*
X9582Y1762D01*
X9571Y1776D01*
X9557Y1787D01*
X9542Y1795D01*
X9525Y1800D01*
X9513Y1801D01*
D02*
G37*
G36*
X5049Y1797D02*
X5039Y1795D01*
X5031Y1790D01*
X5026Y1781D01*
X5024Y1772D01*
X5026Y1762D01*
X5031Y1754D01*
X5039Y1748D01*
X5049Y1746D01*
X5059Y1748D01*
X5067Y1754D01*
X5073Y1762D01*
X5075Y1772D01*
X5073Y1781D01*
X5067Y1790D01*
X5059Y1795D01*
X5049Y1797D01*
D02*
G37*
G36*
X1521Y1801D02*
Y1718D01*
X1604D01*
X1603Y1730D01*
X1598Y1747D01*
X1590Y1762D01*
X1579Y1776D01*
X1565Y1787D01*
X1550Y1795D01*
X1533Y1800D01*
X1521Y1801D01*
D02*
G37*
G36*
X9503D02*
X9490Y1800D01*
X9474Y1795D01*
X9458Y1787D01*
X9445Y1776D01*
X9434Y1762D01*
X9425Y1747D01*
X9420Y1730D01*
X9419Y1718D01*
X9503D01*
Y1801D01*
D02*
G37*
G36*
X8706Y2662D02*
X8686D01*
X8687Y2658D01*
X8693Y2649D01*
X8701Y2644D01*
X8706Y2643D01*
Y2662D01*
D02*
G37*
G36*
X8735D02*
X8716D01*
Y2643D01*
X8720Y2644D01*
X8729Y2649D01*
X8734Y2658D01*
X8735Y2662D01*
D02*
G37*
G36*
X8135D02*
X8115D01*
X8116Y2658D01*
X8122Y2649D01*
X8130Y2644D01*
X8135Y2643D01*
Y2662D01*
D02*
G37*
G36*
X8164D02*
X8145D01*
Y2643D01*
X8150Y2644D01*
X8158Y2649D01*
X8163Y2658D01*
X8164Y2662D01*
D02*
G37*
G36*
X8135Y2692D02*
X8130Y2691D01*
X8122Y2685D01*
X8116Y2677D01*
X8115Y2672D01*
X8135D01*
Y2692D01*
D02*
G37*
G36*
X8145D02*
Y2672D01*
X8164D01*
X8163Y2677D01*
X8158Y2685D01*
X8150Y2691D01*
X8145Y2692D01*
D02*
G37*
G36*
X6053Y2712D02*
X6043Y2711D01*
X6035Y2705D01*
X6030Y2697D01*
X6028Y2687D01*
X6030Y2677D01*
X6035Y2669D01*
X6043Y2663D01*
X6053Y2662D01*
X6063Y2663D01*
X6071Y2669D01*
X6077Y2677D01*
X6079Y2687D01*
X6077Y2697D01*
X6071Y2705D01*
X6063Y2711D01*
X6053Y2712D01*
D02*
G37*
G36*
X6299D02*
X6289Y2711D01*
X6281Y2705D01*
X6276Y2697D01*
X6274Y2687D01*
X6276Y2677D01*
X6281Y2669D01*
X6289Y2663D01*
X6299Y2662D01*
X6309Y2663D01*
X6317Y2669D01*
X6323Y2677D01*
X6325Y2687D01*
X6323Y2697D01*
X6317Y2705D01*
X6309Y2711D01*
X6299Y2712D01*
D02*
G37*
G36*
X7810Y2613D02*
X7805Y2612D01*
X7797Y2607D01*
X7791Y2598D01*
X7790Y2594D01*
X7810D01*
Y2613D01*
D02*
G37*
G36*
X7820D02*
Y2594D01*
X7839D01*
X7839Y2598D01*
X7833Y2607D01*
X7825Y2612D01*
X7820Y2613D01*
D02*
G37*
G36*
X8381Y2584D02*
X8361D01*
X8362Y2579D01*
X8368Y2571D01*
X8376Y2565D01*
X8381Y2564D01*
Y2584D01*
D02*
G37*
G36*
X8410D02*
X8391D01*
Y2564D01*
X8396Y2565D01*
X8404Y2571D01*
X8409Y2579D01*
X8410Y2584D01*
D02*
G37*
G36*
X9209Y2663D02*
X9201Y2662D01*
X9189Y2658D01*
X9178Y2652D01*
X9168Y2644D01*
X9160Y2634D01*
X9154Y2623D01*
X9150Y2611D01*
X9149Y2603D01*
X9209D01*
Y2663D01*
D02*
G37*
G36*
X9219Y2663D02*
Y2603D01*
X9279D01*
X9278Y2611D01*
X9275Y2623D01*
X9268Y2634D01*
X9260Y2644D01*
X9250Y2652D01*
X9239Y2658D01*
X9227Y2662D01*
X9219Y2663D01*
D02*
G37*
G36*
X8381Y2613D02*
X8376Y2612D01*
X8368Y2607D01*
X8362Y2598D01*
X8361Y2594D01*
X8381D01*
Y2613D01*
D02*
G37*
G36*
X8391D02*
Y2594D01*
X8410D01*
X8409Y2598D01*
X8404Y2607D01*
X8396Y2612D01*
X8391Y2613D01*
D02*
G37*
G36*
X8706Y2692D02*
X8701Y2691D01*
X8693Y2685D01*
X8687Y2677D01*
X8686Y2672D01*
X8706D01*
Y2692D01*
D02*
G37*
G36*
X9309Y2893D02*
X9249D01*
X9250Y2885D01*
X9254Y2873D01*
X9260Y2862D01*
X9268Y2852D01*
X9278Y2844D01*
X9289Y2838D01*
X9301Y2834D01*
X9309Y2833D01*
Y2893D01*
D02*
G37*
G36*
X9179D02*
X9119D01*
Y2833D01*
X9127Y2834D01*
X9139Y2838D01*
X9150Y2844D01*
X9160Y2852D01*
X9168Y2862D01*
X9175Y2873D01*
X9178Y2885D01*
X9179Y2893D01*
D02*
G37*
G36*
X8558Y2771D02*
Y2751D01*
X8578D01*
X8577Y2756D01*
X8571Y2764D01*
X8563Y2770D01*
X8558Y2771D01*
D02*
G37*
G36*
X9109Y2893D02*
X9049D01*
X9050Y2885D01*
X9054Y2873D01*
X9060Y2862D01*
X9068Y2852D01*
X9078Y2844D01*
X9089Y2838D01*
X9101Y2834D01*
X9109Y2833D01*
Y2893D01*
D02*
G37*
G36*
X7500Y2909D02*
X7490Y2907D01*
X7482Y2902D01*
X7476Y2894D01*
X7475Y2884D01*
X7476Y2874D01*
X7482Y2866D01*
X7490Y2860D01*
X7500Y2858D01*
X7510Y2860D01*
X7518Y2866D01*
X7524Y2874D01*
X7525Y2884D01*
X7524Y2894D01*
X7518Y2902D01*
X7510Y2907D01*
X7500Y2909D01*
D02*
G37*
G36*
X6747Y2954D02*
X6737Y2952D01*
X6727Y2948D01*
X6719Y2942D01*
X6712Y2934D01*
X6708Y2924D01*
X6707Y2913D01*
X6708Y2903D01*
X6712Y2893D01*
X6719Y2885D01*
X6727Y2878D01*
X6737Y2874D01*
X6747Y2873D01*
X6758Y2874D01*
X6767Y2878D01*
X6776Y2885D01*
X6782Y2893D01*
X6786Y2903D01*
X6788Y2913D01*
X6786Y2924D01*
X6782Y2934D01*
X6776Y2942D01*
X6767Y2948D01*
X6758Y2952D01*
X6747Y2954D01*
D02*
G37*
G36*
X9379Y2893D02*
X9319D01*
Y2833D01*
X9327Y2834D01*
X9339Y2838D01*
X9350Y2844D01*
X9360Y2852D01*
X9368Y2862D01*
X9375Y2873D01*
X9378Y2885D01*
X9379Y2893D01*
D02*
G37*
G36*
X4419Y2909D02*
X4410Y2907D01*
X4401Y2902D01*
X4396Y2894D01*
X4394Y2884D01*
X4396Y2874D01*
X4401Y2866D01*
X4410Y2860D01*
X4419Y2858D01*
X4429Y2860D01*
X4437Y2866D01*
X4443Y2874D01*
X4445Y2884D01*
X4443Y2894D01*
X4437Y2902D01*
X4429Y2907D01*
X4419Y2909D01*
D02*
G37*
G36*
X8007Y2741D02*
X7987D01*
Y2722D01*
X7992Y2723D01*
X8000Y2728D01*
X8006Y2736D01*
X8007Y2741D01*
D02*
G37*
G36*
X8548D02*
X8529D01*
X8530Y2736D01*
X8535Y2728D01*
X8543Y2723D01*
X8548Y2722D01*
Y2741D01*
D02*
G37*
G36*
X8716Y2692D02*
Y2672D01*
X8735D01*
X8734Y2677D01*
X8729Y2685D01*
X8720Y2691D01*
X8716Y2692D01*
D02*
G37*
G36*
X7977Y2741D02*
X7958D01*
X7959Y2736D01*
X7964Y2728D01*
X7973Y2723D01*
X7977Y2722D01*
Y2741D01*
D02*
G37*
G36*
X7987Y2771D02*
Y2751D01*
X8007D01*
X8006Y2756D01*
X8000Y2764D01*
X7992Y2770D01*
X7987Y2771D01*
D02*
G37*
G36*
X8548D02*
X8543Y2770D01*
X8535Y2764D01*
X8530Y2756D01*
X8529Y2751D01*
X8548D01*
Y2771D01*
D02*
G37*
G36*
X8578Y2741D02*
X8558D01*
Y2722D01*
X8563Y2723D01*
X8571Y2728D01*
X8577Y2736D01*
X8578Y2741D01*
D02*
G37*
G36*
X7977Y2771D02*
X7973Y2770D01*
X7964Y2764D01*
X7959Y2756D01*
X7958Y2751D01*
X7977D01*
Y2771D01*
D02*
G37*
G36*
X5876Y2358D02*
X5866Y2356D01*
X5858Y2351D01*
X5852Y2342D01*
X5850Y2333D01*
X5852Y2323D01*
X5858Y2315D01*
X5866Y2309D01*
X5876Y2307D01*
X5886Y2309D01*
X5894Y2315D01*
X5900Y2323D01*
X5901Y2333D01*
X5900Y2342D01*
X5894Y2351D01*
X5886Y2356D01*
X5876Y2358D01*
D02*
G37*
G36*
X5000Y2408D02*
X4988Y2406D01*
X4977Y2402D01*
X4968Y2395D01*
X4960Y2385D01*
X4956Y2374D01*
X4954Y2362D01*
X4956Y2350D01*
X4960Y2339D01*
X4968Y2330D01*
X4977Y2323D01*
X4988Y2318D01*
X5000Y2316D01*
X5012Y2318D01*
X5023Y2323D01*
X5032Y2330D01*
X5040Y2339D01*
X5044Y2350D01*
X5046Y2362D01*
X5044Y2374D01*
X5040Y2385D01*
X5032Y2395D01*
X5023Y2402D01*
X5012Y2406D01*
X5000Y2408D01*
D02*
G37*
G36*
X1529Y2404D02*
X1516Y2403D01*
X1502Y2399D01*
X1490Y2392D01*
X1480Y2383D01*
X1471Y2373D01*
X1464Y2361D01*
X1460Y2347D01*
X1459Y2334D01*
X1460Y2320D01*
X1464Y2307D01*
X1471Y2295D01*
X1480Y2284D01*
X1490Y2275D01*
X1502Y2269D01*
X1516Y2265D01*
X1529Y2263D01*
X1543Y2265D01*
X1556Y2269D01*
X1568Y2275D01*
X1579Y2284D01*
X1588Y2295D01*
X1594Y2307D01*
X1598Y2320D01*
X1600Y2334D01*
X1598Y2347D01*
X1594Y2361D01*
X1588Y2373D01*
X1579Y2383D01*
X1568Y2392D01*
X1556Y2399D01*
X1543Y2403D01*
X1529Y2404D01*
D02*
G37*
G36*
X4171D02*
X4157Y2403D01*
X4144Y2399D01*
X4132Y2392D01*
X4121Y2383D01*
X4112Y2373D01*
X4106Y2361D01*
X4102Y2347D01*
X4100Y2334D01*
X4102Y2320D01*
X4106Y2307D01*
X4112Y2295D01*
X4121Y2284D01*
X4132Y2275D01*
X4144Y2269D01*
X4157Y2265D01*
X4171Y2263D01*
X4184Y2265D01*
X4198Y2269D01*
X4210Y2275D01*
X4220Y2284D01*
X4229Y2295D01*
X4236Y2307D01*
X4240Y2320D01*
X4241Y2334D01*
X4240Y2347D01*
X4236Y2361D01*
X4229Y2373D01*
X4220Y2383D01*
X4210Y2392D01*
X4198Y2399D01*
X4184Y2403D01*
X4171Y2404D01*
D02*
G37*
G36*
X7087Y2453D02*
X7007D01*
Y2373D01*
X7087D01*
Y2453D01*
D02*
G37*
G36*
X6747Y2554D02*
X6737Y2552D01*
X6727Y2548D01*
X6719Y2542D01*
X6712Y2534D01*
X6708Y2524D01*
X6707Y2513D01*
X6708Y2503D01*
X6712Y2493D01*
X6719Y2485D01*
X6727Y2478D01*
X6737Y2474D01*
X6747Y2473D01*
X6758Y2474D01*
X6767Y2478D01*
X6776Y2485D01*
X6782Y2493D01*
X6786Y2503D01*
X6788Y2513D01*
X6786Y2524D01*
X6782Y2534D01*
X6776Y2542D01*
X6767Y2548D01*
X6758Y2552D01*
X6747Y2554D01*
D02*
G37*
G36*
X5197Y2408D02*
X5185Y2406D01*
X5174Y2402D01*
X5164Y2395D01*
X5157Y2385D01*
X5153Y2374D01*
X5151Y2362D01*
X5153Y2350D01*
X5157Y2339D01*
X5164Y2330D01*
X5174Y2323D01*
X5185Y2318D01*
X5197Y2316D01*
X5209Y2318D01*
X5220Y2323D01*
X5229Y2330D01*
X5237Y2339D01*
X5241Y2350D01*
X5243Y2362D01*
X5241Y2374D01*
X5237Y2385D01*
X5229Y2395D01*
X5220Y2402D01*
X5209Y2406D01*
X5197Y2408D01*
D02*
G37*
G36*
X6747Y2454D02*
X6737Y2452D01*
X6727Y2448D01*
X6719Y2442D01*
X6712Y2434D01*
X6708Y2424D01*
X6707Y2413D01*
X6708Y2403D01*
X6712Y2393D01*
X6719Y2385D01*
X6727Y2378D01*
X6737Y2374D01*
X6747Y2373D01*
X6758Y2374D01*
X6767Y2378D01*
X6776Y2385D01*
X6782Y2393D01*
X6786Y2403D01*
X6788Y2413D01*
X6786Y2424D01*
X6782Y2434D01*
X6776Y2442D01*
X6767Y2448D01*
X6758Y2452D01*
X6747Y2454D01*
D02*
G37*
G36*
X5979Y2190D02*
Y2170D01*
X5999D01*
X5998Y2175D01*
X5992Y2183D01*
X5984Y2189D01*
X5979Y2190D01*
D02*
G37*
G36*
X7579Y2260D02*
X7569Y2258D01*
X7561Y2252D01*
X7555Y2244D01*
X7553Y2234D01*
X7555Y2224D01*
X7561Y2216D01*
X7569Y2211D01*
X7579Y2209D01*
X7588Y2211D01*
X7597Y2216D01*
X7602Y2224D01*
X7604Y2234D01*
X7602Y2244D01*
X7597Y2252D01*
X7588Y2258D01*
X7579Y2260D01*
D02*
G37*
G36*
X5684Y2190D02*
Y2170D01*
X5704D01*
X5703Y2175D01*
X5697Y2183D01*
X5689Y2189D01*
X5684Y2190D01*
D02*
G37*
G36*
X5969D02*
X5965Y2189D01*
X5956Y2183D01*
X5951Y2175D01*
X5950Y2170D01*
X5969D01*
Y2190D01*
D02*
G37*
G36*
X7465Y2259D02*
X7461Y2258D01*
X7452Y2252D01*
X7447Y2244D01*
X7446Y2239D01*
X7465D01*
Y2259D01*
D02*
G37*
G36*
X7475D02*
Y2239D01*
X7495D01*
X7494Y2244D01*
X7488Y2252D01*
X7480Y2258D01*
X7475Y2259D01*
D02*
G37*
G36*
X7465Y2229D02*
X7446D01*
X7447Y2224D01*
X7452Y2216D01*
X7461Y2211D01*
X7465Y2210D01*
Y2229D01*
D02*
G37*
G36*
X7495D02*
X7475D01*
Y2210D01*
X7480Y2211D01*
X7488Y2216D01*
X7494Y2224D01*
X7495Y2229D01*
D02*
G37*
G36*
X7047Y2554D02*
X7037Y2552D01*
X7027Y2548D01*
X7019Y2542D01*
X7012Y2534D01*
X7008Y2524D01*
X7007Y2513D01*
X7008Y2503D01*
X7012Y2493D01*
X7019Y2485D01*
X7027Y2478D01*
X7037Y2474D01*
X7047Y2473D01*
X7058Y2474D01*
X7067Y2478D01*
X7076Y2485D01*
X7082Y2493D01*
X7086Y2503D01*
X7088Y2513D01*
X7086Y2524D01*
X7082Y2534D01*
X7076Y2542D01*
X7067Y2548D01*
X7058Y2552D01*
X7047Y2554D01*
D02*
G37*
G36*
X9209Y2593D02*
X9149D01*
X9150Y2585D01*
X9154Y2573D01*
X9160Y2562D01*
X9168Y2552D01*
X9178Y2544D01*
X9189Y2538D01*
X9201Y2534D01*
X9209Y2533D01*
Y2593D01*
D02*
G37*
G36*
X9279D02*
X9219D01*
Y2533D01*
X9227Y2534D01*
X9239Y2538D01*
X9250Y2544D01*
X9260Y2552D01*
X9268Y2562D01*
X9275Y2573D01*
X9278Y2585D01*
X9279Y2593D01*
D02*
G37*
G36*
X5822Y2544D02*
X5817Y2543D01*
X5809Y2538D01*
X5803Y2529D01*
X5802Y2525D01*
X5822D01*
Y2544D01*
D02*
G37*
G36*
X5832D02*
Y2525D01*
X5851D01*
X5850Y2529D01*
X5845Y2538D01*
X5837Y2543D01*
X5832Y2544D01*
D02*
G37*
G36*
X7810Y2584D02*
X7790D01*
X7791Y2579D01*
X7797Y2571D01*
X7805Y2565D01*
X7810Y2564D01*
Y2584D01*
D02*
G37*
G36*
X7839D02*
X7820D01*
Y2564D01*
X7825Y2565D01*
X7833Y2571D01*
X7839Y2579D01*
X7839Y2584D01*
D02*
G37*
G36*
X5768Y2604D02*
X5758Y2602D01*
X5750Y2597D01*
X5744Y2588D01*
X5742Y2579D01*
X5744Y2569D01*
X5750Y2561D01*
X5758Y2555D01*
X5768Y2553D01*
X5777Y2555D01*
X5786Y2561D01*
X5791Y2569D01*
X5793Y2579D01*
X5791Y2588D01*
X5786Y2597D01*
X5777Y2602D01*
X5768Y2604D01*
D02*
G37*
G36*
X6053D02*
X6043Y2602D01*
X6035Y2597D01*
X6030Y2588D01*
X6028Y2579D01*
X6030Y2569D01*
X6035Y2561D01*
X6043Y2555D01*
X6053Y2553D01*
X6063Y2555D01*
X6071Y2561D01*
X6077Y2569D01*
X6079Y2579D01*
X6077Y2588D01*
X6071Y2597D01*
X6063Y2602D01*
X6053Y2604D01*
D02*
G37*
G36*
X5945Y2545D02*
X5935Y2543D01*
X5927Y2538D01*
X5921Y2529D01*
X5919Y2520D01*
X5921Y2510D01*
X5927Y2502D01*
X5935Y2496D01*
X5945Y2494D01*
X5955Y2496D01*
X5963Y2502D01*
X5968Y2510D01*
X5970Y2520D01*
X5968Y2529D01*
X5963Y2538D01*
X5955Y2543D01*
X5945Y2545D01*
D02*
G37*
G36*
X6122D02*
X6112Y2543D01*
X6104Y2538D01*
X6098Y2529D01*
X6097Y2520D01*
X6098Y2510D01*
X6104Y2502D01*
X6112Y2496D01*
X6122Y2494D01*
X6132Y2496D01*
X6140Y2502D01*
X6146Y2510D01*
X6148Y2520D01*
X6146Y2529D01*
X6140Y2538D01*
X6132Y2543D01*
X6122Y2545D01*
D02*
G37*
G36*
X5531D02*
X5522Y2543D01*
X5513Y2538D01*
X5508Y2529D01*
X5506Y2520D01*
X5508Y2510D01*
X5513Y2502D01*
X5522Y2496D01*
X5531Y2494D01*
X5541Y2496D01*
X5550Y2502D01*
X5555Y2510D01*
X5557Y2520D01*
X5555Y2529D01*
X5550Y2538D01*
X5541Y2543D01*
X5531Y2545D01*
D02*
G37*
G36*
X5728D02*
X5719Y2543D01*
X5710Y2538D01*
X5705Y2529D01*
X5703Y2520D01*
X5705Y2510D01*
X5710Y2502D01*
X5719Y2496D01*
X5728Y2494D01*
X5738Y2496D01*
X5746Y2502D01*
X5752Y2510D01*
X5754Y2520D01*
X5752Y2529D01*
X5746Y2538D01*
X5738Y2543D01*
X5728Y2545D01*
D02*
G37*
G36*
X4878Y2766D02*
X4864Y2765D01*
X4851Y2761D01*
X4839Y2755D01*
X4829Y2746D01*
X4820Y2735D01*
X4814Y2723D01*
X4810Y2710D01*
X4809Y2697D01*
Y2579D01*
X4810Y2565D01*
X4814Y2552D01*
X4820Y2540D01*
X4829Y2530D01*
X4839Y2521D01*
X4851Y2515D01*
X4864Y2511D01*
X4878Y2509D01*
X4891Y2511D01*
X4905Y2515D01*
X4917Y2521D01*
X4927Y2530D01*
X4936Y2540D01*
X4942Y2552D01*
X4946Y2565D01*
X4947Y2579D01*
Y2697D01*
X4946Y2710D01*
X4942Y2723D01*
X4936Y2735D01*
X4927Y2746D01*
X4917Y2755D01*
X4905Y2761D01*
X4891Y2765D01*
X4878Y2766D01*
D02*
G37*
G36*
X5319D02*
X5305Y2765D01*
X5292Y2761D01*
X5280Y2755D01*
X5270Y2746D01*
X5261Y2735D01*
X5255Y2723D01*
X5251Y2710D01*
X5250Y2697D01*
Y2579D01*
X5251Y2565D01*
X5255Y2552D01*
X5261Y2540D01*
X5270Y2530D01*
X5280Y2521D01*
X5292Y2515D01*
X5305Y2511D01*
X5319Y2509D01*
X5332Y2511D01*
X5345Y2515D01*
X5357Y2521D01*
X5368Y2530D01*
X5377Y2540D01*
X5383Y2552D01*
X5387Y2565D01*
X5388Y2579D01*
Y2697D01*
X5387Y2710D01*
X5383Y2723D01*
X5377Y2735D01*
X5368Y2746D01*
X5357Y2755D01*
X5345Y2761D01*
X5332Y2765D01*
X5319Y2766D01*
D02*
G37*
G36*
X5822Y2515D02*
X5802D01*
X5803Y2510D01*
X5809Y2502D01*
X5817Y2496D01*
X5822Y2495D01*
Y2515D01*
D02*
G37*
G36*
X5851D02*
X5832D01*
Y2495D01*
X5837Y2496D01*
X5845Y2502D01*
X5850Y2510D01*
X5851Y2515D01*
D02*
G37*
G36*
X6176Y3902D02*
Y3883D01*
X6196D01*
X6195Y3888D01*
X6189Y3896D01*
X6181Y3902D01*
X6176Y3902D01*
D02*
G37*
G36*
X8445Y5183D02*
X8435Y5181D01*
X8427Y5176D01*
X8421Y5167D01*
X8419Y5157D01*
X8421Y5148D01*
X8427Y5139D01*
X8435Y5134D01*
X8445Y5132D01*
X8455Y5134D01*
X8463Y5139D01*
X8468Y5148D01*
X8470Y5157D01*
X8468Y5167D01*
X8463Y5176D01*
X8455Y5181D01*
X8445Y5183D01*
D02*
G37*
G36*
X7180Y5152D02*
X7175Y5152D01*
X7167Y5146D01*
X7161Y5138D01*
X7161Y5133D01*
X7180D01*
Y5152D01*
D02*
G37*
G36*
Y5123D02*
X7161D01*
X7161Y5118D01*
X7167Y5110D01*
X7175Y5104D01*
X7180Y5103D01*
Y5123D01*
D02*
G37*
G36*
X7210D02*
X7190D01*
Y5103D01*
X7195Y5104D01*
X7203Y5110D01*
X7209Y5118D01*
X7210Y5123D01*
D02*
G37*
G36*
X3565Y5298D02*
X3554Y5296D01*
X3544Y5292D01*
X3535Y5286D01*
X3528Y5277D01*
X3524Y5267D01*
X3523Y5256D01*
X3524Y5245D01*
X3528Y5235D01*
X3535Y5226D01*
X3544Y5220D01*
X3554Y5215D01*
X3565Y5214D01*
X3575Y5215D01*
X3585Y5220D01*
X3594Y5226D01*
X3601Y5235D01*
X3605Y5245D01*
X3606Y5256D01*
X3605Y5267D01*
X3601Y5277D01*
X3594Y5286D01*
X3585Y5292D01*
X3575Y5296D01*
X3565Y5298D01*
D02*
G37*
G36*
X3506Y5297D02*
X3423D01*
Y5214D01*
X3506D01*
Y5297D01*
D02*
G37*
G36*
X7190Y5152D02*
Y5133D01*
X7210D01*
X7209Y5138D01*
X7203Y5146D01*
X7195Y5152D01*
X7190Y5152D01*
D02*
G37*
G36*
X7678Y5256D02*
X7598D01*
Y5177D01*
X7678D01*
Y5256D01*
D02*
G37*
G36*
X7638Y5139D02*
X7627Y5137D01*
X7618Y5133D01*
X7609Y5127D01*
X7603Y5119D01*
X7599Y5109D01*
X7598Y5098D01*
X7599Y5088D01*
X7603Y5078D01*
X7609Y5070D01*
X7618Y5064D01*
X7627Y5060D01*
X7638Y5058D01*
X7648Y5060D01*
X7658Y5064D01*
X7666Y5070D01*
X7673Y5078D01*
X7677Y5088D01*
X7678Y5098D01*
X7677Y5109D01*
X7673Y5119D01*
X7666Y5127D01*
X7658Y5133D01*
X7648Y5137D01*
X7638Y5139D01*
D02*
G37*
G36*
X8588Y5084D02*
X8583Y5083D01*
X8574Y5077D01*
X8569Y5069D01*
X8568Y5064D01*
X8588D01*
Y5084D01*
D02*
G37*
G36*
X3647Y5074D02*
Y5054D01*
X3666D01*
X3665Y5059D01*
X3660Y5067D01*
X3651Y5073D01*
X3647Y5074D01*
D02*
G37*
G36*
X9214Y5188D02*
X9201Y5187D01*
X9189Y5183D01*
X9178Y5177D01*
X9168Y5169D01*
X9160Y5159D01*
X9154Y5148D01*
X9150Y5136D01*
X9149Y5123D01*
X9150Y5110D01*
X9154Y5098D01*
X9160Y5087D01*
X9168Y5077D01*
X9178Y5069D01*
X9189Y5062D01*
X9201Y5059D01*
X9214Y5058D01*
X9227Y5059D01*
X9239Y5062D01*
X9250Y5069D01*
X9260Y5077D01*
X9268Y5087D01*
X9275Y5098D01*
X9278Y5110D01*
X9279Y5123D01*
X9278Y5136D01*
X9275Y5148D01*
X9268Y5159D01*
X9260Y5169D01*
X9250Y5177D01*
X9239Y5183D01*
X9227Y5187D01*
X9214Y5188D01*
D02*
G37*
G36*
X6378Y5153D02*
X6368Y5152D01*
X6360Y5146D01*
X6354Y5138D01*
X6352Y5128D01*
X6354Y5118D01*
X6360Y5110D01*
X6368Y5104D01*
X6378Y5102D01*
X6388Y5104D01*
X6396Y5110D01*
X6402Y5118D01*
X6403Y5128D01*
X6402Y5138D01*
X6396Y5146D01*
X6388Y5152D01*
X6378Y5153D01*
D02*
G37*
G36*
X6988D02*
X6978Y5152D01*
X6970Y5146D01*
X6965Y5138D01*
X6963Y5128D01*
X6965Y5118D01*
X6970Y5110D01*
X6978Y5104D01*
X6988Y5102D01*
X6998Y5104D01*
X7006Y5110D01*
X7012Y5118D01*
X7014Y5128D01*
X7012Y5138D01*
X7006Y5146D01*
X6998Y5152D01*
X6988Y5153D01*
D02*
G37*
G36*
X8598Y5084D02*
Y5064D01*
X8617D01*
X8616Y5069D01*
X8611Y5077D01*
X8602Y5083D01*
X8598Y5084D01*
D02*
G37*
G36*
X6254Y5158D02*
X6244Y5157D01*
X6234Y5153D01*
X6226Y5147D01*
X6219Y5138D01*
X6215Y5129D01*
X6214Y5118D01*
X6215Y5108D01*
X6219Y5098D01*
X6226Y5090D01*
X6234Y5083D01*
X6244Y5079D01*
X6254Y5078D01*
X6265Y5079D01*
X6274Y5083D01*
X6283Y5090D01*
X6289Y5098D01*
X6293Y5108D01*
X6295Y5118D01*
X6293Y5129D01*
X6289Y5138D01*
X6283Y5147D01*
X6274Y5153D01*
X6265Y5157D01*
X6254Y5158D01*
D02*
G37*
G36*
X3912Y5291D02*
X3903Y5290D01*
X3894Y5286D01*
X3886Y5280D01*
X3880Y5272D01*
X3876Y5263D01*
X3875Y5254D01*
X3876Y5244D01*
X3880Y5235D01*
X3886Y5227D01*
X3894Y5221D01*
X3903Y5218D01*
X3912Y5216D01*
X3922Y5218D01*
X3931Y5221D01*
X3939Y5227D01*
X3944Y5235D01*
X3948Y5244D01*
X3949Y5254D01*
X3948Y5263D01*
X3944Y5272D01*
X3939Y5280D01*
X3931Y5286D01*
X3922Y5290D01*
X3912Y5291D01*
D02*
G37*
G36*
X6112D02*
X6103Y5290D01*
X6094Y5286D01*
X6086Y5280D01*
X6080Y5272D01*
X6076Y5263D01*
X6075Y5254D01*
X6076Y5244D01*
X6080Y5235D01*
X6086Y5227D01*
X6094Y5221D01*
X6103Y5218D01*
X6112Y5216D01*
X6122Y5218D01*
X6131Y5221D01*
X6139Y5227D01*
X6144Y5235D01*
X6148Y5244D01*
X6149Y5254D01*
X6148Y5263D01*
X6144Y5272D01*
X6139Y5280D01*
X6131Y5286D01*
X6122Y5290D01*
X6112Y5291D01*
D02*
G37*
G36*
X6612D02*
X6603Y5290D01*
X6594Y5286D01*
X6586Y5280D01*
X6580Y5272D01*
X6576Y5263D01*
X6575Y5254D01*
X6576Y5244D01*
X6580Y5235D01*
X6586Y5227D01*
X6594Y5221D01*
X6603Y5218D01*
X6612Y5216D01*
X6622Y5218D01*
X6631Y5221D01*
X6639Y5227D01*
X6644Y5235D01*
X6648Y5244D01*
X6649Y5254D01*
X6648Y5263D01*
X6644Y5272D01*
X6639Y5280D01*
X6631Y5286D01*
X6622Y5290D01*
X6612Y5291D01*
D02*
G37*
G36*
X5912D02*
X5903Y5290D01*
X5894Y5286D01*
X5886Y5280D01*
X5880Y5272D01*
X5876Y5263D01*
X5875Y5254D01*
X5876Y5244D01*
X5880Y5235D01*
X5886Y5227D01*
X5894Y5221D01*
X5903Y5218D01*
X5912Y5216D01*
X5922Y5218D01*
X5931Y5221D01*
X5939Y5227D01*
X5944Y5235D01*
X5948Y5244D01*
X5949Y5254D01*
X5948Y5263D01*
X5944Y5272D01*
X5939Y5280D01*
X5931Y5286D01*
X5922Y5290D01*
X5912Y5291D01*
D02*
G37*
G36*
X6012D02*
X6003Y5290D01*
X5994Y5286D01*
X5986Y5280D01*
X5980Y5272D01*
X5976Y5263D01*
X5975Y5254D01*
X5976Y5244D01*
X5980Y5235D01*
X5986Y5227D01*
X5994Y5221D01*
X6003Y5218D01*
X6012Y5216D01*
X6022Y5218D01*
X6031Y5221D01*
X6039Y5227D01*
X6044Y5235D01*
X6048Y5244D01*
X6049Y5254D01*
X6048Y5263D01*
X6044Y5272D01*
X6039Y5280D01*
X6031Y5286D01*
X6022Y5290D01*
X6012Y5291D01*
D02*
G37*
G36*
X7012D02*
X7003Y5290D01*
X6994Y5286D01*
X6986Y5280D01*
X6980Y5272D01*
X6976Y5263D01*
X6975Y5254D01*
X6976Y5244D01*
X6980Y5235D01*
X6986Y5227D01*
X6994Y5221D01*
X7003Y5218D01*
X7012Y5216D01*
X7022Y5218D01*
X7031Y5221D01*
X7039Y5227D01*
X7044Y5235D01*
X7048Y5244D01*
X7049Y5254D01*
X7048Y5263D01*
X7044Y5272D01*
X7039Y5280D01*
X7031Y5286D01*
X7022Y5290D01*
X7012Y5291D01*
D02*
G37*
G36*
X4449Y5291D02*
X4375D01*
Y5217D01*
X4449D01*
Y5291D01*
D02*
G37*
G36*
X6812Y5291D02*
X6803Y5290D01*
X6794Y5286D01*
X6786Y5280D01*
X6780Y5272D01*
X6776Y5263D01*
X6775Y5254D01*
X6776Y5244D01*
X6780Y5235D01*
X6786Y5227D01*
X6794Y5221D01*
X6803Y5218D01*
X6812Y5216D01*
X6822Y5218D01*
X6831Y5221D01*
X6839Y5227D01*
X6844Y5235D01*
X6848Y5244D01*
X6849Y5254D01*
X6848Y5263D01*
X6844Y5272D01*
X6839Y5280D01*
X6831Y5286D01*
X6822Y5290D01*
X6812Y5291D01*
D02*
G37*
G36*
X6912D02*
X6903Y5290D01*
X6894Y5286D01*
X6886Y5280D01*
X6880Y5272D01*
X6876Y5263D01*
X6875Y5254D01*
X6876Y5244D01*
X6880Y5235D01*
X6886Y5227D01*
X6894Y5221D01*
X6903Y5218D01*
X6912Y5216D01*
X6922Y5218D01*
X6931Y5221D01*
X6939Y5227D01*
X6944Y5235D01*
X6948Y5244D01*
X6949Y5254D01*
X6948Y5263D01*
X6944Y5272D01*
X6939Y5280D01*
X6931Y5286D01*
X6922Y5290D01*
X6912Y5291D01*
D02*
G37*
G36*
X4312D02*
X4303Y5290D01*
X4294Y5286D01*
X4286Y5280D01*
X4280Y5272D01*
X4276Y5263D01*
X4275Y5254D01*
X4276Y5244D01*
X4280Y5235D01*
X4286Y5227D01*
X4294Y5221D01*
X4303Y5218D01*
X4312Y5216D01*
X4322Y5218D01*
X4331Y5221D01*
X4339Y5227D01*
X4344Y5235D01*
X4348Y5244D01*
X4349Y5254D01*
X4348Y5263D01*
X4344Y5272D01*
X4339Y5280D01*
X4331Y5286D01*
X4322Y5290D01*
X4312Y5291D01*
D02*
G37*
G36*
X4812D02*
X4803Y5290D01*
X4794Y5286D01*
X4786Y5280D01*
X4780Y5272D01*
X4776Y5263D01*
X4775Y5254D01*
X4776Y5244D01*
X4780Y5235D01*
X4786Y5227D01*
X4794Y5221D01*
X4803Y5218D01*
X4812Y5216D01*
X4822Y5218D01*
X4831Y5221D01*
X4839Y5227D01*
X4844Y5235D01*
X4848Y5244D01*
X4849Y5254D01*
X4848Y5263D01*
X4844Y5272D01*
X4839Y5280D01*
X4831Y5286D01*
X4822Y5290D01*
X4812Y5291D01*
D02*
G37*
G36*
X4112D02*
X4103Y5290D01*
X4094Y5286D01*
X4086Y5280D01*
X4080Y5272D01*
X4076Y5263D01*
X4075Y5254D01*
X4076Y5244D01*
X4080Y5235D01*
X4086Y5227D01*
X4094Y5221D01*
X4103Y5218D01*
X4112Y5216D01*
X4122Y5218D01*
X4131Y5221D01*
X4139Y5227D01*
X4144Y5235D01*
X4148Y5244D01*
X4149Y5254D01*
X4148Y5263D01*
X4144Y5272D01*
X4139Y5280D01*
X4131Y5286D01*
X4122Y5290D01*
X4112Y5291D01*
D02*
G37*
G36*
X4212D02*
X4203Y5290D01*
X4194Y5286D01*
X4186Y5280D01*
X4180Y5272D01*
X4176Y5263D01*
X4175Y5254D01*
X4176Y5244D01*
X4180Y5235D01*
X4186Y5227D01*
X4194Y5221D01*
X4203Y5218D01*
X4212Y5216D01*
X4222Y5218D01*
X4231Y5221D01*
X4239Y5227D01*
X4244Y5235D01*
X4248Y5244D01*
X4249Y5254D01*
X4248Y5263D01*
X4244Y5272D01*
X4239Y5280D01*
X4231Y5286D01*
X4222Y5290D01*
X4212Y5291D01*
D02*
G37*
G36*
X5212D02*
X5203Y5290D01*
X5194Y5286D01*
X5186Y5280D01*
X5180Y5272D01*
X5176Y5263D01*
X5175Y5254D01*
X5176Y5244D01*
X5180Y5235D01*
X5186Y5227D01*
X5194Y5221D01*
X5203Y5218D01*
X5212Y5216D01*
X5222Y5218D01*
X5231Y5221D01*
X5239Y5227D01*
X5244Y5235D01*
X5248Y5244D01*
X5249Y5254D01*
X5248Y5263D01*
X5244Y5272D01*
X5239Y5280D01*
X5231Y5286D01*
X5222Y5290D01*
X5212Y5291D01*
D02*
G37*
G36*
X5712D02*
X5703Y5290D01*
X5694Y5286D01*
X5686Y5280D01*
X5680Y5272D01*
X5676Y5263D01*
X5675Y5254D01*
X5676Y5244D01*
X5680Y5235D01*
X5686Y5227D01*
X5694Y5221D01*
X5703Y5218D01*
X5712Y5216D01*
X5722Y5218D01*
X5731Y5221D01*
X5739Y5227D01*
X5744Y5235D01*
X5748Y5244D01*
X5749Y5254D01*
X5748Y5263D01*
X5744Y5272D01*
X5739Y5280D01*
X5731Y5286D01*
X5722Y5290D01*
X5712Y5291D01*
D02*
G37*
G36*
X5012D02*
X5003Y5290D01*
X4994Y5286D01*
X4986Y5280D01*
X4980Y5272D01*
X4976Y5263D01*
X4975Y5254D01*
X4976Y5244D01*
X4980Y5235D01*
X4986Y5227D01*
X4994Y5221D01*
X5003Y5218D01*
X5012Y5216D01*
X5022Y5218D01*
X5031Y5221D01*
X5039Y5227D01*
X5044Y5235D01*
X5048Y5244D01*
X5049Y5254D01*
X5048Y5263D01*
X5044Y5272D01*
X5039Y5280D01*
X5031Y5286D01*
X5022Y5290D01*
X5012Y5291D01*
D02*
G37*
G36*
X5112D02*
X5103Y5290D01*
X5094Y5286D01*
X5086Y5280D01*
X5080Y5272D01*
X5076Y5263D01*
X5075Y5254D01*
X5076Y5244D01*
X5080Y5235D01*
X5086Y5227D01*
X5094Y5221D01*
X5103Y5218D01*
X5112Y5216D01*
X5122Y5218D01*
X5131Y5221D01*
X5139Y5227D01*
X5144Y5235D01*
X5148Y5244D01*
X5149Y5254D01*
X5148Y5263D01*
X5144Y5272D01*
X5139Y5280D01*
X5131Y5286D01*
X5122Y5290D01*
X5112Y5291D01*
D02*
G37*
G36*
X7633Y5020D02*
X7627Y5019D01*
X7618Y5015D01*
X7609Y5009D01*
X7603Y5000D01*
X7599Y4991D01*
X7598Y4985D01*
X7633D01*
Y5020D01*
D02*
G37*
G36*
X7643Y5020D02*
Y4985D01*
X7677D01*
X7677Y4991D01*
X7673Y5000D01*
X7666Y5009D01*
X7658Y5015D01*
X7648Y5019D01*
X7643Y5020D01*
D02*
G37*
G36*
X7790Y5005D02*
X7786Y5004D01*
X7777Y4998D01*
X7772Y4990D01*
X7771Y4985D01*
X7790D01*
Y5005D01*
D02*
G37*
G36*
X7800D02*
Y4985D01*
X7820D01*
X7819Y4990D01*
X7813Y4998D01*
X7805Y5004D01*
X7800Y5005D01*
D02*
G37*
G36*
X6786Y5015D02*
X6767D01*
X6768Y5010D01*
X6773Y5002D01*
X6782Y4996D01*
X6786Y4995D01*
Y5015D01*
D02*
G37*
G36*
X6816D02*
X6796D01*
Y4995D01*
X6801Y4996D01*
X6809Y5002D01*
X6815Y5010D01*
X6816Y5015D01*
D02*
G37*
G36*
X6373D02*
X6353D01*
X6354Y5010D01*
X6360Y5002D01*
X6368Y4996D01*
X6373Y4995D01*
Y5015D01*
D02*
G37*
G36*
X6402D02*
X6383D01*
Y4995D01*
X6388Y4996D01*
X6396Y5002D01*
X6402Y5010D01*
X6402Y5015D01*
D02*
G37*
G36*
X7195Y4996D02*
X7185Y4994D01*
X7177Y4988D01*
X7171Y4980D01*
X7169Y4970D01*
X7171Y4961D01*
X7177Y4952D01*
X7185Y4947D01*
X7195Y4945D01*
X7205Y4947D01*
X7213Y4952D01*
X7218Y4961D01*
X7220Y4970D01*
X7218Y4980D01*
X7213Y4988D01*
X7205Y4994D01*
X7195Y4996D01*
D02*
G37*
G36*
X7790Y4975D02*
X7771D01*
X7772Y4971D01*
X7777Y4962D01*
X7786Y4957D01*
X7790Y4956D01*
Y4975D01*
D02*
G37*
G36*
X7633Y4975D02*
X7598D01*
X7599Y4970D01*
X7603Y4960D01*
X7609Y4952D01*
X7618Y4946D01*
X7627Y4942D01*
X7633Y4941D01*
Y4975D01*
D02*
G37*
G36*
X7677D02*
X7643D01*
Y4941D01*
X7648Y4942D01*
X7658Y4946D01*
X7666Y4952D01*
X7673Y4960D01*
X7677Y4970D01*
X7677Y4975D01*
D02*
G37*
G36*
X3863Y4995D02*
X3844D01*
Y4976D01*
X3848Y4976D01*
X3857Y4982D01*
X3862Y4990D01*
X3863Y4995D01*
D02*
G37*
G36*
X4648Y5064D02*
X4565D01*
Y4981D01*
X4648D01*
Y5064D01*
D02*
G37*
G36*
X7820Y4975D02*
X7800D01*
Y4956D01*
X7805Y4957D01*
X7813Y4962D01*
X7819Y4971D01*
X7820Y4975D01*
D02*
G37*
G36*
X3834Y4995D02*
X3814D01*
X3815Y4990D01*
X3821Y4982D01*
X3829Y4976D01*
X3834Y4976D01*
Y4995D01*
D02*
G37*
G36*
X8022Y5153D02*
X8012Y5152D01*
X8004Y5146D01*
X7998Y5138D01*
X7996Y5128D01*
X7998Y5118D01*
X8004Y5110D01*
X8009Y5106D01*
Y5100D01*
X8004Y5097D01*
X7998Y5088D01*
X7996Y5079D01*
X7998Y5069D01*
X8004Y5061D01*
X8009Y5057D01*
Y5051D01*
X8004Y5048D01*
X7998Y5039D01*
X7996Y5030D01*
X7998Y5020D01*
X8004Y5012D01*
X8012Y5006D01*
X8022Y5004D01*
X8031Y5006D01*
X8040Y5012D01*
X8045Y5020D01*
X8047Y5030D01*
X8045Y5039D01*
X8040Y5048D01*
X8034Y5051D01*
Y5057D01*
X8040Y5061D01*
X8045Y5069D01*
X8047Y5079D01*
X8045Y5088D01*
X8040Y5097D01*
X8034Y5100D01*
Y5106D01*
X8040Y5110D01*
X8045Y5118D01*
X8047Y5128D01*
X8045Y5138D01*
X8040Y5146D01*
X8031Y5152D01*
X8022Y5153D01*
D02*
G37*
G36*
X3666Y5044D02*
X3647D01*
Y5025D01*
X3651Y5026D01*
X3660Y5031D01*
X3665Y5039D01*
X3666Y5044D01*
D02*
G37*
G36*
X3125Y5054D02*
X3120Y5053D01*
X3112Y5048D01*
X3106Y5039D01*
X3105Y5035D01*
X3125D01*
Y5054D01*
D02*
G37*
G36*
X6796Y5044D02*
Y5025D01*
X6816D01*
X6815Y5029D01*
X6809Y5038D01*
X6801Y5043D01*
X6796Y5044D01*
D02*
G37*
G36*
X3637Y5044D02*
X3617D01*
X3618Y5039D01*
X3624Y5031D01*
X3632Y5026D01*
X3637Y5025D01*
Y5044D01*
D02*
G37*
G36*
X8617Y5054D02*
X8598D01*
Y5035D01*
X8602Y5036D01*
X8611Y5041D01*
X8616Y5049D01*
X8617Y5054D01*
D02*
G37*
G36*
X3637Y5074D02*
X3632Y5073D01*
X3624Y5067D01*
X3618Y5059D01*
X3617Y5054D01*
X3637D01*
Y5074D01*
D02*
G37*
G36*
X3135Y5054D02*
Y5035D01*
X3154D01*
X3153Y5039D01*
X3148Y5048D01*
X3140Y5053D01*
X3135Y5054D01*
D02*
G37*
G36*
X8588Y5054D02*
X8568D01*
X8569Y5049D01*
X8574Y5041D01*
X8583Y5036D01*
X8588Y5035D01*
Y5054D01*
D02*
G37*
G36*
X3125Y5025D02*
X3105D01*
X3106Y5020D01*
X3112Y5012D01*
X3120Y5006D01*
X3125Y5005D01*
Y5025D01*
D02*
G37*
G36*
X3154D02*
X3135D01*
Y5005D01*
X3140Y5006D01*
X3148Y5012D01*
X3153Y5020D01*
X3154Y5025D01*
D02*
G37*
G36*
X3834Y5024D02*
X3829Y5024D01*
X3821Y5018D01*
X3815Y5010D01*
X3814Y5005D01*
X3834D01*
Y5024D01*
D02*
G37*
G36*
X3844D02*
Y5005D01*
X3863D01*
X3862Y5010D01*
X3857Y5018D01*
X3848Y5024D01*
X3844Y5024D01*
D02*
G37*
G36*
X6383Y5044D02*
Y5025D01*
X6402D01*
X6402Y5029D01*
X6396Y5038D01*
X6388Y5043D01*
X6383Y5044D01*
D02*
G37*
G36*
X6786D02*
X6782Y5043D01*
X6773Y5038D01*
X6768Y5029D01*
X6767Y5025D01*
X6786D01*
Y5044D01*
D02*
G37*
G36*
X7815Y5065D02*
X7805Y5063D01*
X7797Y5057D01*
X7791Y5049D01*
X7789Y5039D01*
X7791Y5030D01*
X7797Y5021D01*
X7805Y5016D01*
X7815Y5014D01*
X7825Y5016D01*
X7833Y5021D01*
X7838Y5030D01*
X7840Y5039D01*
X7838Y5049D01*
X7833Y5057D01*
X7825Y5063D01*
X7815Y5065D01*
D02*
G37*
G36*
X6373Y5044D02*
X6368Y5043D01*
X6360Y5038D01*
X6354Y5029D01*
X6353Y5025D01*
X6373D01*
Y5044D01*
D02*
G37*
G36*
X5349Y5291D02*
X5275D01*
Y5217D01*
X5349D01*
Y5291D01*
D02*
G37*
G36*
X7012Y5391D02*
X7003Y5390D01*
X6994Y5386D01*
X6986Y5380D01*
X6980Y5372D01*
X6976Y5363D01*
X6975Y5354D01*
X6976Y5344D01*
X6980Y5335D01*
X6986Y5327D01*
X6994Y5321D01*
X7003Y5318D01*
X7012Y5316D01*
X7022Y5318D01*
X7031Y5321D01*
X7039Y5327D01*
X7044Y5335D01*
X7048Y5344D01*
X7049Y5354D01*
X7048Y5363D01*
X7044Y5372D01*
X7039Y5380D01*
X7031Y5386D01*
X7022Y5390D01*
X7012Y5391D01*
D02*
G37*
G36*
X7112D02*
X7103Y5390D01*
X7094Y5386D01*
X7086Y5380D01*
X7080Y5372D01*
X7076Y5363D01*
X7075Y5354D01*
X7076Y5344D01*
X7080Y5335D01*
X7086Y5327D01*
X7094Y5321D01*
X7103Y5318D01*
X7112Y5316D01*
X7122Y5318D01*
X7131Y5321D01*
X7139Y5327D01*
X7144Y5335D01*
X7148Y5344D01*
X7149Y5354D01*
X7148Y5363D01*
X7144Y5372D01*
X7139Y5380D01*
X7131Y5386D01*
X7122Y5390D01*
X7112Y5391D01*
D02*
G37*
G36*
X6812D02*
X6803Y5390D01*
X6794Y5386D01*
X6786Y5380D01*
X6780Y5372D01*
X6776Y5363D01*
X6775Y5354D01*
X6776Y5344D01*
X6780Y5335D01*
X6786Y5327D01*
X6794Y5321D01*
X6803Y5318D01*
X6812Y5316D01*
X6822Y5318D01*
X6831Y5321D01*
X6839Y5327D01*
X6844Y5335D01*
X6848Y5344D01*
X6849Y5354D01*
X6848Y5363D01*
X6844Y5372D01*
X6839Y5380D01*
X6831Y5386D01*
X6822Y5390D01*
X6812Y5391D01*
D02*
G37*
G36*
X6912D02*
X6903Y5390D01*
X6894Y5386D01*
X6886Y5380D01*
X6880Y5372D01*
X6876Y5363D01*
X6875Y5354D01*
X6876Y5344D01*
X6880Y5335D01*
X6886Y5327D01*
X6894Y5321D01*
X6903Y5318D01*
X6912Y5316D01*
X6922Y5318D01*
X6931Y5321D01*
X6939Y5327D01*
X6944Y5335D01*
X6948Y5344D01*
X6949Y5354D01*
X6948Y5363D01*
X6944Y5372D01*
X6939Y5380D01*
X6931Y5386D01*
X6922Y5390D01*
X6912Y5391D01*
D02*
G37*
G36*
X5807Y5349D02*
X5776D01*
X5776Y5344D01*
X5780Y5335D01*
X5786Y5327D01*
X5794Y5321D01*
X5803Y5318D01*
X5807Y5317D01*
Y5349D01*
D02*
G37*
G36*
X6707D02*
X6676D01*
X6676Y5344D01*
X6680Y5335D01*
X6686Y5327D01*
X6694Y5321D01*
X6703Y5318D01*
X6707Y5317D01*
Y5349D01*
D02*
G37*
G36*
X4007D02*
X3976D01*
X3976Y5344D01*
X3980Y5335D01*
X3986Y5327D01*
X3994Y5321D01*
X4003Y5318D01*
X4007Y5317D01*
Y5349D01*
D02*
G37*
G36*
X4907D02*
X4876D01*
X4876Y5344D01*
X4880Y5335D01*
X4886Y5327D01*
X4894Y5321D01*
X4903Y5318D01*
X4907Y5317D01*
Y5349D01*
D02*
G37*
G36*
X5712Y5391D02*
X5703Y5390D01*
X5694Y5386D01*
X5686Y5380D01*
X5680Y5372D01*
X5676Y5363D01*
X5675Y5354D01*
X5676Y5344D01*
X5680Y5335D01*
X5686Y5327D01*
X5694Y5321D01*
X5703Y5318D01*
X5712Y5316D01*
X5722Y5318D01*
X5731Y5321D01*
X5739Y5327D01*
X5744Y5335D01*
X5748Y5344D01*
X5749Y5354D01*
X5748Y5363D01*
X5744Y5372D01*
X5739Y5380D01*
X5731Y5386D01*
X5722Y5390D01*
X5712Y5391D01*
D02*
G37*
G36*
X5912D02*
X5903Y5390D01*
X5894Y5386D01*
X5886Y5380D01*
X5880Y5372D01*
X5876Y5363D01*
X5875Y5354D01*
X5876Y5344D01*
X5880Y5335D01*
X5886Y5327D01*
X5894Y5321D01*
X5903Y5318D01*
X5912Y5316D01*
X5922Y5318D01*
X5931Y5321D01*
X5939Y5327D01*
X5944Y5335D01*
X5948Y5344D01*
X5949Y5354D01*
X5948Y5363D01*
X5944Y5372D01*
X5939Y5380D01*
X5931Y5386D01*
X5922Y5390D01*
X5912Y5391D01*
D02*
G37*
G36*
X5212D02*
X5203Y5390D01*
X5194Y5386D01*
X5186Y5380D01*
X5180Y5372D01*
X5176Y5363D01*
X5175Y5354D01*
X5176Y5344D01*
X5180Y5335D01*
X5186Y5327D01*
X5194Y5321D01*
X5203Y5318D01*
X5212Y5316D01*
X5222Y5318D01*
X5231Y5321D01*
X5239Y5327D01*
X5244Y5335D01*
X5248Y5344D01*
X5249Y5354D01*
X5248Y5363D01*
X5244Y5372D01*
X5239Y5380D01*
X5231Y5386D01*
X5222Y5390D01*
X5212Y5391D01*
D02*
G37*
G36*
X5312D02*
X5303Y5390D01*
X5294Y5386D01*
X5286Y5380D01*
X5280Y5372D01*
X5276Y5363D01*
X5275Y5354D01*
X5276Y5344D01*
X5280Y5335D01*
X5286Y5327D01*
X5294Y5321D01*
X5303Y5318D01*
X5312Y5316D01*
X5322Y5318D01*
X5331Y5321D01*
X5339Y5327D01*
X5344Y5335D01*
X5348Y5344D01*
X5349Y5354D01*
X5348Y5363D01*
X5344Y5372D01*
X5339Y5380D01*
X5331Y5386D01*
X5322Y5390D01*
X5312Y5391D01*
D02*
G37*
G36*
X6212D02*
X6203Y5390D01*
X6194Y5386D01*
X6186Y5380D01*
X6180Y5372D01*
X6176Y5363D01*
X6175Y5354D01*
X6176Y5344D01*
X6180Y5335D01*
X6186Y5327D01*
X6194Y5321D01*
X6203Y5318D01*
X6212Y5316D01*
X6222Y5318D01*
X6231Y5321D01*
X6239Y5327D01*
X6244Y5335D01*
X6248Y5344D01*
X6249Y5354D01*
X6248Y5363D01*
X6244Y5372D01*
X6239Y5380D01*
X6231Y5386D01*
X6222Y5390D01*
X6212Y5391D01*
D02*
G37*
G36*
X6612D02*
X6603Y5390D01*
X6594Y5386D01*
X6586Y5380D01*
X6580Y5372D01*
X6576Y5363D01*
X6575Y5354D01*
X6576Y5344D01*
X6580Y5335D01*
X6586Y5327D01*
X6594Y5321D01*
X6603Y5318D01*
X6612Y5316D01*
X6622Y5318D01*
X6631Y5321D01*
X6639Y5327D01*
X6644Y5335D01*
X6648Y5344D01*
X6649Y5354D01*
X6648Y5363D01*
X6644Y5372D01*
X6639Y5380D01*
X6631Y5386D01*
X6622Y5390D01*
X6612Y5391D01*
D02*
G37*
G36*
X6012D02*
X6003Y5390D01*
X5994Y5386D01*
X5986Y5380D01*
X5980Y5372D01*
X5976Y5363D01*
X5975Y5354D01*
X5976Y5344D01*
X5980Y5335D01*
X5986Y5327D01*
X5994Y5321D01*
X6003Y5318D01*
X6012Y5316D01*
X6022Y5318D01*
X6031Y5321D01*
X6039Y5327D01*
X6044Y5335D01*
X6048Y5344D01*
X6049Y5354D01*
X6048Y5363D01*
X6044Y5372D01*
X6039Y5380D01*
X6031Y5386D01*
X6022Y5390D01*
X6012Y5391D01*
D02*
G37*
G36*
X6112D02*
X6103Y5390D01*
X6094Y5386D01*
X6086Y5380D01*
X6080Y5372D01*
X6076Y5363D01*
X6075Y5354D01*
X6076Y5344D01*
X6080Y5335D01*
X6086Y5327D01*
X6094Y5321D01*
X6103Y5318D01*
X6112Y5316D01*
X6122Y5318D01*
X6131Y5321D01*
X6139Y5327D01*
X6144Y5335D01*
X6148Y5344D01*
X6149Y5354D01*
X6148Y5363D01*
X6144Y5372D01*
X6139Y5380D01*
X6131Y5386D01*
X6122Y5390D01*
X6112Y5391D01*
D02*
G37*
G36*
X4049Y5349D02*
X4017D01*
Y5317D01*
X4022Y5318D01*
X4031Y5321D01*
X4039Y5327D01*
X4044Y5335D01*
X4048Y5344D01*
X4049Y5349D01*
D02*
G37*
G36*
X5817Y5390D02*
Y5359D01*
X5849D01*
X5848Y5363D01*
X5844Y5372D01*
X5839Y5380D01*
X5831Y5386D01*
X5822Y5390D01*
X5817Y5390D01*
D02*
G37*
G36*
X1511Y5463D02*
X1498Y5461D01*
X1482Y5456D01*
X1466Y5448D01*
X1453Y5437D01*
X1442Y5424D01*
X1433Y5408D01*
X1428Y5391D01*
X1427Y5379D01*
X1511D01*
Y5463D01*
D02*
G37*
G36*
X6717Y5390D02*
Y5359D01*
X6749D01*
X6748Y5363D01*
X6744Y5372D01*
X6739Y5380D01*
X6731Y5386D01*
X6722Y5390D01*
X6717Y5390D01*
D02*
G37*
G36*
X4017D02*
Y5359D01*
X4049D01*
X4048Y5363D01*
X4044Y5372D01*
X4039Y5380D01*
X4031Y5386D01*
X4022Y5390D01*
X4017Y5390D01*
D02*
G37*
G36*
X9513Y5463D02*
Y5379D01*
X9597D01*
X9595Y5391D01*
X9590Y5408D01*
X9582Y5424D01*
X9571Y5437D01*
X9557Y5448D01*
X9542Y5456D01*
X9525Y5461D01*
X9513Y5463D01*
D02*
G37*
G36*
X7402Y5459D02*
X7392Y5457D01*
X7384Y5451D01*
X7378Y5443D01*
X7376Y5433D01*
X7378Y5423D01*
X7384Y5415D01*
X7392Y5410D01*
X7402Y5408D01*
X7411Y5410D01*
X7420Y5415D01*
X7425Y5423D01*
X7427Y5433D01*
X7425Y5443D01*
X7420Y5451D01*
X7411Y5457D01*
X7402Y5459D01*
D02*
G37*
G36*
X1521Y5463D02*
Y5379D01*
X1604D01*
X1603Y5391D01*
X1598Y5408D01*
X1590Y5424D01*
X1579Y5437D01*
X1565Y5448D01*
X1550Y5456D01*
X1533Y5461D01*
X1521Y5463D01*
D02*
G37*
G36*
X9503D02*
X9490Y5461D01*
X9474Y5456D01*
X9458Y5448D01*
X9445Y5437D01*
X9434Y5424D01*
X9425Y5408D01*
X9420Y5391D01*
X9419Y5379D01*
X9503D01*
Y5463D01*
D02*
G37*
G36*
X6749Y5349D02*
X6717D01*
Y5317D01*
X6722Y5318D01*
X6731Y5321D01*
X6739Y5327D01*
X6744Y5335D01*
X6748Y5344D01*
X6749Y5349D01*
D02*
G37*
G36*
X4907Y5390D02*
X4903Y5390D01*
X4894Y5386D01*
X4886Y5380D01*
X4880Y5372D01*
X4876Y5363D01*
X4876Y5359D01*
X4907D01*
Y5390D01*
D02*
G37*
G36*
X4949Y5349D02*
X4917D01*
Y5317D01*
X4922Y5318D01*
X4931Y5321D01*
X4939Y5327D01*
X4944Y5335D01*
X4948Y5344D01*
X4949Y5349D01*
D02*
G37*
G36*
X5849D02*
X5817D01*
Y5317D01*
X5822Y5318D01*
X5831Y5321D01*
X5839Y5327D01*
X5844Y5335D01*
X5848Y5344D01*
X5849Y5349D01*
D02*
G37*
G36*
X5807Y5390D02*
X5803Y5390D01*
X5794Y5386D01*
X5786Y5380D01*
X5780Y5372D01*
X5776Y5363D01*
X5776Y5359D01*
X5807D01*
Y5390D01*
D02*
G37*
G36*
X4917D02*
Y5359D01*
X4949D01*
X4948Y5363D01*
X4944Y5372D01*
X4939Y5380D01*
X4931Y5386D01*
X4922Y5390D01*
X4917Y5390D01*
D02*
G37*
G36*
X6707D02*
X6703Y5390D01*
X6694Y5386D01*
X6686Y5380D01*
X6680Y5372D01*
X6676Y5363D01*
X6676Y5359D01*
X6707D01*
Y5390D01*
D02*
G37*
G36*
X4007D02*
X4003Y5390D01*
X3994Y5386D01*
X3986Y5380D01*
X3980Y5372D01*
X3976Y5363D01*
X3976Y5359D01*
X4007D01*
Y5390D01*
D02*
G37*
G36*
X3780Y5291D02*
X3770Y5289D01*
X3762Y5284D01*
X3756Y5276D01*
X3754Y5266D01*
X3756Y5256D01*
X3762Y5248D01*
X3770Y5242D01*
X3780Y5240D01*
X3789Y5242D01*
X3798Y5248D01*
X3803Y5256D01*
X3805Y5266D01*
X3803Y5276D01*
X3798Y5284D01*
X3789Y5289D01*
X3780Y5291D01*
D02*
G37*
G36*
X4907Y5290D02*
X4903Y5290D01*
X4894Y5286D01*
X4886Y5280D01*
X4880Y5272D01*
X4876Y5263D01*
X4876Y5259D01*
X4907D01*
Y5290D01*
D02*
G37*
G36*
X5849Y5249D02*
X5817D01*
Y5217D01*
X5822Y5218D01*
X5831Y5221D01*
X5839Y5227D01*
X5844Y5235D01*
X5848Y5244D01*
X5849Y5249D01*
D02*
G37*
G36*
X6749D02*
X6717D01*
Y5217D01*
X6722Y5218D01*
X6731Y5221D01*
X6739Y5227D01*
X6744Y5235D01*
X6748Y5244D01*
X6749Y5249D01*
D02*
G37*
G36*
X5807Y5290D02*
X5803Y5290D01*
X5794Y5286D01*
X5786Y5280D01*
X5780Y5272D01*
X5776Y5263D01*
X5776Y5259D01*
X5807D01*
Y5290D01*
D02*
G37*
G36*
X4917D02*
Y5259D01*
X4949D01*
X4948Y5263D01*
X4944Y5272D01*
X4939Y5280D01*
X4931Y5286D01*
X4922Y5290D01*
X4917Y5290D01*
D02*
G37*
G36*
X6707D02*
X6703Y5290D01*
X6694Y5286D01*
X6686Y5280D01*
X6680Y5272D01*
X6676Y5263D01*
X6676Y5259D01*
X6707D01*
Y5290D01*
D02*
G37*
G36*
X4007D02*
X4003Y5290D01*
X3994Y5286D01*
X3986Y5280D01*
X3980Y5272D01*
X3976Y5263D01*
X3976Y5259D01*
X4007D01*
Y5290D01*
D02*
G37*
G36*
Y5249D02*
X3976D01*
X3976Y5244D01*
X3980Y5235D01*
X3986Y5227D01*
X3994Y5221D01*
X4003Y5218D01*
X4007Y5217D01*
Y5249D01*
D02*
G37*
G36*
X4907D02*
X4876D01*
X4876Y5244D01*
X4880Y5235D01*
X4886Y5227D01*
X4894Y5221D01*
X4903Y5218D01*
X4907Y5217D01*
Y5249D01*
D02*
G37*
G36*
X6249Y5291D02*
X6175D01*
Y5217D01*
X6249D01*
Y5291D01*
D02*
G37*
G36*
X7149D02*
X7075D01*
Y5217D01*
X7149D01*
Y5291D01*
D02*
G37*
G36*
X4049Y5249D02*
X4017D01*
Y5217D01*
X4022Y5218D01*
X4031Y5221D01*
X4039Y5227D01*
X4044Y5235D01*
X4048Y5244D01*
X4049Y5249D01*
D02*
G37*
G36*
X4949D02*
X4917D01*
Y5217D01*
X4922Y5218D01*
X4931Y5221D01*
X4939Y5227D01*
X4944Y5235D01*
X4948Y5244D01*
X4949Y5249D01*
D02*
G37*
G36*
X5807D02*
X5776D01*
X5776Y5244D01*
X5780Y5235D01*
X5786Y5227D01*
X5794Y5221D01*
X5803Y5218D01*
X5807Y5217D01*
Y5249D01*
D02*
G37*
G36*
X6707D02*
X6676D01*
X6676Y5244D01*
X6680Y5235D01*
X6686Y5227D01*
X6694Y5221D01*
X6703Y5218D01*
X6707Y5217D01*
Y5249D01*
D02*
G37*
G36*
X6717Y5290D02*
Y5259D01*
X6749D01*
X6748Y5263D01*
X6744Y5272D01*
X6739Y5280D01*
X6731Y5286D01*
X6722Y5290D01*
X6717Y5290D01*
D02*
G37*
G36*
X4212Y5391D02*
X4203Y5390D01*
X4194Y5386D01*
X4186Y5380D01*
X4180Y5372D01*
X4176Y5363D01*
X4175Y5354D01*
X4176Y5344D01*
X4180Y5335D01*
X4186Y5327D01*
X4194Y5321D01*
X4203Y5318D01*
X4212Y5316D01*
X4222Y5318D01*
X4231Y5321D01*
X4239Y5327D01*
X4244Y5335D01*
X4248Y5344D01*
X4249Y5354D01*
X4248Y5363D01*
X4244Y5372D01*
X4239Y5380D01*
X4231Y5386D01*
X4222Y5390D01*
X4212Y5391D01*
D02*
G37*
G36*
X4312D02*
X4303Y5390D01*
X4294Y5386D01*
X4286Y5380D01*
X4280Y5372D01*
X4276Y5363D01*
X4275Y5354D01*
X4276Y5344D01*
X4280Y5335D01*
X4286Y5327D01*
X4294Y5321D01*
X4303Y5318D01*
X4312Y5316D01*
X4322Y5318D01*
X4331Y5321D01*
X4339Y5327D01*
X4344Y5335D01*
X4348Y5344D01*
X4349Y5354D01*
X4348Y5363D01*
X4344Y5372D01*
X4339Y5380D01*
X4331Y5386D01*
X4322Y5390D01*
X4312Y5391D01*
D02*
G37*
G36*
X3912D02*
X3903Y5390D01*
X3894Y5386D01*
X3886Y5380D01*
X3880Y5372D01*
X3876Y5363D01*
X3875Y5354D01*
X3876Y5344D01*
X3880Y5335D01*
X3886Y5327D01*
X3894Y5321D01*
X3903Y5318D01*
X3912Y5316D01*
X3922Y5318D01*
X3931Y5321D01*
X3939Y5327D01*
X3944Y5335D01*
X3948Y5344D01*
X3949Y5354D01*
X3948Y5363D01*
X3944Y5372D01*
X3939Y5380D01*
X3931Y5386D01*
X3922Y5390D01*
X3912Y5391D01*
D02*
G37*
G36*
X4112D02*
X4103Y5390D01*
X4094Y5386D01*
X4086Y5380D01*
X4080Y5372D01*
X4076Y5363D01*
X4075Y5354D01*
X4076Y5344D01*
X4080Y5335D01*
X4086Y5327D01*
X4094Y5321D01*
X4103Y5318D01*
X4112Y5316D01*
X4122Y5318D01*
X4131Y5321D01*
X4139Y5327D01*
X4144Y5335D01*
X4148Y5344D01*
X4149Y5354D01*
X4148Y5363D01*
X4144Y5372D01*
X4139Y5380D01*
X4131Y5386D01*
X4122Y5390D01*
X4112Y5391D01*
D02*
G37*
G36*
X5012D02*
X5003Y5390D01*
X4994Y5386D01*
X4986Y5380D01*
X4980Y5372D01*
X4976Y5363D01*
X4975Y5354D01*
X4976Y5344D01*
X4980Y5335D01*
X4986Y5327D01*
X4994Y5321D01*
X5003Y5318D01*
X5012Y5316D01*
X5022Y5318D01*
X5031Y5321D01*
X5039Y5327D01*
X5044Y5335D01*
X5048Y5344D01*
X5049Y5354D01*
X5048Y5363D01*
X5044Y5372D01*
X5039Y5380D01*
X5031Y5386D01*
X5022Y5390D01*
X5012Y5391D01*
D02*
G37*
G36*
X5112D02*
X5103Y5390D01*
X5094Y5386D01*
X5086Y5380D01*
X5080Y5372D01*
X5076Y5363D01*
X5075Y5354D01*
X5076Y5344D01*
X5080Y5335D01*
X5086Y5327D01*
X5094Y5321D01*
X5103Y5318D01*
X5112Y5316D01*
X5122Y5318D01*
X5131Y5321D01*
X5139Y5327D01*
X5144Y5335D01*
X5148Y5344D01*
X5149Y5354D01*
X5148Y5363D01*
X5144Y5372D01*
X5139Y5380D01*
X5131Y5386D01*
X5122Y5390D01*
X5112Y5391D01*
D02*
G37*
G36*
X4412D02*
X4403Y5390D01*
X4394Y5386D01*
X4386Y5380D01*
X4380Y5372D01*
X4376Y5363D01*
X4375Y5354D01*
X4376Y5344D01*
X4380Y5335D01*
X4386Y5327D01*
X4394Y5321D01*
X4403Y5318D01*
X4412Y5316D01*
X4422Y5318D01*
X4431Y5321D01*
X4439Y5327D01*
X4444Y5335D01*
X4448Y5344D01*
X4449Y5354D01*
X4448Y5363D01*
X4444Y5372D01*
X4439Y5380D01*
X4431Y5386D01*
X4422Y5390D01*
X4412Y5391D01*
D02*
G37*
G36*
X4812D02*
X4803Y5390D01*
X4794Y5386D01*
X4786Y5380D01*
X4780Y5372D01*
X4776Y5363D01*
X4775Y5354D01*
X4776Y5344D01*
X4780Y5335D01*
X4786Y5327D01*
X4794Y5321D01*
X4803Y5318D01*
X4812Y5316D01*
X4822Y5318D01*
X4831Y5321D01*
X4839Y5327D01*
X4844Y5335D01*
X4848Y5344D01*
X4849Y5354D01*
X4848Y5363D01*
X4844Y5372D01*
X4839Y5380D01*
X4831Y5386D01*
X4822Y5390D01*
X4812Y5391D01*
D02*
G37*
G36*
X7638Y5384D02*
X7623Y5382D01*
X7609Y5377D01*
X7597Y5367D01*
X7588Y5355D01*
X7582Y5342D01*
X7580Y5327D01*
X7582Y5312D01*
X7588Y5298D01*
X7597Y5286D01*
X7609Y5277D01*
X7623Y5271D01*
X7638Y5269D01*
X7653Y5271D01*
X7667Y5277D01*
X7678Y5286D01*
X7688Y5298D01*
X7693Y5312D01*
X7695Y5327D01*
X7693Y5342D01*
X7688Y5355D01*
X7678Y5367D01*
X7667Y5377D01*
X7653Y5382D01*
X7638Y5384D01*
D02*
G37*
G36*
X1511Y5369D02*
X1427D01*
X1428Y5357D01*
X1433Y5340D01*
X1442Y5324D01*
X1453Y5311D01*
X1466Y5300D01*
X1482Y5292D01*
X1498Y5287D01*
X1511Y5285D01*
Y5369D01*
D02*
G37*
G36*
X4017Y5290D02*
Y5259D01*
X4049D01*
X4048Y5263D01*
X4044Y5272D01*
X4039Y5280D01*
X4031Y5286D01*
X4022Y5290D01*
X4017Y5290D01*
D02*
G37*
G36*
X5817D02*
Y5259D01*
X5849D01*
X5848Y5263D01*
X5844Y5272D01*
X5839Y5280D01*
X5831Y5286D01*
X5822Y5290D01*
X5817Y5290D01*
D02*
G37*
G36*
X9597Y5369D02*
X9513D01*
Y5285D01*
X9525Y5287D01*
X9542Y5292D01*
X9557Y5300D01*
X9571Y5311D01*
X9582Y5324D01*
X9590Y5340D01*
X9595Y5357D01*
X9597Y5369D01*
D02*
G37*
G36*
X6407Y5395D02*
X6397Y5393D01*
X6387Y5389D01*
X6379Y5383D01*
X6373Y5375D01*
X6369Y5365D01*
X6367Y5354D01*
X6369Y5344D01*
X6373Y5334D01*
X6379Y5326D01*
X6387Y5319D01*
X6397Y5315D01*
X6407Y5314D01*
X6418Y5315D01*
X6428Y5319D01*
X6436Y5326D01*
X6442Y5334D01*
X6446Y5344D01*
X6448Y5354D01*
X6446Y5365D01*
X6442Y5375D01*
X6436Y5383D01*
X6428Y5389D01*
X6418Y5393D01*
X6407Y5395D01*
D02*
G37*
G36*
X1604Y5369D02*
X1521D01*
Y5285D01*
X1533Y5287D01*
X1550Y5292D01*
X1565Y5300D01*
X1579Y5311D01*
X1590Y5324D01*
X1598Y5340D01*
X1603Y5357D01*
X1604Y5369D01*
D02*
G37*
G36*
X9503D02*
X9419D01*
X9420Y5357D01*
X9425Y5340D01*
X9434Y5324D01*
X9445Y5311D01*
X9458Y5300D01*
X9474Y5292D01*
X9490Y5287D01*
X9503Y5285D01*
Y5369D01*
D02*
G37*
G36*
X4257Y4345D02*
X4252Y4344D01*
X4244Y4339D01*
X4238Y4331D01*
X4237Y4326D01*
X4257D01*
Y4345D01*
D02*
G37*
G36*
X4267D02*
Y4326D01*
X4286D01*
X4285Y4331D01*
X4280Y4339D01*
X4272Y4344D01*
X4267Y4345D01*
D02*
G37*
G36*
X7239Y4336D02*
X7234Y4335D01*
X7226Y4329D01*
X7221Y4321D01*
X7220Y4316D01*
X7239D01*
Y4336D01*
D02*
G37*
G36*
X7249D02*
Y4316D01*
X7269D01*
X7268Y4321D01*
X7262Y4329D01*
X7254Y4335D01*
X7249Y4336D01*
D02*
G37*
G36*
X7923Y4386D02*
X7913Y4384D01*
X7905Y4378D01*
X7900Y4370D01*
X7898Y4360D01*
X7900Y4350D01*
X7905Y4342D01*
X7913Y4337D01*
X7923Y4335D01*
X7933Y4337D01*
X7941Y4342D01*
X7947Y4350D01*
X7949Y4360D01*
X7947Y4370D01*
X7941Y4378D01*
X7933Y4384D01*
X7923Y4386D01*
D02*
G37*
G36*
X6826Y4375D02*
X6821Y4374D01*
X6813Y4368D01*
X6807Y4360D01*
X6806Y4355D01*
X6826D01*
Y4375D01*
D02*
G37*
G36*
Y4345D02*
X6806D01*
X6807Y4341D01*
X6813Y4332D01*
X6821Y4327D01*
X6826Y4326D01*
Y4345D01*
D02*
G37*
G36*
X6855D02*
X6836D01*
Y4326D01*
X6840Y4327D01*
X6849Y4332D01*
X6854Y4341D01*
X6855Y4345D01*
D02*
G37*
G36*
X4788Y4316D02*
X4784Y4315D01*
X4775Y4309D01*
X4770Y4301D01*
X4769Y4296D01*
X4788D01*
Y4316D01*
D02*
G37*
G36*
X4798D02*
Y4296D01*
X4818D01*
X4817Y4301D01*
X4811Y4309D01*
X4803Y4315D01*
X4798Y4316D01*
D02*
G37*
G36*
X7239Y4306D02*
X7220D01*
X7221Y4301D01*
X7226Y4293D01*
X7234Y4287D01*
X7239Y4287D01*
Y4306D01*
D02*
G37*
G36*
X7269D02*
X7249D01*
Y4287D01*
X7254Y4287D01*
X7262Y4293D01*
X7268Y4301D01*
X7269Y4306D01*
D02*
G37*
G36*
X8214Y4326D02*
X8209Y4325D01*
X8200Y4319D01*
X8195Y4311D01*
X8194Y4306D01*
X8214D01*
Y4326D01*
D02*
G37*
G36*
X8224D02*
Y4306D01*
X8243D01*
X8242Y4311D01*
X8237Y4319D01*
X8228Y4325D01*
X8224Y4326D01*
D02*
G37*
G36*
X4257Y4316D02*
X4237D01*
X4238Y4311D01*
X4244Y4303D01*
X4252Y4297D01*
X4257Y4296D01*
Y4316D01*
D02*
G37*
G36*
X4286D02*
X4267D01*
Y4296D01*
X4272Y4297D01*
X4280Y4303D01*
X4285Y4311D01*
X4286Y4316D01*
D02*
G37*
G36*
X6836Y4375D02*
Y4355D01*
X6855D01*
X6854Y4360D01*
X6849Y4368D01*
X6840Y4374D01*
X6836Y4375D01*
D02*
G37*
G36*
X6521Y4434D02*
X6516Y4433D01*
X6508Y4427D01*
X6502Y4419D01*
X6501Y4414D01*
X6521D01*
Y4434D01*
D02*
G37*
G36*
X6531D02*
Y4414D01*
X6550D01*
X6549Y4419D01*
X6544Y4427D01*
X6535Y4433D01*
X6531Y4434D01*
D02*
G37*
G36*
X8214Y4424D02*
X8209Y4423D01*
X8200Y4418D01*
X8195Y4409D01*
X8194Y4405D01*
X8214D01*
Y4424D01*
D02*
G37*
G36*
X8224D02*
Y4405D01*
X8243D01*
X8242Y4409D01*
X8237Y4418D01*
X8228Y4423D01*
X8224Y4424D01*
D02*
G37*
G36*
X8125Y4444D02*
X8105D01*
Y4424D01*
X8110Y4425D01*
X8118Y4431D01*
X8124Y4439D01*
X8125Y4444D01*
D02*
G37*
G36*
X4109Y4524D02*
X4098Y4523D01*
X4089Y4519D01*
X4080Y4512D01*
X4074Y4504D01*
X4070Y4494D01*
X4069Y4484D01*
X4070Y4473D01*
X4074Y4463D01*
X4080Y4455D01*
X4089Y4449D01*
X4098Y4445D01*
X4109Y4443D01*
X4119Y4445D01*
X4129Y4449D01*
X4137Y4455D01*
X4144Y4463D01*
X4148Y4473D01*
X4149Y4484D01*
X4148Y4494D01*
X4144Y4504D01*
X4137Y4512D01*
X4129Y4519D01*
X4119Y4523D01*
X4109Y4524D01*
D02*
G37*
G36*
X8002Y4474D02*
X7992Y4472D01*
X7984Y4467D01*
X7978Y4459D01*
X7976Y4449D01*
X7978Y4439D01*
X7984Y4431D01*
X7992Y4425D01*
X8002Y4423D01*
X8012Y4425D01*
X8020Y4431D01*
X8026Y4439D01*
X8027Y4449D01*
X8026Y4459D01*
X8020Y4467D01*
X8012Y4472D01*
X8002Y4474D01*
D02*
G37*
G36*
X8095Y4444D02*
X8076D01*
X8077Y4439D01*
X8082Y4431D01*
X8091Y4425D01*
X8095Y4424D01*
Y4444D01*
D02*
G37*
G36*
X8214Y4395D02*
X8194D01*
X8195Y4390D01*
X8200Y4382D01*
X8209Y4376D01*
X8214Y4375D01*
Y4395D01*
D02*
G37*
G36*
X8243D02*
X8224D01*
Y4375D01*
X8228Y4376D01*
X8237Y4382D01*
X8242Y4390D01*
X8243Y4395D01*
D02*
G37*
G36*
X3715Y4375D02*
X3696D01*
X3697Y4370D01*
X3702Y4362D01*
X3711Y4356D01*
X3715Y4355D01*
Y4375D01*
D02*
G37*
G36*
X3745D02*
X3725D01*
Y4355D01*
X3730Y4356D01*
X3738Y4362D01*
X3744Y4370D01*
X3745Y4375D01*
D02*
G37*
G36*
X6521Y4404D02*
X6501D01*
X6502Y4400D01*
X6508Y4391D01*
X6516Y4386D01*
X6521Y4385D01*
Y4404D01*
D02*
G37*
G36*
X6550D02*
X6531D01*
Y4385D01*
X6535Y4386D01*
X6544Y4391D01*
X6549Y4400D01*
X6550Y4404D01*
D02*
G37*
G36*
X3715Y4404D02*
X3711Y4403D01*
X3702Y4398D01*
X3697Y4390D01*
X3696Y4385D01*
X3715D01*
Y4404D01*
D02*
G37*
G36*
X3725D02*
Y4385D01*
X3745D01*
X3744Y4390D01*
X3738Y4398D01*
X3730Y4403D01*
X3725Y4404D01*
D02*
G37*
G36*
X4867Y4040D02*
X4848D01*
X4848Y4036D01*
X4854Y4027D01*
X4862Y4022D01*
X4867Y4021D01*
Y4040D01*
D02*
G37*
G36*
X4897D02*
X4877D01*
Y4021D01*
X4882Y4022D01*
X4890Y4027D01*
X4896Y4036D01*
X4897Y4040D01*
D02*
G37*
G36*
X8263Y3999D02*
X8257Y3999D01*
X8247Y3995D01*
X8238Y3988D01*
X8231Y3979D01*
X8227Y3969D01*
X8227Y3963D01*
X8263D01*
Y3999D01*
D02*
G37*
G36*
X8273Y3999D02*
Y3963D01*
X8309D01*
X8308Y3969D01*
X8304Y3979D01*
X8297Y3988D01*
X8289Y3995D01*
X8279Y3999D01*
X8273Y3999D01*
D02*
G37*
G36*
X8214Y4099D02*
X8194D01*
X8195Y4095D01*
X8200Y4086D01*
X8209Y4081D01*
X8214Y4080D01*
Y4099D01*
D02*
G37*
G36*
X8243D02*
X8224D01*
Y4080D01*
X8228Y4081D01*
X8237Y4086D01*
X8242Y4095D01*
X8243Y4099D01*
D02*
G37*
G36*
X4867Y4070D02*
X4862Y4069D01*
X4854Y4063D01*
X4848Y4055D01*
X4848Y4050D01*
X4867D01*
Y4070D01*
D02*
G37*
G36*
X4877D02*
Y4050D01*
X4897D01*
X4896Y4055D01*
X4890Y4063D01*
X4882Y4069D01*
X4877Y4070D01*
D02*
G37*
G36*
X5782Y3932D02*
X5778Y3931D01*
X5769Y3926D01*
X5764Y3917D01*
X5763Y3912D01*
X5782D01*
Y3932D01*
D02*
G37*
G36*
X5792D02*
Y3912D01*
X5812D01*
X5811Y3917D01*
X5805Y3926D01*
X5797Y3931D01*
X5792Y3932D01*
D02*
G37*
G36*
X5782Y3902D02*
X5763D01*
X5764Y3898D01*
X5769Y3889D01*
X5778Y3884D01*
X5782Y3883D01*
Y3902D01*
D02*
G37*
G36*
X5812D02*
X5792D01*
Y3883D01*
X5797Y3884D01*
X5805Y3889D01*
X5811Y3898D01*
X5812Y3902D01*
D02*
G37*
G36*
X3149Y3957D02*
X3114D01*
Y3922D01*
X3149D01*
Y3957D01*
D02*
G37*
G36*
X3194D02*
X3159D01*
Y3922D01*
X3194D01*
Y3957D01*
D02*
G37*
G36*
X8263Y3953D02*
X8227D01*
X8227Y3947D01*
X8231Y3937D01*
X8238Y3929D01*
X8247Y3922D01*
X8257Y3918D01*
X8263Y3917D01*
Y3953D01*
D02*
G37*
G36*
X8309D02*
X8273D01*
Y3917D01*
X8279Y3918D01*
X8289Y3922D01*
X8297Y3929D01*
X8304Y3937D01*
X8308Y3947D01*
X8309Y3953D01*
D02*
G37*
G36*
X8214Y4129D02*
X8209Y4128D01*
X8200Y4122D01*
X8195Y4114D01*
X8194Y4109D01*
X8214D01*
Y4129D01*
D02*
G37*
G36*
X8224Y4227D02*
Y4208D01*
X8243D01*
X8242Y4213D01*
X8237Y4221D01*
X8228Y4226D01*
X8224Y4227D01*
D02*
G37*
G36*
X7923Y4297D02*
X7913Y4295D01*
X7905Y4290D01*
X7900Y4281D01*
X7898Y4272D01*
X7900Y4262D01*
X7905Y4254D01*
X7913Y4248D01*
X7923Y4246D01*
X7933Y4248D01*
X7941Y4254D01*
X7947Y4262D01*
X7949Y4272D01*
X7947Y4281D01*
X7941Y4290D01*
X7933Y4295D01*
X7923Y4297D01*
D02*
G37*
G36*
X8342Y4217D02*
Y4198D01*
X8361D01*
X8360Y4203D01*
X8355Y4211D01*
X8346Y4216D01*
X8342Y4217D01*
D02*
G37*
G36*
X8214Y4227D02*
X8209Y4226D01*
X8200Y4221D01*
X8195Y4213D01*
X8194Y4208D01*
X8214D01*
Y4227D01*
D02*
G37*
G36*
Y4296D02*
X8194D01*
X8195Y4291D01*
X8200Y4283D01*
X8209Y4278D01*
X8214Y4277D01*
Y4296D01*
D02*
G37*
G36*
X8243D02*
X8224D01*
Y4277D01*
X8228Y4278D01*
X8237Y4283D01*
X8242Y4291D01*
X8243Y4296D01*
D02*
G37*
G36*
X4788Y4286D02*
X4769D01*
X4770Y4282D01*
X4775Y4273D01*
X4784Y4268D01*
X4788Y4267D01*
Y4286D01*
D02*
G37*
G36*
X4818D02*
X4798D01*
Y4267D01*
X4803Y4268D01*
X4811Y4273D01*
X4817Y4282D01*
X4818Y4286D01*
D02*
G37*
G36*
X8332Y4188D02*
X8312D01*
X8313Y4183D01*
X8319Y4175D01*
X8327Y4169D01*
X8332Y4168D01*
Y4188D01*
D02*
G37*
G36*
X8361D02*
X8342D01*
Y4168D01*
X8346Y4169D01*
X8355Y4175D01*
X8360Y4183D01*
X8361Y4188D01*
D02*
G37*
G36*
X8224Y4129D02*
Y4109D01*
X8243D01*
X8242Y4114D01*
X8237Y4122D01*
X8228Y4128D01*
X8224Y4129D01*
D02*
G37*
G36*
X2825Y5404D02*
X1683D01*
X1679Y5403D01*
X1676Y5401D01*
X1674Y5398D01*
X1673Y5394D01*
Y4134D01*
X1674Y4130D01*
X1676Y4127D01*
X1679Y4124D01*
X1683Y4124D01*
X2825D01*
X2829Y4124D01*
X2832Y4127D01*
X2834Y4130D01*
X2835Y4134D01*
Y5394D01*
X2834Y5398D01*
X2832Y5401D01*
X2829Y5403D01*
X2825Y5404D01*
D02*
G37*
G36*
X4420Y4273D02*
X4409Y4271D01*
X4399Y4267D01*
X4391Y4261D01*
X4385Y4252D01*
X4381Y4243D01*
X4379Y4232D01*
X4381Y4222D01*
X4385Y4212D01*
X4391Y4204D01*
X4399Y4197D01*
X4409Y4193D01*
X4420Y4192D01*
X4430Y4193D01*
X4440Y4197D01*
X4448Y4204D01*
X4455Y4212D01*
X4459Y4222D01*
X4460Y4232D01*
X4459Y4243D01*
X4455Y4252D01*
X4448Y4261D01*
X4440Y4267D01*
X4430Y4271D01*
X4420Y4273D01*
D02*
G37*
G36*
X8332Y4217D02*
X8327Y4216D01*
X8319Y4211D01*
X8313Y4203D01*
X8312Y4198D01*
X8332D01*
Y4217D01*
D02*
G37*
G36*
X8214Y4198D02*
X8194D01*
X8195Y4193D01*
X8200Y4185D01*
X8209Y4179D01*
X8214Y4178D01*
Y4198D01*
D02*
G37*
G36*
X8243D02*
X8224D01*
Y4178D01*
X8228Y4179D01*
X8237Y4185D01*
X8242Y4193D01*
X8243Y4198D01*
D02*
G37*
G36*
X8095Y4473D02*
X8091Y4472D01*
X8082Y4467D01*
X8077Y4459D01*
X8076Y4454D01*
X8095D01*
Y4473D01*
D02*
G37*
G36*
X8607Y4759D02*
X8588D01*
Y4739D01*
X8592Y4740D01*
X8601Y4746D01*
X8606Y4754D01*
X8607Y4759D01*
D02*
G37*
G36*
X3991Y4769D02*
X3972D01*
X3973Y4764D01*
X3978Y4756D01*
X3986Y4750D01*
X3991Y4749D01*
Y4769D01*
D02*
G37*
G36*
X8076Y4759D02*
X8056D01*
Y4739D01*
X8061Y4740D01*
X8069Y4746D01*
X8075Y4754D01*
X8076Y4759D01*
D02*
G37*
G36*
X8578D02*
X8558D01*
X8559Y4754D01*
X8565Y4746D01*
X8573Y4740D01*
X8578Y4739D01*
Y4759D01*
D02*
G37*
G36*
X9314Y4888D02*
X9301Y4887D01*
X9289Y4883D01*
X9278Y4877D01*
X9268Y4869D01*
X9260Y4859D01*
X9254Y4848D01*
X9250Y4836D01*
X9249Y4823D01*
X9250Y4810D01*
X9254Y4798D01*
X9260Y4787D01*
X9268Y4777D01*
X9278Y4769D01*
X9289Y4762D01*
X9301Y4759D01*
X9314Y4758D01*
X9327Y4759D01*
X9339Y4762D01*
X9350Y4769D01*
X9360Y4777D01*
X9368Y4787D01*
X9375Y4798D01*
X9378Y4810D01*
X9379Y4823D01*
X9378Y4836D01*
X9375Y4848D01*
X9368Y4859D01*
X9360Y4869D01*
X9350Y4877D01*
X9339Y4883D01*
X9327Y4887D01*
X9314Y4888D01*
D02*
G37*
G36*
X6511Y4788D02*
X6506Y4787D01*
X6498Y4782D01*
X6492Y4774D01*
X6491Y4769D01*
X6511D01*
Y4788D01*
D02*
G37*
G36*
X4021Y4769D02*
X4001D01*
Y4749D01*
X4006Y4750D01*
X4014Y4756D01*
X4020Y4764D01*
X4021Y4769D01*
D02*
G37*
G36*
X9114Y4888D02*
X9101Y4887D01*
X9089Y4883D01*
X9078Y4877D01*
X9068Y4869D01*
X9060Y4859D01*
X9054Y4848D01*
X9050Y4836D01*
X9049Y4823D01*
X9050Y4810D01*
X9054Y4798D01*
X9060Y4787D01*
X9068Y4777D01*
X9078Y4769D01*
X9089Y4762D01*
X9101Y4759D01*
X9114Y4758D01*
X9127Y4759D01*
X9139Y4762D01*
X9150Y4769D01*
X9160Y4777D01*
X9168Y4787D01*
X9175Y4798D01*
X9178Y4810D01*
X9179Y4823D01*
X9178Y4836D01*
X9175Y4848D01*
X9168Y4859D01*
X9160Y4869D01*
X9150Y4877D01*
X9139Y4883D01*
X9127Y4887D01*
X9114Y4888D01*
D02*
G37*
G36*
X3579Y4751D02*
Y4721D01*
X3609D01*
X3609Y4725D01*
X3605Y4734D01*
X3599Y4741D01*
X3592Y4747D01*
X3584Y4750D01*
X3579Y4751D01*
D02*
G37*
G36*
X5408Y4749D02*
X5404Y4748D01*
X5395Y4742D01*
X5390Y4734D01*
X5389Y4729D01*
X5408D01*
Y4749D01*
D02*
G37*
G36*
X5438Y4719D02*
X5418D01*
Y4700D01*
X5423Y4701D01*
X5431Y4706D01*
X5437Y4715D01*
X5438Y4719D01*
D02*
G37*
G36*
X3569Y4751D02*
X3565Y4750D01*
X3557Y4747D01*
X3549Y4741D01*
X3544Y4734D01*
X3540Y4725D01*
X3540Y4721D01*
X3569D01*
Y4751D01*
D02*
G37*
G36*
X6540Y4759D02*
X6521D01*
Y4739D01*
X6526Y4740D01*
X6534Y4746D01*
X6539Y4754D01*
X6540Y4759D01*
D02*
G37*
G36*
X8046D02*
X8027D01*
X8028Y4754D01*
X8033Y4746D01*
X8041Y4740D01*
X8046Y4739D01*
Y4759D01*
D02*
G37*
G36*
X5418Y4749D02*
Y4729D01*
X5438D01*
X5437Y4734D01*
X5431Y4742D01*
X5423Y4748D01*
X5418Y4749D01*
D02*
G37*
G36*
X6511Y4759D02*
X6491D01*
X6492Y4754D01*
X6498Y4746D01*
X6506Y4740D01*
X6511Y4739D01*
Y4759D01*
D02*
G37*
G36*
X6521Y4788D02*
Y4769D01*
X6540D01*
X6539Y4774D01*
X6534Y4782D01*
X6526Y4787D01*
X6521Y4788D01*
D02*
G37*
G36*
X4611Y4864D02*
Y4828D01*
X4647D01*
X4647Y4834D01*
X4643Y4844D01*
X4636Y4852D01*
X4627Y4859D01*
X4617Y4863D01*
X4611Y4864D01*
D02*
G37*
G36*
X3917Y4922D02*
X3907Y4921D01*
X3897Y4917D01*
X3889Y4910D01*
X3882Y4902D01*
X3878Y4892D01*
X3877Y4882D01*
X3878Y4871D01*
X3882Y4862D01*
X3889Y4853D01*
X3897Y4847D01*
X3907Y4843D01*
X3917Y4842D01*
X3928Y4843D01*
X3937Y4847D01*
X3946Y4853D01*
X3952Y4862D01*
X3956Y4871D01*
X3958Y4882D01*
X3956Y4892D01*
X3952Y4902D01*
X3946Y4910D01*
X3937Y4917D01*
X3928Y4921D01*
X3917Y4922D01*
D02*
G37*
G36*
X7638Y4928D02*
X7623Y4926D01*
X7609Y4920D01*
X7597Y4911D01*
X7588Y4899D01*
X7582Y4885D01*
X7580Y4870D01*
X7582Y4855D01*
X7588Y4841D01*
X7597Y4829D01*
X7609Y4820D01*
X7623Y4815D01*
X7638Y4813D01*
X7653Y4815D01*
X7667Y4820D01*
X7678Y4829D01*
X7688Y4841D01*
X7693Y4855D01*
X7695Y4870D01*
X7693Y4885D01*
X7688Y4899D01*
X7678Y4911D01*
X7667Y4920D01*
X7653Y4926D01*
X7638Y4928D01*
D02*
G37*
G36*
X4601Y4864D02*
X4595Y4863D01*
X4585Y4859D01*
X4577Y4852D01*
X4570Y4844D01*
X4566Y4834D01*
X4565Y4828D01*
X4601D01*
Y4864D01*
D02*
G37*
G36*
X4606Y4965D02*
X4595Y4963D01*
X4585Y4959D01*
X4577Y4952D01*
X4570Y4944D01*
X4566Y4934D01*
X4564Y4923D01*
X4566Y4912D01*
X4570Y4902D01*
X4577Y4893D01*
X4585Y4887D01*
X4595Y4882D01*
X4606Y4881D01*
X4617Y4882D01*
X4627Y4887D01*
X4636Y4893D01*
X4643Y4902D01*
X4647Y4912D01*
X4648Y4923D01*
X4647Y4934D01*
X4643Y4944D01*
X4636Y4952D01*
X4627Y4959D01*
X4617Y4963D01*
X4606Y4965D01*
D02*
G37*
G36*
X6713Y4947D02*
X6703Y4945D01*
X6695Y4939D01*
X6689Y4931D01*
X6687Y4921D01*
X6689Y4912D01*
X6695Y4903D01*
X6703Y4898D01*
X6713Y4896D01*
X6722Y4898D01*
X6731Y4903D01*
X6736Y4912D01*
X6738Y4921D01*
X6736Y4931D01*
X6731Y4939D01*
X6722Y4945D01*
X6713Y4947D01*
D02*
G37*
G36*
X8031Y4907D02*
X8022Y4905D01*
X8013Y4900D01*
X8008Y4892D01*
X8006Y4882D01*
X8008Y4872D01*
X8013Y4864D01*
X8022Y4858D01*
X8031Y4856D01*
X8041Y4858D01*
X8050Y4864D01*
X8055Y4872D01*
X8057Y4882D01*
X8055Y4892D01*
X8050Y4900D01*
X8041Y4905D01*
X8031Y4907D01*
D02*
G37*
G36*
X7854Y4907D02*
X7845Y4905D01*
X7836Y4900D01*
X7831Y4892D01*
X7829Y4882D01*
X7831Y4872D01*
X7836Y4864D01*
X7845Y4858D01*
X7854Y4856D01*
X7864Y4858D01*
X7872Y4864D01*
X7878Y4872D01*
X7880Y4882D01*
X7878Y4892D01*
X7872Y4900D01*
X7864Y4905D01*
X7854Y4907D01*
D02*
G37*
G36*
X8578Y4788D02*
X8573Y4787D01*
X8565Y4782D01*
X8559Y4774D01*
X8558Y4769D01*
X8578D01*
Y4788D01*
D02*
G37*
G36*
X8588D02*
Y4769D01*
X8607D01*
X8606Y4774D01*
X8601Y4782D01*
X8592Y4787D01*
X8588Y4788D01*
D02*
G37*
G36*
X8046D02*
X8041Y4787D01*
X8033Y4782D01*
X8028Y4774D01*
X8027Y4769D01*
X8046D01*
Y4788D01*
D02*
G37*
G36*
X8056D02*
Y4769D01*
X8076D01*
X8075Y4774D01*
X8069Y4782D01*
X8061Y4787D01*
X8056Y4788D01*
D02*
G37*
G36*
X4601Y4818D02*
X4565D01*
X4566Y4812D01*
X4570Y4802D01*
X4577Y4793D01*
X4585Y4787D01*
X4595Y4782D01*
X4601Y4782D01*
Y4818D01*
D02*
G37*
G36*
X4647D02*
X4611D01*
Y4782D01*
X4617Y4782D01*
X4627Y4787D01*
X4636Y4793D01*
X4643Y4802D01*
X4647Y4812D01*
X4647Y4818D01*
D02*
G37*
G36*
X3991Y4798D02*
X3986Y4797D01*
X3978Y4792D01*
X3973Y4783D01*
X3972Y4779D01*
X3991D01*
Y4798D01*
D02*
G37*
G36*
X4001D02*
Y4779D01*
X4021D01*
X4020Y4783D01*
X4014Y4792D01*
X4006Y4797D01*
X4001Y4798D01*
D02*
G37*
G36*
X8332Y4562D02*
X8327Y4561D01*
X8319Y4555D01*
X8313Y4547D01*
X8312Y4542D01*
X8332D01*
Y4562D01*
D02*
G37*
G36*
X8342D02*
Y4542D01*
X8361D01*
X8360Y4547D01*
X8355Y4555D01*
X8346Y4561D01*
X8342Y4562D01*
D02*
G37*
G36*
X8361Y4532D02*
X8342D01*
Y4513D01*
X8346Y4514D01*
X8355Y4519D01*
X8360Y4528D01*
X8361Y4532D01*
D02*
G37*
G36*
X7992Y4592D02*
X7982Y4590D01*
X7974Y4585D01*
X7969Y4577D01*
X7967Y4567D01*
X7969Y4557D01*
X7974Y4549D01*
X7982Y4543D01*
X7992Y4541D01*
X8002Y4543D01*
X8010Y4549D01*
X8016Y4557D01*
X8018Y4567D01*
X8016Y4577D01*
X8010Y4585D01*
X8002Y4590D01*
X7992Y4592D01*
D02*
G37*
G36*
X7047Y4632D02*
X7037Y4630D01*
X7029Y4624D01*
X7024Y4616D01*
X7022Y4606D01*
X7024Y4597D01*
X7029Y4588D01*
X7037Y4583D01*
X7047Y4581D01*
X7057Y4583D01*
X7065Y4588D01*
X7071Y4597D01*
X7073Y4606D01*
X7071Y4616D01*
X7065Y4624D01*
X7057Y4630D01*
X7047Y4632D01*
D02*
G37*
G36*
X6845Y4601D02*
X6826D01*
X6827Y4597D01*
X6832Y4588D01*
X6841Y4583D01*
X6845Y4582D01*
Y4601D01*
D02*
G37*
G36*
X8214Y4591D02*
X8194D01*
X8195Y4587D01*
X8200Y4578D01*
X8209Y4573D01*
X8214Y4572D01*
Y4591D01*
D02*
G37*
G36*
X8243D02*
X8224D01*
Y4572D01*
X8228Y4573D01*
X8237Y4578D01*
X8242Y4587D01*
X8243Y4591D01*
D02*
G37*
G36*
Y4493D02*
X8224D01*
Y4474D01*
X8228Y4474D01*
X8237Y4480D01*
X8242Y4488D01*
X8243Y4493D01*
D02*
G37*
G36*
X3474Y4551D02*
X3465Y4550D01*
X3457Y4547D01*
X3449Y4541D01*
X3444Y4534D01*
X3440Y4525D01*
X3439Y4516D01*
X3440Y4507D01*
X3444Y4498D01*
X3449Y4491D01*
X3457Y4486D01*
X3465Y4482D01*
X3474Y4481D01*
X3484Y4482D01*
X3492Y4486D01*
X3499Y4491D01*
X3505Y4498D01*
X3509Y4507D01*
X3510Y4516D01*
X3509Y4525D01*
X3505Y4534D01*
X3499Y4541D01*
X3492Y4547D01*
X3484Y4550D01*
X3474Y4551D01*
D02*
G37*
G36*
X8105Y4473D02*
Y4454D01*
X8125D01*
X8124Y4459D01*
X8118Y4467D01*
X8110Y4472D01*
X8105Y4473D01*
D02*
G37*
G36*
X8214Y4493D02*
X8194D01*
X8195Y4488D01*
X8200Y4480D01*
X8209Y4474D01*
X8214Y4474D01*
Y4493D01*
D02*
G37*
G36*
X8224Y4523D02*
Y4503D01*
X8243D01*
X8242Y4508D01*
X8237Y4516D01*
X8228Y4522D01*
X8224Y4523D01*
D02*
G37*
G36*
X8332Y4532D02*
X8312D01*
X8313Y4528D01*
X8319Y4519D01*
X8327Y4514D01*
X8332Y4513D01*
Y4532D01*
D02*
G37*
G36*
X7923Y4533D02*
X7913Y4531D01*
X7905Y4526D01*
X7900Y4518D01*
X7898Y4508D01*
X7900Y4498D01*
X7905Y4490D01*
X7913Y4484D01*
X7923Y4482D01*
X7933Y4484D01*
X7941Y4490D01*
X7947Y4498D01*
X7949Y4508D01*
X7947Y4518D01*
X7941Y4526D01*
X7933Y4531D01*
X7923Y4533D01*
D02*
G37*
G36*
X8214Y4523D02*
X8209Y4522D01*
X8200Y4516D01*
X8195Y4508D01*
X8194Y4503D01*
X8214D01*
Y4523D01*
D02*
G37*
G36*
X6875Y4601D02*
X6855D01*
Y4582D01*
X6860Y4583D01*
X6868Y4588D01*
X6874Y4597D01*
X6875Y4601D01*
D02*
G37*
G36*
X3569Y4711D02*
X3540D01*
X3540Y4707D01*
X3544Y4698D01*
X3549Y4691D01*
X3557Y4686D01*
X3565Y4682D01*
X3569Y4681D01*
Y4711D01*
D02*
G37*
G36*
X3609D02*
X3579D01*
Y4681D01*
X3584Y4682D01*
X3592Y4686D01*
X3599Y4691D01*
X3605Y4698D01*
X3609Y4707D01*
X3609Y4711D01*
D02*
G37*
G36*
X2972Y4853D02*
X2955Y4851D01*
X2938Y4846D01*
X2923Y4838D01*
X2909Y4827D01*
X2898Y4813D01*
X2890Y4798D01*
X2885Y4781D01*
X2883Y4764D01*
X2885Y4746D01*
X2890Y4730D01*
X2898Y4714D01*
X2909Y4701D01*
X2923Y4690D01*
X2938Y4681D01*
X2955Y4676D01*
X2972Y4675D01*
X2990Y4676D01*
X3007Y4681D01*
X3022Y4690D01*
X3035Y4701D01*
X3047Y4714D01*
X3055Y4730D01*
X3060Y4746D01*
X3062Y4764D01*
X3060Y4781D01*
X3055Y4798D01*
X3047Y4813D01*
X3035Y4827D01*
X3022Y4838D01*
X3007Y4846D01*
X2990Y4851D01*
X2972Y4853D01*
D02*
G37*
G36*
X3374Y4751D02*
X3365Y4750D01*
X3357Y4747D01*
X3349Y4741D01*
X3344Y4734D01*
X3340Y4725D01*
X3339Y4716D01*
X3340Y4707D01*
X3344Y4698D01*
X3349Y4691D01*
X3357Y4686D01*
X3365Y4682D01*
X3374Y4681D01*
X3384Y4682D01*
X3392Y4686D01*
X3399Y4691D01*
X3405Y4698D01*
X3409Y4707D01*
X3410Y4716D01*
X3409Y4725D01*
X3405Y4734D01*
X3399Y4741D01*
X3392Y4747D01*
X3384Y4750D01*
X3374Y4751D01*
D02*
G37*
G36*
X5177Y4750D02*
X5167Y4748D01*
X5159Y4742D01*
X5154Y4734D01*
X5152Y4724D01*
X5154Y4715D01*
X5159Y4706D01*
X5167Y4701D01*
X5177Y4699D01*
X5187Y4701D01*
X5195Y4706D01*
X5201Y4715D01*
X5203Y4724D01*
X5201Y4734D01*
X5195Y4742D01*
X5187Y4748D01*
X5177Y4750D01*
D02*
G37*
G36*
X5408Y4719D02*
X5389D01*
X5390Y4715D01*
X5395Y4706D01*
X5404Y4701D01*
X5408Y4700D01*
Y4719D01*
D02*
G37*
G36*
X7790Y4710D02*
X7786Y4709D01*
X7777Y4703D01*
X7772Y4695D01*
X7771Y4690D01*
X7790D01*
Y4710D01*
D02*
G37*
G36*
X7800D02*
Y4690D01*
X7820D01*
X7819Y4695D01*
X7813Y4703D01*
X7805Y4709D01*
X7800Y4710D01*
D02*
G37*
G36*
X4055Y4661D02*
X4045Y4659D01*
X4037Y4654D01*
X4032Y4646D01*
X4030Y4636D01*
X4032Y4626D01*
X4037Y4618D01*
X4045Y4612D01*
X4055Y4610D01*
X4065Y4612D01*
X4073Y4618D01*
X4079Y4626D01*
X4081Y4636D01*
X4079Y4646D01*
X4073Y4654D01*
X4065Y4659D01*
X4055Y4661D01*
D02*
G37*
G36*
X6845Y4631D02*
X6841Y4630D01*
X6832Y4624D01*
X6827Y4616D01*
X6826Y4611D01*
X6845D01*
Y4631D01*
D02*
G37*
G36*
X8214Y4621D02*
X8209Y4620D01*
X8200Y4614D01*
X8195Y4606D01*
X8194Y4601D01*
X8214D01*
Y4621D01*
D02*
G37*
G36*
X8224D02*
Y4601D01*
X8243D01*
X8242Y4606D01*
X8237Y4614D01*
X8228Y4620D01*
X8224Y4621D01*
D02*
G37*
G36*
X7820Y4680D02*
X7800D01*
Y4661D01*
X7805Y4661D01*
X7813Y4667D01*
X7819Y4675D01*
X7820Y4680D01*
D02*
G37*
G36*
X1535Y4853D02*
X1518Y4851D01*
X1501Y4846D01*
X1486Y4838D01*
X1472Y4827D01*
X1461Y4813D01*
X1453Y4798D01*
X1448Y4781D01*
X1446Y4764D01*
X1448Y4746D01*
X1453Y4730D01*
X1461Y4714D01*
X1472Y4701D01*
X1486Y4690D01*
X1501Y4681D01*
X1518Y4676D01*
X1535Y4675D01*
X1553Y4676D01*
X1570Y4681D01*
X1585Y4690D01*
X1598Y4701D01*
X1610Y4714D01*
X1618Y4730D01*
X1623Y4746D01*
X1625Y4764D01*
X1623Y4781D01*
X1618Y4798D01*
X1610Y4813D01*
X1598Y4827D01*
X1585Y4838D01*
X1570Y4846D01*
X1553Y4851D01*
X1535Y4853D01*
D02*
G37*
G36*
X6855Y4631D02*
Y4611D01*
X6875D01*
X6874Y4616D01*
X6868Y4624D01*
X6860Y4630D01*
X6855Y4631D01*
D02*
G37*
G36*
X7790Y4680D02*
X7771D01*
X7772Y4675D01*
X7777Y4667D01*
X7786Y4661D01*
X7790Y4661D01*
Y4680D01*
D02*
G37*
%LPD*%
D48*
X1683Y4134D02*
X2825D01*
Y5394D01*
X1683D02*
X2825D01*
X1683Y4134D02*
Y5394D01*
X1378Y1575D02*
X9646D01*
Y5512D01*
X1378D02*
X9646D01*
X1378Y1575D02*
Y5512D01*
D49*
X10323Y1973D02*
X10306Y1990D01*
X10273D01*
X10256Y1973D01*
Y1956D01*
X10273Y1940D01*
X10306D01*
X10323Y1923D01*
Y1906D01*
X10306Y1890D01*
X10273D01*
X10256Y1906D01*
X10356Y1990D02*
X10390D01*
X10373D01*
Y1890D01*
X10356D01*
X10390D01*
X10506Y1973D02*
X10489Y1990D01*
X10456D01*
X10439Y1973D01*
Y1906D01*
X10456Y1890D01*
X10489D01*
X10506Y1906D01*
Y1940D01*
X10473D01*
X10539Y1890D02*
Y1990D01*
X10606Y1890D01*
Y1990D01*
X10639Y1890D02*
Y1956D01*
X10673Y1990D01*
X10706Y1956D01*
Y1890D01*
Y1940D01*
X10639D01*
X10739Y1990D02*
Y1890D01*
X10806D01*
X10939Y1990D02*
Y1890D01*
X11006D01*
X11039D02*
Y1956D01*
X11073Y1990D01*
X11106Y1956D01*
Y1890D01*
Y1940D01*
X11039D01*
X11139Y1990D02*
Y1973D01*
X11173Y1940D01*
X11206Y1973D01*
Y1990D01*
X11173Y1940D02*
Y1890D01*
X11306Y1990D02*
X11239D01*
Y1890D01*
X11306D01*
X11239Y1940D02*
X11273D01*
X11339Y1890D02*
Y1990D01*
X11389D01*
X11406Y1973D01*
Y1940D01*
X11389Y1923D01*
X11339D01*
X11373D02*
X11406Y1890D01*
X11539D02*
X11572D01*
X11556D01*
Y1990D01*
X11539Y1973D01*
X10256Y1675D02*
Y1575D01*
X10306D01*
X10323Y1591D01*
Y1608D01*
X10306Y1625D01*
X10256D01*
X10306D01*
X10323Y1641D01*
Y1658D01*
X10306Y1675D01*
X10256D01*
X10406D02*
X10373D01*
X10356Y1658D01*
Y1591D01*
X10373Y1575D01*
X10406D01*
X10423Y1591D01*
Y1658D01*
X10406Y1675D01*
X10456Y1575D02*
Y1641D01*
X10489Y1675D01*
X10523Y1641D01*
Y1575D01*
Y1625D01*
X10456D01*
X10556Y1575D02*
Y1675D01*
X10606D01*
X10623Y1658D01*
Y1625D01*
X10606Y1608D01*
X10556D01*
X10589D02*
X10623Y1575D01*
X10656Y1675D02*
Y1575D01*
X10706D01*
X10723Y1591D01*
Y1658D01*
X10706Y1675D01*
X10656D01*
X10906D02*
X10873D01*
X10856Y1658D01*
Y1591D01*
X10873Y1575D01*
X10906D01*
X10923Y1591D01*
Y1658D01*
X10906Y1675D01*
X10956D02*
Y1591D01*
X10973Y1575D01*
X11006D01*
X11023Y1591D01*
Y1675D01*
X11056D02*
X11123D01*
X11089D01*
Y1575D01*
X11156Y1675D02*
Y1575D01*
X11223D01*
X11256Y1675D02*
X11289D01*
X11273D01*
Y1575D01*
X11256D01*
X11289D01*
X11339D02*
Y1675D01*
X11406Y1575D01*
Y1675D01*
X11506D02*
X11439D01*
Y1575D01*
X11506D01*
X11439Y1625D02*
X11472D01*
D54*
X7638Y4980D02*
D03*
D56*
X8268Y3958D02*
D03*
X4606Y4823D02*
D03*
D59*
X3154Y3917D02*
D03*
D61*
X6712Y5254D02*
D03*
Y5354D02*
D03*
X5812Y5254D02*
D03*
Y5354D02*
D03*
X4912Y5254D02*
D03*
Y5354D02*
D03*
X4012Y5254D02*
D03*
Y5354D02*
D03*
D63*
X6843Y1772D02*
D03*
X6543D02*
D03*
D66*
X9508Y5374D02*
D03*
Y1713D02*
D03*
X1516D02*
D03*
Y5374D02*
D03*
D67*
X5098Y2933D02*
D03*
D70*
X3574Y4716D02*
D03*
D71*
X9314Y2898D02*
D03*
X9114D02*
D03*
X9214Y2598D02*
D03*
D72*
X5827Y2520D02*
D03*
X5413Y4724D02*
D03*
X3839Y5000D02*
D03*
X8337Y4193D02*
D03*
Y4537D02*
D03*
X8100Y4449D02*
D03*
X8593Y5059D02*
D03*
X8219Y4596D02*
D03*
Y4498D02*
D03*
Y4400D02*
D03*
Y4301D02*
D03*
Y4203D02*
D03*
X8583Y4764D02*
D03*
X8051Y3504D02*
D03*
Y4764D02*
D03*
X7795Y4980D02*
D03*
Y4685D02*
D03*
X5541Y1634D02*
D03*
X6201Y1673D02*
D03*
X6299Y2067D02*
D03*
X5974Y2165D02*
D03*
X5679D02*
D03*
X7717Y3858D02*
D03*
X5787Y3907D02*
D03*
X4872Y4045D02*
D03*
X5197Y3819D02*
D03*
X4921Y3199D02*
D03*
X4793Y4291D02*
D03*
X4262Y4321D02*
D03*
X3720Y4380D02*
D03*
X3996Y4774D02*
D03*
X3642Y5049D02*
D03*
X3130Y5030D02*
D03*
X8219Y4104D02*
D03*
X5689Y3386D02*
D03*
X7185Y5128D02*
D03*
X6526Y3789D02*
D03*
X7224Y3799D02*
D03*
X6752Y3219D02*
D03*
X6801Y3445D02*
D03*
X6447Y3406D02*
D03*
X7244Y3022D02*
D03*
X7470Y2234D02*
D03*
X7825Y1998D02*
D03*
X4744Y3533D02*
D03*
X7402Y1900D02*
D03*
X6673Y2933D02*
D03*
X7815Y2589D02*
D03*
X8140Y2667D02*
D03*
X7982Y2746D02*
D03*
X7854Y3228D02*
D03*
X8386Y2589D02*
D03*
X8711Y2667D02*
D03*
X8553Y2746D02*
D03*
X8671Y3061D02*
D03*
X8425Y3228D02*
D03*
X8110Y3061D02*
D03*
X6850Y4606D02*
D03*
X6378Y5020D02*
D03*
X6791D02*
D03*
X4902Y2126D02*
D03*
X6526Y4409D02*
D03*
X6781Y3642D02*
D03*
X6516Y4764D02*
D03*
X4803Y2953D02*
D03*
X5295D02*
D03*
X6831Y4350D02*
D03*
X7244Y4311D02*
D03*
X6654Y3061D02*
D03*
X6171Y3878D02*
D03*
X4154Y1772D02*
D03*
Y1654D02*
D03*
M02*
