G04*
G04 #@! TF.GenerationSoftware,Altium Limited,CircuitStudio,1.5.1 (1.5.1.13)*
G04*
G04 Layer_Color=128*
%FSLAX23Y23*%
%MOIN*%
G70*
G01*
G75*
%ADD48C,0.010*%
%ADD49C,0.020*%
%ADD76C,0.005*%
D48*
X1683Y4134D02*
X2825D01*
Y5394D01*
X1683D02*
X2825D01*
X1683Y4134D02*
Y5394D01*
X1378Y1575D02*
X9646D01*
Y5512D01*
X1378D02*
X9646D01*
X1378Y1575D02*
Y5512D01*
D49*
X10256Y1675D02*
Y1575D01*
X10306D01*
X10323Y1591D01*
Y1608D01*
X10306Y1625D01*
X10256D01*
X10306D01*
X10323Y1641D01*
Y1658D01*
X10306Y1675D01*
X10256D01*
X10406D02*
X10373D01*
X10356Y1658D01*
Y1591D01*
X10373Y1575D01*
X10406D01*
X10423Y1591D01*
Y1658D01*
X10406Y1675D01*
X10456Y1575D02*
Y1641D01*
X10489Y1675D01*
X10523Y1641D01*
Y1575D01*
Y1625D01*
X10456D01*
X10556Y1575D02*
Y1675D01*
X10606D01*
X10623Y1658D01*
Y1625D01*
X10606Y1608D01*
X10556D01*
X10589D02*
X10623Y1575D01*
X10656Y1675D02*
Y1575D01*
X10706D01*
X10723Y1591D01*
Y1658D01*
X10706Y1675D01*
X10656D01*
X10906D02*
X10873D01*
X10856Y1658D01*
Y1591D01*
X10873Y1575D01*
X10906D01*
X10923Y1591D01*
Y1658D01*
X10906Y1675D01*
X10956D02*
Y1591D01*
X10973Y1575D01*
X11006D01*
X11023Y1591D01*
Y1675D01*
X11056D02*
X11123D01*
X11089D01*
Y1575D01*
X11156Y1675D02*
Y1575D01*
X11223D01*
X11256Y1675D02*
X11289D01*
X11273D01*
Y1575D01*
X11256D01*
X11289D01*
X11339D02*
Y1675D01*
X11406Y1575D01*
Y1675D01*
X11506D02*
X11439D01*
Y1575D01*
X11506D01*
X11439Y1625D02*
X11472D01*
D76*
X4518Y5305D02*
X4538D01*
X4528Y5295D02*
Y5315D01*
X7606Y4870D02*
X7669D01*
X7638Y4839D02*
Y4901D01*
X7606Y5327D02*
X7669D01*
X7638Y5295D02*
Y5358D01*
X7618Y4980D02*
X7658D01*
X7638Y4960D02*
Y5000D01*
X7618Y5098D02*
X7658D01*
X7638Y5079D02*
Y5118D01*
X7618Y5217D02*
X7658D01*
X7638Y5197D02*
Y5236D01*
X9203Y5335D02*
X9223D01*
X9213Y5325D02*
Y5345D01*
X8250Y3958D02*
X8285D01*
X8268Y3941D02*
Y3976D01*
X8250Y3858D02*
X8285D01*
X8268Y3841D02*
Y3876D01*
X8368Y3858D02*
X8404D01*
X8386Y3841D02*
Y3876D01*
X8468Y3858D02*
X8504D01*
X8486Y3841D02*
Y3876D01*
X7581Y3878D02*
X7616D01*
X7598Y3860D02*
Y3896D01*
X7481Y3878D02*
X7516D01*
X7498Y3860D02*
Y3896D01*
X8033Y2559D02*
X8069D01*
X8051Y2541D02*
Y2577D01*
X7933Y2559D02*
X7969D01*
X7951Y2541D02*
Y2577D01*
X7872Y2165D02*
X7955D01*
X7913Y2124D02*
Y2207D01*
X7872Y1732D02*
X7955D01*
X7913Y1691D02*
Y1774D01*
X8326Y2146D02*
X8366D01*
X8346Y2126D02*
Y2166D01*
X8326Y2067D02*
X8366D01*
X8346Y2047D02*
Y2087D01*
X8326Y1988D02*
X8366D01*
X8346Y1968D02*
Y2008D01*
X8326Y1909D02*
X8366D01*
X8346Y1889D02*
Y1929D01*
X8326Y1831D02*
X8366D01*
X8346Y1811D02*
Y1851D01*
X8326Y1752D02*
X8366D01*
X8346Y1732D02*
Y1772D01*
X7032Y2413D02*
X7062D01*
X7047Y2398D02*
Y2428D01*
X7032Y2513D02*
X7062D01*
X7047Y2498D02*
Y2528D01*
X7032Y2913D02*
X7062D01*
X7047Y2898D02*
Y2928D01*
X7032Y3013D02*
X7062D01*
X7047Y2998D02*
Y3028D01*
X6732Y3013D02*
X6762D01*
X6747Y2998D02*
Y3028D01*
X6732Y2913D02*
X6762D01*
X6747Y2898D02*
Y2928D01*
X6732Y2513D02*
X6762D01*
X6747Y2498D02*
Y2528D01*
X6732Y2413D02*
X6762D01*
X6747Y2398D02*
Y2428D01*
X6486Y3780D02*
X6506D01*
X6496Y3770D02*
Y3790D01*
X6496Y5256D02*
X6516D01*
X6506Y5246D02*
Y5266D01*
X6592Y5254D02*
X6632D01*
X6612Y5233D02*
Y5274D01*
X6592Y5354D02*
X6632D01*
X6612Y5333D02*
Y5374D01*
X6692Y5254D02*
X6732D01*
X6712Y5233D02*
Y5274D01*
X6692Y5354D02*
X6732D01*
X6712Y5333D02*
Y5374D01*
X6792Y5254D02*
X6832D01*
X6812Y5233D02*
Y5274D01*
X6792Y5354D02*
X6832D01*
X6812Y5333D02*
Y5374D01*
X6892Y5254D02*
X6932D01*
X6912Y5233D02*
Y5274D01*
X6892Y5354D02*
X6932D01*
X6912Y5333D02*
Y5374D01*
X6992Y5254D02*
X7032D01*
X7012Y5233D02*
Y5274D01*
X6992Y5354D02*
X7032D01*
X7012Y5333D02*
Y5374D01*
X7092Y5254D02*
X7132D01*
X7112Y5233D02*
Y5274D01*
X7092Y5354D02*
X7132D01*
X7112Y5333D02*
Y5374D01*
X6496Y5354D02*
X6516D01*
X6506Y5344D02*
Y5364D01*
X5692Y5254D02*
X5732D01*
X5712Y5233D02*
Y5274D01*
X5692Y5354D02*
X5732D01*
X5712Y5333D02*
Y5374D01*
X5792Y5254D02*
X5832D01*
X5812Y5233D02*
Y5274D01*
X5792Y5354D02*
X5832D01*
X5812Y5333D02*
Y5374D01*
X5892Y5254D02*
X5932D01*
X5912Y5233D02*
Y5274D01*
X5892Y5354D02*
X5932D01*
X5912Y5333D02*
Y5374D01*
X5992Y5254D02*
X6032D01*
X6012Y5233D02*
Y5274D01*
X5992Y5354D02*
X6032D01*
X6012Y5333D02*
Y5374D01*
X6092Y5254D02*
X6132D01*
X6112Y5233D02*
Y5274D01*
X6092Y5354D02*
X6132D01*
X6112Y5333D02*
Y5374D01*
X6192Y5254D02*
X6232D01*
X6212Y5233D02*
Y5274D01*
X6192Y5354D02*
X6232D01*
X6212Y5333D02*
Y5374D01*
X4792Y5254D02*
X4832D01*
X4812Y5233D02*
Y5274D01*
X4792Y5354D02*
X4832D01*
X4812Y5333D02*
Y5374D01*
X4892Y5254D02*
X4932D01*
X4912Y5233D02*
Y5274D01*
X4892Y5354D02*
X4932D01*
X4912Y5333D02*
Y5374D01*
X4992Y5254D02*
X5032D01*
X5012Y5233D02*
Y5274D01*
X4992Y5354D02*
X5032D01*
X5012Y5333D02*
Y5374D01*
X5092Y5254D02*
X5132D01*
X5112Y5233D02*
Y5274D01*
X5092Y5354D02*
X5132D01*
X5112Y5333D02*
Y5374D01*
X5192Y5254D02*
X5232D01*
X5212Y5233D02*
Y5274D01*
X5192Y5354D02*
X5232D01*
X5212Y5333D02*
Y5374D01*
X5292Y5254D02*
X5332D01*
X5312Y5233D02*
Y5274D01*
X5292Y5354D02*
X5332D01*
X5312Y5333D02*
Y5374D01*
X3892Y5254D02*
X3932D01*
X3912Y5233D02*
Y5274D01*
X3892Y5354D02*
X3932D01*
X3912Y5333D02*
Y5374D01*
X3992Y5254D02*
X4032D01*
X4012Y5233D02*
Y5274D01*
X3992Y5354D02*
X4032D01*
X4012Y5333D02*
Y5374D01*
X4092Y5254D02*
X4132D01*
X4112Y5233D02*
Y5274D01*
X4092Y5354D02*
X4132D01*
X4112Y5333D02*
Y5374D01*
X4192Y5254D02*
X4232D01*
X4212Y5233D02*
Y5274D01*
X4192Y5354D02*
X4232D01*
X4212Y5333D02*
Y5374D01*
X4292Y5254D02*
X4332D01*
X4312Y5233D02*
Y5274D01*
X4292Y5354D02*
X4332D01*
X4312Y5333D02*
Y5374D01*
X4392Y5254D02*
X4432D01*
X4412Y5233D02*
Y5274D01*
X4392Y5354D02*
X4432D01*
X4412Y5333D02*
Y5374D01*
X3547Y5256D02*
X3582D01*
X3565Y5238D02*
Y5274D01*
X3447Y5256D02*
X3482D01*
X3465Y5238D02*
Y5274D01*
X3450Y4518D02*
X3480D01*
X3465Y4503D02*
Y4533D01*
X3350Y4718D02*
X3380D01*
X3365Y4703D02*
Y4733D01*
X3550Y4718D02*
X3580D01*
X3565Y4703D02*
Y4733D01*
X4104Y4478D02*
X4124D01*
X4114Y4468D02*
Y4488D01*
X4589Y4923D02*
X4624D01*
X4606Y4905D02*
Y4941D01*
X4589Y5023D02*
X4624D01*
X4606Y5005D02*
Y5041D01*
X4589Y4823D02*
X4624D01*
X4606Y4805D02*
Y4841D01*
X5374Y3789D02*
X5394D01*
X5384Y3779D02*
Y3799D01*
X5374Y3691D02*
X5394D01*
X5384Y3681D02*
Y3701D01*
X5374Y3593D02*
X5394D01*
X5384Y3583D02*
Y3603D01*
X6807Y1772D02*
X6878D01*
X6843Y1736D02*
Y1807D01*
X6508Y1772D02*
X6579D01*
X6543Y1736D02*
Y1807D01*
X6675Y2079D02*
X6711D01*
X6693Y2061D02*
Y2097D01*
X2537Y3917D02*
X2572D01*
X2554Y3900D02*
Y3935D01*
X2637Y3917D02*
X2672D01*
X2654Y3900D02*
Y3935D01*
X2737Y3917D02*
X2772D01*
X2754Y3900D02*
Y3935D01*
X2837Y3917D02*
X2872D01*
X2854Y3900D02*
Y3935D01*
X2937Y3917D02*
X2972D01*
X2954Y3900D02*
Y3935D01*
X3037Y3917D02*
X3072D01*
X3054Y3900D02*
Y3935D01*
X3137Y3917D02*
X3172D01*
X3154Y3900D02*
Y3935D01*
X1469Y3892D02*
X1589D01*
X1529Y3832D02*
Y3952D01*
X1469Y2334D02*
X1589D01*
X1529Y2274D02*
Y2394D01*
X4111Y3892D02*
X4231D01*
X4171Y3832D02*
Y3952D01*
X4111Y2334D02*
X4231D01*
X4171Y2274D02*
Y2394D01*
X9179Y5123D02*
X9249D01*
X9214Y5088D02*
Y5158D01*
X9279Y4823D02*
X9349D01*
X9314Y4788D02*
Y4858D01*
X9079Y4823D02*
X9149D01*
X9114Y4788D02*
Y4858D01*
X9279Y3048D02*
X9349D01*
X9314Y3013D02*
Y3083D01*
X9079Y3048D02*
X9149D01*
X9114Y3013D02*
Y3083D01*
X9179Y2748D02*
X9249D01*
X9214Y2713D02*
Y2783D01*
X9443Y5374D02*
X9573D01*
X9508Y5309D02*
Y5439D01*
X9443Y1713D02*
X9573D01*
X9508Y1648D02*
Y1778D01*
X1451Y1713D02*
X1581D01*
X1516Y1648D02*
Y1778D01*
X1451Y5374D02*
X1581D01*
X1516Y5309D02*
Y5439D01*
X2907Y4764D02*
X3037D01*
X2972Y4699D02*
Y4829D01*
X1470Y4764D02*
X1600D01*
X1535Y4699D02*
Y4829D01*
X8555Y1713D02*
X8570D01*
X8563Y1705D02*
Y1720D01*
X6735Y4134D02*
X6750D01*
X6742Y4126D02*
Y4141D01*
X6479Y4134D02*
X6494D01*
X6486Y4126D02*
Y4141D01*
X6617Y4556D02*
X6632D01*
X6624Y4549D02*
Y4564D01*
X6744Y2185D02*
X6759D01*
X6752Y2178D02*
Y2193D01*
X5524Y2520D02*
X5539D01*
X5532Y2512D02*
Y2527D01*
X5819Y2520D02*
X5834D01*
X5827Y2512D02*
Y2527D01*
X5721Y2520D02*
X5736D01*
X5728Y2512D02*
Y2527D01*
X5406Y4724D02*
X5421D01*
X5413Y4717D02*
Y4732D01*
X3831Y5000D02*
X3846D01*
X3839Y4992D02*
Y5007D01*
X6410Y3504D02*
X6425D01*
X6417Y3496D02*
Y3511D01*
X6410Y3602D02*
X6425D01*
X6417Y3595D02*
Y3610D01*
X7739Y2864D02*
X7754D01*
X7746Y2857D02*
Y2872D01*
X7749Y2973D02*
X7764D01*
X7756Y2965D02*
Y2980D01*
X8103Y2717D02*
X8118D01*
X8110Y2709D02*
Y2724D01*
X8753Y4902D02*
X8768D01*
X8760Y4894D02*
Y4909D01*
X8329Y4193D02*
X8344D01*
X8337Y4185D02*
Y4200D01*
X8329Y4537D02*
X8344D01*
X8337Y4530D02*
Y4545D01*
X8093Y4449D02*
X8108D01*
X8100Y4441D02*
Y4456D01*
X7916Y4360D02*
X7931D01*
X7923Y4353D02*
Y4368D01*
X6882Y2077D02*
X6897D01*
X6890Y2069D02*
Y2084D01*
X8585Y5059D02*
X8600D01*
X8593Y5052D02*
Y5067D01*
X8211Y4596D02*
X8226D01*
X8219Y4589D02*
Y4604D01*
X8211Y4498D02*
X8226D01*
X8219Y4491D02*
Y4506D01*
X8211Y4400D02*
X8226D01*
X8219Y4392D02*
Y4407D01*
X8211Y4301D02*
X8226D01*
X8219Y4294D02*
Y4309D01*
X8211Y4203D02*
X8226D01*
X8219Y4195D02*
Y4210D01*
X7926Y3051D02*
X7941D01*
X7933Y3044D02*
Y3059D01*
X8408Y3346D02*
X8423D01*
X8415Y3339D02*
Y3354D01*
X8004Y3307D02*
X8019D01*
X8012Y3300D02*
Y3315D01*
X8575Y4764D02*
X8590D01*
X8583Y4756D02*
Y4771D01*
X8457Y3110D02*
X8472D01*
X8465Y3103D02*
Y3118D01*
X8044Y3504D02*
X8059D01*
X8051Y3496D02*
Y3511D01*
X8457Y2815D02*
X8472D01*
X8465Y2807D02*
Y2822D01*
X8044Y4764D02*
X8059D01*
X8051Y4756D02*
Y4771D01*
X8437Y5157D02*
X8452D01*
X8445Y5150D02*
Y5165D01*
X7847Y4882D02*
X7862D01*
X7854Y4874D02*
Y4889D01*
X8024Y4882D02*
X8039D01*
X8031Y4874D02*
Y4889D01*
X7788Y4980D02*
X7803D01*
X7795Y4973D02*
Y4988D01*
X7788Y4685D02*
X7803D01*
X7795Y4678D02*
Y4693D01*
X8605Y5394D02*
X8620D01*
X8612Y5386D02*
Y5401D01*
X7394Y5433D02*
X7409D01*
X7402Y5426D02*
Y5441D01*
X3772Y5266D02*
X3787D01*
X3780Y5258D02*
Y5273D01*
X5534Y1634D02*
X5549D01*
X5541Y1626D02*
Y1641D01*
X6193Y1673D02*
X6208D01*
X6201Y1666D02*
Y1681D01*
X6292Y2067D02*
X6307D01*
X6299Y2059D02*
Y2074D01*
X5967Y2165D02*
X5982D01*
X5974Y2158D02*
Y2173D01*
X5672Y2165D02*
X5687D01*
X5679Y2158D02*
Y2173D01*
X5681Y3583D02*
X5696D01*
X5689Y3575D02*
Y3590D01*
X7709Y3858D02*
X7724D01*
X7717Y3851D02*
Y3866D01*
X6971Y3878D02*
X6986D01*
X6979Y3870D02*
Y3885D01*
X6892Y3878D02*
X6907D01*
X6900Y3870D02*
Y3885D01*
X6685Y3583D02*
X6700D01*
X6693Y3575D02*
Y3590D01*
X7099Y3445D02*
X7114D01*
X7106Y3437D02*
Y3452D01*
X7237Y3012D02*
X7252D01*
X7244Y3004D02*
Y3019D01*
X7256Y2205D02*
X7271D01*
X7264Y2197D02*
Y2212D01*
X7374Y1870D02*
X7389D01*
X7382Y1863D02*
Y1878D01*
X7670Y1909D02*
X7685D01*
X7677Y1902D02*
Y1917D01*
X9008Y1850D02*
X9023D01*
X9016Y1843D02*
Y1858D01*
X8930Y2205D02*
X8945D01*
X8937Y2197D02*
Y2212D01*
X6557Y5000D02*
X6572D01*
X6565Y4992D02*
Y5007D01*
X6705Y4843D02*
X6720D01*
X6713Y4835D02*
Y4850D01*
X6557Y4665D02*
X6572D01*
X6565Y4658D02*
Y4673D01*
X6321Y4813D02*
X6336D01*
X6329Y4805D02*
Y4820D01*
X5780Y3907D02*
X5795D01*
X5787Y3900D02*
Y3915D01*
X4865Y4045D02*
X4880D01*
X4872Y4038D02*
Y4053D01*
X5189Y3819D02*
X5204D01*
X5197Y3811D02*
Y3826D01*
X4914Y3199D02*
X4929D01*
X4921Y3191D02*
Y3206D01*
X4737Y3533D02*
X4752D01*
X4744Y3526D02*
Y3541D01*
X4786Y4291D02*
X4801D01*
X4793Y4284D02*
Y4299D01*
X4254Y4321D02*
X4269D01*
X4262Y4313D02*
Y4328D01*
X3713Y4380D02*
X3728D01*
X3720Y4372D02*
Y4387D01*
X3989Y4774D02*
X4004D01*
X3996Y4766D02*
Y4781D01*
X3634Y5049D02*
X3649D01*
X3642Y5042D02*
Y5057D01*
X3122Y5030D02*
X3137D01*
X3130Y5022D02*
Y5037D01*
X1754Y1713D02*
X1769D01*
X1762Y1705D02*
Y1720D01*
X6626Y4843D02*
X6641D01*
X6634Y4835D02*
Y4850D01*
X6193Y1811D02*
X6208D01*
X6201Y1804D02*
Y1819D01*
X6115Y2520D02*
X6130D01*
X6122Y2512D02*
Y2527D01*
X5937Y2520D02*
X5952D01*
X5945Y2512D02*
Y2527D01*
X5868Y2333D02*
X5883D01*
X5876Y2325D02*
Y2340D01*
X5170Y4724D02*
X5185D01*
X5177Y4717D02*
Y4732D01*
X4687Y3504D02*
X4702D01*
X4695Y3496D02*
Y3511D01*
X5268Y3819D02*
X5283D01*
X5276Y3811D02*
Y3826D01*
X1725Y2047D02*
X1740D01*
X1732Y2040D02*
Y2055D01*
X2611Y2047D02*
X2626D01*
X2618Y2040D02*
Y2055D01*
X3536Y2047D02*
X3551D01*
X3543Y2040D02*
Y2055D01*
X4412Y2884D02*
X4427D01*
X4419Y2876D02*
Y2891D01*
X4412Y3898D02*
X4427D01*
X4419Y3890D02*
Y3905D01*
X4048Y4636D02*
X4063D01*
X4055Y4628D02*
Y4643D01*
X4638Y3642D02*
X4653D01*
X4646Y3634D02*
Y3649D01*
X4914Y3740D02*
X4929D01*
X4921Y3733D02*
Y3748D01*
X5760Y2579D02*
X5775D01*
X5768Y2571D02*
Y2586D01*
X6046Y2579D02*
X6061D01*
X6053Y2571D02*
Y2586D01*
X6292Y2687D02*
X6307D01*
X6299Y2680D02*
Y2695D01*
X6046Y2687D02*
X6061D01*
X6053Y2680D02*
Y2695D01*
X7611Y2077D02*
X7626D01*
X7618Y2069D02*
Y2084D01*
X8536Y2195D02*
X8551D01*
X8543Y2187D02*
Y2202D01*
X8772Y2047D02*
X8787D01*
X8780Y2040D02*
Y2055D01*
X7059Y3917D02*
X7074D01*
X7067Y3910D02*
Y3925D01*
X8870Y2559D02*
X8885D01*
X8878Y2552D02*
Y2567D01*
X8870Y1772D02*
X8885D01*
X8878Y1764D02*
Y1779D01*
X7473Y4970D02*
X7488D01*
X7480Y4963D02*
Y4978D01*
X6370Y5039D02*
X6385D01*
X6378Y5032D02*
Y5047D01*
X7916Y4272D02*
X7931D01*
X7923Y4264D02*
Y4279D01*
X7916Y4508D02*
X7931D01*
X7923Y4500D02*
Y4515D01*
X7985Y4567D02*
X8000D01*
X7992Y4559D02*
Y4574D01*
X7994Y4449D02*
X8009D01*
X8002Y4441D02*
Y4456D01*
X8014Y5030D02*
X8029D01*
X8022Y5022D02*
Y5037D01*
X8014Y5079D02*
X8029D01*
X8022Y5071D02*
Y5086D01*
X8014Y5128D02*
X8029D01*
X8022Y5120D02*
Y5135D01*
X8309Y3346D02*
X8324D01*
X8317Y3339D02*
Y3354D01*
X8605Y3228D02*
X8620D01*
X8612Y3221D02*
Y3236D01*
X8693Y3228D02*
X8708D01*
X8701Y3221D02*
Y3236D01*
X7807Y5039D02*
X7822D01*
X7815Y5032D02*
Y5047D01*
X8211Y4104D02*
X8226D01*
X8219Y4097D02*
Y4112D01*
M02*
