G04*
G04 #@! TF.GenerationSoftware,Altium Limited,CircuitStudio,1.5.1 (1.5.1.13)*
G04*
G04 Layer_Color=16770453*
%FSLAX23Y23*%
%MOIN*%
G70*
G01*
G75*
%ADD48C,0.010*%
%ADD49C,0.020*%
D48*
X1683Y4134D02*
X2825D01*
Y5394D01*
X1683D02*
X2825D01*
X1683Y4134D02*
Y5394D01*
X1378Y1575D02*
X9646D01*
Y5512D01*
X1378D02*
X9646D01*
X1378Y1575D02*
Y5512D01*
D49*
X10266Y2630D02*
Y2530D01*
X10316D01*
X10333Y2546D01*
Y2563D01*
X10316Y2580D01*
X10266D01*
X10316D01*
X10333Y2596D01*
Y2613D01*
X10316Y2630D01*
X10266D01*
X10416D02*
X10383D01*
X10366Y2613D01*
Y2546D01*
X10383Y2530D01*
X10416D01*
X10433Y2546D01*
Y2613D01*
X10416Y2630D01*
X10466D02*
X10533D01*
X10499D01*
Y2530D01*
X10566Y2630D02*
X10633D01*
X10599D01*
Y2530D01*
X10716Y2630D02*
X10683D01*
X10666Y2613D01*
Y2546D01*
X10683Y2530D01*
X10716D01*
X10733Y2546D01*
Y2613D01*
X10716Y2630D01*
X10766Y2530D02*
Y2630D01*
X10799Y2596D01*
X10833Y2630D01*
Y2530D01*
X10966D02*
Y2630D01*
X11016D01*
X11033Y2613D01*
Y2580D01*
X11016Y2563D01*
X10966D01*
X11066Y2530D02*
Y2630D01*
X11099Y2596D01*
X11133Y2630D01*
Y2530D01*
X10256Y1675D02*
Y1575D01*
X10306D01*
X10323Y1591D01*
Y1608D01*
X10306Y1625D01*
X10256D01*
X10306D01*
X10323Y1641D01*
Y1658D01*
X10306Y1675D01*
X10256D01*
X10406D02*
X10373D01*
X10356Y1658D01*
Y1591D01*
X10373Y1575D01*
X10406D01*
X10423Y1591D01*
Y1658D01*
X10406Y1675D01*
X10456Y1575D02*
Y1641D01*
X10489Y1675D01*
X10523Y1641D01*
Y1575D01*
Y1625D01*
X10456D01*
X10556Y1575D02*
Y1675D01*
X10606D01*
X10623Y1658D01*
Y1625D01*
X10606Y1608D01*
X10556D01*
X10589D02*
X10623Y1575D01*
X10656Y1675D02*
Y1575D01*
X10706D01*
X10723Y1591D01*
Y1658D01*
X10706Y1675D01*
X10656D01*
X10906D02*
X10873D01*
X10856Y1658D01*
Y1591D01*
X10873Y1575D01*
X10906D01*
X10923Y1591D01*
Y1658D01*
X10906Y1675D01*
X10956D02*
Y1591D01*
X10973Y1575D01*
X11006D01*
X11023Y1591D01*
Y1675D01*
X11056D02*
X11123D01*
X11089D01*
Y1575D01*
X11156Y1675D02*
Y1575D01*
X11223D01*
X11256Y1675D02*
X11289D01*
X11273D01*
Y1575D01*
X11256D01*
X11289D01*
X11339D02*
Y1675D01*
X11406Y1575D01*
Y1675D01*
X11506D02*
X11439D01*
Y1575D01*
X11506D01*
X11439Y1625D02*
X11472D01*
M02*
