M48
;Layer_Color=6321
;FILE_FORMAT=2:3
INCH,TZ
;TYPE=PLATED
T1F00S00C0.015
T2F00S00C0.030
T3F00S00C0.035
T4F00S00C0.036
T5F00S00C0.040
T6F00S00C0.047
T7F00S00C0.063
T8F00S00C0.070
T9F00S00C0.071
T11F00S00C0.130
;TYPE=NON_PLATED
T12F00S00C0.120
T13F00S00C0.130
%
T01
X7825Y1939
Y1998
X7815Y2589
X7982Y2746
X8140Y2667
X8386Y2589
X8553Y2746
X8711Y2667
X8671Y2982
Y3061
X8110
Y2982
X7500Y2884
X7244Y3022
X6654Y3061
X6535
X6673Y2933
X6299Y2687
Y2067
X7402Y2096
Y1900
X7677Y1939
Y1988
X7579Y2234
X7470
X5974Y2165
X5876Y2333
X5827Y2520
X5728Y2520
X5768Y2579
X5945Y2520
X6053Y2579
Y2687
X6122Y2520
X5531
X5679Y2165
X5197Y2116
X4902Y2126
X5049Y1772
X5325
X5541Y1634
X6201Y1673
Y1811
X5295Y2953
X4803
X4419Y2884
X4154Y1772
Y1654
X3543Y2047
X2618
X1732
X3720Y4380
X4055Y4636
X4262Y4321
X4419Y3898
X4675Y3671
X4637Y3514
X4744Y3533
X4695Y3376
X4921Y3199
X5148Y3150
X5187Y3494
Y3543
X5364Y3593
X5276Y3819
X5197
X4921Y3740
X4872Y4045
X4793Y4291
X5787Y3907
X6171Y3878
X5689Y3386
X6447Y3406
X6388Y3652
X6526Y3789
X6781Y3642
X6801Y3445
X6998
X7087Y3730
X7224Y3799
X7244Y4311
X6831Y4350
X6850Y4606
X7047
X6526Y4409
X6752Y3219
X7717Y3858
X7795Y4685
X7923Y4508
X7992Y4567
X8002Y4449
X8100
X8219Y4400
Y4498
Y4596
X8337Y4537
Y4193
X8219Y4203
Y4301
Y4104
X7923Y4272
Y4360
X8051Y3504
X7854Y3228
X8425
X8583Y4764
X8593Y5059
X8445Y5157
X8022Y5128
Y5079
Y5030
X8031Y4882
X8051Y4764
X7854Y4882
X7815Y5039
X7795Y4980
X7195Y4970
X7185Y5128
X6988
X6791Y5020
X6713Y4921
X6516Y4764
X6378Y5020
Y5128
X7402Y5433
X5413Y4724
X5177
X3996Y4774
X3839Y5000
X3642Y5049
X3780Y5266
X3130Y5030
T02
X6747Y2413
Y2513
X7047
Y2413
Y2913
Y3013
X6747
Y2913
X3474Y4516
X3574Y4716
X3374
T03
X7785Y2205
X5089Y2106
X5404Y3091
X4695
X3054Y3917
X2954
X2854
X2754
X2654
X2554
X3154
X4109Y4484
X4420Y4232
X7498Y3878
X7598
X7043Y3301
X8268Y3858
Y3958
X8386Y3858
X8486
X6254Y5118
X6407Y5354
X4606Y5023
Y4923
Y4823
X3917Y4882
X3565Y5256
X3465
T04
X6693Y2079
T05
X6612Y5254
Y5354
X6712
Y5254
X6812
Y5354
X6912
Y5254
X7012
Y5354
X7112
Y5254
X7638Y5217
Y5098
Y4980
X6212Y5254
X6112
X6012
X5912
X5812
X5712
Y5354
X5812
X5912
X6012
X6112
X6212
X5312
X5212
X5112
X5012
X4912
X4812
Y5254
X4912
X5012
X5112
X5212
X5312
X4412
X4312
X4212
X4112
X4012
X3912
Y5354
X4012
X4112
X4212
X4312
X4412
T06
X5000Y2362
X5197
Y2933
X5098
X5000
T07
X7638Y4870
Y5327
T08
X9214Y2598
X9314Y2898
X9114
Y4823
X9314
X9214Y5123
T09
X6543Y1772
X6843
T11
X9508Y1713
X1516
X9508Y5374
X1516
T12
X4171Y2334
X1529
Y3892
X4171
T13
X2972Y4764
X1535
M30
