G04*
G04 #@! TF.GenerationSoftware,Altium Limited,CircuitStudio,1.5.1 (13)*
G04*
G04 Layer_Physical_Order=1*
G04 Layer_Color=11767835*
%FSLAX23Y23*%
%MOIN*%
G70*
G01*
G75*
%ADD10R,0.073X0.136*%
%ADD11R,0.010X0.134*%
G04:AMPARAMS|DCode=12|XSize=10mil|YSize=26mil|CornerRadius=2mil|HoleSize=0mil|Usage=FLASHONLY|Rotation=0.000|XOffset=0mil|YOffset=0mil|HoleType=Round|Shape=RoundedRectangle|*
%AMROUNDEDRECTD12*
21,1,0.010,0.022,0,0,0.0*
21,1,0.006,0.026,0,0,0.0*
1,1,0.004,0.003,-0.011*
1,1,0.004,-0.003,-0.011*
1,1,0.004,-0.003,0.011*
1,1,0.004,0.003,0.011*
%
%ADD12ROUNDEDRECTD12*%
G04:AMPARAMS|DCode=13|XSize=10mil|YSize=24mil|CornerRadius=2mil|HoleSize=0mil|Usage=FLASHONLY|Rotation=0.000|XOffset=0mil|YOffset=0mil|HoleType=Round|Shape=RoundedRectangle|*
%AMROUNDEDRECTD13*
21,1,0.010,0.020,0,0,0.0*
21,1,0.006,0.024,0,0,0.0*
1,1,0.004,0.003,-0.010*
1,1,0.004,-0.003,-0.010*
1,1,0.004,-0.003,0.010*
1,1,0.004,0.003,0.010*
%
%ADD13ROUNDEDRECTD13*%
G04:AMPARAMS|DCode=14|XSize=24mil|YSize=10mil|CornerRadius=2mil|HoleSize=0mil|Usage=FLASHONLY|Rotation=0.000|XOffset=0mil|YOffset=0mil|HoleType=Round|Shape=RoundedRectangle|*
%AMROUNDEDRECTD14*
21,1,0.024,0.006,0,0,0.0*
21,1,0.020,0.010,0,0,0.0*
1,1,0.004,0.010,-0.003*
1,1,0.004,-0.010,-0.003*
1,1,0.004,-0.010,0.003*
1,1,0.004,0.010,0.003*
%
%ADD14ROUNDEDRECTD14*%
G04:AMPARAMS|DCode=15|XSize=10mil|YSize=134mil|CornerRadius=2mil|HoleSize=0mil|Usage=FLASHONLY|Rotation=0.000|XOffset=0mil|YOffset=0mil|HoleType=Round|Shape=RoundedRectangle|*
%AMROUNDEDRECTD15*
21,1,0.010,0.130,0,0,0.0*
21,1,0.006,0.134,0,0,0.0*
1,1,0.004,0.003,-0.065*
1,1,0.004,-0.003,-0.065*
1,1,0.004,-0.003,0.065*
1,1,0.004,0.003,0.065*
%
%ADD15ROUNDEDRECTD15*%
%ADD16R,0.047X0.050*%
%ADD17R,0.050X0.107*%
%ADD18R,0.047X0.150*%
%ADD19R,0.031X0.063*%
%ADD20R,0.050X0.047*%
%ADD21R,0.138X0.085*%
%ADD22R,0.043X0.085*%
%ADD23R,0.043X0.085*%
%ADD24R,0.035X0.037*%
%ADD25R,0.035X0.037*%
G04:AMPARAMS|DCode=26|XSize=58mil|YSize=19mil|CornerRadius=2mil|HoleSize=0mil|Usage=FLASHONLY|Rotation=0.000|XOffset=0mil|YOffset=0mil|HoleType=Round|Shape=RoundedRectangle|*
%AMROUNDEDRECTD26*
21,1,0.058,0.014,0,0,0.0*
21,1,0.053,0.019,0,0,0.0*
1,1,0.005,0.027,-0.007*
1,1,0.005,-0.027,-0.007*
1,1,0.005,-0.027,0.007*
1,1,0.005,0.027,0.007*
%
%ADD26ROUNDEDRECTD26*%
G04:AMPARAMS|DCode=27|XSize=78mil|YSize=24mil|CornerRadius=3mil|HoleSize=0mil|Usage=FLASHONLY|Rotation=0.000|XOffset=0mil|YOffset=0mil|HoleType=Round|Shape=RoundedRectangle|*
%AMROUNDEDRECTD27*
21,1,0.078,0.018,0,0,0.0*
21,1,0.072,0.024,0,0,0.0*
1,1,0.006,0.036,-0.009*
1,1,0.006,-0.036,-0.009*
1,1,0.006,-0.036,0.009*
1,1,0.006,0.036,0.009*
%
%ADD27ROUNDEDRECTD27*%
G04:AMPARAMS|DCode=28|XSize=75mil|YSize=24mil|CornerRadius=3mil|HoleSize=0mil|Usage=FLASHONLY|Rotation=0.000|XOffset=0mil|YOffset=0mil|HoleType=Round|Shape=RoundedRectangle|*
%AMROUNDEDRECTD28*
21,1,0.075,0.018,0,0,0.0*
21,1,0.069,0.024,0,0,0.0*
1,1,0.006,0.035,-0.009*
1,1,0.006,-0.035,-0.009*
1,1,0.006,-0.035,0.009*
1,1,0.006,0.035,0.009*
%
%ADD28ROUNDEDRECTD28*%
%ADD29R,0.039X0.126*%
%ADD30R,0.126X0.039*%
%ADD31R,0.028X0.047*%
%ADD32R,0.047X0.031*%
%ADD33R,0.047X0.047*%
%ADD34R,0.047X0.126*%
%ADD35R,0.028X0.055*%
%ADD36R,0.039X0.055*%
%ADD37R,0.059X0.075*%
%ADD38R,0.060X0.013*%
%ADD39R,0.052X0.022*%
%ADD40R,0.078X0.022*%
G04:AMPARAMS|DCode=41|XSize=49mil|YSize=18mil|CornerRadius=2mil|HoleSize=0mil|Usage=FLASHONLY|Rotation=0.000|XOffset=0mil|YOffset=0mil|HoleType=Round|Shape=RoundedRectangle|*
%AMROUNDEDRECTD41*
21,1,0.049,0.014,0,0,0.0*
21,1,0.044,0.018,0,0,0.0*
1,1,0.005,0.022,-0.007*
1,1,0.005,-0.022,-0.007*
1,1,0.005,-0.022,0.007*
1,1,0.005,0.022,0.007*
%
%ADD41ROUNDEDRECTD41*%
%ADD42R,0.136X0.073*%
%ADD43R,0.058X0.021*%
%ADD44R,0.063X0.031*%
%ADD45R,0.047X0.016*%
%ADD46R,0.037X0.035*%
%ADD47R,0.037X0.035*%
%ADD48C,0.010*%
%ADD49C,0.020*%
%ADD50C,0.008*%
%ADD51C,0.040*%
%ADD52C,0.030*%
%ADD53C,0.094*%
%ADD54C,0.060*%
%ADD55R,0.060X0.060*%
%ADD56C,0.063*%
%ADD57R,0.063X0.063*%
%ADD58R,0.063X0.063*%
%ADD59R,0.060X0.060*%
%ADD60C,0.060*%
%ADD61C,0.054*%
%ADD62R,0.054X0.054*%
%ADD63C,0.106*%
%ADD64R,0.056X0.056*%
%ADD65C,0.120*%
%ADD66C,0.157*%
%ADD67C,0.071*%
%ADD68R,0.071X0.071*%
%ADD69O,0.118X0.236*%
%ADD70C,0.050*%
%ADD71C,0.110*%
%ADD72C,0.030*%
G36*
X8100Y3858D02*
X7795D01*
Y4035D01*
X8100D01*
Y3858D01*
D02*
G37*
G36*
X8173Y4705D02*
X8287D01*
Y4606D01*
X8366D01*
Y4055D01*
X8071D01*
Y4508D01*
X8098D01*
Y4693D01*
X8150D01*
Y4705D01*
X8165D01*
Y4728D01*
X8173D01*
Y4705D01*
D02*
G37*
G36*
X8259Y4769D02*
Y4748D01*
Y4744D01*
X8366D01*
Y4705D01*
X8463D01*
X8484Y4683D01*
Y4606D01*
X8602D01*
Y3799D01*
X8445D01*
Y4055D01*
X8406D01*
Y4626D01*
X8307D01*
Y4724D01*
X8206D01*
Y4769D01*
X8214Y4769D01*
X8250Y4769D01*
X8259Y4769D01*
D02*
G37*
G36*
X5634Y1620D02*
X5640Y1614D01*
X5654D01*
Y1594D01*
X5575D01*
Y1669D01*
X5634D01*
Y1620D01*
D02*
G37*
G36*
X9433Y2512D02*
X8999D01*
Y2965D01*
X9093D01*
X9094Y2960D01*
X9089Y2958D01*
X9078Y2952D01*
X9068Y2944D01*
X9060Y2934D01*
X9054Y2923D01*
X9050Y2911D01*
X9049Y2903D01*
X9114D01*
X9179D01*
X9178Y2911D01*
X9175Y2923D01*
X9168Y2934D01*
X9160Y2944D01*
X9150Y2952D01*
X9139Y2958D01*
X9134Y2960D01*
X9135Y2965D01*
X9293D01*
X9294Y2960D01*
X9289Y2958D01*
X9278Y2952D01*
X9268Y2944D01*
X9260Y2934D01*
X9254Y2923D01*
X9250Y2911D01*
X9249Y2903D01*
X9314D01*
X9379D01*
X9378Y2911D01*
X9375Y2923D01*
X9368Y2934D01*
X9360Y2944D01*
X9350Y2952D01*
X9339Y2958D01*
X9334Y2960D01*
X9335Y2965D01*
X9433D01*
Y2512D01*
D02*
G37*
G36*
X8154Y4839D02*
X8144D01*
Y4913D01*
X8110D01*
X8101Y4923D01*
X8096Y4926D01*
X8090Y4927D01*
X8071D01*
Y5217D01*
X8154D01*
Y4839D01*
D02*
G37*
G36*
X8248Y4917D02*
X8238D01*
X8233Y4916D01*
X8229Y4913D01*
X8195D01*
Y4858D01*
X8186D01*
Y4913D01*
X8169D01*
Y5217D01*
X8248D01*
Y4917D01*
D02*
G37*
G36*
X8563Y4921D02*
X8720D01*
Y4823D01*
X8642D01*
Y4902D01*
X8484D01*
Y5197D01*
X8563D01*
Y4921D01*
D02*
G37*
G36*
X8133Y4758D02*
X8134Y4753D01*
X8134Y4753D01*
Y4751D01*
Y4705D01*
X8087D01*
Y4524D01*
X8031D01*
Y4508D01*
Y4232D01*
X7874D01*
Y4626D01*
X7992D01*
Y4717D01*
X8122D01*
X8123Y4754D01*
X8124Y4758D01*
Y4778D01*
X8124Y4779D01*
X8124Y4794D01*
X8105D01*
Y4852D01*
X8133D01*
Y4758D01*
D02*
G37*
G36*
X9429Y4744D02*
X8996D01*
Y5197D01*
X9429D01*
Y4744D01*
D02*
G37*
%LPC*%
G36*
X9209Y2663D02*
X9201Y2662D01*
X9189Y2658D01*
X9178Y2652D01*
X9168Y2644D01*
X9160Y2634D01*
X9154Y2623D01*
X9150Y2611D01*
X9149Y2603D01*
X9209D01*
Y2663D01*
D02*
G37*
G36*
X9279Y2593D02*
X9219D01*
Y2533D01*
X9227Y2534D01*
X9239Y2538D01*
X9250Y2544D01*
X9260Y2552D01*
X9268Y2562D01*
X9275Y2573D01*
X9278Y2585D01*
X9279Y2593D01*
D02*
G37*
G36*
X9209D02*
X9149D01*
X9150Y2585D01*
X9154Y2573D01*
X9160Y2562D01*
X9168Y2552D01*
X9178Y2544D01*
X9189Y2538D01*
X9201Y2534D01*
X9209Y2533D01*
Y2593D01*
D02*
G37*
G36*
X9219Y2663D02*
Y2603D01*
X9279D01*
X9278Y2611D01*
X9275Y2623D01*
X9268Y2634D01*
X9260Y2644D01*
X9250Y2652D01*
X9239Y2658D01*
X9227Y2662D01*
X9219Y2663D01*
D02*
G37*
G36*
X9179Y2893D02*
X9119D01*
Y2833D01*
X9127Y2834D01*
X9139Y2838D01*
X9150Y2844D01*
X9160Y2852D01*
X9168Y2862D01*
X9175Y2873D01*
X9178Y2885D01*
X9179Y2893D01*
D02*
G37*
G36*
X9379D02*
X9319D01*
Y2833D01*
X9327Y2834D01*
X9339Y2838D01*
X9350Y2844D01*
X9360Y2852D01*
X9368Y2862D01*
X9375Y2873D01*
X9378Y2885D01*
X9379Y2893D01*
D02*
G37*
G36*
X9109D02*
X9049D01*
X9050Y2885D01*
X9054Y2873D01*
X9060Y2862D01*
X9068Y2852D01*
X9078Y2844D01*
X9089Y2838D01*
X9101Y2834D01*
X9109Y2833D01*
Y2893D01*
D02*
G37*
G36*
X9309D02*
X9249D01*
X9250Y2885D01*
X9254Y2873D01*
X9260Y2862D01*
X9268Y2852D01*
X9278Y2844D01*
X9289Y2838D01*
X9301Y2834D01*
X9309Y2833D01*
Y2893D01*
D02*
G37*
%LPD*%
D10*
X7598Y3671D02*
D03*
X8661Y3996D02*
D03*
X6171Y3878D02*
D03*
D11*
X8169Y4823D02*
D03*
D12*
X8089Y4877D02*
D03*
X8250D02*
D03*
Y4769D02*
D03*
X8089D02*
D03*
D13*
X8109Y4878D02*
D03*
X8230D02*
D03*
Y4768D02*
D03*
X8109D02*
D03*
D14*
X8264Y4852D02*
D03*
Y4833D02*
D03*
Y4813D02*
D03*
Y4793D02*
D03*
X8075D02*
D03*
Y4813D02*
D03*
Y4833D02*
D03*
Y4852D02*
D03*
D15*
X8210Y4823D02*
D03*
X8191D02*
D03*
X8148D02*
D03*
X8128D02*
D03*
D16*
X8051Y4567D02*
D03*
X8130Y4567D02*
D03*
X3051Y4026D02*
D03*
X3130Y4025D02*
D03*
X8602Y4862D02*
D03*
X8681Y4862D02*
D03*
X8111Y4961D02*
D03*
X8031Y4961D02*
D03*
X8208Y4961D02*
D03*
X8288Y4961D02*
D03*
X8445Y5158D02*
D03*
X8524Y5157D02*
D03*
Y5059D02*
D03*
X8445Y5059D02*
D03*
Y4961D02*
D03*
X8524Y4961D02*
D03*
X8445Y4862D02*
D03*
X8524Y4862D02*
D03*
X8445Y4764D02*
D03*
X8524Y4764D02*
D03*
X8051Y4665D02*
D03*
X8130Y4665D02*
D03*
X7933Y4980D02*
D03*
X7854Y4980D02*
D03*
X7933Y4685D02*
D03*
X7854Y4685D02*
D03*
X7854Y5079D02*
D03*
X7933Y5079D02*
D03*
X7599Y3996D02*
D03*
X7519Y3996D02*
D03*
X7953Y3622D02*
D03*
X7874Y3622D02*
D03*
X7874Y3524D02*
D03*
X7953Y3524D02*
D03*
X3780Y5098D02*
D03*
X3700Y5099D02*
D03*
Y5000D02*
D03*
X3780Y5000D02*
D03*
X3268Y5029D02*
D03*
X3189Y5030D02*
D03*
X4193Y4380D02*
D03*
X4114Y4380D02*
D03*
Y4282D02*
D03*
X4193Y4281D02*
D03*
X4420Y4380D02*
D03*
X4340Y4380D02*
D03*
X5246Y4606D02*
D03*
X5325Y4606D02*
D03*
X5788Y4468D02*
D03*
X5708Y4469D02*
D03*
X5788Y4370D02*
D03*
X5708Y4370D02*
D03*
X5788Y4272D02*
D03*
X5708Y4272D02*
D03*
X5788Y4173D02*
D03*
X5708Y4173D02*
D03*
X5788Y4075D02*
D03*
X5708Y4075D02*
D03*
X5788Y3976D02*
D03*
X5708Y3976D02*
D03*
X5531Y4469D02*
D03*
X5611Y4468D02*
D03*
X5531Y4370D02*
D03*
X5611Y4370D02*
D03*
X5531Y4272D02*
D03*
X5611Y4272D02*
D03*
X5531Y4173D02*
D03*
X5611Y4173D02*
D03*
X5531Y4075D02*
D03*
X5611Y4075D02*
D03*
X5276Y3760D02*
D03*
X5197Y3760D02*
D03*
X4981Y1772D02*
D03*
X4901Y1772D02*
D03*
X4981Y1653D02*
D03*
X4901Y1654D02*
D03*
X5531Y3976D02*
D03*
X5611Y3976D02*
D03*
X6850Y5020D02*
D03*
X6929Y5020D02*
D03*
X6437Y5128D02*
D03*
X6516Y5128D02*
D03*
X3700Y5197D02*
D03*
X3780Y5197D02*
D03*
X8485Y3996D02*
D03*
X8405Y3996D02*
D03*
X7727Y4636D02*
D03*
X7647Y4636D02*
D03*
X7647Y4744D02*
D03*
X7727Y4744D02*
D03*
X7854Y4882D02*
D03*
X7933Y4882D02*
D03*
X7854Y4784D02*
D03*
X7933Y4783D02*
D03*
X8524Y4665D02*
D03*
X8445Y4665D02*
D03*
X8327Y4665D02*
D03*
X8248Y4665D02*
D03*
X7166Y3799D02*
D03*
X7086Y3799D02*
D03*
X6703Y5128D02*
D03*
X6624Y5128D02*
D03*
X6929Y5128D02*
D03*
X6850Y5128D02*
D03*
X6584Y4606D02*
D03*
X6664Y4606D02*
D03*
Y4311D02*
D03*
X6584Y4311D02*
D03*
Y4410D02*
D03*
X6664Y4409D02*
D03*
X6506Y4508D02*
D03*
X6427Y4508D02*
D03*
X6664Y4508D02*
D03*
X6584Y4508D02*
D03*
X6909Y4606D02*
D03*
X6989Y4606D02*
D03*
X7185Y4203D02*
D03*
X7106Y4203D02*
D03*
X7185Y4508D02*
D03*
X7106Y4508D02*
D03*
X6654Y3947D02*
D03*
X6574Y3947D02*
D03*
X6574Y3849D02*
D03*
X6654Y3848D02*
D03*
X6860Y3445D02*
D03*
X6939Y3445D02*
D03*
X7244Y2953D02*
D03*
X7323Y2953D02*
D03*
X5630Y3189D02*
D03*
X5551Y3189D02*
D03*
X5630Y3287D02*
D03*
X5551Y3288D02*
D03*
X5630Y3386D02*
D03*
X5551Y3386D02*
D03*
X5630Y3484D02*
D03*
X5551Y3484D02*
D03*
X5630Y3583D02*
D03*
X5551Y3583D02*
D03*
X3454Y4892D02*
D03*
X3534Y4892D02*
D03*
X6437Y5020D02*
D03*
X6516Y5020D02*
D03*
X4695Y3445D02*
D03*
X4774Y3445D02*
D03*
X7106Y4410D02*
D03*
X7185Y4409D02*
D03*
Y4311D02*
D03*
X7106Y4311D02*
D03*
X7195Y5354D02*
D03*
X7274Y5354D02*
D03*
X7126Y5128D02*
D03*
X7047Y5128D02*
D03*
X4153Y1654D02*
D03*
X4233Y1653D02*
D03*
X4153Y1772D02*
D03*
X4233Y1772D02*
D03*
D17*
X3153Y4154D02*
D03*
X3048D02*
D03*
X8104Y4360D02*
D03*
X7999D02*
D03*
X8333Y4449D02*
D03*
X8438D02*
D03*
X8333Y4281D02*
D03*
X8438D02*
D03*
X3802Y4882D02*
D03*
X3698D02*
D03*
X5348Y4724D02*
D03*
X5243D02*
D03*
D18*
X8111Y5118D02*
D03*
X8208D02*
D03*
D19*
X8150Y3945D02*
D03*
Y3811D02*
D03*
X7146Y2630D02*
D03*
Y2764D02*
D03*
D20*
X7717Y3996D02*
D03*
X7716Y3917D02*
D03*
X8051Y3642D02*
D03*
X8051Y3563D02*
D03*
X3996Y4715D02*
D03*
X3996Y4636D02*
D03*
X6240Y2146D02*
D03*
X6240Y2067D02*
D03*
X6240Y2224D02*
D03*
X6240Y2303D02*
D03*
X6122Y2461D02*
D03*
X6122Y2382D02*
D03*
X6024Y2461D02*
D03*
X6024Y2382D02*
D03*
X5925Y2461D02*
D03*
X5925Y2382D02*
D03*
X5827D02*
D03*
X5827Y2461D02*
D03*
X5728D02*
D03*
X5728Y2382D02*
D03*
X5630Y2461D02*
D03*
X5630Y2382D02*
D03*
X5532Y2461D02*
D03*
X5531Y2382D02*
D03*
X4902Y3091D02*
D03*
X4901Y3011D02*
D03*
X5000Y3011D02*
D03*
X5000Y3091D02*
D03*
X5295Y3011D02*
D03*
X5295Y3091D02*
D03*
X5197D02*
D03*
X5197Y3011D02*
D03*
X4901Y2185D02*
D03*
X4902Y2264D02*
D03*
X5197Y2175D02*
D03*
X5197Y2254D02*
D03*
X5000Y2185D02*
D03*
X5000Y2264D02*
D03*
X5098Y3011D02*
D03*
X5099Y3091D02*
D03*
X4803Y3011D02*
D03*
X4803Y3091D02*
D03*
X6614Y4902D02*
D03*
X6614Y4823D02*
D03*
X7579Y2096D02*
D03*
X7579Y2176D02*
D03*
X7815Y2647D02*
D03*
X7815Y2727D02*
D03*
X7815Y2805D02*
D03*
X7815Y2884D02*
D03*
X8140Y2726D02*
D03*
X8140Y2805D02*
D03*
X8041Y3061D02*
D03*
X8041Y2982D02*
D03*
X7923D02*
D03*
X7923Y3061D02*
D03*
X7923Y3149D02*
D03*
X7923Y3229D02*
D03*
X8494Y3149D02*
D03*
X8494Y3229D02*
D03*
X8494Y2982D02*
D03*
X8494Y3061D02*
D03*
X8602D02*
D03*
X8602Y2982D02*
D03*
X8386Y2805D02*
D03*
X8386Y2884D02*
D03*
X8386Y2647D02*
D03*
X8386Y2727D02*
D03*
X8711Y2726D02*
D03*
X8711Y2805D02*
D03*
X6516Y4822D02*
D03*
X6516Y4902D02*
D03*
X7293Y4409D02*
D03*
X7293Y4488D02*
D03*
X6565Y3553D02*
D03*
X6565Y3474D02*
D03*
X6673Y3553D02*
D03*
X6673Y3474D02*
D03*
X6634Y3120D02*
D03*
X6634Y3199D02*
D03*
X6634Y3277D02*
D03*
X6634Y3357D02*
D03*
X6752Y3277D02*
D03*
X6752Y3357D02*
D03*
X3799Y4636D02*
D03*
X3799Y4715D02*
D03*
X6594Y2934D02*
D03*
X6594Y3013D02*
D03*
X7470Y2096D02*
D03*
X7471Y2176D02*
D03*
X7471Y1979D02*
D03*
X7470Y1899D02*
D03*
X6536Y3199D02*
D03*
X6535Y3120D02*
D03*
D21*
X7953Y4000D02*
D03*
D22*
X8043Y3756D02*
D03*
X7862D02*
D03*
D23*
X7953D02*
D03*
D24*
X7283Y2769D02*
D03*
X7321Y2861D02*
D03*
D25*
X7246Y2861D02*
D03*
D26*
X3579Y5058D02*
D03*
Y5032D02*
D03*
Y5007D02*
D03*
Y4981D02*
D03*
X3409D02*
D03*
Y5007D02*
D03*
Y5032D02*
D03*
Y5058D02*
D03*
D27*
X3995Y4534D02*
D03*
Y4484D02*
D03*
Y4434D02*
D03*
Y4384D02*
D03*
X3800D02*
D03*
Y4434D02*
D03*
Y4484D02*
D03*
Y4534D02*
D03*
D28*
X4878Y4491D02*
D03*
Y4441D02*
D03*
Y4391D02*
D03*
Y4341D02*
D03*
Y4291D02*
D03*
Y4241D02*
D03*
Y4191D02*
D03*
Y4141D02*
D03*
Y4091D02*
D03*
X5241D02*
D03*
Y4141D02*
D03*
Y4191D02*
D03*
Y4241D02*
D03*
Y4291D02*
D03*
Y4341D02*
D03*
Y4391D02*
D03*
Y4441D02*
D03*
Y4491D02*
D03*
X4917Y3645D02*
D03*
Y3595D02*
D03*
Y3545D02*
D03*
Y3495D02*
D03*
Y3445D02*
D03*
Y3395D02*
D03*
Y3345D02*
D03*
Y3295D02*
D03*
Y3245D02*
D03*
X5280D02*
D03*
Y3295D02*
D03*
Y3345D02*
D03*
Y3395D02*
D03*
Y3445D02*
D03*
Y3495D02*
D03*
Y3545D02*
D03*
Y3595D02*
D03*
Y3645D02*
D03*
D29*
X4419Y3518D02*
D03*
Y3785D02*
D03*
X4577D02*
D03*
Y3518D02*
D03*
X4419Y2504D02*
D03*
Y2772D02*
D03*
X4577D02*
D03*
Y2504D02*
D03*
D30*
X3646Y2047D02*
D03*
X3913D02*
D03*
Y1890D02*
D03*
X3646D02*
D03*
X2730Y2047D02*
D03*
X2998D02*
D03*
Y1890D02*
D03*
X2730D02*
D03*
X1835Y2047D02*
D03*
X2102D02*
D03*
Y1890D02*
D03*
X1835D02*
D03*
D31*
X6094Y2226D02*
D03*
D32*
X6128Y1813D02*
D03*
D33*
Y2057D02*
D03*
D34*
Y1671D02*
D03*
D35*
X5884Y2222D02*
D03*
X5841D02*
D03*
X6057D02*
D03*
X5927D02*
D03*
X6014D02*
D03*
X5797D02*
D03*
X5754D02*
D03*
X5970D02*
D03*
D36*
X5679D02*
D03*
D37*
X5604Y1632D02*
D03*
D38*
X7582Y2018D02*
D03*
Y1998D02*
D03*
Y1978D02*
D03*
Y1959D02*
D03*
Y1939D02*
D03*
X7753D02*
D03*
Y1959D02*
D03*
Y1978D02*
D03*
Y1998D02*
D03*
Y2018D02*
D03*
D39*
X8033Y2882D02*
D03*
Y2844D02*
D03*
Y2807D02*
D03*
X7931D02*
D03*
Y2844D02*
D03*
Y2882D02*
D03*
X8604D02*
D03*
Y2844D02*
D03*
Y2807D02*
D03*
X8502D02*
D03*
Y2844D02*
D03*
Y2882D02*
D03*
D40*
X6783Y3845D02*
D03*
Y3795D02*
D03*
Y3745D02*
D03*
Y3695D02*
D03*
X6977D02*
D03*
Y3745D02*
D03*
Y3795D02*
D03*
Y3845D02*
D03*
D41*
X6710Y5048D02*
D03*
Y5023D02*
D03*
Y4997D02*
D03*
Y4971D02*
D03*
X6617D02*
D03*
Y4997D02*
D03*
Y5023D02*
D03*
Y5048D02*
D03*
X7133D02*
D03*
Y5023D02*
D03*
Y4997D02*
D03*
Y4971D02*
D03*
X7040D02*
D03*
Y4997D02*
D03*
Y5023D02*
D03*
Y5048D02*
D03*
D42*
X7106Y4744D02*
D03*
X6575Y4104D02*
D03*
X6398Y3012D02*
D03*
D43*
X6773Y4504D02*
D03*
Y4454D02*
D03*
Y4404D02*
D03*
Y4354D02*
D03*
X6987D02*
D03*
Y4404D02*
D03*
Y4454D02*
D03*
Y4504D02*
D03*
D44*
X6671Y3740D02*
D03*
X6537D02*
D03*
Y3652D02*
D03*
X6671D02*
D03*
D45*
X6862Y3352D02*
D03*
Y3327D02*
D03*
Y3301D02*
D03*
X6937D02*
D03*
Y3352D02*
D03*
D46*
X6542Y3280D02*
D03*
X6450Y3317D02*
D03*
D47*
X6542Y3354D02*
D03*
D48*
X4606Y5023D02*
Y5082D01*
Y4923D02*
X4675Y4992D01*
X4606Y5082D02*
X4606Y5082D01*
Y5305D01*
X3799Y4636D02*
X3858D01*
X5827Y2461D02*
Y2520D01*
X5630Y2461D02*
X5689Y2520D01*
X5728Y2461D02*
Y2520D01*
X5728Y2520D02*
X5728Y2520D01*
X5689Y2520D02*
X5728D01*
X5177Y4724D02*
X5243D01*
X5348D02*
X5413D01*
X3780Y5000D02*
X3838D01*
X3839Y5000D01*
X8524Y5059D02*
X8524Y5059D01*
X6693Y2359D02*
X6747Y2413D01*
X6693Y2079D02*
Y2359D01*
X8130Y4665D02*
X8169Y4704D01*
Y4823D01*
X8583Y4764D02*
X8583Y4764D01*
X8524Y4764D02*
X8583D01*
X7953Y3524D02*
X7953Y3524D01*
X8002D01*
X8022Y3504D01*
X8051D01*
X8051Y3504D02*
X8051Y3504D01*
X8051Y3504D02*
Y3563D01*
X8051Y4764D02*
X8056Y4769D01*
X8089D01*
X7933Y4783D02*
X7944Y4794D01*
X8074D01*
X8075Y4793D01*
X8019Y4852D02*
X8074D01*
X8075Y4852D01*
X8001Y4869D02*
X8019Y4852D01*
X7933Y4980D02*
X7994Y4919D01*
X7994D02*
X8001Y4912D01*
Y4869D02*
Y4912D01*
X7994Y4919D02*
X7994D01*
X8090Y4912D02*
X8109Y4893D01*
X8041Y4912D02*
X8090D01*
X8031Y4922D02*
X8041Y4912D01*
X7795Y4980D02*
X7795Y4980D01*
X7854D01*
X7795Y4685D02*
X7795Y4685D01*
X7854D01*
X5541Y1634D02*
X5543Y1632D01*
X5604D01*
X6199Y1671D02*
X6201Y1673D01*
X6128Y1671D02*
X6199D01*
X6299Y2067D02*
X6299Y2067D01*
X6240Y2067D02*
X6299D01*
X6128Y2057D02*
X6137Y2067D01*
X6240D01*
X5970Y2169D02*
X5974Y2165D01*
X5970Y2169D02*
Y2222D01*
X5679Y2165D02*
X5679Y2165D01*
Y2222D01*
X7716Y3858D02*
X7717Y3858D01*
X7716Y3858D02*
Y3917D01*
X6712Y5254D02*
X6713Y5253D01*
X5348Y4659D02*
Y4724D01*
X5325Y4636D02*
X5348Y4659D01*
X5325Y4606D02*
Y4636D01*
X5787Y3907D02*
X5788Y3908D01*
Y3976D01*
Y4075D01*
Y4173D01*
Y4272D01*
Y4370D01*
Y4468D01*
X4872Y4045D02*
X4878Y4051D01*
Y4091D01*
X5197Y3819D02*
X5197Y3819D01*
X5197Y3760D02*
Y3819D01*
X4917Y3203D02*
X4921Y3199D01*
X4917Y3203D02*
Y3245D01*
X5063Y3435D02*
Y3677D01*
X5023Y3396D02*
X5063Y3435D01*
X4774Y3445D02*
X4917D01*
X4793Y4291D02*
X4878D01*
Y4341D01*
X4233Y4321D02*
X4262D01*
X4193Y4281D02*
X4233Y4321D01*
X3720Y4380D02*
X3724Y4384D01*
X3800D01*
X3996Y4774D02*
X3996Y4774D01*
Y4715D02*
Y4774D01*
X3802Y4882D02*
Y4948D01*
X3780Y4970D02*
X3802Y4948D01*
X3780Y4970D02*
Y5000D01*
X3625Y5032D02*
X3642Y5049D01*
X3579Y5032D02*
X3625D01*
X3130Y5030D02*
X3130Y5030D01*
X3189D01*
X6199Y1813D02*
X6201Y1811D01*
X6128Y1813D02*
X6199D01*
X6053Y2579D02*
X6095Y2621D01*
Y5201D01*
X6122Y2461D02*
Y2520D01*
Y2461D02*
X6122Y2461D01*
X6024D02*
X6122D01*
X5827Y2382D02*
X5876Y2333D01*
X5827Y2382D02*
X5827D01*
X5827Y2323D02*
Y2382D01*
Y2323D02*
X5884Y2266D01*
Y2222D02*
Y2266D01*
X5243Y4724D02*
X5246Y4722D01*
Y4606D02*
Y4722D01*
X5241Y4601D02*
X5246Y4606D01*
X5241Y4491D02*
Y4601D01*
X5276Y3760D02*
Y3819D01*
Y3760D02*
X5276Y3760D01*
X5280Y3756D01*
Y3645D02*
Y3756D01*
X1732Y2047D02*
X1732Y2047D01*
X1835D01*
X2102D01*
X2618Y2047D02*
X2618Y2047D01*
X2730D01*
X2998D01*
X3543Y2047D02*
X3543Y2047D01*
X3646D01*
X3913D01*
X4419Y2884D02*
X4419Y2884D01*
Y2772D02*
Y2884D01*
Y2504D02*
Y2772D01*
X4419Y3898D02*
X4419Y3898D01*
Y3785D02*
Y3898D01*
Y3518D02*
Y3785D01*
X4055Y4636D02*
X4055Y4636D01*
X3996Y4636D02*
X4055D01*
X3995Y4534D02*
X3996Y4535D01*
Y4636D01*
X3912Y5254D02*
X3917Y5248D01*
Y5138D02*
Y5248D01*
X3878Y5098D02*
X3917Y5138D01*
X3780Y5098D02*
X3878D01*
X3048Y4154D02*
X3051Y4151D01*
Y4026D02*
X3054Y4022D01*
X8031Y4922D02*
Y4961D01*
X8109Y4878D02*
Y4893D01*
X8288Y4912D02*
Y4961D01*
X8278Y4902D02*
X8288Y4912D01*
X8259Y4902D02*
X8278D01*
X8258Y4902D02*
X8259Y4902D01*
X8238Y4902D02*
X8258D01*
X8230Y4893D02*
X8238Y4902D01*
X8230Y4878D02*
Y4893D01*
X8366Y5158D02*
X8445D01*
X8334Y5126D02*
X8366Y5158D01*
X8334Y4889D02*
Y5126D01*
X8322Y4877D02*
X8334Y4889D01*
X8250Y4877D02*
X8322D01*
X8264Y4852D02*
X8335D01*
X8351Y4869D01*
Y5040D01*
X8370Y5059D01*
X8445D01*
X8264Y4793D02*
X8415D01*
X8445Y4764D01*
X8264Y4813D02*
X8395D01*
X8445Y4862D01*
Y4961D01*
X8445Y4961D02*
X8445Y4961D01*
X8524Y4862D02*
X8602D01*
X8524Y4862D02*
X8524Y4862D01*
X8445Y4745D02*
X8524Y4665D01*
X8445Y4745D02*
Y4764D01*
X8002Y4813D02*
X8075D01*
X7933Y4882D02*
X8002Y4813D01*
X7933Y4882D02*
Y4882D01*
X7862Y3683D02*
Y3756D01*
Y3683D02*
X7874Y3671D01*
Y3622D02*
Y3671D01*
X7874Y3622D02*
X7874Y3622D01*
X7874Y3524D02*
Y3622D01*
Y3524D02*
X7874Y3524D01*
X7146Y2764D02*
Y2815D01*
X7047Y2913D02*
X7146Y2815D01*
X7151Y2769D02*
X7283D01*
X7146Y2764D02*
X7151Y2769D01*
X7321Y2861D02*
Y2950D01*
X7246Y2861D02*
Y2951D01*
X7244Y2953D02*
X7246Y2951D01*
X7933Y4980D02*
Y5079D01*
X7933Y5079D01*
X6240Y2146D02*
Y2224D01*
X6240Y2224D02*
X6240Y2224D01*
X6097Y2224D02*
X6240D01*
X6094Y2226D02*
X6097Y2224D01*
X5280Y3295D02*
X5543D01*
X5551Y3288D01*
X5280Y3245D02*
X5495D01*
X5551Y3189D01*
X5280Y3345D02*
X5510D01*
X5551Y3386D01*
X5280Y3395D02*
X5461D01*
X5551Y3484D01*
X5280Y3445D02*
X5413D01*
X5551Y3583D01*
X2730Y1890D02*
X2998D01*
X5226Y3445D02*
X5280D01*
X5235Y3345D02*
X5280D01*
X5167Y3327D02*
X5235Y3395D01*
X5280D01*
X5148Y3366D02*
X5226Y3445D01*
X4577Y3209D02*
Y3518D01*
X4577Y3518D01*
Y3785D01*
Y2504D02*
Y2772D01*
X3549Y4434D02*
X3800D01*
X3465Y4518D02*
X3549Y4434D01*
X4114Y4282D02*
Y4380D01*
X3995Y4384D02*
X4110D01*
X4114Y4380D01*
X4193Y4380D02*
X4340D01*
X4193Y4380D02*
X4193Y4380D01*
X3800Y4484D02*
Y4534D01*
Y4634D01*
X3799Y4636D02*
X3800Y4634D01*
X3631Y4715D02*
X3799D01*
X3409Y4937D02*
Y4981D01*
Y4937D02*
X3454Y4892D01*
X3534Y4892D02*
X3579Y4937D01*
Y4981D01*
Y5007D02*
X3694D01*
X3700Y5000D01*
Y4885D02*
Y5000D01*
X3698Y4882D02*
X3700Y4885D01*
X3523Y4981D02*
X3579D01*
X3504Y5000D02*
X3523Y4981D01*
X3504Y5000D02*
Y5217D01*
X3465Y5256D02*
X3504Y5217D01*
X3579Y5058D02*
Y5242D01*
X3565Y5256D02*
X3579Y5242D01*
X3409Y5007D02*
Y5032D01*
X3271D02*
X3409D01*
X3268Y5029D02*
X3271Y5032D01*
X3700Y5000D02*
Y5099D01*
Y5197D01*
X3365Y4411D02*
Y4718D01*
Y4411D02*
X3445Y4331D01*
X3888D01*
Y4400D01*
X3922Y4434D01*
X3995D01*
Y4484D01*
X4109D01*
X3799Y4636D02*
X3799Y4636D01*
X5611Y3976D02*
X5708D01*
X5611Y3976D02*
X5611Y3976D01*
Y4075D02*
X5708D01*
X5611Y4075D02*
X5611Y4075D01*
Y4173D02*
X5708D01*
X5611Y4173D02*
X5611Y4173D01*
Y4272D02*
X5708D01*
X5611Y4272D02*
X5611Y4272D01*
X5611Y4370D02*
X5708D01*
X5611Y4370D02*
X5611Y4370D01*
Y4469D02*
X5708D01*
X5611Y4468D02*
X5611Y4469D01*
X5531Y3976D02*
X5531Y3976D01*
X5531Y4075D02*
X5531Y4075D01*
X5531Y4173D02*
X5531Y4173D01*
X4832Y4241D02*
X4878D01*
X4918Y3396D02*
X5023D01*
X4917Y3395D02*
X4918Y3396D01*
X4774Y3445D02*
X4774Y3445D01*
X1835Y1890D02*
X2102D01*
X3646D02*
X3913D01*
X6054Y5236D02*
Y5271D01*
X6012Y5194D02*
X6054Y5236D01*
X6012Y5218D02*
Y5254D01*
X5995Y5201D02*
X6012Y5218D01*
X5995Y2498D02*
Y5201D01*
X6112Y5218D02*
Y5254D01*
X6095Y5201D02*
X6112Y5218D01*
X6057Y2222D02*
Y2317D01*
X6122Y2382D01*
X5797Y2222D02*
X5797Y2222D01*
X5531Y2293D02*
X5551Y2274D01*
X6014Y2222D02*
Y2303D01*
X6024Y2313D02*
Y2381D01*
X6014Y2303D02*
X6024Y2313D01*
X6024Y2382D02*
X6024Y2381D01*
X5925Y2382D02*
X5927Y2380D01*
Y2222D02*
Y2380D01*
X5987Y2490D02*
X5995Y2498D01*
X5987Y2425D02*
Y2490D01*
Y2425D02*
X6024Y2389D01*
Y2382D02*
Y2389D01*
X5886Y2421D02*
X5925Y2382D01*
X5886Y2421D02*
Y2513D01*
X5728Y2382D02*
X5768Y2421D01*
Y2579D01*
X6240Y2303D02*
Y2313D01*
X6299Y2372D01*
Y2687D01*
X6012Y2728D02*
Y5194D01*
X5912Y5219D02*
Y5254D01*
X6012Y5313D02*
Y5354D01*
Y5313D02*
X6054Y5271D01*
X5944Y2571D02*
Y5187D01*
X5886Y2513D02*
X5944Y2571D01*
X5912Y5219D02*
X5944Y5187D01*
X5472Y2677D02*
X5558Y2763D01*
X5531Y2293D02*
Y2382D01*
X7012Y5354D02*
Y5359D01*
X4412Y5354D02*
X4558D01*
X4606Y5305D01*
X4312Y5354D02*
X4354Y5396D01*
X4614D01*
X4675Y5335D01*
Y4992D02*
Y5335D01*
X7874Y5138D02*
X7933Y5079D01*
X7677Y5138D02*
X7874D01*
X7638Y5098D02*
X7677Y5138D01*
X6012Y2728D02*
X6053Y2687D01*
X6122Y2382D02*
X6230D01*
X6212Y5354D02*
X6254Y5312D01*
Y2406D02*
Y5312D01*
X6230Y2382D02*
X6254Y2406D01*
X5837Y4518D02*
X5876Y4478D01*
X5846Y4537D02*
X5893Y4491D01*
X5241Y4241D02*
X5413D01*
X5443Y4272D01*
X5531D01*
X5241Y4441D02*
X5243Y4439D01*
X5241Y4341D02*
X5241Y4341D01*
X5241Y4291D02*
X5413D01*
X5492Y4370D01*
X5531D01*
X5241Y4141D02*
X5416D01*
X5482Y4075D01*
X5531D01*
X5241Y4191D02*
X5415D01*
X5433Y4173D01*
X5531D01*
X5241Y4091D02*
X5357D01*
X5472Y3976D01*
X5531D01*
X5241Y4341D02*
X5325D01*
X5453Y4469D01*
X5531D01*
X5241Y4391D02*
X5352D01*
X5478Y4518D01*
X5837D01*
X5243Y4439D02*
X5375D01*
X5474Y4537D01*
X5846D01*
X4755Y4165D02*
X4832Y4241D01*
X4755Y3985D02*
Y4165D01*
Y3985D02*
X5063Y3677D01*
X5728Y2343D02*
Y2382D01*
X5551Y2274D02*
X5738D01*
X5754Y2258D01*
Y2222D02*
Y2258D01*
X5841Y2222D02*
Y2280D01*
X5728Y2343D02*
X5758Y2313D01*
X5807D01*
X5841Y2280D01*
X5797Y2222D02*
Y2274D01*
X5780Y2291D02*
X5797Y2274D01*
X5630Y2323D02*
Y2382D01*
Y2323D02*
X5662Y2291D01*
X5780D01*
X5558Y2763D02*
X5841D01*
X5893Y2815D01*
Y4491D01*
X5505Y2780D02*
X5834D01*
X5876Y2822D01*
Y4478D01*
X7854Y5079D02*
X7854Y5079D01*
X7815Y5039D02*
X7854Y5079D01*
X8661Y3996D02*
X8661Y3996D01*
X5148Y3258D02*
Y3366D01*
X4577Y3209D02*
X4626Y3159D01*
X5049D01*
X5148Y3258D01*
X5167Y3248D02*
Y3327D01*
X5059Y3140D02*
X5167Y3248D01*
X4616Y3140D02*
X5059D01*
X4577Y3100D02*
X4616Y3140D01*
X4577Y3100D02*
X4577Y3100D01*
Y2772D02*
Y3100D01*
X5224Y3295D02*
X5280D01*
X5217Y3228D02*
Y3287D01*
X5224Y3295D01*
X5197Y3307D02*
X5235Y3345D01*
X5197Y3224D02*
Y3307D01*
Y3224D02*
X5232Y3189D01*
X5217Y3228D02*
X5236Y3209D01*
X4901Y3011D02*
X5000D01*
X5000Y3011D01*
X5000Y3011D01*
Y2933D02*
Y3011D01*
X4803Y3091D02*
X4902D01*
X5197Y2933D02*
Y3011D01*
X5197Y3011D02*
X5197Y3011D01*
X5197Y3091D02*
X5295D01*
X5098Y3011D02*
X5197D01*
X5098Y3011D02*
X5098Y3011D01*
X5000Y3091D02*
X5099D01*
X4902Y2264D02*
X5000D01*
X5000Y2264D02*
Y2362D01*
X5000Y2362D02*
X5000Y2362D01*
X5197Y2254D02*
Y2362D01*
X5197Y2362D02*
X5197Y2362D01*
X5282Y3593D02*
X5364D01*
X5280Y3595D02*
X5282Y3593D01*
X5187Y3494D02*
X5279D01*
X5280Y3495D01*
X5187Y3543D02*
X5189Y3545D01*
X5280D01*
X5295Y3091D02*
X5403D01*
X5404Y3091D01*
X5232Y3189D02*
X5423D01*
X5463Y3150D01*
Y2815D02*
Y3150D01*
X5404Y2756D02*
X5463Y2815D01*
X5236Y3209D02*
X5428D01*
X5421Y2749D02*
X5482Y2811D01*
X5455Y2730D02*
X5505Y2780D01*
X5438Y2742D02*
X5499Y2804D01*
Y3137D01*
X5551Y3189D01*
X5482Y2811D02*
Y3154D01*
X5428Y3209D02*
X5482Y3154D01*
X4695Y3091D02*
X4803D01*
X4695Y3091D02*
X4695Y3091D01*
X5089Y2106D02*
Y2176D01*
X5000Y2264D02*
X5000Y2264D01*
X5089Y2176D01*
X5630Y3484D02*
Y3583D01*
Y3386D02*
Y3484D01*
Y3287D02*
Y3386D01*
Y3189D02*
Y3287D01*
Y3386D02*
X5689D01*
X5689Y3386D01*
X8327Y4665D02*
X8445D01*
X8327Y4665D02*
X8327Y4665D01*
X3631Y4715D02*
Y4716D01*
X3455Y4892D02*
X3631Y4716D01*
X3454Y4892D02*
X3455D01*
X4420Y4232D02*
Y4380D01*
X7126Y5128D02*
X7185D01*
X7185Y5128D01*
X7112Y5254D02*
X7168D01*
X7215Y5206D01*
Y5116D02*
Y5206D01*
X7215Y5115D02*
X7215Y5116D01*
X7215Y5079D02*
Y5115D01*
X7184Y5048D02*
X7215Y5079D01*
X7133Y5048D02*
X7184D01*
X7012Y5254D02*
X7087Y5179D01*
Y5010D02*
Y5179D01*
Y5010D02*
X7096Y5000D01*
X7130D01*
X7133Y4997D01*
X6912Y5254D02*
X6964Y5305D01*
X7232Y5067D02*
Y5213D01*
X7188Y5023D02*
X7232Y5067D01*
X7133Y5023D02*
X7188D01*
X6988Y5128D02*
X7047D01*
X6988Y5128D02*
X6988Y5128D01*
X6929Y5128D02*
X6988D01*
X6988Y5128D01*
X7040Y5048D02*
Y5121D01*
X7047Y5128D01*
X6932Y5023D02*
X7040D01*
X6929Y5020D02*
X6932Y5023D01*
X7133Y4971D02*
X7194D01*
X7195Y4970D01*
X6850Y5128D02*
X6929Y5049D01*
Y5020D02*
Y5049D01*
X6703Y5128D02*
Y5244D01*
X6712Y5254D01*
X6617Y5048D02*
Y5121D01*
X6624Y5128D01*
X6516Y5020D02*
Y5128D01*
X6519Y5023D02*
X6617D01*
X6516Y5020D02*
X6519Y5023D01*
X6516Y4902D02*
X6614D01*
X6617Y4904D02*
Y4971D01*
X6614Y4902D02*
X6614Y4902D01*
X6617Y4904D01*
X6752Y5413D02*
X6812Y5354D01*
X6693Y5413D02*
X6752D01*
X6683Y5404D02*
X6693Y5413D01*
X6683Y5404D02*
Y5404D01*
X6663Y5384D02*
X6683Y5404D01*
X6663Y5020D02*
Y5384D01*
Y5020D02*
X6686Y4997D01*
X6710D01*
X6812Y5198D02*
Y5254D01*
X6764Y5150D02*
X6812Y5198D01*
X6710Y5048D02*
X6751D01*
X6764Y5062D01*
Y5150D01*
X6781Y5143D02*
X6860Y5222D01*
Y5266D01*
X6912Y5318D01*
Y5354D01*
X6614Y4774D02*
X6644Y4744D01*
X6614Y4774D02*
Y4823D01*
X7040Y4971D02*
X7106Y4905D01*
X6644Y4744D02*
X7106D01*
X7185Y4508D02*
Y4665D01*
X7106Y4744D02*
X7185Y4665D01*
X7106Y4744D02*
Y4905D01*
X6987Y4404D02*
X7101D01*
X7106Y4410D01*
Y4311D02*
Y4410D01*
X6919Y4459D02*
X6939Y4478D01*
X6919Y4370D02*
Y4459D01*
Y4370D02*
X6935Y4354D01*
X6987D01*
X7146Y4469D02*
X7185Y4508D01*
X7077Y4469D02*
X7146D01*
X6939Y4478D02*
X7028D01*
X7057Y4508D01*
X7106D01*
X7062Y4454D02*
X7077Y4469D01*
X6987Y4454D02*
X7062D01*
X7186Y4409D02*
X7293D01*
X7185Y4409D02*
X7186Y4409D01*
X7146Y4370D02*
X7185Y4409D01*
X7146Y4242D02*
Y4370D01*
Y4242D02*
X7185Y4203D01*
X6664Y4409D02*
Y4508D01*
Y4409D02*
X6703Y4448D01*
Y4449D01*
X6708Y4454D01*
X6773D01*
X6664Y4606D02*
X6742D01*
X6773Y4576D01*
Y4504D02*
Y4576D01*
X6584Y4508D02*
Y4606D01*
X6506Y4508D02*
X6584D01*
X6506Y4508D02*
X6506Y4508D01*
X7273Y4488D02*
X7293D01*
X7254Y4508D02*
X7273Y4488D01*
X7185Y4508D02*
X7254D01*
X7185Y4508D02*
X7185Y4508D01*
X6584Y4311D02*
X6633Y4360D01*
X6703D01*
X6747Y4404D01*
X6773D01*
X6968Y4203D02*
X7106D01*
X6427Y4252D02*
Y4508D01*
Y4252D02*
X6575Y4104D01*
X6717Y3795D02*
X6783D01*
X6663Y3848D02*
X6717Y3795D01*
X6676Y3745D02*
X6783D01*
X6671Y3740D02*
X6676Y3745D01*
X6671Y3652D02*
Y3740D01*
Y3556D02*
Y3652D01*
Y3556D02*
X6673Y3553D01*
X6565D02*
X6673D01*
X6388Y3652D02*
X6537D01*
X6526Y3800D02*
X6574Y3849D01*
X6526Y3789D02*
Y3800D01*
Y3752D02*
Y3789D01*
Y3752D02*
X6537Y3740D01*
X6977Y3795D02*
X7082D01*
X7086Y3799D01*
Y3731D02*
Y3799D01*
Y3731D02*
X7087Y3730D01*
X7166Y3799D02*
X7224D01*
X7224Y3799D01*
X6925Y3745D02*
X6977D01*
X6909Y3760D02*
X6925Y3745D01*
X6909Y3760D02*
Y3957D01*
X6870Y3996D02*
X6909Y3957D01*
X6654Y3947D02*
X6703Y3996D01*
Y3996D01*
X6870D01*
X6574Y3947D02*
X6663Y3858D01*
Y3848D02*
Y3858D01*
X6654Y3947D02*
Y4025D01*
X6575Y4104D02*
X6654Y4025D01*
X6756Y3352D02*
X6862D01*
X6752Y3357D02*
X6756Y3352D01*
X6634Y3357D02*
X6752D01*
X6634Y3357D02*
X6634Y3357D01*
X6632Y3354D02*
X6634Y3357D01*
X6542Y3354D02*
X6632D01*
X6496Y3308D02*
X6542Y3354D01*
X6496Y3239D02*
Y3308D01*
Y3239D02*
X6536Y3199D01*
X6542Y3280D02*
X6631D01*
X6634Y3277D01*
X6634Y3277D01*
Y3199D02*
Y3277D01*
X6862Y3301D02*
X6937D01*
X7043D01*
X6801Y3327D02*
X6862D01*
X6752Y3277D02*
X6801Y3327D01*
X6752Y3277D02*
X6752Y3277D01*
Y3219D02*
Y3277D01*
X6801Y3445D02*
X6860D01*
X6801Y3445D02*
X6801Y3445D01*
X6939Y3445D02*
X6939Y3445D01*
X6998D01*
X6937Y3352D02*
Y3443D01*
X6939Y3445D01*
X7043Y3301D02*
Y3478D01*
X7018Y3504D02*
X7043Y3478D01*
X6791Y3504D02*
X7018D01*
X6761Y3474D02*
X6791Y3504D01*
X6673Y3474D02*
X6761D01*
X6399Y3013D02*
X6747D01*
X6398Y3012D02*
X6399Y3013D01*
X6450Y3317D02*
Y3403D01*
X6447Y3406D02*
X6450Y3403D01*
X6398Y3012D02*
Y3435D01*
X6437Y3474D01*
X6565D01*
X6565Y3474D01*
X7244Y3021D02*
X7244Y3022D01*
X7244Y2953D02*
Y3021D01*
X7471Y1978D02*
X7582D01*
X7471Y1979D02*
X7471Y1978D01*
X7582Y2018D02*
Y2093D01*
X7579Y2096D02*
X7582Y2093D01*
X7530Y1998D02*
X7582D01*
X7470Y2057D02*
X7530Y1998D01*
X7470Y2057D02*
Y2096D01*
X7579Y2176D02*
Y2234D01*
X7579Y2234D02*
X7579Y2234D01*
X7471Y2176D02*
Y2234D01*
X7470Y2234D02*
X7471Y2234D01*
X7530Y1959D02*
X7582D01*
X7470Y1899D02*
X7530Y1959D01*
X7753Y1998D02*
X7825D01*
X4783Y3495D02*
X4917D01*
X4744Y3533D02*
X4783Y3495D01*
X7194Y5354D02*
X7195Y5354D01*
X7012Y5359D02*
X7057Y5404D01*
X7293D01*
X7362Y5335D01*
X7112Y5354D02*
X7194D01*
X6964Y5305D02*
X7140D01*
X7232Y5213D01*
X7321Y2950D02*
X7362Y2992D01*
Y5335D01*
X7402Y1900D02*
X7471D01*
X6594Y2934D02*
X6672D01*
X6673Y2933D01*
X7815Y2589D02*
Y2647D01*
Y2589D02*
X7815Y2589D01*
X8140Y2667D02*
Y2726D01*
Y2667D02*
X8140Y2667D01*
X7931Y2844D02*
X7972D01*
X7982Y2835D01*
Y2746D02*
Y2835D01*
X8041Y2982D02*
X8110D01*
X8110Y2982D01*
X8033Y2882D02*
Y2974D01*
X8041Y2982D01*
X7923Y3061D02*
Y3149D01*
X7923Y3149D02*
X7923Y3149D01*
X7845Y3229D02*
X7923D01*
X7845D02*
X7845Y3228D01*
X7854D01*
X8386Y2589D02*
Y2647D01*
Y2589D02*
X8386Y2589D01*
X8711Y2667D02*
Y2726D01*
Y2667D02*
X8711Y2667D01*
X8502Y2844D02*
X8533D01*
X8553Y2825D01*
Y2746D02*
Y2825D01*
X8604Y2807D02*
Y2844D01*
Y2807D02*
X8606Y2805D01*
X8711D01*
X8386Y2727D02*
Y2805D01*
X8388Y2807D02*
X8502D01*
X8386Y2805D02*
X8388Y2807D01*
X8502Y2882D02*
Y2974D01*
X8494Y2982D02*
X8502Y2974D01*
X8602Y2884D02*
Y2982D01*
Y2884D02*
X8604Y2882D01*
X8602Y2982D02*
X8671D01*
X8671Y2982D01*
X8602Y3061D02*
X8671D01*
X8671Y3061D01*
X8494Y3061D02*
Y3149D01*
X8494Y3149D02*
X8494Y3149D01*
X8426Y3229D02*
X8494D01*
X8425Y3228D02*
X8426Y3229D01*
X8041Y3061D02*
X8110D01*
X8110Y3061D01*
X7500Y2884D02*
X7815D01*
X7500Y2884D02*
X7500Y2884D01*
X8386D02*
Y3858D01*
X8386Y3858D02*
X8386Y3858D01*
X4212Y5354D02*
X4262Y5304D01*
Y4538D02*
Y5304D01*
Y4538D02*
X4420Y4380D01*
X5223Y5443D02*
X5312Y5354D01*
X3455Y5443D02*
X5223D01*
X3406Y5394D02*
X3455Y5443D01*
X3406Y5062D02*
Y5394D01*
Y5062D02*
X3409Y5058D01*
X5532Y2461D02*
Y2520D01*
X5531Y2520D02*
X5532Y2520D01*
X5925Y2461D02*
Y2500D01*
X5945Y2520D01*
X6989Y4606D02*
X7047D01*
X7047Y4606D01*
X6987Y4504D02*
Y4605D01*
X6989Y4606D01*
X6850Y4606D02*
X6909D01*
X6850Y4606D02*
X6850Y4606D01*
X6378Y5128D02*
X6437D01*
X6378Y5128D02*
X6378Y5128D01*
X6378Y5020D02*
X6437D01*
X6378Y5020D02*
X6378Y5020D01*
X6559Y4997D02*
X6617D01*
X6545Y4983D02*
X6559Y4997D01*
X6474Y4983D02*
X6545D01*
X6437Y5020D02*
X6474Y4983D01*
X6710Y5023D02*
X6749D01*
X6781Y5055D01*
Y5143D01*
X6791Y5020D02*
X6850D01*
X6791Y5020D02*
X6791Y5020D01*
X6973Y4997D02*
X7040D01*
X6958Y4983D02*
X6973Y4997D01*
X6887Y4983D02*
X6958D01*
X6850Y5020D02*
X6887Y4983D01*
X6535Y3061D02*
Y3120D01*
Y3061D02*
X6535Y3061D01*
X5197Y2116D02*
Y2175D01*
Y2116D02*
X5197Y2116D01*
X4901Y2185D02*
X5000D01*
X4901Y2185D02*
X4901Y2185D01*
X4901Y2126D02*
Y2185D01*
Y2126D02*
X4902Y2126D01*
X4695Y3376D02*
Y3445D01*
Y3376D02*
X4695Y3376D01*
X7727Y4636D02*
X7746D01*
X7795Y4685D01*
X6526Y4410D02*
X6584D01*
X6526Y4409D02*
X6526Y4410D01*
X6783Y3643D02*
Y3695D01*
X6781Y3642D02*
X6783Y3643D01*
X6516Y4764D02*
Y4822D01*
Y4764D02*
X6516Y4764D01*
X4803Y2953D02*
Y3011D01*
Y2953D02*
X4803Y2953D01*
X5295Y2953D02*
Y3011D01*
Y2953D02*
X5295Y2953D01*
X6773Y4354D02*
X6827D01*
X6831Y4350D01*
X6664Y4311D02*
X6860D01*
X6773Y4504D02*
X6834D01*
X6860Y4478D01*
X6861Y4311D02*
Y4363D01*
X6860Y4363D02*
X6861Y4363D01*
X6860Y4363D02*
Y4478D01*
X6861Y4311D02*
X6968Y4203D01*
X6624Y5128D02*
Y5242D01*
X6612Y5254D02*
X6624Y5242D01*
X7402Y2096D02*
X7470D01*
X7402Y2096D02*
X7402Y2096D01*
X5099Y3091D02*
X5148Y3140D01*
Y3150D01*
X7185Y4311D02*
X7244D01*
X7244Y4311D01*
X6710Y4924D02*
Y4971D01*
Y4924D02*
X6713Y4921D01*
X6634Y3081D02*
X6654Y3061D01*
X6634Y3081D02*
Y3120D01*
X3858Y4636D02*
X3917Y4695D01*
Y4882D01*
X2102Y1890D02*
X2299Y1693D01*
X2998Y1890D02*
X3175Y1713D01*
X3913Y1890D02*
X4074Y1730D01*
X2299Y1693D02*
X5108D01*
X5438Y2022D01*
Y2742D01*
X5104Y1713D02*
X5421Y2029D01*
Y2749D01*
X5097Y1730D02*
X5404Y2036D01*
Y2756D01*
X5472Y1850D02*
Y2677D01*
X5455Y1901D02*
Y2730D01*
X5335Y1713D02*
X5472Y1850D01*
X5335Y1713D02*
X5335D01*
X3175D02*
X5104D01*
X4074Y1730D02*
X5097D01*
X4981Y1781D02*
X4981Y1781D01*
X4981Y1644D02*
X4991Y1654D01*
X5276D01*
X5335Y1713D01*
X4233Y1654D02*
X4901D01*
X4233Y1653D02*
X4233Y1654D01*
X4981Y1781D02*
X4991Y1772D01*
X5049D01*
X5325D02*
X5455Y1901D01*
X4233Y1772D02*
X4901D01*
X4233Y1772D02*
X4233Y1772D01*
X1683Y4134D02*
X2825D01*
Y5394D01*
X1683D02*
X2825D01*
X1683Y4134D02*
Y5394D01*
X1378Y1575D02*
X9646D01*
Y5512D01*
X1378D02*
X9646D01*
X1378Y1575D02*
Y5512D01*
D49*
X8524Y5059D02*
X8593D01*
X3150Y4150D02*
X3153Y4154D01*
X3150Y4085D02*
Y4150D01*
X3130Y4065D02*
X3150Y4085D01*
X3130Y4025D02*
Y4065D01*
Y4025D02*
X3154Y4001D01*
Y3917D02*
Y4001D01*
X3780Y5266D02*
X3780Y5265D01*
X3051Y4026D02*
Y4151D01*
X3054Y3917D02*
Y4022D01*
X7089Y2630D02*
X7146D01*
X7047Y2589D02*
X7089Y2630D01*
X7047Y2513D02*
Y2589D01*
Y2513D02*
X7047Y2513D01*
X7854Y4784D02*
Y4882D01*
X10266Y2930D02*
X10333D01*
X10300D01*
Y2830D01*
X10416Y2930D02*
X10383D01*
X10366Y2913D01*
Y2846D01*
X10383Y2830D01*
X10416D01*
X10433Y2846D01*
Y2913D01*
X10416Y2930D01*
X10466Y2830D02*
Y2930D01*
X10516D01*
X10533Y2913D01*
Y2880D01*
X10516Y2863D01*
X10466D01*
X10256Y1675D02*
Y1575D01*
X10306D01*
X10323Y1591D01*
Y1608D01*
X10306Y1625D01*
X10256D01*
X10306D01*
X10323Y1641D01*
Y1658D01*
X10306Y1675D01*
X10256D01*
X10406D02*
X10373D01*
X10356Y1658D01*
Y1591D01*
X10373Y1575D01*
X10406D01*
X10423Y1591D01*
Y1658D01*
X10406Y1675D01*
X10456Y1575D02*
Y1641D01*
X10489Y1675D01*
X10523Y1641D01*
Y1575D01*
Y1625D01*
X10456D01*
X10556Y1575D02*
Y1675D01*
X10606D01*
X10623Y1658D01*
Y1625D01*
X10606Y1608D01*
X10556D01*
X10589D02*
X10623Y1575D01*
X10656Y1675D02*
Y1575D01*
X10706D01*
X10723Y1591D01*
Y1658D01*
X10706Y1675D01*
X10656D01*
X10906D02*
X10873D01*
X10856Y1658D01*
Y1591D01*
X10873Y1575D01*
X10906D01*
X10923Y1591D01*
Y1658D01*
X10906Y1675D01*
X10956D02*
Y1591D01*
X10973Y1575D01*
X11006D01*
X11023Y1591D01*
Y1675D01*
X11056D02*
X11123D01*
X11089D01*
Y1575D01*
X11156Y1675D02*
Y1575D01*
X11223D01*
X11256Y1675D02*
X11289D01*
X11273D01*
Y1575D01*
X11256D01*
X11289D01*
X11339D02*
Y1675D01*
X11406Y1575D01*
Y1675D01*
X11506D02*
X11439D01*
Y1575D01*
X11506D01*
X11439Y1625D02*
X11472D01*
D50*
X7972Y4734D02*
X8090D01*
X7933Y4695D02*
X7972Y4734D01*
X8090D02*
X8109Y4752D01*
X8031Y4882D02*
X8036Y4877D01*
X8089D01*
X4802Y3545D02*
X4917D01*
X4739Y3607D02*
X4802Y3545D01*
X5079Y3406D02*
Y5049D01*
X5098Y3337D02*
Y5045D01*
X5018Y3345D02*
X5079Y3406D01*
X5059Y3297D02*
X5098Y3337D01*
X8109Y4752D02*
Y4768D01*
X7933Y4685D02*
Y4695D01*
X4878Y4242D02*
X4961D01*
X4878Y4241D02*
X4878Y4242D01*
X5012Y5313D02*
Y5354D01*
X4969Y4191D02*
X5054Y4277D01*
X4878Y4191D02*
X4969D01*
X5012Y5313D02*
X5054Y5271D01*
Y4277D02*
Y5271D01*
X5266Y5300D02*
X5312Y5254D01*
X4862Y4547D02*
Y5384D01*
Y4547D02*
X4878Y4532D01*
Y4491D02*
Y4532D01*
X5266Y5300D02*
Y5374D01*
X5069Y5297D02*
X5112Y5254D01*
X5069Y5297D02*
Y5374D01*
X5012Y5179D02*
X5026Y5165D01*
X5012Y5179D02*
Y5254D01*
X5026Y4308D02*
Y5165D01*
X4961Y4242D02*
X5026Y4308D01*
X4971Y5198D02*
Y5371D01*
Y5198D02*
X5010Y5159D01*
Y4449D02*
Y5159D01*
X4951Y4390D02*
X5010Y4449D01*
X4879Y4390D02*
X4951D01*
X4878Y4391D02*
X4879Y4390D01*
X5112Y5311D02*
Y5354D01*
Y5311D02*
X5153Y5271D01*
X4917Y3345D02*
X5018D01*
X5212Y5311D02*
Y5354D01*
Y5311D02*
X5253Y5271D01*
Y5200D02*
Y5271D01*
X5098Y5045D02*
X5253Y5200D01*
X5059Y3297D02*
Y3297D01*
X5057Y3295D02*
X5059Y3297D01*
X4917Y3295D02*
X5057D01*
X4795Y4391D02*
X4878D01*
X4917Y3645D02*
Y3736D01*
X4921Y3740D01*
X5955Y5380D02*
X5988Y5413D01*
X5870Y5236D02*
X5895Y5212D01*
X5895D01*
X5576Y2722D02*
X5600Y2746D01*
X5927Y2803D02*
Y5180D01*
X5910Y2810D02*
Y5173D01*
X5895Y5212D02*
X5927Y5180D01*
X5853Y2729D02*
X5927Y2803D01*
X5846Y2746D02*
X5910Y2810D01*
X5607Y2729D02*
X5853D01*
X5600Y2746D02*
X5846D01*
X5593Y2418D02*
X5630Y2382D01*
X5576Y2426D02*
Y2722D01*
X5531Y2382D02*
X5576Y2426D01*
X5970Y5371D02*
X5995Y5396D01*
X5048Y5395D02*
X5069Y5374D01*
X4971Y5371D02*
X4995Y5395D01*
X5955Y5335D02*
Y5380D01*
X5970Y5329D02*
Y5371D01*
X5870Y5236D02*
Y5280D01*
X5886Y5296D01*
X5855Y5286D02*
X5880Y5311D01*
X5855Y5227D02*
X5910Y5173D01*
X5855Y5227D02*
Y5286D01*
X5215Y5425D02*
X5266Y5374D01*
X4995Y5395D02*
X5048D01*
X4862Y5384D02*
X4903Y5425D01*
X5215D01*
X5079Y5049D02*
X5153Y5124D01*
Y5271D01*
X5988Y5413D02*
X6053D01*
X6112Y5354D01*
X5995Y5396D02*
X6032D01*
X6054Y5373D01*
Y5324D02*
Y5373D01*
Y5324D02*
X6073Y5305D01*
X6161D01*
X6212Y5254D01*
X4739Y3607D02*
Y4336D01*
X4795Y4391D01*
X5593Y2418D02*
Y2715D01*
X5607Y2729D01*
X7726Y4744D02*
X7727Y4744D01*
X8012Y4833D02*
X8075D01*
X7982Y4862D02*
X8012Y4833D01*
X7982Y4862D02*
Y4902D01*
X7953Y4931D02*
X7982Y4902D01*
X7795Y4931D02*
X7953D01*
X7647Y4783D02*
X7795Y4931D01*
X7647Y4744D02*
Y4783D01*
X7727Y4744D02*
X7814D01*
X7854Y4784D01*
X7647Y4636D02*
Y4744D01*
X7647Y4744D02*
X7647Y4744D01*
X4724Y3601D02*
X4803Y3522D01*
X4989D01*
X4878Y4441D02*
X4953D01*
X4917Y3595D02*
X4978D01*
X4953Y4441D02*
X4995Y4483D01*
X4978Y3595D02*
X5010Y3563D01*
X4956Y5191D02*
X4995Y5152D01*
Y4483D02*
Y5152D01*
X4989Y3522D02*
X5010Y3543D01*
Y3563D01*
X4956Y5191D02*
Y5377D01*
X4989Y5410D01*
X5142D01*
X5167Y5298D02*
X5212Y5254D01*
X5142Y5410D02*
X5167Y5384D01*
Y5298D02*
Y5384D01*
X4637Y3514D02*
X4724Y3601D01*
X7707Y1959D02*
X7753D01*
X7677Y1988D02*
X7707Y1959D01*
X7274Y5354D02*
X7346Y5282D01*
Y3055D02*
Y5282D01*
X7283Y2992D02*
X7346Y3055D01*
X7283Y2835D02*
Y2992D01*
Y2835D02*
X7352Y2766D01*
Y1880D02*
Y2766D01*
Y1880D02*
X7382Y1850D01*
X7549D01*
X7579Y1880D01*
Y1936D01*
X7582Y1939D01*
X7677D02*
X7753D01*
X7785Y1978D02*
X7825Y1939D01*
X7753Y1978D02*
X7785D01*
X5931Y5311D02*
X5955Y5335D01*
X5937Y5296D02*
X5970Y5329D01*
X5886Y5296D02*
X5937D01*
X5880Y5311D02*
X5931D01*
X7753Y2018D02*
X7756D01*
X7785Y2047D01*
X7844D01*
X7874Y2018D01*
Y1860D02*
Y2018D01*
X7825Y1811D02*
X7874Y1860D01*
X7106Y1811D02*
X7825D01*
X7047Y1870D02*
X7106Y1811D01*
X7047Y1870D02*
Y2413D01*
X7047Y2413D01*
X7815Y2727D02*
Y2805D01*
X7815Y2805D02*
X7815Y2805D01*
X7817Y2807D02*
X7931D01*
X7815Y2805D02*
X7817Y2807D01*
X7931Y2882D02*
Y2974D01*
X7923Y2982D02*
X7931Y2974D01*
X8033Y2807D02*
Y2844D01*
Y2807D02*
X8138D01*
X8140Y2805D01*
X4675Y3671D02*
X4709Y3705D01*
Y4463D01*
X4737Y4491D01*
X4878D01*
X4724Y3601D02*
Y4390D01*
X4776Y4441D01*
X4878D01*
X7785Y2047D02*
Y2205D01*
X6112Y5354D02*
X6162Y5404D01*
X6358D01*
X6407Y5354D01*
D51*
X7402Y3975D02*
X7498Y3878D01*
X7402Y3975D02*
Y5433D01*
X3780Y5197D02*
Y5265D01*
X8268Y3858D02*
X8386D01*
X8268Y3858D02*
X8268Y3858D01*
X8220Y3811D02*
X8268Y3858D01*
X8150Y3811D02*
X8220D01*
X8098D02*
X8150D01*
X8043Y3756D02*
X8098Y3811D01*
X7953Y3622D02*
Y3756D01*
X7953Y3756D02*
X7953Y3756D01*
X7953Y3756D02*
Y4000D01*
X7953Y4000D01*
X7720D02*
X7953D01*
X7717Y3996D02*
X7720Y4000D01*
X7599Y3996D02*
X7717D01*
X7599Y3996D02*
X7599Y3996D01*
X7598Y3671D02*
Y3878D01*
X7599Y3878D02*
Y3996D01*
X7598Y3878D02*
X7599Y3878D01*
X7498Y3878D02*
Y3975D01*
X7519Y3996D01*
X8485Y3996D02*
X8661D01*
D52*
X8043Y3650D02*
Y3756D01*
Y3650D02*
X8051Y3642D01*
X8094Y4000D02*
X8150Y3945D01*
X7953Y4000D02*
X8094D01*
X8405Y3878D02*
Y3996D01*
X8386Y3858D02*
X8405Y3878D01*
D53*
X7638Y4870D02*
D03*
Y5327D02*
D03*
D54*
Y4980D02*
D03*
Y5098D02*
D03*
D55*
Y5217D02*
D03*
D56*
X8268Y3958D02*
D03*
X8386Y3858D02*
D03*
X7598Y3878D02*
D03*
X3565Y5256D02*
D03*
X4606Y4923D02*
D03*
Y4823D02*
D03*
D57*
X8268Y3858D02*
D03*
X4606Y5023D02*
D03*
D58*
X8486Y3858D02*
D03*
X7498Y3878D02*
D03*
X3465Y5256D02*
D03*
D59*
X7047Y2413D02*
D03*
X3154Y3917D02*
D03*
D60*
X7047Y2513D02*
D03*
Y2913D02*
D03*
Y3013D02*
D03*
X6747D02*
D03*
Y2913D02*
D03*
Y2513D02*
D03*
Y2413D02*
D03*
X2554Y3917D02*
D03*
X2654D02*
D03*
X2754D02*
D03*
X2854D02*
D03*
X2954D02*
D03*
X3054D02*
D03*
X5089Y2106D02*
D03*
X7043Y3301D02*
D03*
X4695Y3091D02*
D03*
X7785Y2205D02*
D03*
X4109Y4484D02*
D03*
X3917Y4882D02*
D03*
X4420Y4232D02*
D03*
X5404Y3091D02*
D03*
X6254Y5118D02*
D03*
X6407Y5354D02*
D03*
D61*
X6612Y5254D02*
D03*
Y5354D02*
D03*
X6712Y5254D02*
D03*
Y5354D02*
D03*
X6812Y5254D02*
D03*
Y5354D02*
D03*
X6912Y5254D02*
D03*
Y5354D02*
D03*
X7012Y5254D02*
D03*
Y5354D02*
D03*
X7112D02*
D03*
X5712Y5254D02*
D03*
Y5354D02*
D03*
X5812Y5254D02*
D03*
Y5354D02*
D03*
X5912Y5254D02*
D03*
Y5354D02*
D03*
X6012Y5254D02*
D03*
Y5354D02*
D03*
X6112Y5254D02*
D03*
Y5354D02*
D03*
X6212D02*
D03*
X4812Y5254D02*
D03*
Y5354D02*
D03*
X4912Y5254D02*
D03*
Y5354D02*
D03*
X5012Y5254D02*
D03*
Y5354D02*
D03*
X5112Y5254D02*
D03*
Y5354D02*
D03*
X5212Y5254D02*
D03*
Y5354D02*
D03*
X5312D02*
D03*
X3912Y5254D02*
D03*
Y5354D02*
D03*
X4012Y5254D02*
D03*
Y5354D02*
D03*
X4112Y5254D02*
D03*
Y5354D02*
D03*
X4212Y5254D02*
D03*
Y5354D02*
D03*
X4312Y5254D02*
D03*
Y5354D02*
D03*
X4412D02*
D03*
D62*
X7112Y5254D02*
D03*
X6212D02*
D03*
X5312D02*
D03*
X4412D02*
D03*
D63*
X6843Y1772D02*
D03*
X6543D02*
D03*
D64*
X6693Y2079D02*
D03*
D65*
X1529Y3892D02*
D03*
Y2334D02*
D03*
X4171Y3892D02*
D03*
Y2334D02*
D03*
D66*
X9508Y5374D02*
D03*
Y1713D02*
D03*
X1516D02*
D03*
Y5374D02*
D03*
X2972Y4764D02*
D03*
X1535D02*
D03*
D67*
X5197Y2933D02*
D03*
X5000D02*
D03*
X5098D02*
D03*
X5000Y2362D02*
D03*
D68*
X5197D02*
D03*
D69*
X5319Y2638D02*
D03*
X4878D02*
D03*
D70*
X3574Y4716D02*
D03*
X3374D02*
D03*
X3474Y4516D02*
D03*
D71*
X9214Y5123D02*
D03*
X9314Y4823D02*
D03*
X9114D02*
D03*
X9314Y2898D02*
D03*
X9114D02*
D03*
X9214Y2598D02*
D03*
D72*
X5827Y2520D02*
D03*
X5728Y2520D02*
D03*
X5413Y4724D02*
D03*
X3839Y5000D02*
D03*
X8337Y4193D02*
D03*
Y4537D02*
D03*
X8100Y4449D02*
D03*
X7923Y4360D02*
D03*
X8593Y5059D02*
D03*
X8219Y4596D02*
D03*
Y4498D02*
D03*
Y4400D02*
D03*
Y4301D02*
D03*
Y4203D02*
D03*
X8583Y4764D02*
D03*
X8051Y3504D02*
D03*
Y4764D02*
D03*
X8445Y5157D02*
D03*
X7854Y4882D02*
D03*
X8031Y4882D02*
D03*
X7795Y4980D02*
D03*
Y4685D02*
D03*
X7402Y5433D02*
D03*
X3780Y5266D02*
D03*
X5541Y1634D02*
D03*
X6201Y1673D02*
D03*
X6299Y2067D02*
D03*
X5974Y2165D02*
D03*
X5679D02*
D03*
X7717Y3858D02*
D03*
X5787Y3907D02*
D03*
X4872Y4045D02*
D03*
X5197Y3819D02*
D03*
X4921Y3199D02*
D03*
X4793Y4291D02*
D03*
X4262Y4321D02*
D03*
X3720Y4380D02*
D03*
X3996Y4774D02*
D03*
X3642Y5049D02*
D03*
X3130Y5030D02*
D03*
X6201Y1811D02*
D03*
X6122Y2520D02*
D03*
X5876Y2333D02*
D03*
X5177Y4724D02*
D03*
X5276Y3819D02*
D03*
X1732Y2047D02*
D03*
X2618D02*
D03*
X3543D02*
D03*
X4419Y2884D02*
D03*
Y3898D02*
D03*
X4055Y4636D02*
D03*
X4921Y3740D02*
D03*
X5768Y2579D02*
D03*
X6053D02*
D03*
X6299Y2687D02*
D03*
X6053D02*
D03*
X7923Y4272D02*
D03*
Y4508D02*
D03*
X7992Y4567D02*
D03*
X8002Y4449D02*
D03*
X8022Y5030D02*
D03*
Y5079D02*
D03*
Y5128D02*
D03*
X7815Y5039D02*
D03*
X8219Y4104D02*
D03*
X5364Y3593D02*
D03*
X5187Y3494D02*
D03*
Y3543D02*
D03*
X5689Y3386D02*
D03*
X7185Y5128D02*
D03*
X6988D02*
D03*
X7195Y4970D02*
D03*
X6388Y3652D02*
D03*
X6526Y3789D02*
D03*
X7087Y3730D02*
D03*
X7224Y3799D02*
D03*
X6752Y3219D02*
D03*
X6801Y3445D02*
D03*
X6998D02*
D03*
X6447Y3406D02*
D03*
X7244Y3022D02*
D03*
X7579Y2234D02*
D03*
X7470D02*
D03*
X7825Y1998D02*
D03*
X4744Y3533D02*
D03*
X4637Y3514D02*
D03*
X4675Y3671D02*
D03*
X7677Y1988D02*
D03*
X7402Y1900D02*
D03*
X7677Y1939D02*
D03*
X7825D02*
D03*
X6673Y2933D02*
D03*
X7815Y2589D02*
D03*
X8140Y2667D02*
D03*
X7982Y2746D02*
D03*
X8110Y2982D02*
D03*
X7854Y3228D02*
D03*
X8386Y2589D02*
D03*
X8711Y2667D02*
D03*
X8553Y2746D02*
D03*
X8671Y2982D02*
D03*
Y3061D02*
D03*
X8425Y3228D02*
D03*
X8110Y3061D02*
D03*
X7500Y2884D02*
D03*
X5531Y2520D02*
D03*
X5945D02*
D03*
X7047Y4606D02*
D03*
X6850D02*
D03*
X6378Y5128D02*
D03*
Y5020D02*
D03*
X6791D02*
D03*
X6535Y3061D02*
D03*
X5197Y2116D02*
D03*
X4902Y2126D02*
D03*
X4695Y3376D02*
D03*
X6526Y4409D02*
D03*
X6781Y3642D02*
D03*
X6516Y4764D02*
D03*
X4803Y2953D02*
D03*
X5295D02*
D03*
X6831Y4350D02*
D03*
X7402Y2096D02*
D03*
X5148Y3150D02*
D03*
X7244Y4311D02*
D03*
X6713Y4921D02*
D03*
X6654Y3061D02*
D03*
X6171Y3878D02*
D03*
X5049Y1772D02*
D03*
X5325D02*
D03*
X4154D02*
D03*
Y1654D02*
D03*
M02*
