G04*
G04 #@! TF.GenerationSoftware,Altium Limited,CircuitStudio,1.5.1 (13)*
G04*
G04 Layer_Color=15065295*
%FSLAX23Y23*%
%MOIN*%
G70*
G01*
G75*
%ADD48C,0.010*%
%ADD49C,0.020*%
%ADD73C,0.008*%
%ADD74C,0.010*%
%ADD75C,0.004*%
%ADD76C,0.015*%
%ADD77C,0.005*%
%ADD78C,0.006*%
G36*
X8195Y1909D02*
X8189D01*
Y1947D01*
X8176Y1909D01*
X8171D01*
X8158Y1948D01*
Y1909D01*
X8152D01*
Y1954D01*
X8161D01*
X8171Y1922D01*
Y1922D01*
X8171Y1922D01*
X8172Y1922D01*
X8172Y1922D01*
X8172Y1921D01*
X8172Y1920D01*
X8173Y1919D01*
X8173Y1918D01*
X8173Y1917D01*
X8174Y1916D01*
X8174Y1916D01*
X8174Y1916D01*
X8174Y1917D01*
X8174Y1918D01*
X8174Y1919D01*
X8175Y1920D01*
X8175Y1921D01*
X8176Y1923D01*
X8187Y1954D01*
X8195D01*
Y1909D01*
D02*
G37*
G36*
X8115Y1943D02*
X8116Y1943D01*
X8117Y1942D01*
X8118Y1942D01*
X8119Y1942D01*
X8120Y1942D01*
X8120D01*
X8120Y1941D01*
X8120Y1941D01*
X8121Y1941D01*
X8122Y1941D01*
X8122Y1940D01*
X8123Y1940D01*
X8124Y1939D01*
X8124Y1939D01*
X8124Y1938D01*
X8124Y1938D01*
X8125Y1938D01*
X8125Y1937D01*
X8125Y1936D01*
X8126Y1936D01*
X8126Y1935D01*
X8126Y1934D01*
X8121Y1933D01*
Y1933D01*
X8121Y1933D01*
X8121Y1934D01*
X8120Y1934D01*
X8120Y1935D01*
X8120Y1935D01*
X8119Y1936D01*
X8119Y1937D01*
X8119Y1937D01*
X8118Y1937D01*
X8118Y1937D01*
X8117Y1937D01*
X8117Y1938D01*
X8116Y1938D01*
X8115Y1938D01*
X8114Y1938D01*
X8113D01*
X8112Y1938D01*
X8112Y1938D01*
X8111Y1938D01*
X8110Y1938D01*
X8109Y1937D01*
X8108Y1937D01*
X8108Y1937D01*
X8108Y1937D01*
X8108Y1936D01*
X8107Y1936D01*
X8107Y1936D01*
X8107Y1935D01*
X8107Y1935D01*
X8107Y1934D01*
Y1934D01*
Y1934D01*
X8107Y1934D01*
Y1933D01*
X8107Y1933D01*
X8107Y1932D01*
X8107Y1932D01*
X8107Y1932D01*
X8108Y1932D01*
X8108Y1931D01*
X8108Y1931D01*
X8108Y1931D01*
X8109Y1931D01*
X8109Y1931D01*
X8109D01*
X8110Y1931D01*
X8110Y1930D01*
X8110Y1930D01*
X8111Y1930D01*
X8112Y1930D01*
X8112Y1930D01*
X8113Y1930D01*
X8114Y1929D01*
X8114Y1929D01*
X8114D01*
X8115Y1929D01*
X8115Y1929D01*
X8115Y1929D01*
X8116Y1929D01*
X8116Y1929D01*
X8118Y1928D01*
X8119Y1928D01*
X8120Y1927D01*
X8121Y1927D01*
X8122Y1927D01*
X8122Y1927D01*
X8123Y1926D01*
X8123Y1926D01*
X8123Y1926D01*
X8124Y1926D01*
X8124Y1925D01*
X8125Y1925D01*
X8126Y1924D01*
X8126Y1924D01*
X8126Y1924D01*
X8126Y1923D01*
X8127Y1923D01*
X8127Y1922D01*
X8127Y1922D01*
X8127Y1921D01*
X8127Y1920D01*
X8127Y1919D01*
Y1919D01*
Y1919D01*
X8127Y1918D01*
X8127Y1917D01*
X8127Y1917D01*
X8127Y1916D01*
X8126Y1915D01*
X8126Y1914D01*
X8126Y1914D01*
X8125Y1913D01*
X8125Y1913D01*
X8125Y1912D01*
X8124Y1912D01*
X8123Y1911D01*
X8122Y1911D01*
X8121Y1910D01*
X8121D01*
X8121Y1910D01*
X8121Y1910D01*
X8120Y1910D01*
X8119Y1909D01*
X8118Y1909D01*
X8117Y1909D01*
X8116Y1909D01*
X8114Y1909D01*
X8114D01*
X8113Y1909D01*
X8113D01*
X8112Y1909D01*
X8111Y1909D01*
X8111Y1909D01*
X8109Y1909D01*
X8108Y1910D01*
X8106Y1910D01*
X8105Y1911D01*
X8105Y1911D01*
X8105Y1911D01*
X8104Y1911D01*
X8104Y1912D01*
X8104Y1912D01*
X8103Y1913D01*
X8102Y1914D01*
X8101Y1916D01*
X8101Y1917D01*
X8100Y1919D01*
X8106Y1920D01*
Y1920D01*
Y1920D01*
X8106Y1919D01*
X8106Y1919D01*
X8106Y1918D01*
X8107Y1917D01*
X8107Y1917D01*
X8108Y1916D01*
X8108Y1915D01*
X8109Y1915D01*
X8109Y1915D01*
X8109Y1914D01*
X8110Y1914D01*
X8111Y1914D01*
X8112Y1914D01*
X8113Y1913D01*
X8114Y1913D01*
X8115D01*
X8116Y1913D01*
X8116Y1913D01*
X8117Y1914D01*
X8118Y1914D01*
X8119Y1914D01*
X8120Y1915D01*
X8120Y1915D01*
X8120Y1915D01*
X8121Y1915D01*
X8121Y1916D01*
X8121Y1916D01*
X8122Y1917D01*
X8122Y1918D01*
X8122Y1918D01*
Y1918D01*
Y1919D01*
X8122Y1919D01*
X8122Y1919D01*
X8121Y1920D01*
X8121Y1920D01*
X8121Y1921D01*
X8120Y1921D01*
X8120Y1921D01*
X8120Y1921D01*
X8120Y1922D01*
X8119Y1922D01*
X8118Y1922D01*
X8118Y1922D01*
X8117Y1922D01*
X8117Y1923D01*
X8116Y1923D01*
X8115Y1923D01*
X8114Y1923D01*
X8114D01*
X8114Y1923D01*
X8114Y1923D01*
X8114Y1923D01*
X8113Y1924D01*
X8112Y1924D01*
X8111Y1924D01*
X8110Y1925D01*
X8108Y1925D01*
X8107Y1925D01*
X8107Y1926D01*
X8106Y1926D01*
X8106Y1926D01*
X8106Y1926D01*
X8105Y1926D01*
X8105Y1927D01*
X8104Y1927D01*
X8104Y1928D01*
X8103Y1928D01*
X8102Y1929D01*
X8102Y1929D01*
X8102Y1929D01*
X8102Y1930D01*
X8102Y1930D01*
X8102Y1931D01*
X8102Y1932D01*
X8101Y1932D01*
X8101Y1933D01*
Y1933D01*
Y1934D01*
X8101Y1934D01*
X8101Y1935D01*
X8102Y1935D01*
X8102Y1936D01*
X8102Y1937D01*
X8102Y1937D01*
X8102Y1937D01*
X8102Y1938D01*
X8103Y1938D01*
X8103Y1938D01*
X8103Y1939D01*
X8104Y1939D01*
X8104Y1940D01*
X8105Y1940D01*
X8105Y1940D01*
X8105Y1941D01*
X8106Y1941D01*
X8106Y1941D01*
X8106Y1941D01*
X8107Y1941D01*
X8108Y1942D01*
X8109Y1942D01*
X8109Y1942D01*
X8109Y1942D01*
X8109Y1942D01*
X8110Y1942D01*
X8111Y1942D01*
X8111Y1943D01*
X8112Y1943D01*
X8114D01*
X8115Y1943D01*
D02*
G37*
G36*
X8421D02*
X8422Y1943D01*
X8423Y1942D01*
X8424Y1942D01*
X8425Y1942D01*
X8426Y1942D01*
X8426Y1942D01*
X8427Y1941D01*
X8427Y1941D01*
X8428Y1941D01*
X8428Y1941D01*
X8429Y1940D01*
X8430Y1940D01*
X8430Y1939D01*
X8430Y1939D01*
X8430Y1939D01*
X8431Y1939D01*
X8431Y1938D01*
X8431Y1938D01*
X8431Y1937D01*
X8432Y1936D01*
X8432Y1935D01*
Y1935D01*
X8432Y1935D01*
X8432Y1935D01*
X8432Y1934D01*
Y1934D01*
X8432Y1933D01*
X8432Y1932D01*
Y1930D01*
Y1923D01*
Y1923D01*
Y1923D01*
Y1922D01*
Y1922D01*
Y1921D01*
Y1921D01*
X8432Y1919D01*
Y1917D01*
X8432Y1916D01*
X8432Y1915D01*
Y1914D01*
X8432Y1914D01*
X8432Y1913D01*
Y1913D01*
X8433Y1913D01*
X8433Y1913D01*
X8433Y1912D01*
X8433Y1912D01*
X8433Y1911D01*
X8433Y1910D01*
X8434Y1909D01*
X8428D01*
X8428Y1910D01*
X8428Y1910D01*
X8428Y1910D01*
X8428Y1911D01*
X8427Y1911D01*
X8427Y1912D01*
X8427Y1913D01*
X8427Y1914D01*
X8427D01*
X8427Y1913D01*
X8426Y1913D01*
X8426Y1913D01*
X8425Y1912D01*
X8424Y1911D01*
X8423Y1911D01*
X8422Y1910D01*
X8421Y1910D01*
X8421Y1910D01*
X8421Y1910D01*
X8420Y1909D01*
X8419Y1909D01*
X8418Y1909D01*
X8417Y1909D01*
X8416Y1909D01*
X8415Y1909D01*
X8414D01*
X8414Y1909D01*
X8414D01*
X8413Y1909D01*
X8412Y1909D01*
X8411Y1909D01*
X8409Y1910D01*
X8408Y1910D01*
X8407Y1911D01*
X8407Y1911D01*
X8406Y1912D01*
X8406Y1912D01*
X8405Y1913D01*
X8405Y1914D01*
X8404Y1915D01*
X8404Y1917D01*
X8404Y1917D01*
X8404Y1918D01*
Y1918D01*
Y1918D01*
X8404Y1919D01*
X8404Y1919D01*
X8404Y1920D01*
X8404Y1921D01*
X8405Y1922D01*
X8405Y1922D01*
X8405Y1922D01*
X8405Y1923D01*
X8405Y1923D01*
X8406Y1924D01*
X8406Y1924D01*
X8407Y1925D01*
X8407Y1925D01*
X8408Y1926D01*
X8408Y1926D01*
X8408Y1926D01*
X8408Y1926D01*
X8409Y1926D01*
X8410Y1926D01*
X8410Y1927D01*
X8411Y1927D01*
X8412Y1927D01*
X8412D01*
X8412Y1927D01*
X8412Y1928D01*
X8413Y1928D01*
X8414Y1928D01*
X8414Y1928D01*
X8415Y1928D01*
X8417Y1928D01*
X8417D01*
X8417Y1928D01*
X8417D01*
X8418Y1928D01*
X8418Y1928D01*
X8419Y1928D01*
X8420Y1929D01*
X8420Y1929D01*
X8422Y1929D01*
X8424Y1929D01*
X8425Y1930D01*
X8426Y1930D01*
X8426Y1930D01*
Y1930D01*
Y1930D01*
X8427Y1931D01*
Y1931D01*
Y1931D01*
Y1932D01*
Y1932D01*
Y1932D01*
Y1932D01*
X8426Y1933D01*
X8426Y1933D01*
X8426Y1934D01*
X8426Y1935D01*
X8425Y1936D01*
X8425Y1936D01*
X8425Y1936D01*
X8425Y1937D01*
X8424Y1937D01*
X8423Y1937D01*
X8422Y1938D01*
X8421Y1938D01*
X8420Y1938D01*
X8419Y1938D01*
X8418D01*
X8417Y1938D01*
X8416Y1938D01*
X8416Y1938D01*
X8415Y1938D01*
X8414Y1937D01*
X8413Y1937D01*
X8413Y1937D01*
X8413Y1937D01*
X8412Y1936D01*
X8412Y1936D01*
X8411Y1935D01*
X8411Y1934D01*
X8411Y1933D01*
X8410Y1932D01*
X8405Y1933D01*
Y1933D01*
X8405Y1933D01*
Y1933D01*
X8405Y1933D01*
X8405Y1934D01*
X8405Y1935D01*
X8406Y1936D01*
X8406Y1936D01*
X8407Y1937D01*
X8407Y1938D01*
X8407Y1938D01*
X8408Y1939D01*
X8408Y1939D01*
X8408Y1939D01*
X8409Y1940D01*
X8410Y1940D01*
X8411Y1941D01*
X8412Y1942D01*
X8412D01*
X8412Y1942D01*
X8412Y1942D01*
X8413Y1942D01*
X8413Y1942D01*
X8414Y1942D01*
X8415Y1942D01*
X8417Y1942D01*
X8418Y1943D01*
X8419Y1943D01*
X8420D01*
X8421Y1943D01*
D02*
G37*
G36*
X8446Y1909D02*
X8440D01*
Y1954D01*
X8446D01*
Y1909D01*
D02*
G37*
G36*
X8024D02*
X8019D01*
Y1914D01*
X8019Y1913D01*
X8019Y1913D01*
X8019Y1913D01*
X8018Y1913D01*
X8018Y1912D01*
X8018Y1912D01*
X8017Y1912D01*
X8017Y1911D01*
X8016Y1911D01*
X8015Y1910D01*
X8015Y1910D01*
X8014Y1910D01*
X8013Y1909D01*
X8012Y1909D01*
X8011Y1909D01*
X8010Y1909D01*
X8009D01*
X8009Y1909D01*
X8008Y1909D01*
X8008Y1909D01*
X8006Y1909D01*
X8005Y1910D01*
X8004Y1910D01*
X8003Y1911D01*
X8003D01*
X8003Y1911D01*
X8002Y1911D01*
X8002Y1912D01*
X8001Y1912D01*
X8000Y1913D01*
X7999Y1914D01*
X7998Y1915D01*
X7998Y1917D01*
Y1917D01*
X7998Y1917D01*
X7998Y1917D01*
X7997Y1917D01*
X7997Y1918D01*
X7997Y1918D01*
X7997Y1919D01*
X7997Y1919D01*
X7997Y1921D01*
X7996Y1922D01*
X7996Y1924D01*
X7996Y1926D01*
Y1926D01*
Y1926D01*
Y1926D01*
Y1926D01*
X7996Y1927D01*
Y1927D01*
X7996Y1929D01*
X7996Y1930D01*
X7997Y1931D01*
X7997Y1933D01*
X7998Y1934D01*
Y1935D01*
X7998Y1935D01*
X7998Y1935D01*
X7998Y1935D01*
X7998Y1936D01*
X7999Y1937D01*
X7999Y1938D01*
X8000Y1939D01*
X8001Y1940D01*
X8002Y1941D01*
X8003D01*
X8003Y1941D01*
X8003Y1941D01*
X8003Y1941D01*
X8004Y1941D01*
X8005Y1942D01*
X8006Y1942D01*
X8007Y1942D01*
X8008Y1943D01*
X8010Y1943D01*
X8010D01*
X8011Y1943D01*
X8011Y1943D01*
X8012Y1942D01*
X8013Y1942D01*
X8014Y1942D01*
X8015Y1941D01*
X8015Y1941D01*
X8015Y1941D01*
X8016Y1941D01*
X8016Y1941D01*
X8017Y1940D01*
X8017Y1940D01*
X8018Y1939D01*
X8019Y1938D01*
Y1954D01*
X8024D01*
Y1909D01*
D02*
G37*
G36*
X9513Y2087D02*
X9514D01*
X9516Y2087D01*
X9518Y2087D01*
X9520Y2086D01*
X9522Y2085D01*
X9525Y2084D01*
X9527Y2083D01*
X9530Y2082D01*
X9533Y2080D01*
X9536Y2078D01*
X9539Y2076D01*
X9541Y2073D01*
X9544Y2070D01*
Y2085D01*
X9570D01*
Y1989D01*
Y1989D01*
Y1988D01*
Y1988D01*
Y1986D01*
Y1985D01*
X9570Y1983D01*
X9570Y1979D01*
X9569Y1974D01*
X9569Y1969D01*
X9568Y1965D01*
X9567Y1963D01*
X9567Y1961D01*
X9567Y1961D01*
X9566Y1960D01*
X9566Y1958D01*
X9565Y1956D01*
X9563Y1953D01*
X9562Y1951D01*
X9560Y1949D01*
X9558Y1946D01*
X9558Y1946D01*
X9557Y1946D01*
X9556Y1944D01*
X9554Y1943D01*
X9552Y1942D01*
X9549Y1941D01*
X9546Y1939D01*
X9543Y1938D01*
X9543Y1938D01*
X9541Y1938D01*
X9539Y1937D01*
X9537Y1937D01*
X9533Y1936D01*
X9529Y1935D01*
X9524Y1935D01*
X9519Y1935D01*
X9517D01*
X9515Y1935D01*
X9513D01*
X9510Y1935D01*
X9507Y1936D01*
X9504Y1936D01*
X9498Y1937D01*
X9491Y1939D01*
X9489Y1940D01*
X9486Y1941D01*
X9483Y1943D01*
X9481Y1944D01*
X9480Y1944D01*
X9480Y1945D01*
X9479Y1946D01*
X9477Y1948D01*
X9475Y1951D01*
X9473Y1954D01*
X9471Y1958D01*
X9470Y1963D01*
X9470Y1965D01*
X9469Y1968D01*
Y1968D01*
Y1969D01*
Y1970D01*
X9470Y1971D01*
X9502Y1967D01*
Y1967D01*
X9502Y1967D01*
X9502Y1966D01*
X9503Y1965D01*
X9504Y1962D01*
X9504Y1961D01*
X9506Y1960D01*
X9506Y1960D01*
X9506Y1959D01*
X9507Y1959D01*
X9509Y1958D01*
X9510Y1958D01*
X9513Y1957D01*
X9515Y1957D01*
X9518Y1957D01*
X9520D01*
X9522Y1957D01*
X9524Y1957D01*
X9527Y1957D01*
X9530Y1958D01*
X9532Y1959D01*
X9535Y1960D01*
X9535Y1960D01*
X9535Y1960D01*
X9536Y1961D01*
X9537Y1962D01*
X9538Y1963D01*
X9539Y1964D01*
X9539Y1966D01*
X9540Y1967D01*
Y1967D01*
X9540Y1968D01*
X9541Y1969D01*
X9541Y1970D01*
X9541Y1972D01*
X9542Y1974D01*
X9542Y1977D01*
Y1980D01*
Y1996D01*
X9542Y1995D01*
X9541Y1995D01*
X9540Y1994D01*
X9539Y1993D01*
X9538Y1992D01*
X9537Y1990D01*
X9535Y1989D01*
X9533Y1987D01*
X9531Y1985D01*
X9528Y1984D01*
X9523Y1981D01*
X9520Y1980D01*
X9517Y1979D01*
X9513Y1979D01*
X9510Y1978D01*
X9509D01*
X9508Y1979D01*
X9506D01*
X9504Y1979D01*
X9502Y1979D01*
X9500Y1980D01*
X9497Y1981D01*
X9495Y1982D01*
X9492Y1983D01*
X9489Y1984D01*
X9486Y1986D01*
X9484Y1988D01*
X9481Y1990D01*
X9478Y1993D01*
X9476Y1996D01*
Y1997D01*
X9475Y1997D01*
X9475Y1998D01*
X9474Y1999D01*
X9473Y2000D01*
X9473Y2002D01*
X9472Y2004D01*
X9471Y2006D01*
X9470Y2009D01*
X9469Y2012D01*
X9468Y2015D01*
X9467Y2018D01*
X9466Y2025D01*
X9466Y2028D01*
X9466Y2032D01*
Y2032D01*
Y2033D01*
Y2035D01*
X9466Y2037D01*
X9466Y2039D01*
X9467Y2041D01*
X9467Y2044D01*
X9468Y2047D01*
X9469Y2054D01*
X9470Y2058D01*
X9471Y2061D01*
X9473Y2064D01*
X9474Y2068D01*
X9476Y2071D01*
X9479Y2073D01*
X9479Y2074D01*
X9479Y2074D01*
X9480Y2075D01*
X9481Y2076D01*
X9482Y2077D01*
X9484Y2078D01*
X9486Y2079D01*
X9488Y2081D01*
X9490Y2082D01*
X9492Y2083D01*
X9498Y2085D01*
X9501Y2086D01*
X9504Y2087D01*
X9507Y2087D01*
X9511Y2088D01*
X9512D01*
X9513Y2087D01*
D02*
G37*
G36*
X9025D02*
X9027Y2087D01*
X9029Y2087D01*
X9031Y2086D01*
X9034Y2086D01*
X9037Y2085D01*
X9040Y2084D01*
X9043Y2082D01*
X9047Y2081D01*
X9050Y2079D01*
X9052Y2077D01*
X9055Y2074D01*
X9058Y2072D01*
X9058Y2071D01*
X9059Y2071D01*
X9059Y2070D01*
X9060Y2069D01*
X9061Y2067D01*
X9062Y2065D01*
X9064Y2062D01*
X9065Y2060D01*
X9066Y2056D01*
X9067Y2053D01*
X9068Y2049D01*
X9070Y2045D01*
X9070Y2040D01*
X9071Y2035D01*
X9071Y2029D01*
Y2023D01*
X9001D01*
Y2023D01*
Y2023D01*
Y2022D01*
X9001Y2021D01*
X9001Y2019D01*
X9002Y2016D01*
X9002Y2013D01*
X9004Y2010D01*
X9005Y2007D01*
X9007Y2004D01*
X9008Y2004D01*
X9009Y2003D01*
X9010Y2002D01*
X9012Y2000D01*
X9014Y1999D01*
X9017Y1998D01*
X9020Y1997D01*
X9024Y1997D01*
X9025D01*
X9026Y1997D01*
X9028Y1998D01*
X9029Y1998D01*
X9031Y1999D01*
X9033Y1999D01*
X9035Y2001D01*
X9035Y2001D01*
X9036Y2001D01*
X9037Y2002D01*
X9037Y2003D01*
X9039Y2005D01*
X9040Y2007D01*
X9041Y2010D01*
X9042Y2012D01*
X9070Y2008D01*
Y2008D01*
X9070Y2007D01*
X9069Y2006D01*
X9069Y2005D01*
X9068Y2004D01*
X9068Y2002D01*
X9066Y1999D01*
X9063Y1995D01*
X9060Y1991D01*
X9057Y1988D01*
X9053Y1984D01*
X9052D01*
X9052Y1984D01*
X9051Y1983D01*
X9051Y1983D01*
X9050Y1982D01*
X9048Y1982D01*
X9047Y1981D01*
X9045Y1980D01*
X9040Y1979D01*
X9035Y1977D01*
X9030Y1976D01*
X9024Y1976D01*
X9022D01*
X9021Y1976D01*
X9019D01*
X9017Y1977D01*
X9014Y1977D01*
X9011Y1977D01*
X9008Y1978D01*
X9005Y1979D01*
X9001Y1980D01*
X8998Y1982D01*
X8994Y1984D01*
X8991Y1986D01*
X8988Y1988D01*
X8985Y1991D01*
X8982Y1994D01*
X8982Y1994D01*
X8982Y1995D01*
X8981Y1996D01*
X8981Y1997D01*
X8980Y1998D01*
X8979Y2000D01*
X8978Y2002D01*
X8977Y2004D01*
X8976Y2007D01*
X8975Y2009D01*
X8974Y2012D01*
X8973Y2016D01*
X8973Y2019D01*
X8972Y2023D01*
X8972Y2027D01*
X8972Y2031D01*
Y2031D01*
Y2032D01*
Y2033D01*
X8972Y2035D01*
X8972Y2038D01*
X8972Y2040D01*
X8973Y2043D01*
X8973Y2046D01*
X8975Y2053D01*
X8976Y2056D01*
X8978Y2060D01*
X8979Y2063D01*
X8981Y2066D01*
X8983Y2069D01*
X8986Y2072D01*
X8986Y2073D01*
X8986Y2073D01*
X8987Y2074D01*
X8988Y2075D01*
X8989Y2076D01*
X8991Y2077D01*
X8993Y2079D01*
X8995Y2080D01*
X8998Y2081D01*
X9000Y2083D01*
X9003Y2084D01*
X9006Y2085D01*
X9009Y2086D01*
X9013Y2087D01*
X9017Y2087D01*
X9021Y2088D01*
X9023D01*
X9025Y2087D01*
D02*
G37*
G36*
X8265Y1909D02*
X8259D01*
Y1914D01*
X8259Y1913D01*
X8259Y1913D01*
X8259Y1913D01*
X8259Y1913D01*
X8259Y1912D01*
X8258Y1912D01*
X8258Y1912D01*
X8257Y1911D01*
X8257Y1911D01*
X8256Y1910D01*
X8255Y1910D01*
X8254Y1910D01*
X8253Y1909D01*
X8252Y1909D01*
X8251Y1909D01*
X8250Y1909D01*
X8250D01*
X8250Y1909D01*
X8249Y1909D01*
X8248Y1909D01*
X8247Y1909D01*
X8246Y1910D01*
X8244Y1910D01*
X8243Y1911D01*
X8243D01*
X8243Y1911D01*
X8243Y1911D01*
X8242Y1912D01*
X8241Y1912D01*
X8241Y1913D01*
X8240Y1914D01*
X8239Y1915D01*
X8238Y1917D01*
Y1917D01*
X8238Y1917D01*
X8238Y1917D01*
X8238Y1917D01*
X8238Y1918D01*
X8238Y1918D01*
X8237Y1919D01*
X8237Y1919D01*
X8237Y1921D01*
X8237Y1922D01*
X8236Y1924D01*
X8236Y1926D01*
Y1926D01*
Y1926D01*
Y1926D01*
Y1926D01*
X8236Y1927D01*
Y1927D01*
X8237Y1929D01*
X8237Y1930D01*
X8237Y1931D01*
X8238Y1933D01*
X8238Y1934D01*
Y1935D01*
X8238Y1935D01*
X8238Y1935D01*
X8238Y1935D01*
X8239Y1936D01*
X8239Y1937D01*
X8240Y1938D01*
X8241Y1939D01*
X8242Y1940D01*
X8243Y1941D01*
X8243D01*
X8243Y1941D01*
X8243Y1941D01*
X8243Y1941D01*
X8244Y1941D01*
X8245Y1942D01*
X8246Y1942D01*
X8247Y1942D01*
X8249Y1943D01*
X8250Y1943D01*
X8251D01*
X8251Y1943D01*
X8252Y1943D01*
X8253Y1942D01*
X8254Y1942D01*
X8255Y1942D01*
X8255Y1941D01*
X8255Y1941D01*
X8256Y1941D01*
X8256Y1941D01*
X8257Y1941D01*
X8257Y1940D01*
X8258Y1940D01*
X8259Y1939D01*
X8259Y1938D01*
Y1954D01*
X8265D01*
Y1909D01*
D02*
G37*
G36*
X8712Y2087D02*
X8713D01*
X8715Y2087D01*
X8717Y2087D01*
X8719Y2086D01*
X8721Y2085D01*
X8724Y2084D01*
X8726Y2083D01*
X8729Y2082D01*
X8732Y2080D01*
X8735Y2078D01*
X8737Y2076D01*
X8740Y2073D01*
X8743Y2070D01*
Y2085D01*
X8769D01*
Y1989D01*
Y1989D01*
Y1988D01*
Y1988D01*
Y1986D01*
Y1985D01*
X8769Y1983D01*
X8768Y1979D01*
X8768Y1974D01*
X8768Y1969D01*
X8767Y1965D01*
X8766Y1963D01*
X8766Y1961D01*
X8765Y1961D01*
X8765Y1960D01*
X8764Y1958D01*
X8763Y1956D01*
X8762Y1953D01*
X8761Y1951D01*
X8759Y1949D01*
X8757Y1946D01*
X8757Y1946D01*
X8756Y1946D01*
X8754Y1944D01*
X8753Y1943D01*
X8751Y1942D01*
X8748Y1941D01*
X8745Y1939D01*
X8742Y1938D01*
X8741Y1938D01*
X8740Y1938D01*
X8738Y1937D01*
X8735Y1937D01*
X8732Y1936D01*
X8728Y1935D01*
X8723Y1935D01*
X8718Y1935D01*
X8715D01*
X8714Y1935D01*
X8711D01*
X8709Y1935D01*
X8706Y1936D01*
X8703Y1936D01*
X8697Y1937D01*
X8690Y1939D01*
X8687Y1940D01*
X8684Y1941D01*
X8682Y1943D01*
X8679Y1944D01*
X8679Y1944D01*
X8679Y1945D01*
X8678Y1946D01*
X8676Y1948D01*
X8674Y1951D01*
X8672Y1954D01*
X8670Y1958D01*
X8669Y1963D01*
X8668Y1965D01*
X8668Y1968D01*
Y1968D01*
Y1969D01*
Y1970D01*
X8668Y1971D01*
X8701Y1967D01*
Y1967D01*
X8701Y1967D01*
X8701Y1966D01*
X8701Y1965D01*
X8702Y1962D01*
X8703Y1961D01*
X8704Y1960D01*
X8705Y1960D01*
X8705Y1959D01*
X8706Y1959D01*
X8708Y1958D01*
X8709Y1958D01*
X8711Y1957D01*
X8714Y1957D01*
X8717Y1957D01*
X8719D01*
X8721Y1957D01*
X8723Y1957D01*
X8726Y1957D01*
X8729Y1958D01*
X8731Y1959D01*
X8734Y1960D01*
X8734Y1960D01*
X8734Y1960D01*
X8735Y1961D01*
X8736Y1962D01*
X8737Y1963D01*
X8737Y1964D01*
X8738Y1966D01*
X8739Y1967D01*
Y1967D01*
X8739Y1968D01*
X8740Y1969D01*
X8740Y1970D01*
X8740Y1972D01*
X8740Y1974D01*
X8741Y1977D01*
Y1980D01*
Y1996D01*
X8740Y1995D01*
X8740Y1995D01*
X8739Y1994D01*
X8738Y1993D01*
X8737Y1992D01*
X8736Y1990D01*
X8734Y1989D01*
X8732Y1987D01*
X8730Y1985D01*
X8727Y1984D01*
X8722Y1981D01*
X8719Y1980D01*
X8716Y1979D01*
X8712Y1979D01*
X8709Y1978D01*
X8708D01*
X8707Y1979D01*
X8705D01*
X8703Y1979D01*
X8701Y1979D01*
X8699Y1980D01*
X8696Y1981D01*
X8694Y1982D01*
X8691Y1983D01*
X8688Y1984D01*
X8685Y1986D01*
X8682Y1988D01*
X8680Y1990D01*
X8677Y1993D01*
X8675Y1996D01*
Y1997D01*
X8674Y1997D01*
X8674Y1998D01*
X8673Y1999D01*
X8672Y2000D01*
X8671Y2002D01*
X8671Y2004D01*
X8670Y2006D01*
X8669Y2009D01*
X8668Y2012D01*
X8667Y2015D01*
X8666Y2018D01*
X8665Y2025D01*
X8665Y2028D01*
X8665Y2032D01*
Y2032D01*
Y2033D01*
Y2035D01*
X8665Y2037D01*
X8665Y2039D01*
X8665Y2041D01*
X8666Y2044D01*
X8666Y2047D01*
X8668Y2054D01*
X8669Y2058D01*
X8670Y2061D01*
X8672Y2064D01*
X8673Y2068D01*
X8675Y2071D01*
X8678Y2073D01*
X8678Y2074D01*
X8678Y2074D01*
X8679Y2075D01*
X8680Y2076D01*
X8681Y2077D01*
X8683Y2078D01*
X8684Y2079D01*
X8687Y2081D01*
X8689Y2082D01*
X8691Y2083D01*
X8697Y2085D01*
X8700Y2086D01*
X8703Y2087D01*
X8706Y2087D01*
X8710Y2088D01*
X8711D01*
X8712Y2087D01*
D02*
G37*
G36*
X8047Y1943D02*
X8048Y1943D01*
X8048Y1942D01*
X8049Y1942D01*
X8050Y1942D01*
X8051Y1942D01*
X8052Y1942D01*
X8053Y1941D01*
X8053Y1941D01*
X8054Y1940D01*
X8055Y1940D01*
X8056Y1939D01*
X8057Y1938D01*
X8057Y1938D01*
X8057Y1938D01*
X8057Y1938D01*
X8058Y1937D01*
X8058Y1937D01*
X8058Y1936D01*
X8059Y1936D01*
X8059Y1935D01*
X8059Y1934D01*
X8060Y1933D01*
X8060Y1932D01*
X8060Y1931D01*
X8061Y1930D01*
X8061Y1929D01*
X8061Y1927D01*
X8061Y1926D01*
Y1926D01*
Y1925D01*
Y1925D01*
X8061Y1924D01*
X8037D01*
Y1924D01*
Y1924D01*
X8037Y1924D01*
Y1923D01*
X8037Y1923D01*
X8037Y1922D01*
X8037Y1921D01*
X8037Y1920D01*
X8038Y1919D01*
X8039Y1917D01*
X8040Y1916D01*
X8040D01*
X8040Y1916D01*
X8040Y1916D01*
X8041Y1915D01*
X8042Y1915D01*
X8043Y1914D01*
X8044Y1914D01*
X8045Y1913D01*
X8046Y1913D01*
X8047Y1913D01*
X8047D01*
X8048Y1913D01*
X8048Y1913D01*
X8049Y1914D01*
X8050Y1914D01*
X8051Y1914D01*
X8052Y1915D01*
X8052Y1915D01*
X8052Y1915D01*
X8052Y1916D01*
X8053Y1916D01*
X8053Y1917D01*
X8054Y1918D01*
X8055Y1919D01*
X8055Y1920D01*
X8061Y1919D01*
Y1919D01*
X8061Y1919D01*
X8061Y1919D01*
X8061Y1918D01*
X8060Y1918D01*
X8060Y1917D01*
X8060Y1916D01*
X8059Y1915D01*
X8058Y1914D01*
X8057Y1913D01*
X8056Y1911D01*
X8056D01*
X8056Y1911D01*
X8055Y1911D01*
X8055Y1911D01*
X8055Y1911D01*
X8054Y1911D01*
X8054Y1910D01*
X8053Y1910D01*
X8053Y1910D01*
X8052Y1910D01*
X8050Y1909D01*
X8049Y1909D01*
X8047Y1909D01*
X8046D01*
X8045Y1909D01*
X8045Y1909D01*
X8044Y1909D01*
X8043Y1909D01*
X8042Y1909D01*
X8041Y1910D01*
X8040Y1910D01*
X8039Y1911D01*
X8038Y1911D01*
X8037Y1912D01*
X8036Y1912D01*
X8035Y1913D01*
X8035Y1913D01*
X8035Y1913D01*
X8035Y1914D01*
X8035Y1914D01*
X8034Y1914D01*
X8034Y1915D01*
X8033Y1916D01*
X8033Y1916D01*
X8033Y1917D01*
X8032Y1918D01*
X8032Y1919D01*
X8032Y1920D01*
X8031Y1921D01*
X8031Y1923D01*
X8031Y1924D01*
X8031Y1925D01*
Y1925D01*
Y1926D01*
Y1926D01*
X8031Y1927D01*
X8031Y1927D01*
X8031Y1928D01*
X8031Y1929D01*
X8032Y1930D01*
X8032Y1932D01*
X8032Y1933D01*
X8033Y1934D01*
X8033Y1935D01*
X8034Y1936D01*
X8035Y1937D01*
X8035Y1938D01*
X8035Y1938D01*
X8035Y1938D01*
X8036Y1939D01*
X8036Y1939D01*
X8036Y1939D01*
X8037Y1940D01*
X8037Y1940D01*
X8038Y1940D01*
X8039Y1941D01*
X8040Y1941D01*
X8041Y1942D01*
X8042Y1942D01*
X8043Y1942D01*
X8044Y1942D01*
X8045Y1943D01*
X8046Y1943D01*
X8047D01*
X8047Y1943D01*
D02*
G37*
G36*
X8288D02*
X8288Y1943D01*
X8289Y1942D01*
X8290Y1942D01*
X8290Y1942D01*
X8291Y1942D01*
X8292Y1942D01*
X8293Y1941D01*
X8294Y1941D01*
X8295Y1940D01*
X8296Y1940D01*
X8297Y1939D01*
X8297Y1938D01*
X8297Y1938D01*
X8298Y1938D01*
X8298Y1938D01*
X8298Y1937D01*
X8298Y1937D01*
X8299Y1936D01*
X8299Y1936D01*
X8299Y1935D01*
X8300Y1934D01*
X8300Y1933D01*
X8301Y1932D01*
X8301Y1931D01*
X8301Y1930D01*
X8301Y1929D01*
X8301Y1927D01*
X8301Y1926D01*
Y1926D01*
Y1925D01*
Y1925D01*
X8301Y1924D01*
X8277D01*
Y1924D01*
Y1924D01*
X8277Y1924D01*
Y1923D01*
X8277Y1923D01*
X8277Y1922D01*
X8278Y1921D01*
X8278Y1920D01*
X8278Y1919D01*
X8279Y1917D01*
X8280Y1916D01*
X8280D01*
X8280Y1916D01*
X8281Y1916D01*
X8281Y1915D01*
X8282Y1915D01*
X8283Y1914D01*
X8284Y1914D01*
X8285Y1913D01*
X8286Y1913D01*
X8287Y1913D01*
X8287D01*
X8288Y1913D01*
X8289Y1913D01*
X8290Y1914D01*
X8290Y1914D01*
X8291Y1914D01*
X8292Y1915D01*
X8292Y1915D01*
X8293Y1915D01*
X8293Y1916D01*
X8293Y1916D01*
X8294Y1917D01*
X8294Y1918D01*
X8295Y1919D01*
X8296Y1920D01*
X8301Y1919D01*
Y1919D01*
X8301Y1919D01*
X8301Y1919D01*
X8301Y1918D01*
X8301Y1918D01*
X8301Y1917D01*
X8300Y1916D01*
X8299Y1915D01*
X8299Y1914D01*
X8298Y1913D01*
X8296Y1911D01*
X8296D01*
X8296Y1911D01*
X8296Y1911D01*
X8296Y1911D01*
X8295Y1911D01*
X8295Y1911D01*
X8294Y1910D01*
X8294Y1910D01*
X8293Y1910D01*
X8292Y1910D01*
X8291Y1909D01*
X8289Y1909D01*
X8287Y1909D01*
X8286D01*
X8286Y1909D01*
X8285Y1909D01*
X8285Y1909D01*
X8284Y1909D01*
X8283Y1909D01*
X8281Y1910D01*
X8280Y1910D01*
X8279Y1911D01*
X8278Y1911D01*
X8277Y1912D01*
X8276Y1912D01*
X8276Y1913D01*
X8276Y1913D01*
X8275Y1913D01*
X8275Y1914D01*
X8275Y1914D01*
X8275Y1914D01*
X8274Y1915D01*
X8274Y1916D01*
X8274Y1916D01*
X8273Y1917D01*
X8273Y1918D01*
X8272Y1919D01*
X8272Y1920D01*
X8272Y1921D01*
X8272Y1923D01*
X8272Y1924D01*
X8271Y1925D01*
Y1925D01*
Y1926D01*
Y1926D01*
X8272Y1927D01*
X8272Y1927D01*
X8272Y1928D01*
X8272Y1929D01*
X8272Y1930D01*
X8273Y1932D01*
X8273Y1933D01*
X8273Y1934D01*
X8274Y1935D01*
X8274Y1936D01*
X8275Y1937D01*
X8276Y1938D01*
X8276Y1938D01*
X8276Y1938D01*
X8276Y1939D01*
X8276Y1939D01*
X8277Y1939D01*
X8277Y1940D01*
X8278Y1940D01*
X8279Y1940D01*
X8279Y1941D01*
X8280Y1941D01*
X8281Y1942D01*
X8282Y1942D01*
X8283Y1942D01*
X8284Y1942D01*
X8285Y1943D01*
X8287Y1943D01*
X8287D01*
X8288Y1943D01*
D02*
G37*
G36*
X7006Y1860D02*
X6994D01*
Y1872D01*
X7006D01*
Y1860D01*
D02*
G37*
G36*
X7006Y1909D02*
X7003Y1876D01*
X6996D01*
X6993Y1909D01*
Y1924D01*
X7006D01*
Y1909D01*
D02*
G37*
G36*
X8385Y1943D02*
X8386Y1943D01*
X8386Y1942D01*
X8387Y1942D01*
X8388Y1942D01*
X8389Y1942D01*
X8390Y1942D01*
X8391Y1941D01*
X8391Y1941D01*
X8392Y1940D01*
X8393Y1940D01*
X8394Y1939D01*
X8395Y1938D01*
X8395Y1938D01*
X8395Y1938D01*
X8395Y1938D01*
X8396Y1937D01*
X8396Y1937D01*
X8396Y1936D01*
X8397Y1936D01*
X8397Y1935D01*
X8397Y1934D01*
X8398Y1933D01*
X8398Y1932D01*
X8398Y1931D01*
X8399Y1930D01*
X8399Y1929D01*
X8399Y1927D01*
X8399Y1926D01*
Y1926D01*
Y1925D01*
Y1925D01*
X8399Y1924D01*
X8375D01*
Y1924D01*
Y1924D01*
X8375Y1924D01*
Y1923D01*
X8375Y1923D01*
X8375Y1922D01*
X8375Y1921D01*
X8375Y1920D01*
X8376Y1919D01*
X8377Y1917D01*
X8378Y1916D01*
X8378D01*
X8378Y1916D01*
X8378Y1916D01*
X8379Y1915D01*
X8380Y1915D01*
X8381Y1914D01*
X8382Y1914D01*
X8383Y1913D01*
X8384Y1913D01*
X8384Y1913D01*
X8385D01*
X8386Y1913D01*
X8386Y1913D01*
X8387Y1914D01*
X8388Y1914D01*
X8389Y1914D01*
X8390Y1915D01*
X8390Y1915D01*
X8390Y1915D01*
X8390Y1916D01*
X8391Y1916D01*
X8391Y1917D01*
X8392Y1918D01*
X8393Y1919D01*
X8393Y1920D01*
X8399Y1919D01*
Y1919D01*
X8399Y1919D01*
X8399Y1919D01*
X8399Y1918D01*
X8398Y1918D01*
X8398Y1917D01*
X8398Y1916D01*
X8397Y1915D01*
X8396Y1914D01*
X8395Y1913D01*
X8394Y1911D01*
X8394D01*
X8394Y1911D01*
X8393Y1911D01*
X8393Y1911D01*
X8393Y1911D01*
X8392Y1911D01*
X8392Y1910D01*
X8391Y1910D01*
X8391Y1910D01*
X8390Y1910D01*
X8388Y1909D01*
X8387Y1909D01*
X8384Y1909D01*
X8384D01*
X8383Y1909D01*
X8383Y1909D01*
X8382Y1909D01*
X8381Y1909D01*
X8380Y1909D01*
X8379Y1910D01*
X8378Y1910D01*
X8377Y1911D01*
X8376Y1911D01*
X8375Y1912D01*
X8374Y1912D01*
X8373Y1913D01*
X8373Y1913D01*
X8373Y1913D01*
X8373Y1914D01*
X8373Y1914D01*
X8372Y1914D01*
X8372Y1915D01*
X8371Y1916D01*
X8371Y1916D01*
X8371Y1917D01*
X8370Y1918D01*
X8370Y1919D01*
X8370Y1920D01*
X8369Y1921D01*
X8369Y1923D01*
X8369Y1924D01*
X8369Y1925D01*
Y1925D01*
Y1926D01*
Y1926D01*
X8369Y1927D01*
X8369Y1927D01*
X8369Y1928D01*
X8369Y1929D01*
X8370Y1930D01*
X8370Y1932D01*
X8370Y1933D01*
X8371Y1934D01*
X8371Y1935D01*
X8372Y1936D01*
X8373Y1937D01*
X8373Y1938D01*
X8373Y1938D01*
X8373Y1938D01*
X8374Y1939D01*
X8374Y1939D01*
X8374Y1939D01*
X8375Y1940D01*
X8375Y1940D01*
X8376Y1940D01*
X8377Y1941D01*
X8378Y1941D01*
X8379Y1942D01*
X8380Y1942D01*
X8381Y1942D01*
X8382Y1942D01*
X8383Y1943D01*
X8384Y1943D01*
X8385D01*
X8385Y1943D01*
D02*
G37*
G36*
X8219D02*
X8220Y1943D01*
X8221Y1942D01*
X8222Y1942D01*
X8223Y1942D01*
X8224Y1942D01*
X8224Y1942D01*
X8225Y1941D01*
X8225Y1941D01*
X8226Y1941D01*
X8226Y1941D01*
X8227Y1940D01*
X8227Y1940D01*
X8228Y1939D01*
X8228Y1939D01*
X8228Y1939D01*
X8228Y1939D01*
X8229Y1938D01*
X8229Y1938D01*
X8229Y1937D01*
X8229Y1936D01*
X8230Y1935D01*
Y1935D01*
X8230Y1935D01*
X8230Y1935D01*
X8230Y1934D01*
Y1934D01*
X8230Y1933D01*
X8230Y1932D01*
Y1930D01*
Y1923D01*
Y1923D01*
Y1923D01*
Y1922D01*
Y1922D01*
Y1921D01*
Y1921D01*
X8230Y1919D01*
Y1917D01*
X8230Y1916D01*
X8230Y1915D01*
Y1914D01*
X8230Y1914D01*
X8230Y1913D01*
Y1913D01*
X8230Y1913D01*
X8230Y1913D01*
X8231Y1912D01*
X8231Y1912D01*
X8231Y1911D01*
X8231Y1910D01*
X8232Y1909D01*
X8226D01*
X8226Y1910D01*
X8226Y1910D01*
X8226Y1910D01*
X8225Y1911D01*
X8225Y1911D01*
X8225Y1912D01*
X8225Y1913D01*
X8225Y1914D01*
X8225D01*
X8225Y1913D01*
X8224Y1913D01*
X8224Y1913D01*
X8223Y1912D01*
X8222Y1911D01*
X8221Y1911D01*
X8220Y1910D01*
X8219Y1910D01*
X8219Y1910D01*
X8218Y1910D01*
X8218Y1909D01*
X8217Y1909D01*
X8216Y1909D01*
X8215Y1909D01*
X8214Y1909D01*
X8213Y1909D01*
X8212D01*
X8212Y1909D01*
X8211D01*
X8211Y1909D01*
X8210Y1909D01*
X8208Y1909D01*
X8207Y1910D01*
X8206Y1910D01*
X8205Y1911D01*
X8204Y1911D01*
X8204Y1912D01*
X8204Y1912D01*
X8203Y1913D01*
X8203Y1914D01*
X8202Y1915D01*
X8202Y1917D01*
X8202Y1917D01*
X8202Y1918D01*
Y1918D01*
Y1918D01*
X8202Y1919D01*
X8202Y1919D01*
X8202Y1920D01*
X8202Y1921D01*
X8202Y1922D01*
X8203Y1922D01*
X8203Y1922D01*
X8203Y1923D01*
X8203Y1923D01*
X8204Y1924D01*
X8204Y1924D01*
X8204Y1925D01*
X8205Y1925D01*
X8206Y1926D01*
X8206Y1926D01*
X8206Y1926D01*
X8206Y1926D01*
X8207Y1926D01*
X8207Y1926D01*
X8208Y1927D01*
X8209Y1927D01*
X8210Y1927D01*
X8210D01*
X8210Y1927D01*
X8210Y1928D01*
X8211Y1928D01*
X8212Y1928D01*
X8212Y1928D01*
X8213Y1928D01*
X8215Y1928D01*
X8215D01*
X8215Y1928D01*
X8215D01*
X8216Y1928D01*
X8216Y1928D01*
X8217Y1928D01*
X8218Y1929D01*
X8218Y1929D01*
X8220Y1929D01*
X8222Y1929D01*
X8223Y1930D01*
X8224Y1930D01*
X8224Y1930D01*
Y1930D01*
Y1930D01*
X8224Y1931D01*
Y1931D01*
Y1931D01*
Y1932D01*
Y1932D01*
Y1932D01*
Y1932D01*
X8224Y1933D01*
X8224Y1933D01*
X8224Y1934D01*
X8224Y1935D01*
X8223Y1936D01*
X8223Y1936D01*
X8223Y1936D01*
X8222Y1937D01*
X8222Y1937D01*
X8221Y1937D01*
X8220Y1938D01*
X8219Y1938D01*
X8218Y1938D01*
X8217Y1938D01*
X8216D01*
X8215Y1938D01*
X8214Y1938D01*
X8213Y1938D01*
X8212Y1938D01*
X8212Y1937D01*
X8211Y1937D01*
X8211Y1937D01*
X8210Y1937D01*
X8210Y1936D01*
X8210Y1936D01*
X8209Y1935D01*
X8209Y1934D01*
X8208Y1933D01*
X8208Y1932D01*
X8203Y1933D01*
Y1933D01*
X8203Y1933D01*
Y1933D01*
X8203Y1933D01*
X8203Y1934D01*
X8203Y1935D01*
X8204Y1936D01*
X8204Y1936D01*
X8205Y1937D01*
X8205Y1938D01*
X8205Y1938D01*
X8205Y1939D01*
X8206Y1939D01*
X8206Y1939D01*
X8207Y1940D01*
X8208Y1940D01*
X8209Y1941D01*
X8210Y1942D01*
X8210D01*
X8210Y1942D01*
X8210Y1942D01*
X8211Y1942D01*
X8211Y1942D01*
X8212Y1942D01*
X8213Y1942D01*
X8214Y1942D01*
X8216Y1943D01*
X8217Y1943D01*
X8218D01*
X8219Y1943D01*
D02*
G37*
G36*
X8348Y1954D02*
X8348D01*
X8350Y1954D01*
X8351Y1954D01*
X8353Y1954D01*
X8354Y1953D01*
X8355Y1953D01*
X8355Y1953D01*
X8355D01*
X8356Y1953D01*
X8356Y1953D01*
X8357Y1953D01*
X8357Y1952D01*
X8358Y1952D01*
X8359Y1951D01*
X8360Y1950D01*
X8360Y1949D01*
Y1949D01*
X8360Y1949D01*
X8361Y1948D01*
X8361Y1948D01*
X8361Y1947D01*
X8362Y1946D01*
X8362Y1945D01*
X8362Y1943D01*
X8362Y1942D01*
Y1942D01*
Y1942D01*
Y1942D01*
X8362Y1941D01*
Y1941D01*
X8362Y1940D01*
X8362Y1939D01*
X8361Y1938D01*
X8361Y1937D01*
X8360Y1935D01*
X8360Y1935D01*
X8359Y1934D01*
X8359Y1934D01*
X8359Y1934D01*
X8359Y1934D01*
X8359Y1933D01*
X8358Y1933D01*
X8358Y1933D01*
X8357Y1933D01*
X8357Y1932D01*
X8356Y1932D01*
X8355Y1932D01*
X8355Y1931D01*
X8354Y1931D01*
X8353Y1931D01*
X8352Y1930D01*
X8351Y1930D01*
X8350Y1930D01*
X8350Y1930D01*
X8350Y1930D01*
X8350Y1929D01*
X8351Y1929D01*
X8352Y1928D01*
X8353Y1928D01*
X8353Y1928D01*
X8353Y1927D01*
X8354Y1927D01*
X8354Y1927D01*
X8355Y1926D01*
X8356Y1925D01*
X8356Y1924D01*
X8357Y1923D01*
X8358Y1922D01*
X8366Y1909D01*
X8358D01*
X8353Y1919D01*
Y1919D01*
X8352Y1919D01*
X8352Y1919D01*
X8352Y1919D01*
X8352Y1920D01*
X8351Y1921D01*
X8350Y1922D01*
X8350Y1923D01*
X8349Y1924D01*
X8348Y1925D01*
X8348Y1925D01*
X8348Y1925D01*
X8348Y1926D01*
X8347Y1926D01*
X8346Y1927D01*
X8346Y1928D01*
X8345Y1928D01*
X8345Y1928D01*
X8345Y1928D01*
X8345Y1928D01*
X8344Y1928D01*
X8344Y1929D01*
X8344Y1929D01*
X8343Y1929D01*
X8342D01*
X8342Y1929D01*
X8342D01*
X8342Y1929D01*
X8341Y1929D01*
X8341D01*
X8340Y1929D01*
X8332D01*
Y1909D01*
X8326D01*
Y1954D01*
X8347D01*
X8348Y1954D01*
D02*
G37*
G36*
X7988Y1909D02*
X7982D01*
Y1954D01*
X7988D01*
Y1909D01*
D02*
G37*
G36*
X8083Y1943D02*
X8084Y1943D01*
X8085Y1942D01*
X8086Y1942D01*
X8087Y1942D01*
X8088Y1942D01*
X8088Y1942D01*
X8089Y1941D01*
X8089Y1941D01*
X8090Y1941D01*
X8090Y1941D01*
X8091Y1940D01*
X8092Y1940D01*
X8092Y1939D01*
X8092Y1939D01*
X8092Y1939D01*
X8093Y1939D01*
X8093Y1938D01*
X8093Y1938D01*
X8093Y1937D01*
X8094Y1936D01*
X8094Y1935D01*
Y1935D01*
X8094Y1935D01*
X8094Y1935D01*
X8094Y1934D01*
Y1934D01*
X8094Y1933D01*
X8094Y1932D01*
Y1930D01*
Y1923D01*
Y1923D01*
Y1923D01*
Y1922D01*
Y1922D01*
Y1921D01*
Y1921D01*
X8094Y1919D01*
Y1917D01*
X8094Y1916D01*
X8094Y1915D01*
Y1914D01*
X8094Y1914D01*
X8094Y1913D01*
Y1913D01*
X8095Y1913D01*
X8095Y1913D01*
X8095Y1912D01*
X8095Y1912D01*
X8095Y1911D01*
X8095Y1910D01*
X8096Y1909D01*
X8090D01*
X8090Y1910D01*
X8090Y1910D01*
X8090Y1910D01*
X8090Y1911D01*
X8089Y1911D01*
X8089Y1912D01*
X8089Y1913D01*
X8089Y1914D01*
X8089D01*
X8089Y1913D01*
X8088Y1913D01*
X8088Y1913D01*
X8087Y1912D01*
X8086Y1911D01*
X8085Y1911D01*
X8084Y1910D01*
X8083Y1910D01*
X8083Y1910D01*
X8083Y1910D01*
X8082Y1909D01*
X8081Y1909D01*
X8080Y1909D01*
X8079Y1909D01*
X8078Y1909D01*
X8077Y1909D01*
X8076D01*
X8076Y1909D01*
X8076D01*
X8075Y1909D01*
X8074Y1909D01*
X8073Y1909D01*
X8071Y1910D01*
X8070Y1910D01*
X8069Y1911D01*
X8069Y1911D01*
X8068Y1912D01*
X8068Y1912D01*
X8067Y1913D01*
X8067Y1914D01*
X8066Y1915D01*
X8066Y1917D01*
X8066Y1917D01*
X8066Y1918D01*
Y1918D01*
Y1918D01*
X8066Y1919D01*
X8066Y1919D01*
X8066Y1920D01*
X8066Y1921D01*
X8067Y1922D01*
X8067Y1922D01*
X8067Y1922D01*
X8067Y1923D01*
X8067Y1923D01*
X8068Y1924D01*
X8068Y1924D01*
X8069Y1925D01*
X8069Y1925D01*
X8070Y1926D01*
X8070Y1926D01*
X8070Y1926D01*
X8070Y1926D01*
X8071Y1926D01*
X8072Y1926D01*
X8072Y1927D01*
X8073Y1927D01*
X8074Y1927D01*
X8074D01*
X8074Y1927D01*
X8074Y1928D01*
X8075Y1928D01*
X8076Y1928D01*
X8077Y1928D01*
X8077Y1928D01*
X8079Y1928D01*
X8079D01*
X8079Y1928D01*
X8079D01*
X8080Y1928D01*
X8080Y1928D01*
X8081Y1928D01*
X8082Y1929D01*
X8082Y1929D01*
X8084Y1929D01*
X8086Y1929D01*
X8087Y1930D01*
X8088Y1930D01*
X8088Y1930D01*
Y1930D01*
Y1930D01*
X8089Y1931D01*
Y1931D01*
Y1931D01*
Y1932D01*
Y1932D01*
Y1932D01*
Y1932D01*
X8088Y1933D01*
X8088Y1933D01*
X8088Y1934D01*
X8088Y1935D01*
X8087Y1936D01*
X8087Y1936D01*
X8087Y1936D01*
X8087Y1937D01*
X8086Y1937D01*
X8085Y1937D01*
X8084Y1938D01*
X8083Y1938D01*
X8082Y1938D01*
X8081Y1938D01*
X8080D01*
X8079Y1938D01*
X8078Y1938D01*
X8078Y1938D01*
X8077Y1938D01*
X8076Y1937D01*
X8075Y1937D01*
X8075Y1937D01*
X8075Y1937D01*
X8074Y1936D01*
X8074Y1936D01*
X8073Y1935D01*
X8073Y1934D01*
X8073Y1933D01*
X8072Y1932D01*
X8067Y1933D01*
Y1933D01*
X8067Y1933D01*
Y1933D01*
X8067Y1933D01*
X8067Y1934D01*
X8067Y1935D01*
X8068Y1936D01*
X8068Y1936D01*
X8069Y1937D01*
X8069Y1938D01*
X8069Y1938D01*
X8070Y1939D01*
X8070Y1939D01*
X8070Y1939D01*
X8071Y1940D01*
X8072Y1940D01*
X8073Y1941D01*
X8074Y1942D01*
X8074D01*
X8074Y1942D01*
X8074Y1942D01*
X8075Y1942D01*
X8075Y1942D01*
X8076Y1942D01*
X8077Y1942D01*
X8079Y1942D01*
X8080Y1943D01*
X8081Y1943D01*
X8082D01*
X8083Y1943D01*
D02*
G37*
G36*
X9411Y2087D02*
X9413Y2087D01*
X9416Y2087D01*
X9418Y2086D01*
X9421Y2085D01*
X9424Y2084D01*
X9425Y2084D01*
X9426Y2084D01*
X9427Y2083D01*
X9429Y2082D01*
X9431Y2081D01*
X9433Y2079D01*
X9435Y2077D01*
X9436Y2075D01*
X9437Y2075D01*
X9437Y2075D01*
X9438Y2074D01*
X9438Y2072D01*
X9440Y2070D01*
X9440Y2068D01*
X9441Y2066D01*
X9442Y2064D01*
Y2063D01*
X9442Y2062D01*
X9443Y2061D01*
X9443Y2059D01*
X9443Y2056D01*
X9443Y2053D01*
X9444Y2049D01*
Y2045D01*
Y1978D01*
X9415D01*
Y2033D01*
Y2033D01*
Y2033D01*
Y2034D01*
Y2035D01*
Y2037D01*
Y2038D01*
X9415Y2042D01*
X9415Y2046D01*
X9414Y2049D01*
X9414Y2053D01*
X9414Y2054D01*
X9413Y2055D01*
Y2055D01*
X9413Y2056D01*
X9412Y2057D01*
X9412Y2058D01*
X9410Y2061D01*
X9409Y2062D01*
X9407Y2063D01*
X9407Y2063D01*
X9407Y2063D01*
X9406Y2064D01*
X9405Y2064D01*
X9403Y2065D01*
X9402Y2065D01*
X9400Y2066D01*
X9398Y2066D01*
X9396D01*
X9395Y2066D01*
X9393Y2065D01*
X9391Y2065D01*
X9389Y2064D01*
X9387Y2063D01*
X9384Y2062D01*
X9384Y2062D01*
X9384Y2061D01*
X9382Y2060D01*
X9381Y2059D01*
X9380Y2057D01*
X9379Y2056D01*
X9377Y2053D01*
X9377Y2051D01*
Y2051D01*
X9376Y2050D01*
X9376Y2048D01*
X9375Y2045D01*
X9375Y2044D01*
X9375Y2042D01*
X9375Y2040D01*
Y2038D01*
X9375Y2035D01*
X9374Y2033D01*
Y2030D01*
Y2026D01*
Y1978D01*
X9346D01*
Y2085D01*
X9372D01*
Y2069D01*
X9372Y2070D01*
X9373Y2070D01*
X9374Y2071D01*
X9375Y2072D01*
X9376Y2074D01*
X9378Y2075D01*
X9380Y2077D01*
X9382Y2079D01*
X9384Y2080D01*
X9387Y2082D01*
X9390Y2083D01*
X9393Y2085D01*
X9396Y2086D01*
X9400Y2087D01*
X9404Y2087D01*
X9407Y2088D01*
X9409D01*
X9411Y2087D01*
D02*
G37*
G36*
X9262D02*
X9264Y2087D01*
X9267Y2086D01*
X9270Y2085D01*
X9273Y2084D01*
X9277Y2082D01*
X9268Y2058D01*
X9268Y2058D01*
X9267Y2058D01*
X9265Y2059D01*
X9264Y2060D01*
X9262Y2061D01*
X9259Y2062D01*
X9257Y2062D01*
X9255Y2062D01*
X9254D01*
X9253Y2062D01*
X9251Y2062D01*
X9250Y2061D01*
X9248Y2061D01*
X9246Y2060D01*
X9245Y2059D01*
X9245Y2059D01*
X9244Y2058D01*
X9243Y2057D01*
X9242Y2056D01*
X9241Y2055D01*
X9240Y2052D01*
X9239Y2050D01*
X9238Y2047D01*
Y2046D01*
X9238Y2046D01*
X9238Y2045D01*
Y2044D01*
X9238Y2043D01*
X9237Y2041D01*
X9237Y2039D01*
X9237Y2037D01*
X9237Y2034D01*
X9237Y2032D01*
Y2028D01*
X9236Y2025D01*
X9236Y2020D01*
Y2016D01*
Y2011D01*
Y1978D01*
X9208D01*
Y2085D01*
X9234D01*
Y2070D01*
X9234Y2070D01*
X9235Y2072D01*
X9236Y2074D01*
X9238Y2076D01*
X9240Y2078D01*
X9242Y2081D01*
X9244Y2083D01*
X9246Y2084D01*
X9246Y2084D01*
X9247Y2085D01*
X9248Y2085D01*
X9250Y2086D01*
X9251Y2086D01*
X9253Y2087D01*
X9256Y2087D01*
X9258Y2088D01*
X9260D01*
X9262Y2087D01*
D02*
G37*
G36*
X8825Y2099D02*
X8797D01*
Y2126D01*
X8825D01*
Y2099D01*
D02*
G37*
G36*
X8172Y1978D02*
X8145D01*
X8144Y2094D01*
X8116Y1978D01*
X8087D01*
X8058Y2094D01*
Y1978D01*
X8030D01*
Y2126D01*
X8075D01*
X8101Y2025D01*
X8127Y2126D01*
X8172D01*
Y1978D01*
D02*
G37*
G36*
X8610Y2087D02*
X8612Y2087D01*
X8615Y2087D01*
X8617Y2086D01*
X8620Y2085D01*
X8623Y2084D01*
X8624Y2084D01*
X8625Y2084D01*
X8626Y2083D01*
X8628Y2082D01*
X8630Y2081D01*
X8632Y2079D01*
X8633Y2077D01*
X8635Y2075D01*
X8635Y2075D01*
X8636Y2075D01*
X8636Y2074D01*
X8637Y2072D01*
X8638Y2070D01*
X8639Y2068D01*
X8640Y2066D01*
X8641Y2064D01*
Y2063D01*
X8641Y2062D01*
X8641Y2061D01*
X8642Y2059D01*
X8642Y2056D01*
X8642Y2053D01*
X8642Y2049D01*
Y2045D01*
Y1978D01*
X8614D01*
Y2033D01*
Y2033D01*
Y2033D01*
Y2034D01*
Y2035D01*
Y2037D01*
Y2038D01*
X8614Y2042D01*
X8614Y2046D01*
X8613Y2049D01*
X8613Y2053D01*
X8613Y2054D01*
X8612Y2055D01*
Y2055D01*
X8612Y2056D01*
X8611Y2057D01*
X8611Y2058D01*
X8609Y2061D01*
X8608Y2062D01*
X8606Y2063D01*
X8606Y2063D01*
X8606Y2063D01*
X8605Y2064D01*
X8603Y2064D01*
X8602Y2065D01*
X8600Y2065D01*
X8599Y2066D01*
X8596Y2066D01*
X8595D01*
X8594Y2066D01*
X8592Y2065D01*
X8590Y2065D01*
X8588Y2064D01*
X8586Y2063D01*
X8583Y2062D01*
X8583Y2062D01*
X8582Y2061D01*
X8581Y2060D01*
X8580Y2059D01*
X8579Y2057D01*
X8578Y2056D01*
X8576Y2053D01*
X8575Y2051D01*
Y2051D01*
X8575Y2050D01*
X8575Y2048D01*
X8574Y2045D01*
X8574Y2044D01*
X8574Y2042D01*
X8574Y2040D01*
Y2038D01*
X8573Y2035D01*
X8573Y2033D01*
Y2030D01*
Y2026D01*
Y1978D01*
X8545D01*
Y2085D01*
X8571D01*
Y2069D01*
X8571Y2070D01*
X8572Y2070D01*
X8573Y2071D01*
X8574Y2072D01*
X8575Y2074D01*
X8577Y2075D01*
X8579Y2077D01*
X8581Y2079D01*
X8583Y2080D01*
X8586Y2082D01*
X8589Y2083D01*
X8592Y2085D01*
X8595Y2086D01*
X8599Y2087D01*
X8602Y2087D01*
X8606Y2088D01*
X8608D01*
X8610Y2087D01*
D02*
G37*
G36*
X8919D02*
X8921Y2087D01*
X8923Y2087D01*
X8926Y2086D01*
X8929Y2085D01*
X8932Y2084D01*
X8933Y2084D01*
X8933Y2084D01*
X8935Y2083D01*
X8937Y2082D01*
X8939Y2081D01*
X8940Y2079D01*
X8942Y2077D01*
X8944Y2075D01*
X8944Y2075D01*
X8945Y2075D01*
X8945Y2074D01*
X8946Y2072D01*
X8947Y2070D01*
X8948Y2068D01*
X8949Y2066D01*
X8950Y2064D01*
Y2063D01*
X8950Y2062D01*
X8950Y2061D01*
X8951Y2059D01*
X8951Y2056D01*
X8951Y2053D01*
X8951Y2049D01*
Y2045D01*
Y1978D01*
X8923D01*
Y2033D01*
Y2033D01*
Y2033D01*
Y2034D01*
Y2035D01*
Y2037D01*
Y2038D01*
X8923Y2042D01*
X8923Y2046D01*
X8922Y2049D01*
X8922Y2053D01*
X8922Y2054D01*
X8921Y2055D01*
Y2055D01*
X8921Y2056D01*
X8920Y2057D01*
X8920Y2058D01*
X8918Y2061D01*
X8917Y2062D01*
X8915Y2063D01*
X8915Y2063D01*
X8915Y2063D01*
X8914Y2064D01*
X8912Y2064D01*
X8911Y2065D01*
X8909Y2065D01*
X8907Y2066D01*
X8905Y2066D01*
X8904D01*
X8903Y2066D01*
X8901Y2065D01*
X8899Y2065D01*
X8897Y2064D01*
X8895Y2063D01*
X8892Y2062D01*
X8892Y2062D01*
X8891Y2061D01*
X8890Y2060D01*
X8889Y2059D01*
X8888Y2057D01*
X8886Y2056D01*
X8885Y2053D01*
X8884Y2051D01*
Y2051D01*
X8884Y2050D01*
X8884Y2048D01*
X8883Y2045D01*
X8883Y2044D01*
X8883Y2042D01*
X8883Y2040D01*
Y2038D01*
X8882Y2035D01*
X8882Y2033D01*
Y2030D01*
Y2026D01*
Y1978D01*
X8854D01*
Y2085D01*
X8880D01*
Y2069D01*
X8880Y2070D01*
X8881Y2070D01*
X8882Y2071D01*
X8883Y2072D01*
X8884Y2074D01*
X8886Y2075D01*
X8887Y2077D01*
X8890Y2079D01*
X8892Y2080D01*
X8895Y2082D01*
X8897Y2083D01*
X8901Y2085D01*
X8904Y2086D01*
X8907Y2087D01*
X8911Y2087D01*
X8915Y2088D01*
X8917D01*
X8919Y2087D01*
D02*
G37*
G36*
X9317Y1978D02*
X9289D01*
Y2085D01*
X9317D01*
Y1978D01*
D02*
G37*
G36*
X8271Y2125D02*
X8273D01*
X8275Y2125D01*
X8278D01*
X8284Y2125D01*
X8289Y2124D01*
X8295Y2123D01*
X8297Y2122D01*
X8299Y2122D01*
X8299D01*
X8300Y2121D01*
X8301Y2121D01*
X8303Y2120D01*
X8305Y2118D01*
X8308Y2116D01*
X8311Y2114D01*
X8314Y2111D01*
X8316Y2107D01*
Y2107D01*
X8316Y2107D01*
X8317Y2106D01*
X8317Y2106D01*
X8318Y2104D01*
X8320Y2101D01*
X8321Y2097D01*
X8322Y2094D01*
X8323Y2089D01*
X8323Y2084D01*
Y2084D01*
Y2084D01*
Y2083D01*
X8323Y2082D01*
Y2080D01*
X8322Y2079D01*
X8322Y2075D01*
X8321Y2070D01*
X8319Y2066D01*
X8316Y2061D01*
X8315Y2059D01*
X8313Y2057D01*
X8313Y2057D01*
X8313Y2056D01*
X8312Y2056D01*
X8311Y2055D01*
X8310Y2054D01*
X8309Y2053D01*
X8308Y2052D01*
X8306Y2051D01*
X8304Y2050D01*
X8302Y2049D01*
X8299Y2048D01*
X8297Y2047D01*
X8294Y2046D01*
X8291Y2045D01*
X8288Y2044D01*
X8284Y2043D01*
X8284D01*
X8284Y2043D01*
X8286Y2042D01*
X8287Y2041D01*
X8289Y2040D01*
X8292Y2038D01*
X8295Y2036D01*
X8297Y2033D01*
X8300Y2031D01*
X8300Y2031D01*
X8301Y2030D01*
X8302Y2028D01*
X8304Y2025D01*
X8307Y2022D01*
X8308Y2020D01*
X8309Y2018D01*
X8311Y2016D01*
X8313Y2013D01*
X8315Y2010D01*
X8317Y2007D01*
X8335Y1978D01*
X8299D01*
X8278Y2010D01*
X8278Y2010D01*
X8277Y2011D01*
X8277Y2012D01*
X8276Y2013D01*
X8275Y2014D01*
X8274Y2016D01*
X8272Y2019D01*
X8269Y2023D01*
X8266Y2027D01*
X8264Y2030D01*
X8263Y2031D01*
X8262Y2032D01*
X8262Y2032D01*
X8261Y2033D01*
X8260Y2033D01*
X8259Y2035D01*
X8258Y2035D01*
X8256Y2036D01*
X8255Y2037D01*
X8253Y2038D01*
X8253D01*
X8252Y2038D01*
X8251Y2039D01*
X8249Y2039D01*
X8247Y2039D01*
X8245Y2040D01*
X8242Y2040D01*
X8232D01*
Y1978D01*
X8202D01*
Y2126D01*
X8269D01*
X8271Y2125D01*
D02*
G37*
G36*
X8002Y1978D02*
X7972D01*
Y2126D01*
X8002D01*
Y1978D01*
D02*
G37*
G36*
X9139Y2087D02*
X9141Y2087D01*
X9143Y2087D01*
X9146Y2086D01*
X9149Y2086D01*
X9152Y2085D01*
X9155Y2084D01*
X9158Y2082D01*
X9161Y2081D01*
X9164Y2079D01*
X9167Y2077D01*
X9170Y2074D01*
X9173Y2072D01*
X9173Y2071D01*
X9173Y2071D01*
X9174Y2070D01*
X9175Y2069D01*
X9176Y2067D01*
X9177Y2065D01*
X9178Y2062D01*
X9179Y2060D01*
X9181Y2056D01*
X9182Y2053D01*
X9183Y2049D01*
X9184Y2045D01*
X9185Y2040D01*
X9186Y2035D01*
X9186Y2029D01*
Y2023D01*
X9115D01*
Y2023D01*
Y2023D01*
Y2022D01*
X9116Y2021D01*
X9116Y2019D01*
X9116Y2016D01*
X9117Y2013D01*
X9118Y2010D01*
X9120Y2007D01*
X9122Y2004D01*
X9122Y2004D01*
X9123Y2003D01*
X9124Y2002D01*
X9126Y2000D01*
X9129Y1999D01*
X9132Y1998D01*
X9135Y1997D01*
X9138Y1997D01*
X9139D01*
X9141Y1997D01*
X9142Y1998D01*
X9144Y1998D01*
X9146Y1999D01*
X9148Y1999D01*
X9149Y2001D01*
X9150Y2001D01*
X9150Y2001D01*
X9151Y2002D01*
X9152Y2003D01*
X9153Y2005D01*
X9154Y2007D01*
X9155Y2010D01*
X9156Y2012D01*
X9184Y2008D01*
Y2008D01*
X9184Y2007D01*
X9184Y2006D01*
X9183Y2005D01*
X9183Y2004D01*
X9182Y2002D01*
X9180Y1999D01*
X9178Y1995D01*
X9175Y1991D01*
X9171Y1988D01*
X9167Y1984D01*
X9167D01*
X9167Y1984D01*
X9166Y1983D01*
X9165Y1983D01*
X9164Y1982D01*
X9163Y1982D01*
X9161Y1981D01*
X9159Y1980D01*
X9155Y1979D01*
X9150Y1977D01*
X9144Y1976D01*
X9138Y1976D01*
X9137D01*
X9136Y1976D01*
X9134D01*
X9131Y1977D01*
X9128Y1977D01*
X9126Y1977D01*
X9123Y1978D01*
X9119Y1979D01*
X9116Y1980D01*
X9112Y1982D01*
X9109Y1984D01*
X9105Y1986D01*
X9102Y1988D01*
X9100Y1991D01*
X9097Y1994D01*
X9097Y1994D01*
X9096Y1995D01*
X9096Y1996D01*
X9095Y1997D01*
X9094Y1998D01*
X9094Y2000D01*
X9093Y2002D01*
X9092Y2004D01*
X9091Y2007D01*
X9090Y2009D01*
X9089Y2012D01*
X9088Y2016D01*
X9087Y2019D01*
X9087Y2023D01*
X9087Y2027D01*
X9086Y2031D01*
Y2031D01*
Y2032D01*
Y2033D01*
X9087Y2035D01*
X9087Y2038D01*
X9087Y2040D01*
X9087Y2043D01*
X9088Y2046D01*
X9090Y2053D01*
X9091Y2056D01*
X9092Y2060D01*
X9094Y2063D01*
X9096Y2066D01*
X9098Y2069D01*
X9100Y2072D01*
X9100Y2073D01*
X9101Y2073D01*
X9102Y2074D01*
X9103Y2075D01*
X9104Y2076D01*
X9106Y2077D01*
X9108Y2079D01*
X9110Y2080D01*
X9112Y2081D01*
X9115Y2083D01*
X9118Y2084D01*
X9121Y2085D01*
X9124Y2086D01*
X9128Y2087D01*
X9131Y2087D01*
X9135Y2088D01*
X9137D01*
X9139Y2087D01*
D02*
G37*
G36*
X9317Y2099D02*
X9289D01*
Y2126D01*
X9317D01*
Y2099D01*
D02*
G37*
G36*
X8825Y1978D02*
X8797D01*
Y2085D01*
X8825D01*
Y1978D01*
D02*
G37*
G36*
X8517Y2101D02*
X8438D01*
Y2068D01*
X8512D01*
Y2043D01*
X8438D01*
Y2003D01*
X8520D01*
Y1978D01*
X8408D01*
Y2126D01*
X8517D01*
Y2101D01*
D02*
G37*
%LPC*%
G36*
X9022Y2066D02*
X9021D01*
X9019Y2065D01*
X9017Y2065D01*
X9015Y2064D01*
X9012Y2063D01*
X9009Y2061D01*
X9007Y2059D01*
X9007Y2059D01*
X9006Y2058D01*
X9005Y2056D01*
X9004Y2054D01*
X9003Y2052D01*
X9002Y2048D01*
X9001Y2045D01*
X9001Y2041D01*
X9043D01*
Y2041D01*
Y2041D01*
Y2042D01*
X9043Y2043D01*
X9043Y2045D01*
X9042Y2048D01*
X9042Y2051D01*
X9041Y2054D01*
X9039Y2057D01*
X9037Y2059D01*
X9037Y2059D01*
X9036Y2060D01*
X9035Y2061D01*
X9033Y2063D01*
X9031Y2064D01*
X9028Y2065D01*
X9025Y2066D01*
X9022Y2066D01*
D02*
G37*
G36*
X8266Y2101D02*
X8232D01*
Y2063D01*
X8261D01*
X8265Y2064D01*
X8270Y2064D01*
X8274Y2064D01*
X8276Y2064D01*
X8278Y2064D01*
X8280Y2065D01*
X8281Y2065D01*
X8281D01*
X8282Y2065D01*
X8283Y2066D01*
X8284Y2066D01*
X8286Y2068D01*
X8288Y2070D01*
X8289Y2071D01*
X8289Y2071D01*
X8289Y2072D01*
X8290Y2073D01*
X8291Y2074D01*
X8291Y2076D01*
X8292Y2078D01*
X8292Y2080D01*
X8292Y2082D01*
Y2083D01*
Y2084D01*
X8292Y2085D01*
X8292Y2086D01*
X8291Y2088D01*
X8291Y2090D01*
X8289Y2092D01*
X8288Y2094D01*
X8288Y2094D01*
X8288Y2095D01*
X8286Y2096D01*
X8285Y2097D01*
X8284Y2098D01*
X8282Y2099D01*
X8279Y2099D01*
X8277Y2100D01*
X8277D01*
X8276Y2100D01*
X8275D01*
X8273Y2101D01*
X8268D01*
X8266Y2101D01*
D02*
G37*
G36*
X9137Y2066D02*
X9135D01*
X9134Y2065D01*
X9131Y2065D01*
X9129Y2064D01*
X9127Y2063D01*
X9124Y2061D01*
X9122Y2059D01*
X9121Y2059D01*
X9121Y2058D01*
X9120Y2056D01*
X9119Y2054D01*
X9117Y2052D01*
X9117Y2048D01*
X9116Y2045D01*
X9116Y2041D01*
X9158D01*
Y2041D01*
Y2041D01*
Y2042D01*
X9158Y2043D01*
X9157Y2045D01*
X9157Y2048D01*
X9156Y2051D01*
X9155Y2054D01*
X9153Y2057D01*
X9151Y2059D01*
X9151Y2059D01*
X9150Y2060D01*
X9149Y2061D01*
X9147Y2063D01*
X9145Y2064D01*
X9143Y2065D01*
X9140Y2066D01*
X9137Y2066D01*
D02*
G37*
G36*
X9518D02*
X9518D01*
X9516Y2066D01*
X9514Y2065D01*
X9512Y2065D01*
X9510Y2064D01*
X9507Y2062D01*
X9504Y2061D01*
X9501Y2058D01*
X9501Y2057D01*
X9500Y2056D01*
X9499Y2054D01*
X9498Y2052D01*
X9497Y2048D01*
X9496Y2044D01*
X9495Y2039D01*
X9495Y2034D01*
Y2033D01*
Y2033D01*
Y2032D01*
X9495Y2031D01*
Y2030D01*
X9495Y2028D01*
X9496Y2024D01*
X9496Y2020D01*
X9498Y2016D01*
X9499Y2012D01*
X9501Y2009D01*
X9501Y2009D01*
X9503Y2008D01*
X9504Y2006D01*
X9506Y2005D01*
X9508Y2004D01*
X9511Y2002D01*
X9514Y2002D01*
X9517Y2001D01*
X9518D01*
X9519Y2001D01*
X9521Y2002D01*
X9524Y2002D01*
X9526Y2003D01*
X9529Y2005D01*
X9532Y2006D01*
X9535Y2009D01*
X9535Y2010D01*
X9536Y2011D01*
X9537Y2013D01*
X9539Y2015D01*
X9540Y2019D01*
X9541Y2023D01*
X9542Y2028D01*
X9542Y2033D01*
Y2033D01*
Y2034D01*
Y2035D01*
Y2036D01*
X9542Y2037D01*
X9542Y2039D01*
X9541Y2042D01*
X9540Y2046D01*
X9539Y2051D01*
X9538Y2054D01*
X9535Y2058D01*
X9535Y2058D01*
X9534Y2059D01*
X9533Y2060D01*
X9531Y2062D01*
X9528Y2063D01*
X9525Y2065D01*
X9522Y2065D01*
X9518Y2066D01*
D02*
G37*
G36*
X8046Y1938D02*
X8046D01*
X8046Y1938D01*
X8045Y1938D01*
X8044Y1938D01*
X8043Y1938D01*
X8042Y1937D01*
X8041Y1936D01*
X8040Y1936D01*
X8040Y1935D01*
X8039Y1935D01*
X8039Y1935D01*
X8039Y1934D01*
X8038Y1933D01*
X8038Y1932D01*
X8037Y1930D01*
X8037Y1929D01*
X8055D01*
Y1929D01*
Y1929D01*
X8055Y1929D01*
Y1929D01*
X8055Y1930D01*
X8055Y1931D01*
X8054Y1932D01*
X8054Y1933D01*
X8054Y1934D01*
X8053Y1935D01*
Y1935D01*
X8053Y1935D01*
X8053Y1935D01*
X8052Y1936D01*
X8051Y1937D01*
X8050Y1937D01*
X8049Y1938D01*
X8048Y1938D01*
X8047Y1938D01*
X8046Y1938D01*
D02*
G37*
G36*
X8717Y2066D02*
X8717D01*
X8715Y2066D01*
X8713Y2065D01*
X8711Y2065D01*
X8708Y2064D01*
X8705Y2062D01*
X8703Y2061D01*
X8700Y2058D01*
X8700Y2057D01*
X8699Y2056D01*
X8698Y2054D01*
X8697Y2052D01*
X8696Y2048D01*
X8695Y2044D01*
X8694Y2039D01*
X8694Y2034D01*
Y2033D01*
Y2033D01*
Y2032D01*
X8694Y2031D01*
Y2030D01*
X8694Y2028D01*
X8695Y2024D01*
X8695Y2020D01*
X8697Y2016D01*
X8698Y2012D01*
X8700Y2009D01*
X8700Y2009D01*
X8701Y2008D01*
X8703Y2006D01*
X8705Y2005D01*
X8707Y2004D01*
X8710Y2002D01*
X8713Y2002D01*
X8716Y2001D01*
X8717D01*
X8718Y2001D01*
X8720Y2002D01*
X8722Y2002D01*
X8725Y2003D01*
X8728Y2005D01*
X8731Y2006D01*
X8734Y2009D01*
X8734Y2010D01*
X8735Y2011D01*
X8736Y2013D01*
X8737Y2015D01*
X8739Y2019D01*
X8740Y2023D01*
X8741Y2028D01*
X8741Y2033D01*
Y2033D01*
Y2034D01*
Y2035D01*
Y2036D01*
X8741Y2037D01*
X8741Y2039D01*
X8740Y2042D01*
X8739Y2046D01*
X8738Y2051D01*
X8737Y2054D01*
X8734Y2058D01*
X8734Y2058D01*
X8733Y2059D01*
X8731Y2060D01*
X8730Y2062D01*
X8727Y2063D01*
X8724Y2065D01*
X8721Y2065D01*
X8717Y2066D01*
D02*
G37*
G36*
X8287Y1938D02*
X8286D01*
X8286Y1938D01*
X8285Y1938D01*
X8285Y1938D01*
X8283Y1938D01*
X8282Y1937D01*
X8281Y1936D01*
X8280Y1936D01*
X8280Y1935D01*
X8280Y1935D01*
X8279Y1935D01*
X8279Y1934D01*
X8278Y1933D01*
X8278Y1932D01*
X8278Y1930D01*
X8277Y1929D01*
X8296D01*
Y1929D01*
Y1929D01*
X8296Y1929D01*
Y1929D01*
X8295Y1930D01*
X8295Y1931D01*
X8295Y1932D01*
X8295Y1933D01*
X8294Y1934D01*
X8294Y1935D01*
Y1935D01*
X8293Y1935D01*
X8293Y1935D01*
X8292Y1936D01*
X8292Y1937D01*
X8291Y1937D01*
X8290Y1938D01*
X8288Y1938D01*
X8287Y1938D01*
X8287Y1938D01*
D02*
G37*
G36*
X8347Y1949D02*
X8332D01*
Y1934D01*
X8346D01*
X8347Y1935D01*
X8347Y1935D01*
X8348Y1935D01*
X8350Y1935D01*
X8351Y1935D01*
X8351Y1935D01*
X8352Y1935D01*
X8352Y1935D01*
X8352Y1936D01*
X8353Y1936D01*
X8353Y1936D01*
X8354Y1937D01*
X8354Y1937D01*
X8355Y1938D01*
X8355Y1938D01*
X8355Y1938D01*
X8355Y1939D01*
X8356Y1939D01*
X8356Y1940D01*
X8356Y1940D01*
X8356Y1941D01*
X8356Y1942D01*
Y1942D01*
Y1942D01*
X8356Y1942D01*
X8356Y1943D01*
X8356Y1944D01*
X8356Y1945D01*
X8355Y1946D01*
X8355Y1946D01*
X8354Y1947D01*
X8354Y1947D01*
X8353Y1948D01*
X8353Y1948D01*
X8352Y1948D01*
X8351Y1949D01*
X8350Y1949D01*
X8348Y1949D01*
X8347Y1949D01*
D02*
G37*
G36*
X8384Y1938D02*
X8384D01*
X8384Y1938D01*
X8383Y1938D01*
X8382Y1938D01*
X8381Y1938D01*
X8380Y1937D01*
X8379Y1936D01*
X8378Y1936D01*
X8378Y1935D01*
X8377Y1935D01*
X8377Y1935D01*
X8377Y1934D01*
X8376Y1933D01*
X8376Y1932D01*
X8375Y1930D01*
X8375Y1929D01*
X8393D01*
Y1929D01*
Y1929D01*
X8393Y1929D01*
Y1929D01*
X8393Y1930D01*
X8393Y1931D01*
X8392Y1932D01*
X8392Y1933D01*
X8392Y1934D01*
X8391Y1935D01*
Y1935D01*
X8391Y1935D01*
X8391Y1935D01*
X8390Y1936D01*
X8389Y1937D01*
X8388Y1937D01*
X8387Y1938D01*
X8386Y1938D01*
X8385Y1938D01*
X8384Y1938D01*
D02*
G37*
G36*
X8224Y1926D02*
X8224D01*
X8224Y1926D01*
X8224Y1926D01*
X8224Y1926D01*
X8224Y1925D01*
X8223Y1925D01*
X8223Y1925D01*
X8222Y1925D01*
X8222Y1925D01*
X8221Y1925D01*
X8220Y1925D01*
X8219Y1924D01*
X8218Y1924D01*
X8218Y1924D01*
X8216Y1924D01*
X8215Y1924D01*
X8215D01*
X8215Y1924D01*
X8214Y1923D01*
X8213Y1923D01*
X8213Y1923D01*
X8212Y1923D01*
X8211Y1923D01*
X8211Y1923D01*
X8211D01*
X8210Y1922D01*
X8210Y1922D01*
X8210Y1922D01*
X8209Y1922D01*
X8208Y1921D01*
Y1921D01*
X8208Y1921D01*
X8208Y1920D01*
X8208Y1920D01*
X8208Y1920D01*
X8208Y1919D01*
X8208Y1919D01*
X8208Y1918D01*
Y1918D01*
Y1918D01*
X8208Y1917D01*
X8208Y1917D01*
X8208Y1916D01*
X8208Y1916D01*
X8209Y1915D01*
X8209Y1915D01*
X8209Y1914D01*
X8210Y1914D01*
X8210Y1914D01*
X8211Y1914D01*
X8211Y1914D01*
X8212Y1913D01*
X8213Y1913D01*
X8214Y1913D01*
X8215D01*
X8215Y1913D01*
X8216Y1913D01*
X8217Y1913D01*
X8218Y1914D01*
X8219Y1914D01*
X8220Y1914D01*
X8220Y1915D01*
X8220Y1915D01*
X8221Y1915D01*
X8221Y1915D01*
X8222Y1916D01*
X8222Y1917D01*
X8223Y1917D01*
X8223Y1918D01*
X8224Y1918D01*
X8224Y1919D01*
X8224Y1919D01*
X8224Y1920D01*
X8224Y1920D01*
X8224Y1921D01*
X8224Y1922D01*
X8224Y1924D01*
X8224Y1926D01*
D02*
G37*
G36*
X8089D02*
X8088D01*
X8088Y1926D01*
X8088Y1926D01*
X8088Y1926D01*
X8088Y1925D01*
X8087Y1925D01*
X8087Y1925D01*
X8086Y1925D01*
X8086Y1925D01*
X8085Y1925D01*
X8084Y1925D01*
X8083Y1924D01*
X8083Y1924D01*
X8082Y1924D01*
X8081Y1924D01*
X8079Y1924D01*
X8079D01*
X8079Y1924D01*
X8078Y1923D01*
X8078Y1923D01*
X8077Y1923D01*
X8076Y1923D01*
X8075Y1923D01*
X8075Y1923D01*
X8075D01*
X8074Y1922D01*
X8074Y1922D01*
X8074Y1922D01*
X8073Y1922D01*
X8072Y1921D01*
Y1921D01*
X8072Y1921D01*
X8072Y1920D01*
X8072Y1920D01*
X8072Y1920D01*
X8072Y1919D01*
X8072Y1919D01*
X8072Y1918D01*
Y1918D01*
Y1918D01*
X8072Y1917D01*
X8072Y1917D01*
X8072Y1916D01*
X8072Y1916D01*
X8073Y1915D01*
X8073Y1915D01*
X8073Y1914D01*
X8074Y1914D01*
X8074Y1914D01*
X8075Y1914D01*
X8075Y1914D01*
X8076Y1913D01*
X8077Y1913D01*
X8078Y1913D01*
X8079D01*
X8079Y1913D01*
X8080Y1913D01*
X8081Y1913D01*
X8082Y1914D01*
X8083Y1914D01*
X8084Y1914D01*
X8084Y1915D01*
X8084Y1915D01*
X8085Y1915D01*
X8085Y1915D01*
X8086Y1916D01*
X8087Y1917D01*
X8087Y1917D01*
X8088Y1918D01*
X8088Y1918D01*
X8088Y1919D01*
X8088Y1919D01*
X8088Y1920D01*
X8088Y1920D01*
X8088Y1921D01*
X8088Y1922D01*
X8088Y1924D01*
X8089Y1926D01*
D02*
G37*
G36*
X8427D02*
X8426D01*
X8426Y1926D01*
X8426Y1926D01*
X8426Y1926D01*
X8426Y1925D01*
X8425Y1925D01*
X8425Y1925D01*
X8424Y1925D01*
X8424Y1925D01*
X8423Y1925D01*
X8422Y1925D01*
X8421Y1924D01*
X8421Y1924D01*
X8420Y1924D01*
X8419Y1924D01*
X8417Y1924D01*
X8417D01*
X8417Y1924D01*
X8416Y1923D01*
X8416Y1923D01*
X8415Y1923D01*
X8414Y1923D01*
X8413Y1923D01*
X8413Y1923D01*
X8413D01*
X8412Y1922D01*
X8412Y1922D01*
X8412Y1922D01*
X8411Y1922D01*
X8410Y1921D01*
Y1921D01*
X8410Y1921D01*
X8410Y1920D01*
X8410Y1920D01*
X8410Y1920D01*
X8410Y1919D01*
X8410Y1919D01*
X8410Y1918D01*
Y1918D01*
Y1918D01*
X8410Y1917D01*
X8410Y1917D01*
X8410Y1916D01*
X8410Y1916D01*
X8411Y1915D01*
X8411Y1915D01*
X8411Y1914D01*
X8412Y1914D01*
X8412Y1914D01*
X8413Y1914D01*
X8413Y1914D01*
X8414Y1913D01*
X8415Y1913D01*
X8416Y1913D01*
X8417D01*
X8417Y1913D01*
X8418Y1913D01*
X8419Y1913D01*
X8420Y1914D01*
X8421Y1914D01*
X8422Y1914D01*
X8422Y1915D01*
X8422Y1915D01*
X8423Y1915D01*
X8423Y1915D01*
X8424Y1916D01*
X8425Y1917D01*
X8425Y1917D01*
X8426Y1918D01*
X8426Y1918D01*
X8426Y1919D01*
X8426Y1919D01*
X8426Y1920D01*
X8426Y1920D01*
X8426Y1921D01*
X8426Y1922D01*
X8426Y1924D01*
X8427Y1926D01*
D02*
G37*
G36*
X8251Y1938D02*
X8250D01*
X8250Y1938D01*
X8249Y1938D01*
X8249Y1938D01*
X8248Y1937D01*
X8247Y1937D01*
X8246Y1936D01*
X8245Y1936D01*
X8245Y1935D01*
Y1935D01*
X8244Y1935D01*
X8244Y1935D01*
X8244Y1935D01*
X8244Y1934D01*
X8244Y1934D01*
X8244Y1933D01*
X8243Y1933D01*
X8243Y1932D01*
X8243Y1931D01*
X8243Y1931D01*
X8242Y1930D01*
X8242Y1929D01*
X8242Y1928D01*
X8242Y1927D01*
Y1926D01*
Y1926D01*
Y1925D01*
Y1925D01*
X8242Y1925D01*
Y1924D01*
X8242Y1924D01*
X8242Y1922D01*
X8243Y1921D01*
X8243Y1919D01*
X8244Y1918D01*
X8244Y1917D01*
X8245Y1916D01*
X8245D01*
X8245Y1916D01*
X8245Y1916D01*
X8246Y1915D01*
X8246Y1915D01*
X8247Y1914D01*
X8248Y1914D01*
X8250Y1913D01*
X8250Y1913D01*
X8251Y1913D01*
X8251D01*
X8251Y1913D01*
X8252Y1913D01*
X8253Y1914D01*
X8254Y1914D01*
X8255Y1915D01*
X8256Y1915D01*
X8257Y1916D01*
X8257Y1916D01*
Y1916D01*
X8257Y1916D01*
X8257Y1917D01*
X8257Y1917D01*
X8258Y1917D01*
X8258Y1917D01*
X8258Y1918D01*
X8258Y1918D01*
X8259Y1919D01*
X8259Y1920D01*
X8259Y1920D01*
X8259Y1921D01*
X8259Y1922D01*
X8259Y1923D01*
X8260Y1924D01*
Y1925D01*
Y1925D01*
Y1926D01*
Y1926D01*
X8260Y1926D01*
Y1927D01*
X8259Y1927D01*
X8259Y1928D01*
X8259Y1929D01*
X8259Y1931D01*
X8259Y1932D01*
X8258Y1934D01*
X8257Y1934D01*
X8257Y1935D01*
Y1935D01*
X8257Y1935D01*
X8257Y1935D01*
X8256Y1936D01*
X8255Y1937D01*
X8254Y1937D01*
X8253Y1938D01*
X8252Y1938D01*
X8251Y1938D01*
X8251Y1938D01*
D02*
G37*
G36*
X8010D02*
X8010D01*
X8010Y1938D01*
X8009Y1938D01*
X8008Y1938D01*
X8007Y1937D01*
X8006Y1937D01*
X8005Y1936D01*
X8005Y1936D01*
X8004Y1935D01*
Y1935D01*
X8004Y1935D01*
X8004Y1935D01*
X8004Y1935D01*
X8003Y1934D01*
X8003Y1934D01*
X8003Y1933D01*
X8003Y1933D01*
X8003Y1932D01*
X8002Y1931D01*
X8002Y1931D01*
X8002Y1930D01*
X8002Y1929D01*
X8002Y1928D01*
X8002Y1927D01*
Y1926D01*
Y1926D01*
Y1925D01*
Y1925D01*
X8002Y1925D01*
Y1924D01*
X8002Y1924D01*
X8002Y1922D01*
X8002Y1921D01*
X8003Y1919D01*
X8003Y1918D01*
X8004Y1917D01*
X8004Y1916D01*
X8004D01*
X8004Y1916D01*
X8005Y1916D01*
X8005Y1915D01*
X8006Y1915D01*
X8007Y1914D01*
X8008Y1914D01*
X8009Y1913D01*
X8010Y1913D01*
X8010Y1913D01*
X8011D01*
X8011Y1913D01*
X8012Y1913D01*
X8013Y1914D01*
X8014Y1914D01*
X8015Y1915D01*
X8016Y1915D01*
X8016Y1916D01*
X8017Y1916D01*
Y1916D01*
X8017Y1916D01*
X8017Y1917D01*
X8017Y1917D01*
X8017Y1917D01*
X8017Y1917D01*
X8018Y1918D01*
X8018Y1918D01*
X8018Y1919D01*
X8018Y1920D01*
X8019Y1920D01*
X8019Y1921D01*
X8019Y1922D01*
X8019Y1923D01*
X8019Y1924D01*
Y1925D01*
Y1925D01*
Y1926D01*
Y1926D01*
X8019Y1926D01*
Y1927D01*
X8019Y1927D01*
X8019Y1928D01*
X8019Y1929D01*
X8019Y1931D01*
X8018Y1932D01*
X8017Y1934D01*
X8017Y1934D01*
X8017Y1935D01*
Y1935D01*
X8016Y1935D01*
X8016Y1935D01*
X8016Y1936D01*
X8015Y1937D01*
X8014Y1937D01*
X8013Y1938D01*
X8012Y1938D01*
X8011Y1938D01*
X8010Y1938D01*
D02*
G37*
%LPD*%
D48*
X9626Y5374D02*
G03*
X9626Y5374I-118J0D01*
G01*
Y1713D02*
G03*
X9626Y1713I-118J0D01*
G01*
X1634D02*
G03*
X1634Y1713I-118J0D01*
G01*
Y5374D02*
G03*
X1634Y5374I-118J0D01*
G01*
X5134Y2106D02*
G03*
X5134Y2106I-45J0D01*
G01*
X7088Y3301D02*
G03*
X7088Y3301I-45J0D01*
G01*
X4740Y3091D02*
G03*
X4740Y3091I-45J0D01*
G01*
X7830Y2205D02*
G03*
X7830Y2205I-45J0D01*
G01*
X4154Y4484D02*
G03*
X4154Y4484I-45J0D01*
G01*
X3962Y4882D02*
G03*
X3962Y4882I-45J0D01*
G01*
X4465Y4232D02*
G03*
X4465Y4232I-45J0D01*
G01*
X5449Y3091D02*
G03*
X5449Y3091I-45J0D01*
G01*
X6299Y5118D02*
G03*
X6299Y5118I-45J0D01*
G01*
X6452Y5354D02*
G03*
X6452Y5354I-45J0D01*
G01*
X3031Y1772D02*
X3642D01*
X2116Y1654D02*
X2618D01*
X2116Y1772D02*
X2687D01*
X7539Y3583D02*
X7657D01*
Y3760D01*
X7539D02*
X7657D01*
X7539Y3583D02*
Y3760D01*
X8602Y3907D02*
X8720D01*
Y4085D01*
X8602D02*
X8720D01*
X8602Y3907D02*
Y4085D01*
X8051Y4528D02*
X8130D01*
X8051Y4606D02*
X8130D01*
X3051Y3986D02*
X3130D01*
X3051Y4065D02*
X3130D01*
X3085Y4094D02*
X3115D01*
X3085Y4214D02*
X3115D01*
X8036Y4300D02*
X8066D01*
X8036Y4420D02*
X8066D01*
X8371Y4509D02*
X8401D01*
X8371Y4389D02*
X8401D01*
X8371Y4341D02*
X8401D01*
X8371Y4221D02*
X8401D01*
X8602Y4823D02*
X8681D01*
X8602Y4902D02*
X8681D01*
X7982Y5236D02*
X8002D01*
X7963Y5266D02*
X7982D01*
Y5236D02*
Y5266D01*
Y4980D02*
Y5236D01*
X7972Y4980D02*
X7982D01*
Y4961D02*
Y4980D01*
Y4961D02*
X7992D01*
X8031Y5000D02*
X8111D01*
X8031Y4921D02*
X8111D01*
X8208D02*
X8288D01*
X8208Y5000D02*
X8288D01*
X8445Y5118D02*
X8524D01*
X8445Y5197D02*
X8524D01*
X8445Y5098D02*
X8524D01*
X8445Y5020D02*
X8524D01*
X8445Y4921D02*
X8524D01*
X8445Y5000D02*
X8524D01*
X8445Y4823D02*
X8524D01*
X8445Y4902D02*
X8524D01*
X8445Y4724D02*
X8524D01*
X8445Y4803D02*
X8524D01*
X8051Y4626D02*
X8130D01*
X8051Y4705D02*
X8130D01*
X7854Y5020D02*
X7933D01*
X7854Y4941D02*
X7933D01*
X7854Y4724D02*
X7933D01*
X7854Y4646D02*
X7933D01*
X7854Y5039D02*
X7933D01*
X7854Y5118D02*
X7933D01*
X8218Y4008D02*
X8318D01*
X8218Y3808D02*
X8318D01*
X8218D02*
Y4008D01*
X8318Y3808D02*
Y4008D01*
X8336Y3808D02*
Y3908D01*
X8536Y3808D02*
Y3908D01*
X8336Y3808D02*
X8536D01*
X8336Y3908D02*
X8536D01*
X7677Y3917D02*
Y3996D01*
X7756Y3917D02*
Y3996D01*
X7519Y4035D02*
X7599D01*
X7519Y3957D02*
X7599D01*
X7648Y3828D02*
Y3928D01*
X7448Y3828D02*
Y3928D01*
X7648D01*
X7448Y3828D02*
X7648D01*
X8012Y3563D02*
Y3642D01*
X8091Y3563D02*
Y3642D01*
X7874Y3661D02*
X7953D01*
X7874Y3583D02*
X7953D01*
X7874Y3484D02*
X7953D01*
X7874Y3563D02*
X7953D01*
X6747Y2338D02*
X7047D01*
X6747Y3088D02*
X7047D01*
Y2563D02*
Y2863D01*
X6747Y2563D02*
Y2863D01*
X7047Y2338D02*
Y2363D01*
X6747Y2338D02*
Y2363D01*
X7047Y3063D02*
Y3088D01*
X6747Y3063D02*
Y3088D01*
X3700Y5138D02*
X3780D01*
X3700Y5059D02*
X3780D01*
X3700Y4961D02*
X3780D01*
X3700Y5039D02*
X3780D01*
X3735Y4822D02*
X3765D01*
X3735Y4942D02*
X3765D01*
X3615Y5206D02*
Y5306D01*
X3415Y5206D02*
Y5306D01*
X3615D01*
X3415Y5206D02*
X3615D01*
X3189Y5069D02*
X3268D01*
X3189Y4990D02*
X3268D01*
X3957Y4636D02*
Y4715D01*
X4035Y4636D02*
Y4715D01*
X4114Y4419D02*
X4193D01*
X4114Y4341D02*
X4193D01*
X4114Y4242D02*
X4193D01*
X4114Y4321D02*
X4193D01*
X4340Y4419D02*
X4420D01*
X4340Y4341D02*
X4420D01*
X4556Y4773D02*
X4656D01*
X4556Y5073D02*
X4656D01*
Y4773D02*
Y5073D01*
X4556Y4773D02*
Y5073D01*
X5280Y4664D02*
X5310D01*
X5280Y4784D02*
X5310D01*
X5246Y4567D02*
X5325D01*
X5246Y4646D02*
X5325D01*
X5708Y4508D02*
X5788D01*
X5708Y4429D02*
X5788D01*
X5827Y4441D02*
Y4496D01*
X5708Y4409D02*
X5788D01*
X5708Y4331D02*
X5788D01*
X5827Y4343D02*
Y4398D01*
X5708Y4311D02*
X5788D01*
X5708Y4232D02*
X5788D01*
X5827Y4244D02*
Y4299D01*
X5708Y4213D02*
X5788D01*
X5708Y4134D02*
X5788D01*
X5827Y4146D02*
Y4201D01*
X5708Y4114D02*
X5788D01*
X5708Y4035D02*
X5788D01*
X5827Y4047D02*
Y4102D01*
X5708Y4016D02*
X5788D01*
X5708Y3937D02*
X5788D01*
X5827Y3949D02*
Y4004D01*
X5531Y4429D02*
X5611D01*
X5531Y4508D02*
X5611D01*
X5531Y4331D02*
X5611D01*
X5531Y4409D02*
X5611D01*
X5531Y4232D02*
X5611D01*
X5531Y4311D02*
X5611D01*
X5531Y4134D02*
X5611D01*
X5531Y4213D02*
X5611D01*
X5531Y4035D02*
X5611D01*
X5531Y4114D02*
X5611D01*
X5197Y3799D02*
X5276D01*
X5197Y3720D02*
X5276D01*
X6201Y2067D02*
Y2146D01*
X6280Y2067D02*
Y2146D01*
Y2224D02*
Y2303D01*
X6201Y2224D02*
Y2303D01*
X6083Y2382D02*
Y2461D01*
X6161Y2382D02*
Y2461D01*
X5984Y2382D02*
Y2461D01*
X6063Y2382D02*
Y2461D01*
X5886Y2382D02*
Y2461D01*
X5965Y2382D02*
Y2461D01*
X5866Y2382D02*
Y2461D01*
X5787Y2382D02*
Y2461D01*
X5689Y2382D02*
Y2461D01*
X5768Y2382D02*
Y2461D01*
X5591Y2382D02*
Y2461D01*
X5669Y2382D02*
Y2461D01*
X5492Y2382D02*
Y2461D01*
X5571Y2382D02*
Y2461D01*
X4380Y3652D02*
X4616D01*
X4498Y3524D02*
Y3780D01*
X4380Y2638D02*
X4616D01*
X4498Y2510D02*
Y2766D01*
X3780Y1850D02*
Y2087D01*
X3652Y1969D02*
X3907D01*
X2864Y1850D02*
Y2087D01*
X2736Y1969D02*
X2992D01*
X1969Y1850D02*
Y2087D01*
X1841Y1969D02*
X2096D01*
X4901Y1811D02*
X4981D01*
X4901Y1732D02*
X4981D01*
X4901Y1693D02*
X4981D01*
X4901Y1614D02*
X4981D01*
X1454Y2259D02*
X4246D01*
Y3967D01*
X1454D02*
X4246D01*
X1454Y2259D02*
Y3967D01*
X1621Y3834D02*
X4071D01*
Y2509D02*
Y3834D01*
X1621Y2509D02*
X4071D01*
X1621D02*
Y3834D01*
X5531Y3937D02*
X5611D01*
X5531Y4016D02*
X5611D01*
X4862Y3011D02*
Y3091D01*
X4941Y3011D02*
Y3091D01*
X5039Y3011D02*
Y3091D01*
X4961Y3011D02*
Y3091D01*
X5335Y3011D02*
Y3091D01*
X5256Y3011D02*
Y3091D01*
X5157Y3011D02*
Y3091D01*
X5236Y3011D02*
Y3091D01*
X4941Y2185D02*
Y2264D01*
X4862Y2185D02*
Y2264D01*
X5236Y2175D02*
Y2254D01*
X5157Y2175D02*
Y2254D01*
X5039Y2185D02*
Y2264D01*
X4961Y2185D02*
Y2264D01*
X5138Y3011D02*
Y3091D01*
X5059Y3011D02*
Y3091D01*
X4843Y3011D02*
Y3091D01*
X4764Y3011D02*
Y3091D01*
X6850Y4980D02*
X6929D01*
X6850Y5059D02*
X6929D01*
X6575Y4823D02*
Y4902D01*
X6654Y4823D02*
Y4902D01*
X6437Y5089D02*
X6516D01*
X6437Y5167D02*
X6516D01*
X3700Y5157D02*
X3780D01*
X3700Y5236D02*
X3780D01*
X8405Y4035D02*
X8485D01*
X8405Y3957D02*
X8485D01*
X7618Y2096D02*
Y2176D01*
X7539Y2096D02*
Y2176D01*
X7854Y2647D02*
Y2727D01*
X7776Y2647D02*
Y2727D01*
X7854Y2805D02*
Y2884D01*
X7776Y2805D02*
Y2884D01*
X8179Y2726D02*
Y2805D01*
X8100Y2726D02*
Y2805D01*
X8002Y2982D02*
Y3061D01*
X8081Y2982D02*
Y3061D01*
X7963Y2982D02*
Y3061D01*
X7884Y2982D02*
Y3061D01*
X7896Y3268D02*
X7951D01*
X7963Y3149D02*
Y3229D01*
X7884Y3149D02*
Y3229D01*
X8467Y3268D02*
X8522D01*
X8533Y3149D02*
Y3229D01*
X8455Y3149D02*
Y3229D01*
X8533Y2982D02*
Y3061D01*
X8455Y2982D02*
Y3061D01*
X8563Y2982D02*
Y3061D01*
X8642Y2982D02*
Y3061D01*
X8425Y2805D02*
Y2884D01*
X8346Y2805D02*
Y2884D01*
X8425Y2647D02*
Y2727D01*
X8346Y2647D02*
Y2727D01*
X8750Y2726D02*
Y2805D01*
X8671Y2726D02*
Y2805D01*
X7647Y4675D02*
X7727D01*
X7647Y4596D02*
X7727D01*
X7647Y4705D02*
X7727D01*
X7647Y4783D02*
X7727D01*
X7854Y4843D02*
X7933D01*
X7854Y4921D02*
X7933D01*
X7854Y4744D02*
X7933D01*
X7854Y4823D02*
X7933D01*
X8445Y4705D02*
X8524D01*
X8445Y4626D02*
X8524D01*
X8248Y4705D02*
X8327D01*
X8248Y4626D02*
X8327D01*
X7086Y3839D02*
X7166D01*
X7086Y3760D02*
X7166D01*
X6555Y4822D02*
Y4902D01*
X6476Y4822D02*
Y4902D01*
X6624Y5167D02*
X6703D01*
X6624Y5089D02*
X6703D01*
X6850Y5167D02*
X6929D01*
X6850Y5089D02*
X6929D01*
X7018Y4803D02*
X7195D01*
Y4685D02*
Y4803D01*
X7018Y4685D02*
X7195D01*
X7018D02*
Y4803D01*
X6584Y4567D02*
X6664D01*
X6584Y4646D02*
X6664D01*
X6584Y4350D02*
X6664D01*
X6584Y4272D02*
X6664D01*
X6584Y4370D02*
X6664D01*
X6584Y4449D02*
X6664D01*
X6427Y4547D02*
X6506D01*
X6427Y4469D02*
X6506D01*
X6584Y4547D02*
X6664D01*
X6584Y4469D02*
X6664D01*
X6909Y4567D02*
X6989D01*
X6909Y4646D02*
X6989D01*
X7106Y4242D02*
X7185D01*
X7106Y4163D02*
X7185D01*
X7106Y4547D02*
X7185D01*
X7106Y4469D02*
X7185D01*
X7333Y4409D02*
Y4489D01*
X7254Y4409D02*
Y4489D01*
X6486Y4163D02*
X6663D01*
Y4045D02*
Y4163D01*
X6486Y4045D02*
X6663D01*
X6486D02*
Y4163D01*
X6574Y3986D02*
X6654D01*
X6574Y3907D02*
X6654D01*
X6574Y3809D02*
X6654D01*
X6574Y3888D02*
X6654D01*
X6526Y3474D02*
Y3553D01*
X6604Y3474D02*
Y3553D01*
X6634Y3474D02*
Y3553D01*
X6713Y3474D02*
Y3553D01*
X6309Y3071D02*
X6486D01*
Y2953D02*
Y3071D01*
X6309Y2953D02*
X6486D01*
X6309D02*
Y3071D01*
X6673Y3120D02*
Y3199D01*
X6594Y3120D02*
Y3199D01*
X6860Y3406D02*
X6939D01*
X6860Y3484D02*
X6939D01*
X6673Y3277D02*
Y3357D01*
X6594Y3277D02*
Y3357D01*
X6791Y3277D02*
Y3357D01*
X6713Y3277D02*
Y3357D01*
X3839Y4636D02*
Y4715D01*
X3760Y4636D02*
Y4715D01*
X7244Y2913D02*
X7323D01*
X7244Y2992D02*
X7323D01*
X6634Y2934D02*
Y3013D01*
X6555Y2934D02*
Y3013D01*
X5551Y3228D02*
X5630D01*
X5551Y3150D02*
X5630D01*
X5551Y3327D02*
X5630D01*
X5551Y3248D02*
X5630D01*
X5551Y3425D02*
X5630D01*
X5551Y3346D02*
X5630D01*
X5551Y3524D02*
X5630D01*
X5551Y3445D02*
X5630D01*
X5551Y3622D02*
X5630D01*
X5551Y3543D02*
X5630D01*
X3454Y4852D02*
X3534D01*
X3454Y4931D02*
X3534D01*
X3662Y4429D02*
Y4804D01*
X3287D02*
X3662D01*
X3287Y4429D02*
X3662D01*
X3287D02*
Y4804D01*
X6437Y4980D02*
X6516D01*
X6437Y5059D02*
X6516D01*
X4695Y3406D02*
X4774D01*
X4695Y3484D02*
X4774D01*
X7510Y2096D02*
Y2176D01*
X7431Y2096D02*
Y2176D01*
Y1899D02*
Y1979D01*
X7510Y1899D02*
Y1979D01*
X7106Y4370D02*
X7185D01*
X7106Y4449D02*
X7185D01*
X7106Y4350D02*
X7185D01*
X7106Y4272D02*
X7185D01*
X7244Y4350D02*
X7333D01*
X7224Y4370D02*
X7244Y4350D01*
X6496Y3120D02*
Y3199D01*
X6575Y3120D02*
Y3199D01*
X6112Y3789D02*
Y3967D01*
X6230D01*
Y3789D02*
Y3967D01*
X6112Y3789D02*
X6230D01*
X7195Y5315D02*
X7274D01*
X7195Y5394D02*
X7274D01*
X7047Y5167D02*
X7126D01*
X7047Y5089D02*
X7126D01*
X6496Y4616D02*
X6545Y4557D01*
X6476Y4616D02*
X6496D01*
X6923Y1835D02*
X6998Y1985D01*
X6923Y1835D02*
X7073D01*
X6998Y1985D02*
X7073Y1835D01*
X4153Y1614D02*
X4233D01*
X4153Y1693D02*
X4233D01*
X4114Y1626D02*
Y1681D01*
X3927Y1772D02*
X4085D01*
X3140Y1654D02*
X3642D01*
X3927D02*
X4085D01*
X4153Y1732D02*
X4233D01*
X4153Y1811D02*
X4233D01*
X4114Y1744D02*
Y1799D01*
X9434Y4753D02*
Y5263D01*
X9214Y4615D02*
Y4715D01*
X9164Y4665D02*
X9264D01*
X9434Y2458D02*
Y2968D01*
X9164Y3023D02*
X9264D01*
X8994Y5263D02*
X9434D01*
X8994Y4753D02*
X9434D01*
X8994D02*
Y5263D01*
Y2968D02*
X9434D01*
X8994Y2458D02*
X9434D01*
X8994D02*
Y2968D01*
X3346Y5709D02*
Y5769D01*
X3366Y5749D01*
X3386Y5769D01*
Y5709D01*
X3446Y5769D02*
X3406D01*
Y5709D01*
X3446D01*
X3406Y5739D02*
X3426D01*
X3506Y5759D02*
X3496Y5769D01*
X3476D01*
X3466Y5759D01*
Y5719D01*
X3476Y5709D01*
X3496D01*
X3506Y5719D01*
X3526Y5769D02*
Y5709D01*
Y5739D01*
X3566D01*
Y5769D01*
Y5709D01*
X3586D02*
X3606D01*
X3596D01*
Y5769D01*
X3586Y5759D01*
X3636D02*
X3646Y5769D01*
X3666D01*
X3676Y5759D01*
Y5719D01*
X3666Y5709D01*
X3646D01*
X3636Y5719D01*
Y5759D01*
X5335Y3219D02*
X5375D01*
X5355D01*
Y3159D01*
X5395D02*
Y3219D01*
X5425D01*
X5435Y3209D01*
Y3189D01*
X5425Y3179D01*
X5395D01*
X5455Y3159D02*
X5475D01*
X5465D01*
Y3219D01*
X5455Y3209D01*
X4469Y3121D02*
X4508D01*
X4488D01*
Y3061D01*
X4528D02*
Y3121D01*
X4558D01*
X4568Y3111D01*
Y3091D01*
X4558Y3081D01*
X4528D01*
X4628Y3061D02*
X4588D01*
X4628Y3101D01*
Y3111D01*
X4618Y3121D01*
X4598D01*
X4588Y3111D01*
X5157Y2127D02*
X5197D01*
X5177D01*
Y2067D01*
X5217D02*
Y2127D01*
X5247D01*
X5257Y2117D01*
Y2097D01*
X5247Y2087D01*
X5217D01*
X5277Y2117D02*
X5287Y2127D01*
X5307D01*
X5317Y2117D01*
Y2107D01*
X5307Y2097D01*
X5297D01*
X5307D01*
X5317Y2087D01*
Y2077D01*
X5307Y2067D01*
X5287D01*
X5277Y2077D01*
X3683Y5271D02*
Y5331D01*
X3713D01*
X3723Y5321D01*
Y5301D01*
X3713Y5291D01*
X3683D01*
X3703D02*
X3723Y5271D01*
X3773D02*
Y5331D01*
X3743Y5301D01*
X3783D01*
X3803Y5321D02*
X3813Y5331D01*
X3833D01*
X3843Y5321D01*
Y5311D01*
X3833Y5301D01*
X3843Y5291D01*
Y5281D01*
X3833Y5271D01*
X3813D01*
X3803Y5281D01*
Y5291D01*
X3813Y5301D01*
X3803Y5311D01*
Y5321D01*
X3813Y5301D02*
X3833D01*
X8388Y4070D02*
Y4130D01*
X8418D01*
X8428Y4120D01*
Y4100D01*
X8418Y4090D01*
X8388D01*
X8408D02*
X8428Y4070D01*
X8488Y4130D02*
X8448D01*
Y4100D01*
X8468Y4110D01*
X8478D01*
X8488Y4100D01*
Y4080D01*
X8478Y4070D01*
X8458D01*
X8448Y4080D01*
X8548Y4130D02*
X8508D01*
Y4100D01*
X8528Y4110D01*
X8538D01*
X8548Y4100D01*
Y4080D01*
X8538Y4070D01*
X8518D01*
X8508Y4080D01*
X4144Y4597D02*
X4184D01*
X4164D01*
Y4537D01*
X4204D02*
Y4597D01*
X4234D01*
X4244Y4587D01*
Y4567D01*
X4234Y4557D01*
X4204D01*
X4264Y4547D02*
X4274Y4537D01*
X4294D01*
X4304Y4547D01*
Y4587D01*
X4294Y4597D01*
X4274D01*
X4264Y4587D01*
Y4577D01*
X4274Y4567D01*
X4304D01*
X7687Y2334D02*
X7727D01*
X7707D01*
Y2274D01*
X7747D02*
Y2334D01*
X7777D01*
X7787Y2324D01*
Y2304D01*
X7777Y2294D01*
X7747D01*
X7807Y2274D02*
X7827D01*
X7817D01*
Y2334D01*
X7807Y2324D01*
X7897Y2274D02*
X7857D01*
X7897Y2314D01*
Y2324D01*
X7887Y2334D01*
X7867D01*
X7857Y2324D01*
X3976Y4912D02*
X4016D01*
X3996D01*
Y4852D01*
X4036D02*
Y4912D01*
X4066D01*
X4076Y4902D01*
Y4882D01*
X4066Y4872D01*
X4036D01*
X4096Y4902D02*
X4106Y4912D01*
X4126D01*
X4136Y4902D01*
Y4892D01*
X4126Y4882D01*
X4136Y4872D01*
Y4862D01*
X4126Y4852D01*
X4106D01*
X4096Y4862D01*
Y4872D01*
X4106Y4882D01*
X4096Y4892D01*
Y4902D01*
X4106Y4882D02*
X4126D01*
X4321Y4164D02*
X4361D01*
X4341D01*
Y4104D01*
X4381D02*
Y4164D01*
X4411D01*
X4421Y4154D01*
Y4134D01*
X4411Y4124D01*
X4381D01*
X4441Y4104D02*
X4461D01*
X4451D01*
Y4164D01*
X4441Y4154D01*
X4491D02*
X4501Y4164D01*
X4521D01*
X4531Y4154D01*
Y4114D01*
X4521Y4104D01*
X4501D01*
X4491Y4114D01*
Y4154D01*
X6073Y3761D02*
X6113D01*
X6093D01*
Y3701D01*
X6133D02*
Y3761D01*
X6163D01*
X6173Y3751D01*
Y3731D01*
X6163Y3721D01*
X6133D01*
X6193Y3701D02*
X6213D01*
X6203D01*
Y3761D01*
X6193Y3751D01*
X6273Y3701D02*
Y3761D01*
X6243Y3731D01*
X6283D01*
X3297Y4410D02*
Y4370D01*
X3317Y4350D01*
X3337Y4370D01*
Y4410D01*
X3387D02*
X3367D01*
X3357Y4400D01*
Y4360D01*
X3367Y4350D01*
X3387D01*
X3397Y4360D01*
Y4400D01*
X3387Y4410D01*
X3417D02*
Y4350D01*
X3457D01*
X3477Y4410D02*
Y4360D01*
X3487Y4350D01*
X3507D01*
X3517Y4360D01*
Y4410D01*
X3537Y4350D02*
Y4410D01*
X3557Y4390D01*
X3577Y4410D01*
Y4350D01*
X3637Y4410D02*
X3597D01*
Y4350D01*
X3637D01*
X3597Y4380D02*
X3617D01*
X4468Y4783D02*
X4528D01*
Y4813D01*
X4518Y4823D01*
X4478D01*
X4468Y4813D01*
Y4783D01*
Y4883D02*
Y4843D01*
X4528D01*
Y4883D01*
X4498Y4843D02*
Y4863D01*
X4468Y4903D02*
X4528D01*
Y4933D01*
X4518Y4943D01*
X4508D01*
X4498Y4933D01*
Y4903D01*
Y4933D01*
X4488Y4943D01*
X4478D01*
X4468Y4933D01*
Y4903D01*
Y4963D02*
X4518D01*
X4528Y4973D01*
Y4993D01*
X4518Y5003D01*
X4468D01*
X4478Y5063D02*
X4468Y5053D01*
Y5033D01*
X4478Y5023D01*
X4518D01*
X4528Y5033D01*
Y5053D01*
X4518Y5063D01*
X4498D01*
Y5043D01*
X4725Y4843D02*
X4715Y4853D01*
X4695D01*
X4685Y4843D01*
Y4803D01*
X4695Y4793D01*
X4715D01*
X4725Y4803D01*
Y4823D01*
X4705D01*
X4745Y4793D02*
Y4853D01*
X4785Y4793D01*
Y4853D01*
X4805D02*
Y4793D01*
X4835D01*
X4845Y4803D01*
Y4843D01*
X4835Y4853D01*
X4805D01*
X4685Y4952D02*
X4725D01*
X4705D01*
Y4892D01*
X4745Y4952D02*
X4785Y4892D01*
Y4952D02*
X4745Y4892D01*
X4895Y4952D02*
X4875D01*
X4865Y4942D01*
Y4902D01*
X4875Y4892D01*
X4895D01*
X4905Y4902D01*
Y4942D01*
X4895Y4952D01*
X4925D02*
Y4902D01*
X4935Y4892D01*
X4955D01*
X4965Y4902D01*
Y4952D01*
X4985D02*
X5025D01*
X5005D01*
Y4892D01*
X4685Y4990D02*
Y5050D01*
X4715D01*
X4725Y5040D01*
Y5020D01*
X4715Y5010D01*
X4685D01*
X4705D02*
X4725Y4990D01*
X4745Y5050D02*
X4785Y4990D01*
Y5050D02*
X4745Y4990D01*
X4865Y5050D02*
X4885D01*
X4875D01*
Y4990D01*
X4865D01*
X4885D01*
X4915D02*
Y5050D01*
X4955Y4990D01*
Y5050D01*
X7982Y1733D02*
X7999D01*
X7991D01*
Y1683D01*
X7982D01*
X7999D01*
X8024D02*
Y1733D01*
X8041Y1716D01*
X8057Y1733D01*
Y1683D01*
X8074D02*
Y1733D01*
X8099D01*
X8107Y1725D01*
Y1708D01*
X8099Y1700D01*
X8074D01*
X8091D02*
X8107Y1683D01*
X8124Y1708D02*
X8157D01*
X8174Y1683D02*
X8191D01*
X8182D01*
Y1733D01*
X8174Y1725D01*
X8216D02*
X8224Y1733D01*
X8241D01*
X8249Y1725D01*
Y1691D01*
X8241Y1683D01*
X8224D01*
X8216Y1691D01*
Y1725D01*
X8266Y1733D02*
X8299D01*
Y1725D01*
X8266Y1691D01*
Y1683D01*
X8316Y1708D02*
X8349D01*
X8365Y1683D02*
Y1733D01*
X8390D01*
X8399Y1725D01*
Y1708D01*
X8390Y1700D01*
X8365D01*
X8449Y1725D02*
X8440Y1733D01*
X8424D01*
X8415Y1725D01*
Y1691D01*
X8424Y1683D01*
X8440D01*
X8449Y1691D01*
X8465Y1733D02*
Y1683D01*
X8490D01*
X8499Y1691D01*
Y1700D01*
X8490Y1708D01*
X8465D01*
X8490D01*
X8499Y1716D01*
Y1725D01*
X8490Y1733D01*
X8465D01*
X8565Y1683D02*
Y1733D01*
X8590D01*
X8599Y1725D01*
Y1708D01*
X8590Y1700D01*
X8565D01*
X8582D02*
X8599Y1683D01*
X8649Y1733D02*
X8615D01*
Y1683D01*
X8649D01*
X8615Y1708D02*
X8632D01*
X8665Y1733D02*
Y1700D01*
X8682Y1683D01*
X8699Y1700D01*
Y1733D01*
X8765Y1683D02*
X8782D01*
X8774D01*
Y1733D01*
X8765Y1725D01*
X8016Y1813D02*
X8007Y1822D01*
X7991D01*
X7982Y1813D01*
Y1805D01*
X7991Y1797D01*
X8007D01*
X8016Y1788D01*
Y1780D01*
X8007Y1772D01*
X7991D01*
X7982Y1780D01*
X8041Y1772D02*
X8057D01*
X8066Y1780D01*
Y1797D01*
X8057Y1805D01*
X8041D01*
X8032Y1797D01*
Y1780D01*
X8041Y1772D01*
X8091D02*
Y1813D01*
Y1797D01*
X8082D01*
X8099D01*
X8091D01*
Y1813D01*
X8099Y1822D01*
X8132Y1813D02*
Y1805D01*
X8124D01*
X8141D01*
X8132D01*
Y1780D01*
X8141Y1772D01*
X8199Y1813D02*
X8191Y1822D01*
X8174D01*
X8166Y1813D01*
Y1780D01*
X8174Y1772D01*
X8191D01*
X8199Y1780D01*
X8224Y1772D02*
X8241D01*
X8249Y1780D01*
Y1797D01*
X8241Y1805D01*
X8224D01*
X8216Y1797D01*
Y1780D01*
X8224Y1772D01*
X8266Y1805D02*
Y1772D01*
Y1788D01*
X8274Y1797D01*
X8282Y1805D01*
X8291D01*
X8340Y1772D02*
X8324D01*
X8316Y1780D01*
Y1797D01*
X8324Y1805D01*
X8340D01*
X8349Y1797D01*
Y1788D01*
X8316D01*
X8449Y1813D02*
X8440Y1822D01*
X8424D01*
X8415Y1813D01*
Y1805D01*
X8424Y1797D01*
X8440D01*
X8449Y1788D01*
Y1780D01*
X8440Y1772D01*
X8424D01*
X8415Y1780D01*
X8465Y1755D02*
Y1805D01*
X8490D01*
X8499Y1797D01*
Y1780D01*
X8490Y1772D01*
X8465D01*
X8540D02*
X8524D01*
X8515Y1780D01*
Y1797D01*
X8524Y1805D01*
X8540D01*
X8549Y1797D01*
Y1788D01*
X8515D01*
X8599Y1805D02*
X8574D01*
X8565Y1797D01*
Y1780D01*
X8574Y1772D01*
X8599D01*
X8624Y1813D02*
Y1805D01*
X8615D01*
X8632D01*
X8624D01*
Y1780D01*
X8632Y1772D01*
X8657Y1805D02*
Y1772D01*
Y1788D01*
X8665Y1797D01*
X8674Y1805D01*
X8682D01*
X8707D02*
Y1780D01*
X8715Y1772D01*
X8740D01*
Y1805D01*
X8757Y1772D02*
Y1805D01*
X8765D01*
X8774Y1797D01*
Y1772D01*
Y1797D01*
X8782Y1805D01*
X8790Y1797D01*
Y1772D01*
X8857D02*
Y1805D01*
X8874Y1822D01*
X8890Y1805D01*
Y1772D01*
Y1797D01*
X8857D01*
X8907Y1772D02*
Y1805D01*
X8932D01*
X8940Y1797D01*
Y1772D01*
X8965Y1805D02*
X8982D01*
X8990Y1797D01*
Y1772D01*
X8965D01*
X8957Y1780D01*
X8965Y1788D01*
X8990D01*
X9007Y1772D02*
X9024D01*
X9015D01*
Y1822D01*
X9007D01*
X9049Y1805D02*
Y1780D01*
X9057Y1772D01*
X9082D01*
Y1763D01*
X9074Y1755D01*
X9065D01*
X9082Y1772D02*
Y1805D01*
X9099D02*
X9132D01*
X9099Y1772D01*
X9132D01*
X9174D02*
X9157D01*
X9149Y1780D01*
Y1797D01*
X9157Y1805D01*
X9174D01*
X9182Y1797D01*
Y1788D01*
X9149D01*
X9199Y1805D02*
Y1772D01*
Y1788D01*
X9207Y1797D01*
X9215Y1805D01*
X9224D01*
X9299Y1772D02*
Y1822D01*
X9324D01*
X9332Y1813D01*
Y1797D01*
X9324Y1788D01*
X9299D01*
X9382Y1772D02*
X9349D01*
X9382Y1805D01*
Y1813D01*
X9373Y1822D01*
X9357D01*
X9349Y1813D01*
X4381Y2393D02*
X4371Y2402D01*
X4351D01*
X4341Y2393D01*
Y2383D01*
X4351Y2373D01*
X4371D01*
X4381Y2363D01*
Y2353D01*
X4371Y2343D01*
X4351D01*
X4341Y2353D01*
X4441Y2402D02*
X4401D01*
Y2343D01*
X4441D01*
X4401Y2373D02*
X4421D01*
X4461Y2402D02*
Y2343D01*
X4500D01*
X4560Y2402D02*
X4520D01*
Y2343D01*
X4560D01*
X4520Y2373D02*
X4540D01*
X4620Y2393D02*
X4610Y2402D01*
X4590D01*
X4580Y2393D01*
Y2353D01*
X4590Y2343D01*
X4610D01*
X4620Y2353D01*
X4640Y2402D02*
X4680D01*
X4660D01*
Y2343D01*
X4390Y3356D02*
Y3416D01*
X4410Y3396D01*
X4430Y3416D01*
Y3356D01*
X4480Y3416D02*
X4460D01*
X4450Y3406D01*
Y3366D01*
X4460Y3356D01*
X4480D01*
X4490Y3366D01*
Y3406D01*
X4480Y3416D01*
X4510D02*
Y3356D01*
X4540D01*
X4550Y3366D01*
Y3406D01*
X4540Y3416D01*
X4510D01*
X4610D02*
X4570D01*
Y3356D01*
X4610D01*
X4570Y3386D02*
X4590D01*
X3711Y1674D02*
X3701Y1684D01*
X3681D01*
X3671Y1674D01*
Y1664D01*
X3681Y1654D01*
X3701D01*
X3711Y1644D01*
Y1634D01*
X3701Y1624D01*
X3681D01*
X3671Y1634D01*
X3731Y1624D02*
Y1684D01*
X3761D01*
X3771Y1674D01*
Y1654D01*
X3761Y1644D01*
X3731D01*
X3791Y1624D02*
Y1664D01*
X3811Y1684D01*
X3831Y1664D01*
Y1624D01*
Y1654D01*
X3791D01*
X3851Y1624D02*
Y1684D01*
X3891Y1624D01*
Y1684D01*
X3711Y1792D02*
X3701Y1802D01*
X3681D01*
X3671Y1792D01*
Y1782D01*
X3681Y1772D01*
X3701D01*
X3711Y1762D01*
Y1752D01*
X3701Y1742D01*
X3681D01*
X3671Y1752D01*
X3731Y1802D02*
X3771D01*
X3751D01*
Y1742D01*
X3821Y1802D02*
X3801D01*
X3791Y1792D01*
Y1752D01*
X3801Y1742D01*
X3821D01*
X3831Y1752D01*
Y1792D01*
X3821Y1802D01*
X3851Y1742D02*
Y1802D01*
X3881D01*
X3891Y1792D01*
Y1772D01*
X3881Y1762D01*
X3851D01*
X2648Y1624D02*
Y1664D01*
X2668Y1684D01*
X2688Y1664D01*
Y1624D01*
Y1654D01*
X2648D01*
X2708Y1624D02*
Y1684D01*
X2728Y1664D01*
X2748Y1684D01*
Y1624D01*
X2768D02*
Y1684D01*
X2798D01*
X2808Y1674D01*
Y1654D01*
X2798Y1644D01*
X2768D01*
X2828Y1624D02*
X2868Y1664D01*
X2928Y1684D02*
X2888D01*
Y1654D01*
X2908D01*
X2888D01*
Y1624D01*
X2948D02*
Y1684D01*
X2978D01*
X2988Y1674D01*
Y1654D01*
X2978Y1644D01*
X2948D01*
X2968D02*
X2988Y1624D01*
X3048Y1684D02*
X3008D01*
Y1624D01*
X3048D01*
X3008Y1654D02*
X3028D01*
X3107Y1634D02*
Y1674D01*
X3097Y1684D01*
X3077D01*
X3068Y1674D01*
Y1634D01*
X3077Y1624D01*
X3097D01*
X3087Y1644D02*
X3107Y1624D01*
X3097D02*
X3107Y1634D01*
X2726Y1742D02*
Y1802D01*
X2756D01*
X2766Y1792D01*
Y1772D01*
X2756Y1762D01*
X2726D01*
X2786Y1742D02*
Y1782D01*
X2806Y1802D01*
X2826Y1782D01*
Y1742D01*
Y1772D01*
X2786D01*
X2846Y1802D02*
Y1752D01*
X2856Y1742D01*
X2876D01*
X2886Y1752D01*
Y1802D01*
X2946Y1792D02*
X2936Y1802D01*
X2916D01*
X2906Y1792D01*
Y1782D01*
X2916Y1772D01*
X2936D01*
X2946Y1762D01*
Y1752D01*
X2936Y1742D01*
X2916D01*
X2906Y1752D01*
X3006Y1802D02*
X2966D01*
Y1742D01*
X3006D01*
X2966Y1772D02*
X2986D01*
X8583Y3879D02*
X8593Y3889D01*
X8613D01*
X8623Y3879D01*
Y3869D01*
X8613Y3859D01*
X8623Y3849D01*
Y3839D01*
X8613Y3829D01*
X8593D01*
X8583Y3839D01*
Y3849D01*
X8593Y3859D01*
X8583Y3869D01*
Y3879D01*
X8593Y3859D02*
X8613D01*
X8643Y3889D02*
Y3849D01*
X8663Y3829D01*
X8683Y3849D01*
Y3889D01*
X8703Y3879D02*
X8713Y3889D01*
X8733D01*
X8743Y3879D01*
Y3839D01*
X8733Y3829D01*
X8713D01*
X8703Y3839D01*
Y3879D01*
X7520Y3564D02*
Y3524D01*
X7540Y3504D01*
X7560Y3524D01*
Y3564D01*
X7620Y3554D02*
X7610Y3564D01*
X7590D01*
X7580Y3554D01*
Y3514D01*
X7590Y3504D01*
X7610D01*
X7620Y3514D01*
X7680Y3554D02*
X7670Y3564D01*
X7650D01*
X7640Y3554D01*
Y3514D01*
X7650Y3504D01*
X7670D01*
X7680Y3514D01*
X7422Y5326D02*
X7402D01*
X7392Y5316D01*
Y5276D01*
X7402Y5266D01*
X7422D01*
X7432Y5276D01*
Y5316D01*
X7422Y5326D01*
X7452Y5266D02*
Y5326D01*
X7492Y5266D01*
Y5326D01*
X7363Y4922D02*
X7343D01*
X7333Y4912D01*
Y4872D01*
X7343Y4862D01*
X7363D01*
X7373Y4872D01*
Y4912D01*
X7363Y4922D01*
X7433D02*
X7393D01*
Y4892D01*
X7413D01*
X7393D01*
Y4862D01*
X7493Y4922D02*
X7453D01*
Y4892D01*
X7473D01*
X7453D01*
Y4862D01*
X2438Y3934D02*
X2429Y3942D01*
X2413D01*
X2404Y3934D01*
Y3901D01*
X2413Y3892D01*
X2429D01*
X2438Y3901D01*
X2488Y3934D02*
X2479Y3942D01*
X2463D01*
X2454Y3934D01*
Y3926D01*
X2463Y3917D01*
X2479D01*
X2488Y3909D01*
Y3901D01*
X2479Y3892D01*
X2463D01*
X2454Y3901D01*
X3263Y3934D02*
X3254Y3942D01*
X3238D01*
X3229Y3934D01*
Y3901D01*
X3238Y3892D01*
X3254D01*
X3263Y3901D01*
Y3917D01*
X3246D01*
X3279Y3892D02*
Y3942D01*
X3313Y3892D01*
Y3942D01*
X3329D02*
Y3892D01*
X3354D01*
X3363Y3901D01*
Y3934D01*
X3354Y3942D01*
X3329D01*
X1870Y1742D02*
Y1802D01*
X1900D01*
X1910Y1792D01*
Y1772D01*
X1900Y1762D01*
X1870D01*
X1930Y1802D02*
Y1742D01*
X1970D01*
X1990D02*
Y1782D01*
X2010Y1802D01*
X2030Y1782D01*
Y1742D01*
Y1772D01*
X1990D01*
X2050Y1802D02*
Y1792D01*
X2070Y1772D01*
X2090Y1792D01*
Y1802D01*
X2070Y1772D02*
Y1742D01*
X1870Y1684D02*
Y1624D01*
Y1654D01*
X1910D01*
Y1684D01*
Y1624D01*
X1960Y1684D02*
X1940D01*
X1930Y1674D01*
Y1634D01*
X1940Y1624D01*
X1960D01*
X1970Y1634D01*
Y1674D01*
X1960Y1684D01*
X1990Y1624D02*
Y1684D01*
X2010Y1664D01*
X2030Y1684D01*
Y1624D01*
X2090Y1684D02*
X2050D01*
Y1624D01*
X2090D01*
X2050Y1654D02*
X2070D01*
X6959Y4823D02*
Y4863D01*
X6979Y4883D01*
X6999Y4863D01*
Y4823D01*
Y4853D01*
X6959D01*
X7019Y4883D02*
Y4823D01*
X7049D01*
X7059Y4833D01*
Y4873D01*
X7049Y4883D01*
X7019D01*
X7119Y4873D02*
X7109Y4883D01*
X7089D01*
X7079Y4873D01*
Y4833D01*
X7089Y4823D01*
X7109D01*
X7119Y4833D01*
X7139Y4883D02*
X7159D01*
X7149D01*
Y4823D01*
X7139D01*
X7159D01*
X7189D02*
Y4883D01*
X7229Y4823D01*
Y4883D01*
X6329Y4233D02*
X6319Y4243D01*
X6299D01*
X6289Y4233D01*
Y4223D01*
X6299Y4213D01*
X6319D01*
X6329Y4203D01*
Y4193D01*
X6319Y4183D01*
X6299D01*
X6289Y4193D01*
X6349Y4243D02*
X6369D01*
X6359D01*
Y4183D01*
X6349D01*
X6369D01*
X6439Y4233D02*
X6429Y4243D01*
X6409D01*
X6399Y4233D01*
Y4193D01*
X6409Y4183D01*
X6429D01*
X6439Y4193D01*
Y4213D01*
X6419D01*
X6459D02*
X6499D01*
X6479Y4233D02*
Y4193D01*
X6549Y4243D02*
X6529D01*
X6519Y4233D01*
Y4193D01*
X6529Y4183D01*
X6549D01*
X6559Y4193D01*
Y4233D01*
X6549Y4243D01*
X6619D02*
X6579D01*
Y4213D01*
X6599D01*
X6579D01*
Y4183D01*
X6679Y4243D02*
X6639D01*
Y4213D01*
X6659D01*
X6639D01*
Y4183D01*
X6739Y4233D02*
X6729Y4243D01*
X6709D01*
X6699Y4233D01*
Y4223D01*
X6709Y4213D01*
X6729D01*
X6739Y4203D01*
Y4193D01*
X6729Y4183D01*
X6709D01*
X6699Y4193D01*
X6799Y4243D02*
X6759D01*
Y4183D01*
X6799D01*
X6759Y4213D02*
X6779D01*
X6819Y4243D02*
X6859D01*
X6839D01*
Y4183D01*
X6359Y3141D02*
X6349Y3151D01*
X6329D01*
X6319Y3141D01*
Y3131D01*
X6329Y3121D01*
X6349D01*
X6359Y3111D01*
Y3101D01*
X6349Y3091D01*
X6329D01*
X6319Y3101D01*
X6379Y3151D02*
X6399D01*
X6389D01*
Y3091D01*
X6379D01*
X6399D01*
X6469Y3141D02*
X6459Y3151D01*
X6439D01*
X6429Y3141D01*
Y3101D01*
X6439Y3091D01*
X6459D01*
X6469Y3101D01*
Y3121D01*
X6449D01*
X6133Y4046D02*
X6123Y4056D01*
X6103D01*
X6093Y4046D01*
Y4006D01*
X6103Y3996D01*
X6123D01*
X6133Y4006D01*
Y4026D01*
X6113D01*
X6153Y3996D02*
Y4056D01*
X6192Y3996D01*
Y4056D01*
X6212D02*
Y3996D01*
X6242D01*
X6252Y4006D01*
Y4046D01*
X6242Y4056D01*
X6212D01*
X6919Y1732D02*
Y1792D01*
X6939Y1772D01*
X6959Y1792D01*
Y1732D01*
X6979D02*
Y1772D01*
X6999Y1792D01*
X7019Y1772D01*
Y1732D01*
Y1762D01*
X6979D01*
X7039Y1792D02*
X7079Y1732D01*
Y1792D02*
X7039Y1732D01*
X7159Y1792D02*
X7179D01*
X7169D01*
Y1732D01*
X7159D01*
X7179D01*
X7209D02*
Y1792D01*
X7249Y1732D01*
Y1792D01*
X7269Y1732D02*
Y1792D01*
X7299D01*
X7309Y1782D01*
Y1762D01*
X7299Y1752D01*
X7269D01*
X7329Y1792D02*
Y1742D01*
X7339Y1732D01*
X7359D01*
X7369Y1742D01*
Y1792D01*
X7389D02*
X7429D01*
X7409D01*
Y1732D01*
X6919Y1694D02*
X6929Y1704D01*
X6949D01*
X6959Y1694D01*
Y1654D01*
X6949Y1644D01*
X6929D01*
X6919Y1654D01*
Y1694D01*
X6979Y1644D02*
Y1654D01*
X6989D01*
Y1644D01*
X6979D01*
X7069Y1704D02*
X7029D01*
Y1674D01*
X7049Y1684D01*
X7059D01*
X7069Y1674D01*
Y1654D01*
X7059Y1644D01*
X7039D01*
X7029Y1654D01*
X7089Y1704D02*
Y1664D01*
X7109Y1644D01*
X7129Y1664D01*
Y1704D01*
X7149Y1624D02*
Y1684D01*
X7179D01*
X7189Y1674D01*
Y1654D01*
X7179Y1644D01*
X7149D01*
X7209D02*
Y1704D01*
Y1664D02*
X7239Y1684D01*
X7209Y1664D02*
X7239Y1644D01*
X7329D02*
X7349D01*
X7339D01*
Y1704D01*
X7329Y1694D01*
X7379Y1704D02*
Y1664D01*
X7399Y1644D01*
X7419Y1664D01*
Y1704D01*
X7439Y1624D02*
Y1684D01*
X7469D01*
X7479Y1674D01*
Y1654D01*
X7469Y1644D01*
X7439D01*
X7499D02*
Y1704D01*
Y1664D02*
X7529Y1684D01*
X7499Y1664D02*
X7529Y1644D01*
X7559Y1624D02*
Y1684D01*
X7589D01*
X7599Y1674D01*
Y1654D01*
X7589Y1644D01*
X7559D01*
X7619D02*
Y1704D01*
Y1664D02*
X7649Y1684D01*
X7619Y1664D02*
X7649Y1644D01*
X4301Y1742D02*
Y1782D01*
X4321Y1802D01*
X4341Y1782D01*
Y1742D01*
Y1772D01*
X4301D01*
X4361Y1802D02*
Y1752D01*
X4371Y1742D01*
X4391D01*
X4401Y1752D01*
Y1802D01*
X4421D02*
Y1742D01*
X4451D01*
X4461Y1752D01*
Y1792D01*
X4451Y1802D01*
X4421D01*
X4481D02*
X4501D01*
X4491D01*
Y1742D01*
X4481D01*
X4501D01*
X4561Y1802D02*
X4541D01*
X4531Y1792D01*
Y1752D01*
X4541Y1742D01*
X4561D01*
X4571Y1752D01*
Y1792D01*
X4561Y1802D01*
X4341Y1674D02*
X4331Y1684D01*
X4311D01*
X4301Y1674D01*
Y1664D01*
X4311Y1654D01*
X4331D01*
X4341Y1644D01*
Y1634D01*
X4331Y1624D01*
X4311D01*
X4301Y1634D01*
X4361Y1684D02*
X4381D01*
X4371D01*
Y1624D01*
X4361D01*
X4381D01*
X4451Y1674D02*
X4441Y1684D01*
X4421D01*
X4411Y1674D01*
Y1634D01*
X4421Y1624D01*
X4441D01*
X4451Y1634D01*
Y1654D01*
X4431D01*
X4471Y1624D02*
Y1684D01*
X4511Y1624D01*
Y1684D01*
X4531Y1624D02*
Y1664D01*
X4551Y1684D01*
X4571Y1664D01*
Y1624D01*
Y1654D01*
X4531D01*
X4591Y1684D02*
Y1624D01*
X4631D01*
X4341Y1891D02*
X4331Y1901D01*
X4311D01*
X4301Y1891D01*
Y1881D01*
X4311Y1871D01*
X4331D01*
X4341Y1861D01*
Y1851D01*
X4331Y1841D01*
X4311D01*
X4301Y1851D01*
X4361Y1841D02*
Y1881D01*
X4381Y1901D01*
X4401Y1881D01*
Y1841D01*
Y1871D01*
X4361D01*
X4481Y1841D02*
Y1901D01*
X4501Y1881D01*
X4521Y1901D01*
Y1841D01*
X4571Y1901D02*
X4551D01*
X4541Y1891D01*
Y1851D01*
X4551Y1841D01*
X4571D01*
X4581Y1851D01*
Y1891D01*
X4571Y1901D01*
X4601D02*
Y1841D01*
X4631D01*
X4641Y1851D01*
Y1891D01*
X4631Y1901D01*
X4601D01*
X4701D02*
X4661D01*
Y1841D01*
X4701D01*
X4661Y1871D02*
X4681D01*
X7855Y3367D02*
X7815D01*
Y3337D01*
X7835Y3347D01*
X7845D01*
X7855Y3337D01*
Y3317D01*
X7845Y3307D01*
X7825D01*
X7815Y3317D01*
X7875Y3307D02*
Y3317D01*
X7885D01*
Y3307D01*
X7875D01*
X7925Y3357D02*
X7935Y3367D01*
X7955D01*
X7965Y3357D01*
Y3317D01*
X7955Y3307D01*
X7935D01*
X7925Y3317D01*
Y3357D01*
X7985Y3367D02*
Y3327D01*
X8005Y3307D01*
X8025Y3327D01*
Y3367D01*
X8396Y3357D02*
X8406Y3367D01*
X8426D01*
X8436Y3357D01*
Y3347D01*
X8426Y3337D01*
X8436Y3327D01*
Y3317D01*
X8426Y3307D01*
X8406D01*
X8396Y3317D01*
Y3327D01*
X8406Y3337D01*
X8396Y3347D01*
Y3357D01*
X8406Y3337D02*
X8426D01*
X8456Y3307D02*
Y3317D01*
X8466D01*
Y3307D01*
X8456D01*
X8506Y3357D02*
X8516Y3367D01*
X8536D01*
X8546Y3357D01*
Y3317D01*
X8536Y3307D01*
X8516D01*
X8506Y3317D01*
Y3357D01*
X8566Y3367D02*
Y3327D01*
X8586Y3307D01*
X8606Y3327D01*
Y3367D01*
X7972Y3396D02*
Y3456D01*
X8002D01*
X8012Y3446D01*
Y3426D01*
X8002Y3416D01*
X7972D01*
X8032Y3456D02*
Y3396D01*
X8052Y3416D01*
X8072Y3396D01*
Y3456D01*
X8092Y3396D02*
Y3456D01*
X8122D01*
X8132Y3446D01*
Y3426D01*
X8122Y3416D01*
X8092D01*
X8112D02*
X8132Y3396D01*
X8252Y3446D02*
X8242Y3456D01*
X8222D01*
X8212Y3446D01*
Y3406D01*
X8222Y3396D01*
X8242D01*
X8252Y3406D01*
Y3426D01*
X8232D01*
X8302Y3456D02*
X8282D01*
X8272Y3446D01*
Y3406D01*
X8282Y3396D01*
X8302D01*
X8312Y3406D01*
Y3446D01*
X8302Y3456D01*
X8362D02*
X8342D01*
X8332Y3446D01*
Y3406D01*
X8342Y3396D01*
X8362D01*
X8372Y3406D01*
Y3446D01*
X8362Y3456D01*
X8392D02*
Y3396D01*
X8422D01*
X8432Y3406D01*
Y3446D01*
X8422Y3456D01*
X8392D01*
X5374Y2844D02*
Y2904D01*
X5404D01*
X5414Y2894D01*
Y2874D01*
X5404Y2864D01*
X5374D01*
X5434Y2904D02*
Y2854D01*
X5444Y2844D01*
X5464D01*
X5474Y2854D01*
Y2904D01*
X5534Y2894D02*
X5524Y2904D01*
X5504D01*
X5494Y2894D01*
Y2884D01*
X5504Y2874D01*
X5524D01*
X5534Y2864D01*
Y2854D01*
X5524Y2844D01*
X5504D01*
X5494Y2854D01*
X5554Y2904D02*
Y2844D01*
Y2874D01*
X5594D01*
Y2904D01*
Y2844D01*
X5414Y2806D02*
X5404Y2816D01*
X5384D01*
X5374Y2806D01*
Y2766D01*
X5384Y2756D01*
X5404D01*
X5414Y2766D01*
X5434Y2756D02*
Y2816D01*
X5474Y2756D01*
Y2816D01*
X5494D02*
X5534D01*
X5514D01*
Y2756D01*
X5554D02*
Y2816D01*
X5584D01*
X5594Y2806D01*
Y2786D01*
X5584Y2776D01*
X5554D01*
X5574D02*
X5594Y2756D01*
X5614D02*
X5654Y2796D01*
X5674Y2816D02*
Y2756D01*
X5714D01*
X5764Y2816D02*
X5744D01*
X5734Y2806D01*
Y2766D01*
X5744Y2756D01*
X5764D01*
X5774Y2766D01*
Y2806D01*
X5764Y2816D01*
X5854Y2756D02*
Y2796D01*
X5874Y2816D01*
X5894Y2796D01*
Y2756D01*
Y2786D01*
X5854D01*
X5914Y2816D02*
Y2756D01*
X5944D01*
X5954Y2766D01*
Y2806D01*
X5944Y2816D01*
X5914D01*
X6014D02*
X5994D01*
X6004D01*
Y2766D01*
X5994Y2756D01*
X5984D01*
X5974Y2766D01*
X1683Y4134D02*
X2825D01*
Y5394D01*
X1683D02*
X2825D01*
X1683Y4134D02*
Y5394D01*
X1378Y1575D02*
X9646D01*
Y5512D01*
X1378D02*
X9646D01*
X1378Y1575D02*
Y5512D01*
D49*
X7500Y5217D02*
G03*
X7500Y5217I-12J0D01*
G01*
X7132Y2413D02*
G03*
X7132Y2413I-10J0D01*
G01*
X3551Y4636D02*
G03*
X3551Y4636I-72J0D01*
G01*
X9267Y3425D02*
X9250Y3441D01*
Y3475D01*
X9267Y3491D01*
X9284D01*
X9300Y3475D01*
Y3458D01*
Y3475D01*
X9317Y3491D01*
X9334D01*
X9350Y3475D01*
Y3441D01*
X9334Y3425D01*
X9350Y3591D02*
Y3525D01*
X9284Y3591D01*
X9267D01*
X9250Y3575D01*
Y3541D01*
X9267Y3525D01*
Y3625D02*
X9250Y3641D01*
Y3675D01*
X9267Y3691D01*
X9334D01*
X9350Y3675D01*
Y3641D01*
X9334Y3625D01*
X9267D01*
Y3725D02*
X9250Y3741D01*
Y3775D01*
X9267Y3791D01*
X9334D01*
X9350Y3775D01*
Y3741D01*
X9334Y3725D01*
X9267D01*
X9350Y3825D02*
X9284D01*
Y3841D01*
X9300Y3858D01*
X9350D01*
X9300D01*
X9284Y3875D01*
X9300Y3891D01*
X9350D01*
Y3925D02*
X9284D01*
X9250Y3958D01*
X9284Y3991D01*
X9350D01*
X9300D01*
Y3925D01*
X9250Y4025D02*
X9350D01*
X9300D01*
Y4091D01*
X9250D01*
X9350D01*
X9193Y3225D02*
Y3258D01*
Y3241D01*
X9093D01*
X9110Y3225D01*
Y3308D02*
X9093Y3325D01*
Y3358D01*
X9110Y3375D01*
X9126D01*
X9143Y3358D01*
X9160Y3375D01*
X9176D01*
X9193Y3358D01*
Y3325D01*
X9176Y3308D01*
X9160D01*
X9143Y3325D01*
X9126Y3308D01*
X9110D01*
X9143Y3325D02*
Y3358D01*
X9093Y3475D02*
X9110Y3441D01*
X9143Y3408D01*
X9176D01*
X9193Y3425D01*
Y3458D01*
X9176Y3475D01*
X9160D01*
X9143Y3458D01*
Y3408D01*
X9093Y3575D02*
Y3508D01*
X9143D01*
X9126Y3541D01*
Y3558D01*
X9143Y3575D01*
X9176D01*
X9193Y3558D01*
Y3525D01*
X9176Y3508D01*
X9110Y3608D02*
X9093Y3625D01*
Y3658D01*
X9110Y3675D01*
X9176D01*
X9193Y3658D01*
Y3625D01*
X9176Y3608D01*
X9110D01*
X9093Y3808D02*
X9193D01*
Y3875D01*
Y3908D02*
Y3941D01*
Y3925D01*
X9126D01*
Y3908D01*
X9143Y3991D02*
Y4058D01*
X9093Y4091D02*
Y4125D01*
Y4108D01*
X9193D01*
Y4091D01*
Y4125D01*
X9093Y4224D02*
Y4191D01*
X9110Y4174D01*
X9176D01*
X9193Y4191D01*
Y4224D01*
X9176Y4241D01*
X9110D01*
X9093Y4224D01*
X9193Y4274D02*
X9093D01*
X9193Y4341D01*
X9093D01*
X10266Y3380D02*
X10333D01*
X10300D01*
Y3280D01*
X10416Y3380D02*
X10383D01*
X10366Y3363D01*
Y3296D01*
X10383Y3280D01*
X10416D01*
X10433Y3296D01*
Y3363D01*
X10416Y3380D01*
X10466Y3280D02*
Y3380D01*
X10516D01*
X10533Y3363D01*
Y3330D01*
X10516Y3313D01*
X10466D01*
X10733Y3363D02*
X10716Y3380D01*
X10683D01*
X10666Y3363D01*
Y3346D01*
X10683Y3330D01*
X10716D01*
X10733Y3313D01*
Y3296D01*
X10716Y3280D01*
X10683D01*
X10666Y3296D01*
X10766Y3380D02*
X10799D01*
X10783D01*
Y3280D01*
X10766D01*
X10799D01*
X10849Y3380D02*
Y3280D01*
X10916D01*
X10949Y3380D02*
Y3280D01*
Y3313D01*
X11016Y3380D01*
X10966Y3330D01*
X11016Y3280D01*
X1771Y3259D02*
Y3159D01*
X1821D01*
X1837Y3175D01*
Y3242D01*
X1821Y3259D01*
X1771D01*
X1871D02*
X1904D01*
X1887D01*
Y3159D01*
X1871D01*
X1904D01*
X2021Y3242D02*
X2004Y3259D01*
X1971D01*
X1954Y3242D01*
Y3225D01*
X1971Y3209D01*
X2004D01*
X2021Y3192D01*
Y3175D01*
X2004Y3159D01*
X1971D01*
X1954Y3175D01*
X2054Y3159D02*
Y3259D01*
X2104D01*
X2121Y3242D01*
Y3209D01*
X2104Y3192D01*
X2054D01*
X2154Y3259D02*
Y3159D01*
X2221D01*
X2254D02*
Y3225D01*
X2287Y3259D01*
X2320Y3225D01*
Y3159D01*
Y3209D01*
X2254D01*
X2354Y3259D02*
Y3242D01*
X2387Y3209D01*
X2420Y3242D01*
Y3259D01*
X2387Y3209D02*
Y3159D01*
X2554D02*
Y3259D01*
X2604D01*
X2620Y3242D01*
Y3209D01*
X2604Y3192D01*
X2554D01*
X2587D02*
X2620Y3159D01*
X2720Y3259D02*
X2654D01*
Y3159D01*
X2720D01*
X2654Y3209D02*
X2687D01*
X2754Y3159D02*
Y3225D01*
X2787Y3259D01*
X2820Y3225D01*
Y3159D01*
Y3209D01*
X2754D01*
X2854Y3259D02*
Y3159D01*
X2904D01*
X2920Y3175D01*
Y3242D01*
X2904Y3259D01*
X2854D01*
X3020Y3242D02*
X3004Y3259D01*
X2970D01*
X2954Y3242D01*
Y3225D01*
X2970Y3209D01*
X3004D01*
X3020Y3192D01*
Y3175D01*
X3004Y3159D01*
X2970D01*
X2954Y3175D01*
X3154Y3259D02*
X3220D01*
X3187D01*
Y3159D01*
X3254Y3259D02*
Y3159D01*
Y3209D01*
X3320D01*
Y3259D01*
Y3159D01*
X3353Y3259D02*
X3387D01*
X3370D01*
Y3159D01*
X3353D01*
X3387D01*
X3503Y3242D02*
X3487Y3259D01*
X3453D01*
X3437Y3242D01*
Y3225D01*
X3453Y3209D01*
X3487D01*
X3503Y3192D01*
Y3175D01*
X3487Y3159D01*
X3453D01*
X3437Y3175D01*
X3637Y3259D02*
Y3159D01*
X3670Y3192D01*
X3703Y3159D01*
Y3259D01*
X3737Y3159D02*
Y3225D01*
X3770Y3259D01*
X3803Y3225D01*
Y3159D01*
Y3209D01*
X3737D01*
X3837Y3259D02*
Y3242D01*
X3870Y3209D01*
X3903Y3242D01*
Y3259D01*
X3870Y3209D02*
Y3159D01*
X2046Y2959D02*
X2079D01*
X2062D01*
Y3059D01*
X2046Y3042D01*
X2196Y2959D02*
X2129D01*
X2196Y3025D01*
Y3042D01*
X2179Y3059D01*
X2146D01*
X2129Y3042D01*
X2229D02*
X2246Y3059D01*
X2279D01*
X2296Y3042D01*
Y3025D01*
X2279Y3009D01*
X2296Y2992D01*
Y2975D01*
X2279Y2959D01*
X2246D01*
X2229Y2975D01*
Y2992D01*
X2246Y3009D01*
X2229Y3025D01*
Y3042D01*
X2246Y3009D02*
X2279D01*
X2329Y3059D02*
X2396Y2959D01*
Y3059D02*
X2329Y2959D01*
X2496Y3059D02*
X2462Y3042D01*
X2429Y3009D01*
Y2975D01*
X2446Y2959D01*
X2479D01*
X2496Y2975D01*
Y2992D01*
X2479Y3009D01*
X2429D01*
X2579Y2959D02*
Y3059D01*
X2529Y3009D01*
X2595D01*
X2729Y2959D02*
Y3059D01*
X2779D01*
X2795Y3042D01*
Y3009D01*
X2779Y2992D01*
X2729D01*
X2762D02*
X2795Y2959D01*
X2895Y3059D02*
X2829D01*
Y2959D01*
X2895D01*
X2829Y3009D02*
X2862D01*
X2995Y3042D02*
X2979Y3059D01*
X2945D01*
X2929Y3042D01*
Y3025D01*
X2945Y3009D01*
X2979D01*
X2995Y2992D01*
Y2975D01*
X2979Y2959D01*
X2945D01*
X2929Y2975D01*
X3079Y3059D02*
X3045D01*
X3029Y3042D01*
Y2975D01*
X3045Y2959D01*
X3079D01*
X3095Y2975D01*
Y3042D01*
X3079Y3059D01*
X3129D02*
Y2959D01*
X3195D01*
X3229Y3059D02*
Y2975D01*
X3245Y2959D01*
X3279D01*
X3295Y2975D01*
Y3059D01*
X3329D02*
X3395D01*
X3362D01*
Y2959D01*
X3429Y3059D02*
X3462D01*
X3445D01*
Y2959D01*
X3429D01*
X3462D01*
X3562Y3059D02*
X3529D01*
X3512Y3042D01*
Y2975D01*
X3529Y2959D01*
X3562D01*
X3579Y2975D01*
Y3042D01*
X3562Y3059D01*
X3612Y2959D02*
Y3059D01*
X3678Y2959D01*
Y3059D01*
X2162Y2867D02*
X2146Y2884D01*
X2112D01*
X2096Y2867D01*
Y2850D01*
X2112Y2834D01*
X2146D01*
X2162Y2817D01*
Y2800D01*
X2146Y2784D01*
X2112D01*
X2096Y2800D01*
X2262Y2867D02*
X2246Y2884D01*
X2212D01*
X2196Y2867D01*
Y2850D01*
X2212Y2834D01*
X2246D01*
X2262Y2817D01*
Y2800D01*
X2246Y2784D01*
X2212D01*
X2196Y2800D01*
X2296Y2884D02*
Y2784D01*
X2346D01*
X2362Y2800D01*
Y2867D01*
X2346Y2884D01*
X2296D01*
X2396Y2784D02*
X2429D01*
X2412D01*
Y2884D01*
X2396Y2867D01*
X2479D02*
X2496Y2884D01*
X2529D01*
X2546Y2867D01*
Y2850D01*
X2529Y2834D01*
X2512D01*
X2529D01*
X2546Y2817D01*
Y2800D01*
X2529Y2784D01*
X2496D01*
X2479Y2800D01*
X2579Y2867D02*
X2596Y2884D01*
X2629D01*
X2645Y2867D01*
Y2800D01*
X2629Y2784D01*
X2596D01*
X2579Y2800D01*
Y2867D01*
X2679Y2800D02*
X2695Y2784D01*
X2729D01*
X2745Y2800D01*
Y2867D01*
X2729Y2884D01*
X2695D01*
X2679Y2867D01*
Y2850D01*
X2695Y2834D01*
X2745D01*
X2945Y2867D02*
X2929Y2884D01*
X2895D01*
X2879Y2867D01*
Y2800D01*
X2895Y2784D01*
X2929D01*
X2945Y2800D01*
X2979Y2884D02*
Y2784D01*
Y2834D01*
X3045D01*
Y2884D01*
Y2784D01*
X3079Y2884D02*
X3112D01*
X3095D01*
Y2784D01*
X3079D01*
X3112D01*
X3162D02*
Y2884D01*
X3212D01*
X3229Y2867D01*
Y2834D01*
X3212Y2817D01*
X3162D01*
X3329Y2867D02*
X3312Y2884D01*
X3279D01*
X3262Y2867D01*
Y2850D01*
X3279Y2834D01*
X3312D01*
X3329Y2817D01*
Y2800D01*
X3312Y2784D01*
X3279D01*
X3262Y2800D01*
X3429Y2884D02*
X3362D01*
Y2784D01*
X3429D01*
X3362Y2834D02*
X3395D01*
X3462Y2884D02*
X3529D01*
X3495D01*
Y2784D01*
X10256Y1675D02*
Y1575D01*
X10306D01*
X10323Y1591D01*
Y1608D01*
X10306Y1625D01*
X10256D01*
X10306D01*
X10323Y1641D01*
Y1658D01*
X10306Y1675D01*
X10256D01*
X10406D02*
X10373D01*
X10356Y1658D01*
Y1591D01*
X10373Y1575D01*
X10406D01*
X10423Y1591D01*
Y1658D01*
X10406Y1675D01*
X10456Y1575D02*
Y1641D01*
X10489Y1675D01*
X10523Y1641D01*
Y1575D01*
Y1625D01*
X10456D01*
X10556Y1575D02*
Y1675D01*
X10606D01*
X10623Y1658D01*
Y1625D01*
X10606Y1608D01*
X10556D01*
X10589D02*
X10623Y1575D01*
X10656Y1675D02*
Y1575D01*
X10706D01*
X10723Y1591D01*
Y1658D01*
X10706Y1675D01*
X10656D01*
X10906D02*
X10873D01*
X10856Y1658D01*
Y1591D01*
X10873Y1575D01*
X10906D01*
X10923Y1591D01*
Y1658D01*
X10906Y1675D01*
X10956D02*
Y1591D01*
X10973Y1575D01*
X11006D01*
X11023Y1591D01*
Y1675D01*
X11056D02*
X11123D01*
X11089D01*
Y1575D01*
X11156Y1675D02*
Y1575D01*
X11223D01*
X11256Y1675D02*
X11289D01*
X11273D01*
Y1575D01*
X11256D01*
X11289D01*
X11339D02*
Y1675D01*
X11406Y1575D01*
Y1675D01*
X11506D02*
X11439D01*
Y1575D01*
X11506D01*
X11439Y1625D02*
X11472D01*
D73*
X8045Y4852D02*
G03*
X8045Y4852I-4J0D01*
G01*
X3359Y5058D02*
G03*
X3359Y5058I-4J0D01*
G01*
X3743Y4534D02*
G03*
X3743Y4534I-4J0D01*
G01*
X4819Y4492D02*
G03*
X4819Y4492I-4J0D01*
G01*
X4620Y3821D02*
G03*
X4620Y3821I-4J0D01*
G01*
Y2807D02*
G03*
X4620Y2807I-4J0D01*
G01*
X3953Y1850D02*
G03*
X3953Y1850I-4J0D01*
G01*
X3037D02*
G03*
X3037Y1850I-4J0D01*
G01*
X2142D02*
G03*
X2142Y1850I-4J0D01*
G01*
X5758Y2276D02*
G03*
X5758Y2276I-4J0D01*
G01*
X5201Y2303D02*
G03*
X5201Y2303I-4J0D01*
G01*
X4858Y3646D02*
G03*
X4858Y3646I-4J0D01*
G01*
X6579Y5048D02*
G03*
X6579Y5048I-4J0D01*
G01*
X7002D02*
G03*
X7002Y5048I-4J0D01*
G01*
X7524Y5337D02*
X7575D01*
X7524Y4860D02*
Y5337D01*
Y4860D02*
X7575D01*
X7701D02*
X7752D01*
Y5337D01*
X7701D02*
X7752D01*
X8071Y5030D02*
Y5207D01*
X8248D01*
Y5030D02*
Y5207D01*
X8071Y5030D02*
X8248D01*
X8183Y3821D02*
Y3935D01*
X8116Y3821D02*
Y3935D01*
Y3858D02*
X8183D01*
X8085Y3814D02*
Y3942D01*
X7821Y3814D02*
Y3942D01*
Y3814D02*
X8085D01*
X7821Y3942D02*
X8085D01*
X7112Y2677D02*
X7179D01*
X7112Y2640D02*
Y2754D01*
X7179Y2640D02*
Y2754D01*
X7232Y2769D02*
X7250D01*
X7317D02*
X7335D01*
X7232D02*
Y2827D01*
X7335Y2769D02*
Y2827D01*
X6562Y5513D02*
X7162D01*
X6562Y5413D02*
X7162D01*
X6562D02*
Y5513D01*
X7162Y5413D02*
Y5513D01*
X5662D02*
X6262D01*
X5662Y5413D02*
X6262D01*
X5662D02*
Y5513D01*
X6262Y5413D02*
Y5513D01*
X4762D02*
X5362D01*
X4762Y5413D02*
X5362D01*
X4762D02*
Y5513D01*
X5362Y5413D02*
Y5513D01*
X3862D02*
X4462D01*
X3862Y5413D02*
X4462D01*
X3862D02*
Y5513D01*
X4462Y5413D02*
Y5513D01*
X6503Y1831D02*
Y2039D01*
X6654D01*
X6732D02*
X6883D01*
Y1831D02*
Y2039D01*
Y1587D02*
Y1720D01*
X6503Y1587D02*
X6883D01*
X6503D02*
Y1720D01*
X6624Y3707D02*
Y3774D01*
X6547Y3707D02*
X6661D01*
X6547Y3774D02*
X6661D01*
X6585Y3618D02*
Y3685D01*
X6547D02*
X6661D01*
X6547Y3618D02*
X6661D01*
X6839Y3374D02*
X6886D01*
X6450Y3266D02*
X6508D01*
X6450Y3368D02*
X6508D01*
X6450Y3266D02*
Y3283D01*
Y3350D02*
Y3368D01*
D74*
X7867Y3692D02*
G03*
X7867Y3692I-5J0D01*
G01*
X7363Y2865D02*
G03*
X7363Y2865I-5J0D01*
G01*
X6551Y3242D02*
G03*
X6551Y3242I-5J0D01*
G01*
D75*
X6693Y2130D02*
G03*
X6693Y2126I0J-2D01*
G01*
D02*
G03*
X6693Y2130I0J2D01*
G01*
D76*
X7579Y2048D02*
G03*
X7579Y2048I-7J0D01*
G01*
X7924Y2924D02*
G03*
X7924Y2924I-7J0D01*
G01*
X8495D02*
G03*
X8495Y2924I-7J0D01*
G01*
X6782Y3890D02*
G03*
X6782Y3890I-7J0D01*
G01*
X6762Y4539D02*
G03*
X6762Y4539I-7J0D01*
G01*
D77*
X8267Y4764D02*
X8268D01*
X8071D02*
X8071D01*
X8268D02*
Y4776D01*
Y4870D02*
Y4882D01*
X8267D02*
X8268D01*
X8071D02*
X8071D01*
X8071Y4764D02*
Y4776D01*
Y4870D02*
Y4882D01*
X3435Y4959D02*
X3553D01*
X3435Y5080D02*
X3553D01*
X3821Y4359D02*
X3974D01*
X3821Y4558D02*
X3974D01*
X4909Y4521D02*
X5209D01*
X4909Y4062D02*
X5209D01*
X4616Y3524D02*
Y3780D01*
X4380Y3524D02*
Y3780D01*
X4616Y2510D02*
Y2766D01*
X4380Y2510D02*
Y2766D01*
X3652Y1850D02*
X3907D01*
X3652Y2087D02*
X3907D01*
X2736Y1850D02*
X2992D01*
X2736Y2087D02*
X2992D01*
X1841Y1850D02*
X2096D01*
X1841Y2087D02*
X2096D01*
X6136Y2094D02*
Y2230D01*
X6124D02*
X6136D01*
Y1843D02*
Y2020D01*
Y1746D02*
Y1783D01*
X5591Y2230D02*
X5644D01*
X5665Y1598D02*
X6093D01*
X5591Y1685D02*
Y2230D01*
X5343Y2374D02*
Y2507D01*
Y2769D02*
Y2902D01*
X5048Y2374D02*
X5149D01*
X5245D02*
X5343D01*
X4854D02*
X4952D01*
X4854D02*
Y2507D01*
Y2769D02*
Y2902D01*
X5245D02*
X5343D01*
X4854D02*
X4952D01*
X4949Y3674D02*
X5248D01*
X4949Y3216D02*
X5248D01*
X6629Y4950D02*
X6698D01*
X6629Y5070D02*
X6698D01*
X7052Y4950D02*
X7121D01*
X7052Y5070D02*
X7121D01*
X7480Y3583D02*
Y3609D01*
Y3596D01*
X7520D01*
Y3623D02*
X7480D01*
Y3643D01*
X7486Y3649D01*
X7500D01*
X7506Y3643D01*
Y3623D01*
X7520Y3663D02*
Y3676D01*
Y3669D01*
X7480D01*
X7486Y3663D01*
Y3696D02*
X7480Y3703D01*
Y3716D01*
X7486Y3723D01*
X7493D01*
X7500Y3716D01*
Y3709D01*
Y3716D01*
X7506Y3723D01*
X7513D01*
X7520Y3716D01*
Y3703D01*
X7513Y3696D01*
X8593Y4144D02*
X8619D01*
X8606D01*
Y4104D01*
X8633D02*
Y4144D01*
X8653D01*
X8659Y4138D01*
Y4124D01*
X8653Y4118D01*
X8633D01*
X8672Y4104D02*
X8686D01*
X8679D01*
Y4144D01*
X8672Y4138D01*
X8706Y4104D02*
X8719D01*
X8712D01*
Y4144D01*
X8706Y4138D01*
X8140Y4745D02*
Y4720D01*
X8145Y4715D01*
X8155D01*
X8160Y4720D01*
Y4745D01*
X8170Y4715D02*
X8180D01*
X8175D01*
Y4745D01*
X8170Y4740D01*
X8195D02*
X8200Y4745D01*
X8210D01*
X8215Y4740D01*
Y4735D01*
X8210Y4730D01*
X8205D01*
X8210D01*
X8215Y4725D01*
Y4720D01*
X8210Y4715D01*
X8200D01*
X8195Y4720D01*
X8490Y4249D02*
X8484Y4242D01*
Y4229D01*
X8490Y4222D01*
X8517D01*
X8524Y4229D01*
Y4242D01*
X8517Y4249D01*
X8490Y4262D02*
X8484Y4269D01*
Y4282D01*
X8490Y4289D01*
X8497D01*
X8504Y4282D01*
Y4276D01*
Y4282D01*
X8510Y4289D01*
X8517D01*
X8524Y4282D01*
Y4269D01*
X8517Y4262D01*
Y4302D02*
X8524Y4309D01*
Y4322D01*
X8517Y4329D01*
X8490D01*
X8484Y4322D01*
Y4309D01*
X8490Y4302D01*
X8497D01*
X8504Y4309D01*
Y4329D01*
X8490Y4416D02*
X8484Y4410D01*
Y4396D01*
X8490Y4390D01*
X8517D01*
X8524Y4396D01*
Y4410D01*
X8517Y4416D01*
X8490Y4430D02*
X8484Y4436D01*
Y4450D01*
X8490Y4456D01*
X8497D01*
X8504Y4450D01*
Y4443D01*
Y4450D01*
X8510Y4456D01*
X8517D01*
X8524Y4450D01*
Y4436D01*
X8517Y4430D01*
X8490Y4470D02*
X8484Y4476D01*
Y4490D01*
X8490Y4496D01*
X8497D01*
X8504Y4490D01*
X8510Y4496D01*
X8517D01*
X8524Y4490D01*
Y4476D01*
X8517Y4470D01*
X8510D01*
X8504Y4476D01*
X8497Y4470D01*
X8490D01*
X8504Y4476D02*
Y4490D01*
X8029Y4275D02*
X8022Y4282D01*
X8009D01*
X8002Y4275D01*
Y4249D01*
X8009Y4242D01*
X8022D01*
X8029Y4249D01*
X8042Y4275D02*
X8049Y4282D01*
X8062D01*
X8069Y4275D01*
Y4269D01*
X8062Y4262D01*
X8055D01*
X8062D01*
X8069Y4255D01*
Y4249D01*
X8062Y4242D01*
X8049D01*
X8042Y4249D01*
X8082Y4242D02*
X8095D01*
X8089D01*
Y4282D01*
X8082Y4275D01*
X1454Y4037D02*
Y4004D01*
X1461Y3997D01*
X1474D01*
X1481Y4004D01*
Y4037D01*
X1494Y4030D02*
X1501Y4037D01*
X1514D01*
X1521Y4030D01*
Y4024D01*
X1514Y4017D01*
X1507D01*
X1514D01*
X1521Y4010D01*
Y4004D01*
X1514Y3997D01*
X1501D01*
X1494Y4004D01*
X7904Y4095D02*
Y4062D01*
X7910Y4055D01*
X7924D01*
X7930Y4062D01*
Y4095D01*
X7944Y4055D02*
X7957D01*
X7950D01*
Y4095D01*
X7944Y4088D01*
X7997Y4055D02*
Y4095D01*
X7977Y4075D01*
X8004D01*
X3848Y4341D02*
Y4308D01*
X3855Y4301D01*
X3868D01*
X3875Y4308D01*
Y4341D01*
X3888Y4301D02*
X3902D01*
X3895D01*
Y4341D01*
X3888Y4335D01*
X3948Y4301D02*
X3922D01*
X3948Y4328D01*
Y4335D01*
X3942Y4341D01*
X3928D01*
X3922Y4335D01*
X3465Y5138D02*
Y5105D01*
X3471Y5098D01*
X3485D01*
X3491Y5105D01*
Y5138D01*
X3505Y5098D02*
X3518D01*
X3511D01*
Y5138D01*
X3505Y5132D01*
X3538Y5098D02*
X3551D01*
X3545D01*
Y5138D01*
X3538Y5132D01*
X4803Y3263D02*
Y3234D01*
X4809Y3228D01*
X4821D01*
X4826Y3234D01*
Y3263D01*
X4861Y3228D02*
X4838D01*
X4861Y3252D01*
Y3258D01*
X4856Y3263D01*
X4844D01*
X4838Y3258D01*
X4911Y4577D02*
Y4544D01*
X4918Y4537D01*
X4931D01*
X4938Y4544D01*
Y4577D01*
X4951Y4537D02*
X4965D01*
X4958D01*
Y4577D01*
X4951Y4571D01*
X7615Y5427D02*
X7609Y5434D01*
X7595D01*
X7589Y5427D01*
Y5420D01*
X7595Y5414D01*
X7609D01*
X7615Y5407D01*
Y5400D01*
X7609Y5394D01*
X7595D01*
X7589Y5400D01*
X7629Y5434D02*
Y5394D01*
X7642Y5407D01*
X7655Y5394D01*
Y5434D01*
X7669D02*
X7695D01*
Y5427D01*
X7669Y5400D01*
Y5394D01*
X1946Y2140D02*
X1939Y2146D01*
X1926D01*
X1919Y2140D01*
Y2133D01*
X1926Y2126D01*
X1939D01*
X1946Y2120D01*
Y2113D01*
X1939Y2106D01*
X1926D01*
X1919Y2113D01*
X1959Y2146D02*
Y2106D01*
X1973Y2120D01*
X1986Y2106D01*
Y2146D01*
X2026D02*
X2013Y2140D01*
X1999Y2126D01*
Y2113D01*
X2006Y2106D01*
X2019D01*
X2026Y2113D01*
Y2120D01*
X2019Y2126D01*
X1999D01*
X2842Y2140D02*
X2835Y2146D01*
X2822D01*
X2815Y2140D01*
Y2133D01*
X2822Y2126D01*
X2835D01*
X2842Y2120D01*
Y2113D01*
X2835Y2106D01*
X2822D01*
X2815Y2113D01*
X2855Y2146D02*
Y2106D01*
X2868Y2120D01*
X2882Y2106D01*
Y2146D01*
X2922D02*
X2895D01*
Y2126D01*
X2908Y2133D01*
X2915D01*
X2922Y2126D01*
Y2113D01*
X2915Y2106D01*
X2902D01*
X2895Y2113D01*
X3757Y2140D02*
X3750Y2146D01*
X3737D01*
X3730Y2140D01*
Y2133D01*
X3737Y2126D01*
X3750D01*
X3757Y2120D01*
Y2113D01*
X3750Y2106D01*
X3737D01*
X3730Y2113D01*
X3770Y2146D02*
Y2106D01*
X3784Y2120D01*
X3797Y2106D01*
Y2146D01*
X3830Y2106D02*
Y2146D01*
X3810Y2126D01*
X3837D01*
X4327Y2615D02*
X4320Y2609D01*
Y2595D01*
X4327Y2589D01*
X4334D01*
X4340Y2595D01*
Y2609D01*
X4347Y2615D01*
X4354D01*
X4360Y2609D01*
Y2595D01*
X4354Y2589D01*
X4320Y2629D02*
X4360D01*
X4347Y2642D01*
X4360Y2655D01*
X4320D01*
X4327Y2669D02*
X4320Y2675D01*
Y2689D01*
X4327Y2695D01*
X4334D01*
X4340Y2689D01*
Y2682D01*
Y2689D01*
X4347Y2695D01*
X4354D01*
X4360Y2689D01*
Y2675D01*
X4354Y2669D01*
X4327Y3629D02*
X4320Y3622D01*
Y3609D01*
X4327Y3602D01*
X4334D01*
X4340Y3609D01*
Y3622D01*
X4347Y3629D01*
X4354D01*
X4360Y3622D01*
Y3609D01*
X4354Y3602D01*
X4320Y3642D02*
X4360D01*
X4347Y3656D01*
X4360Y3669D01*
X4320D01*
X4360Y3709D02*
Y3682D01*
X4334Y3709D01*
X4327D01*
X4320Y3702D01*
Y3689D01*
X4327Y3682D01*
X3472Y5358D02*
X3465Y5365D01*
X3452D01*
X3445Y5358D01*
Y5351D01*
X3452Y5345D01*
X3465D01*
X3472Y5338D01*
Y5331D01*
X3465Y5325D01*
X3452D01*
X3445Y5331D01*
X3485Y5325D02*
Y5365D01*
X3505D01*
X3512Y5358D01*
Y5345D01*
X3505Y5338D01*
X3485D01*
X3525Y5365D02*
Y5325D01*
Y5338D01*
X3552Y5365D01*
X3532Y5345D01*
X3552Y5325D01*
X3565D02*
X3578D01*
X3572D01*
Y5365D01*
X3565Y5358D01*
X7726Y3504D02*
Y3544D01*
X7746D01*
X7753Y3537D01*
Y3524D01*
X7746Y3517D01*
X7726D01*
X7740D02*
X7753Y3504D01*
X7793Y3544D02*
X7780Y3537D01*
X7766Y3524D01*
Y3511D01*
X7773Y3504D01*
X7786D01*
X7793Y3511D01*
Y3517D01*
X7786Y3524D01*
X7766D01*
X7806Y3544D02*
X7833D01*
Y3537D01*
X7806Y3511D01*
Y3504D01*
X7726Y3602D02*
Y3642D01*
X7746D01*
X7753Y3636D01*
Y3622D01*
X7746Y3616D01*
X7726D01*
X7740D02*
X7753Y3602D01*
X7793Y3642D02*
X7780Y3636D01*
X7766Y3622D01*
Y3609D01*
X7773Y3602D01*
X7786D01*
X7793Y3609D01*
Y3616D01*
X7786Y3622D01*
X7766D01*
X7833Y3642D02*
X7820Y3636D01*
X7806Y3622D01*
Y3609D01*
X7813Y3602D01*
X7826D01*
X7833Y3609D01*
Y3616D01*
X7826Y3622D01*
X7806D01*
X7500Y4055D02*
Y4095D01*
X7520D01*
X7527Y4088D01*
Y4075D01*
X7520Y4068D01*
X7500D01*
X7513D02*
X7527Y4055D01*
X7567Y4095D02*
X7553Y4088D01*
X7540Y4075D01*
Y4062D01*
X7547Y4055D01*
X7560D01*
X7567Y4062D01*
Y4068D01*
X7560Y4075D01*
X7540D01*
X7607Y4095D02*
X7580D01*
Y4075D01*
X7593Y4082D01*
X7600D01*
X7607Y4075D01*
Y4062D01*
X7600Y4055D01*
X7587D01*
X7580Y4062D01*
X8406Y5030D02*
X8381D01*
Y5042D01*
X8385Y5046D01*
X8393D01*
X8397Y5042D01*
Y5030D01*
Y5038D02*
X8406Y5046D01*
X8381Y5071D02*
X8385Y5063D01*
X8393Y5055D01*
X8401D01*
X8406Y5059D01*
Y5067D01*
X8401Y5071D01*
X8397D01*
X8393Y5067D01*
Y5055D01*
X8406Y5092D02*
X8381D01*
X8393Y5080D01*
Y5096D01*
X8406Y4734D02*
X8381D01*
Y4747D01*
X8385Y4751D01*
X8393D01*
X8397Y4747D01*
Y4734D01*
Y4743D02*
X8406Y4751D01*
X8381Y4776D02*
X8385Y4768D01*
X8393Y4759D01*
X8401D01*
X8406Y4763D01*
Y4772D01*
X8401Y4776D01*
X8397D01*
X8393Y4772D01*
Y4759D01*
X8406Y4801D02*
Y4784D01*
X8389Y4801D01*
X8385D01*
X8381Y4797D01*
Y4788D01*
X8385Y4784D01*
X8406Y4833D02*
X8381D01*
Y4845D01*
X8385Y4849D01*
X8393D01*
X8397Y4845D01*
Y4833D01*
Y4841D02*
X8406Y4849D01*
X8381Y4874D02*
X8385Y4866D01*
X8393Y4858D01*
X8401D01*
X8406Y4862D01*
Y4870D01*
X8401Y4874D01*
X8397D01*
X8393Y4870D01*
Y4858D01*
X8406Y4883D02*
Y4891D01*
Y4887D01*
X8381D01*
X8385Y4883D01*
X7844Y4587D02*
Y4627D01*
X7864D01*
X7871Y4620D01*
Y4607D01*
X7864Y4600D01*
X7844D01*
X7858D02*
X7871Y4587D01*
X7911Y4627D02*
X7898Y4620D01*
X7884Y4607D01*
Y4593D01*
X7891Y4587D01*
X7904D01*
X7911Y4593D01*
Y4600D01*
X7904Y4607D01*
X7884D01*
X7924Y4620D02*
X7931Y4627D01*
X7944D01*
X7951Y4620D01*
Y4593D01*
X7944Y4587D01*
X7931D01*
X7924Y4593D01*
Y4620D01*
X7874Y5256D02*
Y5281D01*
X7887D01*
X7891Y5277D01*
Y5268D01*
X7887Y5264D01*
X7874D01*
X7882D02*
X7891Y5256D01*
X7916Y5281D02*
X7899D01*
Y5268D01*
X7907Y5273D01*
X7912D01*
X7916Y5268D01*
Y5260D01*
X7912Y5256D01*
X7903D01*
X7899Y5260D01*
X7941Y5281D02*
X7932Y5277D01*
X7924Y5268D01*
Y5260D01*
X7928Y5256D01*
X7936D01*
X7941Y5260D01*
Y5264D01*
X7936Y5268D01*
X7924D01*
X7835Y5138D02*
Y5178D01*
X7855D01*
X7861Y5171D01*
Y5158D01*
X7855Y5151D01*
X7835D01*
X7848D02*
X7861Y5138D01*
X7901Y5178D02*
X7875D01*
Y5158D01*
X7888Y5164D01*
X7895D01*
X7901Y5158D01*
Y5144D01*
X7895Y5138D01*
X7881D01*
X7875Y5144D01*
X7915Y5171D02*
X7921Y5178D01*
X7935D01*
X7941Y5171D01*
Y5164D01*
X7935Y5158D01*
X7928D01*
X7935D01*
X7941Y5151D01*
Y5144D01*
X7935Y5138D01*
X7921D01*
X7915Y5144D01*
X4183Y4439D02*
Y4479D01*
X4203D01*
X4210Y4472D01*
Y4459D01*
X4203Y4452D01*
X4183D01*
X4196D02*
X4210Y4439D01*
X4250Y4479D02*
X4223D01*
Y4459D01*
X4236Y4466D01*
X4243D01*
X4250Y4459D01*
Y4446D01*
X4243Y4439D01*
X4230D01*
X4223Y4446D01*
X4290Y4439D02*
X4263D01*
X4290Y4466D01*
Y4472D01*
X4283Y4479D01*
X4270D01*
X4263Y4472D01*
X3829Y5079D02*
Y5119D01*
X3849D01*
X3855Y5112D01*
Y5099D01*
X3849Y5092D01*
X3829D01*
X3842D02*
X3855Y5079D01*
X3889D02*
Y5119D01*
X3869Y5099D01*
X3895D01*
X3909Y5085D02*
X3915Y5079D01*
X3929D01*
X3935Y5085D01*
Y5112D01*
X3929Y5119D01*
X3915D01*
X3909Y5112D01*
Y5105D01*
X3915Y5099D01*
X3935D01*
X6260Y1909D02*
X6220D01*
Y1929D01*
X6227Y1936D01*
X6240D01*
X6247Y1929D01*
Y1909D01*
Y1923D02*
X6260Y1936D01*
Y1976D02*
Y1949D01*
X6233Y1976D01*
X6227D01*
X6220Y1969D01*
Y1956D01*
X6227Y1949D01*
Y1989D02*
X6220Y1996D01*
Y2009D01*
X6227Y2016D01*
X6233D01*
X6240Y2009D01*
X6247Y2016D01*
X6253D01*
X6260Y2009D01*
Y1996D01*
X6253Y1989D01*
X6247D01*
X6240Y1996D01*
X6233Y1989D01*
X6227D01*
X6240Y1996D02*
Y2009D01*
X6339Y2215D02*
X6299D01*
Y2235D01*
X6305Y2241D01*
X6319D01*
X6325Y2235D01*
Y2215D01*
Y2228D02*
X6339Y2241D01*
Y2281D02*
Y2255D01*
X6312Y2281D01*
X6305D01*
X6299Y2275D01*
Y2261D01*
X6305Y2255D01*
X6299Y2295D02*
Y2321D01*
X6305D01*
X6332Y2295D01*
X6339D01*
X5945Y2549D02*
X5905D01*
Y2569D01*
X5912Y2576D01*
X5925D01*
X5932Y2569D01*
Y2549D01*
Y2563D02*
X5945Y2576D01*
Y2616D02*
Y2589D01*
X5918Y2616D01*
X5912D01*
X5905Y2609D01*
Y2596D01*
X5912Y2589D01*
X5905Y2656D02*
X5912Y2643D01*
X5925Y2629D01*
X5938D01*
X5945Y2636D01*
Y2649D01*
X5938Y2656D01*
X5932D01*
X5925Y2649D01*
Y2629D01*
X5738Y2549D02*
X5698D01*
Y2569D01*
X5705Y2576D01*
X5718D01*
X5725Y2569D01*
Y2549D01*
Y2563D02*
X5738Y2576D01*
Y2616D02*
Y2589D01*
X5712Y2616D01*
X5705D01*
X5698Y2609D01*
Y2596D01*
X5705Y2589D01*
X5698Y2656D02*
Y2629D01*
X5718D01*
X5712Y2643D01*
Y2649D01*
X5718Y2656D01*
X5732D01*
X5738Y2649D01*
Y2636D01*
X5732Y2629D01*
X5650Y2510D02*
X5610D01*
Y2530D01*
X5616Y2536D01*
X5630D01*
X5636Y2530D01*
Y2510D01*
Y2523D02*
X5650Y2536D01*
Y2576D02*
Y2550D01*
X5623Y2576D01*
X5616D01*
X5610Y2570D01*
Y2556D01*
X5616Y2550D01*
X5650Y2610D02*
X5610D01*
X5630Y2590D01*
Y2616D01*
X5472Y2372D02*
X5432D01*
Y2392D01*
X5439Y2399D01*
X5452D01*
X5459Y2392D01*
Y2372D01*
Y2385D02*
X5472Y2399D01*
Y2439D02*
Y2412D01*
X5446Y2439D01*
X5439D01*
X5432Y2432D01*
Y2419D01*
X5439Y2412D01*
Y2452D02*
X5432Y2459D01*
Y2472D01*
X5439Y2479D01*
X5446D01*
X5452Y2472D01*
Y2465D01*
Y2472D01*
X5459Y2479D01*
X5466D01*
X5472Y2472D01*
Y2459D01*
X5466Y2452D01*
X6220Y2382D02*
X6180D01*
Y2402D01*
X6187Y2408D01*
X6200D01*
X6207Y2402D01*
Y2382D01*
Y2395D02*
X6220Y2408D01*
Y2448D02*
Y2422D01*
X6194Y2448D01*
X6187D01*
X6180Y2442D01*
Y2428D01*
X6187Y2422D01*
X6220Y2488D02*
Y2462D01*
X6194Y2488D01*
X6187D01*
X6180Y2482D01*
Y2468D01*
X6187Y2462D01*
X6043Y2510D02*
X6003D01*
Y2530D01*
X6010Y2536D01*
X6023D01*
X6030Y2530D01*
Y2510D01*
Y2523D02*
X6043Y2536D01*
Y2576D02*
Y2550D01*
X6017Y2576D01*
X6010D01*
X6003Y2570D01*
Y2556D01*
X6010Y2550D01*
X6043Y2590D02*
Y2603D01*
Y2596D01*
X6003D01*
X6010Y2590D01*
X5030Y1634D02*
Y1674D01*
X5050D01*
X5056Y1667D01*
Y1654D01*
X5050Y1647D01*
X5030D01*
X5043D02*
X5056Y1634D01*
X5070Y1641D02*
X5076Y1634D01*
X5090D01*
X5096Y1641D01*
Y1667D01*
X5090Y1674D01*
X5076D01*
X5070Y1667D01*
Y1661D01*
X5076Y1654D01*
X5096D01*
X4911Y1831D02*
Y1871D01*
X4931D01*
X4938Y1864D01*
Y1851D01*
X4931Y1844D01*
X4911D01*
X4925D02*
X4938Y1831D01*
X4951Y1864D02*
X4958Y1871D01*
X4971D01*
X4978Y1864D01*
Y1857D01*
X4971Y1851D01*
X4978Y1844D01*
Y1837D01*
X4971Y1831D01*
X4958D01*
X4951Y1837D01*
Y1844D01*
X4958Y1851D01*
X4951Y1857D01*
Y1864D01*
X4958Y1851D02*
X4971D01*
X5423Y4449D02*
Y4489D01*
X5443D01*
X5450Y4482D01*
Y4469D01*
X5443Y4462D01*
X5423D01*
X5437D02*
X5450Y4449D01*
X5463Y4489D02*
X5490D01*
Y4482D01*
X5463Y4455D01*
Y4449D01*
X5423Y4350D02*
Y4390D01*
X5443D01*
X5450Y4384D01*
Y4370D01*
X5443Y4364D01*
X5423D01*
X5437D02*
X5450Y4350D01*
X5490Y4390D02*
X5477Y4384D01*
X5463Y4370D01*
Y4357D01*
X5470Y4350D01*
X5483D01*
X5490Y4357D01*
Y4364D01*
X5483Y4370D01*
X5463D01*
X5423Y4252D02*
Y4292D01*
X5443D01*
X5450Y4285D01*
Y4272D01*
X5443Y4265D01*
X5423D01*
X5437D02*
X5450Y4252D01*
X5490Y4292D02*
X5463D01*
Y4272D01*
X5477Y4279D01*
X5483D01*
X5490Y4272D01*
Y4259D01*
X5483Y4252D01*
X5470D01*
X5463Y4259D01*
X5423Y4154D02*
Y4194D01*
X5443D01*
X5450Y4187D01*
Y4174D01*
X5443Y4167D01*
X5423D01*
X5437D02*
X5450Y4154D01*
X5483D02*
Y4194D01*
X5463Y4174D01*
X5490D01*
X5423Y4055D02*
Y4095D01*
X5443D01*
X5450Y4088D01*
Y4075D01*
X5443Y4068D01*
X5423D01*
X5437D02*
X5450Y4055D01*
X5463Y4088D02*
X5470Y4095D01*
X5483D01*
X5490Y4088D01*
Y4082D01*
X5483Y4075D01*
X5477D01*
X5483D01*
X5490Y4068D01*
Y4062D01*
X5483Y4055D01*
X5470D01*
X5463Y4062D01*
X5423Y3957D02*
Y3997D01*
X5443D01*
X5450Y3990D01*
Y3977D01*
X5443Y3970D01*
X5423D01*
X5437D02*
X5450Y3957D01*
X5490D02*
X5463D01*
X5490Y3983D01*
Y3990D01*
X5483Y3997D01*
X5470D01*
X5463Y3990D01*
X4026Y1713D02*
Y1693D01*
X4039D01*
X4059Y1713D02*
X4046D01*
Y1693D01*
X4059D01*
X4046Y1703D02*
X4052D01*
X4066Y1713D02*
Y1693D01*
X4076D01*
X4079Y1696D01*
Y1710D01*
X4076Y1713D01*
X4066D01*
X4086Y1710D02*
X4089Y1713D01*
X4096D01*
X4099Y1710D01*
Y1706D01*
X4096Y1703D01*
X4099Y1700D01*
Y1696D01*
X4096Y1693D01*
X4089D01*
X4086Y1696D01*
Y1700D01*
X4089Y1703D01*
X4086Y1706D01*
Y1710D01*
X4089Y1703D02*
X4096D01*
X4026Y1831D02*
Y1811D01*
X4039D01*
X4059Y1831D02*
X4046D01*
Y1811D01*
X4059D01*
X4046Y1821D02*
X4052D01*
X4066Y1831D02*
Y1811D01*
X4076D01*
X4079Y1814D01*
Y1828D01*
X4076Y1831D01*
X4066D01*
X4086D02*
X4099D01*
Y1828D01*
X4086Y1814D01*
Y1811D01*
X5846Y4489D02*
Y4449D01*
X5873D01*
X5913Y4489D02*
X5886D01*
Y4449D01*
X5913D01*
X5886Y4469D02*
X5900D01*
X5926Y4489D02*
Y4449D01*
X5946D01*
X5953Y4455D01*
Y4482D01*
X5946Y4489D01*
X5926D01*
X5993D02*
X5980Y4482D01*
X5966Y4469D01*
Y4455D01*
X5973Y4449D01*
X5986D01*
X5993Y4455D01*
Y4462D01*
X5986Y4469D01*
X5966D01*
X5846Y4390D02*
Y4350D01*
X5873D01*
X5913Y4390D02*
X5886D01*
Y4350D01*
X5913D01*
X5886Y4370D02*
X5900D01*
X5926Y4390D02*
Y4350D01*
X5946D01*
X5953Y4357D01*
Y4384D01*
X5946Y4390D01*
X5926D01*
X5993D02*
X5966D01*
Y4370D01*
X5980Y4377D01*
X5986D01*
X5993Y4370D01*
Y4357D01*
X5986Y4350D01*
X5973D01*
X5966Y4357D01*
X5846Y4292D02*
Y4252D01*
X5873D01*
X5913Y4292D02*
X5886D01*
Y4252D01*
X5913D01*
X5886Y4272D02*
X5900D01*
X5926Y4292D02*
Y4252D01*
X5946D01*
X5953Y4259D01*
Y4285D01*
X5946Y4292D01*
X5926D01*
X5986Y4252D02*
Y4292D01*
X5966Y4272D01*
X5993D01*
X5846Y4194D02*
Y4154D01*
X5873D01*
X5913Y4194D02*
X5886D01*
Y4154D01*
X5913D01*
X5886Y4174D02*
X5900D01*
X5926Y4194D02*
Y4154D01*
X5946D01*
X5953Y4160D01*
Y4187D01*
X5946Y4194D01*
X5926D01*
X5966Y4187D02*
X5973Y4194D01*
X5986D01*
X5993Y4187D01*
Y4180D01*
X5986Y4174D01*
X5980D01*
X5986D01*
X5993Y4167D01*
Y4160D01*
X5986Y4154D01*
X5973D01*
X5966Y4160D01*
X5846Y4095D02*
Y4055D01*
X5873D01*
X5913Y4095D02*
X5886D01*
Y4055D01*
X5913D01*
X5886Y4075D02*
X5900D01*
X5926Y4095D02*
Y4055D01*
X5946D01*
X5953Y4062D01*
Y4088D01*
X5946Y4095D01*
X5926D01*
X5993Y4055D02*
X5966D01*
X5993Y4082D01*
Y4088D01*
X5986Y4095D01*
X5973D01*
X5966Y4088D01*
X5846Y3997D02*
Y3957D01*
X5873D01*
X5913Y3997D02*
X5886D01*
Y3957D01*
X5913D01*
X5886Y3977D02*
X5900D01*
X5926Y3997D02*
Y3957D01*
X5946D01*
X5953Y3963D01*
Y3990D01*
X5946Y3997D01*
X5926D01*
X5966Y3957D02*
X5980D01*
X5973D01*
Y3997D01*
X5966Y3990D01*
X8130Y5266D02*
Y5226D01*
X8157D01*
X8170D02*
X8183D01*
X8177D01*
Y5266D01*
X8170Y5260D01*
X9190Y2432D02*
X9177D01*
X9183D01*
Y2398D01*
X9177Y2392D01*
X9170D01*
X9163Y2398D01*
X9203D02*
X9210Y2392D01*
X9223D01*
X9230Y2398D01*
Y2425D01*
X9223Y2432D01*
X9210D01*
X9203Y2425D01*
Y2418D01*
X9210Y2412D01*
X9230D01*
X7359Y3898D02*
X7346D01*
X7353D01*
Y3865D01*
X7346Y3858D01*
X7339D01*
X7333Y3865D01*
X7373Y3858D02*
X7386D01*
X7379D01*
Y3898D01*
X7373Y3892D01*
X7406Y3858D02*
X7419D01*
X7413D01*
Y3898D01*
X7406Y3892D01*
X8422Y3790D02*
X8409D01*
X8416D01*
Y3757D01*
X8409Y3750D01*
X8402D01*
X8396Y3757D01*
X8436Y3750D02*
X8449D01*
X8442D01*
Y3790D01*
X8436Y3783D01*
X8469D02*
X8476Y3790D01*
X8489D01*
X8496Y3783D01*
Y3757D01*
X8489Y3750D01*
X8476D01*
X8469Y3757D01*
Y3783D01*
X8255Y3790D02*
X8242D01*
X8248D01*
Y3757D01*
X8242Y3750D01*
X8235D01*
X8228Y3757D01*
X8268Y3783D02*
X8275Y3790D01*
X8288D01*
X8295Y3783D01*
Y3777D01*
X8288Y3770D01*
X8295Y3763D01*
Y3757D01*
X8288Y3750D01*
X8275D01*
X8268Y3757D01*
Y3763D01*
X8275Y3770D01*
X8268Y3777D01*
Y3783D01*
X8275Y3770D02*
X8288D01*
X6533Y2097D02*
X6519D01*
X6526D01*
Y2064D01*
X6519Y2057D01*
X6513D01*
X6506Y2064D01*
X6546Y2097D02*
X6573D01*
Y2090D01*
X6546Y2064D01*
Y2057D01*
X6503Y5483D02*
X6490D01*
X6496D01*
Y5450D01*
X6490Y5443D01*
X6483D01*
X6476Y5450D01*
X6543Y5483D02*
X6530Y5476D01*
X6516Y5463D01*
Y5450D01*
X6523Y5443D01*
X6536D01*
X6543Y5450D01*
Y5456D01*
X6536Y5463D01*
X6516D01*
X4603Y4756D02*
X4590D01*
X4597D01*
Y4723D01*
X4590Y4716D01*
X4583D01*
X4577Y4723D01*
X4643Y4756D02*
X4617D01*
Y4736D01*
X4630Y4743D01*
X4637D01*
X4643Y4736D01*
Y4723D01*
X4637Y4716D01*
X4623D01*
X4617Y4723D01*
X3796Y5483D02*
X3783D01*
X3790D01*
Y5450D01*
X3783Y5443D01*
X3776D01*
X3770Y5450D01*
X3830Y5443D02*
Y5483D01*
X3810Y5463D01*
X3836D01*
X5598Y5480D02*
X5584D01*
X5591D01*
Y5447D01*
X5584Y5441D01*
X5578D01*
X5571Y5447D01*
X5611Y5474D02*
X5618Y5480D01*
X5631D01*
X5638Y5474D01*
Y5467D01*
X5631Y5461D01*
X5624D01*
X5631D01*
X5638Y5454D01*
Y5447D01*
X5631Y5441D01*
X5618D01*
X5611Y5447D01*
X5596Y2348D02*
X5582D01*
X5589D01*
Y2315D01*
X5582Y2308D01*
X5576D01*
X5569Y2315D01*
X5636Y2308D02*
X5609D01*
X5636Y2335D01*
Y2341D01*
X5629Y2348D01*
X5616D01*
X5609Y2341D01*
X4712Y5483D02*
X4698D01*
X4705D01*
Y5450D01*
X4698Y5443D01*
X4692D01*
X4685Y5450D01*
X4725Y5443D02*
X4738D01*
X4732D01*
Y5483D01*
X4725Y5476D01*
X8120Y4036D02*
Y3996D01*
X8140D01*
X8147Y4003D01*
Y4029D01*
X8140Y4036D01*
X8120D01*
X8180Y3996D02*
Y4036D01*
X8160Y4016D01*
X8187D01*
X8116Y3580D02*
X8110Y3573D01*
Y3560D01*
X8116Y3553D01*
X8143D01*
X8150Y3560D01*
Y3573D01*
X8143Y3580D01*
X8150Y3613D02*
X8110D01*
X8130Y3593D01*
Y3620D01*
X8116Y3633D02*
X8110Y3640D01*
Y3653D01*
X8116Y3660D01*
X8123D01*
X8130Y3653D01*
Y3646D01*
Y3653D01*
X8136Y3660D01*
X8143D01*
X8150Y3653D01*
Y3640D01*
X8143Y3633D01*
X7703Y4072D02*
X7696Y4065D01*
Y4052D01*
X7703Y4045D01*
X7730D01*
X7736Y4052D01*
Y4065D01*
X7730Y4072D01*
X7736Y4105D02*
X7696D01*
X7716Y4085D01*
Y4112D01*
X7736Y4152D02*
Y4125D01*
X7710Y4152D01*
X7703D01*
X7696Y4145D01*
Y4132D01*
X7703Y4125D01*
X8385Y4938D02*
X8381Y4934D01*
Y4925D01*
X8385Y4921D01*
X8401D01*
X8406Y4925D01*
Y4934D01*
X8401Y4938D01*
X8406Y4959D02*
X8381D01*
X8393Y4946D01*
Y4963D01*
X8406Y4971D02*
Y4980D01*
Y4975D01*
X8381D01*
X8385Y4971D01*
X8747Y4876D02*
X8740Y4883D01*
X8727D01*
X8720Y4876D01*
Y4849D01*
X8727Y4843D01*
X8740D01*
X8747Y4849D01*
X8780Y4843D02*
Y4883D01*
X8760Y4863D01*
X8787D01*
X8800Y4876D02*
X8807Y4883D01*
X8820D01*
X8827Y4876D01*
Y4849D01*
X8820Y4843D01*
X8807D01*
X8800Y4849D01*
Y4876D01*
X8271Y4606D02*
X8266Y4612D01*
X8254D01*
X8248Y4606D01*
Y4583D01*
X8254Y4577D01*
X8266D01*
X8271Y4583D01*
X8283Y4606D02*
X8289Y4612D01*
X8301D01*
X8306Y4606D01*
Y4600D01*
X8301Y4594D01*
X8295D01*
X8301D01*
X8306Y4588D01*
Y4583D01*
X8301Y4577D01*
X8289D01*
X8283Y4583D01*
X8318Y4612D02*
X8341D01*
Y4606D01*
X8318Y4583D01*
Y4577D01*
X8462Y5250D02*
X8455Y5257D01*
X8442D01*
X8435Y5250D01*
Y5223D01*
X8442Y5217D01*
X8455D01*
X8462Y5223D01*
X8475Y5250D02*
X8482Y5257D01*
X8495D01*
X8502Y5250D01*
Y5243D01*
X8495Y5237D01*
X8488D01*
X8495D01*
X8502Y5230D01*
Y5223D01*
X8495Y5217D01*
X8482D01*
X8475Y5223D01*
X8542Y5257D02*
X8528Y5250D01*
X8515Y5237D01*
Y5223D01*
X8522Y5217D01*
X8535D01*
X8542Y5223D01*
Y5230D01*
X8535Y5237D01*
X8515D01*
X8326Y4938D02*
X8321Y4934D01*
Y4925D01*
X8326Y4921D01*
X8342D01*
X8346Y4925D01*
Y4934D01*
X8342Y4938D01*
X8326Y4946D02*
X8321Y4950D01*
Y4959D01*
X8326Y4963D01*
X8330D01*
X8334Y4959D01*
Y4955D01*
Y4959D01*
X8338Y4963D01*
X8342D01*
X8346Y4959D01*
Y4950D01*
X8342Y4946D01*
X8321Y4988D02*
Y4971D01*
X8334D01*
X8330Y4980D01*
Y4984D01*
X8334Y4988D01*
X8342D01*
X8346Y4984D01*
Y4975D01*
X8342Y4971D01*
X8038Y5247D02*
X8034Y5251D01*
X8026D01*
X8022Y5247D01*
Y5231D01*
X8026Y5226D01*
X8034D01*
X8038Y5231D01*
X8047Y5247D02*
X8051Y5251D01*
X8059D01*
X8063Y5247D01*
Y5243D01*
X8059Y5239D01*
X8055D01*
X8059D01*
X8063Y5235D01*
Y5231D01*
X8059Y5226D01*
X8051D01*
X8047Y5231D01*
X8084Y5226D02*
Y5251D01*
X8072Y5239D01*
X8088D01*
X7991Y4652D02*
X7987Y4648D01*
Y4640D01*
X7991Y4636D01*
X8008D01*
X8012Y4640D01*
Y4648D01*
X8008Y4652D01*
X7991Y4661D02*
X7987Y4665D01*
Y4673D01*
X7991Y4677D01*
X7995D01*
X7999Y4673D01*
Y4669D01*
Y4673D01*
X8003Y4677D01*
X8008D01*
X8012Y4673D01*
Y4665D01*
X8008Y4661D01*
X7991Y4686D02*
X7987Y4690D01*
Y4698D01*
X7991Y4702D01*
X7995D01*
X7999Y4698D01*
Y4694D01*
Y4698D01*
X8003Y4702D01*
X8008D01*
X8012Y4698D01*
Y4690D01*
X8008Y4686D01*
X8071Y4503D02*
X8066Y4508D01*
X8056D01*
X8051Y4503D01*
Y4483D01*
X8056Y4478D01*
X8066D01*
X8071Y4483D01*
X8081Y4503D02*
X8086Y4508D01*
X8096D01*
X8101Y4503D01*
Y4498D01*
X8096Y4493D01*
X8091D01*
X8096D01*
X8101Y4488D01*
Y4483D01*
X8096Y4478D01*
X8086D01*
X8081Y4483D01*
X8131Y4478D02*
X8111D01*
X8131Y4498D01*
Y4503D01*
X8126Y4508D01*
X8116D01*
X8111Y4503D01*
X4131Y4216D02*
X4124Y4223D01*
X4111D01*
X4104Y4216D01*
Y4190D01*
X4111Y4183D01*
X4124D01*
X4131Y4190D01*
X4144Y4216D02*
X4151Y4223D01*
X4164D01*
X4171Y4216D01*
Y4210D01*
X4164Y4203D01*
X4158D01*
X4164D01*
X4171Y4196D01*
Y4190D01*
X4164Y4183D01*
X4151D01*
X4144Y4190D01*
X4184Y4216D02*
X4191Y4223D01*
X4204D01*
X4211Y4216D01*
Y4190D01*
X4204Y4183D01*
X4191D01*
X4184Y4190D01*
Y4216D01*
X3206Y5122D02*
X3199Y5129D01*
X3186D01*
X3179Y5122D01*
Y5095D01*
X3186Y5089D01*
X3199D01*
X3206Y5095D01*
X3246Y5089D02*
X3219D01*
X3246Y5115D01*
Y5122D01*
X3239Y5129D01*
X3226D01*
X3219Y5122D01*
X3286Y5129D02*
X3259D01*
Y5109D01*
X3272Y5115D01*
X3279D01*
X3286Y5109D01*
Y5095D01*
X3279Y5089D01*
X3266D01*
X3259Y5095D01*
X3895Y5014D02*
X3888Y5020D01*
X3875D01*
X3868Y5014D01*
Y4987D01*
X3875Y4980D01*
X3888D01*
X3895Y4987D01*
X3935Y4980D02*
X3908D01*
X3935Y5007D01*
Y5014D01*
X3928Y5020D01*
X3915D01*
X3908Y5014D01*
X3948Y5020D02*
X3975D01*
Y5014D01*
X3948Y4987D01*
Y4980D01*
X3718Y4797D02*
X3711Y4804D01*
X3698D01*
X3691Y4797D01*
Y4770D01*
X3698Y4764D01*
X3711D01*
X3718Y4770D01*
X3758Y4764D02*
X3731D01*
X3758Y4790D01*
Y4797D01*
X3751Y4804D01*
X3738D01*
X3731Y4797D01*
X3798Y4804D02*
X3784Y4797D01*
X3771Y4784D01*
Y4770D01*
X3778Y4764D01*
X3791D01*
X3798Y4770D01*
Y4777D01*
X3791Y4784D01*
X3771D01*
X5813Y2576D02*
X5806Y2569D01*
Y2556D01*
X5813Y2549D01*
X5840D01*
X5846Y2556D01*
Y2569D01*
X5840Y2576D01*
Y2589D02*
X5846Y2596D01*
Y2609D01*
X5840Y2616D01*
X5813D01*
X5806Y2609D01*
Y2596D01*
X5813Y2589D01*
X5820D01*
X5826Y2596D01*
Y2616D01*
X3206Y4039D02*
X3199Y4046D01*
X3186D01*
X3179Y4039D01*
Y4013D01*
X3186Y4006D01*
X3199D01*
X3206Y4013D01*
X3219Y4039D02*
X3226Y4046D01*
X3239D01*
X3246Y4039D01*
Y4033D01*
X3239Y4026D01*
X3246Y4019D01*
Y4013D01*
X3239Y4006D01*
X3226D01*
X3219Y4013D01*
Y4019D01*
X3226Y4026D01*
X3219Y4033D01*
Y4039D01*
X3226Y4026D02*
X3239D01*
X3088Y4266D02*
X3081Y4272D01*
X3068D01*
X3061Y4266D01*
Y4239D01*
X3068Y4232D01*
X3081D01*
X3088Y4239D01*
X3101Y4272D02*
X3128D01*
Y4266D01*
X3101Y4239D01*
Y4232D01*
X5115Y3773D02*
X5109Y3780D01*
X5095D01*
X5089Y3773D01*
Y3747D01*
X5095Y3740D01*
X5109D01*
X5115Y3747D01*
X5155Y3780D02*
X5142Y3773D01*
X5129Y3760D01*
Y3747D01*
X5135Y3740D01*
X5149D01*
X5155Y3747D01*
Y3753D01*
X5149Y3760D01*
X5129D01*
X5401Y4620D02*
X5394Y4627D01*
X5381D01*
X5374Y4620D01*
Y4593D01*
X5381Y4587D01*
X5394D01*
X5401Y4593D01*
X5441Y4627D02*
X5414D01*
Y4607D01*
X5427Y4613D01*
X5434D01*
X5441Y4607D01*
Y4593D01*
X5434Y4587D01*
X5421D01*
X5414Y4593D01*
X5292Y4836D02*
X5286Y4843D01*
X5272D01*
X5266Y4836D01*
Y4810D01*
X5272Y4803D01*
X5286D01*
X5292Y4810D01*
X5326Y4803D02*
Y4843D01*
X5306Y4823D01*
X5332D01*
X6752Y2274D02*
Y2314D01*
X6772D01*
X6779Y2307D01*
Y2294D01*
X6772Y2287D01*
X6752D01*
X6765D02*
X6779Y2274D01*
X6819Y2314D02*
X6792D01*
Y2274D01*
X6819D01*
X6792Y2294D02*
X6805D01*
X6832Y2314D02*
Y2274D01*
X6859D01*
X6872D02*
X6885D01*
X6879D01*
Y2314D01*
X6872Y2307D01*
X7205Y2678D02*
Y2638D01*
X7225D01*
X7231Y2644D01*
Y2671D01*
X7225Y2678D01*
X7205D01*
X7245Y2671D02*
X7251Y2678D01*
X7265D01*
X7271Y2671D01*
Y2664D01*
X7265Y2658D01*
X7258D01*
X7265D01*
X7271Y2651D01*
Y2644D01*
X7265Y2638D01*
X7251D01*
X7245Y2644D01*
X7389Y2772D02*
Y2799D01*
X7382Y2806D01*
X7369D01*
X7362Y2799D01*
Y2772D01*
X7369Y2766D01*
X7382D01*
X7376Y2779D02*
X7389Y2766D01*
X7382D02*
X7389Y2772D01*
X7402Y2766D02*
X7416D01*
X7409D01*
Y2806D01*
X7402Y2799D01*
X4348Y4472D02*
X4341Y4479D01*
X4328D01*
X4321Y4472D01*
Y4446D01*
X4328Y4439D01*
X4341D01*
X4348Y4446D01*
X4388Y4439D02*
X4361D01*
X4388Y4466D01*
Y4472D01*
X4381Y4479D01*
X4368D01*
X4361Y4472D01*
X4401Y4446D02*
X4408Y4439D01*
X4421D01*
X4427Y4446D01*
Y4472D01*
X4421Y4479D01*
X4408D01*
X4401Y4472D01*
Y4466D01*
X4408Y4459D01*
X4427D01*
X4082Y4709D02*
X4075Y4715D01*
X4062D01*
X4055Y4709D01*
Y4682D01*
X4062Y4675D01*
X4075D01*
X4082Y4682D01*
X4122Y4675D02*
X4095D01*
X4122Y4702D01*
Y4709D01*
X4115Y4715D01*
X4102D01*
X4095Y4709D01*
X4135D02*
X4142Y4715D01*
X4155D01*
X4162Y4709D01*
Y4702D01*
X4155Y4695D01*
X4162Y4689D01*
Y4682D01*
X4155Y4675D01*
X4142D01*
X4135Y4682D01*
Y4689D01*
X4142Y4695D01*
X4135Y4702D01*
Y4709D01*
X4142Y4695D02*
X4155D01*
X7358Y4426D02*
X7352Y4420D01*
Y4406D01*
X7358Y4400D01*
X7385D01*
X7392Y4406D01*
Y4420D01*
X7385Y4426D01*
X7392Y4440D02*
Y4453D01*
Y4446D01*
X7352D01*
X7358Y4440D01*
Y4473D02*
X7352Y4480D01*
Y4493D01*
X7358Y4500D01*
X7385D01*
X7392Y4493D01*
Y4480D01*
X7385Y4473D01*
X7358D01*
X6611Y4699D02*
X6605Y4705D01*
X6591D01*
X6585Y4699D01*
Y4672D01*
X6591Y4665D01*
X6605D01*
X6611Y4672D01*
X6625Y4665D02*
X6638D01*
X6631D01*
Y4705D01*
X6625Y4699D01*
X6658Y4665D02*
X6671D01*
X6665D01*
Y4705D01*
X6658Y4699D01*
X7002Y4320D02*
X6996Y4326D01*
X6984D01*
X6978Y4320D01*
Y4297D01*
X6984Y4291D01*
X6996D01*
X7002Y4297D01*
X7013Y4291D02*
X7025D01*
X7019D01*
Y4326D01*
X7013Y4320D01*
X7066Y4291D02*
X7042D01*
X7066Y4315D01*
Y4320D01*
X7060Y4326D01*
X7048D01*
X7042Y4320D01*
X6424Y4423D02*
X6418Y4430D01*
X6404D01*
X6398Y4423D01*
Y4396D01*
X6404Y4390D01*
X6418D01*
X6424Y4396D01*
X6438Y4390D02*
X6451D01*
X6444D01*
Y4430D01*
X6438Y4423D01*
X6471D02*
X6478Y4430D01*
X6491D01*
X6498Y4423D01*
Y4416D01*
X6491Y4410D01*
X6484D01*
X6491D01*
X6498Y4403D01*
Y4396D01*
X6491Y4390D01*
X6478D01*
X6471Y4396D01*
X6867Y4955D02*
X6861Y4961D01*
X6847D01*
X6841Y4955D01*
Y4928D01*
X6847Y4921D01*
X6861D01*
X6867Y4928D01*
X6881Y4921D02*
X6894D01*
X6887D01*
Y4961D01*
X6881Y4955D01*
X6934Y4921D02*
Y4961D01*
X6914Y4941D01*
X6941D01*
X6739Y3416D02*
X6735Y3421D01*
X6727D01*
X6722Y3416D01*
Y3400D01*
X6727Y3396D01*
X6735D01*
X6739Y3400D01*
X6747Y3396D02*
X6756D01*
X6752D01*
Y3421D01*
X6747Y3416D01*
X6785Y3421D02*
X6768D01*
Y3408D01*
X6777Y3412D01*
X6781D01*
X6785Y3408D01*
Y3400D01*
X6781Y3396D01*
X6772D01*
X6768Y3400D01*
X6434Y4962D02*
X6430Y4966D01*
X6421D01*
X6417Y4962D01*
Y4945D01*
X6421Y4941D01*
X6430D01*
X6434Y4945D01*
X6442Y4941D02*
X6451D01*
X6446D01*
Y4966D01*
X6442Y4962D01*
X6480Y4966D02*
X6471Y4962D01*
X6463Y4953D01*
Y4945D01*
X6467Y4941D01*
X6476D01*
X6480Y4945D01*
Y4949D01*
X6476Y4953D01*
X6463D01*
X7382Y2149D02*
X7376Y2143D01*
Y2132D01*
X7382Y2126D01*
X7406D01*
X7411Y2132D01*
Y2143D01*
X7406Y2149D01*
X7411Y2184D02*
Y2161D01*
X7388Y2184D01*
X7382D01*
X7376Y2178D01*
Y2167D01*
X7382Y2161D01*
X7411Y2219D02*
Y2196D01*
X7388Y2219D01*
X7382D01*
X7376Y2213D01*
Y2202D01*
X7382Y2196D01*
X7644Y2103D02*
X7637Y2097D01*
Y2083D01*
X7644Y2077D01*
X7670D01*
X7677Y2083D01*
Y2097D01*
X7670Y2103D01*
X7677Y2143D02*
Y2117D01*
X7651Y2143D01*
X7644D01*
X7637Y2137D01*
Y2123D01*
X7644Y2117D01*
Y2157D02*
X7637Y2163D01*
Y2177D01*
X7644Y2183D01*
X7651D01*
X7657Y2177D01*
Y2170D01*
Y2177D01*
X7664Y2183D01*
X7670D01*
X7677Y2177D01*
Y2163D01*
X7670Y2157D01*
X8590Y3134D02*
X8583Y3140D01*
X8570D01*
X8563Y3134D01*
Y3107D01*
X8570Y3100D01*
X8583D01*
X8590Y3107D01*
X8623Y3100D02*
Y3140D01*
X8603Y3120D01*
X8630D01*
X8663Y3100D02*
Y3140D01*
X8643Y3120D01*
X8670D01*
X8776Y2743D02*
X8769Y2737D01*
Y2723D01*
X8776Y2717D01*
X8802D01*
X8809Y2723D01*
Y2737D01*
X8802Y2743D01*
X8809Y2777D02*
X8769D01*
X8789Y2757D01*
Y2783D01*
X8769Y2823D02*
Y2797D01*
X8789D01*
X8782Y2810D01*
Y2817D01*
X8789Y2823D01*
X8802D01*
X8809Y2817D01*
Y2803D01*
X8802Y2797D01*
X4800Y3161D02*
X4796Y3165D01*
X4788D01*
X4783Y3161D01*
Y3144D01*
X4788Y3140D01*
X4796D01*
X4800Y3144D01*
X4825Y3140D02*
X4808D01*
X4825Y3156D01*
Y3161D01*
X4821Y3165D01*
X4813D01*
X4808Y3161D01*
X5282D02*
X5278Y3165D01*
X5270D01*
X5266Y3161D01*
Y3144D01*
X5270Y3140D01*
X5278D01*
X5282Y3144D01*
X5291Y3161D02*
X5295Y3165D01*
X5303D01*
X5307Y3161D01*
Y3156D01*
X5303Y3152D01*
X5299D01*
X5303D01*
X5307Y3148D01*
Y3144D01*
X5303Y3140D01*
X5295D01*
X5291Y3144D01*
X4809Y2202D02*
X4803Y2195D01*
Y2182D01*
X4809Y2175D01*
X4836D01*
X4843Y2182D01*
Y2195D01*
X4836Y2202D01*
X4843Y2215D02*
Y2229D01*
Y2222D01*
X4803D01*
X4809Y2215D01*
X7074Y5208D02*
X7070Y5212D01*
X7061D01*
X7057Y5208D01*
Y5191D01*
X7061Y5187D01*
X7070D01*
X7074Y5191D01*
X7082Y5187D02*
X7090D01*
X7086D01*
Y5212D01*
X7082Y5208D01*
X7103Y5212D02*
X7120D01*
Y5208D01*
X7103Y5191D01*
Y5187D01*
X6759Y5129D02*
X6755Y5133D01*
X6746D01*
X6742Y5129D01*
Y5112D01*
X6746Y5108D01*
X6755D01*
X6759Y5112D01*
X6767Y5108D02*
X6775D01*
X6771D01*
Y5133D01*
X6767Y5129D01*
X6788D02*
X6792Y5133D01*
X6800D01*
X6805Y5129D01*
Y5125D01*
X6800Y5121D01*
X6805Y5117D01*
Y5112D01*
X6800Y5108D01*
X6792D01*
X6788Y5112D01*
Y5117D01*
X6792Y5121D01*
X6788Y5125D01*
Y5129D01*
X6792Y5121D02*
X6800D01*
X6926Y4699D02*
X6920Y4705D01*
X6906D01*
X6900Y4699D01*
Y4672D01*
X6906Y4665D01*
X6920D01*
X6926Y4672D01*
X6940Y4665D02*
X6953D01*
X6946D01*
Y4705D01*
X6940Y4699D01*
X6973Y4672D02*
X6980Y4665D01*
X6993D01*
X7000Y4672D01*
Y4699D01*
X6993Y4705D01*
X6980D01*
X6973Y4699D01*
Y4692D01*
X6980Y4685D01*
X7000D01*
X7091Y3902D02*
X7084Y3909D01*
X7071D01*
X7064Y3902D01*
Y3876D01*
X7071Y3869D01*
X7084D01*
X7091Y3876D01*
X7131Y3869D02*
X7104D01*
X7131Y3896D01*
Y3902D01*
X7124Y3909D01*
X7111D01*
X7104Y3902D01*
X7144D02*
X7151Y3909D01*
X7164D01*
X7171Y3902D01*
Y3876D01*
X7164Y3869D01*
X7151D01*
X7144Y3876D01*
Y3902D01*
X6877Y3537D02*
X6870Y3544D01*
X6857D01*
X6850Y3537D01*
Y3511D01*
X6857Y3504D01*
X6870D01*
X6877Y3511D01*
X6917Y3504D02*
X6890D01*
X6917Y3531D01*
Y3537D01*
X6910Y3544D01*
X6897D01*
X6890Y3537D01*
X6930Y3504D02*
X6944D01*
X6937D01*
Y3544D01*
X6930Y3537D01*
X7445Y1850D02*
X7439Y1856D01*
X7427D01*
X7421Y1850D01*
Y1827D01*
X7427Y1821D01*
X7439D01*
X7445Y1827D01*
X7480Y1821D02*
X7456D01*
X7480Y1844D01*
Y1850D01*
X7474Y1856D01*
X7462D01*
X7456Y1850D01*
X7509Y1821D02*
Y1856D01*
X7491Y1838D01*
X7515D01*
X6417Y3672D02*
Y3632D01*
X6437D01*
X6444Y3639D01*
Y3665D01*
X6437Y3672D01*
X6417D01*
X6457Y3632D02*
X6471D01*
X6464D01*
Y3672D01*
X6457Y3665D01*
X6417Y3760D02*
Y3720D01*
X6437D01*
X6444Y3727D01*
Y3754D01*
X6437Y3760D01*
X6417D01*
X6484Y3720D02*
X6457D01*
X6484Y3747D01*
Y3754D01*
X6477Y3760D01*
X6464D01*
X6457Y3754D01*
X8563Y3209D02*
Y3169D01*
X8590D01*
X8630Y3209D02*
X8603D01*
Y3169D01*
X8630D01*
X8603Y3189D02*
X8616D01*
X8643Y3209D02*
Y3169D01*
X8663D01*
X8670Y3176D01*
Y3203D01*
X8663Y3209D01*
X8643D01*
X8683Y3176D02*
X8690Y3169D01*
X8703D01*
X8710Y3176D01*
Y3203D01*
X8703Y3209D01*
X8690D01*
X8683Y3203D01*
Y3196D01*
X8690Y3189D01*
X8710D01*
X7982Y3209D02*
Y3169D01*
X8009D01*
X8049Y3209D02*
X8022D01*
Y3169D01*
X8049D01*
X8022Y3189D02*
X8036D01*
X8062Y3209D02*
Y3169D01*
X8082D01*
X8089Y3176D01*
Y3203D01*
X8082Y3209D01*
X8062D01*
X8102Y3169D02*
X8116D01*
X8109D01*
Y3209D01*
X8102Y3203D01*
X8136D02*
X8142Y3209D01*
X8156D01*
X8162Y3203D01*
Y3176D01*
X8156Y3169D01*
X8142D01*
X8136Y3176D01*
Y3203D01*
X7096Y4567D02*
Y4607D01*
X7116D01*
X7123Y4600D01*
Y4587D01*
X7116Y4580D01*
X7096D01*
X7110D02*
X7123Y4567D01*
X7163D02*
X7136D01*
X7163Y4594D01*
Y4600D01*
X7156Y4607D01*
X7143D01*
X7136Y4600D01*
X7176Y4574D02*
X7183Y4567D01*
X7196D01*
X7203Y4574D01*
Y4600D01*
X7196Y4607D01*
X7183D01*
X7176Y4600D01*
Y4594D01*
X7183Y4587D01*
X7203D01*
X6427Y4291D02*
Y4331D01*
X6447D01*
X6454Y4325D01*
Y4311D01*
X6447Y4305D01*
X6427D01*
X6440D02*
X6454Y4291D01*
X6467Y4325D02*
X6474Y4331D01*
X6487D01*
X6494Y4325D01*
Y4318D01*
X6487Y4311D01*
X6480D01*
X6487D01*
X6494Y4305D01*
Y4298D01*
X6487Y4291D01*
X6474D01*
X6467Y4298D01*
X6507Y4325D02*
X6514Y4331D01*
X6527D01*
X6534Y4325D01*
Y4298D01*
X6527Y4291D01*
X6514D01*
X6507Y4298D01*
Y4325D01*
X7346Y4341D02*
Y4366D01*
X7359D01*
X7363Y4361D01*
Y4353D01*
X7359Y4349D01*
X7346D01*
X7355D02*
X7363Y4341D01*
X7371Y4361D02*
X7375Y4366D01*
X7384D01*
X7388Y4361D01*
Y4357D01*
X7384Y4353D01*
X7380D01*
X7384D01*
X7388Y4349D01*
Y4345D01*
X7384Y4341D01*
X7375D01*
X7371Y4345D01*
X7396Y4341D02*
X7405D01*
X7400D01*
Y4366D01*
X7396Y4361D01*
X7096Y4104D02*
Y4144D01*
X7116D01*
X7123Y4138D01*
Y4124D01*
X7116Y4118D01*
X7096D01*
X7110D02*
X7123Y4104D01*
X7136Y4138D02*
X7143Y4144D01*
X7156D01*
X7163Y4138D01*
Y4131D01*
X7156Y4124D01*
X7150D01*
X7156D01*
X7163Y4118D01*
Y4111D01*
X7156Y4104D01*
X7143D01*
X7136Y4111D01*
X7203Y4104D02*
X7176D01*
X7203Y4131D01*
Y4138D01*
X7196Y4144D01*
X7183D01*
X7176Y4138D01*
X6358Y4596D02*
Y4636D01*
X6378D01*
X6385Y4630D01*
Y4616D01*
X6378Y4610D01*
X6358D01*
X6372D02*
X6385Y4596D01*
X6398Y4630D02*
X6405Y4636D01*
X6418D01*
X6425Y4630D01*
Y4623D01*
X6418Y4616D01*
X6412D01*
X6418D01*
X6425Y4610D01*
Y4603D01*
X6418Y4596D01*
X6405D01*
X6398Y4603D01*
X6438Y4630D02*
X6445Y4636D01*
X6458D01*
X6465Y4630D01*
Y4623D01*
X6458Y4616D01*
X6452D01*
X6458D01*
X6465Y4610D01*
Y4603D01*
X6458Y4596D01*
X6445D01*
X6438Y4603D01*
X6270Y4488D02*
Y4528D01*
X6290D01*
X6296Y4522D01*
Y4508D01*
X6290Y4502D01*
X6270D01*
X6283D02*
X6296Y4488D01*
X6310Y4522D02*
X6316Y4528D01*
X6330D01*
X6336Y4522D01*
Y4515D01*
X6330Y4508D01*
X6323D01*
X6330D01*
X6336Y4502D01*
Y4495D01*
X6330Y4488D01*
X6316D01*
X6310Y4495D01*
X6370Y4488D02*
Y4528D01*
X6350Y4508D01*
X6376D01*
X6860Y5187D02*
Y5212D01*
X6873D01*
X6877Y5208D01*
Y5200D01*
X6873Y5195D01*
X6860D01*
X6869D02*
X6877Y5187D01*
X6885Y5208D02*
X6889Y5212D01*
X6898D01*
X6902Y5208D01*
Y5204D01*
X6898Y5200D01*
X6894D01*
X6898D01*
X6902Y5195D01*
Y5191D01*
X6898Y5187D01*
X6889D01*
X6885Y5191D01*
X6927Y5212D02*
X6910D01*
Y5200D01*
X6919Y5204D01*
X6923D01*
X6927Y5200D01*
Y5191D01*
X6923Y5187D01*
X6914D01*
X6910Y5191D01*
X6427Y5187D02*
Y5227D01*
X6447D01*
X6454Y5220D01*
Y5207D01*
X6447Y5200D01*
X6427D01*
X6440D02*
X6454Y5187D01*
X6487D02*
Y5227D01*
X6467Y5207D01*
X6494D01*
X6507Y5187D02*
X6520D01*
X6514D01*
Y5227D01*
X6507Y5220D01*
X6772Y3465D02*
X6732D01*
Y3485D01*
X6738Y3491D01*
X6752D01*
X6758Y3485D01*
Y3465D01*
Y3478D02*
X6772Y3491D01*
X6738Y3505D02*
X6732Y3511D01*
Y3525D01*
X6738Y3531D01*
X6745D01*
X6752Y3525D01*
Y3518D01*
Y3525D01*
X6758Y3531D01*
X6765D01*
X6772Y3525D01*
Y3511D01*
X6765Y3505D01*
X6738Y3545D02*
X6732Y3551D01*
Y3565D01*
X6738Y3571D01*
X6745D01*
X6752Y3565D01*
X6758Y3571D01*
X6765D01*
X6772Y3565D01*
Y3551D01*
X6765Y3545D01*
X6758D01*
X6752Y3551D01*
X6745Y3545D01*
X6738D01*
X6752Y3551D02*
Y3565D01*
X6417Y3937D02*
Y3977D01*
X6437D01*
X6444Y3970D01*
Y3957D01*
X6437Y3950D01*
X6417D01*
X6431D02*
X6444Y3937D01*
X6477D02*
Y3977D01*
X6457Y3957D01*
X6484D01*
X6524Y3937D02*
X6497D01*
X6524Y3964D01*
Y3970D01*
X6517Y3977D01*
X6504D01*
X6497Y3970D01*
X6417Y3829D02*
Y3869D01*
X6437D01*
X6444Y3862D01*
Y3849D01*
X6437Y3842D01*
X6417D01*
X6431D02*
X6444Y3829D01*
X6477D02*
Y3869D01*
X6457Y3849D01*
X6484D01*
X6517Y3829D02*
Y3869D01*
X6497Y3849D01*
X6524D01*
X6604Y3396D02*
Y3421D01*
X6617D01*
X6621Y3416D01*
Y3408D01*
X6617Y3404D01*
X6604D01*
X6613D02*
X6621Y3396D01*
X6629Y3416D02*
X6633Y3421D01*
X6642D01*
X6646Y3416D01*
Y3412D01*
X6642Y3408D01*
X6638D01*
X6642D01*
X6646Y3404D01*
Y3400D01*
X6642Y3396D01*
X6633D01*
X6629Y3400D01*
X6654D02*
X6658Y3396D01*
X6667D01*
X6671Y3400D01*
Y3416D01*
X6667Y3421D01*
X6658D01*
X6654Y3416D01*
Y3412D01*
X6658Y3408D01*
X6671D01*
X6732Y3110D02*
X6692D01*
Y3130D01*
X6699Y3137D01*
X6712D01*
X6719Y3130D01*
Y3110D01*
Y3124D02*
X6732Y3137D01*
Y3170D02*
X6692D01*
X6712Y3150D01*
Y3177D01*
X6699Y3190D02*
X6692Y3197D01*
Y3210D01*
X6699Y3217D01*
X6706D01*
X6712Y3210D01*
Y3204D01*
Y3210D01*
X6719Y3217D01*
X6726D01*
X6732Y3210D01*
Y3197D01*
X6726Y3190D01*
X6506Y3465D02*
X6466D01*
Y3485D01*
X6473Y3491D01*
X6486D01*
X6493Y3485D01*
Y3465D01*
Y3478D02*
X6506Y3491D01*
Y3525D02*
X6466D01*
X6486Y3505D01*
Y3531D01*
X6466Y3571D02*
Y3545D01*
X6486D01*
X6479Y3558D01*
Y3565D01*
X6486Y3571D01*
X6499D01*
X6506Y3565D01*
Y3551D01*
X6499Y3545D01*
X8327Y2785D02*
X8287D01*
Y2805D01*
X8293Y2812D01*
X8307D01*
X8313Y2805D01*
Y2785D01*
Y2799D02*
X8327Y2812D01*
X8287Y2852D02*
X8293Y2839D01*
X8307Y2825D01*
X8320D01*
X8327Y2832D01*
Y2845D01*
X8320Y2852D01*
X8313D01*
X8307Y2845D01*
Y2825D01*
X8293Y2865D02*
X8287Y2872D01*
Y2885D01*
X8293Y2892D01*
X8300D01*
X8307Y2885D01*
X8313Y2892D01*
X8320D01*
X8327Y2885D01*
Y2872D01*
X8320Y2865D01*
X8313D01*
X8307Y2872D01*
X8300Y2865D01*
X8293D01*
X8307Y2872D02*
Y2885D01*
X8327Y2628D02*
X8287D01*
Y2648D01*
X8293Y2655D01*
X8307D01*
X8313Y2648D01*
Y2628D01*
Y2641D02*
X8327Y2655D01*
X8287Y2668D02*
Y2695D01*
X8293D01*
X8320Y2668D01*
X8327D01*
X8293Y2708D02*
X8287Y2715D01*
Y2728D01*
X8293Y2735D01*
X8320D01*
X8327Y2728D01*
Y2715D01*
X8320Y2708D01*
X8293D01*
X7510Y4724D02*
Y4759D01*
X7527D01*
X7533Y4754D01*
Y4742D01*
X7527Y4736D01*
X7510D01*
X7522D02*
X7533Y4724D01*
X7568Y4759D02*
X7545D01*
Y4742D01*
X7556Y4748D01*
X7562D01*
X7568Y4742D01*
Y4730D01*
X7562Y4724D01*
X7551D01*
X7545Y4730D01*
X7580D02*
X7586Y4724D01*
X7597D01*
X7603Y4730D01*
Y4754D01*
X7597Y4759D01*
X7586D01*
X7580Y4754D01*
Y4748D01*
X7586Y4742D01*
X7603D01*
X7648Y4547D02*
Y4582D01*
X7665D01*
X7671Y4576D01*
Y4565D01*
X7665Y4559D01*
X7648D01*
X7659D02*
X7671Y4547D01*
X7706Y4582D02*
X7694Y4576D01*
X7683Y4565D01*
Y4553D01*
X7688Y4547D01*
X7700D01*
X7706Y4553D01*
Y4559D01*
X7700Y4565D01*
X7683D01*
X7718Y4576D02*
X7723Y4582D01*
X7735D01*
X7741Y4576D01*
Y4571D01*
X7735Y4565D01*
X7729D01*
X7735D01*
X7741Y4559D01*
Y4553D01*
X7735Y4547D01*
X7723D01*
X7718Y4553D01*
X4970Y3140D02*
Y3165D01*
X4983D01*
X4987Y3161D01*
Y3152D01*
X4983Y3148D01*
X4970D01*
X4979D02*
X4987Y3140D01*
X4995D02*
X5004D01*
X5000D01*
Y3165D01*
X4995Y3161D01*
X5016D02*
X5020Y3165D01*
X5029D01*
X5033Y3161D01*
Y3144D01*
X5029Y3140D01*
X5020D01*
X5016Y3144D01*
Y3161D01*
X5108Y3140D02*
X5083D01*
Y3152D01*
X5087Y3156D01*
X5096D01*
X5100Y3152D01*
Y3140D01*
Y3148D02*
X5108Y3156D01*
Y3165D02*
Y3173D01*
Y3169D01*
X5083D01*
X5087Y3165D01*
X5108Y3186D02*
Y3194D01*
Y3190D01*
X5083D01*
X5087Y3186D01*
X5295Y2175D02*
X5255D01*
Y2195D01*
X5262Y2202D01*
X5275D01*
X5282Y2195D01*
Y2175D01*
Y2189D02*
X5295Y2202D01*
Y2215D02*
Y2229D01*
Y2222D01*
X5255D01*
X5262Y2215D01*
X4862Y3140D02*
Y3165D01*
X4875D01*
X4879Y3161D01*
Y3152D01*
X4875Y3148D01*
X4862D01*
X4871D02*
X4879Y3140D01*
X4887D02*
X4896D01*
X4891D01*
Y3165D01*
X4887Y3161D01*
X4925Y3140D02*
X4908D01*
X4925Y3156D01*
Y3161D01*
X4921Y3165D01*
X4912D01*
X4908Y3161D01*
X5207Y3140D02*
X5182D01*
Y3152D01*
X5186Y3156D01*
X5194D01*
X5198Y3152D01*
Y3140D01*
Y3148D02*
X5207Y3156D01*
Y3165D02*
Y3173D01*
Y3169D01*
X5182D01*
X5186Y3165D01*
Y3186D02*
X5182Y3190D01*
Y3198D01*
X5186Y3202D01*
X5190D01*
X5194Y3198D01*
Y3194D01*
Y3198D01*
X5198Y3202D01*
X5203D01*
X5207Y3198D01*
Y3190D01*
X5203Y3186D01*
X8435Y2963D02*
X8395D01*
Y2983D01*
X8402Y2989D01*
X8415D01*
X8422Y2983D01*
Y2963D01*
Y2976D02*
X8435Y2989D01*
X8395Y3029D02*
X8402Y3016D01*
X8415Y3003D01*
X8428D01*
X8435Y3009D01*
Y3023D01*
X8428Y3029D01*
X8422D01*
X8415Y3023D01*
Y3003D01*
X8428Y3043D02*
X8435Y3049D01*
Y3063D01*
X8428Y3069D01*
X8402D01*
X8395Y3063D01*
Y3049D01*
X8402Y3043D01*
X8408D01*
X8415Y3049D01*
Y3069D01*
X5098Y2175D02*
X5058D01*
Y2195D01*
X5065Y2202D01*
X5078D01*
X5085Y2195D01*
Y2175D01*
Y2189D02*
X5098Y2202D01*
Y2215D02*
Y2229D01*
Y2222D01*
X5058D01*
X5065Y2215D01*
X5098Y2268D02*
X5058D01*
X5078Y2249D01*
Y2275D01*
X6388Y3179D02*
Y3214D01*
X6405D01*
X6411Y3208D01*
Y3197D01*
X6405Y3191D01*
X6388D01*
X6399D02*
X6411Y3179D01*
X6423Y3208D02*
X6429Y3214D01*
X6440D01*
X6446Y3208D01*
Y3202D01*
X6440Y3197D01*
X6434D01*
X6440D01*
X6446Y3191D01*
Y3185D01*
X6440Y3179D01*
X6429D01*
X6423Y3185D01*
X6481Y3214D02*
X6469Y3208D01*
X6458Y3197D01*
Y3185D01*
X6464Y3179D01*
X6475D01*
X6481Y3185D01*
Y3191D01*
X6475Y3197D01*
X6458D01*
X4879Y2346D02*
X4872Y2353D01*
X4859D01*
X4852Y2346D01*
Y2340D01*
X4859Y2333D01*
X4872D01*
X4879Y2326D01*
Y2320D01*
X4872Y2313D01*
X4859D01*
X4852Y2320D01*
X4892Y2353D02*
Y2313D01*
X4906Y2326D01*
X4919Y2313D01*
Y2353D01*
X4932Y2313D02*
X4946D01*
X4939D01*
Y2353D01*
X4932Y2346D01*
X7215Y4774D02*
X7241D01*
X7228D01*
Y4734D01*
X7255D02*
Y4774D01*
X7275D01*
X7281Y4768D01*
Y4754D01*
X7275Y4748D01*
X7255D01*
X7315Y4734D02*
Y4774D01*
X7295Y4754D01*
X7321D01*
X6683Y4125D02*
X6710D01*
X6696D01*
Y4085D01*
X6723D02*
Y4125D01*
X6743D01*
X6750Y4118D01*
Y4105D01*
X6743Y4098D01*
X6723D01*
X6790Y4125D02*
X6763D01*
Y4105D01*
X6776Y4111D01*
X6783D01*
X6790Y4105D01*
Y4091D01*
X6783Y4085D01*
X6770D01*
X6763Y4091D01*
X7112Y3321D02*
X7139D01*
X7126D01*
Y3281D01*
X7152D02*
Y3321D01*
X7172D01*
X7179Y3315D01*
Y3301D01*
X7172Y3295D01*
X7152D01*
X7219Y3321D02*
X7206Y3315D01*
X7192Y3301D01*
Y3288D01*
X7199Y3281D01*
X7212D01*
X7219Y3288D01*
Y3295D01*
X7212Y3301D01*
X7192D01*
X6348Y2934D02*
X6375D01*
X6362D01*
Y2894D01*
X6388D02*
Y2934D01*
X6408D01*
X6415Y2927D01*
Y2914D01*
X6408Y2907D01*
X6388D01*
X6428Y2934D02*
X6455D01*
Y2927D01*
X6428Y2900D01*
Y2894D01*
X7188Y5063D02*
Y5029D01*
X7195Y5023D01*
X7208D01*
X7215Y5029D01*
Y5063D01*
X7248Y5023D02*
Y5063D01*
X7228Y5043D01*
X7255D01*
X6850Y4302D02*
Y4268D01*
X6857Y4262D01*
X6870D01*
X6877Y4268D01*
Y4302D01*
X6917D02*
X6890D01*
Y4282D01*
X6904Y4288D01*
X6910D01*
X6917Y4282D01*
Y4268D01*
X6910Y4262D01*
X6897D01*
X6890Y4268D01*
X6752Y4981D02*
Y4948D01*
X6759Y4941D01*
X6772D01*
X6779Y4948D01*
Y4981D01*
X6819D02*
X6805Y4974D01*
X6792Y4961D01*
Y4948D01*
X6799Y4941D01*
X6812D01*
X6819Y4948D01*
Y4954D01*
X6812Y4961D01*
X6792D01*
X6749Y3969D02*
Y3936D01*
X6756Y3929D01*
X6769D01*
X6776Y3936D01*
Y3969D01*
X6789Y3962D02*
X6796Y3969D01*
X6809D01*
X6816Y3962D01*
Y3956D01*
X6809Y3949D01*
X6816Y3942D01*
Y3936D01*
X6809Y3929D01*
X6796D01*
X6789Y3936D01*
Y3942D01*
X6796Y3949D01*
X6789Y3956D01*
Y3962D01*
X6796Y3949D02*
X6809D01*
X6860Y3278D02*
Y3245D01*
X6867Y3238D01*
X6880D01*
X6887Y3245D01*
Y3278D01*
X6900D02*
X6927D01*
Y3272D01*
X6900Y3245D01*
Y3238D01*
X6339Y3337D02*
Y3304D01*
X6345Y3297D01*
X6359D01*
X6365Y3304D01*
Y3337D01*
X6379Y3304D02*
X6385Y3297D01*
X6399D01*
X6405Y3304D01*
Y3331D01*
X6399Y3337D01*
X6385D01*
X6379Y3331D01*
Y3324D01*
X6385Y3317D01*
X6405D01*
X8652Y2914D02*
Y2881D01*
X8658Y2874D01*
X8672D01*
X8678Y2881D01*
Y2914D01*
X8692Y2874D02*
X8705D01*
X8698D01*
Y2914D01*
X8692Y2907D01*
X8752Y2914D02*
X8725D01*
Y2894D01*
X8738Y2901D01*
X8745D01*
X8752Y2894D01*
Y2881D01*
X8745Y2874D01*
X8732D01*
X8725Y2881D01*
X7618Y1890D02*
Y1857D01*
X7625Y1850D01*
X7638D01*
X7645Y1857D01*
Y1890D01*
X7658Y1850D02*
X7671D01*
X7665D01*
Y1890D01*
X7658Y1884D01*
X7691D02*
X7698Y1890D01*
X7711D01*
X7718Y1884D01*
Y1857D01*
X7711Y1850D01*
X7698D01*
X7691Y1857D01*
Y1884D01*
X6713Y4813D02*
X6673D01*
Y4833D01*
X6679Y4840D01*
X6693D01*
X6699Y4833D01*
Y4813D01*
Y4826D02*
X6713Y4840D01*
X6679Y4853D02*
X6673Y4860D01*
Y4873D01*
X6679Y4880D01*
X6686D01*
X6693Y4873D01*
Y4866D01*
Y4873D01*
X6699Y4880D01*
X6706D01*
X6713Y4873D01*
Y4860D01*
X6706Y4853D01*
X6673Y4893D02*
Y4920D01*
X6679D01*
X6706Y4893D01*
X6713D01*
X6457Y4813D02*
X6417D01*
Y4833D01*
X6423Y4840D01*
X6437D01*
X6443Y4833D01*
Y4813D01*
Y4826D02*
X6457Y4840D01*
Y4873D02*
X6417D01*
X6437Y4853D01*
Y4880D01*
X6423Y4893D02*
X6417Y4900D01*
Y4913D01*
X6423Y4920D01*
X6450D01*
X6457Y4913D01*
Y4900D01*
X6450Y4893D01*
X6423D01*
X8081Y2914D02*
Y2881D01*
X8087Y2874D01*
X8101D01*
X8107Y2881D01*
Y2914D01*
X8121Y2874D02*
X8134D01*
X8127D01*
Y2914D01*
X8121Y2907D01*
X8181Y2914D02*
X8167Y2907D01*
X8154Y2894D01*
Y2881D01*
X8161Y2874D01*
X8174D01*
X8181Y2881D01*
Y2887D01*
X8174Y2894D01*
X8154D01*
X7864Y2972D02*
X7824D01*
Y2992D01*
X7831Y2999D01*
X7844D01*
X7851Y2992D01*
Y2972D01*
Y2986D02*
X7864Y2999D01*
X7824Y3012D02*
Y3039D01*
X7831D01*
X7858Y3012D01*
X7864D01*
Y3079D02*
Y3052D01*
X7838Y3079D01*
X7831D01*
X7824Y3072D01*
Y3059D01*
X7831Y3052D01*
X7756Y2795D02*
X7716D01*
Y2815D01*
X7723Y2822D01*
X7736D01*
X7743Y2815D01*
Y2795D01*
Y2809D02*
X7756Y2822D01*
X7716Y2835D02*
Y2862D01*
X7723D01*
X7749Y2835D01*
X7756D01*
Y2875D02*
Y2889D01*
Y2882D01*
X7716D01*
X7723Y2875D01*
X3307Y4872D02*
Y4907D01*
X3325D01*
X3330Y4901D01*
Y4890D01*
X3325Y4884D01*
X3307D01*
X3319D02*
X3330Y4872D01*
X3360D02*
Y4907D01*
X3342Y4890D01*
X3365D01*
X3400Y4907D02*
X3389Y4901D01*
X3377Y4890D01*
Y4878D01*
X3383Y4872D01*
X3395D01*
X3400Y4878D01*
Y4884D01*
X3395Y4890D01*
X3377D01*
X7756Y2638D02*
X7716D01*
Y2658D01*
X7723Y2664D01*
X7736D01*
X7743Y2658D01*
Y2638D01*
Y2651D02*
X7756Y2664D01*
X7716Y2678D02*
Y2704D01*
X7723D01*
X7749Y2678D01*
X7756D01*
X7723Y2718D02*
X7716Y2724D01*
Y2738D01*
X7723Y2744D01*
X7729D01*
X7736Y2738D01*
Y2731D01*
Y2738D01*
X7743Y2744D01*
X7749D01*
X7756Y2738D01*
Y2724D01*
X7749Y2718D01*
X7372Y2933D02*
Y2973D01*
X7392D01*
X7399Y2966D01*
Y2953D01*
X7392Y2946D01*
X7372D01*
X7385D02*
X7399Y2933D01*
X7432D02*
Y2973D01*
X7412Y2953D01*
X7439D01*
X7452Y2973D02*
X7479D01*
Y2966D01*
X7452Y2940D01*
Y2933D01*
X4734Y3356D02*
Y3391D01*
X4752D01*
X4758Y3385D01*
Y3374D01*
X4752Y3368D01*
X4734D01*
X4746D02*
X4758Y3356D01*
X4769D02*
X4781D01*
X4775D01*
Y3391D01*
X4769Y3385D01*
X4822Y3391D02*
X4798D01*
Y3374D01*
X4810Y3380D01*
X4816D01*
X4822Y3374D01*
Y3362D01*
X4816Y3356D01*
X4804D01*
X4798Y3362D01*
X5541Y3642D02*
Y3682D01*
X5561D01*
X5568Y3675D01*
Y3662D01*
X5561Y3655D01*
X5541D01*
X5555D02*
X5568Y3642D01*
X5581D02*
X5595D01*
X5588D01*
Y3682D01*
X5581Y3675D01*
X5641Y3682D02*
X5628Y3675D01*
X5615Y3662D01*
Y3648D01*
X5621Y3642D01*
X5635D01*
X5641Y3648D01*
Y3655D01*
X5635Y3662D01*
X5615D01*
X5679Y3465D02*
Y3505D01*
X5699D01*
X5706Y3498D01*
Y3485D01*
X5699Y3478D01*
X5679D01*
X5692D02*
X5706Y3465D01*
X5719D02*
X5732D01*
X5726D01*
Y3505D01*
X5719Y3498D01*
X5752Y3505D02*
X5779D01*
Y3498D01*
X5752Y3471D01*
Y3465D01*
X5728Y3366D02*
Y3406D01*
X5748D01*
X5755Y3399D01*
Y3386D01*
X5748Y3379D01*
X5728D01*
X5742D02*
X5755Y3366D01*
X5768D02*
X5782D01*
X5775D01*
Y3406D01*
X5768Y3399D01*
X5802D02*
X5808Y3406D01*
X5822D01*
X5828Y3399D01*
Y3393D01*
X5822Y3386D01*
X5828Y3379D01*
Y3373D01*
X5822Y3366D01*
X5808D01*
X5802Y3373D01*
Y3379D01*
X5808Y3386D01*
X5802Y3393D01*
Y3399D01*
X5808Y3386D02*
X5822D01*
X5679Y3268D02*
Y3308D01*
X5699D01*
X5706Y3301D01*
Y3288D01*
X5699Y3281D01*
X5679D01*
X5692D02*
X5706Y3268D01*
X5719D02*
X5732D01*
X5726D01*
Y3308D01*
X5719Y3301D01*
X5752Y3274D02*
X5759Y3268D01*
X5772D01*
X5779Y3274D01*
Y3301D01*
X5772Y3308D01*
X5759D01*
X5752Y3301D01*
Y3294D01*
X5759Y3288D01*
X5779D01*
X5679Y3169D02*
Y3209D01*
X5699D01*
X5706Y3203D01*
Y3189D01*
X5699Y3183D01*
X5679D01*
X5692D02*
X5706Y3169D01*
X5746D02*
X5719D01*
X5746Y3196D01*
Y3203D01*
X5739Y3209D01*
X5726D01*
X5719Y3203D01*
X5759D02*
X5766Y3209D01*
X5779D01*
X5786Y3203D01*
Y3176D01*
X5779Y3169D01*
X5766D01*
X5759Y3176D01*
Y3203D01*
X8009Y3134D02*
X8002Y3140D01*
X7989D01*
X7982Y3134D01*
Y3107D01*
X7989Y3100D01*
X8002D01*
X8009Y3107D01*
X8042Y3100D02*
Y3140D01*
X8022Y3120D01*
X8049D01*
X8089Y3140D02*
X8076Y3134D01*
X8062Y3120D01*
Y3107D01*
X8069Y3100D01*
X8082D01*
X8089Y3107D01*
Y3114D01*
X8082Y3120D01*
X8062D01*
X8205Y2733D02*
X8198Y2727D01*
Y2713D01*
X8205Y2707D01*
X8232D01*
X8238Y2713D01*
Y2727D01*
X8232Y2733D01*
X8238Y2767D02*
X8198D01*
X8218Y2747D01*
Y2773D01*
X8198Y2787D02*
Y2813D01*
X8205D01*
X8232Y2787D01*
X8238D01*
X3740Y4626D02*
X3700D01*
Y4646D01*
X3707Y4653D01*
X3720D01*
X3727Y4646D01*
Y4626D01*
Y4639D02*
X3740Y4653D01*
X3700Y4693D02*
Y4666D01*
X3720D01*
X3713Y4679D01*
Y4686D01*
X3720Y4693D01*
X3733D01*
X3740Y4686D01*
Y4673D01*
X3733Y4666D01*
X3707Y4706D02*
X3700Y4713D01*
Y4726D01*
X3707Y4733D01*
X3733D01*
X3740Y4726D01*
Y4713D01*
X3733Y4706D01*
X3707D01*
X3287Y4823D02*
Y4858D01*
X3305D01*
X3311Y4852D01*
Y4840D01*
X3305Y4834D01*
X3287D01*
X3299D02*
X3311Y4823D01*
X3346Y4858D02*
X3322D01*
Y4840D01*
X3334Y4846D01*
X3340D01*
X3346Y4840D01*
Y4829D01*
X3340Y4823D01*
X3328D01*
X3322Y4829D01*
X3357Y4823D02*
X3369D01*
X3363D01*
Y4858D01*
X3357Y4852D01*
X7805Y4852D02*
X7780D01*
Y4865D01*
X7784Y4869D01*
X7793D01*
X7797Y4865D01*
Y4852D01*
Y4861D02*
X7805Y4869D01*
X7780Y4894D02*
Y4877D01*
X7793D01*
X7788Y4886D01*
Y4890D01*
X7793Y4894D01*
X7801D01*
X7805Y4890D01*
Y4882D01*
X7801Y4877D01*
X7805Y4915D02*
X7780D01*
X7793Y4902D01*
Y4919D01*
X8425Y4567D02*
Y4607D01*
X8445D01*
X8452Y4600D01*
Y4587D01*
X8445Y4580D01*
X8425D01*
X8439D02*
X8452Y4567D01*
X8492Y4607D02*
X8465D01*
Y4587D01*
X8479Y4594D01*
X8485D01*
X8492Y4587D01*
Y4574D01*
X8485Y4567D01*
X8472D01*
X8465Y4574D01*
X8505Y4600D02*
X8512Y4607D01*
X8525D01*
X8532Y4600D01*
Y4594D01*
X8525Y4587D01*
X8532Y4580D01*
Y4574D01*
X8525Y4567D01*
X8512D01*
X8505Y4574D01*
Y4580D01*
X8512Y4587D01*
X8505Y4594D01*
Y4600D01*
X8512Y4587D02*
X8525D01*
X7805Y4754D02*
X7780D01*
Y4766D01*
X7784Y4771D01*
X7793D01*
X7797Y4766D01*
Y4754D01*
Y4762D02*
X7805Y4771D01*
X7780Y4796D02*
Y4779D01*
X7793D01*
X7788Y4787D01*
Y4791D01*
X7793Y4796D01*
X7801D01*
X7805Y4791D01*
Y4783D01*
X7801Y4779D01*
X7780Y4804D02*
Y4821D01*
X7784D01*
X7801Y4804D01*
X7805D01*
X7185Y5413D02*
Y5448D01*
X7203D01*
X7208Y5443D01*
Y5431D01*
X7203Y5425D01*
X7185D01*
X7197D02*
X7208Y5413D01*
X7220Y5448D02*
X7243D01*
Y5443D01*
X7220Y5419D01*
Y5413D01*
X7273D02*
Y5448D01*
X7255Y5431D01*
X7278D01*
X6545Y2854D02*
Y2894D01*
X6565D01*
X6572Y2888D01*
Y2874D01*
X6565Y2868D01*
X6545D01*
X6559D02*
X6572Y2854D01*
X6585Y2894D02*
X6612D01*
Y2888D01*
X6585Y2861D01*
Y2854D01*
X6652Y2894D02*
X6625D01*
Y2874D01*
X6639Y2881D01*
X6645D01*
X6652Y2874D01*
Y2861D01*
X6645Y2854D01*
X6632D01*
X6625Y2861D01*
X6191Y5055D02*
X6214D01*
X6203D01*
Y5020D01*
X6226D02*
Y5055D01*
X6243D01*
X6249Y5049D01*
Y5037D01*
X6243Y5031D01*
X6226D01*
X6261Y5020D02*
X6273D01*
X6267D01*
Y5055D01*
X6261Y5049D01*
X6313Y5055D02*
X6290D01*
Y5037D01*
X6302Y5043D01*
X6308D01*
X6313Y5037D01*
Y5026D01*
X6308Y5020D01*
X6296D01*
X6290Y5026D01*
X6348Y5291D02*
X6372D01*
X6360D01*
Y5256D01*
X6383D02*
Y5291D01*
X6401D01*
X6407Y5285D01*
Y5273D01*
X6401Y5268D01*
X6383D01*
X6418Y5256D02*
X6430D01*
X6424D01*
Y5291D01*
X6418Y5285D01*
X6471Y5291D02*
X6459Y5285D01*
X6448Y5273D01*
Y5262D01*
X6453Y5256D01*
X6465D01*
X6471Y5262D01*
Y5268D01*
X6465Y5273D01*
X6448D01*
D78*
X7601Y1912D02*
X7733D01*
Y1919D01*
X7601Y2044D02*
X7733D01*
X7601Y2037D02*
Y2044D01*
Y1912D02*
Y1919D01*
X7733Y2037D02*
Y2044D01*
X7942Y2910D02*
X8023D01*
X7942Y2778D02*
X8023D01*
X8513Y2910D02*
X8594D01*
X8513Y2778D02*
X8594D01*
X6796Y3666D02*
X6963D01*
X6796Y3873D02*
X6963D01*
X6796Y4326D02*
X6963D01*
X6796Y4533D02*
X6963D01*
M02*
