G04*
G04 #@! TF.GenerationSoftware,Altium Limited,CircuitStudio,1.5.1 (1.5.1.13)*
G04*
G04 Layer_Physical_Order=4*
G04 Layer_Color=13382400*
%FSLAX23Y23*%
%MOIN*%
G70*
G01*
G75*
%ADD48C,0.010*%
%ADD49C,0.020*%
%ADD50C,0.008*%
%ADD51C,0.040*%
%ADD53C,0.040*%
%ADD54C,0.094*%
%ADD55C,0.060*%
%ADD56R,0.060X0.060*%
%ADD57C,0.063*%
%ADD58R,0.063X0.063*%
%ADD59R,0.063X0.063*%
%ADD60C,0.120*%
%ADD61O,0.070X0.060*%
%ADD62R,0.060X0.060*%
%ADD63C,0.060*%
%ADD64C,0.054*%
%ADD65R,0.054X0.054*%
%ADD66C,0.050*%
%ADD67C,0.106*%
%ADD68R,0.056X0.056*%
%ADD69C,0.110*%
%ADD70C,0.157*%
%ADD71C,0.030*%
G36*
X9311Y5197D02*
X9390D01*
Y4705D01*
X8780D01*
Y2697D01*
X8133D01*
X8130Y2702D01*
X8134Y2707D01*
X8136Y2717D01*
X8134Y2726D01*
X8128Y2735D01*
X8120Y2740D01*
X8110Y2742D01*
X8100Y2740D01*
X8092Y2735D01*
X8087Y2726D01*
X8085Y2717D01*
X8087Y2707D01*
X8090Y2702D01*
X8087Y2697D01*
X7697D01*
Y3031D01*
X7795D01*
Y4660D01*
X7805Y4661D01*
X7813Y4667D01*
X7819Y4675D01*
X7821Y4685D01*
X7819Y4695D01*
X7813Y4703D01*
X7805Y4709D01*
X7795Y4711D01*
Y4955D01*
X7805Y4957D01*
X7813Y4962D01*
X7819Y4971D01*
X7821Y4980D01*
X7819Y4990D01*
X7813Y4998D01*
X7805Y5004D01*
X7795Y5006D01*
Y5157D01*
X8419D01*
X8421Y5148D01*
X8427Y5139D01*
X8431Y5137D01*
Y4937D01*
X8390Y4896D01*
X8052D01*
X8050Y4900D01*
X8041Y4905D01*
X8031Y4907D01*
X8022Y4905D01*
X8013Y4900D01*
X8011Y4896D01*
X7875D01*
X7872Y4900D01*
X7864Y4905D01*
X7854Y4907D01*
X7845Y4905D01*
X7836Y4900D01*
X7831Y4892D01*
X7829Y4882D01*
X7831Y4872D01*
X7836Y4864D01*
X7845Y4858D01*
X7854Y4856D01*
X7864Y4858D01*
X7872Y4864D01*
X7875Y4868D01*
X8011D01*
X8013Y4864D01*
X8022Y4858D01*
X8031Y4856D01*
X8041Y4858D01*
X8050Y4864D01*
X8052Y4868D01*
X8396D01*
X8396Y4868D01*
X8401Y4869D01*
X8406Y4872D01*
X8455Y4921D01*
X8455Y4921D01*
X8458Y4926D01*
X8459Y4931D01*
X8459Y4931D01*
Y5137D01*
X8463Y5139D01*
X8468Y5148D01*
X8470Y5157D01*
X8681D01*
Y5394D01*
X9311D01*
Y5197D01*
D02*
G37*
%LPC*%
G36*
X8309Y3900D02*
X8226D01*
Y3817D01*
X8309D01*
Y3900D01*
D02*
G37*
G36*
X8386Y3900D02*
X8375Y3899D01*
X8365Y3895D01*
X8356Y3888D01*
X8350Y3879D01*
X8345Y3869D01*
X8344Y3858D01*
X8345Y3847D01*
X8350Y3837D01*
X8356Y3829D01*
X8365Y3822D01*
X8375Y3818D01*
X8386Y3816D01*
X8397Y3818D01*
X8407Y3822D01*
X8415Y3829D01*
X8422Y3837D01*
X8426Y3847D01*
X8428Y3858D01*
X8426Y3869D01*
X8422Y3879D01*
X8415Y3888D01*
X8407Y3895D01*
X8397Y3899D01*
X8386Y3900D01*
D02*
G37*
G36*
X8051Y3529D02*
X8041Y3527D01*
X8033Y3522D01*
X8028Y3514D01*
X8026Y3504D01*
X8028Y3494D01*
X8033Y3486D01*
X8041Y3480D01*
X8051Y3478D01*
X8061Y3480D01*
X8069Y3486D01*
X8075Y3494D01*
X8077Y3504D01*
X8075Y3514D01*
X8069Y3522D01*
X8061Y3527D01*
X8051Y3529D01*
D02*
G37*
G36*
X8661Y4026D02*
X8654Y4025D01*
X8646Y4022D01*
X8640Y4017D01*
X8635Y4011D01*
X8632Y4004D01*
X8631Y3996D01*
X8632Y3988D01*
X8635Y3981D01*
X8640Y3975D01*
X8646Y3970D01*
X8654Y3967D01*
X8661Y3966D01*
X8669Y3967D01*
X8677Y3970D01*
X8683Y3975D01*
X8688Y3981D01*
X8691Y3988D01*
X8692Y3996D01*
X8691Y4004D01*
X8688Y4011D01*
X8683Y4017D01*
X8677Y4022D01*
X8669Y4025D01*
X8661Y4026D01*
D02*
G37*
G36*
X8268Y4000D02*
X8257Y3999D01*
X8247Y3995D01*
X8238Y3988D01*
X8231Y3979D01*
X8227Y3969D01*
X8226Y3958D01*
X8227Y3947D01*
X8231Y3937D01*
X8238Y3929D01*
X8247Y3922D01*
X8257Y3918D01*
X8268Y3916D01*
X8279Y3918D01*
X8289Y3922D01*
X8297Y3929D01*
X8304Y3937D01*
X8308Y3947D01*
X8310Y3958D01*
X8308Y3969D01*
X8304Y3979D01*
X8297Y3988D01*
X8289Y3995D01*
X8279Y3999D01*
X8268Y4000D01*
D02*
G37*
G36*
X8527Y3900D02*
X8444D01*
Y3817D01*
X8527D01*
Y3900D01*
D02*
G37*
G36*
X7933Y3077D02*
X7923Y3075D01*
X7915Y3069D01*
X7910Y3061D01*
X7908Y3051D01*
X7910Y3041D01*
X7915Y3033D01*
X7923Y3028D01*
X7933Y3026D01*
X7943Y3028D01*
X7951Y3033D01*
X7957Y3041D01*
X7959Y3051D01*
X7957Y3061D01*
X7951Y3069D01*
X7943Y3075D01*
X7933Y3077D01*
D02*
G37*
G36*
X7756Y2998D02*
X7746Y2996D01*
X7738Y2991D01*
X7732Y2982D01*
X7731Y2973D01*
X7732Y2963D01*
X7738Y2955D01*
X7746Y2949D01*
X7756Y2947D01*
X7766Y2949D01*
X7774Y2955D01*
X7780Y2963D01*
X7781Y2973D01*
X7780Y2982D01*
X7774Y2991D01*
X7766Y2996D01*
X7756Y2998D01*
D02*
G37*
G36*
X8465Y2840D02*
X8455Y2839D01*
X8447Y2833D01*
X8441Y2825D01*
X8439Y2815D01*
X8441Y2805D01*
X8447Y2797D01*
X8455Y2791D01*
X8465Y2789D01*
X8474Y2791D01*
X8483Y2797D01*
X8488Y2805D01*
X8490Y2815D01*
X8488Y2825D01*
X8483Y2833D01*
X8474Y2839D01*
X8465Y2840D01*
D02*
G37*
G36*
X8415Y3372D02*
X8406Y3370D01*
X8397Y3364D01*
X8392Y3356D01*
X8390Y3346D01*
X8392Y3337D01*
X8397Y3328D01*
X8406Y3323D01*
X8415Y3321D01*
X8425Y3323D01*
X8433Y3328D01*
X8439Y3337D01*
X8441Y3346D01*
X8439Y3356D01*
X8433Y3364D01*
X8425Y3370D01*
X8415Y3372D01*
D02*
G37*
G36*
X8012Y3333D02*
X8002Y3331D01*
X7994Y3325D01*
X7988Y3317D01*
X7986Y3307D01*
X7988Y3297D01*
X7994Y3289D01*
X8002Y3284D01*
X8012Y3282D01*
X8022Y3284D01*
X8030Y3289D01*
X8035Y3297D01*
X8037Y3307D01*
X8035Y3317D01*
X8030Y3325D01*
X8022Y3331D01*
X8012Y3333D01*
D02*
G37*
G36*
X8465Y3136D02*
X8455Y3134D01*
X8447Y3128D01*
X8441Y3120D01*
X8439Y3110D01*
X8441Y3100D01*
X8447Y3092D01*
X8455Y3087D01*
X8465Y3085D01*
X8474Y3087D01*
X8483Y3092D01*
X8488Y3100D01*
X8490Y3110D01*
X8488Y3120D01*
X8483Y3128D01*
X8474Y3134D01*
X8465Y3136D01*
D02*
G37*
G36*
X8219Y4130D02*
X8209Y4128D01*
X8200Y4122D01*
X8195Y4114D01*
X8193Y4104D01*
X8195Y4095D01*
X8200Y4086D01*
X8209Y4081D01*
X8219Y4079D01*
X8228Y4081D01*
X8237Y4086D01*
X8242Y4095D01*
X8244Y4104D01*
X8242Y4114D01*
X8237Y4122D01*
X8228Y4128D01*
X8219Y4130D01*
D02*
G37*
G36*
X8051Y4789D02*
X8041Y4787D01*
X8033Y4782D01*
X8028Y4774D01*
X8026Y4764D01*
X8028Y4754D01*
X8033Y4746D01*
X8041Y4740D01*
X8051Y4738D01*
X8061Y4740D01*
X8069Y4746D01*
X8075Y4754D01*
X8077Y4764D01*
X8075Y4774D01*
X8069Y4782D01*
X8061Y4787D01*
X8051Y4789D01*
D02*
G37*
G36*
X8219Y4622D02*
X8209Y4620D01*
X8200Y4614D01*
X8195Y4606D01*
X8193Y4596D01*
X8195Y4587D01*
X8200Y4578D01*
X8209Y4573D01*
X8219Y4571D01*
X8228Y4573D01*
X8237Y4578D01*
X8242Y4587D01*
X8244Y4596D01*
X8242Y4606D01*
X8237Y4614D01*
X8228Y4620D01*
X8219Y4622D01*
D02*
G37*
G36*
X8337Y4563D02*
X8327Y4561D01*
X8319Y4555D01*
X8313Y4547D01*
X8311Y4537D01*
X8313Y4528D01*
X8319Y4519D01*
X8327Y4514D01*
X8337Y4512D01*
X8346Y4514D01*
X8355Y4519D01*
X8360Y4528D01*
X8362Y4537D01*
X8360Y4547D01*
X8355Y4555D01*
X8346Y4561D01*
X8337Y4563D01*
D02*
G37*
G36*
X8593Y5085D02*
X8583Y5083D01*
X8574Y5077D01*
X8569Y5069D01*
X8567Y5059D01*
X8569Y5049D01*
X8574Y5041D01*
X8583Y5036D01*
X8593Y5034D01*
X8602Y5036D01*
X8611Y5041D01*
X8616Y5049D01*
X8618Y5059D01*
X8616Y5069D01*
X8611Y5077D01*
X8602Y5083D01*
X8593Y5085D01*
D02*
G37*
G36*
X8760Y4927D02*
X8750Y4925D01*
X8742Y4920D01*
X8737Y4912D01*
X8735Y4902D01*
X8737Y4892D01*
X8742Y4884D01*
X8750Y4878D01*
X8760Y4876D01*
X8770Y4878D01*
X8778Y4884D01*
X8784Y4892D01*
X8786Y4902D01*
X8784Y4912D01*
X8778Y4920D01*
X8770Y4925D01*
X8760Y4927D01*
D02*
G37*
G36*
X8583Y4789D02*
X8573Y4787D01*
X8565Y4782D01*
X8559Y4774D01*
X8557Y4764D01*
X8559Y4754D01*
X8565Y4746D01*
X8573Y4740D01*
X8583Y4738D01*
X8592Y4740D01*
X8601Y4746D01*
X8606Y4754D01*
X8608Y4764D01*
X8606Y4774D01*
X8601Y4782D01*
X8592Y4787D01*
X8583Y4789D01*
D02*
G37*
G36*
X8219Y4327D02*
X8209Y4325D01*
X8200Y4319D01*
X8195Y4311D01*
X8193Y4301D01*
X8195Y4291D01*
X8200Y4283D01*
X8209Y4278D01*
X8219Y4276D01*
X8228Y4278D01*
X8237Y4283D01*
X8242Y4291D01*
X8244Y4301D01*
X8242Y4311D01*
X8237Y4319D01*
X8228Y4325D01*
X8219Y4327D01*
D02*
G37*
G36*
Y4228D02*
X8209Y4226D01*
X8200Y4221D01*
X8195Y4213D01*
X8193Y4203D01*
X8195Y4193D01*
X8200Y4185D01*
X8209Y4179D01*
X8219Y4177D01*
X8228Y4179D01*
X8237Y4185D01*
X8242Y4193D01*
X8244Y4203D01*
X8242Y4213D01*
X8237Y4221D01*
X8228Y4226D01*
X8219Y4228D01*
D02*
G37*
G36*
X8337Y4218D02*
X8327Y4216D01*
X8319Y4211D01*
X8313Y4203D01*
X8311Y4193D01*
X8313Y4183D01*
X8319Y4175D01*
X8327Y4169D01*
X8337Y4167D01*
X8346Y4169D01*
X8355Y4175D01*
X8360Y4183D01*
X8362Y4193D01*
X8360Y4203D01*
X8355Y4211D01*
X8346Y4216D01*
X8337Y4218D01*
D02*
G37*
G36*
X8219Y4524D02*
X8209Y4522D01*
X8200Y4516D01*
X8195Y4508D01*
X8193Y4498D01*
X8195Y4488D01*
X8200Y4480D01*
X8209Y4474D01*
X8219Y4473D01*
X8228Y4474D01*
X8237Y4480D01*
X8242Y4488D01*
X8244Y4498D01*
X8242Y4508D01*
X8237Y4516D01*
X8228Y4522D01*
X8219Y4524D01*
D02*
G37*
G36*
X8100Y4474D02*
X8091Y4472D01*
X8082Y4467D01*
X8077Y4459D01*
X8075Y4449D01*
X8077Y4439D01*
X8082Y4431D01*
X8091Y4425D01*
X8100Y4423D01*
X8110Y4425D01*
X8118Y4431D01*
X8124Y4439D01*
X8126Y4449D01*
X8124Y4459D01*
X8118Y4467D01*
X8110Y4472D01*
X8100Y4474D01*
D02*
G37*
G36*
X8219Y4425D02*
X8209Y4423D01*
X8200Y4418D01*
X8195Y4409D01*
X8193Y4400D01*
X8195Y4390D01*
X8200Y4382D01*
X8209Y4376D01*
X8219Y4374D01*
X8228Y4376D01*
X8237Y4382D01*
X8242Y4390D01*
X8244Y4400D01*
X8242Y4409D01*
X8237Y4418D01*
X8228Y4423D01*
X8219Y4425D01*
D02*
G37*
%LPD*%
D48*
X6890Y2077D02*
X7618D01*
X6378Y5039D02*
X6447Y4970D01*
X7480D01*
X7480Y4970D01*
X4312Y5198D02*
Y5254D01*
Y5198D02*
X4395Y5115D01*
X4212Y5254D02*
X4213Y5253D01*
Y5197D02*
Y5253D01*
Y5197D02*
X4378Y5031D01*
X4395Y4333D02*
Y5115D01*
X4412Y4326D02*
Y5254D01*
X4378Y4341D02*
Y5031D01*
X4112Y5199D02*
Y5254D01*
Y5199D02*
X4361Y4950D01*
Y4348D02*
Y4950D01*
X3824Y3811D02*
X4361Y4348D01*
X3846Y3760D02*
X4412Y4326D01*
X2554Y3917D02*
X2712Y3760D01*
X3839Y3777D02*
X4395Y4333D01*
X2654Y3917D02*
X2795Y3777D01*
X2754Y3917D02*
X2878Y3794D01*
X3832D02*
X4378Y4341D01*
X2712Y3760D02*
X3846D01*
X2795Y3777D02*
X3839D01*
X2878Y3794D02*
X3832D01*
X4075Y5316D02*
X4112Y5354D01*
X4075Y5315D02*
Y5316D01*
X4055Y5295D02*
X4075Y5315D01*
X4055Y5197D02*
Y5295D01*
Y5197D02*
X4344Y4908D01*
Y4355D02*
Y4908D01*
X3817Y3828D02*
X4344Y4355D01*
X2961Y3811D02*
X3824D01*
X2854Y3917D02*
X2961Y3811D01*
X3044Y3828D02*
X3817D01*
X2954Y3917D02*
X3044Y3828D01*
X5768Y2579D02*
X6053D01*
Y2687D02*
X6299D01*
X8543Y2195D02*
X8740D01*
X8780Y2156D01*
Y2047D02*
Y2156D01*
X7067Y3917D02*
Y4498D01*
X7008Y4557D02*
X7067Y4498D01*
X6624Y4557D02*
X7008D01*
X1683Y4134D02*
X2825D01*
Y5394D01*
X1683D02*
X2825D01*
X1683Y4134D02*
Y5394D01*
X1378Y1575D02*
X9646D01*
Y5512D01*
X1378D02*
X9646D01*
X1378Y1575D02*
Y5512D01*
D49*
X8878Y1772D02*
Y2559D01*
X10266Y2780D02*
Y2680D01*
X10316D01*
X10333Y2696D01*
Y2713D01*
X10316Y2730D01*
X10266D01*
X10316D01*
X10333Y2746D01*
Y2763D01*
X10316Y2780D01*
X10266D01*
X10416D02*
X10383D01*
X10366Y2763D01*
Y2696D01*
X10383Y2680D01*
X10416D01*
X10433Y2696D01*
Y2763D01*
X10416Y2780D01*
X10466D02*
X10533D01*
X10499D01*
Y2680D01*
X10566Y2780D02*
X10633D01*
X10599D01*
Y2680D01*
X10716Y2780D02*
X10683D01*
X10666Y2763D01*
Y2696D01*
X10683Y2680D01*
X10716D01*
X10733Y2696D01*
Y2763D01*
X10716Y2780D01*
X10766Y2680D02*
Y2780D01*
X10799Y2746D01*
X10833Y2780D01*
Y2680D01*
X10256Y1675D02*
Y1575D01*
X10306D01*
X10323Y1591D01*
Y1608D01*
X10306Y1625D01*
X10256D01*
X10306D01*
X10323Y1641D01*
Y1658D01*
X10306Y1675D01*
X10256D01*
X10406D02*
X10373D01*
X10356Y1658D01*
Y1591D01*
X10373Y1575D01*
X10406D01*
X10423Y1591D01*
Y1658D01*
X10406Y1675D01*
X10456Y1575D02*
Y1641D01*
X10489Y1675D01*
X10523Y1641D01*
Y1575D01*
Y1625D01*
X10456D01*
X10556Y1575D02*
Y1675D01*
X10606D01*
X10623Y1658D01*
Y1625D01*
X10606Y1608D01*
X10556D01*
X10589D02*
X10623Y1575D01*
X10656Y1675D02*
Y1575D01*
X10706D01*
X10723Y1591D01*
Y1658D01*
X10706Y1675D01*
X10656D01*
X10906D02*
X10873D01*
X10856Y1658D01*
Y1591D01*
X10873Y1575D01*
X10906D01*
X10923Y1591D01*
Y1658D01*
X10906Y1675D01*
X10956D02*
Y1591D01*
X10973Y1575D01*
X11006D01*
X11023Y1591D01*
Y1675D01*
X11056D02*
X11123D01*
X11089D01*
Y1575D01*
X11156Y1675D02*
Y1575D01*
X11223D01*
X11256Y1675D02*
X11289D01*
X11273D01*
Y1575D01*
X11256D01*
X11289D01*
X11339D02*
Y1675D01*
X11406Y1575D01*
Y1675D01*
X11506D02*
X11439D01*
Y1575D01*
X11506D01*
X11439Y1625D02*
X11472D01*
D50*
X8445Y4931D02*
Y5157D01*
X8396Y4882D02*
X8445Y4931D01*
X8031Y4882D02*
X8396D01*
X7854Y4882D02*
X7854Y4882D01*
X8031D01*
X4744Y3740D02*
X4921D01*
X4646Y3642D02*
X4744Y3740D01*
D51*
X7756Y5394D02*
X8612D01*
X7717Y5433D02*
X7756Y5394D01*
X7402Y5433D02*
X7717D01*
X3829D02*
X7402D01*
X3780Y5384D02*
X3829Y5433D01*
X3780Y5266D02*
Y5384D01*
D53*
X4528Y5305D02*
D03*
X9213Y5335D02*
D03*
X6496Y3780D02*
D03*
X6506Y5256D02*
D03*
Y5354D02*
D03*
X4114Y4478D02*
D03*
X5384Y3789D02*
D03*
Y3691D02*
D03*
Y3593D02*
D03*
D54*
X7638Y4870D02*
D03*
Y5327D02*
D03*
D55*
Y4980D02*
D03*
Y5098D02*
D03*
D56*
Y5217D02*
D03*
D57*
X8268Y3958D02*
D03*
X8386Y3858D02*
D03*
X7598Y3878D02*
D03*
X8051Y2559D02*
D03*
X3565Y5256D02*
D03*
X4606Y4923D02*
D03*
Y4823D02*
D03*
D58*
X8268Y3858D02*
D03*
X4606Y5023D02*
D03*
D59*
X8486Y3858D02*
D03*
X7498Y3878D02*
D03*
X7951Y2559D02*
D03*
X3465Y5256D02*
D03*
D60*
X7913Y2165D02*
D03*
Y1732D02*
D03*
X1529Y3892D02*
D03*
Y2334D02*
D03*
X4171Y3892D02*
D03*
Y2334D02*
D03*
D61*
X8346Y2146D02*
D03*
Y2067D02*
D03*
Y1988D02*
D03*
Y1909D02*
D03*
Y1831D02*
D03*
Y1752D02*
D03*
D62*
X7047Y2413D02*
D03*
X3154Y3917D02*
D03*
D63*
X7047Y2513D02*
D03*
Y2913D02*
D03*
Y3013D02*
D03*
X6747D02*
D03*
Y2913D02*
D03*
Y2513D02*
D03*
Y2413D02*
D03*
X2554Y3917D02*
D03*
X2654D02*
D03*
X2754D02*
D03*
X2854D02*
D03*
X2954D02*
D03*
X3054D02*
D03*
D64*
X6612Y5254D02*
D03*
Y5354D02*
D03*
X6712Y5254D02*
D03*
Y5354D02*
D03*
X6812Y5254D02*
D03*
Y5354D02*
D03*
X6912Y5254D02*
D03*
Y5354D02*
D03*
X7012Y5254D02*
D03*
Y5354D02*
D03*
X7112D02*
D03*
X5712Y5254D02*
D03*
Y5354D02*
D03*
X5812Y5254D02*
D03*
Y5354D02*
D03*
X5912Y5254D02*
D03*
Y5354D02*
D03*
X6012Y5254D02*
D03*
Y5354D02*
D03*
X6112Y5254D02*
D03*
Y5354D02*
D03*
X6212D02*
D03*
X4812Y5254D02*
D03*
Y5354D02*
D03*
X4912Y5254D02*
D03*
Y5354D02*
D03*
X5012Y5254D02*
D03*
Y5354D02*
D03*
X5112Y5254D02*
D03*
Y5354D02*
D03*
X5212Y5254D02*
D03*
Y5354D02*
D03*
X5312D02*
D03*
X3912Y5254D02*
D03*
Y5354D02*
D03*
X4012Y5254D02*
D03*
Y5354D02*
D03*
X4112Y5254D02*
D03*
Y5354D02*
D03*
X4212Y5254D02*
D03*
Y5354D02*
D03*
X4312Y5254D02*
D03*
Y5354D02*
D03*
X4412D02*
D03*
D65*
X7112Y5254D02*
D03*
X6212D02*
D03*
X5312D02*
D03*
X4412D02*
D03*
D66*
X3465Y4518D02*
D03*
X3365Y4718D02*
D03*
X3565D02*
D03*
D67*
X6843Y1772D02*
D03*
X6543D02*
D03*
D68*
X6693Y2079D02*
D03*
D69*
X9214Y5123D02*
D03*
X9314Y4823D02*
D03*
X9114D02*
D03*
X9314Y3048D02*
D03*
X9114D02*
D03*
X9214Y2748D02*
D03*
D70*
X9508Y5374D02*
D03*
Y1713D02*
D03*
X1516D02*
D03*
Y5374D02*
D03*
X2972Y4764D02*
D03*
X1535D02*
D03*
D71*
X8563Y1713D02*
D03*
X6742Y4134D02*
D03*
X6486D02*
D03*
X6624Y4556D02*
D03*
X6752Y2185D02*
D03*
X5532Y2520D02*
D03*
X5827Y2520D02*
D03*
X5728Y2520D02*
D03*
X5413Y4724D02*
D03*
X3839Y5000D02*
D03*
X6417Y3504D02*
D03*
Y3602D02*
D03*
X7746Y2864D02*
D03*
X7756Y2973D02*
D03*
X8110Y2717D02*
D03*
X8760Y4902D02*
D03*
X8337Y4193D02*
D03*
Y4537D02*
D03*
X8100Y4449D02*
D03*
X7923Y4360D02*
D03*
X6890Y2077D02*
D03*
X8593Y5059D02*
D03*
X8219Y4596D02*
D03*
Y4498D02*
D03*
Y4400D02*
D03*
Y4301D02*
D03*
Y4203D02*
D03*
X7933Y3051D02*
D03*
X8415Y3346D02*
D03*
X8012Y3307D02*
D03*
X8583Y4764D02*
D03*
X8465Y3110D02*
D03*
X8051Y3504D02*
D03*
X8465Y2815D02*
D03*
X8051Y4764D02*
D03*
X8445Y5157D02*
D03*
X7854Y4882D02*
D03*
X8031Y4882D02*
D03*
X7795Y4980D02*
D03*
Y4685D02*
D03*
X8612Y5394D02*
D03*
X7402Y5433D02*
D03*
X3780Y5266D02*
D03*
X5541Y1634D02*
D03*
X6201Y1673D02*
D03*
X6299Y2067D02*
D03*
X5974Y2165D02*
D03*
X5679D02*
D03*
X5689Y3583D02*
D03*
X7717Y3858D02*
D03*
X6979Y3878D02*
D03*
X6900D02*
D03*
X6693Y3583D02*
D03*
X7106Y3445D02*
D03*
X7244Y3012D02*
D03*
X7264Y2205D02*
D03*
X7382Y1870D02*
D03*
X7677Y1909D02*
D03*
X9016Y1850D02*
D03*
X8937Y2205D02*
D03*
X6565Y5000D02*
D03*
X6713Y4843D02*
D03*
X6565Y4665D02*
D03*
X6329Y4813D02*
D03*
X5787Y3907D02*
D03*
X4872Y4045D02*
D03*
X5197Y3819D02*
D03*
X4921Y3199D02*
D03*
X4744Y3533D02*
D03*
X4793Y4291D02*
D03*
X4262Y4321D02*
D03*
X3720Y4380D02*
D03*
X3996Y4774D02*
D03*
X3642Y5049D02*
D03*
X3130Y5030D02*
D03*
X1762Y1713D02*
D03*
X6634Y4843D02*
D03*
X6201Y1811D02*
D03*
X6122Y2520D02*
D03*
X5945D02*
D03*
X5876Y2333D02*
D03*
X5177Y4724D02*
D03*
X4695Y3504D02*
D03*
X5276Y3819D02*
D03*
X1732Y2047D02*
D03*
X2618D02*
D03*
X3543D02*
D03*
X4419Y2884D02*
D03*
Y3898D02*
D03*
X4055Y4636D02*
D03*
X4646Y3642D02*
D03*
X4921Y3740D02*
D03*
X5768Y2579D02*
D03*
X6053D02*
D03*
X6299Y2687D02*
D03*
X6053D02*
D03*
X7618Y2077D02*
D03*
X8543Y2195D02*
D03*
X8780Y2047D02*
D03*
X7067Y3917D02*
D03*
X8878Y2559D02*
D03*
Y1772D02*
D03*
X7480Y4970D02*
D03*
X6378Y5039D02*
D03*
X7923Y4272D02*
D03*
Y4508D02*
D03*
X7992Y4567D02*
D03*
X8002Y4449D02*
D03*
X8022Y5030D02*
D03*
Y5079D02*
D03*
Y5128D02*
D03*
X8317Y3346D02*
D03*
X8612Y3228D02*
D03*
X8701D02*
D03*
X7815Y5039D02*
D03*
X8219Y4104D02*
D03*
M02*
