G04*
G04 #@! TF.GenerationSoftware,Altium Limited,CircuitStudio,1.5.1 (1.5.1.13)*
G04*
G04 Layer_Color=20142*
%FSLAX23Y23*%
%MOIN*%
G70*
G01*
G75*
%ADD47R,0.059X0.075*%
%ADD48C,0.010*%
%ADD49C,0.020*%
%ADD77R,0.058X0.055*%
%ADD78R,0.144X0.081*%
%ADD79R,0.055X0.058*%
%ADD80R,0.081X0.144*%
%ADD81R,0.018X0.142*%
G04:AMPARAMS|DCode=82|XSize=18mil|YSize=142mil|CornerRadius=6mil|HoleSize=0mil|Usage=FLASHONLY|Rotation=0.000|XOffset=0mil|YOffset=0mil|HoleType=Round|Shape=RoundedRectangle|*
%AMROUNDEDRECTD82*
21,1,0.018,0.130,0,0,0.0*
21,1,0.006,0.142,0,0,0.0*
1,1,0.012,0.003,-0.065*
1,1,0.012,-0.003,-0.065*
1,1,0.012,-0.003,0.065*
1,1,0.012,0.003,0.065*
%
%ADD82ROUNDEDRECTD82*%
%ADD83R,0.058X0.115*%
%ADD84R,0.043X0.045*%
%ADD85R,0.043X0.045*%
%ADD86R,0.055X0.158*%
%ADD87R,0.039X0.071*%
%ADD88R,0.146X0.093*%
%ADD89R,0.051X0.093*%
%ADD90R,0.051X0.093*%
%ADD91R,0.047X0.126*%
%ADD92R,0.091X0.131*%
G04:AMPARAMS|DCode=93|XSize=70mil|YSize=24mil|CornerRadius=6mil|HoleSize=0mil|Usage=FLASHONLY|Rotation=0.000|XOffset=0mil|YOffset=0mil|HoleType=Round|Shape=RoundedRectangle|*
%AMROUNDEDRECTD93*
21,1,0.070,0.012,0,0,0.0*
21,1,0.058,0.024,0,0,0.0*
1,1,0.012,0.029,-0.006*
1,1,0.012,-0.029,-0.006*
1,1,0.012,-0.029,0.006*
1,1,0.012,0.029,0.006*
%
%ADD93ROUNDEDRECTD93*%
%ADD94R,0.045X0.043*%
%ADD95R,0.045X0.043*%
%ADD96R,0.115X0.058*%
%ADD97R,0.083X0.030*%
%ADD98R,0.071X0.039*%
G04:AMPARAMS|DCode=99|XSize=65mil|YSize=31mil|CornerRadius=7mil|HoleSize=0mil|Usage=FLASHONLY|Rotation=0.000|XOffset=0mil|YOffset=0mil|HoleType=Round|Shape=RoundedRectangle|*
%AMROUNDEDRECTD99*
21,1,0.065,0.017,0,0,0.0*
21,1,0.051,0.031,0,0,0.0*
1,1,0.014,0.026,-0.009*
1,1,0.014,-0.026,-0.009*
1,1,0.014,-0.026,0.009*
1,1,0.014,0.026,0.009*
%
%ADD99ROUNDEDRECTD99*%
G04:AMPARAMS|DCode=100|XSize=66mil|YSize=27mil|CornerRadius=6mil|HoleSize=0mil|Usage=FLASHONLY|Rotation=0.000|XOffset=0mil|YOffset=0mil|HoleType=Round|Shape=RoundedRectangle|*
%AMROUNDEDRECTD100*
21,1,0.066,0.014,0,0,0.0*
21,1,0.053,0.027,0,0,0.0*
1,1,0.013,0.027,-0.007*
1,1,0.013,-0.027,-0.007*
1,1,0.013,-0.027,0.007*
1,1,0.013,0.027,0.007*
%
%ADD100ROUNDEDRECTD100*%
G04:AMPARAMS|DCode=101|XSize=86mil|YSize=32mil|CornerRadius=7mil|HoleSize=0mil|Usage=FLASHONLY|Rotation=0.000|XOffset=0mil|YOffset=0mil|HoleType=Round|Shape=RoundedRectangle|*
%AMROUNDEDRECTD101*
21,1,0.086,0.018,0,0,0.0*
21,1,0.072,0.032,0,0,0.0*
1,1,0.014,0.036,-0.009*
1,1,0.014,-0.036,-0.009*
1,1,0.014,-0.036,0.009*
1,1,0.014,0.036,0.009*
%
%ADD101ROUNDEDRECTD101*%
G04:AMPARAMS|DCode=102|XSize=83mil|YSize=32mil|CornerRadius=7mil|HoleSize=0mil|Usage=FLASHONLY|Rotation=0.000|XOffset=0mil|YOffset=0mil|HoleType=Round|Shape=RoundedRectangle|*
%AMROUNDEDRECTD102*
21,1,0.083,0.018,0,0,0.0*
21,1,0.069,0.032,0,0,0.0*
1,1,0.014,0.035,-0.009*
1,1,0.014,-0.035,-0.009*
1,1,0.014,-0.035,0.009*
1,1,0.014,0.035,0.009*
%
%ADD102ROUNDEDRECTD102*%
%ADD103R,0.047X0.134*%
%ADD104R,0.134X0.047*%
%ADD105R,0.036X0.055*%
%ADD106R,0.055X0.039*%
%ADD107R,0.055X0.055*%
%ADD108R,0.055X0.134*%
%ADD109R,0.036X0.063*%
%ADD110R,0.047X0.063*%
%ADD111C,0.048*%
%ADD112C,0.102*%
%ADD113C,0.068*%
%ADD114R,0.068X0.068*%
%ADD115C,0.071*%
%ADD116R,0.071X0.071*%
%ADD117R,0.071X0.071*%
%ADD118C,0.128*%
%ADD119O,0.078X0.068*%
%ADD120R,0.068X0.068*%
%ADD121C,0.068*%
%ADD122C,0.062*%
%ADD123R,0.062X0.062*%
%ADD124C,0.058*%
%ADD125C,0.114*%
%ADD126R,0.064X0.064*%
%ADD127C,0.118*%
%ADD128C,0.165*%
%ADD129C,0.038*%
G36*
X8085Y4801D02*
X8085D01*
X8086Y4801D01*
X8086Y4801D01*
X8086Y4801D01*
X8086Y4801D01*
X8087Y4801D01*
X8087Y4800D01*
X8087Y4800D01*
X8087Y4800D01*
X8087Y4800D01*
X8088Y4800D01*
X8088Y4800D01*
X8088Y4800D01*
X8088Y4799D01*
X8088Y4799D01*
X8088Y4799D01*
X8089Y4799D01*
X8089Y4799D01*
X8089Y4798D01*
X8089Y4798D01*
X8089Y4798D01*
X8089Y4798D01*
X8089Y4797D01*
X8089Y4797D01*
X8089Y4797D01*
Y4797D01*
X8089Y4796D01*
Y4796D01*
Y4790D01*
Y4790D01*
X8089Y4790D01*
Y4790D01*
X8089Y4789D01*
X8089Y4789D01*
X8089Y4789D01*
X8089Y4789D01*
X8089Y4788D01*
X8089Y4788D01*
X8089Y4788D01*
X8089Y4788D01*
X8088Y4788D01*
X8088Y4787D01*
X8088Y4787D01*
X8088Y4787D01*
X8088Y4787D01*
X8088Y4787D01*
X8087Y4787D01*
X8087Y4786D01*
X8087Y4786D01*
X8087Y4786D01*
X8087Y4786D01*
X8086Y4786D01*
X8086Y4786D01*
X8086Y4786D01*
X8086Y4786D01*
X8085Y4786D01*
X8085D01*
X8085Y4786D01*
X8065D01*
X8064Y4786D01*
X8064D01*
X8064Y4786D01*
X8064Y4786D01*
X8064Y4786D01*
X8063Y4786D01*
X8063Y4786D01*
X8063Y4786D01*
X8063Y4786D01*
X8062Y4786D01*
X8062Y4787D01*
X8062Y4787D01*
X8062Y4787D01*
X8062Y4787D01*
X8061Y4787D01*
X8061Y4787D01*
X8061Y4788D01*
X8061Y4788D01*
X8061Y4788D01*
X8061Y4788D01*
X8061Y4788D01*
X8061Y4789D01*
X8060Y4789D01*
X8060Y4789D01*
X8060Y4789D01*
X8060Y4790D01*
Y4790D01*
X8060Y4790D01*
Y4790D01*
Y4796D01*
Y4796D01*
X8060Y4797D01*
Y4797D01*
X8060Y4797D01*
X8060Y4797D01*
X8060Y4798D01*
X8061Y4798D01*
X8061Y4798D01*
X8061Y4798D01*
X8061Y4799D01*
X8061Y4799D01*
X8061Y4799D01*
X8061Y4799D01*
X8061Y4799D01*
X8062Y4800D01*
X8062Y4800D01*
X8062Y4800D01*
X8062Y4800D01*
X8062Y4800D01*
X8063Y4800D01*
X8063Y4800D01*
X8063Y4801D01*
X8063Y4801D01*
X8064Y4801D01*
X8064Y4801D01*
X8064Y4801D01*
X8064Y4801D01*
X8064D01*
X8065Y4801D01*
X8085D01*
X8085Y4801D01*
D02*
G37*
G36*
X8253Y4784D02*
X8253D01*
X8254Y4784D01*
X8254Y4784D01*
X8254Y4784D01*
X8254Y4784D01*
X8254Y4784D01*
X8255Y4784D01*
X8255Y4784D01*
X8255Y4784D01*
X8255Y4783D01*
X8256Y4783D01*
X8256Y4783D01*
X8256Y4783D01*
X8256Y4783D01*
X8256Y4783D01*
X8256Y4782D01*
X8257Y4782D01*
X8257Y4782D01*
X8257Y4782D01*
X8257Y4781D01*
X8257Y4781D01*
X8257Y4781D01*
X8257Y4781D01*
X8257Y4781D01*
X8257Y4780D01*
Y4780D01*
X8257Y4780D01*
Y4780D01*
Y4758D01*
Y4758D01*
X8257Y4757D01*
Y4757D01*
X8257Y4757D01*
X8257Y4757D01*
X8257Y4756D01*
X8257Y4756D01*
X8257Y4756D01*
X8257Y4756D01*
X8257Y4756D01*
X8257Y4755D01*
X8256Y4755D01*
X8256Y4755D01*
X8256Y4755D01*
X8256Y4755D01*
X8256Y4754D01*
X8256Y4754D01*
X8255Y4754D01*
X8255Y4754D01*
X8255Y4754D01*
X8255Y4754D01*
X8254Y4754D01*
X8254Y4753D01*
X8254Y4753D01*
X8254Y4753D01*
X8254Y4753D01*
X8253Y4753D01*
X8253D01*
X8253Y4753D01*
X8246D01*
X8246Y4753D01*
X8246D01*
X8246Y4753D01*
X8245Y4753D01*
X8245Y4753D01*
X8245Y4753D01*
X8245Y4754D01*
X8245Y4754D01*
X8244Y4754D01*
X8244Y4754D01*
X8244Y4754D01*
X8244Y4754D01*
X8244Y4754D01*
X8243Y4755D01*
X8243Y4755D01*
X8243Y4755D01*
X8243Y4755D01*
X8243Y4755D01*
X8243Y4756D01*
X8242Y4756D01*
X8242Y4756D01*
X8242Y4756D01*
X8242Y4756D01*
X8242Y4757D01*
X8242Y4757D01*
X8242Y4757D01*
Y4757D01*
X8242Y4758D01*
Y4758D01*
Y4780D01*
Y4780D01*
X8242Y4780D01*
Y4780D01*
X8242Y4781D01*
X8242Y4781D01*
X8242Y4781D01*
X8242Y4781D01*
X8242Y4781D01*
X8242Y4782D01*
X8243Y4782D01*
X8243Y4782D01*
X8243Y4782D01*
X8243Y4783D01*
X8243Y4783D01*
X8243Y4783D01*
X8244Y4783D01*
X8244Y4783D01*
X8244Y4783D01*
X8244Y4784D01*
X8244Y4784D01*
X8245Y4784D01*
X8245Y4784D01*
X8245Y4784D01*
X8245Y4784D01*
X8245Y4784D01*
X8246Y4784D01*
X8246Y4784D01*
X8246D01*
X8246Y4784D01*
X8253D01*
X8253Y4784D01*
D02*
G37*
G36*
X8085Y4821D02*
X8085D01*
X8086Y4821D01*
X8086Y4821D01*
X8086Y4820D01*
X8086Y4820D01*
X8087Y4820D01*
X8087Y4820D01*
X8087Y4820D01*
X8087Y4820D01*
X8087Y4820D01*
X8088Y4820D01*
X8088Y4819D01*
X8088Y4819D01*
X8088Y4819D01*
X8088Y4819D01*
X8088Y4819D01*
X8089Y4819D01*
X8089Y4818D01*
X8089Y4818D01*
X8089Y4818D01*
X8089Y4818D01*
X8089Y4817D01*
X8089Y4817D01*
X8089Y4817D01*
X8089Y4817D01*
Y4816D01*
X8089Y4816D01*
Y4816D01*
Y4810D01*
Y4810D01*
X8089Y4810D01*
Y4809D01*
X8089Y4809D01*
X8089Y4809D01*
X8089Y4809D01*
X8089Y4808D01*
X8089Y4808D01*
X8089Y4808D01*
X8089Y4808D01*
X8089Y4807D01*
X8088Y4807D01*
X8088Y4807D01*
X8088Y4807D01*
X8088Y4807D01*
X8088Y4807D01*
X8088Y4806D01*
X8087Y4806D01*
X8087Y4806D01*
X8087Y4806D01*
X8087Y4806D01*
X8087Y4806D01*
X8086Y4806D01*
X8086Y4806D01*
X8086Y4805D01*
X8086Y4805D01*
X8085Y4805D01*
X8085D01*
X8085Y4805D01*
X8065D01*
X8064Y4805D01*
X8064D01*
X8064Y4805D01*
X8064Y4805D01*
X8064Y4806D01*
X8063Y4806D01*
X8063Y4806D01*
X8063Y4806D01*
X8063Y4806D01*
X8062Y4806D01*
X8062Y4806D01*
X8062Y4806D01*
X8062Y4807D01*
X8062Y4807D01*
X8061Y4807D01*
X8061Y4807D01*
X8061Y4807D01*
X8061Y4807D01*
X8061Y4808D01*
X8061Y4808D01*
X8061Y4808D01*
X8061Y4808D01*
X8060Y4809D01*
X8060Y4809D01*
X8060Y4809D01*
X8060Y4809D01*
Y4810D01*
X8060Y4810D01*
Y4810D01*
Y4816D01*
Y4816D01*
X8060Y4816D01*
Y4817D01*
X8060Y4817D01*
X8060Y4817D01*
X8060Y4817D01*
X8061Y4818D01*
X8061Y4818D01*
X8061Y4818D01*
X8061Y4818D01*
X8061Y4819D01*
X8061Y4819D01*
X8061Y4819D01*
X8061Y4819D01*
X8062Y4819D01*
X8062Y4819D01*
X8062Y4820D01*
X8062Y4820D01*
X8062Y4820D01*
X8063Y4820D01*
X8063Y4820D01*
X8063Y4820D01*
X8063Y4820D01*
X8064Y4820D01*
X8064Y4821D01*
X8064Y4821D01*
X8064Y4821D01*
X8064D01*
X8065Y4821D01*
X8085D01*
X8085Y4821D01*
D02*
G37*
G36*
X8274Y4801D02*
X8274D01*
X8275Y4801D01*
X8275Y4801D01*
X8275Y4801D01*
X8275Y4801D01*
X8276Y4801D01*
X8276Y4800D01*
X8276Y4800D01*
X8276Y4800D01*
X8276Y4800D01*
X8277Y4800D01*
X8277Y4800D01*
X8277Y4800D01*
X8277Y4799D01*
X8277Y4799D01*
X8277Y4799D01*
X8278Y4799D01*
X8278Y4799D01*
X8278Y4798D01*
X8278Y4798D01*
X8278Y4798D01*
X8278Y4798D01*
X8278Y4797D01*
X8278Y4797D01*
X8278Y4797D01*
Y4797D01*
X8278Y4796D01*
Y4796D01*
Y4790D01*
Y4790D01*
X8278Y4790D01*
Y4790D01*
X8278Y4789D01*
X8278Y4789D01*
X8278Y4789D01*
X8278Y4789D01*
X8278Y4788D01*
X8278Y4788D01*
X8278Y4788D01*
X8278Y4788D01*
X8277Y4788D01*
X8277Y4787D01*
X8277Y4787D01*
X8277Y4787D01*
X8277Y4787D01*
X8277Y4787D01*
X8276Y4787D01*
X8276Y4786D01*
X8276Y4786D01*
X8276Y4786D01*
X8276Y4786D01*
X8275Y4786D01*
X8275Y4786D01*
X8275Y4786D01*
X8275Y4786D01*
X8274Y4786D01*
X8274D01*
X8274Y4786D01*
X8254D01*
X8253Y4786D01*
X8253D01*
X8253Y4786D01*
X8253Y4786D01*
X8252Y4786D01*
X8252Y4786D01*
X8252Y4786D01*
X8252Y4786D01*
X8252Y4786D01*
X8251Y4786D01*
X8251Y4787D01*
X8251Y4787D01*
X8251Y4787D01*
X8251Y4787D01*
X8250Y4787D01*
X8250Y4787D01*
X8250Y4788D01*
X8250Y4788D01*
X8250Y4788D01*
X8250Y4788D01*
X8250Y4788D01*
X8250Y4789D01*
X8249Y4789D01*
X8249Y4789D01*
X8249Y4789D01*
X8249Y4790D01*
Y4790D01*
X8249Y4790D01*
Y4790D01*
Y4796D01*
Y4796D01*
X8249Y4797D01*
Y4797D01*
X8249Y4797D01*
X8249Y4797D01*
X8249Y4798D01*
X8250Y4798D01*
X8250Y4798D01*
X8250Y4798D01*
X8250Y4799D01*
X8250Y4799D01*
X8250Y4799D01*
X8250Y4799D01*
X8250Y4799D01*
X8251Y4800D01*
X8251Y4800D01*
X8251Y4800D01*
X8251Y4800D01*
X8251Y4800D01*
X8252Y4800D01*
X8252Y4800D01*
X8252Y4801D01*
X8252Y4801D01*
X8252Y4801D01*
X8253Y4801D01*
X8253Y4801D01*
X8253Y4801D01*
X8253D01*
X8254Y4801D01*
X8274D01*
X8274Y4801D01*
D02*
G37*
G36*
X8092Y4784D02*
X8093D01*
X8093Y4784D01*
X8093Y4784D01*
X8093Y4784D01*
X8094Y4784D01*
X8094Y4784D01*
X8094Y4784D01*
X8094Y4784D01*
X8094Y4784D01*
X8095Y4783D01*
X8095Y4783D01*
X8095Y4783D01*
X8095Y4783D01*
X8095Y4783D01*
X8096Y4783D01*
X8096Y4782D01*
X8096Y4782D01*
X8096Y4782D01*
X8096Y4782D01*
X8096Y4781D01*
X8096Y4781D01*
X8096Y4781D01*
X8096Y4781D01*
X8097Y4781D01*
X8097Y4780D01*
Y4780D01*
X8097Y4780D01*
Y4780D01*
Y4758D01*
Y4758D01*
X8097Y4757D01*
Y4757D01*
X8097Y4757D01*
X8096Y4757D01*
X8096Y4756D01*
X8096Y4756D01*
X8096Y4756D01*
X8096Y4756D01*
X8096Y4756D01*
X8096Y4755D01*
X8096Y4755D01*
X8096Y4755D01*
X8095Y4755D01*
X8095Y4755D01*
X8095Y4754D01*
X8095Y4754D01*
X8095Y4754D01*
X8094Y4754D01*
X8094Y4754D01*
X8094Y4754D01*
X8094Y4754D01*
X8094Y4753D01*
X8093Y4753D01*
X8093Y4753D01*
X8093Y4753D01*
X8093Y4753D01*
X8092D01*
X8092Y4753D01*
X8086D01*
X8086Y4753D01*
X8085D01*
X8085Y4753D01*
X8085Y4753D01*
X8085Y4753D01*
X8084Y4753D01*
X8084Y4754D01*
X8084Y4754D01*
X8084Y4754D01*
X8083Y4754D01*
X8083Y4754D01*
X8083Y4754D01*
X8083Y4754D01*
X8083Y4755D01*
X8083Y4755D01*
X8082Y4755D01*
X8082Y4755D01*
X8082Y4755D01*
X8082Y4756D01*
X8082Y4756D01*
X8082Y4756D01*
X8082Y4756D01*
X8082Y4756D01*
X8081Y4757D01*
X8081Y4757D01*
X8081Y4757D01*
Y4757D01*
X8081Y4758D01*
Y4758D01*
Y4780D01*
Y4780D01*
X8081Y4780D01*
Y4780D01*
X8081Y4781D01*
X8081Y4781D01*
X8082Y4781D01*
X8082Y4781D01*
X8082Y4781D01*
X8082Y4782D01*
X8082Y4782D01*
X8082Y4782D01*
X8082Y4782D01*
X8082Y4783D01*
X8083Y4783D01*
X8083Y4783D01*
X8083Y4783D01*
X8083Y4783D01*
X8083Y4783D01*
X8083Y4784D01*
X8084Y4784D01*
X8084Y4784D01*
X8084Y4784D01*
X8084Y4784D01*
X8085Y4784D01*
X8085Y4784D01*
X8085Y4784D01*
X8085Y4784D01*
X8086D01*
X8086Y4784D01*
X8092D01*
X8092Y4784D01*
D02*
G37*
G36*
X5638Y1624D02*
X5644Y1618D01*
X5657D01*
Y1591D01*
X5571D01*
Y1673D01*
X5638D01*
Y1624D01*
D02*
G37*
G36*
X8233Y4782D02*
X8234D01*
X8234Y4782D01*
X8234Y4782D01*
X8234Y4782D01*
X8235Y4782D01*
X8235Y4782D01*
X8235Y4782D01*
X8235Y4782D01*
X8235Y4782D01*
X8236Y4781D01*
X8236Y4781D01*
X8236Y4781D01*
X8236Y4781D01*
X8236Y4781D01*
X8237Y4781D01*
X8237Y4780D01*
X8237Y4780D01*
X8237Y4780D01*
X8237Y4780D01*
X8237Y4779D01*
X8237Y4779D01*
X8237Y4779D01*
X8237Y4779D01*
X8237Y4779D01*
X8238Y4778D01*
Y4778D01*
X8238Y4778D01*
Y4778D01*
Y4758D01*
Y4758D01*
X8238Y4757D01*
Y4757D01*
X8237Y4757D01*
X8237Y4757D01*
X8237Y4756D01*
X8237Y4756D01*
X8237Y4756D01*
X8237Y4756D01*
X8237Y4756D01*
X8237Y4755D01*
X8237Y4755D01*
X8237Y4755D01*
X8236Y4755D01*
X8236Y4755D01*
X8236Y4754D01*
X8236Y4754D01*
X8236Y4754D01*
X8235Y4754D01*
X8235Y4754D01*
X8235Y4754D01*
X8235Y4754D01*
X8235Y4753D01*
X8234Y4753D01*
X8234Y4753D01*
X8234Y4753D01*
X8234Y4753D01*
X8233D01*
X8233Y4753D01*
X8227D01*
X8226Y4753D01*
X8226D01*
X8226Y4753D01*
X8226Y4753D01*
X8226Y4753D01*
X8225Y4753D01*
X8225Y4754D01*
X8225Y4754D01*
X8225Y4754D01*
X8224Y4754D01*
X8224Y4754D01*
X8224Y4754D01*
X8224Y4754D01*
X8224Y4755D01*
X8223Y4755D01*
X8223Y4755D01*
X8223Y4755D01*
X8223Y4755D01*
X8223Y4756D01*
X8223Y4756D01*
X8223Y4756D01*
X8223Y4756D01*
X8222Y4756D01*
X8222Y4757D01*
X8222Y4757D01*
X8222Y4757D01*
Y4757D01*
X8222Y4758D01*
Y4758D01*
Y4778D01*
Y4778D01*
X8222Y4778D01*
Y4778D01*
X8222Y4779D01*
X8222Y4779D01*
X8222Y4779D01*
X8223Y4779D01*
X8223Y4779D01*
X8223Y4780D01*
X8223Y4780D01*
X8223Y4780D01*
X8223Y4780D01*
X8223Y4781D01*
X8223Y4781D01*
X8224Y4781D01*
X8224Y4781D01*
X8224Y4781D01*
X8224Y4781D01*
X8224Y4782D01*
X8225Y4782D01*
X8225Y4782D01*
X8225Y4782D01*
X8225Y4782D01*
X8226Y4782D01*
X8226Y4782D01*
X8226Y4782D01*
X8226Y4782D01*
X8226D01*
X8227Y4782D01*
X8233D01*
X8233Y4782D01*
D02*
G37*
G36*
X8112D02*
X8112D01*
X8113Y4782D01*
X8113Y4782D01*
X8113Y4782D01*
X8113Y4782D01*
X8114Y4782D01*
X8114Y4782D01*
X8114Y4782D01*
X8114Y4782D01*
X8114Y4781D01*
X8115Y4781D01*
X8115Y4781D01*
X8115Y4781D01*
X8115Y4781D01*
X8115Y4781D01*
X8115Y4780D01*
X8116Y4780D01*
X8116Y4780D01*
X8116Y4780D01*
X8116Y4779D01*
X8116Y4779D01*
X8116Y4779D01*
X8116Y4779D01*
X8116Y4779D01*
X8116Y4778D01*
Y4778D01*
X8116Y4778D01*
Y4778D01*
Y4758D01*
Y4758D01*
X8116Y4757D01*
Y4757D01*
X8116Y4757D01*
X8116Y4757D01*
X8116Y4756D01*
X8116Y4756D01*
X8116Y4756D01*
X8116Y4756D01*
X8116Y4756D01*
X8116Y4755D01*
X8115Y4755D01*
X8115Y4755D01*
X8115Y4755D01*
X8115Y4755D01*
X8115Y4754D01*
X8115Y4754D01*
X8114Y4754D01*
X8114Y4754D01*
X8114Y4754D01*
X8114Y4754D01*
X8114Y4754D01*
X8113Y4753D01*
X8113Y4753D01*
X8113Y4753D01*
X8113Y4753D01*
X8112Y4753D01*
X8112D01*
X8112Y4753D01*
X8105D01*
X8105Y4753D01*
X8105D01*
X8105Y4753D01*
X8104Y4753D01*
X8104Y4753D01*
X8104Y4753D01*
X8104Y4754D01*
X8104Y4754D01*
X8103Y4754D01*
X8103Y4754D01*
X8103Y4754D01*
X8103Y4754D01*
X8103Y4754D01*
X8102Y4755D01*
X8102Y4755D01*
X8102Y4755D01*
X8102Y4755D01*
X8102Y4755D01*
X8102Y4756D01*
X8101Y4756D01*
X8101Y4756D01*
X8101Y4756D01*
X8101Y4756D01*
X8101Y4757D01*
X8101Y4757D01*
X8101Y4757D01*
Y4757D01*
X8101Y4758D01*
Y4758D01*
Y4778D01*
Y4778D01*
X8101Y4778D01*
Y4778D01*
X8101Y4779D01*
X8101Y4779D01*
X8101Y4779D01*
X8101Y4779D01*
X8101Y4779D01*
X8101Y4780D01*
X8102Y4780D01*
X8102Y4780D01*
X8102Y4780D01*
X8102Y4781D01*
X8102Y4781D01*
X8102Y4781D01*
X8103Y4781D01*
X8103Y4781D01*
X8103Y4781D01*
X8103Y4782D01*
X8103Y4782D01*
X8104Y4782D01*
X8104Y4782D01*
X8104Y4782D01*
X8104Y4782D01*
X8104Y4782D01*
X8105Y4782D01*
X8105Y4782D01*
X8105D01*
X8105Y4782D01*
X8112D01*
X8112Y4782D01*
D02*
G37*
G36*
X8274Y4821D02*
X8274D01*
X8275Y4821D01*
X8275Y4821D01*
X8275Y4820D01*
X8275Y4820D01*
X8276Y4820D01*
X8276Y4820D01*
X8276Y4820D01*
X8276Y4820D01*
X8276Y4820D01*
X8277Y4820D01*
X8277Y4819D01*
X8277Y4819D01*
X8277Y4819D01*
X8277Y4819D01*
X8277Y4819D01*
X8278Y4819D01*
X8278Y4818D01*
X8278Y4818D01*
X8278Y4818D01*
X8278Y4818D01*
X8278Y4817D01*
X8278Y4817D01*
X8278Y4817D01*
X8278Y4817D01*
Y4816D01*
X8278Y4816D01*
Y4816D01*
Y4810D01*
Y4810D01*
X8278Y4810D01*
Y4809D01*
X8278Y4809D01*
X8278Y4809D01*
X8278Y4809D01*
X8278Y4808D01*
X8278Y4808D01*
X8278Y4808D01*
X8278Y4808D01*
X8278Y4807D01*
X8277Y4807D01*
X8277Y4807D01*
X8277Y4807D01*
X8277Y4807D01*
X8277Y4807D01*
X8277Y4806D01*
X8276Y4806D01*
X8276Y4806D01*
X8276Y4806D01*
X8276Y4806D01*
X8276Y4806D01*
X8275Y4806D01*
X8275Y4806D01*
X8275Y4805D01*
X8275Y4805D01*
X8274Y4805D01*
X8274D01*
X8274Y4805D01*
X8254D01*
X8253Y4805D01*
X8253D01*
X8253Y4805D01*
X8253Y4805D01*
X8252Y4806D01*
X8252Y4806D01*
X8252Y4806D01*
X8252Y4806D01*
X8252Y4806D01*
X8251Y4806D01*
X8251Y4806D01*
X8251Y4806D01*
X8251Y4807D01*
X8251Y4807D01*
X8250Y4807D01*
X8250Y4807D01*
X8250Y4807D01*
X8250Y4807D01*
X8250Y4808D01*
X8250Y4808D01*
X8250Y4808D01*
X8250Y4808D01*
X8249Y4809D01*
X8249Y4809D01*
X8249Y4809D01*
X8249Y4809D01*
Y4810D01*
X8249Y4810D01*
Y4810D01*
Y4816D01*
Y4816D01*
X8249Y4816D01*
Y4817D01*
X8249Y4817D01*
X8249Y4817D01*
X8249Y4817D01*
X8250Y4818D01*
X8250Y4818D01*
X8250Y4818D01*
X8250Y4818D01*
X8250Y4819D01*
X8250Y4819D01*
X8250Y4819D01*
X8250Y4819D01*
X8251Y4819D01*
X8251Y4819D01*
X8251Y4820D01*
X8251Y4820D01*
X8251Y4820D01*
X8252Y4820D01*
X8252Y4820D01*
X8252Y4820D01*
X8252Y4820D01*
X8252Y4820D01*
X8253Y4821D01*
X8253Y4821D01*
X8253Y4821D01*
X8253D01*
X8254Y4821D01*
X8274D01*
X8274Y4821D01*
D02*
G37*
G36*
X8253Y4892D02*
X8253D01*
X8254Y4892D01*
X8254Y4892D01*
X8254Y4892D01*
X8254Y4892D01*
X8254Y4892D01*
X8255Y4892D01*
X8255Y4892D01*
X8255Y4892D01*
X8255Y4892D01*
X8256Y4891D01*
X8256Y4891D01*
X8256Y4891D01*
X8256Y4891D01*
X8256Y4891D01*
X8256Y4891D01*
X8257Y4890D01*
X8257Y4890D01*
X8257Y4890D01*
X8257Y4890D01*
X8257Y4889D01*
X8257Y4889D01*
X8257Y4889D01*
X8257Y4889D01*
X8257Y4889D01*
Y4888D01*
X8257Y4888D01*
Y4888D01*
Y4866D01*
Y4866D01*
X8257Y4866D01*
Y4865D01*
X8257Y4865D01*
X8257Y4865D01*
X8257Y4865D01*
X8257Y4864D01*
X8257Y4864D01*
X8257Y4864D01*
X8257Y4864D01*
X8257Y4864D01*
X8256Y4863D01*
X8256Y4863D01*
X8256Y4863D01*
X8256Y4863D01*
X8256Y4863D01*
X8256Y4862D01*
X8255Y4862D01*
X8255Y4862D01*
X8255Y4862D01*
X8255Y4862D01*
X8254Y4862D01*
X8254Y4862D01*
X8254Y4862D01*
X8254Y4862D01*
X8254Y4862D01*
X8253Y4861D01*
X8253D01*
X8253Y4861D01*
X8246D01*
X8246Y4861D01*
X8246D01*
X8246Y4862D01*
X8245Y4862D01*
X8245Y4862D01*
X8245Y4862D01*
X8245Y4862D01*
X8245Y4862D01*
X8244Y4862D01*
X8244Y4862D01*
X8244Y4862D01*
X8244Y4862D01*
X8244Y4863D01*
X8243Y4863D01*
X8243Y4863D01*
X8243Y4863D01*
X8243Y4863D01*
X8243Y4864D01*
X8243Y4864D01*
X8242Y4864D01*
X8242Y4864D01*
X8242Y4864D01*
X8242Y4865D01*
X8242Y4865D01*
X8242Y4865D01*
X8242Y4865D01*
Y4866D01*
X8242Y4866D01*
Y4866D01*
Y4888D01*
Y4888D01*
X8242Y4888D01*
Y4889D01*
X8242Y4889D01*
X8242Y4889D01*
X8242Y4889D01*
X8242Y4889D01*
X8242Y4890D01*
X8242Y4890D01*
X8243Y4890D01*
X8243Y4890D01*
X8243Y4891D01*
X8243Y4891D01*
X8243Y4891D01*
X8243Y4891D01*
X8244Y4891D01*
X8244Y4891D01*
X8244Y4892D01*
X8244Y4892D01*
X8244Y4892D01*
X8245Y4892D01*
X8245Y4892D01*
X8245Y4892D01*
X8245Y4892D01*
X8245Y4892D01*
X8246Y4892D01*
X8246Y4892D01*
X8246D01*
X8246Y4893D01*
X8253D01*
X8253Y4892D01*
D02*
G37*
G36*
X8092D02*
X8093D01*
X8093Y4892D01*
X8093Y4892D01*
X8093Y4892D01*
X8094Y4892D01*
X8094Y4892D01*
X8094Y4892D01*
X8094Y4892D01*
X8094Y4892D01*
X8095Y4892D01*
X8095Y4891D01*
X8095Y4891D01*
X8095Y4891D01*
X8095Y4891D01*
X8096Y4891D01*
X8096Y4891D01*
X8096Y4890D01*
X8096Y4890D01*
X8096Y4890D01*
X8096Y4890D01*
X8096Y4889D01*
X8096Y4889D01*
X8096Y4889D01*
X8097Y4889D01*
X8097Y4889D01*
Y4888D01*
X8097Y4888D01*
Y4888D01*
Y4866D01*
Y4866D01*
X8097Y4866D01*
Y4865D01*
X8097Y4865D01*
X8096Y4865D01*
X8096Y4865D01*
X8096Y4864D01*
X8096Y4864D01*
X8096Y4864D01*
X8096Y4864D01*
X8096Y4864D01*
X8096Y4863D01*
X8096Y4863D01*
X8095Y4863D01*
X8095Y4863D01*
X8095Y4863D01*
X8095Y4862D01*
X8095Y4862D01*
X8094Y4862D01*
X8094Y4862D01*
X8094Y4862D01*
X8094Y4862D01*
X8094Y4862D01*
X8093Y4862D01*
X8093Y4862D01*
X8093Y4862D01*
X8093Y4861D01*
X8092D01*
X8092Y4861D01*
X8086D01*
X8086Y4861D01*
X8085D01*
X8085Y4862D01*
X8085Y4862D01*
X8085Y4862D01*
X8084Y4862D01*
X8084Y4862D01*
X8084Y4862D01*
X8084Y4862D01*
X8083Y4862D01*
X8083Y4862D01*
X8083Y4862D01*
X8083Y4863D01*
X8083Y4863D01*
X8083Y4863D01*
X8082Y4863D01*
X8082Y4863D01*
X8082Y4864D01*
X8082Y4864D01*
X8082Y4864D01*
X8082Y4864D01*
X8082Y4864D01*
X8082Y4865D01*
X8081Y4865D01*
X8081Y4865D01*
X8081Y4865D01*
Y4866D01*
X8081Y4866D01*
Y4866D01*
Y4888D01*
Y4888D01*
X8081Y4888D01*
Y4889D01*
X8081Y4889D01*
X8081Y4889D01*
X8082Y4889D01*
X8082Y4889D01*
X8082Y4890D01*
X8082Y4890D01*
X8082Y4890D01*
X8082Y4890D01*
X8082Y4891D01*
X8082Y4891D01*
X8083Y4891D01*
X8083Y4891D01*
X8083Y4891D01*
X8083Y4891D01*
X8083Y4892D01*
X8083Y4892D01*
X8084Y4892D01*
X8084Y4892D01*
X8084Y4892D01*
X8084Y4892D01*
X8085Y4892D01*
X8085Y4892D01*
X8085Y4892D01*
X8085Y4892D01*
X8086D01*
X8086Y4893D01*
X8092D01*
X8092Y4892D01*
D02*
G37*
G36*
X8233D02*
X8234D01*
X8234Y4892D01*
X8234Y4892D01*
X8234Y4892D01*
X8235Y4892D01*
X8235Y4892D01*
X8235Y4892D01*
X8235Y4892D01*
X8235Y4892D01*
X8236Y4892D01*
X8236Y4891D01*
X8236Y4891D01*
X8236Y4891D01*
X8236Y4891D01*
X8237Y4891D01*
X8237Y4891D01*
X8237Y4890D01*
X8237Y4890D01*
X8237Y4890D01*
X8237Y4890D01*
X8237Y4889D01*
X8237Y4889D01*
X8237Y4889D01*
X8237Y4889D01*
X8238Y4889D01*
Y4888D01*
X8238Y4888D01*
Y4888D01*
Y4868D01*
Y4868D01*
X8238Y4868D01*
Y4867D01*
X8237Y4867D01*
X8237Y4867D01*
X8237Y4867D01*
X8237Y4866D01*
X8237Y4866D01*
X8237Y4866D01*
X8237Y4866D01*
X8237Y4866D01*
X8237Y4865D01*
X8237Y4865D01*
X8236Y4865D01*
X8236Y4865D01*
X8236Y4865D01*
X8236Y4864D01*
X8236Y4864D01*
X8235Y4864D01*
X8235Y4864D01*
X8235Y4864D01*
X8235Y4864D01*
X8235Y4864D01*
X8234Y4864D01*
X8234Y4864D01*
X8234Y4864D01*
X8234Y4863D01*
X8233D01*
X8233Y4863D01*
X8227D01*
X8226Y4863D01*
X8226D01*
X8226Y4864D01*
X8226Y4864D01*
X8226Y4864D01*
X8225Y4864D01*
X8225Y4864D01*
X8225Y4864D01*
X8225Y4864D01*
X8224Y4864D01*
X8224Y4864D01*
X8224Y4864D01*
X8224Y4865D01*
X8224Y4865D01*
X8223Y4865D01*
X8223Y4865D01*
X8223Y4865D01*
X8223Y4866D01*
X8223Y4866D01*
X8223Y4866D01*
X8223Y4866D01*
X8223Y4866D01*
X8222Y4867D01*
X8222Y4867D01*
X8222Y4867D01*
X8222Y4867D01*
Y4868D01*
X8222Y4868D01*
Y4868D01*
Y4888D01*
Y4888D01*
X8222Y4888D01*
Y4889D01*
X8222Y4889D01*
X8222Y4889D01*
X8222Y4889D01*
X8223Y4889D01*
X8223Y4890D01*
X8223Y4890D01*
X8223Y4890D01*
X8223Y4890D01*
X8223Y4891D01*
X8223Y4891D01*
X8223Y4891D01*
X8224Y4891D01*
X8224Y4891D01*
X8224Y4891D01*
X8224Y4892D01*
X8224Y4892D01*
X8225Y4892D01*
X8225Y4892D01*
X8225Y4892D01*
X8225Y4892D01*
X8226Y4892D01*
X8226Y4892D01*
X8226Y4892D01*
X8226Y4892D01*
X8226D01*
X8227Y4893D01*
X8233D01*
X8233Y4892D01*
D02*
G37*
G36*
X8112D02*
X8112D01*
X8113Y4892D01*
X8113Y4892D01*
X8113Y4892D01*
X8113Y4892D01*
X8114Y4892D01*
X8114Y4892D01*
X8114Y4892D01*
X8114Y4892D01*
X8114Y4892D01*
X8115Y4891D01*
X8115Y4891D01*
X8115Y4891D01*
X8115Y4891D01*
X8115Y4891D01*
X8115Y4891D01*
X8116Y4890D01*
X8116Y4890D01*
X8116Y4890D01*
X8116Y4890D01*
X8116Y4889D01*
X8116Y4889D01*
X8116Y4889D01*
X8116Y4889D01*
X8116Y4889D01*
Y4888D01*
X8116Y4888D01*
Y4888D01*
Y4868D01*
Y4868D01*
X8116Y4868D01*
Y4867D01*
X8116Y4867D01*
X8116Y4867D01*
X8116Y4867D01*
X8116Y4866D01*
X8116Y4866D01*
X8116Y4866D01*
X8116Y4866D01*
X8116Y4866D01*
X8115Y4865D01*
X8115Y4865D01*
X8115Y4865D01*
X8115Y4865D01*
X8115Y4865D01*
X8115Y4864D01*
X8114Y4864D01*
X8114Y4864D01*
X8114Y4864D01*
X8114Y4864D01*
X8114Y4864D01*
X8113Y4864D01*
X8113Y4864D01*
X8113Y4864D01*
X8113Y4864D01*
X8112Y4863D01*
X8112D01*
X8112Y4863D01*
X8105D01*
X8105Y4863D01*
X8105D01*
X8105Y4864D01*
X8104Y4864D01*
X8104Y4864D01*
X8104Y4864D01*
X8104Y4864D01*
X8104Y4864D01*
X8103Y4864D01*
X8103Y4864D01*
X8103Y4864D01*
X8103Y4864D01*
X8103Y4865D01*
X8102Y4865D01*
X8102Y4865D01*
X8102Y4865D01*
X8102Y4865D01*
X8102Y4866D01*
X8102Y4866D01*
X8101Y4866D01*
X8101Y4866D01*
X8101Y4866D01*
X8101Y4867D01*
X8101Y4867D01*
X8101Y4867D01*
X8101Y4867D01*
Y4868D01*
X8101Y4868D01*
Y4868D01*
Y4888D01*
Y4888D01*
X8101Y4888D01*
Y4889D01*
X8101Y4889D01*
X8101Y4889D01*
X8101Y4889D01*
X8101Y4889D01*
X8101Y4890D01*
X8101Y4890D01*
X8102Y4890D01*
X8102Y4890D01*
X8102Y4891D01*
X8102Y4891D01*
X8102Y4891D01*
X8102Y4891D01*
X8103Y4891D01*
X8103Y4891D01*
X8103Y4892D01*
X8103Y4892D01*
X8103Y4892D01*
X8104Y4892D01*
X8104Y4892D01*
X8104Y4892D01*
X8104Y4892D01*
X8104Y4892D01*
X8105Y4892D01*
X8105Y4892D01*
X8105D01*
X8105Y4893D01*
X8112D01*
X8112Y4892D01*
D02*
G37*
G36*
X8274Y4840D02*
X8274D01*
X8275Y4840D01*
X8275Y4840D01*
X8275Y4840D01*
X8275Y4840D01*
X8276Y4840D01*
X8276Y4840D01*
X8276Y4840D01*
X8276Y4840D01*
X8276Y4839D01*
X8277Y4839D01*
X8277Y4839D01*
X8277Y4839D01*
X8277Y4839D01*
X8277Y4839D01*
X8277Y4838D01*
X8278Y4838D01*
X8278Y4838D01*
X8278Y4838D01*
X8278Y4838D01*
X8278Y4837D01*
X8278Y4837D01*
X8278Y4837D01*
X8278Y4837D01*
X8278Y4836D01*
Y4836D01*
X8278Y4836D01*
Y4836D01*
Y4830D01*
Y4829D01*
X8278Y4829D01*
Y4829D01*
X8278Y4829D01*
X8278Y4829D01*
X8278Y4828D01*
X8278Y4828D01*
X8278Y4828D01*
X8278Y4828D01*
X8278Y4827D01*
X8278Y4827D01*
X8277Y4827D01*
X8277Y4827D01*
X8277Y4827D01*
X8277Y4826D01*
X8277Y4826D01*
X8277Y4826D01*
X8276Y4826D01*
X8276Y4826D01*
X8276Y4826D01*
X8276Y4826D01*
X8276Y4825D01*
X8275Y4825D01*
X8275Y4825D01*
X8275Y4825D01*
X8275Y4825D01*
X8274Y4825D01*
X8274D01*
X8274Y4825D01*
X8254D01*
X8253Y4825D01*
X8253D01*
X8253Y4825D01*
X8253Y4825D01*
X8252Y4825D01*
X8252Y4825D01*
X8252Y4825D01*
X8252Y4826D01*
X8252Y4826D01*
X8251Y4826D01*
X8251Y4826D01*
X8251Y4826D01*
X8251Y4826D01*
X8251Y4826D01*
X8250Y4827D01*
X8250Y4827D01*
X8250Y4827D01*
X8250Y4827D01*
X8250Y4827D01*
X8250Y4828D01*
X8250Y4828D01*
X8250Y4828D01*
X8249Y4828D01*
X8249Y4829D01*
X8249Y4829D01*
X8249Y4829D01*
Y4829D01*
X8249Y4829D01*
Y4830D01*
Y4836D01*
Y4836D01*
X8249Y4836D01*
Y4836D01*
X8249Y4837D01*
X8249Y4837D01*
X8249Y4837D01*
X8250Y4837D01*
X8250Y4838D01*
X8250Y4838D01*
X8250Y4838D01*
X8250Y4838D01*
X8250Y4838D01*
X8250Y4839D01*
X8250Y4839D01*
X8251Y4839D01*
X8251Y4839D01*
X8251Y4839D01*
X8251Y4839D01*
X8251Y4840D01*
X8252Y4840D01*
X8252Y4840D01*
X8252Y4840D01*
X8252Y4840D01*
X8252Y4840D01*
X8253Y4840D01*
X8253Y4840D01*
X8253Y4840D01*
X8253D01*
X8254Y4840D01*
X8274D01*
X8274Y4840D01*
D02*
G37*
G36*
X8085D02*
X8085D01*
X8086Y4840D01*
X8086Y4840D01*
X8086Y4840D01*
X8086Y4840D01*
X8087Y4840D01*
X8087Y4840D01*
X8087Y4840D01*
X8087Y4840D01*
X8087Y4839D01*
X8088Y4839D01*
X8088Y4839D01*
X8088Y4839D01*
X8088Y4839D01*
X8088Y4839D01*
X8088Y4838D01*
X8089Y4838D01*
X8089Y4838D01*
X8089Y4838D01*
X8089Y4838D01*
X8089Y4837D01*
X8089Y4837D01*
X8089Y4837D01*
X8089Y4837D01*
X8089Y4836D01*
Y4836D01*
X8089Y4836D01*
Y4836D01*
Y4830D01*
Y4829D01*
X8089Y4829D01*
Y4829D01*
X8089Y4829D01*
X8089Y4829D01*
X8089Y4828D01*
X8089Y4828D01*
X8089Y4828D01*
X8089Y4828D01*
X8089Y4827D01*
X8089Y4827D01*
X8088Y4827D01*
X8088Y4827D01*
X8088Y4827D01*
X8088Y4826D01*
X8088Y4826D01*
X8088Y4826D01*
X8087Y4826D01*
X8087Y4826D01*
X8087Y4826D01*
X8087Y4826D01*
X8087Y4825D01*
X8086Y4825D01*
X8086Y4825D01*
X8086Y4825D01*
X8086Y4825D01*
X8085Y4825D01*
X8085D01*
X8085Y4825D01*
X8065D01*
X8064Y4825D01*
X8064D01*
X8064Y4825D01*
X8064Y4825D01*
X8064Y4825D01*
X8063Y4825D01*
X8063Y4825D01*
X8063Y4826D01*
X8063Y4826D01*
X8062Y4826D01*
X8062Y4826D01*
X8062Y4826D01*
X8062Y4826D01*
X8062Y4826D01*
X8061Y4827D01*
X8061Y4827D01*
X8061Y4827D01*
X8061Y4827D01*
X8061Y4827D01*
X8061Y4828D01*
X8061Y4828D01*
X8061Y4828D01*
X8060Y4828D01*
X8060Y4829D01*
X8060Y4829D01*
X8060Y4829D01*
Y4829D01*
X8060Y4829D01*
Y4830D01*
Y4836D01*
Y4836D01*
X8060Y4836D01*
Y4836D01*
X8060Y4837D01*
X8060Y4837D01*
X8060Y4837D01*
X8061Y4837D01*
X8061Y4838D01*
X8061Y4838D01*
X8061Y4838D01*
X8061Y4838D01*
X8061Y4838D01*
X8061Y4839D01*
X8061Y4839D01*
X8062Y4839D01*
X8062Y4839D01*
X8062Y4839D01*
X8062Y4839D01*
X8062Y4840D01*
X8063Y4840D01*
X8063Y4840D01*
X8063Y4840D01*
X8063Y4840D01*
X8064Y4840D01*
X8064Y4840D01*
X8064Y4840D01*
X8064Y4840D01*
X8064D01*
X8065Y4840D01*
X8085D01*
X8085Y4840D01*
D02*
G37*
G36*
X8274Y4860D02*
X8274D01*
X8275Y4860D01*
X8275Y4860D01*
X8275Y4860D01*
X8275Y4860D01*
X8276Y4860D01*
X8276Y4860D01*
X8276Y4859D01*
X8276Y4859D01*
X8276Y4859D01*
X8277Y4859D01*
X8277Y4859D01*
X8277Y4859D01*
X8277Y4858D01*
X8277Y4858D01*
X8277Y4858D01*
X8278Y4858D01*
X8278Y4858D01*
X8278Y4857D01*
X8278Y4857D01*
X8278Y4857D01*
X8278Y4857D01*
X8278Y4857D01*
X8278Y4856D01*
X8278Y4856D01*
Y4856D01*
X8278Y4856D01*
Y4855D01*
Y4849D01*
Y4849D01*
X8278Y4849D01*
Y4849D01*
X8278Y4848D01*
X8278Y4848D01*
X8278Y4848D01*
X8278Y4848D01*
X8278Y4847D01*
X8278Y4847D01*
X8278Y4847D01*
X8278Y4847D01*
X8277Y4847D01*
X8277Y4846D01*
X8277Y4846D01*
X8277Y4846D01*
X8277Y4846D01*
X8277Y4846D01*
X8276Y4846D01*
X8276Y4845D01*
X8276Y4845D01*
X8276Y4845D01*
X8276Y4845D01*
X8275Y4845D01*
X8275Y4845D01*
X8275Y4845D01*
X8275Y4845D01*
X8274Y4845D01*
X8274D01*
X8274Y4845D01*
X8254D01*
X8253Y4845D01*
X8253D01*
X8253Y4845D01*
X8253Y4845D01*
X8252Y4845D01*
X8252Y4845D01*
X8252Y4845D01*
X8252Y4845D01*
X8252Y4845D01*
X8251Y4845D01*
X8251Y4846D01*
X8251Y4846D01*
X8251Y4846D01*
X8251Y4846D01*
X8250Y4846D01*
X8250Y4846D01*
X8250Y4847D01*
X8250Y4847D01*
X8250Y4847D01*
X8250Y4847D01*
X8250Y4847D01*
X8250Y4848D01*
X8249Y4848D01*
X8249Y4848D01*
X8249Y4848D01*
X8249Y4849D01*
Y4849D01*
X8249Y4849D01*
Y4849D01*
Y4855D01*
Y4856D01*
X8249Y4856D01*
Y4856D01*
X8249Y4856D01*
X8249Y4857D01*
X8249Y4857D01*
X8250Y4857D01*
X8250Y4857D01*
X8250Y4857D01*
X8250Y4858D01*
X8250Y4858D01*
X8250Y4858D01*
X8250Y4858D01*
X8250Y4858D01*
X8251Y4859D01*
X8251Y4859D01*
X8251Y4859D01*
X8251Y4859D01*
X8251Y4859D01*
X8252Y4859D01*
X8252Y4860D01*
X8252Y4860D01*
X8252Y4860D01*
X8252Y4860D01*
X8253Y4860D01*
X8253Y4860D01*
X8253Y4860D01*
X8253D01*
X8254Y4860D01*
X8274D01*
X8274Y4860D01*
D02*
G37*
G36*
X8085D02*
X8085D01*
X8086Y4860D01*
X8086Y4860D01*
X8086Y4860D01*
X8086Y4860D01*
X8087Y4860D01*
X8087Y4860D01*
X8087Y4859D01*
X8087Y4859D01*
X8087Y4859D01*
X8088Y4859D01*
X8088Y4859D01*
X8088Y4859D01*
X8088Y4858D01*
X8088Y4858D01*
X8088Y4858D01*
X8089Y4858D01*
X8089Y4858D01*
X8089Y4857D01*
X8089Y4857D01*
X8089Y4857D01*
X8089Y4857D01*
X8089Y4857D01*
X8089Y4856D01*
X8089Y4856D01*
Y4856D01*
X8089Y4856D01*
Y4855D01*
Y4849D01*
Y4849D01*
X8089Y4849D01*
Y4849D01*
X8089Y4848D01*
X8089Y4848D01*
X8089Y4848D01*
X8089Y4848D01*
X8089Y4847D01*
X8089Y4847D01*
X8089Y4847D01*
X8089Y4847D01*
X8088Y4847D01*
X8088Y4846D01*
X8088Y4846D01*
X8088Y4846D01*
X8088Y4846D01*
X8088Y4846D01*
X8087Y4846D01*
X8087Y4845D01*
X8087Y4845D01*
X8087Y4845D01*
X8087Y4845D01*
X8086Y4845D01*
X8086Y4845D01*
X8086Y4845D01*
X8086Y4845D01*
X8085Y4845D01*
X8085D01*
X8085Y4845D01*
X8065D01*
X8064Y4845D01*
X8064D01*
X8064Y4845D01*
X8064Y4845D01*
X8064Y4845D01*
X8063Y4845D01*
X8063Y4845D01*
X8063Y4845D01*
X8063Y4845D01*
X8062Y4845D01*
X8062Y4846D01*
X8062Y4846D01*
X8062Y4846D01*
X8062Y4846D01*
X8061Y4846D01*
X8061Y4846D01*
X8061Y4847D01*
X8061Y4847D01*
X8061Y4847D01*
X8061Y4847D01*
X8061Y4847D01*
X8061Y4848D01*
X8060Y4848D01*
X8060Y4848D01*
X8060Y4848D01*
X8060Y4849D01*
Y4849D01*
X8060Y4849D01*
Y4849D01*
Y4855D01*
Y4856D01*
X8060Y4856D01*
Y4856D01*
X8060Y4856D01*
X8060Y4857D01*
X8060Y4857D01*
X8061Y4857D01*
X8061Y4857D01*
X8061Y4857D01*
X8061Y4858D01*
X8061Y4858D01*
X8061Y4858D01*
X8061Y4858D01*
X8061Y4858D01*
X8062Y4859D01*
X8062Y4859D01*
X8062Y4859D01*
X8062Y4859D01*
X8062Y4859D01*
X8063Y4859D01*
X8063Y4860D01*
X8063Y4860D01*
X8063Y4860D01*
X8064Y4860D01*
X8064Y4860D01*
X8064Y4860D01*
X8064Y4860D01*
X8064D01*
X8065Y4860D01*
X8085D01*
X8085Y4860D01*
D02*
G37*
D47*
X5604Y1632D02*
D03*
D48*
X1683Y4134D02*
X2825D01*
Y5394D01*
X1683D02*
X2825D01*
X1683Y4134D02*
Y5394D01*
X1378Y1575D02*
X9646D01*
Y5512D01*
X1378D02*
X9646D01*
X1378Y1575D02*
Y5512D01*
D49*
X10266Y3230D02*
X10333D01*
X10300D01*
Y3130D01*
X10416Y3230D02*
X10383D01*
X10366Y3213D01*
Y3146D01*
X10383Y3130D01*
X10416D01*
X10433Y3146D01*
Y3213D01*
X10416Y3230D01*
X10466Y3130D02*
Y3230D01*
X10516D01*
X10533Y3213D01*
Y3180D01*
X10516Y3163D01*
X10466D01*
X10733Y3213D02*
X10716Y3230D01*
X10683D01*
X10666Y3213D01*
Y3196D01*
X10683Y3180D01*
X10716D01*
X10733Y3163D01*
Y3146D01*
X10716Y3130D01*
X10683D01*
X10666Y3146D01*
X10766Y3130D02*
Y3230D01*
X10799Y3196D01*
X10833Y3230D01*
Y3130D01*
X10256Y1675D02*
Y1575D01*
X10306D01*
X10323Y1591D01*
Y1608D01*
X10306Y1625D01*
X10256D01*
X10306D01*
X10323Y1641D01*
Y1658D01*
X10306Y1675D01*
X10256D01*
X10406D02*
X10373D01*
X10356Y1658D01*
Y1591D01*
X10373Y1575D01*
X10406D01*
X10423Y1591D01*
Y1658D01*
X10406Y1675D01*
X10456Y1575D02*
Y1641D01*
X10489Y1675D01*
X10523Y1641D01*
Y1575D01*
Y1625D01*
X10456D01*
X10556Y1575D02*
Y1675D01*
X10606D01*
X10623Y1658D01*
Y1625D01*
X10606Y1608D01*
X10556D01*
X10589D02*
X10623Y1575D01*
X10656Y1675D02*
Y1575D01*
X10706D01*
X10723Y1591D01*
Y1658D01*
X10706Y1675D01*
X10656D01*
X10906D02*
X10873D01*
X10856Y1658D01*
Y1591D01*
X10873Y1575D01*
X10906D01*
X10923Y1591D01*
Y1658D01*
X10906Y1675D01*
X10956D02*
Y1591D01*
X10973Y1575D01*
X11006D01*
X11023Y1591D01*
Y1675D01*
X11056D02*
X11123D01*
X11089D01*
Y1575D01*
X11156Y1675D02*
Y1575D01*
X11223D01*
X11256Y1675D02*
X11289D01*
X11273D01*
Y1575D01*
X11256D01*
X11289D01*
X11339D02*
Y1675D01*
X11406Y1575D01*
Y1675D01*
X11506D02*
X11439D01*
Y1575D01*
X11506D01*
X11439Y1625D02*
X11472D01*
D77*
X7953Y2864D02*
D03*
X7953Y2785D02*
D03*
X7717Y3996D02*
D03*
X7716Y3917D02*
D03*
X8051Y3642D02*
D03*
X8051Y3563D02*
D03*
X7854Y3110D02*
D03*
X7854Y3189D02*
D03*
X8110Y3327D02*
D03*
X8110Y3248D02*
D03*
X8701Y3170D02*
D03*
X8701Y3090D02*
D03*
X7815Y2864D02*
D03*
X7815Y2785D02*
D03*
X7106Y3583D02*
D03*
X7106Y3504D02*
D03*
X6614Y3700D02*
D03*
X6614Y3780D02*
D03*
X3799Y4715D02*
D03*
X3799Y4636D02*
D03*
X3996Y4715D02*
D03*
X3996Y4636D02*
D03*
X7047Y1910D02*
D03*
X7047Y1830D02*
D03*
X6240Y2146D02*
D03*
X6240Y2067D02*
D03*
X6240Y2224D02*
D03*
X6240Y2303D02*
D03*
X6122Y2461D02*
D03*
X6122Y2382D02*
D03*
X6024Y2461D02*
D03*
X6024Y2382D02*
D03*
X5925Y2461D02*
D03*
X5925Y2382D02*
D03*
X5827Y2382D02*
D03*
X5827Y2461D02*
D03*
X5728Y2461D02*
D03*
X5728Y2382D02*
D03*
X5630Y2461D02*
D03*
X5630Y2382D02*
D03*
X5532Y2461D02*
D03*
X5531Y2382D02*
D03*
X1693Y1988D02*
D03*
X1693Y1909D02*
D03*
X1595Y1988D02*
D03*
X1594Y1909D02*
D03*
D78*
X6614Y4134D02*
D03*
X7736Y2559D02*
D03*
X3947Y4882D02*
D03*
X4420Y4232D02*
D03*
X6565Y3012D02*
D03*
X6624Y4488D02*
D03*
D79*
X8032Y2677D02*
D03*
X7952Y2677D02*
D03*
X8051Y4567D02*
D03*
X8130Y4567D02*
D03*
X3051Y4026D02*
D03*
X3130Y4025D02*
D03*
X8760Y5246D02*
D03*
X8681Y5246D02*
D03*
X8681Y4971D02*
D03*
X8760Y4970D02*
D03*
X8602Y4862D02*
D03*
X8681Y4862D02*
D03*
X8111Y4961D02*
D03*
X8031Y4961D02*
D03*
X8208Y4961D02*
D03*
X8288Y4961D02*
D03*
X8445Y5158D02*
D03*
X8524Y5157D02*
D03*
Y5059D02*
D03*
X8445Y5059D02*
D03*
Y4961D02*
D03*
X8524Y4961D02*
D03*
X8445Y4862D02*
D03*
X8524Y4862D02*
D03*
X8445Y4764D02*
D03*
X8524Y4764D02*
D03*
X8445Y4665D02*
D03*
X8524Y4665D02*
D03*
X8327D02*
D03*
X8248Y4665D02*
D03*
X8051Y4665D02*
D03*
X8130Y4665D02*
D03*
X7933Y4882D02*
D03*
X7854Y4882D02*
D03*
X7933Y4980D02*
D03*
X7854Y4980D02*
D03*
X7933Y4783D02*
D03*
X7854Y4784D02*
D03*
X7933Y4685D02*
D03*
X7854Y4685D02*
D03*
X7854Y5079D02*
D03*
X7933Y5079D02*
D03*
X8405Y3996D02*
D03*
X8485Y3996D02*
D03*
X7599Y3996D02*
D03*
X7519Y3996D02*
D03*
X7953Y3622D02*
D03*
X7874Y3622D02*
D03*
X7874Y3524D02*
D03*
X7953Y3524D02*
D03*
X8326Y3110D02*
D03*
X8406Y3110D02*
D03*
X8406Y3012D02*
D03*
X8326Y3012D02*
D03*
X8406Y2913D02*
D03*
X8326Y2913D02*
D03*
X8406Y2815D02*
D03*
X8326Y2815D02*
D03*
X7815Y2973D02*
D03*
X7894Y2972D02*
D03*
X8701Y2205D02*
D03*
X8622Y2205D02*
D03*
X8622Y2008D02*
D03*
X8701Y2008D02*
D03*
X8701Y2106D02*
D03*
X8622Y2106D02*
D03*
X9292Y1998D02*
D03*
X9212Y1998D02*
D03*
X9212Y1900D02*
D03*
X9292Y1900D02*
D03*
X8957Y1850D02*
D03*
X8878Y1850D02*
D03*
X8622Y1910D02*
D03*
X8701Y1909D02*
D03*
X8701Y1811D02*
D03*
X8622Y1811D02*
D03*
X8701Y1712D02*
D03*
X8622Y1713D02*
D03*
X8544Y2106D02*
D03*
X8464Y2106D02*
D03*
X7323Y2953D02*
D03*
X7244Y2953D02*
D03*
X7303Y3583D02*
D03*
X7224Y3583D02*
D03*
X7224Y3681D02*
D03*
X7303Y3681D02*
D03*
X7224Y3780D02*
D03*
X7303Y3779D02*
D03*
X7146Y3838D02*
D03*
X7067Y3839D02*
D03*
X6979Y3819D02*
D03*
X6899Y3819D02*
D03*
X6496Y3406D02*
D03*
X6575Y3405D02*
D03*
X6496Y3307D02*
D03*
X6575Y3307D02*
D03*
X6457Y4764D02*
D03*
X6378Y4764D02*
D03*
X6457Y4862D02*
D03*
X6378Y4862D02*
D03*
X6378Y4961D02*
D03*
X6457Y4961D02*
D03*
X6634Y4784D02*
D03*
X6713Y4783D02*
D03*
X6614Y5118D02*
D03*
X6693Y5118D02*
D03*
X3780Y5197D02*
D03*
X3700Y5197D02*
D03*
X3780Y5098D02*
D03*
X3700Y5099D02*
D03*
Y5000D02*
D03*
X3780Y5000D02*
D03*
X3268Y5029D02*
D03*
X3189Y5030D02*
D03*
X3534Y4892D02*
D03*
X3454Y4892D02*
D03*
X4193Y4380D02*
D03*
X4114Y4380D02*
D03*
Y4282D02*
D03*
X4193Y4281D02*
D03*
X4420Y4380D02*
D03*
X4340Y4380D02*
D03*
X5246Y4606D02*
D03*
X5325Y4606D02*
D03*
X5788Y4468D02*
D03*
X5708Y4469D02*
D03*
X5788Y4370D02*
D03*
X5708Y4370D02*
D03*
X5788Y4272D02*
D03*
X5708Y4272D02*
D03*
X5788Y4173D02*
D03*
X5708Y4173D02*
D03*
X5788Y4075D02*
D03*
X5708Y4075D02*
D03*
X5788Y3976D02*
D03*
X5708Y3976D02*
D03*
X5531Y4469D02*
D03*
X5611Y4468D02*
D03*
X5531Y4370D02*
D03*
X5611Y4370D02*
D03*
X5531Y4272D02*
D03*
X5611Y4272D02*
D03*
X5531Y4173D02*
D03*
X5611Y4173D02*
D03*
X5531Y4075D02*
D03*
X5611Y4075D02*
D03*
X5276Y3760D02*
D03*
X5197Y3760D02*
D03*
X5551Y3583D02*
D03*
X5630Y3583D02*
D03*
X5551Y3484D02*
D03*
X5630Y3484D02*
D03*
X5551Y3386D02*
D03*
X5630Y3386D02*
D03*
X5551Y3288D02*
D03*
X5630Y3287D02*
D03*
X5551Y3189D02*
D03*
X5630Y3189D02*
D03*
X7618Y2008D02*
D03*
X7539Y2008D02*
D03*
X7539Y1910D02*
D03*
X7618Y1909D02*
D03*
X7618Y1811D02*
D03*
X7539Y1811D02*
D03*
X7402Y2205D02*
D03*
X7323Y2205D02*
D03*
X7461Y1811D02*
D03*
X7382Y1811D02*
D03*
X7284Y1850D02*
D03*
X7204Y1850D02*
D03*
X7048Y1988D02*
D03*
X6968Y1988D02*
D03*
X7048Y2087D02*
D03*
X6968Y2087D02*
D03*
Y2185D02*
D03*
X7048Y2185D02*
D03*
X6890Y2185D02*
D03*
X6811Y2185D02*
D03*
X1762Y1653D02*
D03*
X1683Y1654D02*
D03*
X1762Y1772D02*
D03*
X1683Y1772D02*
D03*
X4774Y3445D02*
D03*
X4695Y3445D02*
D03*
X5531Y3976D02*
D03*
X5611Y3976D02*
D03*
X9075Y2205D02*
D03*
X8996Y2205D02*
D03*
D80*
X7598Y3671D02*
D03*
X8661Y3996D02*
D03*
D81*
X8169Y4823D02*
D03*
D82*
X8210D02*
D03*
X8191D02*
D03*
X8148D02*
D03*
X8128D02*
D03*
D83*
X3153Y4154D02*
D03*
X3048D02*
D03*
X8104Y4360D02*
D03*
X7999D02*
D03*
X8333Y4449D02*
D03*
X8438D02*
D03*
X8333Y4281D02*
D03*
X8438D02*
D03*
X8419Y3248D02*
D03*
X8314D02*
D03*
X3802Y4882D02*
D03*
X3698D02*
D03*
X5348Y4724D02*
D03*
X5243D02*
D03*
D84*
X8683Y5338D02*
D03*
X8720Y5430D02*
D03*
X8683Y5062D02*
D03*
X8720Y5155D02*
D03*
X7283Y2769D02*
D03*
X7321Y2861D02*
D03*
D85*
X8758Y5338D02*
D03*
Y5062D02*
D03*
X7246Y2861D02*
D03*
D86*
X8111Y5118D02*
D03*
X8208D02*
D03*
D87*
X8150Y3945D02*
D03*
Y3811D02*
D03*
X7146Y2630D02*
D03*
Y2764D02*
D03*
D88*
X7953Y4000D02*
D03*
D89*
X8043Y3756D02*
D03*
X7862D02*
D03*
D90*
X7953D02*
D03*
D91*
X7854Y3307D02*
D03*
X7933D02*
D03*
D92*
X8110Y3071D02*
D03*
D93*
X8223Y3160D02*
D03*
Y3135D02*
D03*
Y3109D02*
D03*
Y3084D02*
D03*
Y3058D02*
D03*
Y3032D02*
D03*
Y3007D02*
D03*
Y2981D02*
D03*
X7997D02*
D03*
Y3007D02*
D03*
Y3032D02*
D03*
Y3058D02*
D03*
Y3084D02*
D03*
Y3109D02*
D03*
Y3135D02*
D03*
Y3160D02*
D03*
D94*
X8609Y3093D02*
D03*
X8517Y3130D02*
D03*
D95*
X8609Y3167D02*
D03*
D96*
X8110Y2887D02*
D03*
Y2782D02*
D03*
D97*
X8870Y2053D02*
D03*
Y2103D02*
D03*
Y2003D02*
D03*
Y1953D02*
D03*
X9083Y2003D02*
D03*
Y2103D02*
D03*
Y2053D02*
D03*
Y1953D02*
D03*
X6976Y3586D02*
D03*
Y3686D02*
D03*
Y3736D02*
D03*
Y3636D02*
D03*
X6764Y3586D02*
D03*
Y3636D02*
D03*
Y3736D02*
D03*
Y3686D02*
D03*
X7409Y1953D02*
D03*
Y2053D02*
D03*
Y2103D02*
D03*
Y2003D02*
D03*
X7197Y1953D02*
D03*
Y2003D02*
D03*
Y2103D02*
D03*
Y2053D02*
D03*
D98*
X8594Y2382D02*
D03*
X8728D02*
D03*
X8368D02*
D03*
X8502D02*
D03*
X6622Y3602D02*
D03*
X6488D02*
D03*
Y3504D02*
D03*
X6622D02*
D03*
X8502Y2293D02*
D03*
X8368D02*
D03*
X8728D02*
D03*
X8594D02*
D03*
D99*
X6719Y4703D02*
D03*
Y4665D02*
D03*
Y4628D02*
D03*
X6628D02*
D03*
Y4665D02*
D03*
Y4703D02*
D03*
X6719Y5037D02*
D03*
Y5000D02*
D03*
Y4963D02*
D03*
X6628D02*
D03*
Y5000D02*
D03*
Y5037D02*
D03*
D100*
X3579Y5058D02*
D03*
Y5032D02*
D03*
Y5007D02*
D03*
Y4981D02*
D03*
X3409D02*
D03*
Y5007D02*
D03*
Y5032D02*
D03*
Y5058D02*
D03*
D101*
X3995Y4534D02*
D03*
Y4484D02*
D03*
Y4434D02*
D03*
Y4384D02*
D03*
X3800D02*
D03*
Y4434D02*
D03*
Y4484D02*
D03*
Y4534D02*
D03*
D102*
X4878Y4491D02*
D03*
Y4441D02*
D03*
Y4391D02*
D03*
Y4341D02*
D03*
Y4291D02*
D03*
Y4241D02*
D03*
Y4191D02*
D03*
Y4141D02*
D03*
Y4091D02*
D03*
X5241D02*
D03*
Y4141D02*
D03*
Y4191D02*
D03*
Y4241D02*
D03*
Y4291D02*
D03*
Y4341D02*
D03*
Y4391D02*
D03*
Y4441D02*
D03*
Y4491D02*
D03*
X4917Y3645D02*
D03*
Y3595D02*
D03*
Y3545D02*
D03*
Y3495D02*
D03*
Y3445D02*
D03*
Y3395D02*
D03*
Y3345D02*
D03*
Y3295D02*
D03*
Y3245D02*
D03*
X5280D02*
D03*
Y3295D02*
D03*
Y3345D02*
D03*
Y3395D02*
D03*
Y3445D02*
D03*
Y3495D02*
D03*
Y3545D02*
D03*
Y3595D02*
D03*
Y3645D02*
D03*
D103*
X4419Y3518D02*
D03*
Y3785D02*
D03*
X4577D02*
D03*
Y3518D02*
D03*
X4419Y2504D02*
D03*
Y2772D02*
D03*
X4577D02*
D03*
Y2504D02*
D03*
D104*
X3646Y2047D02*
D03*
X3913D02*
D03*
Y1890D02*
D03*
X3646D02*
D03*
X2730Y2047D02*
D03*
X2998D02*
D03*
Y1890D02*
D03*
X2730D02*
D03*
X1835Y2047D02*
D03*
X2102D02*
D03*
Y1890D02*
D03*
X1835D02*
D03*
D105*
X6094Y2226D02*
D03*
D106*
X6128Y1813D02*
D03*
D107*
Y2057D02*
D03*
D108*
Y1671D02*
D03*
D109*
X5884Y2222D02*
D03*
X5841D02*
D03*
X6057D02*
D03*
X5927D02*
D03*
X6014D02*
D03*
X5797D02*
D03*
X5754D02*
D03*
X5970D02*
D03*
D110*
X5679D02*
D03*
D111*
X4528Y5305D02*
D03*
X9213Y5335D02*
D03*
X6496Y3780D02*
D03*
X6506Y5256D02*
D03*
Y5354D02*
D03*
X4114Y4478D02*
D03*
X5384Y3789D02*
D03*
Y3691D02*
D03*
Y3593D02*
D03*
D112*
X7638Y4870D02*
D03*
Y5327D02*
D03*
D113*
Y4980D02*
D03*
Y5098D02*
D03*
D114*
Y5217D02*
D03*
D115*
X8268Y3958D02*
D03*
X8386Y3858D02*
D03*
X7598Y3878D02*
D03*
X8051Y2559D02*
D03*
X3565Y5256D02*
D03*
X4606Y4923D02*
D03*
Y4823D02*
D03*
D116*
X8268Y3858D02*
D03*
X4606Y5023D02*
D03*
D117*
X8486Y3858D02*
D03*
X7498Y3878D02*
D03*
X7951Y2559D02*
D03*
X3465Y5256D02*
D03*
D118*
X7913Y2165D02*
D03*
Y1732D02*
D03*
X1529Y3892D02*
D03*
Y2334D02*
D03*
X4171Y3892D02*
D03*
Y2334D02*
D03*
D119*
X8346Y2146D02*
D03*
Y2067D02*
D03*
Y1988D02*
D03*
Y1909D02*
D03*
Y1831D02*
D03*
Y1752D02*
D03*
D120*
X7047Y2413D02*
D03*
X3154Y3917D02*
D03*
D121*
X7047Y2513D02*
D03*
Y2913D02*
D03*
Y3013D02*
D03*
X6747D02*
D03*
Y2913D02*
D03*
Y2513D02*
D03*
Y2413D02*
D03*
X2554Y3917D02*
D03*
X2654D02*
D03*
X2754D02*
D03*
X2854D02*
D03*
X2954D02*
D03*
X3054D02*
D03*
D122*
X6612Y5254D02*
D03*
Y5354D02*
D03*
X6712Y5254D02*
D03*
Y5354D02*
D03*
X6812Y5254D02*
D03*
Y5354D02*
D03*
X6912Y5254D02*
D03*
Y5354D02*
D03*
X7012Y5254D02*
D03*
Y5354D02*
D03*
X7112D02*
D03*
X5712Y5254D02*
D03*
Y5354D02*
D03*
X5812Y5254D02*
D03*
Y5354D02*
D03*
X5912Y5254D02*
D03*
Y5354D02*
D03*
X6012Y5254D02*
D03*
Y5354D02*
D03*
X6112Y5254D02*
D03*
Y5354D02*
D03*
X6212D02*
D03*
X4812Y5254D02*
D03*
Y5354D02*
D03*
X4912Y5254D02*
D03*
Y5354D02*
D03*
X5012Y5254D02*
D03*
Y5354D02*
D03*
X5112Y5254D02*
D03*
Y5354D02*
D03*
X5212Y5254D02*
D03*
Y5354D02*
D03*
X5312D02*
D03*
X3912Y5254D02*
D03*
Y5354D02*
D03*
X4012Y5254D02*
D03*
Y5354D02*
D03*
X4112Y5254D02*
D03*
Y5354D02*
D03*
X4212Y5254D02*
D03*
Y5354D02*
D03*
X4312Y5254D02*
D03*
Y5354D02*
D03*
X4412D02*
D03*
D123*
X7112Y5254D02*
D03*
X6212D02*
D03*
X5312D02*
D03*
X4412D02*
D03*
D124*
X3465Y4518D02*
D03*
X3365Y4718D02*
D03*
X3565D02*
D03*
D125*
X6843Y1772D02*
D03*
X6543D02*
D03*
D126*
X6693Y2079D02*
D03*
D127*
X9214Y5123D02*
D03*
X9314Y4823D02*
D03*
X9114D02*
D03*
X9314Y3048D02*
D03*
X9114D02*
D03*
X9214Y2748D02*
D03*
D128*
X9508Y5374D02*
D03*
Y1713D02*
D03*
X1516D02*
D03*
Y5374D02*
D03*
X2972Y4764D02*
D03*
X1535D02*
D03*
D129*
X8563Y1713D02*
D03*
X6742Y4134D02*
D03*
X6486D02*
D03*
X6624Y4556D02*
D03*
X6752Y2185D02*
D03*
X5532Y2520D02*
D03*
X5827Y2520D02*
D03*
X5728Y2520D02*
D03*
X5413Y4724D02*
D03*
X3839Y5000D02*
D03*
X6417Y3504D02*
D03*
Y3602D02*
D03*
X7746Y2864D02*
D03*
X7756Y2973D02*
D03*
X8110Y2717D02*
D03*
X8760Y4902D02*
D03*
X8337Y4193D02*
D03*
Y4537D02*
D03*
X8100Y4449D02*
D03*
X7923Y4360D02*
D03*
X6890Y2077D02*
D03*
X8593Y5059D02*
D03*
X8219Y4596D02*
D03*
Y4498D02*
D03*
Y4400D02*
D03*
Y4301D02*
D03*
Y4203D02*
D03*
X7933Y3051D02*
D03*
X8415Y3346D02*
D03*
X8012Y3307D02*
D03*
X8583Y4764D02*
D03*
X8465Y3110D02*
D03*
X8051Y3504D02*
D03*
X8465Y2815D02*
D03*
X8051Y4764D02*
D03*
X8445Y5157D02*
D03*
X7854Y4882D02*
D03*
X8031Y4882D02*
D03*
X7795Y4980D02*
D03*
Y4685D02*
D03*
X8612Y5394D02*
D03*
X7402Y5433D02*
D03*
X3780Y5266D02*
D03*
X5541Y1634D02*
D03*
X6201Y1673D02*
D03*
X6299Y2067D02*
D03*
X5974Y2165D02*
D03*
X5679D02*
D03*
X5689Y3583D02*
D03*
X7717Y3858D02*
D03*
X6979Y3878D02*
D03*
X6900D02*
D03*
X6693Y3583D02*
D03*
X7106Y3445D02*
D03*
X7244Y3012D02*
D03*
X7264Y2205D02*
D03*
X7382Y1870D02*
D03*
X7677Y1909D02*
D03*
X9016Y1850D02*
D03*
X8937Y2205D02*
D03*
X6565Y5000D02*
D03*
X6713Y4843D02*
D03*
X6565Y4665D02*
D03*
X6329Y4813D02*
D03*
X5787Y3907D02*
D03*
X4872Y4045D02*
D03*
X5197Y3819D02*
D03*
X4921Y3199D02*
D03*
X4744Y3533D02*
D03*
X4793Y4291D02*
D03*
X4262Y4321D02*
D03*
X3720Y4380D02*
D03*
X3996Y4774D02*
D03*
X3642Y5049D02*
D03*
X3130Y5030D02*
D03*
X1762Y1713D02*
D03*
X6634Y4843D02*
D03*
X6201Y1811D02*
D03*
X6122Y2520D02*
D03*
X5945D02*
D03*
X5876Y2333D02*
D03*
X5177Y4724D02*
D03*
X4695Y3504D02*
D03*
X5276Y3819D02*
D03*
X1732Y2047D02*
D03*
X2618D02*
D03*
X3543D02*
D03*
X4419Y2884D02*
D03*
Y3898D02*
D03*
X4055Y4636D02*
D03*
X4646Y3642D02*
D03*
X4921Y3740D02*
D03*
X5768Y2579D02*
D03*
X6053D02*
D03*
X6299Y2687D02*
D03*
X6053D02*
D03*
X7618Y2077D02*
D03*
X8543Y2195D02*
D03*
X8780Y2047D02*
D03*
X7067Y3917D02*
D03*
X8878Y2559D02*
D03*
Y1772D02*
D03*
X7480Y4970D02*
D03*
X6378Y5039D02*
D03*
X7923Y4272D02*
D03*
Y4508D02*
D03*
X7992Y4567D02*
D03*
X8002Y4449D02*
D03*
X8022Y5030D02*
D03*
Y5079D02*
D03*
Y5128D02*
D03*
X8317Y3346D02*
D03*
X8612Y3228D02*
D03*
X8701D02*
D03*
X7815Y5039D02*
D03*
X8219Y4104D02*
D03*
M02*
