G04*
G04 #@! TF.GenerationSoftware,Altium Limited,CircuitStudio,1.5.1 (1.5.1.13)*
G04*
G04 Layer_Color=15065295*
%FSLAX23Y23*%
%MOIN*%
G70*
G01*
G75*
%ADD48C,0.010*%
%ADD49C,0.020*%
%ADD72C,0.015*%
%ADD73C,0.008*%
%ADD74C,0.010*%
%ADD75C,0.004*%
%ADD76C,0.005*%
G36*
X5043Y2012D02*
X5044Y2012D01*
X5046Y2012D01*
X5048Y2011D01*
X5050Y2011D01*
X5052Y2010D01*
X5055Y2009D01*
X5057Y2008D01*
X5059Y2007D01*
X5062Y2006D01*
X5064Y2004D01*
X5066Y2002D01*
X5068Y2000D01*
X5068Y2000D01*
X5069Y2000D01*
X5069Y1999D01*
X5070Y1998D01*
X5071Y1997D01*
X5071Y1995D01*
X5072Y1993D01*
X5073Y1991D01*
X5074Y1989D01*
X5075Y1986D01*
X5076Y1983D01*
X5077Y1980D01*
X5078Y1976D01*
X5078Y1972D01*
X5078Y1968D01*
Y1963D01*
X5025D01*
Y1963D01*
Y1963D01*
Y1963D01*
X5025Y1962D01*
X5025Y1960D01*
X5025Y1958D01*
X5026Y1956D01*
X5027Y1953D01*
X5028Y1951D01*
X5030Y1949D01*
X5030Y1948D01*
X5031Y1948D01*
X5032Y1947D01*
X5033Y1946D01*
X5035Y1945D01*
X5037Y1944D01*
X5039Y1944D01*
X5042Y1943D01*
X5043D01*
X5044Y1944D01*
X5045Y1944D01*
X5046Y1944D01*
X5048Y1945D01*
X5049Y1945D01*
X5051Y1946D01*
X5051Y1946D01*
X5051Y1947D01*
X5052Y1947D01*
X5052Y1948D01*
X5053Y1950D01*
X5054Y1951D01*
X5055Y1953D01*
X5056Y1955D01*
X5077Y1951D01*
Y1951D01*
X5077Y1951D01*
X5077Y1950D01*
X5076Y1950D01*
X5076Y1949D01*
X5075Y1947D01*
X5074Y1945D01*
X5072Y1942D01*
X5070Y1939D01*
X5067Y1936D01*
X5064Y1934D01*
X5064D01*
X5064Y1933D01*
X5063Y1933D01*
X5062Y1933D01*
X5062Y1932D01*
X5061Y1932D01*
X5059Y1931D01*
X5058Y1930D01*
X5055Y1929D01*
X5051Y1928D01*
X5047Y1928D01*
X5042Y1927D01*
X5041D01*
X5040Y1928D01*
X5039D01*
X5037Y1928D01*
X5035Y1928D01*
X5032Y1928D01*
X5030Y1929D01*
X5028Y1930D01*
X5025Y1931D01*
X5022Y1932D01*
X5020Y1933D01*
X5017Y1935D01*
X5015Y1937D01*
X5013Y1939D01*
X5010Y1941D01*
X5010Y1941D01*
X5010Y1942D01*
X5010Y1942D01*
X5009Y1943D01*
X5009Y1944D01*
X5008Y1945D01*
X5007Y1947D01*
X5007Y1949D01*
X5006Y1951D01*
X5005Y1953D01*
X5004Y1955D01*
X5004Y1958D01*
X5003Y1960D01*
X5003Y1963D01*
X5003Y1966D01*
X5003Y1969D01*
Y1969D01*
Y1970D01*
Y1971D01*
X5003Y1973D01*
X5003Y1974D01*
X5003Y1976D01*
X5003Y1978D01*
X5004Y1981D01*
X5005Y1986D01*
X5006Y1988D01*
X5007Y1991D01*
X5008Y1994D01*
X5010Y1996D01*
X5011Y1998D01*
X5013Y2001D01*
X5013Y2001D01*
X5014Y2001D01*
X5014Y2002D01*
X5015Y2003D01*
X5016Y2003D01*
X5017Y2004D01*
X5019Y2005D01*
X5020Y2007D01*
X5022Y2008D01*
X5024Y2009D01*
X5026Y2010D01*
X5029Y2010D01*
X5031Y2011D01*
X5034Y2012D01*
X5037Y2012D01*
X5040Y2012D01*
X5041D01*
X5043Y2012D01*
D02*
G37*
G36*
X5130D02*
X5131Y2012D01*
X5133Y2012D01*
X5135Y2011D01*
X5137Y2011D01*
X5139Y2010D01*
X5142Y2009D01*
X5144Y2008D01*
X5147Y2007D01*
X5149Y2006D01*
X5151Y2004D01*
X5153Y2002D01*
X5155Y2000D01*
X5155Y2000D01*
X5156Y2000D01*
X5156Y1999D01*
X5157Y1998D01*
X5158Y1997D01*
X5159Y1995D01*
X5160Y1993D01*
X5161Y1991D01*
X5161Y1989D01*
X5162Y1986D01*
X5163Y1983D01*
X5164Y1980D01*
X5165Y1976D01*
X5165Y1972D01*
X5166Y1968D01*
Y1963D01*
X5112D01*
Y1963D01*
Y1963D01*
Y1963D01*
X5112Y1962D01*
X5112Y1960D01*
X5112Y1958D01*
X5113Y1956D01*
X5114Y1953D01*
X5115Y1951D01*
X5117Y1949D01*
X5117Y1948D01*
X5118Y1948D01*
X5119Y1947D01*
X5120Y1946D01*
X5122Y1945D01*
X5124Y1944D01*
X5127Y1944D01*
X5129Y1943D01*
X5130D01*
X5131Y1944D01*
X5132Y1944D01*
X5133Y1944D01*
X5135Y1945D01*
X5136Y1945D01*
X5138Y1946D01*
X5138Y1946D01*
X5138Y1947D01*
X5139Y1947D01*
X5140Y1948D01*
X5141Y1950D01*
X5141Y1951D01*
X5142Y1953D01*
X5143Y1955D01*
X5164Y1951D01*
Y1951D01*
X5164Y1951D01*
X5164Y1950D01*
X5164Y1950D01*
X5163Y1949D01*
X5163Y1947D01*
X5161Y1945D01*
X5159Y1942D01*
X5157Y1939D01*
X5154Y1936D01*
X5151Y1934D01*
X5151D01*
X5151Y1933D01*
X5150Y1933D01*
X5150Y1933D01*
X5149Y1932D01*
X5148Y1932D01*
X5147Y1931D01*
X5145Y1930D01*
X5142Y1929D01*
X5138Y1928D01*
X5134Y1928D01*
X5129Y1927D01*
X5128D01*
X5127Y1928D01*
X5126D01*
X5124Y1928D01*
X5122Y1928D01*
X5120Y1928D01*
X5117Y1929D01*
X5115Y1930D01*
X5112Y1931D01*
X5109Y1932D01*
X5107Y1933D01*
X5104Y1935D01*
X5102Y1937D01*
X5100Y1939D01*
X5098Y1941D01*
X5097Y1941D01*
X5097Y1942D01*
X5097Y1942D01*
X5096Y1943D01*
X5096Y1944D01*
X5095Y1945D01*
X5094Y1947D01*
X5094Y1949D01*
X5093Y1951D01*
X5092Y1953D01*
X5091Y1955D01*
X5091Y1958D01*
X5091Y1960D01*
X5090Y1963D01*
X5090Y1966D01*
X5090Y1969D01*
Y1969D01*
Y1970D01*
Y1971D01*
X5090Y1973D01*
X5090Y1974D01*
X5090Y1976D01*
X5091Y1978D01*
X5091Y1981D01*
X5092Y1986D01*
X5093Y1988D01*
X5094Y1991D01*
X5095Y1994D01*
X5097Y1996D01*
X5098Y1998D01*
X5100Y2001D01*
X5100Y2001D01*
X5101Y2001D01*
X5101Y2002D01*
X5102Y2003D01*
X5103Y2003D01*
X5104Y2004D01*
X5106Y2005D01*
X5108Y2007D01*
X5109Y2008D01*
X5111Y2009D01*
X5114Y2010D01*
X5116Y2010D01*
X5118Y2011D01*
X5121Y2012D01*
X5124Y2012D01*
X5127Y2012D01*
X5129D01*
X5130Y2012D01*
D02*
G37*
G36*
X5414D02*
X5415D01*
X5416Y2012D01*
X5418Y2012D01*
X5420Y2011D01*
X5421Y2011D01*
X5423Y2010D01*
X5425Y2009D01*
X5427Y2008D01*
X5430Y2007D01*
X5432Y2005D01*
X5434Y2003D01*
X5436Y2001D01*
X5438Y1999D01*
Y2010D01*
X5458D01*
Y1937D01*
Y1937D01*
Y1937D01*
Y1936D01*
Y1935D01*
Y1934D01*
X5458Y1933D01*
X5457Y1929D01*
X5457Y1926D01*
X5457Y1922D01*
X5456Y1919D01*
X5456Y1917D01*
X5455Y1916D01*
X5455Y1916D01*
X5455Y1915D01*
X5454Y1914D01*
X5454Y1912D01*
X5453Y1910D01*
X5451Y1908D01*
X5450Y1906D01*
X5449Y1905D01*
X5448Y1905D01*
X5448Y1904D01*
X5447Y1903D01*
X5446Y1903D01*
X5444Y1902D01*
X5442Y1900D01*
X5440Y1899D01*
X5437Y1899D01*
X5437Y1898D01*
X5436Y1898D01*
X5434Y1898D01*
X5432Y1897D01*
X5430Y1897D01*
X5427Y1896D01*
X5423Y1896D01*
X5419Y1896D01*
X5417D01*
X5416Y1896D01*
X5414D01*
X5412Y1896D01*
X5410Y1897D01*
X5408Y1897D01*
X5403Y1898D01*
X5398Y1899D01*
X5396Y1900D01*
X5393Y1901D01*
X5392Y1902D01*
X5390Y1903D01*
X5390Y1903D01*
X5389Y1904D01*
X5388Y1905D01*
X5387Y1906D01*
X5386Y1908D01*
X5384Y1911D01*
X5382Y1914D01*
X5381Y1917D01*
X5381Y1919D01*
X5381Y1921D01*
Y1921D01*
Y1922D01*
Y1923D01*
X5381Y1924D01*
X5406Y1921D01*
Y1921D01*
X5406Y1920D01*
X5406Y1919D01*
X5406Y1919D01*
X5407Y1917D01*
X5408Y1916D01*
X5409Y1915D01*
X5409Y1915D01*
X5409Y1915D01*
X5410Y1914D01*
X5411Y1914D01*
X5412Y1913D01*
X5414Y1913D01*
X5416Y1913D01*
X5418Y1913D01*
X5420D01*
X5421Y1913D01*
X5423Y1913D01*
X5425Y1913D01*
X5427Y1914D01*
X5429Y1914D01*
X5431Y1915D01*
X5431Y1915D01*
X5431Y1916D01*
X5432Y1916D01*
X5433Y1916D01*
X5433Y1917D01*
X5434Y1918D01*
X5434Y1919D01*
X5435Y1921D01*
Y1921D01*
X5435Y1921D01*
X5435Y1922D01*
X5436Y1923D01*
X5436Y1924D01*
X5436Y1926D01*
X5436Y1928D01*
Y1930D01*
Y1942D01*
X5436Y1942D01*
X5436Y1942D01*
X5435Y1941D01*
X5434Y1940D01*
X5434Y1939D01*
X5433Y1938D01*
X5431Y1937D01*
X5430Y1936D01*
X5428Y1934D01*
X5426Y1933D01*
X5422Y1931D01*
X5420Y1930D01*
X5417Y1930D01*
X5415Y1929D01*
X5412Y1929D01*
X5411D01*
X5410Y1929D01*
X5409D01*
X5408Y1930D01*
X5406Y1930D01*
X5404Y1930D01*
X5403Y1931D01*
X5401Y1932D01*
X5398Y1933D01*
X5396Y1934D01*
X5394Y1935D01*
X5392Y1937D01*
X5390Y1938D01*
X5388Y1940D01*
X5386Y1943D01*
Y1943D01*
X5386Y1943D01*
X5385Y1944D01*
X5385Y1945D01*
X5384Y1946D01*
X5384Y1947D01*
X5383Y1949D01*
X5382Y1951D01*
X5382Y1952D01*
X5381Y1954D01*
X5380Y1957D01*
X5380Y1959D01*
X5379Y1964D01*
X5379Y1967D01*
X5379Y1970D01*
Y1970D01*
Y1971D01*
Y1972D01*
X5379Y1974D01*
X5379Y1975D01*
X5379Y1977D01*
X5379Y1979D01*
X5380Y1982D01*
X5381Y1987D01*
X5382Y1989D01*
X5383Y1992D01*
X5384Y1994D01*
X5385Y1997D01*
X5386Y1999D01*
X5388Y2001D01*
X5388Y2002D01*
X5389Y2002D01*
X5389Y2002D01*
X5390Y2003D01*
X5391Y2004D01*
X5392Y2005D01*
X5393Y2006D01*
X5395Y2007D01*
X5397Y2008D01*
X5399Y2009D01*
X5403Y2011D01*
X5405Y2011D01*
X5408Y2012D01*
X5410Y2012D01*
X5413Y2012D01*
X5413D01*
X5414Y2012D01*
D02*
G37*
G36*
X4524Y1860D02*
X4519D01*
Y1864D01*
X4519Y1864D01*
X4519Y1864D01*
X4519Y1864D01*
X4519Y1864D01*
X4518Y1863D01*
X4518Y1863D01*
X4518Y1862D01*
X4517Y1862D01*
X4516Y1861D01*
X4516Y1861D01*
X4515Y1861D01*
X4514Y1860D01*
X4513Y1860D01*
X4512Y1860D01*
X4511Y1860D01*
X4510Y1860D01*
X4510D01*
X4510Y1860D01*
X4509Y1860D01*
X4508Y1860D01*
X4507Y1860D01*
X4506Y1860D01*
X4504Y1861D01*
X4503Y1862D01*
X4503D01*
X4503Y1862D01*
X4503Y1862D01*
X4502Y1863D01*
X4501Y1863D01*
X4500Y1864D01*
X4500Y1865D01*
X4499Y1866D01*
X4498Y1868D01*
Y1868D01*
X4498Y1868D01*
X4498Y1868D01*
X4498Y1868D01*
X4498Y1869D01*
X4497Y1869D01*
X4497Y1870D01*
X4497Y1870D01*
X4497Y1871D01*
X4497Y1873D01*
X4496Y1875D01*
X4496Y1876D01*
Y1877D01*
Y1877D01*
Y1877D01*
Y1877D01*
X4496Y1878D01*
Y1878D01*
X4496Y1879D01*
X4497Y1881D01*
X4497Y1882D01*
X4497Y1884D01*
X4498Y1885D01*
Y1885D01*
X4498Y1885D01*
X4498Y1886D01*
X4498Y1886D01*
X4499Y1887D01*
X4499Y1888D01*
X4500Y1888D01*
X4501Y1889D01*
X4502Y1890D01*
X4503Y1891D01*
X4503D01*
X4503Y1891D01*
X4503Y1892D01*
X4503Y1892D01*
X4504Y1892D01*
X4505Y1892D01*
X4506Y1893D01*
X4507Y1893D01*
X4509Y1893D01*
X4510Y1893D01*
X4510D01*
X4511Y1893D01*
X4512Y1893D01*
X4513Y1893D01*
X4513Y1893D01*
X4514Y1893D01*
X4515Y1892D01*
X4515Y1892D01*
X4516Y1892D01*
X4516Y1892D01*
X4516Y1891D01*
X4517Y1891D01*
X4518Y1890D01*
X4518Y1890D01*
X4519Y1889D01*
Y1905D01*
X4524D01*
Y1860D01*
D02*
G37*
G36*
X4805Y2012D02*
X4806D01*
X4807Y2012D01*
X4808Y2012D01*
X4810Y2011D01*
X4812Y2011D01*
X4814Y2010D01*
X4816Y2009D01*
X4818Y2008D01*
X4820Y2007D01*
X4822Y2005D01*
X4824Y2003D01*
X4826Y2001D01*
X4828Y1999D01*
Y2010D01*
X4848D01*
Y1937D01*
Y1937D01*
Y1937D01*
Y1936D01*
Y1935D01*
Y1934D01*
X4848Y1933D01*
X4848Y1929D01*
X4848Y1926D01*
X4847Y1922D01*
X4847Y1919D01*
X4846Y1917D01*
X4846Y1916D01*
X4846Y1916D01*
X4845Y1915D01*
X4845Y1914D01*
X4844Y1912D01*
X4843Y1910D01*
X4842Y1908D01*
X4841Y1906D01*
X4839Y1905D01*
X4839Y1905D01*
X4838Y1904D01*
X4837Y1903D01*
X4836Y1903D01*
X4834Y1902D01*
X4832Y1900D01*
X4830Y1899D01*
X4828Y1899D01*
X4827Y1898D01*
X4826Y1898D01*
X4825Y1898D01*
X4823Y1897D01*
X4820Y1897D01*
X4817Y1896D01*
X4813Y1896D01*
X4809Y1896D01*
X4808D01*
X4806Y1896D01*
X4804D01*
X4802Y1896D01*
X4800Y1897D01*
X4798Y1897D01*
X4793Y1898D01*
X4788Y1899D01*
X4786Y1900D01*
X4784Y1901D01*
X4782Y1902D01*
X4780Y1903D01*
X4780Y1903D01*
X4780Y1904D01*
X4779Y1905D01*
X4777Y1906D01*
X4776Y1908D01*
X4774Y1911D01*
X4773Y1914D01*
X4772Y1917D01*
X4772Y1919D01*
X4772Y1921D01*
Y1921D01*
Y1922D01*
Y1923D01*
X4772Y1924D01*
X4796Y1921D01*
Y1921D01*
X4796Y1920D01*
X4797Y1919D01*
X4797Y1919D01*
X4798Y1917D01*
X4798Y1916D01*
X4799Y1915D01*
X4799Y1915D01*
X4800Y1915D01*
X4800Y1914D01*
X4802Y1914D01*
X4803Y1913D01*
X4804Y1913D01*
X4806Y1913D01*
X4809Y1913D01*
X4810D01*
X4812Y1913D01*
X4813Y1913D01*
X4815Y1913D01*
X4818Y1914D01*
X4819Y1914D01*
X4821Y1915D01*
X4821Y1915D01*
X4822Y1916D01*
X4822Y1916D01*
X4823Y1916D01*
X4824Y1917D01*
X4824Y1918D01*
X4825Y1919D01*
X4825Y1921D01*
Y1921D01*
X4826Y1921D01*
X4826Y1922D01*
X4826Y1923D01*
X4826Y1924D01*
X4826Y1926D01*
X4827Y1928D01*
Y1930D01*
Y1942D01*
X4826Y1942D01*
X4826Y1942D01*
X4826Y1941D01*
X4825Y1940D01*
X4824Y1939D01*
X4823Y1938D01*
X4821Y1937D01*
X4820Y1936D01*
X4818Y1934D01*
X4816Y1933D01*
X4812Y1931D01*
X4810Y1930D01*
X4808Y1930D01*
X4805Y1929D01*
X4802Y1929D01*
X4802D01*
X4801Y1929D01*
X4800D01*
X4798Y1930D01*
X4797Y1930D01*
X4795Y1930D01*
X4793Y1931D01*
X4791Y1932D01*
X4789Y1933D01*
X4787Y1934D01*
X4785Y1935D01*
X4782Y1937D01*
X4780Y1938D01*
X4778Y1940D01*
X4776Y1943D01*
Y1943D01*
X4776Y1943D01*
X4776Y1944D01*
X4775Y1945D01*
X4775Y1946D01*
X4774Y1947D01*
X4773Y1949D01*
X4773Y1951D01*
X4772Y1952D01*
X4771Y1954D01*
X4771Y1957D01*
X4770Y1959D01*
X4769Y1964D01*
X4769Y1967D01*
X4769Y1970D01*
Y1970D01*
Y1971D01*
Y1972D01*
X4769Y1974D01*
X4769Y1975D01*
X4769Y1977D01*
X4770Y1979D01*
X4770Y1982D01*
X4771Y1987D01*
X4772Y1989D01*
X4773Y1992D01*
X4774Y1994D01*
X4775Y1997D01*
X4777Y1999D01*
X4779Y2001D01*
X4779Y2002D01*
X4779Y2002D01*
X4780Y2002D01*
X4780Y2003D01*
X4781Y2004D01*
X4783Y2005D01*
X4784Y2006D01*
X4785Y2007D01*
X4787Y2008D01*
X4789Y2009D01*
X4793Y2011D01*
X4796Y2011D01*
X4798Y2012D01*
X4801Y2012D01*
X4803Y2012D01*
X4804D01*
X4805Y2012D01*
D02*
G37*
G36*
X4265Y1929D02*
X4242D01*
Y2041D01*
X4265D01*
Y1929D01*
D02*
G37*
G36*
X5265D02*
X5244D01*
Y2010D01*
X5265D01*
Y1929D01*
D02*
G37*
G36*
X4394D02*
X4373D01*
X4373Y2017D01*
X4351Y1929D01*
X4329D01*
X4307Y2017D01*
Y1929D01*
X4286D01*
Y2041D01*
X4320D01*
X4340Y1965D01*
X4360Y2041D01*
X4394D01*
Y1929D01*
D02*
G37*
G36*
X4891D02*
X4869D01*
Y2010D01*
X4891D01*
Y1929D01*
D02*
G37*
G36*
X4469Y2041D02*
X4471D01*
X4473Y2041D01*
X4475D01*
X4479Y2040D01*
X4483Y2040D01*
X4487Y2039D01*
X4489Y2039D01*
X4491Y2038D01*
X4491D01*
X4491Y2038D01*
X4492Y2038D01*
X4494Y2037D01*
X4495Y2036D01*
X4498Y2034D01*
X4500Y2032D01*
X4502Y2030D01*
X4504Y2027D01*
Y2027D01*
X4504Y2027D01*
X4504Y2026D01*
X4505Y2026D01*
X4505Y2024D01*
X4506Y2022D01*
X4507Y2020D01*
X4508Y2017D01*
X4509Y2013D01*
X4509Y2010D01*
Y2010D01*
Y2009D01*
Y2009D01*
X4509Y2008D01*
Y2007D01*
X4508Y2005D01*
X4508Y2003D01*
X4507Y1999D01*
X4506Y1996D01*
X4504Y1992D01*
X4503Y1991D01*
X4501Y1989D01*
X4501Y1989D01*
X4501Y1989D01*
X4501Y1988D01*
X4500Y1988D01*
X4499Y1987D01*
X4498Y1986D01*
X4497Y1985D01*
X4496Y1985D01*
X4494Y1984D01*
X4493Y1983D01*
X4491Y1982D01*
X4489Y1981D01*
X4487Y1980D01*
X4484Y1980D01*
X4482Y1979D01*
X4479Y1979D01*
X4479D01*
X4479Y1978D01*
X4480Y1978D01*
X4482Y1977D01*
X4483Y1976D01*
X4485Y1974D01*
X4487Y1973D01*
X4489Y1971D01*
X4491Y1969D01*
X4491Y1969D01*
X4492Y1968D01*
X4493Y1967D01*
X4495Y1965D01*
X4496Y1963D01*
X4497Y1961D01*
X4499Y1959D01*
X4500Y1957D01*
X4501Y1956D01*
X4503Y1953D01*
X4504Y1951D01*
X4518Y1929D01*
X4491D01*
X4474Y1953D01*
X4474Y1954D01*
X4474Y1954D01*
X4474Y1955D01*
X4473Y1956D01*
X4472Y1957D01*
X4472Y1958D01*
X4470Y1960D01*
X4468Y1963D01*
X4466Y1966D01*
X4464Y1968D01*
X4463Y1969D01*
X4462Y1970D01*
X4462Y1970D01*
X4462Y1970D01*
X4461Y1971D01*
X4461Y1972D01*
X4459Y1973D01*
X4458Y1973D01*
X4457Y1974D01*
X4456Y1975D01*
X4455D01*
X4455Y1975D01*
X4454Y1975D01*
X4453Y1975D01*
X4451Y1976D01*
X4449Y1976D01*
X4447Y1976D01*
X4440D01*
Y1929D01*
X4417D01*
Y2041D01*
X4468D01*
X4469Y2041D01*
D02*
G37*
G36*
X4657Y2022D02*
X4596D01*
Y1997D01*
X4653D01*
Y1979D01*
X4596D01*
Y1948D01*
X4659D01*
Y1929D01*
X4574D01*
Y2041D01*
X4657D01*
Y2022D01*
D02*
G37*
G36*
X4284Y1860D02*
X4279D01*
Y1864D01*
X4279Y1864D01*
X4279Y1864D01*
X4279Y1864D01*
X4278Y1864D01*
X4278Y1863D01*
X4278Y1863D01*
X4277Y1862D01*
X4277Y1862D01*
X4276Y1861D01*
X4275Y1861D01*
X4275Y1861D01*
X4274Y1860D01*
X4273Y1860D01*
X4272Y1860D01*
X4271Y1860D01*
X4270Y1860D01*
X4269D01*
X4269Y1860D01*
X4268Y1860D01*
X4267Y1860D01*
X4266Y1860D01*
X4265Y1860D01*
X4264Y1861D01*
X4263Y1862D01*
X4263D01*
X4262Y1862D01*
X4262Y1862D01*
X4262Y1863D01*
X4261Y1863D01*
X4260Y1864D01*
X4259Y1865D01*
X4258Y1866D01*
X4258Y1868D01*
Y1868D01*
X4257Y1868D01*
X4257Y1868D01*
X4257Y1868D01*
X4257Y1869D01*
X4257Y1869D01*
X4257Y1870D01*
X4257Y1870D01*
X4256Y1871D01*
X4256Y1873D01*
X4256Y1875D01*
X4256Y1876D01*
Y1877D01*
Y1877D01*
Y1877D01*
Y1877D01*
X4256Y1878D01*
Y1878D01*
X4256Y1879D01*
X4256Y1881D01*
X4257Y1882D01*
X4257Y1884D01*
X4257Y1885D01*
Y1885D01*
X4257Y1885D01*
X4258Y1886D01*
X4258Y1886D01*
X4258Y1887D01*
X4259Y1888D01*
X4259Y1888D01*
X4260Y1889D01*
X4261Y1890D01*
X4262Y1891D01*
X4262D01*
X4262Y1891D01*
X4263Y1892D01*
X4263Y1892D01*
X4264Y1892D01*
X4264Y1892D01*
X4265Y1893D01*
X4267Y1893D01*
X4268Y1893D01*
X4269Y1893D01*
X4270D01*
X4271Y1893D01*
X4271Y1893D01*
X4272Y1893D01*
X4273Y1893D01*
X4274Y1893D01*
X4275Y1892D01*
X4275Y1892D01*
X4275Y1892D01*
X4275Y1892D01*
X4276Y1891D01*
X4277Y1891D01*
X4277Y1890D01*
X4278Y1890D01*
X4278Y1889D01*
Y1905D01*
X4284D01*
Y1860D01*
D02*
G37*
G36*
X4248D02*
X4242D01*
Y1905D01*
X4248D01*
Y1860D01*
D02*
G37*
G36*
X4343Y1893D02*
X4344Y1893D01*
X4345Y1893D01*
X4346Y1893D01*
X4347Y1893D01*
X4348Y1892D01*
X4348Y1892D01*
X4349Y1892D01*
X4349Y1892D01*
X4350Y1892D01*
X4350Y1891D01*
X4351Y1891D01*
X4351Y1890D01*
X4352Y1890D01*
X4352Y1890D01*
X4352Y1890D01*
X4352Y1889D01*
X4353Y1889D01*
X4353Y1888D01*
X4353Y1888D01*
X4353Y1887D01*
X4354Y1886D01*
Y1886D01*
X4354Y1886D01*
X4354Y1886D01*
X4354Y1885D01*
Y1884D01*
X4354Y1884D01*
X4354Y1882D01*
Y1881D01*
Y1874D01*
Y1874D01*
Y1874D01*
Y1873D01*
Y1873D01*
Y1872D01*
Y1871D01*
X4354Y1870D01*
Y1868D01*
X4354Y1867D01*
X4354Y1866D01*
Y1865D01*
X4354Y1865D01*
X4354Y1864D01*
Y1864D01*
X4354Y1864D01*
X4354Y1863D01*
X4355Y1863D01*
X4355Y1862D01*
X4355Y1862D01*
X4355Y1861D01*
X4356Y1860D01*
X4350D01*
X4350Y1860D01*
X4350Y1861D01*
X4350Y1861D01*
X4349Y1861D01*
X4349Y1862D01*
X4349Y1863D01*
X4349Y1863D01*
X4349Y1864D01*
X4349D01*
X4349Y1864D01*
X4348Y1864D01*
X4348Y1863D01*
X4347Y1863D01*
X4346Y1862D01*
X4345Y1862D01*
X4344Y1861D01*
X4343Y1861D01*
X4343Y1860D01*
X4342Y1860D01*
X4342Y1860D01*
X4341Y1860D01*
X4340Y1860D01*
X4339Y1860D01*
X4338Y1860D01*
X4337Y1860D01*
X4336D01*
X4336Y1860D01*
X4335D01*
X4335Y1860D01*
X4334Y1860D01*
X4332Y1860D01*
X4331Y1861D01*
X4330Y1861D01*
X4329Y1862D01*
X4328Y1862D01*
X4328Y1863D01*
X4328Y1863D01*
X4327Y1864D01*
X4327Y1865D01*
X4326Y1866D01*
X4326Y1867D01*
X4326Y1868D01*
X4326Y1869D01*
Y1869D01*
Y1869D01*
X4326Y1870D01*
X4326Y1870D01*
X4326Y1871D01*
X4326Y1872D01*
X4326Y1872D01*
X4327Y1873D01*
X4327Y1873D01*
X4327Y1873D01*
X4327Y1874D01*
X4328Y1874D01*
X4328Y1875D01*
X4328Y1875D01*
X4329Y1876D01*
X4330Y1876D01*
X4330Y1876D01*
X4330Y1877D01*
X4330Y1877D01*
X4331Y1877D01*
X4331Y1877D01*
X4332Y1878D01*
X4333Y1878D01*
X4334Y1878D01*
X4334D01*
X4334Y1878D01*
X4334Y1878D01*
X4335Y1878D01*
X4336Y1879D01*
X4336Y1879D01*
X4337Y1879D01*
X4338Y1879D01*
X4339D01*
X4339Y1879D01*
X4339D01*
X4340Y1879D01*
X4340Y1879D01*
X4341Y1879D01*
X4341Y1879D01*
X4342Y1879D01*
X4344Y1880D01*
X4345Y1880D01*
X4347Y1881D01*
X4348Y1881D01*
X4348Y1881D01*
Y1881D01*
Y1881D01*
X4348Y1881D01*
Y1882D01*
Y1882D01*
Y1882D01*
Y1882D01*
Y1882D01*
Y1883D01*
X4348Y1883D01*
X4348Y1884D01*
X4348Y1885D01*
X4348Y1886D01*
X4347Y1886D01*
X4347Y1887D01*
X4347Y1887D01*
X4346Y1887D01*
X4346Y1888D01*
X4345Y1888D01*
X4344Y1888D01*
X4343Y1889D01*
X4342Y1889D01*
X4340Y1889D01*
X4340D01*
X4339Y1889D01*
X4338Y1889D01*
X4337Y1889D01*
X4336Y1888D01*
X4336Y1888D01*
X4335Y1888D01*
X4335Y1888D01*
X4334Y1887D01*
X4334Y1887D01*
X4334Y1886D01*
X4333Y1886D01*
X4333Y1885D01*
X4332Y1884D01*
X4332Y1883D01*
X4327Y1883D01*
Y1884D01*
X4327Y1884D01*
Y1884D01*
X4327Y1884D01*
X4327Y1885D01*
X4327Y1886D01*
X4328Y1886D01*
X4328Y1887D01*
X4329Y1888D01*
X4329Y1889D01*
X4329Y1889D01*
X4329Y1889D01*
X4330Y1890D01*
X4330Y1890D01*
X4331Y1891D01*
X4332Y1891D01*
X4333Y1892D01*
X4334Y1892D01*
X4334D01*
X4334Y1892D01*
X4334Y1892D01*
X4335Y1893D01*
X4335Y1893D01*
X4336Y1893D01*
X4337Y1893D01*
X4338Y1893D01*
X4340Y1893D01*
X4341Y1893D01*
X4342D01*
X4343Y1893D01*
D02*
G37*
G36*
X4645D02*
X4646Y1893D01*
X4646Y1893D01*
X4647Y1893D01*
X4648Y1893D01*
X4649Y1893D01*
X4650Y1892D01*
X4650Y1892D01*
X4651Y1892D01*
X4652Y1891D01*
X4653Y1890D01*
X4654Y1890D01*
X4655Y1889D01*
X4655Y1889D01*
X4655Y1889D01*
X4655Y1889D01*
X4655Y1888D01*
X4656Y1888D01*
X4656Y1887D01*
X4656Y1887D01*
X4657Y1886D01*
X4657Y1885D01*
X4658Y1884D01*
X4658Y1883D01*
X4658Y1882D01*
X4658Y1881D01*
X4659Y1879D01*
X4659Y1878D01*
X4659Y1877D01*
Y1876D01*
Y1876D01*
Y1876D01*
X4659Y1875D01*
X4634D01*
Y1875D01*
Y1875D01*
X4635Y1875D01*
Y1874D01*
X4635Y1874D01*
X4635Y1873D01*
X4635Y1872D01*
X4635Y1871D01*
X4636Y1869D01*
X4637Y1868D01*
X4637Y1867D01*
X4638D01*
X4638Y1867D01*
X4638Y1866D01*
X4639Y1866D01*
X4639Y1865D01*
X4640Y1865D01*
X4642Y1865D01*
X4643Y1864D01*
X4644Y1864D01*
X4644Y1864D01*
X4645D01*
X4645Y1864D01*
X4646Y1864D01*
X4647Y1864D01*
X4648Y1865D01*
X4649Y1865D01*
X4650Y1866D01*
X4650Y1866D01*
X4650Y1866D01*
X4650Y1866D01*
X4651Y1867D01*
X4651Y1868D01*
X4652Y1868D01*
X4652Y1870D01*
X4653Y1871D01*
X4659Y1870D01*
Y1870D01*
X4659Y1870D01*
X4659Y1870D01*
X4658Y1869D01*
X4658Y1869D01*
X4658Y1868D01*
X4657Y1867D01*
X4657Y1866D01*
X4656Y1865D01*
X4655Y1863D01*
X4654Y1862D01*
X4654D01*
X4653Y1862D01*
X4653Y1862D01*
X4653Y1862D01*
X4653Y1862D01*
X4652Y1861D01*
X4652Y1861D01*
X4651Y1861D01*
X4650Y1861D01*
X4650Y1860D01*
X4648Y1860D01*
X4646Y1860D01*
X4644Y1860D01*
X4644D01*
X4643Y1860D01*
X4643Y1860D01*
X4642Y1860D01*
X4641Y1860D01*
X4640Y1860D01*
X4638Y1861D01*
X4637Y1861D01*
X4637Y1861D01*
X4636Y1862D01*
X4635Y1862D01*
X4634Y1863D01*
X4633Y1864D01*
X4633Y1864D01*
X4633Y1864D01*
X4633Y1864D01*
X4632Y1865D01*
X4632Y1865D01*
X4632Y1866D01*
X4631Y1866D01*
X4631Y1867D01*
X4631Y1868D01*
X4630Y1869D01*
X4630Y1870D01*
X4629Y1871D01*
X4629Y1872D01*
X4629Y1873D01*
X4629Y1875D01*
X4629Y1876D01*
Y1876D01*
Y1877D01*
Y1877D01*
X4629Y1878D01*
X4629Y1878D01*
X4629Y1879D01*
X4629Y1880D01*
X4629Y1881D01*
X4630Y1883D01*
X4630Y1884D01*
X4631Y1885D01*
X4631Y1886D01*
X4632Y1887D01*
X4632Y1888D01*
X4633Y1889D01*
X4633Y1889D01*
X4633Y1889D01*
X4634Y1889D01*
X4634Y1890D01*
X4634Y1890D01*
X4635Y1890D01*
X4635Y1891D01*
X4636Y1891D01*
X4637Y1892D01*
X4638Y1892D01*
X4639Y1892D01*
X4639Y1893D01*
X4641Y1893D01*
X4642Y1893D01*
X4643Y1893D01*
X4644Y1893D01*
X4645D01*
X4645Y1893D01*
D02*
G37*
G36*
X4307D02*
X4308Y1893D01*
X4308Y1893D01*
X4309Y1893D01*
X4310Y1893D01*
X4311Y1893D01*
X4312Y1892D01*
X4312Y1892D01*
X4313Y1892D01*
X4314Y1891D01*
X4315Y1890D01*
X4316Y1890D01*
X4317Y1889D01*
X4317Y1889D01*
X4317Y1889D01*
X4317Y1889D01*
X4317Y1888D01*
X4318Y1888D01*
X4318Y1887D01*
X4318Y1887D01*
X4319Y1886D01*
X4319Y1885D01*
X4320Y1884D01*
X4320Y1883D01*
X4320Y1882D01*
X4320Y1881D01*
X4321Y1879D01*
X4321Y1878D01*
X4321Y1877D01*
Y1876D01*
Y1876D01*
Y1876D01*
X4321Y1875D01*
X4296D01*
Y1875D01*
Y1875D01*
X4297Y1875D01*
Y1874D01*
X4297Y1874D01*
X4297Y1873D01*
X4297Y1872D01*
X4297Y1871D01*
X4298Y1869D01*
X4299Y1868D01*
X4299Y1867D01*
X4300D01*
X4300Y1867D01*
X4300Y1866D01*
X4301Y1866D01*
X4301Y1865D01*
X4302Y1865D01*
X4304Y1865D01*
X4305Y1864D01*
X4306Y1864D01*
X4306Y1864D01*
X4307D01*
X4307Y1864D01*
X4308Y1864D01*
X4309Y1864D01*
X4310Y1865D01*
X4311Y1865D01*
X4312Y1866D01*
X4312Y1866D01*
X4312Y1866D01*
X4312Y1866D01*
X4313Y1867D01*
X4313Y1868D01*
X4314Y1868D01*
X4314Y1870D01*
X4315Y1871D01*
X4321Y1870D01*
Y1870D01*
X4321Y1870D01*
X4321Y1870D01*
X4320Y1869D01*
X4320Y1869D01*
X4320Y1868D01*
X4319Y1867D01*
X4319Y1866D01*
X4318Y1865D01*
X4317Y1863D01*
X4316Y1862D01*
X4316D01*
X4315Y1862D01*
X4315Y1862D01*
X4315Y1862D01*
X4315Y1862D01*
X4314Y1861D01*
X4314Y1861D01*
X4313Y1861D01*
X4312Y1861D01*
X4312Y1860D01*
X4310Y1860D01*
X4308Y1860D01*
X4306Y1860D01*
X4306D01*
X4305Y1860D01*
X4305Y1860D01*
X4304Y1860D01*
X4303Y1860D01*
X4302Y1860D01*
X4300Y1861D01*
X4299Y1861D01*
X4299Y1861D01*
X4298Y1862D01*
X4297Y1862D01*
X4296Y1863D01*
X4295Y1864D01*
X4295Y1864D01*
X4295Y1864D01*
X4295Y1864D01*
X4294Y1865D01*
X4294Y1865D01*
X4294Y1866D01*
X4293Y1866D01*
X4293Y1867D01*
X4293Y1868D01*
X4292Y1869D01*
X4292Y1870D01*
X4292Y1871D01*
X4291Y1872D01*
X4291Y1873D01*
X4291Y1875D01*
X4291Y1876D01*
Y1876D01*
Y1877D01*
Y1877D01*
X4291Y1878D01*
X4291Y1878D01*
X4291Y1879D01*
X4291Y1880D01*
X4291Y1881D01*
X4292Y1883D01*
X4292Y1884D01*
X4293Y1885D01*
X4293Y1886D01*
X4294Y1887D01*
X4294Y1888D01*
X4295Y1889D01*
X4295Y1889D01*
X4295Y1889D01*
X4296Y1889D01*
X4296Y1890D01*
X4296Y1890D01*
X4297Y1890D01*
X4297Y1891D01*
X4298Y1891D01*
X4299Y1892D01*
X4300Y1892D01*
X4301Y1892D01*
X4301Y1893D01*
X4303Y1893D01*
X4304Y1893D01*
X4305Y1893D01*
X4306Y1893D01*
X4307D01*
X4307Y1893D01*
D02*
G37*
G36*
X4548D02*
X4548Y1893D01*
X4549Y1893D01*
X4549Y1893D01*
X4550Y1893D01*
X4551Y1893D01*
X4552Y1892D01*
X4553Y1892D01*
X4554Y1892D01*
X4555Y1891D01*
X4556Y1890D01*
X4556Y1890D01*
X4557Y1889D01*
X4557Y1889D01*
X4557Y1889D01*
X4558Y1889D01*
X4558Y1888D01*
X4558Y1888D01*
X4558Y1887D01*
X4559Y1887D01*
X4559Y1886D01*
X4560Y1885D01*
X4560Y1884D01*
X4560Y1883D01*
X4561Y1882D01*
X4561Y1881D01*
X4561Y1879D01*
X4561Y1878D01*
X4561Y1877D01*
Y1876D01*
Y1876D01*
Y1876D01*
X4561Y1875D01*
X4537D01*
Y1875D01*
Y1875D01*
X4537Y1875D01*
Y1874D01*
X4537Y1874D01*
X4537Y1873D01*
X4537Y1872D01*
X4538Y1871D01*
X4538Y1869D01*
X4539Y1868D01*
X4540Y1867D01*
X4540D01*
X4540Y1867D01*
X4540Y1866D01*
X4541Y1866D01*
X4542Y1865D01*
X4543Y1865D01*
X4544Y1865D01*
X4545Y1864D01*
X4546Y1864D01*
X4547Y1864D01*
X4547D01*
X4548Y1864D01*
X4549Y1864D01*
X4549Y1864D01*
X4550Y1865D01*
X4551Y1865D01*
X4552Y1866D01*
X4552Y1866D01*
X4552Y1866D01*
X4553Y1866D01*
X4553Y1867D01*
X4554Y1868D01*
X4554Y1868D01*
X4555Y1870D01*
X4555Y1871D01*
X4561Y1870D01*
Y1870D01*
X4561Y1870D01*
X4561Y1870D01*
X4561Y1869D01*
X4561Y1869D01*
X4560Y1868D01*
X4560Y1867D01*
X4559Y1866D01*
X4558Y1865D01*
X4557Y1863D01*
X4556Y1862D01*
X4556D01*
X4556Y1862D01*
X4556Y1862D01*
X4555Y1862D01*
X4555Y1862D01*
X4555Y1861D01*
X4554Y1861D01*
X4554Y1861D01*
X4553Y1861D01*
X4552Y1860D01*
X4551Y1860D01*
X4549Y1860D01*
X4547Y1860D01*
X4546D01*
X4546Y1860D01*
X4545Y1860D01*
X4544Y1860D01*
X4544Y1860D01*
X4543Y1860D01*
X4541Y1861D01*
X4540Y1861D01*
X4539Y1861D01*
X4538Y1862D01*
X4537Y1862D01*
X4536Y1863D01*
X4535Y1864D01*
X4535Y1864D01*
X4535Y1864D01*
X4535Y1864D01*
X4535Y1865D01*
X4535Y1865D01*
X4534Y1866D01*
X4534Y1866D01*
X4533Y1867D01*
X4533Y1868D01*
X4533Y1869D01*
X4532Y1870D01*
X4532Y1871D01*
X4532Y1872D01*
X4532Y1873D01*
X4531Y1875D01*
X4531Y1876D01*
Y1876D01*
Y1877D01*
Y1877D01*
X4531Y1878D01*
X4531Y1878D01*
X4532Y1879D01*
X4532Y1880D01*
X4532Y1881D01*
X4532Y1883D01*
X4533Y1884D01*
X4533Y1885D01*
X4534Y1886D01*
X4534Y1887D01*
X4535Y1888D01*
X4536Y1889D01*
X4536Y1889D01*
X4536Y1889D01*
X4536Y1889D01*
X4536Y1890D01*
X4537Y1890D01*
X4537Y1890D01*
X4538Y1891D01*
X4539Y1891D01*
X4539Y1892D01*
X4540Y1892D01*
X4541Y1892D01*
X4542Y1893D01*
X4543Y1893D01*
X4544Y1893D01*
X4545Y1893D01*
X4546Y1893D01*
X4547D01*
X4548Y1893D01*
D02*
G37*
G36*
X4479D02*
X4480Y1893D01*
X4481Y1893D01*
X4482Y1893D01*
X4483Y1893D01*
X4484Y1892D01*
X4484Y1892D01*
X4484Y1892D01*
X4485Y1892D01*
X4485Y1892D01*
X4486Y1891D01*
X4487Y1891D01*
X4487Y1890D01*
X4488Y1890D01*
X4488Y1890D01*
X4488Y1890D01*
X4488Y1889D01*
X4488Y1889D01*
X4489Y1888D01*
X4489Y1888D01*
X4489Y1887D01*
X4490Y1886D01*
Y1886D01*
X4490Y1886D01*
X4490Y1886D01*
X4490Y1885D01*
Y1884D01*
X4490Y1884D01*
X4490Y1882D01*
Y1881D01*
Y1874D01*
Y1874D01*
Y1874D01*
Y1873D01*
Y1873D01*
Y1872D01*
Y1871D01*
X4490Y1870D01*
Y1868D01*
X4490Y1867D01*
X4490Y1866D01*
Y1865D01*
X4490Y1865D01*
X4490Y1864D01*
Y1864D01*
X4490Y1864D01*
X4490Y1863D01*
X4491Y1863D01*
X4491Y1862D01*
X4491Y1862D01*
X4491Y1861D01*
X4492Y1860D01*
X4486D01*
X4486Y1860D01*
X4486Y1861D01*
X4486Y1861D01*
X4485Y1861D01*
X4485Y1862D01*
X4485Y1863D01*
X4485Y1863D01*
X4485Y1864D01*
X4485D01*
X4485Y1864D01*
X4484Y1864D01*
X4484Y1863D01*
X4483Y1863D01*
X4482Y1862D01*
X4481Y1862D01*
X4480Y1861D01*
X4479Y1861D01*
X4479Y1860D01*
X4478Y1860D01*
X4478Y1860D01*
X4477Y1860D01*
X4476Y1860D01*
X4475Y1860D01*
X4474Y1860D01*
X4473Y1860D01*
X4472D01*
X4472Y1860D01*
X4471D01*
X4471Y1860D01*
X4470Y1860D01*
X4468Y1860D01*
X4467Y1861D01*
X4466Y1861D01*
X4464Y1862D01*
X4464Y1862D01*
X4464Y1863D01*
X4464Y1863D01*
X4463Y1864D01*
X4463Y1865D01*
X4462Y1866D01*
X4462Y1867D01*
X4462Y1868D01*
X4462Y1869D01*
Y1869D01*
Y1869D01*
X4462Y1870D01*
X4462Y1870D01*
X4462Y1871D01*
X4462Y1872D01*
X4462Y1872D01*
X4463Y1873D01*
X4463Y1873D01*
X4463Y1873D01*
X4463Y1874D01*
X4463Y1874D01*
X4464Y1875D01*
X4464Y1875D01*
X4465Y1876D01*
X4465Y1876D01*
X4466Y1876D01*
X4466Y1877D01*
X4466Y1877D01*
X4467Y1877D01*
X4467Y1877D01*
X4468Y1878D01*
X4469Y1878D01*
X4470Y1878D01*
X4470D01*
X4470Y1878D01*
X4470Y1878D01*
X4471Y1878D01*
X4471Y1879D01*
X4472Y1879D01*
X4473Y1879D01*
X4474Y1879D01*
X4474D01*
X4475Y1879D01*
X4475D01*
X4475Y1879D01*
X4476Y1879D01*
X4477Y1879D01*
X4477Y1879D01*
X4478Y1879D01*
X4480Y1880D01*
X4481Y1880D01*
X4483Y1881D01*
X4484Y1881D01*
X4484Y1881D01*
Y1881D01*
Y1881D01*
X4484Y1881D01*
Y1882D01*
Y1882D01*
Y1882D01*
Y1882D01*
Y1882D01*
Y1883D01*
X4484Y1883D01*
X4484Y1884D01*
X4484Y1885D01*
X4484Y1886D01*
X4483Y1886D01*
X4483Y1887D01*
X4483Y1887D01*
X4482Y1887D01*
X4482Y1888D01*
X4481Y1888D01*
X4480Y1888D01*
X4479Y1889D01*
X4478Y1889D01*
X4476Y1889D01*
X4476D01*
X4475Y1889D01*
X4474Y1889D01*
X4473Y1889D01*
X4472Y1888D01*
X4471Y1888D01*
X4471Y1888D01*
X4471Y1888D01*
X4470Y1887D01*
X4470Y1887D01*
X4470Y1886D01*
X4469Y1886D01*
X4469Y1885D01*
X4468Y1884D01*
X4468Y1883D01*
X4463Y1883D01*
Y1884D01*
X4463Y1884D01*
Y1884D01*
X4463Y1884D01*
X4463Y1885D01*
X4463Y1886D01*
X4463Y1886D01*
X4464Y1887D01*
X4464Y1888D01*
X4465Y1889D01*
X4465Y1889D01*
X4465Y1889D01*
X4466Y1890D01*
X4466Y1890D01*
X4467Y1891D01*
X4468Y1891D01*
X4469Y1892D01*
X4470Y1892D01*
X4470D01*
X4470Y1892D01*
X4470Y1892D01*
X4470Y1893D01*
X4471Y1893D01*
X4472Y1893D01*
X4473Y1893D01*
X4474Y1893D01*
X4476Y1893D01*
X4477Y1893D01*
X4478D01*
X4479Y1893D01*
D02*
G37*
G36*
X4455Y1860D02*
X4449D01*
Y1898D01*
X4436Y1860D01*
X4430D01*
X4417Y1898D01*
Y1860D01*
X4412D01*
Y1905D01*
X4421D01*
X4431Y1873D01*
Y1873D01*
X4431Y1873D01*
X4431Y1873D01*
X4432Y1873D01*
X4432Y1872D01*
X4432Y1871D01*
X4432Y1870D01*
X4433Y1869D01*
X4433Y1868D01*
X4433Y1867D01*
X4433Y1867D01*
X4434Y1867D01*
X4434Y1868D01*
X4434Y1868D01*
X4434Y1870D01*
X4435Y1871D01*
X4435Y1872D01*
X4436Y1874D01*
X4447Y1905D01*
X4455D01*
Y1860D01*
D02*
G37*
G36*
X4374Y1893D02*
X4375Y1893D01*
X4376Y1893D01*
X4378Y1893D01*
X4379Y1893D01*
X4380Y1892D01*
X4380D01*
X4380Y1892D01*
X4380Y1892D01*
X4381Y1892D01*
X4381Y1892D01*
X4382Y1891D01*
X4383Y1891D01*
X4384Y1890D01*
X4384Y1889D01*
X4384Y1889D01*
X4384Y1889D01*
X4385Y1889D01*
X4385Y1888D01*
X4385Y1887D01*
X4386Y1886D01*
X4386Y1885D01*
X4386Y1884D01*
X4381Y1884D01*
Y1884D01*
X4381Y1884D01*
X4380Y1884D01*
X4380Y1885D01*
X4380Y1886D01*
X4380Y1886D01*
X4379Y1887D01*
X4378Y1888D01*
X4378Y1888D01*
X4378Y1888D01*
X4378Y1888D01*
X4377Y1888D01*
X4377Y1888D01*
X4376Y1889D01*
X4375Y1889D01*
X4374Y1889D01*
X4373D01*
X4372Y1889D01*
X4371Y1889D01*
X4371Y1889D01*
X4370Y1888D01*
X4369Y1888D01*
X4368Y1888D01*
X4368Y1888D01*
X4368Y1887D01*
X4368Y1887D01*
X4367Y1887D01*
X4367Y1886D01*
X4367Y1886D01*
X4367Y1885D01*
X4366Y1885D01*
Y1885D01*
Y1885D01*
X4367Y1884D01*
Y1884D01*
X4367Y1883D01*
X4367Y1883D01*
X4367Y1883D01*
X4367Y1883D01*
X4367Y1882D01*
X4368Y1882D01*
X4368Y1882D01*
X4368Y1882D01*
X4369Y1882D01*
X4369Y1881D01*
X4369D01*
X4369Y1881D01*
X4370Y1881D01*
X4370Y1881D01*
X4371Y1881D01*
X4372Y1881D01*
X4372Y1880D01*
X4373Y1880D01*
X4373Y1880D01*
X4374Y1880D01*
X4374D01*
X4374Y1880D01*
X4375Y1880D01*
X4375Y1880D01*
X4376Y1880D01*
X4376Y1879D01*
X4377Y1879D01*
X4379Y1879D01*
X4380Y1878D01*
X4381Y1878D01*
X4382Y1878D01*
X4382Y1877D01*
X4382Y1877D01*
X4383Y1877D01*
X4383Y1877D01*
X4384Y1877D01*
X4384Y1876D01*
X4385Y1876D01*
X4385Y1875D01*
X4386Y1874D01*
X4386Y1874D01*
X4386Y1874D01*
X4386Y1874D01*
X4387Y1873D01*
X4387Y1872D01*
X4387Y1872D01*
X4387Y1871D01*
X4387Y1870D01*
Y1870D01*
Y1869D01*
X4387Y1869D01*
X4387Y1868D01*
X4387Y1867D01*
X4387Y1866D01*
X4386Y1865D01*
X4386Y1865D01*
X4386Y1864D01*
X4385Y1864D01*
X4385Y1864D01*
X4384Y1863D01*
X4384Y1863D01*
X4383Y1862D01*
X4382Y1861D01*
X4381Y1861D01*
X4381D01*
X4381Y1861D01*
X4380Y1861D01*
X4380Y1860D01*
X4379Y1860D01*
X4378Y1860D01*
X4377Y1860D01*
X4376Y1860D01*
X4374Y1860D01*
X4374D01*
X4373Y1860D01*
X4373D01*
X4372Y1860D01*
X4371Y1860D01*
X4371Y1860D01*
X4369Y1860D01*
X4367Y1861D01*
X4366Y1861D01*
X4365Y1862D01*
X4364Y1862D01*
X4364Y1862D01*
X4364Y1862D01*
X4364Y1863D01*
X4363Y1863D01*
X4363Y1864D01*
X4362Y1865D01*
X4361Y1867D01*
X4361Y1868D01*
X4360Y1870D01*
X4366Y1871D01*
Y1871D01*
Y1871D01*
X4366Y1870D01*
X4366Y1870D01*
X4366Y1869D01*
X4367Y1868D01*
X4367Y1867D01*
X4368Y1866D01*
X4368Y1866D01*
X4368Y1866D01*
X4369Y1865D01*
X4369Y1865D01*
X4370Y1865D01*
X4371Y1865D01*
X4372Y1864D01*
X4373Y1864D01*
X4374Y1864D01*
X4375D01*
X4375Y1864D01*
X4376Y1864D01*
X4377Y1864D01*
X4378Y1865D01*
X4379Y1865D01*
X4380Y1866D01*
X4380Y1866D01*
X4380Y1866D01*
X4380Y1866D01*
X4381Y1867D01*
X4381Y1867D01*
X4381Y1868D01*
X4382Y1868D01*
X4382Y1869D01*
Y1869D01*
Y1870D01*
X4382Y1870D01*
X4381Y1870D01*
X4381Y1871D01*
X4381Y1871D01*
X4381Y1872D01*
X4380Y1872D01*
X4380Y1872D01*
X4380Y1872D01*
X4379Y1872D01*
X4379Y1873D01*
X4378Y1873D01*
X4378Y1873D01*
X4377Y1873D01*
X4377Y1873D01*
X4376Y1874D01*
X4375Y1874D01*
X4374Y1874D01*
X4374D01*
X4374Y1874D01*
X4374Y1874D01*
X4373Y1874D01*
X4373Y1874D01*
X4372Y1875D01*
X4371Y1875D01*
X4370Y1875D01*
X4368Y1876D01*
X4367Y1876D01*
X4366Y1876D01*
X4366Y1877D01*
X4366Y1877D01*
X4366Y1877D01*
X4365Y1877D01*
X4365Y1877D01*
X4364Y1878D01*
X4363Y1878D01*
X4363Y1879D01*
X4362Y1880D01*
X4362Y1880D01*
X4362Y1880D01*
X4362Y1880D01*
X4362Y1881D01*
X4362Y1882D01*
X4361Y1882D01*
X4361Y1883D01*
X4361Y1884D01*
Y1884D01*
Y1884D01*
X4361Y1885D01*
X4361Y1885D01*
X4361Y1886D01*
X4362Y1887D01*
X4362Y1887D01*
X4362Y1888D01*
X4362Y1888D01*
X4362Y1888D01*
X4363Y1889D01*
X4363Y1889D01*
X4363Y1890D01*
X4364Y1890D01*
X4364Y1891D01*
X4365Y1891D01*
X4365Y1891D01*
X4365Y1891D01*
X4365Y1892D01*
X4366Y1892D01*
X4366Y1892D01*
X4367Y1892D01*
X4368Y1893D01*
X4368Y1893D01*
X4368Y1893D01*
X4369Y1893D01*
X4369Y1893D01*
X4370Y1893D01*
X4370Y1893D01*
X4371Y1893D01*
X4372Y1893D01*
X4374D01*
X4374Y1893D01*
D02*
G37*
G36*
X4706Y1860D02*
X4700D01*
Y1905D01*
X4706D01*
Y1860D01*
D02*
G37*
G36*
X4608Y1905D02*
X4608D01*
X4610Y1905D01*
X4611Y1905D01*
X4613Y1905D01*
X4614Y1904D01*
X4615Y1904D01*
X4615Y1904D01*
X4615D01*
X4615Y1904D01*
X4616Y1904D01*
X4616Y1903D01*
X4617Y1903D01*
X4618Y1902D01*
X4619Y1902D01*
X4619Y1901D01*
X4620Y1900D01*
Y1900D01*
X4620Y1899D01*
X4621Y1899D01*
X4621Y1898D01*
X4621Y1898D01*
X4622Y1897D01*
X4622Y1895D01*
X4622Y1894D01*
X4622Y1893D01*
Y1893D01*
Y1893D01*
Y1892D01*
X4622Y1892D01*
Y1892D01*
X4622Y1891D01*
X4622Y1890D01*
X4621Y1889D01*
X4621Y1887D01*
X4620Y1886D01*
X4620Y1885D01*
X4619Y1885D01*
X4619Y1885D01*
X4619Y1885D01*
X4619Y1884D01*
X4618Y1884D01*
X4618Y1884D01*
X4618Y1884D01*
X4617Y1883D01*
X4617Y1883D01*
X4616Y1883D01*
X4615Y1882D01*
X4615Y1882D01*
X4614Y1882D01*
X4613Y1881D01*
X4612Y1881D01*
X4611Y1881D01*
X4609Y1881D01*
X4610Y1881D01*
X4610Y1880D01*
X4610Y1880D01*
X4611Y1880D01*
X4612Y1879D01*
X4613Y1879D01*
X4613Y1878D01*
X4613Y1878D01*
X4613Y1878D01*
X4614Y1877D01*
X4615Y1877D01*
X4615Y1876D01*
X4616Y1875D01*
X4617Y1874D01*
X4618Y1872D01*
X4626Y1860D01*
X4618D01*
X4612Y1870D01*
Y1870D01*
X4612Y1870D01*
X4612Y1870D01*
X4612Y1870D01*
X4611Y1871D01*
X4611Y1872D01*
X4610Y1873D01*
X4609Y1874D01*
X4609Y1875D01*
X4608Y1876D01*
X4608Y1876D01*
X4608Y1876D01*
X4608Y1876D01*
X4607Y1877D01*
X4606Y1878D01*
X4606Y1878D01*
X4605Y1879D01*
X4605Y1879D01*
X4605Y1879D01*
X4605Y1879D01*
X4604Y1879D01*
X4604Y1879D01*
X4603Y1880D01*
X4602Y1880D01*
X4602D01*
X4602Y1880D01*
X4602D01*
X4602Y1880D01*
X4601Y1880D01*
X4601D01*
X4600Y1880D01*
X4592D01*
Y1860D01*
X4586D01*
Y1905D01*
X4607D01*
X4608Y1905D01*
D02*
G37*
G36*
X4681Y1893D02*
X4682Y1893D01*
X4683Y1893D01*
X4684Y1893D01*
X4685Y1893D01*
X4686Y1892D01*
X4686Y1892D01*
X4687Y1892D01*
X4687Y1892D01*
X4688Y1892D01*
X4688Y1891D01*
X4689Y1891D01*
X4689Y1890D01*
X4690Y1890D01*
X4690Y1890D01*
X4690Y1890D01*
X4690Y1889D01*
X4691Y1889D01*
X4691Y1888D01*
X4691Y1888D01*
X4691Y1887D01*
X4692Y1886D01*
Y1886D01*
X4692Y1886D01*
X4692Y1886D01*
X4692Y1885D01*
Y1884D01*
X4692Y1884D01*
X4692Y1882D01*
Y1881D01*
Y1874D01*
Y1874D01*
Y1874D01*
Y1873D01*
Y1873D01*
Y1872D01*
Y1871D01*
X4692Y1870D01*
Y1868D01*
X4692Y1867D01*
X4692Y1866D01*
Y1865D01*
X4692Y1865D01*
X4692Y1864D01*
Y1864D01*
X4692Y1864D01*
X4692Y1863D01*
X4693Y1863D01*
X4693Y1862D01*
X4693Y1862D01*
X4693Y1861D01*
X4694Y1860D01*
X4688D01*
X4688Y1860D01*
X4688Y1861D01*
X4688Y1861D01*
X4687Y1861D01*
X4687Y1862D01*
X4687Y1863D01*
X4687Y1863D01*
X4687Y1864D01*
X4687D01*
X4687Y1864D01*
X4686Y1864D01*
X4686Y1863D01*
X4685Y1863D01*
X4684Y1862D01*
X4683Y1862D01*
X4682Y1861D01*
X4681Y1861D01*
X4681Y1860D01*
X4680Y1860D01*
X4680Y1860D01*
X4679Y1860D01*
X4678Y1860D01*
X4677Y1860D01*
X4676Y1860D01*
X4675Y1860D01*
X4674D01*
X4674Y1860D01*
X4673D01*
X4673Y1860D01*
X4672Y1860D01*
X4670Y1860D01*
X4669Y1861D01*
X4668Y1861D01*
X4667Y1862D01*
X4666Y1862D01*
X4666Y1863D01*
X4666Y1863D01*
X4665Y1864D01*
X4665Y1865D01*
X4664Y1866D01*
X4664Y1867D01*
X4664Y1868D01*
X4664Y1869D01*
Y1869D01*
Y1869D01*
X4664Y1870D01*
X4664Y1870D01*
X4664Y1871D01*
X4664Y1872D01*
X4664Y1872D01*
X4665Y1873D01*
X4665Y1873D01*
X4665Y1873D01*
X4665Y1874D01*
X4666Y1874D01*
X4666Y1875D01*
X4666Y1875D01*
X4667Y1876D01*
X4668Y1876D01*
X4668Y1876D01*
X4668Y1877D01*
X4668Y1877D01*
X4669Y1877D01*
X4669Y1877D01*
X4670Y1878D01*
X4671Y1878D01*
X4672Y1878D01*
X4672D01*
X4672Y1878D01*
X4672Y1878D01*
X4673Y1878D01*
X4673Y1879D01*
X4674Y1879D01*
X4675Y1879D01*
X4676Y1879D01*
X4677D01*
X4677Y1879D01*
X4677D01*
X4678Y1879D01*
X4678Y1879D01*
X4679Y1879D01*
X4679Y1879D01*
X4680Y1879D01*
X4682Y1880D01*
X4683Y1880D01*
X4685Y1881D01*
X4686Y1881D01*
X4686Y1881D01*
Y1881D01*
Y1881D01*
X4686Y1881D01*
Y1882D01*
Y1882D01*
Y1882D01*
Y1882D01*
Y1882D01*
Y1883D01*
X4686Y1883D01*
X4686Y1884D01*
X4686Y1885D01*
X4686Y1886D01*
X4685Y1886D01*
X4685Y1887D01*
X4685Y1887D01*
X4684Y1887D01*
X4684Y1888D01*
X4683Y1888D01*
X4682Y1888D01*
X4681Y1889D01*
X4680Y1889D01*
X4678Y1889D01*
X4678D01*
X4677Y1889D01*
X4676Y1889D01*
X4675Y1889D01*
X4674Y1888D01*
X4673Y1888D01*
X4673Y1888D01*
X4673Y1888D01*
X4672Y1887D01*
X4672Y1887D01*
X4672Y1886D01*
X4671Y1886D01*
X4671Y1885D01*
X4670Y1884D01*
X4670Y1883D01*
X4665Y1883D01*
Y1884D01*
X4665Y1884D01*
Y1884D01*
X4665Y1884D01*
X4665Y1885D01*
X4665Y1886D01*
X4666Y1886D01*
X4666Y1887D01*
X4667Y1888D01*
X4667Y1889D01*
X4667Y1889D01*
X4667Y1889D01*
X4668Y1890D01*
X4668Y1890D01*
X4669Y1891D01*
X4670Y1891D01*
X4671Y1892D01*
X4672Y1892D01*
X4672D01*
X4672Y1892D01*
X4672Y1892D01*
X4673Y1893D01*
X4673Y1893D01*
X4674Y1893D01*
X4675Y1893D01*
X4676Y1893D01*
X4678Y1893D01*
X4679Y1893D01*
X4680D01*
X4681Y1893D01*
D02*
G37*
G36*
X7836Y2398D02*
X7837Y2397D01*
X7837Y2397D01*
X7837Y2396D01*
X7837Y2396D01*
X7838Y2395D01*
X7838Y2394D01*
X7838Y2393D01*
X7839Y2391D01*
X7839Y2390D01*
X7840Y2387D01*
X7841Y2384D01*
X7842Y2381D01*
Y2381D01*
X7842Y2380D01*
X7842Y2380D01*
X7842Y2379D01*
X7842Y2379D01*
X7842Y2378D01*
X7842Y2377D01*
X7843Y2376D01*
X7843Y2373D01*
X7843Y2371D01*
X7843Y2368D01*
X7844Y2365D01*
Y2365D01*
Y2365D01*
Y2364D01*
Y2364D01*
X7843Y2363D01*
X7843Y2362D01*
X7843Y2361D01*
X7843Y2360D01*
X7843Y2358D01*
X7843Y2357D01*
X7842Y2354D01*
X7842Y2351D01*
X7841Y2347D01*
Y2347D01*
X7841Y2347D01*
X7840Y2346D01*
X7840Y2346D01*
X7840Y2345D01*
X7839Y2344D01*
X7839Y2343D01*
X7839Y2342D01*
X7838Y2340D01*
X7837Y2339D01*
X7836Y2336D01*
X7834Y2332D01*
X7832Y2329D01*
Y2329D01*
X7832Y2329D01*
X7831Y2328D01*
X7831Y2328D01*
X7831Y2327D01*
X7830Y2327D01*
X7830Y2326D01*
X7829Y2325D01*
X7828Y2324D01*
X7827Y2323D01*
X7826Y2321D01*
X7825Y2320D01*
X7824Y2319D01*
X7823Y2317D01*
X7821Y2316D01*
X7820Y2314D01*
X7810D01*
X7811Y2314D01*
X7811Y2314D01*
X7811Y2315D01*
X7812Y2315D01*
X7813Y2316D01*
X7813Y2317D01*
X7814Y2319D01*
X7815Y2320D01*
X7816Y2321D01*
X7817Y2323D01*
X7819Y2326D01*
X7821Y2329D01*
X7823Y2332D01*
X7823Y2332D01*
X7823Y2333D01*
X7824Y2333D01*
X7824Y2334D01*
X7824Y2335D01*
X7825Y2335D01*
X7825Y2337D01*
X7826Y2338D01*
X7826Y2339D01*
X7827Y2341D01*
X7827Y2342D01*
X7828Y2344D01*
X7829Y2347D01*
X7830Y2351D01*
Y2351D01*
X7830Y2351D01*
X7830Y2352D01*
X7830Y2353D01*
X7830Y2353D01*
X7831Y2355D01*
X7831Y2356D01*
X7831Y2357D01*
X7831Y2359D01*
X7831Y2360D01*
X7832Y2364D01*
X7832Y2367D01*
X7832Y2371D01*
Y2371D01*
Y2371D01*
Y2371D01*
Y2372D01*
Y2373D01*
X7832Y2373D01*
Y2374D01*
Y2375D01*
X7832Y2377D01*
X7832Y2379D01*
X7832Y2381D01*
X7831Y2384D01*
Y2384D01*
Y2384D01*
X7831Y2384D01*
X7831Y2385D01*
X7831Y2385D01*
X7831Y2386D01*
X7831Y2387D01*
X7830Y2388D01*
X7830Y2389D01*
X7830Y2390D01*
X7829Y2392D01*
X7829Y2395D01*
X7828Y2398D01*
X7836D01*
Y2398D01*
D02*
G37*
G36*
X7815Y2379D02*
X7823D01*
X7821Y2370D01*
X7813D01*
X7809Y2350D01*
Y2350D01*
Y2350D01*
X7809Y2350D01*
X7809Y2349D01*
X7809Y2348D01*
X7808Y2347D01*
X7808Y2346D01*
X7808Y2345D01*
X7808Y2345D01*
X7808Y2344D01*
Y2344D01*
Y2344D01*
Y2344D01*
X7808Y2343D01*
X7808Y2343D01*
X7809Y2342D01*
X7809D01*
X7809Y2342D01*
X7809Y2342D01*
X7809Y2342D01*
X7810Y2341D01*
X7810Y2341D01*
X7811Y2341D01*
X7813D01*
X7813Y2341D01*
X7813D01*
X7814Y2341D01*
X7815Y2341D01*
X7816Y2341D01*
X7814Y2332D01*
X7814D01*
X7814Y2332D01*
X7813Y2332D01*
X7812Y2332D01*
X7811Y2332D01*
X7810Y2332D01*
X7808Y2331D01*
X7806D01*
X7806Y2332D01*
X7805D01*
X7804Y2332D01*
X7802Y2332D01*
X7801Y2332D01*
X7799Y2333D01*
X7798Y2334D01*
X7798Y2334D01*
X7797Y2334D01*
X7797Y2335D01*
X7796Y2336D01*
X7796Y2337D01*
X7795Y2338D01*
X7795Y2340D01*
X7795Y2341D01*
Y2341D01*
Y2342D01*
X7795Y2342D01*
X7795Y2343D01*
X7795Y2344D01*
X7795Y2345D01*
X7795Y2345D01*
X7796Y2346D01*
X7796Y2347D01*
X7796Y2348D01*
X7796Y2350D01*
X7797Y2351D01*
X7801Y2370D01*
X7794D01*
X7796Y2379D01*
X7802D01*
X7804Y2387D01*
X7818Y2395D01*
X7815Y2379D01*
D02*
G37*
G36*
X5265Y2021D02*
X5244D01*
Y2041D01*
X5265D01*
Y2021D01*
D02*
G37*
G36*
X7797Y2398D02*
X7796Y2397D01*
X7796Y2397D01*
X7795Y2396D01*
X7795Y2395D01*
X7794Y2394D01*
X7793Y2393D01*
X7792Y2392D01*
X7791Y2390D01*
X7790Y2389D01*
X7788Y2386D01*
X7786Y2383D01*
X7784Y2379D01*
X7784Y2379D01*
X7784Y2379D01*
X7783Y2379D01*
X7783Y2378D01*
X7783Y2377D01*
X7782Y2376D01*
X7782Y2375D01*
X7781Y2374D01*
X7781Y2372D01*
X7780Y2371D01*
X7780Y2369D01*
X7779Y2368D01*
X7778Y2364D01*
X7777Y2361D01*
Y2361D01*
X7777Y2360D01*
X7777Y2360D01*
X7777Y2359D01*
X7777Y2358D01*
X7777Y2357D01*
X7776Y2356D01*
X7776Y2354D01*
X7776Y2353D01*
X7776Y2351D01*
X7775Y2348D01*
X7775Y2344D01*
X7775Y2341D01*
Y2341D01*
Y2340D01*
Y2340D01*
Y2340D01*
Y2339D01*
X7775Y2338D01*
Y2337D01*
X7775Y2335D01*
X7775Y2333D01*
X7776Y2330D01*
X7776Y2328D01*
Y2328D01*
X7776Y2328D01*
Y2327D01*
X7776Y2327D01*
X7776Y2326D01*
X7776Y2326D01*
X7777Y2325D01*
X7777Y2324D01*
X7777Y2323D01*
X7777Y2322D01*
X7778Y2319D01*
X7779Y2317D01*
X7779Y2314D01*
X7771D01*
Y2314D01*
X7771Y2314D01*
X7770Y2315D01*
X7770Y2315D01*
X7770Y2316D01*
X7770Y2317D01*
X7769Y2318D01*
X7769Y2319D01*
X7768Y2320D01*
X7768Y2322D01*
X7767Y2325D01*
X7766Y2328D01*
X7765Y2331D01*
Y2331D01*
X7765Y2331D01*
X7765Y2332D01*
X7765Y2332D01*
X7765Y2333D01*
X7765Y2334D01*
X7765Y2335D01*
X7765Y2336D01*
X7764Y2338D01*
X7764Y2341D01*
X7764Y2344D01*
X7764Y2346D01*
Y2346D01*
Y2347D01*
Y2347D01*
X7764Y2348D01*
Y2349D01*
X7764Y2350D01*
X7764Y2351D01*
X7764Y2352D01*
X7764Y2353D01*
X7764Y2355D01*
X7765Y2358D01*
X7766Y2361D01*
X7767Y2364D01*
Y2364D01*
X7767Y2365D01*
X7767Y2365D01*
X7767Y2366D01*
X7767Y2367D01*
X7768Y2368D01*
X7768Y2369D01*
X7769Y2370D01*
X7769Y2371D01*
X7770Y2373D01*
X7771Y2376D01*
X7773Y2379D01*
X7775Y2383D01*
X7775Y2383D01*
X7776Y2383D01*
X7776Y2383D01*
X7776Y2384D01*
X7776Y2384D01*
X7777Y2385D01*
X7778Y2386D01*
X7778Y2387D01*
X7779Y2388D01*
X7780Y2389D01*
X7781Y2390D01*
X7782Y2392D01*
X7783Y2393D01*
X7784Y2394D01*
X7786Y2396D01*
X7787Y2398D01*
X7797D01*
X7797Y2398D01*
D02*
G37*
G36*
X8069Y2380D02*
X8069Y2380D01*
X8070Y2380D01*
X8071Y2380D01*
X8072Y2379D01*
X8074Y2379D01*
X8075Y2378D01*
X8077Y2378D01*
X8078Y2377D01*
X8079Y2377D01*
X8080Y2376D01*
X8081Y2375D01*
X8081Y2375D01*
X8081Y2375D01*
X8081Y2374D01*
X8082Y2374D01*
X8082Y2373D01*
X8082Y2373D01*
X8083Y2372D01*
X8083Y2371D01*
X8084Y2370D01*
X8084Y2369D01*
X8085Y2368D01*
X8085Y2366D01*
X8085Y2365D01*
X8086Y2363D01*
X8086Y2362D01*
X8086Y2360D01*
Y2360D01*
Y2360D01*
Y2359D01*
Y2358D01*
X8086Y2357D01*
X8086Y2356D01*
X8085Y2355D01*
X8085Y2352D01*
X8053D01*
Y2352D01*
Y2351D01*
X8053Y2351D01*
Y2351D01*
Y2351D01*
Y2351D01*
Y2350D01*
X8054Y2349D01*
X8054Y2348D01*
X8054Y2347D01*
X8054Y2346D01*
X8055Y2344D01*
X8056Y2343D01*
X8056Y2343D01*
X8056Y2343D01*
X8057Y2342D01*
X8058Y2342D01*
X8059Y2341D01*
X8060Y2341D01*
X8061Y2341D01*
X8063Y2340D01*
X8063D01*
X8064Y2341D01*
X8064Y2341D01*
X8065Y2341D01*
X8066Y2341D01*
X8067Y2342D01*
X8068Y2342D01*
X8069Y2343D01*
X8069Y2343D01*
X8070Y2344D01*
X8071Y2345D01*
X8072Y2346D01*
X8072Y2347D01*
X8084Y2345D01*
Y2345D01*
X8083Y2345D01*
X8083Y2344D01*
X8083Y2344D01*
X8083Y2343D01*
X8082Y2343D01*
X8081Y2341D01*
X8080Y2340D01*
X8078Y2338D01*
X8077Y2336D01*
X8075Y2335D01*
X8075D01*
X8074Y2335D01*
X8074Y2335D01*
X8074Y2334D01*
X8073Y2334D01*
X8073Y2334D01*
X8071Y2333D01*
X8069Y2332D01*
X8067Y2332D01*
X8065Y2332D01*
X8062Y2331D01*
X8062D01*
X8061Y2332D01*
X8060Y2332D01*
X8059Y2332D01*
X8058Y2332D01*
X8057Y2332D01*
X8055Y2333D01*
X8053Y2333D01*
X8052Y2334D01*
X8051Y2335D01*
X8049Y2335D01*
X8048Y2336D01*
X8047Y2337D01*
X8047Y2337D01*
X8047Y2338D01*
X8047Y2338D01*
X8046Y2339D01*
X8046Y2339D01*
X8045Y2340D01*
X8045Y2341D01*
X8044Y2342D01*
X8044Y2343D01*
X8043Y2344D01*
X8043Y2345D01*
X8042Y2346D01*
X8042Y2348D01*
X8042Y2350D01*
X8041Y2351D01*
X8041Y2353D01*
Y2353D01*
Y2353D01*
Y2354D01*
X8041Y2355D01*
X8042Y2355D01*
X8042Y2356D01*
X8042Y2358D01*
X8042Y2359D01*
X8043Y2361D01*
X8043Y2363D01*
X8044Y2364D01*
X8044Y2366D01*
X8045Y2367D01*
X8046Y2369D01*
X8047Y2370D01*
X8047Y2370D01*
X8047Y2371D01*
X8047Y2371D01*
X8048Y2372D01*
X8049Y2372D01*
X8050Y2373D01*
X8051Y2374D01*
X8052Y2375D01*
X8053Y2376D01*
X8055Y2377D01*
X8057Y2378D01*
X8058Y2379D01*
X8060Y2379D01*
X8062Y2380D01*
X8065Y2380D01*
X8067Y2380D01*
X8068D01*
X8069Y2380D01*
D02*
G37*
G36*
X7888Y2333D02*
X7875D01*
X7889Y2397D01*
X7902D01*
X7888Y2333D01*
D02*
G37*
G36*
X7763Y2386D02*
X7731D01*
X7728Y2371D01*
X7759D01*
X7757Y2360D01*
X7725D01*
X7720Y2333D01*
X7707D01*
X7720Y2397D01*
X7765D01*
X7763Y2386D01*
D02*
G37*
G36*
X8218Y2380D02*
X8219Y2380D01*
X8219Y2380D01*
X8220Y2380D01*
X8221Y2379D01*
X8224Y2379D01*
X8225Y2378D01*
X8226Y2378D01*
X8227Y2377D01*
X8228Y2377D01*
X8229Y2376D01*
X8230Y2375D01*
X8230Y2375D01*
X8230Y2375D01*
X8231Y2374D01*
X8231Y2374D01*
X8231Y2373D01*
X8232Y2373D01*
X8232Y2372D01*
X8233Y2371D01*
X8233Y2370D01*
X8234Y2369D01*
X8234Y2368D01*
X8234Y2366D01*
X8235Y2365D01*
X8235Y2363D01*
X8235Y2362D01*
X8235Y2360D01*
Y2360D01*
Y2360D01*
Y2359D01*
Y2358D01*
X8235Y2357D01*
X8235Y2356D01*
X8235Y2355D01*
X8234Y2352D01*
X8203D01*
Y2352D01*
Y2351D01*
X8203Y2351D01*
Y2351D01*
Y2351D01*
Y2351D01*
Y2350D01*
X8203Y2349D01*
X8203Y2348D01*
X8203Y2347D01*
X8204Y2346D01*
X8204Y2344D01*
X8205Y2343D01*
X8205Y2343D01*
X8206Y2343D01*
X8206Y2342D01*
X8207Y2342D01*
X8208Y2341D01*
X8209Y2341D01*
X8210Y2341D01*
X8212Y2340D01*
X8212D01*
X8213Y2341D01*
X8213Y2341D01*
X8214Y2341D01*
X8215Y2341D01*
X8216Y2342D01*
X8217Y2342D01*
X8218Y2343D01*
X8219Y2343D01*
X8219Y2344D01*
X8220Y2345D01*
X8221Y2346D01*
X8222Y2347D01*
X8233Y2345D01*
Y2345D01*
X8233Y2345D01*
X8232Y2344D01*
X8232Y2344D01*
X8232Y2343D01*
X8231Y2343D01*
X8231Y2341D01*
X8229Y2340D01*
X8228Y2338D01*
X8226Y2336D01*
X8224Y2335D01*
X8224D01*
X8224Y2335D01*
X8223Y2335D01*
X8223Y2334D01*
X8222Y2334D01*
X8222Y2334D01*
X8220Y2333D01*
X8219Y2332D01*
X8216Y2332D01*
X8214Y2332D01*
X8212Y2331D01*
X8211D01*
X8210Y2332D01*
X8209Y2332D01*
X8208Y2332D01*
X8207Y2332D01*
X8206Y2332D01*
X8204Y2333D01*
X8203Y2333D01*
X8201Y2334D01*
X8200Y2335D01*
X8199Y2335D01*
X8198Y2336D01*
X8196Y2337D01*
X8196Y2337D01*
X8196Y2338D01*
X8196Y2338D01*
X8196Y2339D01*
X8195Y2339D01*
X8195Y2340D01*
X8194Y2341D01*
X8194Y2342D01*
X8193Y2343D01*
X8193Y2344D01*
X8192Y2345D01*
X8192Y2346D01*
X8191Y2348D01*
X8191Y2350D01*
X8191Y2351D01*
X8191Y2353D01*
Y2353D01*
Y2353D01*
Y2354D01*
X8191Y2355D01*
X8191Y2355D01*
X8191Y2356D01*
X8191Y2358D01*
X8191Y2359D01*
X8192Y2361D01*
X8192Y2363D01*
X8193Y2364D01*
X8194Y2366D01*
X8194Y2367D01*
X8195Y2369D01*
X8196Y2370D01*
X8196Y2370D01*
X8196Y2371D01*
X8197Y2371D01*
X8197Y2372D01*
X8198Y2372D01*
X8199Y2373D01*
X8200Y2374D01*
X8201Y2375D01*
X8203Y2376D01*
X8204Y2377D01*
X8206Y2378D01*
X8208Y2379D01*
X8210Y2379D01*
X8212Y2380D01*
X8214Y2380D01*
X8216Y2380D01*
X8217D01*
X8218Y2380D01*
D02*
G37*
G36*
X8117D02*
X8118D01*
X8119Y2380D01*
X8121Y2380D01*
X8123Y2379D01*
X8125Y2379D01*
X8127Y2378D01*
X8128Y2377D01*
X8129Y2377D01*
X8129D01*
X8129Y2376D01*
X8130Y2376D01*
X8131Y2375D01*
X8131Y2374D01*
X8132Y2373D01*
X8133Y2371D01*
X8133Y2370D01*
X8134Y2369D01*
Y2368D01*
Y2368D01*
Y2367D01*
Y2367D01*
X8133Y2366D01*
Y2366D01*
X8133Y2365D01*
X8133Y2363D01*
Y2363D01*
X8133Y2363D01*
X8133Y2362D01*
Y2362D01*
X8133Y2361D01*
X8133Y2361D01*
X8132Y2360D01*
X8132Y2359D01*
X8132Y2358D01*
X8132Y2357D01*
X8132Y2356D01*
X8131Y2354D01*
X8131Y2353D01*
X8131Y2351D01*
Y2351D01*
X8130Y2350D01*
X8130Y2350D01*
X8130Y2350D01*
X8130Y2349D01*
X8130Y2348D01*
X8130Y2346D01*
X8129Y2344D01*
X8129Y2342D01*
X8129Y2341D01*
X8129Y2340D01*
Y2339D01*
Y2339D01*
Y2339D01*
X8129Y2338D01*
Y2337D01*
X8129Y2336D01*
X8129Y2335D01*
X8129Y2334D01*
X8130Y2333D01*
X8118D01*
Y2333D01*
X8118Y2333D01*
X8117Y2334D01*
X8117Y2334D01*
X8117Y2335D01*
X8117Y2336D01*
X8117Y2338D01*
X8117Y2338D01*
X8116Y2337D01*
X8116Y2337D01*
X8115Y2336D01*
X8114Y2335D01*
X8113Y2335D01*
X8112Y2334D01*
X8110Y2333D01*
X8110Y2333D01*
X8110Y2333D01*
X8109Y2333D01*
X8108Y2332D01*
X8107Y2332D01*
X8106Y2332D01*
X8105Y2332D01*
X8103Y2331D01*
X8103D01*
X8102Y2332D01*
X8101Y2332D01*
X8100Y2332D01*
X8098Y2332D01*
X8097Y2333D01*
X8095Y2334D01*
X8094Y2335D01*
X8093Y2335D01*
X8093Y2336D01*
X8092Y2337D01*
X8092Y2338D01*
X8091Y2339D01*
X8090Y2341D01*
X8090Y2343D01*
X8090Y2345D01*
Y2345D01*
Y2345D01*
Y2346D01*
X8090Y2346D01*
Y2347D01*
X8090Y2347D01*
X8090Y2349D01*
X8091Y2351D01*
X8092Y2352D01*
X8093Y2354D01*
X8093Y2355D01*
X8094Y2356D01*
X8094Y2356D01*
X8094Y2356D01*
X8094Y2356D01*
X8095Y2356D01*
X8095Y2357D01*
X8096Y2357D01*
X8097Y2357D01*
X8097Y2358D01*
X8098Y2358D01*
X8099Y2359D01*
X8101Y2359D01*
X8102Y2359D01*
X8104Y2360D01*
X8105Y2360D01*
X8107Y2360D01*
X8109Y2360D01*
X8109D01*
X8110Y2361D01*
X8110D01*
X8111Y2361D01*
X8112Y2361D01*
X8114Y2361D01*
X8116Y2361D01*
X8118Y2362D01*
X8119Y2362D01*
X8119Y2362D01*
X8120Y2362D01*
X8121Y2362D01*
Y2362D01*
X8121Y2363D01*
X8121Y2363D01*
X8121Y2364D01*
X8121Y2365D01*
X8122Y2366D01*
Y2366D01*
Y2367D01*
Y2367D01*
X8121Y2367D01*
X8121Y2368D01*
X8121Y2368D01*
X8121Y2369D01*
X8120Y2369D01*
X8120Y2370D01*
X8120Y2370D01*
X8120Y2370D01*
X8119Y2370D01*
X8119Y2371D01*
X8118Y2371D01*
X8117Y2371D01*
X8116Y2371D01*
X8115Y2371D01*
X8115D01*
X8114Y2371D01*
X8113Y2371D01*
X8112Y2371D01*
X8111Y2371D01*
X8111Y2370D01*
X8110Y2370D01*
X8110Y2370D01*
X8109Y2369D01*
X8109Y2369D01*
X8109Y2369D01*
X8108Y2368D01*
X8108Y2368D01*
X8107Y2367D01*
X8107Y2366D01*
X8095Y2367D01*
Y2367D01*
X8095Y2367D01*
X8095Y2368D01*
X8095Y2368D01*
X8096Y2369D01*
X8097Y2371D01*
X8098Y2372D01*
X8099Y2374D01*
X8100Y2375D01*
X8102Y2377D01*
X8102D01*
X8102Y2377D01*
X8103Y2377D01*
X8103Y2377D01*
X8104Y2377D01*
X8104Y2378D01*
X8105Y2378D01*
X8106Y2378D01*
X8107Y2379D01*
X8108Y2379D01*
X8109Y2379D01*
X8110Y2380D01*
X8113Y2380D01*
X8116Y2380D01*
X8117D01*
X8117Y2380D01*
D02*
G37*
G36*
X4891Y2021D02*
X4869D01*
Y2041D01*
X4891D01*
Y2021D01*
D02*
G37*
G36*
X8167Y2380D02*
X8168D01*
X8169Y2380D01*
X8171Y2380D01*
X8173Y2379D01*
X8175Y2379D01*
X8177Y2378D01*
X8178Y2377D01*
X8179Y2377D01*
X8179D01*
X8179Y2377D01*
X8180Y2376D01*
X8181Y2376D01*
X8182Y2374D01*
X8183Y2373D01*
X8184Y2372D01*
X8184Y2370D01*
X8185Y2368D01*
X8174Y2366D01*
Y2366D01*
X8173Y2366D01*
X8173Y2367D01*
X8173Y2367D01*
X8172Y2368D01*
X8172Y2369D01*
X8171Y2369D01*
X8170Y2370D01*
X8170Y2370D01*
X8170Y2370D01*
X8169Y2370D01*
X8169Y2371D01*
X8168Y2371D01*
X8167Y2371D01*
X8165Y2371D01*
X8164Y2371D01*
X8163D01*
X8162Y2371D01*
X8162Y2371D01*
X8161Y2371D01*
X8160Y2371D01*
X8159Y2371D01*
X8158Y2370D01*
X8158Y2370D01*
X8158Y2370D01*
X8157Y2370D01*
X8157Y2369D01*
X8157Y2368D01*
X8156Y2368D01*
X8156Y2367D01*
Y2367D01*
Y2367D01*
X8156Y2366D01*
X8157Y2366D01*
X8157Y2366D01*
X8157Y2365D01*
X8157Y2365D01*
X8158Y2364D01*
X8158D01*
X8158Y2364D01*
X8159Y2364D01*
X8159Y2364D01*
X8160Y2363D01*
X8161Y2363D01*
X8162Y2363D01*
X8162Y2363D01*
X8163Y2362D01*
X8164Y2362D01*
X8165Y2362D01*
X8165D01*
X8165Y2362D01*
X8166Y2361D01*
X8167Y2361D01*
X8167Y2361D01*
X8168Y2361D01*
X8170Y2360D01*
X8172Y2359D01*
X8174Y2358D01*
X8175Y2358D01*
X8176Y2357D01*
X8177Y2357D01*
X8177Y2357D01*
X8178D01*
X8178Y2356D01*
X8178Y2356D01*
X8179Y2355D01*
X8180Y2354D01*
X8180Y2353D01*
X8181Y2351D01*
X8182Y2350D01*
X8182Y2349D01*
X8182Y2348D01*
Y2348D01*
Y2347D01*
Y2347D01*
X8182Y2347D01*
X8182Y2346D01*
X8182Y2345D01*
X8181Y2344D01*
X8180Y2342D01*
X8180Y2341D01*
X8179Y2340D01*
X8179Y2339D01*
X8178Y2338D01*
X8177Y2337D01*
X8176Y2336D01*
X8176Y2336D01*
X8176Y2336D01*
X8176Y2336D01*
X8175Y2336D01*
X8175Y2335D01*
X8174Y2335D01*
X8173Y2334D01*
X8172Y2334D01*
X8171Y2333D01*
X8170Y2333D01*
X8169Y2333D01*
X8167Y2332D01*
X8166Y2332D01*
X8164Y2332D01*
X8162Y2332D01*
X8161Y2331D01*
X8160D01*
X8159Y2332D01*
X8158D01*
X8157Y2332D01*
X8156Y2332D01*
X8155Y2332D01*
X8152Y2332D01*
X8150Y2333D01*
X8147Y2334D01*
X8146Y2334D01*
X8145Y2335D01*
X8145D01*
X8145Y2335D01*
X8144Y2335D01*
X8144Y2336D01*
X8143Y2337D01*
X8142Y2338D01*
X8141Y2339D01*
X8140Y2341D01*
X8138Y2343D01*
X8138Y2346D01*
X8150Y2347D01*
X8150Y2347D01*
X8150Y2347D01*
X8150Y2346D01*
X8151Y2345D01*
X8151Y2344D01*
X8152Y2343D01*
X8153Y2343D01*
X8154Y2342D01*
X8154Y2342D01*
X8154Y2342D01*
X8155Y2342D01*
X8156Y2341D01*
X8156Y2341D01*
X8158Y2341D01*
X8159Y2341D01*
X8160Y2340D01*
X8161D01*
X8162Y2341D01*
X8163Y2341D01*
X8164Y2341D01*
X8165Y2341D01*
X8166Y2342D01*
X8167Y2342D01*
X8167Y2342D01*
X8168Y2343D01*
X8168Y2343D01*
X8168Y2343D01*
X8169Y2344D01*
X8169Y2345D01*
X8169Y2346D01*
Y2346D01*
Y2346D01*
X8169Y2346D01*
X8169Y2347D01*
X8168Y2348D01*
X8168Y2348D01*
X8168Y2348D01*
X8168Y2348D01*
X8167Y2348D01*
X8166Y2349D01*
X8165Y2349D01*
X8164Y2350D01*
X8163Y2350D01*
X8163D01*
X8162Y2350D01*
X8162Y2351D01*
X8161Y2351D01*
X8160Y2351D01*
X8159Y2351D01*
X8157Y2352D01*
X8154Y2353D01*
X8152Y2354D01*
X8151Y2355D01*
X8150Y2355D01*
X8149Y2356D01*
X8149Y2356D01*
X8149Y2356D01*
X8148Y2357D01*
X8147Y2357D01*
X8147Y2358D01*
X8146Y2360D01*
X8145Y2361D01*
X8145Y2363D01*
X8145Y2364D01*
X8145Y2365D01*
Y2365D01*
Y2365D01*
Y2366D01*
X8145Y2366D01*
X8145Y2367D01*
X8145Y2368D01*
X8146Y2370D01*
X8146Y2371D01*
X8147Y2373D01*
X8148Y2374D01*
X8149Y2374D01*
X8149Y2375D01*
X8149Y2375D01*
X8149Y2375D01*
X8150Y2375D01*
X8150Y2376D01*
X8151Y2376D01*
X8152Y2377D01*
X8153Y2377D01*
X8154Y2378D01*
X8155Y2378D01*
X8157Y2379D01*
X8158Y2379D01*
X8160Y2380D01*
X8162Y2380D01*
X8164Y2380D01*
X8166Y2380D01*
X8167D01*
X8167Y2380D01*
D02*
G37*
G36*
X7985D02*
X7985D01*
X7986Y2380D01*
X7988Y2380D01*
X7990Y2379D01*
X7992Y2378D01*
X7995Y2377D01*
X7996Y2377D01*
X7997Y2376D01*
X7997Y2376D01*
X7997Y2376D01*
X7997Y2375D01*
X7997Y2375D01*
X7998Y2374D01*
X7999Y2373D01*
X8000Y2371D01*
X8001Y2369D01*
X8002Y2367D01*
X8002Y2366D01*
X8002Y2364D01*
X7990Y2363D01*
Y2363D01*
X7990Y2364D01*
X7990Y2364D01*
X7990Y2365D01*
X7989Y2366D01*
X7989Y2367D01*
X7988Y2368D01*
X7988Y2369D01*
X7988Y2369D01*
X7987Y2369D01*
X7987Y2370D01*
X7986Y2370D01*
X7986Y2370D01*
X7985Y2371D01*
X7984Y2371D01*
X7983Y2371D01*
X7982D01*
X7981Y2371D01*
X7980Y2371D01*
X7979Y2370D01*
X7978Y2370D01*
X7977Y2369D01*
X7976Y2368D01*
X7976Y2368D01*
X7975Y2368D01*
X7975Y2367D01*
X7974Y2366D01*
X7973Y2365D01*
X7973Y2364D01*
X7972Y2362D01*
X7971Y2360D01*
Y2360D01*
X7971Y2360D01*
X7971Y2359D01*
X7971Y2359D01*
X7971Y2358D01*
X7970Y2357D01*
X7970Y2355D01*
X7970Y2353D01*
X7970Y2352D01*
X7969Y2350D01*
Y2350D01*
Y2349D01*
X7970Y2348D01*
X7970Y2347D01*
X7970Y2346D01*
X7970Y2345D01*
X7971Y2344D01*
X7971Y2343D01*
X7972Y2343D01*
X7972Y2343D01*
X7972Y2343D01*
X7973Y2342D01*
X7974Y2342D01*
X7974Y2342D01*
X7975Y2341D01*
X7977Y2341D01*
X7977D01*
X7978Y2341D01*
X7978Y2342D01*
X7979Y2342D01*
X7980Y2342D01*
X7981Y2343D01*
X7982Y2343D01*
X7982Y2343D01*
X7983Y2344D01*
X7983Y2344D01*
X7984Y2345D01*
X7985Y2346D01*
X7985Y2347D01*
X7986Y2348D01*
X7987Y2350D01*
X7999Y2348D01*
Y2348D01*
X7999Y2348D01*
X7999Y2347D01*
X7998Y2347D01*
X7998Y2346D01*
X7998Y2345D01*
X7997Y2343D01*
X7995Y2341D01*
X7994Y2339D01*
X7992Y2337D01*
X7990Y2336D01*
X7990D01*
X7990Y2335D01*
X7989Y2335D01*
X7989Y2335D01*
X7988Y2335D01*
X7988Y2334D01*
X7987Y2334D01*
X7986Y2334D01*
X7984Y2333D01*
X7982Y2332D01*
X7979Y2332D01*
X7978Y2332D01*
X7976Y2331D01*
X7975D01*
X7975Y2332D01*
X7974Y2332D01*
X7973Y2332D01*
X7972Y2332D01*
X7971Y2332D01*
X7969Y2333D01*
X7968Y2333D01*
X7967Y2334D01*
X7965Y2334D01*
X7964Y2335D01*
X7963Y2336D01*
X7962Y2337D01*
X7962Y2337D01*
X7962Y2337D01*
X7962Y2337D01*
X7961Y2338D01*
X7961Y2338D01*
X7961Y2339D01*
X7960Y2340D01*
X7960Y2341D01*
X7959Y2342D01*
X7959Y2343D01*
X7958Y2344D01*
X7958Y2345D01*
X7957Y2346D01*
X7957Y2348D01*
X7957Y2350D01*
X7957Y2351D01*
Y2351D01*
Y2352D01*
Y2352D01*
X7957Y2353D01*
Y2353D01*
X7957Y2354D01*
X7957Y2355D01*
X7957Y2356D01*
X7958Y2358D01*
X7958Y2361D01*
X7959Y2363D01*
X7960Y2366D01*
Y2366D01*
X7960Y2366D01*
X7961Y2366D01*
X7961Y2367D01*
X7961Y2367D01*
X7961Y2368D01*
X7963Y2369D01*
X7964Y2371D01*
X7965Y2373D01*
X7967Y2375D01*
X7970Y2376D01*
X7970Y2376D01*
X7970Y2376D01*
X7970Y2377D01*
X7971Y2377D01*
X7971Y2377D01*
X7972Y2377D01*
X7973Y2378D01*
X7974Y2378D01*
X7976Y2379D01*
X7978Y2379D01*
X7981Y2380D01*
X7983Y2380D01*
X7984D01*
X7985Y2380D01*
D02*
G37*
G36*
X7939D02*
X7940Y2380D01*
X7941Y2380D01*
X7942Y2379D01*
X7944Y2379D01*
X7945Y2378D01*
X7947Y2377D01*
X7947Y2377D01*
X7947Y2376D01*
X7948Y2376D01*
X7948Y2374D01*
X7949Y2373D01*
X7950Y2372D01*
X7950Y2370D01*
X7950Y2368D01*
Y2368D01*
Y2368D01*
X7950Y2367D01*
X7950Y2366D01*
X7950Y2365D01*
X7949Y2363D01*
X7949Y2362D01*
X7949Y2361D01*
X7949Y2360D01*
X7948Y2359D01*
X7943Y2333D01*
X7930D01*
X7936Y2359D01*
Y2359D01*
X7936Y2359D01*
Y2360D01*
X7936Y2360D01*
X7936Y2361D01*
X7937Y2362D01*
X7937Y2363D01*
X7937Y2364D01*
X7937Y2365D01*
X7937Y2366D01*
Y2366D01*
Y2366D01*
Y2366D01*
X7937Y2367D01*
X7937Y2367D01*
X7937Y2368D01*
X7937Y2369D01*
X7936Y2369D01*
X7936Y2370D01*
X7936Y2370D01*
X7936Y2370D01*
X7935Y2370D01*
X7935Y2371D01*
X7934Y2371D01*
X7934Y2371D01*
X7933Y2371D01*
X7932Y2371D01*
X7931D01*
X7931Y2371D01*
X7930Y2371D01*
X7929Y2371D01*
X7928Y2370D01*
X7927Y2370D01*
X7926Y2369D01*
X7926Y2369D01*
X7925Y2368D01*
X7925Y2368D01*
X7924Y2367D01*
X7923Y2366D01*
X7922Y2365D01*
X7921Y2364D01*
X7920Y2363D01*
X7920Y2363D01*
X7920Y2362D01*
X7920Y2361D01*
X7920Y2361D01*
X7919Y2360D01*
X7919Y2360D01*
X7919Y2359D01*
X7919Y2358D01*
X7918Y2357D01*
X7918Y2356D01*
X7918Y2355D01*
X7918Y2353D01*
X7917Y2352D01*
X7913Y2333D01*
X7901D01*
X7910Y2379D01*
X7922D01*
X7921Y2373D01*
X7921D01*
X7921Y2373D01*
X7922Y2374D01*
X7923Y2374D01*
X7924Y2375D01*
X7925Y2376D01*
X7927Y2377D01*
X7928Y2378D01*
X7930Y2378D01*
X7930Y2379D01*
X7930Y2379D01*
X7931Y2379D01*
X7932Y2379D01*
X7933Y2380D01*
X7935Y2380D01*
X7936Y2380D01*
X7938Y2380D01*
X7938D01*
X7939Y2380D01*
D02*
G37*
G36*
X8039D02*
X8040Y2380D01*
X8041Y2380D01*
X8042Y2380D01*
X8043Y2379D01*
X8044Y2379D01*
X8039Y2368D01*
X8039D01*
X8039Y2369D01*
X8038Y2369D01*
X8038Y2369D01*
X8037Y2369D01*
X8035Y2369D01*
X8035D01*
X8034Y2369D01*
X8033Y2369D01*
X8032Y2368D01*
X8031Y2368D01*
X8030Y2367D01*
X8029Y2367D01*
X8028Y2367D01*
X8028Y2366D01*
X8027Y2366D01*
X8027Y2365D01*
X8026Y2364D01*
X8025Y2363D01*
X8024Y2362D01*
X8023Y2360D01*
X8023Y2360D01*
X8023Y2360D01*
X8023Y2359D01*
X8023Y2359D01*
X8023Y2358D01*
X8022Y2358D01*
X8022Y2357D01*
X8022Y2356D01*
X8022Y2355D01*
X8021Y2354D01*
X8021Y2353D01*
X8021Y2352D01*
X8020Y2350D01*
X8020Y2349D01*
X8020Y2347D01*
X8017Y2333D01*
X8004D01*
X8014Y2379D01*
X8026D01*
X8024Y2370D01*
X8024Y2370D01*
X8024Y2371D01*
X8024Y2371D01*
X8025Y2372D01*
X8026Y2372D01*
X8026Y2373D01*
X8027Y2374D01*
X8028Y2375D01*
X8030Y2377D01*
X8031Y2378D01*
X8033Y2379D01*
X8034Y2379D01*
X8035Y2380D01*
X8037Y2380D01*
X8038Y2380D01*
X8038D01*
X8039Y2380D01*
D02*
G37*
G36*
X4962Y2012D02*
X4964Y2012D01*
X4966Y2012D01*
X4968Y2011D01*
X4970Y2010D01*
X4972Y2010D01*
X4973Y2009D01*
X4973Y2009D01*
X4975Y2009D01*
X4976Y2008D01*
X4977Y2007D01*
X4979Y2006D01*
X4980Y2004D01*
X4981Y2003D01*
X4982Y2003D01*
X4982Y2002D01*
X4982Y2002D01*
X4983Y2000D01*
X4984Y1999D01*
X4985Y1997D01*
X4985Y1996D01*
X4986Y1994D01*
Y1994D01*
X4986Y1993D01*
X4986Y1992D01*
X4986Y1990D01*
X4987Y1988D01*
X4987Y1986D01*
X4987Y1983D01*
Y1980D01*
Y1929D01*
X4965D01*
Y1970D01*
Y1971D01*
Y1971D01*
Y1972D01*
Y1973D01*
Y1974D01*
Y1975D01*
X4965Y1978D01*
X4965Y1980D01*
X4965Y1983D01*
X4964Y1986D01*
X4964Y1987D01*
X4964Y1987D01*
Y1988D01*
X4964Y1988D01*
X4963Y1989D01*
X4963Y1990D01*
X4961Y1992D01*
X4961Y1993D01*
X4959Y1993D01*
X4959Y1994D01*
X4959Y1994D01*
X4958Y1994D01*
X4957Y1995D01*
X4956Y1995D01*
X4955Y1995D01*
X4954Y1996D01*
X4952Y1996D01*
X4951D01*
X4950Y1996D01*
X4949Y1995D01*
X4947Y1995D01*
X4946Y1994D01*
X4944Y1994D01*
X4942Y1993D01*
X4942Y1992D01*
X4941Y1992D01*
X4941Y1991D01*
X4940Y1991D01*
X4939Y1989D01*
X4938Y1988D01*
X4937Y1986D01*
X4936Y1984D01*
Y1984D01*
X4936Y1983D01*
X4935Y1982D01*
X4935Y1980D01*
X4935Y1979D01*
X4935Y1978D01*
X4935Y1976D01*
Y1974D01*
X4935Y1973D01*
X4934Y1970D01*
Y1968D01*
Y1966D01*
Y1929D01*
X4913D01*
Y2010D01*
X4933D01*
Y1998D01*
X4933Y1999D01*
X4933Y1999D01*
X4934Y2000D01*
X4935Y2001D01*
X4936Y2002D01*
X4937Y2003D01*
X4938Y2004D01*
X4940Y2005D01*
X4942Y2007D01*
X4944Y2008D01*
X4946Y2009D01*
X4948Y2010D01*
X4951Y2011D01*
X4954Y2012D01*
X4957Y2012D01*
X4959Y2012D01*
X4961D01*
X4962Y2012D01*
D02*
G37*
G36*
X5337D02*
X5338Y2012D01*
X5340Y2012D01*
X5342Y2011D01*
X5345Y2010D01*
X5347Y2010D01*
X5347Y2009D01*
X5348Y2009D01*
X5349Y2009D01*
X5350Y2008D01*
X5352Y2007D01*
X5353Y2006D01*
X5355Y2004D01*
X5356Y2003D01*
X5356Y2003D01*
X5357Y2002D01*
X5357Y2002D01*
X5358Y2000D01*
X5358Y1999D01*
X5359Y1997D01*
X5360Y1996D01*
X5360Y1994D01*
Y1994D01*
X5360Y1993D01*
X5361Y1992D01*
X5361Y1990D01*
X5361Y1988D01*
X5361Y1986D01*
X5362Y1983D01*
Y1980D01*
Y1929D01*
X5340D01*
Y1970D01*
Y1971D01*
Y1971D01*
Y1972D01*
Y1973D01*
Y1974D01*
Y1975D01*
X5340Y1978D01*
X5340Y1980D01*
X5339Y1983D01*
X5339Y1986D01*
X5339Y1987D01*
X5339Y1987D01*
Y1988D01*
X5338Y1988D01*
X5338Y1989D01*
X5337Y1990D01*
X5336Y1992D01*
X5335Y1993D01*
X5334Y1993D01*
X5334Y1994D01*
X5334Y1994D01*
X5333Y1994D01*
X5332Y1995D01*
X5331Y1995D01*
X5330Y1995D01*
X5328Y1996D01*
X5327Y1996D01*
X5326D01*
X5325Y1996D01*
X5323Y1995D01*
X5322Y1995D01*
X5320Y1994D01*
X5318Y1994D01*
X5317Y1993D01*
X5316Y1992D01*
X5316Y1992D01*
X5315Y1991D01*
X5314Y1991D01*
X5313Y1989D01*
X5312Y1988D01*
X5311Y1986D01*
X5311Y1984D01*
Y1984D01*
X5310Y1983D01*
X5310Y1982D01*
X5310Y1980D01*
X5310Y1979D01*
X5309Y1978D01*
X5309Y1976D01*
Y1974D01*
X5309Y1973D01*
X5309Y1970D01*
Y1968D01*
Y1966D01*
Y1929D01*
X5287D01*
Y2010D01*
X5307D01*
Y1998D01*
X5307Y1999D01*
X5308Y1999D01*
X5308Y2000D01*
X5309Y2001D01*
X5310Y2002D01*
X5311Y2003D01*
X5313Y2004D01*
X5315Y2005D01*
X5316Y2007D01*
X5318Y2008D01*
X5321Y2009D01*
X5323Y2010D01*
X5326Y2011D01*
X5328Y2012D01*
X5331Y2012D01*
X5334Y2012D01*
X5335D01*
X5337Y2012D01*
D02*
G37*
G36*
X5223D02*
X5225Y2012D01*
X5227Y2011D01*
X5230Y2010D01*
X5232Y2009D01*
X5235Y2008D01*
X5228Y1989D01*
X5228Y1990D01*
X5227Y1990D01*
X5226Y1991D01*
X5225Y1991D01*
X5223Y1992D01*
X5221Y1992D01*
X5220Y1993D01*
X5218Y1993D01*
X5217D01*
X5216Y1993D01*
X5215Y1993D01*
X5214Y1992D01*
X5213Y1992D01*
X5212Y1991D01*
X5210Y1990D01*
X5210Y1990D01*
X5210Y1990D01*
X5209Y1989D01*
X5208Y1988D01*
X5208Y1987D01*
X5207Y1986D01*
X5206Y1984D01*
X5205Y1981D01*
Y1981D01*
X5205Y1980D01*
X5205Y1980D01*
Y1979D01*
X5205Y1978D01*
X5205Y1977D01*
X5205Y1975D01*
X5204Y1974D01*
X5204Y1972D01*
X5204Y1970D01*
Y1967D01*
X5204Y1964D01*
X5204Y1961D01*
Y1958D01*
Y1954D01*
Y1929D01*
X5182D01*
Y2010D01*
X5202D01*
Y1999D01*
X5202Y1999D01*
X5203Y2000D01*
X5204Y2002D01*
X5205Y2003D01*
X5207Y2005D01*
X5208Y2007D01*
X5210Y2009D01*
X5211Y2010D01*
X5211Y2010D01*
X5212Y2010D01*
X5213Y2010D01*
X5214Y2011D01*
X5215Y2011D01*
X5217Y2012D01*
X5218Y2012D01*
X5220Y2012D01*
X5222D01*
X5223Y2012D01*
D02*
G37*
G36*
X4727D02*
X4729Y2012D01*
X4731Y2012D01*
X4733Y2011D01*
X4735Y2010D01*
X4737Y2010D01*
X4738Y2009D01*
X4738Y2009D01*
X4739Y2009D01*
X4741Y2008D01*
X4742Y2007D01*
X4744Y2006D01*
X4745Y2004D01*
X4746Y2003D01*
X4747Y2003D01*
X4747Y2002D01*
X4747Y2002D01*
X4748Y2000D01*
X4749Y1999D01*
X4750Y1997D01*
X4750Y1996D01*
X4751Y1994D01*
Y1994D01*
X4751Y1993D01*
X4751Y1992D01*
X4751Y1990D01*
X4752Y1988D01*
X4752Y1986D01*
X4752Y1983D01*
Y1980D01*
Y1929D01*
X4730D01*
Y1970D01*
Y1971D01*
Y1971D01*
Y1972D01*
Y1973D01*
Y1974D01*
Y1975D01*
X4730Y1978D01*
X4730Y1980D01*
X4730Y1983D01*
X4729Y1986D01*
X4729Y1987D01*
X4729Y1987D01*
Y1988D01*
X4729Y1988D01*
X4728Y1989D01*
X4728Y1990D01*
X4726Y1992D01*
X4726Y1993D01*
X4724Y1993D01*
X4724Y1994D01*
X4724Y1994D01*
X4723Y1994D01*
X4722Y1995D01*
X4721Y1995D01*
X4720Y1995D01*
X4719Y1996D01*
X4717Y1996D01*
X4716D01*
X4715Y1996D01*
X4714Y1995D01*
X4712Y1995D01*
X4710Y1994D01*
X4709Y1994D01*
X4707Y1993D01*
X4707Y1992D01*
X4706Y1992D01*
X4705Y1991D01*
X4704Y1991D01*
X4704Y1989D01*
X4703Y1988D01*
X4702Y1986D01*
X4701Y1984D01*
Y1984D01*
X4701Y1983D01*
X4700Y1982D01*
X4700Y1980D01*
X4700Y1979D01*
X4700Y1978D01*
X4700Y1976D01*
Y1974D01*
X4699Y1973D01*
X4699Y1970D01*
Y1968D01*
Y1966D01*
Y1929D01*
X4678D01*
Y2010D01*
X4698D01*
Y1998D01*
X4698Y1999D01*
X4698Y1999D01*
X4699Y2000D01*
X4700Y2001D01*
X4701Y2002D01*
X4702Y2003D01*
X4703Y2004D01*
X4705Y2005D01*
X4707Y2007D01*
X4709Y2008D01*
X4711Y2009D01*
X4713Y2010D01*
X4716Y2011D01*
X4719Y2012D01*
X4721Y2012D01*
X4724Y2012D01*
X4726D01*
X4727Y2012D01*
D02*
G37*
%LPC*%
G36*
X4348Y1877D02*
X4348D01*
X4348Y1877D01*
X4348Y1876D01*
X4348Y1876D01*
X4347Y1876D01*
X4347Y1876D01*
X4347Y1876D01*
X4346Y1876D01*
X4346Y1876D01*
X4345Y1876D01*
X4344Y1875D01*
X4343Y1875D01*
X4342Y1875D01*
X4341Y1875D01*
X4340Y1875D01*
X4339Y1874D01*
X4339D01*
X4339Y1874D01*
X4338Y1874D01*
X4337Y1874D01*
X4337Y1874D01*
X4336Y1874D01*
X4335Y1874D01*
X4335Y1873D01*
X4334D01*
X4334Y1873D01*
X4334Y1873D01*
X4334Y1873D01*
X4333Y1872D01*
X4332Y1872D01*
Y1872D01*
X4332Y1871D01*
X4332Y1871D01*
X4332Y1871D01*
X4332Y1870D01*
X4332Y1870D01*
X4332Y1870D01*
X4332Y1869D01*
Y1869D01*
Y1869D01*
X4332Y1868D01*
X4332Y1868D01*
X4332Y1867D01*
X4332Y1867D01*
X4333Y1866D01*
X4333Y1865D01*
X4333Y1865D01*
X4334Y1865D01*
X4334Y1865D01*
X4334Y1865D01*
X4335Y1864D01*
X4336Y1864D01*
X4337Y1864D01*
X4338Y1864D01*
X4339D01*
X4339Y1864D01*
X4340Y1864D01*
X4341Y1864D01*
X4342Y1864D01*
X4343Y1865D01*
X4344Y1865D01*
X4344Y1865D01*
X4344Y1865D01*
X4345Y1866D01*
X4345Y1866D01*
X4346Y1867D01*
X4346Y1867D01*
X4347Y1868D01*
X4347Y1869D01*
X4347Y1869D01*
X4348Y1869D01*
X4348Y1870D01*
X4348Y1870D01*
X4348Y1871D01*
X4348Y1872D01*
X4348Y1873D01*
X4348Y1874D01*
X4348Y1877D01*
D02*
G37*
G36*
X4484D02*
X4484D01*
X4484Y1877D01*
X4484Y1876D01*
X4484Y1876D01*
X4483Y1876D01*
X4483Y1876D01*
X4483Y1876D01*
X4482Y1876D01*
X4481Y1876D01*
X4481Y1876D01*
X4480Y1875D01*
X4479Y1875D01*
X4478Y1875D01*
X4477Y1875D01*
X4476Y1875D01*
X4475Y1874D01*
X4475D01*
X4475Y1874D01*
X4474Y1874D01*
X4473Y1874D01*
X4473Y1874D01*
X4472Y1874D01*
X4471Y1874D01*
X4470Y1873D01*
X4470D01*
X4470Y1873D01*
X4470Y1873D01*
X4470Y1873D01*
X4469Y1872D01*
X4468Y1872D01*
Y1872D01*
X4468Y1871D01*
X4468Y1871D01*
X4468Y1871D01*
X4468Y1870D01*
X4468Y1870D01*
X4468Y1870D01*
X4468Y1869D01*
Y1869D01*
Y1869D01*
X4468Y1868D01*
X4468Y1868D01*
X4468Y1867D01*
X4468Y1867D01*
X4469Y1866D01*
X4469Y1865D01*
X4469Y1865D01*
X4469Y1865D01*
X4470Y1865D01*
X4470Y1865D01*
X4471Y1864D01*
X4472Y1864D01*
X4473Y1864D01*
X4474Y1864D01*
X4475D01*
X4475Y1864D01*
X4476Y1864D01*
X4477Y1864D01*
X4478Y1864D01*
X4479Y1865D01*
X4480Y1865D01*
X4480Y1865D01*
X4480Y1865D01*
X4481Y1866D01*
X4481Y1866D01*
X4482Y1867D01*
X4482Y1867D01*
X4483Y1868D01*
X4483Y1869D01*
X4483Y1869D01*
X4483Y1869D01*
X4484Y1870D01*
X4484Y1870D01*
X4484Y1871D01*
X4484Y1872D01*
X4484Y1873D01*
X4484Y1874D01*
X4484Y1877D01*
D02*
G37*
G36*
X8215Y2371D02*
X8215D01*
X8214Y2371D01*
X8213Y2371D01*
X8212Y2370D01*
X8211Y2370D01*
X8209Y2369D01*
X8208Y2368D01*
X8208Y2368D01*
X8208Y2368D01*
X8207Y2367D01*
X8206Y2366D01*
X8206Y2365D01*
X8205Y2363D01*
X8204Y2362D01*
X8204Y2360D01*
X8224D01*
Y2360D01*
Y2360D01*
Y2360D01*
Y2361D01*
Y2361D01*
Y2361D01*
Y2361D01*
Y2362D01*
X8224Y2363D01*
X8223Y2364D01*
X8223Y2365D01*
X8223Y2366D01*
X8222Y2367D01*
X8221Y2369D01*
X8221Y2369D01*
X8221Y2369D01*
X8220Y2369D01*
X8220Y2370D01*
X8219Y2370D01*
X8218Y2371D01*
X8217Y2371D01*
X8215Y2371D01*
D02*
G37*
G36*
X8119Y2354D02*
X8119D01*
X8119Y2354D01*
X8119D01*
X8118Y2354D01*
X8117Y2354D01*
X8116Y2354D01*
X8116D01*
X8116Y2354D01*
X8115D01*
X8115Y2353D01*
X8114Y2353D01*
X8113Y2353D01*
X8111Y2353D01*
X8109Y2352D01*
X8107Y2352D01*
X8106Y2351D01*
X8105Y2351D01*
X8104Y2351D01*
X8104Y2350D01*
X8104Y2350D01*
X8103Y2350D01*
X8103Y2350D01*
X8103Y2349D01*
X8102Y2349D01*
X8102Y2348D01*
X8102Y2347D01*
X8102Y2346D01*
Y2346D01*
Y2346D01*
X8102Y2345D01*
X8102Y2345D01*
X8102Y2344D01*
X8102Y2344D01*
X8103Y2343D01*
X8103Y2342D01*
X8103Y2342D01*
X8104Y2342D01*
X8104Y2342D01*
X8104Y2342D01*
X8105Y2341D01*
X8106Y2341D01*
X8106Y2341D01*
X8107Y2341D01*
X8108D01*
X8108Y2341D01*
X8109Y2341D01*
X8110Y2341D01*
X8111Y2341D01*
X8112Y2342D01*
X8113Y2342D01*
X8113Y2342D01*
X8113Y2342D01*
X8114Y2343D01*
X8114Y2343D01*
X8115Y2344D01*
X8115Y2344D01*
X8116Y2345D01*
X8116Y2346D01*
X8117Y2346D01*
X8117Y2346D01*
X8117Y2347D01*
X8117Y2347D01*
X8118Y2348D01*
X8118Y2350D01*
X8118Y2351D01*
X8119Y2353D01*
X8119Y2354D01*
D02*
G37*
G36*
X8066Y2371D02*
X8065D01*
X8064Y2371D01*
X8064Y2371D01*
X8062Y2370D01*
X8061Y2370D01*
X8060Y2369D01*
X8059Y2368D01*
X8059Y2368D01*
X8058Y2368D01*
X8058Y2367D01*
X8057Y2366D01*
X8057Y2365D01*
X8056Y2363D01*
X8055Y2362D01*
X8055Y2360D01*
X8074D01*
Y2360D01*
Y2360D01*
Y2360D01*
Y2361D01*
Y2361D01*
Y2361D01*
Y2361D01*
Y2362D01*
X8074Y2363D01*
X8074Y2364D01*
X8074Y2365D01*
X8073Y2366D01*
X8073Y2367D01*
X8072Y2369D01*
X8072Y2369D01*
X8072Y2369D01*
X8071Y2369D01*
X8070Y2370D01*
X8070Y2370D01*
X8068Y2371D01*
X8067Y2371D01*
X8066Y2371D01*
D02*
G37*
G36*
X4686Y1877D02*
X4686D01*
X4686Y1877D01*
X4686Y1876D01*
X4686Y1876D01*
X4685Y1876D01*
X4685Y1876D01*
X4685Y1876D01*
X4684Y1876D01*
X4684Y1876D01*
X4683Y1876D01*
X4682Y1875D01*
X4681Y1875D01*
X4680Y1875D01*
X4679Y1875D01*
X4678Y1875D01*
X4677Y1874D01*
X4677D01*
X4677Y1874D01*
X4676Y1874D01*
X4675Y1874D01*
X4675Y1874D01*
X4674Y1874D01*
X4673Y1874D01*
X4673Y1873D01*
X4672D01*
X4672Y1873D01*
X4672Y1873D01*
X4672Y1873D01*
X4671Y1872D01*
X4670Y1872D01*
Y1872D01*
X4670Y1871D01*
X4670Y1871D01*
X4670Y1871D01*
X4670Y1870D01*
X4670Y1870D01*
X4670Y1870D01*
X4670Y1869D01*
Y1869D01*
Y1869D01*
X4670Y1868D01*
X4670Y1868D01*
X4670Y1867D01*
X4670Y1867D01*
X4671Y1866D01*
X4671Y1865D01*
X4671Y1865D01*
X4672Y1865D01*
X4672Y1865D01*
X4672Y1865D01*
X4673Y1864D01*
X4674Y1864D01*
X4675Y1864D01*
X4676Y1864D01*
X4677D01*
X4677Y1864D01*
X4678Y1864D01*
X4679Y1864D01*
X4680Y1864D01*
X4681Y1865D01*
X4682Y1865D01*
X4682Y1865D01*
X4682Y1865D01*
X4683Y1866D01*
X4683Y1866D01*
X4684Y1867D01*
X4684Y1867D01*
X4685Y1868D01*
X4685Y1869D01*
X4685Y1869D01*
X4686Y1869D01*
X4686Y1870D01*
X4686Y1870D01*
X4686Y1871D01*
X4686Y1872D01*
X4686Y1873D01*
X4686Y1874D01*
X4686Y1877D01*
D02*
G37*
G36*
X4809Y1996D02*
X4808D01*
X4807Y1996D01*
X4806Y1995D01*
X4804Y1995D01*
X4802Y1994D01*
X4800Y1993D01*
X4798Y1992D01*
X4796Y1990D01*
X4796Y1989D01*
X4795Y1988D01*
X4794Y1987D01*
X4793Y1985D01*
X4793Y1982D01*
X4792Y1979D01*
X4791Y1976D01*
X4791Y1971D01*
Y1971D01*
Y1971D01*
Y1970D01*
X4791Y1969D01*
Y1968D01*
X4791Y1967D01*
X4792Y1964D01*
X4792Y1961D01*
X4793Y1958D01*
X4794Y1955D01*
X4796Y1952D01*
X4796Y1952D01*
X4797Y1951D01*
X4798Y1951D01*
X4799Y1950D01*
X4801Y1948D01*
X4803Y1947D01*
X4806Y1947D01*
X4808Y1946D01*
X4808D01*
X4809Y1947D01*
X4811Y1947D01*
X4813Y1947D01*
X4815Y1948D01*
X4817Y1949D01*
X4819Y1951D01*
X4821Y1953D01*
X4822Y1953D01*
X4822Y1954D01*
X4823Y1955D01*
X4824Y1957D01*
X4825Y1960D01*
X4826Y1963D01*
X4827Y1967D01*
X4827Y1971D01*
Y1971D01*
Y1971D01*
Y1972D01*
Y1973D01*
X4827Y1974D01*
X4827Y1975D01*
X4826Y1978D01*
X4826Y1981D01*
X4825Y1984D01*
X4824Y1987D01*
X4822Y1990D01*
X4822Y1990D01*
X4821Y1991D01*
X4820Y1992D01*
X4818Y1993D01*
X4816Y1994D01*
X4814Y1995D01*
X4812Y1995D01*
X4809Y1996D01*
D02*
G37*
G36*
X4466Y2022D02*
X4440D01*
Y1994D01*
X4462D01*
X4465Y1994D01*
X4468Y1994D01*
X4472Y1994D01*
X4473Y1994D01*
X4475Y1995D01*
X4476Y1995D01*
X4477Y1995D01*
X4477D01*
X4477Y1995D01*
X4478Y1996D01*
X4479Y1996D01*
X4481Y1998D01*
X4482Y1999D01*
X4483Y2000D01*
X4483Y2000D01*
X4483Y2000D01*
X4484Y2001D01*
X4484Y2002D01*
X4485Y2003D01*
X4485Y2005D01*
X4485Y2006D01*
X4485Y2008D01*
Y2009D01*
Y2009D01*
X4485Y2010D01*
X4485Y2011D01*
X4485Y2013D01*
X4484Y2014D01*
X4483Y2016D01*
X4482Y2017D01*
X4482Y2017D01*
X4482Y2018D01*
X4481Y2018D01*
X4480Y2019D01*
X4479Y2020D01*
X4478Y2021D01*
X4476Y2021D01*
X4474Y2022D01*
X4474D01*
X4473Y2022D01*
X4472D01*
X4471Y2022D01*
X4467D01*
X4466Y2022D01*
D02*
G37*
G36*
X5418Y1996D02*
X5418D01*
X5417Y1996D01*
X5415Y1995D01*
X5414Y1995D01*
X5412Y1994D01*
X5409Y1993D01*
X5407Y1992D01*
X5405Y1990D01*
X5405Y1989D01*
X5405Y1988D01*
X5404Y1987D01*
X5403Y1985D01*
X5402Y1982D01*
X5401Y1979D01*
X5401Y1976D01*
X5401Y1971D01*
Y1971D01*
Y1971D01*
Y1970D01*
X5401Y1969D01*
Y1968D01*
X5401Y1967D01*
X5401Y1964D01*
X5402Y1961D01*
X5403Y1958D01*
X5404Y1955D01*
X5405Y1952D01*
X5406Y1952D01*
X5406Y1951D01*
X5407Y1951D01*
X5409Y1950D01*
X5411Y1948D01*
X5413Y1947D01*
X5415Y1947D01*
X5418Y1946D01*
X5418D01*
X5419Y1947D01*
X5421Y1947D01*
X5422Y1947D01*
X5425Y1948D01*
X5427Y1949D01*
X5429Y1951D01*
X5431Y1953D01*
X5431Y1953D01*
X5432Y1954D01*
X5433Y1955D01*
X5434Y1957D01*
X5435Y1960D01*
X5436Y1963D01*
X5436Y1967D01*
X5437Y1971D01*
Y1971D01*
Y1971D01*
Y1972D01*
Y1973D01*
X5436Y1974D01*
X5436Y1975D01*
X5436Y1978D01*
X5435Y1981D01*
X5434Y1984D01*
X5433Y1987D01*
X5431Y1990D01*
X5431Y1990D01*
X5430Y1991D01*
X5429Y1992D01*
X5428Y1993D01*
X5426Y1994D01*
X5424Y1995D01*
X5421Y1995D01*
X5418Y1996D01*
D02*
G37*
G36*
X5041D02*
X5040D01*
X5039Y1995D01*
X5037Y1995D01*
X5035Y1994D01*
X5033Y1994D01*
X5031Y1992D01*
X5029Y1991D01*
X5029Y1990D01*
X5029Y1990D01*
X5028Y1988D01*
X5027Y1987D01*
X5026Y1985D01*
X5026Y1982D01*
X5025Y1980D01*
X5025Y1977D01*
X5057D01*
Y1977D01*
Y1977D01*
Y1977D01*
X5057Y1978D01*
X5057Y1980D01*
X5056Y1982D01*
X5056Y1984D01*
X5055Y1986D01*
X5054Y1989D01*
X5052Y1991D01*
X5052Y1991D01*
X5051Y1992D01*
X5050Y1992D01*
X5049Y1993D01*
X5047Y1994D01*
X5045Y1995D01*
X5043Y1996D01*
X5041Y1996D01*
D02*
G37*
G36*
X5128D02*
X5127D01*
X5126Y1995D01*
X5124Y1995D01*
X5122Y1994D01*
X5120Y1994D01*
X5118Y1992D01*
X5117Y1991D01*
X5116Y1990D01*
X5116Y1990D01*
X5115Y1988D01*
X5114Y1987D01*
X5113Y1985D01*
X5113Y1982D01*
X5112Y1980D01*
X5112Y1977D01*
X5144D01*
Y1977D01*
Y1977D01*
Y1977D01*
X5144Y1978D01*
X5144Y1980D01*
X5143Y1982D01*
X5143Y1984D01*
X5142Y1986D01*
X5141Y1989D01*
X5139Y1991D01*
X5139Y1991D01*
X5138Y1992D01*
X5137Y1992D01*
X5136Y1993D01*
X5135Y1994D01*
X5133Y1995D01*
X5131Y1996D01*
X5128Y1996D01*
D02*
G37*
G36*
X4606Y1900D02*
X4592D01*
Y1885D01*
X4606D01*
X4606Y1885D01*
X4607Y1885D01*
X4608Y1885D01*
X4609Y1886D01*
X4610Y1886D01*
X4611Y1886D01*
X4611Y1886D01*
X4612Y1886D01*
X4612Y1886D01*
X4613Y1887D01*
X4613Y1887D01*
X4614Y1888D01*
X4614Y1888D01*
X4615Y1889D01*
X4615Y1889D01*
X4615Y1889D01*
X4615Y1889D01*
X4615Y1890D01*
X4616Y1891D01*
X4616Y1891D01*
X4616Y1892D01*
X4616Y1893D01*
Y1893D01*
Y1893D01*
X4616Y1893D01*
X4616Y1894D01*
X4616Y1895D01*
X4615Y1895D01*
X4615Y1896D01*
X4614Y1897D01*
X4614Y1898D01*
X4614Y1898D01*
X4613Y1898D01*
X4613Y1899D01*
X4612Y1899D01*
X4611Y1899D01*
X4610Y1900D01*
X4608Y1900D01*
X4606Y1900D01*
D02*
G37*
G36*
X4511Y1889D02*
X4510D01*
X4510Y1889D01*
X4509Y1889D01*
X4508Y1889D01*
X4507Y1888D01*
X4506Y1888D01*
X4505Y1887D01*
X4505Y1886D01*
X4504Y1886D01*
Y1886D01*
X4504Y1886D01*
X4504Y1886D01*
X4504Y1885D01*
X4504Y1885D01*
X4504Y1885D01*
X4503Y1884D01*
X4503Y1884D01*
X4503Y1883D01*
X4503Y1882D01*
X4502Y1881D01*
X4502Y1881D01*
X4502Y1880D01*
X4502Y1879D01*
X4502Y1878D01*
Y1876D01*
Y1876D01*
Y1876D01*
Y1876D01*
X4502Y1875D01*
Y1875D01*
X4502Y1874D01*
X4502Y1873D01*
X4503Y1871D01*
X4503Y1870D01*
X4504Y1868D01*
X4504Y1868D01*
X4505Y1867D01*
X4505D01*
X4505Y1867D01*
X4505Y1867D01*
X4506Y1866D01*
X4506Y1866D01*
X4507Y1865D01*
X4508Y1865D01*
X4509Y1864D01*
X4510Y1864D01*
X4511Y1864D01*
X4511D01*
X4511Y1864D01*
X4512Y1864D01*
X4513Y1864D01*
X4514Y1865D01*
X4515Y1865D01*
X4516Y1866D01*
X4516Y1866D01*
X4517Y1867D01*
Y1867D01*
X4517Y1867D01*
X4517Y1867D01*
X4517Y1868D01*
X4517Y1868D01*
X4518Y1868D01*
X4518Y1869D01*
X4518Y1869D01*
X4518Y1870D01*
X4519Y1870D01*
X4519Y1871D01*
X4519Y1872D01*
X4519Y1873D01*
X4519Y1874D01*
X4519Y1875D01*
Y1876D01*
Y1876D01*
Y1876D01*
Y1877D01*
X4519Y1877D01*
Y1878D01*
X4519Y1878D01*
X4519Y1879D01*
X4519Y1880D01*
X4519Y1881D01*
X4518Y1883D01*
X4518Y1884D01*
X4517Y1885D01*
X4517Y1886D01*
Y1886D01*
X4517Y1886D01*
X4516Y1886D01*
X4516Y1887D01*
X4515Y1887D01*
X4514Y1888D01*
X4513Y1888D01*
X4512Y1889D01*
X4511Y1889D01*
X4511Y1889D01*
D02*
G37*
G36*
X4270D02*
X4270D01*
X4269Y1889D01*
X4269Y1889D01*
X4268Y1889D01*
X4267Y1888D01*
X4266Y1888D01*
X4265Y1887D01*
X4264Y1886D01*
X4264Y1886D01*
Y1886D01*
X4264Y1886D01*
X4264Y1886D01*
X4264Y1885D01*
X4263Y1885D01*
X4263Y1885D01*
X4263Y1884D01*
X4263Y1884D01*
X4262Y1883D01*
X4262Y1882D01*
X4262Y1881D01*
X4262Y1881D01*
X4262Y1880D01*
X4262Y1879D01*
X4261Y1878D01*
Y1876D01*
Y1876D01*
Y1876D01*
Y1876D01*
X4262Y1875D01*
Y1875D01*
X4262Y1874D01*
X4262Y1873D01*
X4262Y1871D01*
X4263Y1870D01*
X4263Y1868D01*
X4264Y1868D01*
X4264Y1867D01*
X4264D01*
X4264Y1867D01*
X4264Y1867D01*
X4265Y1866D01*
X4266Y1866D01*
X4267Y1865D01*
X4268Y1865D01*
X4269Y1864D01*
X4270Y1864D01*
X4270Y1864D01*
X4271D01*
X4271Y1864D01*
X4272Y1864D01*
X4272Y1864D01*
X4273Y1865D01*
X4274Y1865D01*
X4275Y1866D01*
X4276Y1866D01*
X4276Y1867D01*
Y1867D01*
X4277Y1867D01*
X4277Y1867D01*
X4277Y1868D01*
X4277Y1868D01*
X4277Y1868D01*
X4277Y1869D01*
X4278Y1869D01*
X4278Y1870D01*
X4278Y1870D01*
X4278Y1871D01*
X4279Y1872D01*
X4279Y1873D01*
X4279Y1874D01*
X4279Y1875D01*
Y1876D01*
Y1876D01*
Y1876D01*
Y1877D01*
X4279Y1877D01*
Y1878D01*
X4279Y1878D01*
X4279Y1879D01*
X4279Y1880D01*
X4278Y1881D01*
X4278Y1883D01*
X4277Y1884D01*
X4277Y1885D01*
X4276Y1886D01*
Y1886D01*
X4276Y1886D01*
X4276Y1886D01*
X4275Y1887D01*
X4275Y1887D01*
X4274Y1888D01*
X4273Y1888D01*
X4271Y1889D01*
X4271Y1889D01*
X4270Y1889D01*
D02*
G37*
G36*
X4306D02*
X4306D01*
X4305Y1889D01*
X4305Y1889D01*
X4304Y1889D01*
X4303Y1888D01*
X4302Y1888D01*
X4301Y1887D01*
X4300Y1886D01*
X4300Y1886D01*
X4299Y1886D01*
X4299Y1885D01*
X4298Y1885D01*
X4298Y1884D01*
X4297Y1882D01*
X4297Y1881D01*
X4297Y1880D01*
X4315D01*
Y1880D01*
Y1880D01*
X4315Y1880D01*
Y1880D01*
X4315Y1881D01*
X4315Y1882D01*
X4314Y1883D01*
X4314Y1884D01*
X4313Y1885D01*
X4313Y1886D01*
Y1886D01*
X4313Y1886D01*
X4312Y1886D01*
X4312Y1887D01*
X4311Y1887D01*
X4310Y1888D01*
X4309Y1888D01*
X4308Y1889D01*
X4307Y1889D01*
X4306Y1889D01*
D02*
G37*
G36*
X4644D02*
X4644D01*
X4643Y1889D01*
X4643Y1889D01*
X4642Y1889D01*
X4641Y1888D01*
X4640Y1888D01*
X4639Y1887D01*
X4638Y1886D01*
X4638Y1886D01*
X4637Y1886D01*
X4637Y1885D01*
X4636Y1885D01*
X4636Y1884D01*
X4635Y1882D01*
X4635Y1881D01*
X4635Y1880D01*
X4653D01*
Y1880D01*
Y1880D01*
X4653Y1880D01*
Y1880D01*
X4653Y1881D01*
X4653Y1882D01*
X4652Y1883D01*
X4652Y1884D01*
X4651Y1885D01*
X4651Y1886D01*
Y1886D01*
X4651Y1886D01*
X4650Y1886D01*
X4650Y1887D01*
X4649Y1887D01*
X4648Y1888D01*
X4647Y1888D01*
X4646Y1889D01*
X4645Y1889D01*
X4644Y1889D01*
D02*
G37*
G36*
X4547D02*
X4546D01*
X4546Y1889D01*
X4545Y1889D01*
X4544Y1889D01*
X4543Y1888D01*
X4542Y1888D01*
X4541Y1887D01*
X4540Y1886D01*
X4540Y1886D01*
X4540Y1886D01*
X4539Y1885D01*
X4539Y1885D01*
X4538Y1884D01*
X4538Y1882D01*
X4537Y1881D01*
X4537Y1880D01*
X4555D01*
Y1880D01*
Y1880D01*
X4555Y1880D01*
Y1880D01*
X4555Y1881D01*
X4555Y1882D01*
X4555Y1883D01*
X4554Y1884D01*
X4554Y1885D01*
X4553Y1886D01*
Y1886D01*
X4553Y1886D01*
X4553Y1886D01*
X4552Y1887D01*
X4552Y1887D01*
X4551Y1888D01*
X4549Y1888D01*
X4548Y1889D01*
X4547Y1889D01*
X4547Y1889D01*
D02*
G37*
%LPD*%
D48*
X4563Y5305D02*
G03*
X4563Y5305I-35J0D01*
G01*
X9248Y5335D02*
G03*
X9248Y5335I-35J0D01*
G01*
X8092Y1949D02*
G03*
X8092Y1949I-100J0D01*
G01*
X6531Y3780D02*
G03*
X6531Y3780I-35J0D01*
G01*
X6541Y5256D02*
G03*
X6541Y5256I-35J0D01*
G01*
Y5354D02*
G03*
X6541Y5354I-35J0D01*
G01*
X4150Y4478D02*
G03*
X4150Y4478I-35J0D01*
G01*
X5419Y3789D02*
G03*
X5419Y3789I-35J0D01*
G01*
Y3691D02*
G03*
X5419Y3691I-35J0D01*
G01*
Y3593D02*
G03*
X5419Y3593I-35J0D01*
G01*
X9626Y5374D02*
G03*
X9626Y5374I-118J0D01*
G01*
Y1713D02*
G03*
X9626Y1713I-118J0D01*
G01*
X1634D02*
G03*
X1634Y1713I-118J0D01*
G01*
Y5374D02*
G03*
X1634Y5374I-118J0D01*
G01*
X7913Y2785D02*
Y2864D01*
X7992Y2785D02*
Y2864D01*
X6703Y4075D02*
Y4193D01*
X6526D02*
X6703D01*
X6526Y4075D02*
Y4193D01*
Y4075D02*
X6703D01*
X7876Y2264D02*
X7904Y2254D01*
X3041Y1772D02*
X3632D01*
X3150Y1644D02*
X3661D01*
X2077Y1654D02*
X2628D01*
X2116Y1772D02*
X2677D01*
X7952Y2717D02*
X8032D01*
X7952Y2638D02*
X8032D01*
X7825Y2500D02*
Y2618D01*
X7648D02*
X7825D01*
X7648Y2500D02*
Y2618D01*
Y2500D02*
X7825D01*
X7539Y3583D02*
X7657D01*
Y3760D01*
X7539D02*
X7657D01*
X7539Y3583D02*
Y3760D01*
X8602Y3907D02*
X8720D01*
Y4085D01*
X8602D02*
X8720D01*
X8602Y3907D02*
Y4085D01*
X4035Y4823D02*
Y4941D01*
X3858D02*
X4035D01*
X3858Y4823D02*
Y4941D01*
Y4823D02*
X4035D01*
X4508Y4173D02*
Y4291D01*
X4331D02*
X4508D01*
X4331Y4173D02*
Y4291D01*
Y4173D02*
X4508D01*
X6476Y2953D02*
Y3071D01*
Y2953D02*
X6654D01*
Y3071D01*
X6476D02*
X6654D01*
X6535Y4429D02*
Y4547D01*
Y4429D02*
X6713D01*
Y4547D01*
X6535D02*
X6713D01*
X8051Y4528D02*
X8130D01*
X8051Y4606D02*
X8130D01*
X3051Y3986D02*
X3130D01*
X3051Y4065D02*
X3130D01*
X3085Y4094D02*
X3115D01*
X3085Y4214D02*
X3115D01*
X8036Y4300D02*
X8066D01*
X8036Y4420D02*
X8066D01*
X8371Y4509D02*
X8401D01*
X8371Y4389D02*
X8401D01*
X8371Y4341D02*
X8401D01*
X8371Y4221D02*
X8401D01*
X8681Y5285D02*
X8760D01*
X8681Y5207D02*
X8760D01*
X8681Y4931D02*
X8760D01*
X8681Y5010D02*
X8760D01*
X8602Y4823D02*
X8681D01*
X8602Y4902D02*
X8681D01*
X7982Y5236D02*
X8002D01*
X7963Y5266D02*
X7982D01*
Y5236D02*
Y5266D01*
Y4980D02*
Y5236D01*
X7972Y4980D02*
X7982D01*
Y4961D02*
Y4980D01*
Y4961D02*
X7992D01*
X8031Y5000D02*
X8111D01*
X8031Y4921D02*
X8111D01*
X8208D02*
X8288D01*
X8208Y5000D02*
X8288D01*
X8445Y5118D02*
X8524D01*
X8445Y5197D02*
X8524D01*
X8445Y5098D02*
X8524D01*
X8445Y5020D02*
X8524D01*
X8445Y4921D02*
X8524D01*
X8445Y5000D02*
X8524D01*
X8445Y4823D02*
X8524D01*
X8445Y4902D02*
X8524D01*
X8445Y4724D02*
X8524D01*
X8445Y4803D02*
X8524D01*
X8445Y4626D02*
X8524D01*
X8445Y4705D02*
X8524D01*
X8248D02*
X8327D01*
X8248Y4626D02*
X8327D01*
X8051D02*
X8130D01*
X8051Y4705D02*
X8130D01*
X7854Y4921D02*
X7933D01*
X7854Y4843D02*
X7933D01*
X7854Y5020D02*
X7933D01*
X7854Y4941D02*
X7933D01*
X7854Y4823D02*
X7933D01*
X7854Y4744D02*
X7933D01*
X7854Y4724D02*
X7933D01*
X7854Y4646D02*
X7933D01*
X7854Y5039D02*
X7933D01*
X7854Y5118D02*
X7933D01*
X8405Y3957D02*
X8485D01*
X8405Y4035D02*
X8485D01*
X8218Y4008D02*
X8318D01*
X8218Y3808D02*
X8318D01*
X8218D02*
Y4008D01*
X8318Y3808D02*
Y4008D01*
X8336Y3808D02*
Y3908D01*
X8536Y3808D02*
Y3908D01*
X8336Y3808D02*
X8536D01*
X8336Y3908D02*
X8536D01*
X7677Y3917D02*
Y3996D01*
X7756Y3917D02*
Y3996D01*
X7519Y4035D02*
X7599D01*
X7519Y3957D02*
X7599D01*
X7648Y3828D02*
Y3928D01*
X7448Y3828D02*
Y3928D01*
X7648D01*
X7448Y3828D02*
X7648D01*
X8012Y3563D02*
Y3642D01*
X8091Y3563D02*
Y3642D01*
X7874Y3661D02*
X7953D01*
X7874Y3583D02*
X7953D01*
X7874Y3484D02*
X7953D01*
X7874Y3563D02*
X7953D01*
X7894Y3110D02*
Y3189D01*
X7815Y3110D02*
Y3189D01*
X8071Y3248D02*
Y3327D01*
X8150Y3248D02*
Y3327D01*
X8435Y3150D02*
X8474Y3189D01*
Y3278D01*
X8484Y3287D01*
X8494D01*
X8326Y3071D02*
X8406D01*
X8326Y3150D02*
X8406D01*
X8351Y3188D02*
X8381D01*
X8351Y3308D02*
X8381D01*
X8661Y3090D02*
Y3170D01*
X8740Y3090D02*
Y3170D01*
X8326Y3051D02*
X8406D01*
X8326Y2972D02*
X8406D01*
X8326Y2953D02*
X8406D01*
X8326Y2874D02*
X8406D01*
X8326Y2854D02*
X8406D01*
X8326Y2776D02*
X8406D01*
X8170Y2820D02*
Y2850D01*
X8050Y2820D02*
Y2850D01*
X7815Y2933D02*
X7894D01*
X7815Y3012D02*
X7894D01*
X7776Y2785D02*
Y2864D01*
X7854Y2785D02*
Y2864D01*
X8101Y2509D02*
Y2609D01*
X7901Y2509D02*
Y2609D01*
X8101D01*
X7901Y2509D02*
X8101D01*
X8622Y2244D02*
X8701D01*
X8622Y2165D02*
X8701D01*
X8622Y1969D02*
X8701D01*
X8622Y2047D02*
X8701D01*
X8622Y2146D02*
X8701D01*
X8622Y2067D02*
X8701D01*
X9212Y2037D02*
X9292D01*
X9212Y1959D02*
X9292D01*
X9212Y1860D02*
X9292D01*
X9212Y1939D02*
X9292D01*
X8878Y1890D02*
X8957D01*
X8878Y1811D02*
X8957D01*
X8622Y1870D02*
X8701D01*
X8622Y1949D02*
X8701D01*
X8622Y1850D02*
X8701D01*
X8622Y1772D02*
X8701D01*
X8622Y1752D02*
X8701D01*
X8622Y1673D02*
X8701D01*
X8464Y2146D02*
X8544D01*
X8464Y2067D02*
X8544D01*
X7717Y1732D02*
X7835D01*
X7717D02*
Y2165D01*
X7835D01*
X7992D02*
X8287D01*
X7992Y1732D02*
X8287D01*
X7244Y2992D02*
X7323D01*
X7244Y2913D02*
X7323D01*
X6747Y2338D02*
X7047D01*
X6747Y3088D02*
X7047D01*
Y2563D02*
Y2863D01*
X6747Y2563D02*
Y2863D01*
X7047Y2338D02*
Y2363D01*
X6747Y2338D02*
Y2363D01*
X7047Y3063D02*
Y3088D01*
X6747Y3063D02*
Y3088D01*
X7224Y3622D02*
X7303D01*
X7224Y3543D02*
X7303D01*
X7224Y3642D02*
X7303D01*
X7224Y3720D02*
X7303D01*
X7224Y3740D02*
X7303D01*
X7224Y3819D02*
X7303D01*
X7067Y3878D02*
X7146D01*
X7067Y3799D02*
X7146D01*
X6899Y3858D02*
X6979D01*
X6899Y3780D02*
X6979D01*
X7067Y3504D02*
Y3583D01*
X7146Y3504D02*
Y3583D01*
X6496Y3366D02*
X6575D01*
X6496Y3445D02*
X6575D01*
X6496Y3268D02*
X6575D01*
X6496Y3346D02*
X6575D01*
X6654Y3700D02*
Y3780D01*
X6575Y3700D02*
Y3780D01*
X6378Y4803D02*
X6457D01*
X6378Y4724D02*
X6457D01*
X6378Y4902D02*
X6457D01*
X6378Y4823D02*
X6457D01*
X6378Y4921D02*
X6457D01*
X6378Y5000D02*
X6457D01*
X6634Y4744D02*
X6713D01*
X6634Y4823D02*
X6713D01*
X6614Y5079D02*
X6693D01*
X6614Y5157D02*
X6693D01*
X3700Y5236D02*
X3780D01*
X3700Y5157D02*
X3780D01*
X3700Y5138D02*
X3780D01*
X3700Y5059D02*
X3780D01*
X3700Y4961D02*
X3780D01*
X3700Y5039D02*
X3780D01*
X3735Y4822D02*
X3765D01*
X3735Y4942D02*
X3765D01*
X3615Y5206D02*
Y5306D01*
X3415Y5206D02*
Y5306D01*
X3615D01*
X3415Y5206D02*
X3615D01*
X3189Y5069D02*
X3268D01*
X3189Y4990D02*
X3268D01*
X3454Y4931D02*
X3534D01*
X3454Y4852D02*
X3534D01*
X3277Y4430D02*
Y4805D01*
Y4430D02*
X3652D01*
X3277Y4805D02*
X3652D01*
Y4430D02*
Y4805D01*
X3760Y4636D02*
Y4715D01*
X3839Y4636D02*
Y4715D01*
X3957Y4636D02*
Y4715D01*
X4035Y4636D02*
Y4715D01*
X4114Y4419D02*
X4193D01*
X4114Y4341D02*
X4193D01*
X4114Y4242D02*
X4193D01*
X4114Y4321D02*
X4193D01*
X4340Y4419D02*
X4420D01*
X4340Y4341D02*
X4420D01*
X4556Y4773D02*
X4656D01*
X4556Y5073D02*
X4656D01*
Y4773D02*
Y5073D01*
X4556Y4773D02*
Y5073D01*
X5280Y4664D02*
X5310D01*
X5280Y4784D02*
X5310D01*
X5246Y4567D02*
X5325D01*
X5246Y4646D02*
X5325D01*
X5708Y4508D02*
X5788D01*
X5708Y4429D02*
X5788D01*
X5827Y4441D02*
Y4496D01*
X5708Y4409D02*
X5788D01*
X5708Y4331D02*
X5788D01*
X5827Y4343D02*
Y4398D01*
X5708Y4311D02*
X5788D01*
X5708Y4232D02*
X5788D01*
X5827Y4244D02*
Y4299D01*
X5708Y4213D02*
X5788D01*
X5708Y4134D02*
X5788D01*
X5827Y4146D02*
Y4201D01*
X5708Y4114D02*
X5788D01*
X5708Y4035D02*
X5788D01*
X5827Y4047D02*
Y4102D01*
X5708Y4016D02*
X5788D01*
X5708Y3937D02*
X5788D01*
X5827Y3949D02*
Y4004D01*
X5531Y4429D02*
X5611D01*
X5531Y4508D02*
X5611D01*
X5531Y4331D02*
X5611D01*
X5531Y4409D02*
X5611D01*
X5531Y4232D02*
X5611D01*
X5531Y4311D02*
X5611D01*
X5531Y4134D02*
X5611D01*
X5531Y4213D02*
X5611D01*
X5531Y4035D02*
X5611D01*
X5531Y4114D02*
X5611D01*
X5197Y3799D02*
X5276D01*
X5197Y3720D02*
X5276D01*
X5551Y3543D02*
X5630D01*
X5551Y3445D02*
X5630D01*
X5551Y3524D02*
X5630D01*
X5551Y3346D02*
X5630D01*
X5551Y3425D02*
X5630D01*
X5551Y3248D02*
X5630D01*
X5551Y3327D02*
X5630D01*
X5551Y3150D02*
X5630D01*
X5551Y3228D02*
X5630D01*
X7539Y2047D02*
X7618D01*
X7539Y1969D02*
X7618D01*
X7539Y1870D02*
X7618D01*
X7539Y1949D02*
X7618D01*
X7539Y1850D02*
X7618D01*
X7539Y1772D02*
X7618D01*
X7323Y2244D02*
X7402D01*
X7323Y2165D02*
X7402D01*
X7382Y1850D02*
X7461D01*
X7382Y1772D02*
X7461D01*
X7204Y1890D02*
X7284D01*
X7204Y1811D02*
X7284D01*
X7008Y1830D02*
Y1910D01*
X7087Y1830D02*
Y1910D01*
X6968Y2028D02*
X7048D01*
X6968Y1949D02*
X7048D01*
X6968Y2126D02*
X7048D01*
X6968Y2047D02*
X7048D01*
X6968Y2146D02*
X7048D01*
X6968Y2224D02*
X7048D01*
X6811Y2224D02*
X6890D01*
X6811Y2146D02*
X6890D01*
X6201Y2067D02*
Y2146D01*
X6280Y2067D02*
Y2146D01*
Y2224D02*
Y2303D01*
X6201Y2224D02*
Y2303D01*
X6083Y2382D02*
Y2461D01*
X6161Y2382D02*
Y2461D01*
X5984Y2382D02*
Y2461D01*
X6063Y2382D02*
Y2461D01*
X5886Y2382D02*
Y2461D01*
X5965Y2382D02*
Y2461D01*
X5866Y2382D02*
Y2461D01*
X5787Y2382D02*
Y2461D01*
X5689Y2382D02*
Y2461D01*
X5768Y2382D02*
Y2461D01*
X5591Y2382D02*
Y2461D01*
X5669Y2382D02*
Y2461D01*
X5492Y2382D02*
Y2461D01*
X5571Y2382D02*
Y2461D01*
X4380Y3652D02*
X4616D01*
X4498Y3524D02*
Y3780D01*
X4380Y2638D02*
X4616D01*
X4498Y2510D02*
Y2766D01*
X3780Y1850D02*
Y2087D01*
X3652Y1969D02*
X3907D01*
X2864Y1850D02*
Y2087D01*
X2736Y1969D02*
X2992D01*
X1683Y1693D02*
X1762D01*
X1683Y1614D02*
X1762D01*
X1801Y1626D02*
Y1681D01*
X1969Y1850D02*
Y2087D01*
X1841Y1969D02*
X2096D01*
X1654Y1909D02*
Y1988D01*
X1732Y1909D02*
Y1988D01*
X1555Y1909D02*
Y1988D01*
X1634Y1909D02*
Y1988D01*
X1683Y1811D02*
X1762D01*
X1683Y1732D02*
X1762D01*
X1801Y1744D02*
Y1799D01*
X1454Y2259D02*
X4246D01*
Y3967D01*
X1454D02*
X4246D01*
X1454Y2259D02*
Y3967D01*
X1621Y3834D02*
X4071D01*
Y2509D02*
Y3834D01*
X1621Y2509D02*
X4071D01*
X1621D02*
Y3834D01*
X4695Y3484D02*
X4774D01*
X4695Y3406D02*
X4774D01*
X5531Y3937D02*
X5611D01*
X5531Y4016D02*
X5611D01*
X9434Y4753D02*
Y5263D01*
X9214Y4615D02*
Y4715D01*
X9164Y4665D02*
X9264D01*
X9434Y2608D02*
Y3118D01*
X9164Y3165D02*
X9264D01*
X8994Y5263D02*
X9434D01*
X8994Y4753D02*
X9434D01*
X8994D02*
Y5263D01*
Y3118D02*
X9434D01*
X8994Y2608D02*
X9434D01*
X8994D02*
Y3118D01*
X8996Y2244D02*
X9075D01*
X8996Y2165D02*
X9075D01*
X6575Y4036D02*
X6565Y4046D01*
X6545D01*
X6535Y4036D01*
Y3996D01*
X6545Y3986D01*
X6565D01*
X6575Y3996D01*
Y4016D01*
X6555D01*
X6595Y3986D02*
Y4046D01*
X6635Y3986D01*
Y4046D01*
X6655D02*
Y3986D01*
X6685D01*
X6695Y3996D01*
Y4036D01*
X6685Y4046D01*
X6655D01*
X3346Y5709D02*
Y5769D01*
X3366Y5749D01*
X3386Y5769D01*
Y5709D01*
X3446Y5769D02*
X3406D01*
Y5709D01*
X3446D01*
X3406Y5739D02*
X3426D01*
X3506Y5759D02*
X3496Y5769D01*
X3476D01*
X3466Y5759D01*
Y5719D01*
X3476Y5709D01*
X3496D01*
X3506Y5719D01*
X3526Y5769D02*
Y5709D01*
Y5739D01*
X3566D01*
Y5769D01*
Y5709D01*
X3586D02*
X3606D01*
X3596D01*
Y5769D01*
X3586Y5759D01*
X3636D02*
X3646Y5769D01*
X3666D01*
X3676Y5759D01*
Y5719D01*
X3666Y5709D01*
X3646D01*
X3636Y5719D01*
Y5759D01*
X3297Y4410D02*
Y4370D01*
X3317Y4350D01*
X3337Y4370D01*
Y4410D01*
X3387D02*
X3367D01*
X3357Y4400D01*
Y4360D01*
X3367Y4350D01*
X3387D01*
X3397Y4360D01*
Y4400D01*
X3387Y4410D01*
X3417D02*
Y4350D01*
X3457D01*
X3477Y4410D02*
Y4360D01*
X3487Y4350D01*
X3507D01*
X3517Y4360D01*
Y4410D01*
X3537Y4350D02*
Y4410D01*
X3557Y4390D01*
X3577Y4410D01*
Y4350D01*
X3637Y4410D02*
X3597D01*
Y4350D01*
X3637D01*
X3597Y4380D02*
X3617D01*
X4065Y4833D02*
Y4873D01*
X4085Y4893D01*
X4105Y4873D01*
Y4833D01*
Y4863D01*
X4065D01*
X4125Y4893D02*
Y4843D01*
X4135Y4833D01*
X4155D01*
X4165Y4843D01*
Y4893D01*
X4185D02*
Y4833D01*
X4215D01*
X4225Y4843D01*
Y4883D01*
X4215Y4893D01*
X4185D01*
X4245D02*
X4265D01*
X4255D01*
Y4833D01*
X4245D01*
X4265D01*
X4325Y4893D02*
X4305D01*
X4295Y4883D01*
Y4843D01*
X4305Y4833D01*
X4325D01*
X4335Y4843D01*
Y4883D01*
X4325Y4893D01*
X4341Y4085D02*
Y4145D01*
X4371D01*
X4381Y4135D01*
Y4115D01*
X4371Y4105D01*
X4341D01*
X4401Y4145D02*
Y4085D01*
X4421Y4105D01*
X4441Y4085D01*
Y4145D01*
X4461Y4085D02*
Y4145D01*
X4481Y4125D01*
X4500Y4145D01*
Y4085D01*
X6585Y4401D02*
X6545D01*
Y4371D01*
X6565D01*
X6545D01*
Y4341D01*
X6645Y4401D02*
X6605D01*
Y4371D01*
X6625D01*
X6605D01*
Y4341D01*
X6665Y4401D02*
X6705D01*
X6685D01*
Y4341D01*
X6526Y3141D02*
X6516Y3151D01*
X6496D01*
X6486Y3141D01*
Y3131D01*
X6496Y3121D01*
X6516D01*
X6526Y3111D01*
Y3101D01*
X6516Y3091D01*
X6496D01*
X6486Y3101D01*
X6546Y3151D02*
X6566D01*
X6556D01*
Y3091D01*
X6546D01*
X6566D01*
X6636Y3141D02*
X6626Y3151D01*
X6606D01*
X6596Y3141D01*
Y3101D01*
X6606Y3091D01*
X6626D01*
X6636Y3101D01*
Y3121D01*
X6616D01*
X4468Y4783D02*
X4528D01*
Y4813D01*
X4518Y4823D01*
X4478D01*
X4468Y4813D01*
Y4783D01*
Y4883D02*
Y4843D01*
X4528D01*
Y4883D01*
X4498Y4843D02*
Y4863D01*
X4468Y4903D02*
X4528D01*
Y4933D01*
X4518Y4943D01*
X4508D01*
X4498Y4933D01*
Y4903D01*
Y4933D01*
X4488Y4943D01*
X4478D01*
X4468Y4933D01*
Y4903D01*
Y4963D02*
X4518D01*
X4528Y4973D01*
Y4993D01*
X4518Y5003D01*
X4468D01*
X4478Y5063D02*
X4468Y5053D01*
Y5033D01*
X4478Y5023D01*
X4518D01*
X4528Y5033D01*
Y5053D01*
X4518Y5063D01*
X4498D01*
Y5043D01*
X4725Y4843D02*
X4715Y4853D01*
X4695D01*
X4685Y4843D01*
Y4803D01*
X4695Y4793D01*
X4715D01*
X4725Y4803D01*
Y4823D01*
X4705D01*
X4745Y4793D02*
Y4853D01*
X4785Y4793D01*
Y4853D01*
X4805D02*
Y4793D01*
X4835D01*
X4845Y4803D01*
Y4843D01*
X4835Y4853D01*
X4805D01*
X4685Y4952D02*
X4725D01*
X4705D01*
Y4892D01*
X4745Y4952D02*
X4785Y4892D01*
Y4952D02*
X4745Y4892D01*
X4895Y4952D02*
X4875D01*
X4865Y4942D01*
Y4902D01*
X4875Y4892D01*
X4895D01*
X4905Y4902D01*
Y4942D01*
X4895Y4952D01*
X4925D02*
Y4902D01*
X4935Y4892D01*
X4955D01*
X4965Y4902D01*
Y4952D01*
X4985D02*
X5025D01*
X5005D01*
Y4892D01*
X4685Y4990D02*
Y5050D01*
X4715D01*
X4725Y5040D01*
Y5020D01*
X4715Y5010D01*
X4685D01*
X4705D02*
X4725Y4990D01*
X4745Y5050D02*
X4785Y4990D01*
Y5050D02*
X4745Y4990D01*
X4865Y5050D02*
X4885D01*
X4875D01*
Y4990D01*
X4865D01*
X4885D01*
X4915D02*
Y5050D01*
X4955Y4990D01*
Y5050D01*
X4242Y1684D02*
X4259D01*
X4250D01*
Y1634D01*
X4242D01*
X4259D01*
X4284D02*
Y1684D01*
X4300Y1667D01*
X4317Y1684D01*
Y1634D01*
X4334D02*
Y1684D01*
X4359D01*
X4367Y1676D01*
Y1659D01*
X4359Y1651D01*
X4334D01*
X4350D02*
X4367Y1634D01*
X4384Y1659D02*
X4417D01*
X4434Y1676D02*
X4442Y1684D01*
X4459D01*
X4467Y1676D01*
Y1642D01*
X4459Y1634D01*
X4442D01*
X4434Y1642D01*
Y1676D01*
X4484D02*
X4492Y1684D01*
X4509D01*
X4517Y1676D01*
Y1642D01*
X4509Y1634D01*
X4492D01*
X4484Y1642D01*
Y1676D01*
X4567Y1684D02*
X4550Y1676D01*
X4534Y1659D01*
Y1642D01*
X4542Y1634D01*
X4559D01*
X4567Y1642D01*
Y1651D01*
X4559Y1659D01*
X4534D01*
X4584D02*
X4617D01*
X4634Y1634D02*
Y1684D01*
X4659D01*
X4667Y1676D01*
Y1659D01*
X4659Y1651D01*
X4634D01*
X4717Y1676D02*
X4709Y1684D01*
X4692D01*
X4684Y1676D01*
Y1642D01*
X4692Y1634D01*
X4709D01*
X4717Y1642D01*
X4734Y1684D02*
Y1634D01*
X4759D01*
X4767Y1642D01*
Y1651D01*
X4759Y1659D01*
X4734D01*
X4759D01*
X4767Y1667D01*
Y1676D01*
X4759Y1684D01*
X4734D01*
X4834Y1634D02*
Y1684D01*
X4859D01*
X4867Y1676D01*
Y1659D01*
X4859Y1651D01*
X4834D01*
X4850D02*
X4867Y1634D01*
X4917Y1684D02*
X4884D01*
Y1634D01*
X4917D01*
X4884Y1659D02*
X4900D01*
X4934Y1684D02*
Y1651D01*
X4950Y1634D01*
X4967Y1651D01*
Y1684D01*
X5034Y1634D02*
X5050D01*
X5042D01*
Y1684D01*
X5034Y1676D01*
X4275Y1764D02*
X4267Y1772D01*
X4250D01*
X4242Y1764D01*
Y1756D01*
X4250Y1747D01*
X4267D01*
X4275Y1739D01*
Y1731D01*
X4267Y1722D01*
X4250D01*
X4242Y1731D01*
X4300Y1722D02*
X4317D01*
X4325Y1731D01*
Y1747D01*
X4317Y1756D01*
X4300D01*
X4292Y1747D01*
Y1731D01*
X4300Y1722D01*
X4350D02*
Y1764D01*
Y1747D01*
X4342D01*
X4359D01*
X4350D01*
Y1764D01*
X4359Y1772D01*
X4392Y1764D02*
Y1756D01*
X4384D01*
X4400D01*
X4392D01*
Y1731D01*
X4400Y1722D01*
X4459Y1764D02*
X4450Y1772D01*
X4434D01*
X4425Y1764D01*
Y1731D01*
X4434Y1722D01*
X4450D01*
X4459Y1731D01*
X4484Y1722D02*
X4500D01*
X4509Y1731D01*
Y1747D01*
X4500Y1756D01*
X4484D01*
X4475Y1747D01*
Y1731D01*
X4484Y1722D01*
X4525Y1756D02*
Y1722D01*
Y1739D01*
X4534Y1747D01*
X4542Y1756D01*
X4550D01*
X4600Y1722D02*
X4584D01*
X4575Y1731D01*
Y1747D01*
X4584Y1756D01*
X4600D01*
X4609Y1747D01*
Y1739D01*
X4575D01*
X4709Y1764D02*
X4700Y1772D01*
X4684D01*
X4675Y1764D01*
Y1756D01*
X4684Y1747D01*
X4700D01*
X4709Y1739D01*
Y1731D01*
X4700Y1722D01*
X4684D01*
X4675Y1731D01*
X4725Y1706D02*
Y1756D01*
X4750D01*
X4759Y1747D01*
Y1731D01*
X4750Y1722D01*
X4725D01*
X4800D02*
X4784D01*
X4775Y1731D01*
Y1747D01*
X4784Y1756D01*
X4800D01*
X4809Y1747D01*
Y1739D01*
X4775D01*
X4859Y1756D02*
X4834D01*
X4825Y1747D01*
Y1731D01*
X4834Y1722D01*
X4859D01*
X4884Y1764D02*
Y1756D01*
X4875D01*
X4892D01*
X4884D01*
Y1731D01*
X4892Y1722D01*
X4917Y1756D02*
Y1722D01*
Y1739D01*
X4925Y1747D01*
X4934Y1756D01*
X4942D01*
X4967D02*
Y1731D01*
X4975Y1722D01*
X5000D01*
Y1756D01*
X5017Y1722D02*
Y1756D01*
X5025D01*
X5034Y1747D01*
Y1722D01*
Y1747D01*
X5042Y1756D01*
X5050Y1747D01*
Y1722D01*
X5117D02*
Y1756D01*
X5134Y1772D01*
X5150Y1756D01*
Y1722D01*
Y1747D01*
X5117D01*
X5167Y1722D02*
Y1756D01*
X5192D01*
X5200Y1747D01*
Y1722D01*
X5225Y1756D02*
X5242D01*
X5250Y1747D01*
Y1722D01*
X5225D01*
X5217Y1731D01*
X5225Y1739D01*
X5250D01*
X5267Y1722D02*
X5283D01*
X5275D01*
Y1772D01*
X5267D01*
X5308Y1756D02*
Y1731D01*
X5317Y1722D01*
X5342D01*
Y1714D01*
X5333Y1706D01*
X5325D01*
X5342Y1722D02*
Y1756D01*
X5358D02*
X5392D01*
X5358Y1722D01*
X5392D01*
X5433D02*
X5417D01*
X5408Y1731D01*
Y1747D01*
X5417Y1756D01*
X5433D01*
X5442Y1747D01*
Y1739D01*
X5408D01*
X5458Y1756D02*
Y1722D01*
Y1739D01*
X5467Y1747D01*
X5475Y1756D01*
X5483D01*
X4381Y2393D02*
X4371Y2402D01*
X4351D01*
X4341Y2393D01*
Y2383D01*
X4351Y2373D01*
X4371D01*
X4381Y2363D01*
Y2353D01*
X4371Y2343D01*
X4351D01*
X4341Y2353D01*
X4441Y2402D02*
X4401D01*
Y2343D01*
X4441D01*
X4401Y2373D02*
X4421D01*
X4461Y2402D02*
Y2343D01*
X4500D01*
X4560Y2402D02*
X4520D01*
Y2343D01*
X4560D01*
X4520Y2373D02*
X4540D01*
X4620Y2393D02*
X4610Y2402D01*
X4590D01*
X4580Y2393D01*
Y2353D01*
X4590Y2343D01*
X4610D01*
X4620Y2353D01*
X4640Y2402D02*
X4680D01*
X4660D01*
Y2343D01*
X4390Y3356D02*
Y3416D01*
X4410Y3396D01*
X4430Y3416D01*
Y3356D01*
X4480Y3416D02*
X4460D01*
X4450Y3406D01*
Y3366D01*
X4460Y3356D01*
X4480D01*
X4490Y3366D01*
Y3406D01*
X4480Y3416D01*
X4510D02*
Y3356D01*
X4540D01*
X4550Y3366D01*
Y3406D01*
X4540Y3416D01*
X4510D01*
X4610D02*
X4570D01*
Y3356D01*
X4610D01*
X4570Y3386D02*
X4590D01*
X3701Y1684D02*
Y1624D01*
X3731D01*
X3741Y1634D01*
Y1674D01*
X3731Y1684D01*
X3701D01*
X3801D02*
X3761D01*
Y1624D01*
X3801D01*
X3761Y1654D02*
X3781D01*
X3861Y1674D02*
X3851Y1684D01*
X3831D01*
X3821Y1674D01*
Y1634D01*
X3831Y1624D01*
X3851D01*
X3861Y1634D01*
X3711Y1792D02*
X3701Y1802D01*
X3681D01*
X3671Y1792D01*
Y1782D01*
X3681Y1772D01*
X3701D01*
X3711Y1762D01*
Y1752D01*
X3701Y1742D01*
X3681D01*
X3671Y1752D01*
X3731Y1802D02*
X3771D01*
X3751D01*
Y1742D01*
X3821Y1802D02*
X3801D01*
X3791Y1792D01*
Y1752D01*
X3801Y1742D01*
X3821D01*
X3831Y1752D01*
Y1792D01*
X3821Y1802D01*
X3851Y1742D02*
Y1802D01*
X3881D01*
X3891Y1792D01*
Y1772D01*
X3881Y1762D01*
X3851D01*
X2657Y1624D02*
Y1664D01*
X2677Y1684D01*
X2697Y1664D01*
Y1624D01*
Y1654D01*
X2657D01*
X2717Y1624D02*
Y1684D01*
X2737Y1664D01*
X2757Y1684D01*
Y1624D01*
X2777D02*
Y1684D01*
X2807D01*
X2817Y1674D01*
Y1654D01*
X2807Y1644D01*
X2777D01*
X2837Y1624D02*
X2877Y1664D01*
X2937Y1684D02*
X2897D01*
Y1654D01*
X2917D01*
X2897D01*
Y1624D01*
X2957D02*
Y1684D01*
X2987D01*
X2997Y1674D01*
Y1654D01*
X2987Y1644D01*
X2957D01*
X2977D02*
X2997Y1624D01*
X3057Y1684D02*
X3017D01*
Y1624D01*
X3057D01*
X3017Y1654D02*
X3037D01*
X3117Y1634D02*
Y1674D01*
X3107Y1684D01*
X3087D01*
X3077Y1674D01*
Y1634D01*
X3087Y1624D01*
X3107D01*
X3097Y1644D02*
X3117Y1624D01*
X3107D02*
X3117Y1634D01*
X2726Y1742D02*
Y1802D01*
X2756D01*
X2766Y1792D01*
Y1772D01*
X2756Y1762D01*
X2726D01*
X2786Y1742D02*
Y1782D01*
X2806Y1802D01*
X2826Y1782D01*
Y1742D01*
Y1772D01*
X2786D01*
X2846Y1802D02*
Y1752D01*
X2856Y1742D01*
X2876D01*
X2886Y1752D01*
Y1802D01*
X2946Y1792D02*
X2936Y1802D01*
X2916D01*
X2906Y1792D01*
Y1782D01*
X2916Y1772D01*
X2936D01*
X2946Y1762D01*
Y1752D01*
X2936Y1742D01*
X2916D01*
X2906Y1752D01*
X3006Y1802D02*
X2966D01*
Y1742D01*
X3006D01*
X2966Y1772D02*
X2986D01*
X8583Y3879D02*
X8593Y3889D01*
X8613D01*
X8623Y3879D01*
Y3869D01*
X8613Y3859D01*
X8623Y3849D01*
Y3839D01*
X8613Y3829D01*
X8593D01*
X8583Y3839D01*
Y3849D01*
X8593Y3859D01*
X8583Y3869D01*
Y3879D01*
X8593Y3859D02*
X8613D01*
X8643Y3889D02*
Y3849D01*
X8663Y3829D01*
X8683Y3849D01*
Y3889D01*
X8703Y3879D02*
X8713Y3889D01*
X8733D01*
X8743Y3879D01*
Y3839D01*
X8733Y3829D01*
X8713D01*
X8703Y3839D01*
Y3879D01*
X7520Y3564D02*
Y3524D01*
X7540Y3504D01*
X7560Y3524D01*
Y3564D01*
X7620Y3554D02*
X7610Y3564D01*
X7590D01*
X7580Y3554D01*
Y3514D01*
X7590Y3504D01*
X7610D01*
X7620Y3514D01*
X7680Y3554D02*
X7670Y3564D01*
X7650D01*
X7640Y3554D01*
Y3514D01*
X7650Y3504D01*
X7670D01*
X7680Y3514D01*
X7657Y2481D02*
Y2441D01*
X7677Y2421D01*
X7697Y2441D01*
Y2481D01*
X7757D02*
X7717D01*
Y2421D01*
X7757D01*
X7717Y2451D02*
X7737D01*
X7817Y2481D02*
X7777D01*
Y2421D01*
X7817D01*
X7777Y2451D02*
X7797D01*
X7422Y5326D02*
X7402D01*
X7392Y5316D01*
Y5276D01*
X7402Y5266D01*
X7422D01*
X7432Y5276D01*
Y5316D01*
X7422Y5326D01*
X7452Y5266D02*
Y5326D01*
X7492Y5266D01*
Y5326D01*
X7363Y4922D02*
X7343D01*
X7333Y4912D01*
Y4872D01*
X7343Y4862D01*
X7363D01*
X7373Y4872D01*
Y4912D01*
X7363Y4922D01*
X7433D02*
X7393D01*
Y4892D01*
X7413D01*
X7393D01*
Y4862D01*
X7493Y4922D02*
X7453D01*
Y4892D01*
X7473D01*
X7453D01*
Y4862D01*
X2438Y3934D02*
X2429Y3942D01*
X2413D01*
X2404Y3934D01*
Y3901D01*
X2413Y3892D01*
X2429D01*
X2438Y3901D01*
X2488Y3934D02*
X2479Y3942D01*
X2463D01*
X2454Y3934D01*
Y3926D01*
X2463Y3917D01*
X2479D01*
X2488Y3909D01*
Y3901D01*
X2479Y3892D01*
X2463D01*
X2454Y3901D01*
X3263Y3934D02*
X3254Y3942D01*
X3238D01*
X3229Y3934D01*
Y3901D01*
X3238Y3892D01*
X3254D01*
X3263Y3901D01*
Y3917D01*
X3246D01*
X3279Y3892D02*
Y3942D01*
X3313Y3892D01*
Y3942D01*
X3329D02*
Y3892D01*
X3354D01*
X3363Y3901D01*
Y3934D01*
X3354Y3942D01*
X3329D01*
X1870Y1742D02*
Y1802D01*
X1900D01*
X1910Y1792D01*
Y1772D01*
X1900Y1762D01*
X1870D01*
X1930Y1802D02*
Y1742D01*
X1970D01*
X1990D02*
Y1782D01*
X2010Y1802D01*
X2030Y1782D01*
Y1742D01*
Y1772D01*
X1990D01*
X2050Y1802D02*
Y1792D01*
X2070Y1772D01*
X2090Y1792D01*
Y1802D01*
X2070Y1772D02*
Y1742D01*
X1890Y1684D02*
X1910D01*
X1900D01*
Y1624D01*
X1890D01*
X1910D01*
X1940D02*
Y1684D01*
X1980Y1624D01*
Y1684D01*
X2040Y1674D02*
X2030Y1684D01*
X2010D01*
X2000Y1674D01*
Y1634D01*
X2010Y1624D01*
X2030D01*
X2040Y1634D01*
X1683Y4134D02*
X2825D01*
Y5394D01*
X1683D02*
X2825D01*
X1683Y4134D02*
Y5394D01*
X1378Y1575D02*
X9646D01*
Y5512D01*
X1378D02*
X9646D01*
X1378Y1575D02*
Y5512D01*
D49*
X7500Y5217D02*
G03*
X7500Y5217I-12J0D01*
G01*
X7132Y2413D02*
G03*
X7132Y2413I-10J0D01*
G01*
X3541Y4638D02*
G03*
X3541Y4638I-72J0D01*
G01*
X9267Y3622D02*
X9250Y3639D01*
Y3672D01*
X9267Y3689D01*
X9284D01*
X9300Y3672D01*
Y3655D01*
Y3672D01*
X9317Y3689D01*
X9334D01*
X9350Y3672D01*
Y3639D01*
X9334Y3622D01*
X9350Y3789D02*
Y3722D01*
X9284Y3789D01*
X9267D01*
X9250Y3772D01*
Y3739D01*
X9267Y3722D01*
Y3822D02*
X9250Y3839D01*
Y3872D01*
X9267Y3889D01*
X9334D01*
X9350Y3872D01*
Y3839D01*
X9334Y3822D01*
X9267D01*
Y3922D02*
X9250Y3939D01*
Y3972D01*
X9267Y3989D01*
X9334D01*
X9350Y3972D01*
Y3939D01*
X9334Y3922D01*
X9267D01*
X9350Y4022D02*
X9284D01*
Y4039D01*
X9300Y4055D01*
X9350D01*
X9300D01*
X9284Y4072D01*
X9300Y4089D01*
X9350D01*
Y4122D02*
X9284D01*
X9250Y4155D01*
X9284Y4189D01*
X9350D01*
X9300D01*
Y4122D01*
X9250Y4222D02*
X9350D01*
X9300D01*
Y4288D01*
X9250D01*
X9350D01*
X9193Y3386D02*
Y3419D01*
Y3402D01*
X9093D01*
X9110Y3386D01*
Y3469D02*
X9093Y3486D01*
Y3519D01*
X9110Y3536D01*
X9126D01*
X9143Y3519D01*
X9160Y3536D01*
X9176D01*
X9193Y3519D01*
Y3486D01*
X9176Y3469D01*
X9160D01*
X9143Y3486D01*
X9126Y3469D01*
X9110D01*
X9143Y3486D02*
Y3519D01*
X9093Y3636D02*
X9110Y3602D01*
X9143Y3569D01*
X9176D01*
X9193Y3586D01*
Y3619D01*
X9176Y3636D01*
X9160D01*
X9143Y3619D01*
Y3569D01*
X9093Y3736D02*
Y3669D01*
X9143D01*
X9126Y3702D01*
Y3719D01*
X9143Y3736D01*
X9176D01*
X9193Y3719D01*
Y3686D01*
X9176Y3669D01*
X9110Y3769D02*
X9093Y3786D01*
Y3819D01*
X9110Y3836D01*
X9176D01*
X9193Y3819D01*
Y3786D01*
X9176Y3769D01*
X9110D01*
X9093Y3969D02*
X9193D01*
Y4036D01*
Y4069D02*
Y4102D01*
Y4086D01*
X9126D01*
Y4069D01*
X9143Y4152D02*
Y4219D01*
X9093Y4252D02*
Y4286D01*
Y4269D01*
X9193D01*
Y4252D01*
Y4286D01*
X9093Y4386D02*
Y4352D01*
X9110Y4336D01*
X9176D01*
X9193Y4352D01*
Y4386D01*
X9176Y4402D01*
X9110D01*
X9093Y4386D01*
X9193Y4435D02*
X9093D01*
X9193Y4502D01*
X9093D01*
X10266Y3380D02*
X10333D01*
X10300D01*
Y3280D01*
X10416Y3380D02*
X10383D01*
X10366Y3363D01*
Y3296D01*
X10383Y3280D01*
X10416D01*
X10433Y3296D01*
Y3363D01*
X10416Y3380D01*
X10466Y3280D02*
Y3380D01*
X10516D01*
X10533Y3363D01*
Y3330D01*
X10516Y3313D01*
X10466D01*
X10733Y3363D02*
X10716Y3380D01*
X10683D01*
X10666Y3363D01*
Y3346D01*
X10683Y3330D01*
X10716D01*
X10733Y3313D01*
Y3296D01*
X10716Y3280D01*
X10683D01*
X10666Y3296D01*
X10766Y3380D02*
X10799D01*
X10783D01*
Y3280D01*
X10766D01*
X10799D01*
X10849Y3380D02*
Y3280D01*
X10916D01*
X10949Y3380D02*
Y3280D01*
Y3313D01*
X11016Y3380D01*
X10966Y3330D01*
X11016Y3280D01*
X1771Y3259D02*
Y3159D01*
X1821D01*
X1837Y3175D01*
Y3242D01*
X1821Y3259D01*
X1771D01*
X1871D02*
X1904D01*
X1887D01*
Y3159D01*
X1871D01*
X1904D01*
X2021Y3242D02*
X2004Y3259D01*
X1971D01*
X1954Y3242D01*
Y3225D01*
X1971Y3209D01*
X2004D01*
X2021Y3192D01*
Y3175D01*
X2004Y3159D01*
X1971D01*
X1954Y3175D01*
X2054Y3159D02*
Y3259D01*
X2104D01*
X2121Y3242D01*
Y3209D01*
X2104Y3192D01*
X2054D01*
X2154Y3259D02*
Y3159D01*
X2221D01*
X2254D02*
Y3225D01*
X2287Y3259D01*
X2320Y3225D01*
Y3159D01*
Y3209D01*
X2254D01*
X2354Y3259D02*
Y3242D01*
X2387Y3209D01*
X2420Y3242D01*
Y3259D01*
X2387Y3209D02*
Y3159D01*
X2554D02*
Y3259D01*
X2604D01*
X2620Y3242D01*
Y3209D01*
X2604Y3192D01*
X2554D01*
X2587D02*
X2620Y3159D01*
X2720Y3259D02*
X2654D01*
Y3159D01*
X2720D01*
X2654Y3209D02*
X2687D01*
X2754Y3159D02*
Y3225D01*
X2787Y3259D01*
X2820Y3225D01*
Y3159D01*
Y3209D01*
X2754D01*
X2854Y3259D02*
Y3159D01*
X2904D01*
X2920Y3175D01*
Y3242D01*
X2904Y3259D01*
X2854D01*
X3020Y3242D02*
X3004Y3259D01*
X2970D01*
X2954Y3242D01*
Y3225D01*
X2970Y3209D01*
X3004D01*
X3020Y3192D01*
Y3175D01*
X3004Y3159D01*
X2970D01*
X2954Y3175D01*
X3154Y3259D02*
X3220D01*
X3187D01*
Y3159D01*
X3254Y3259D02*
Y3159D01*
Y3209D01*
X3320D01*
Y3259D01*
Y3159D01*
X3353Y3259D02*
X3387D01*
X3370D01*
Y3159D01*
X3353D01*
X3387D01*
X3503Y3242D02*
X3487Y3259D01*
X3453D01*
X3437Y3242D01*
Y3225D01*
X3453Y3209D01*
X3487D01*
X3503Y3192D01*
Y3175D01*
X3487Y3159D01*
X3453D01*
X3437Y3175D01*
X3637Y3259D02*
Y3159D01*
X3670Y3192D01*
X3703Y3159D01*
Y3259D01*
X3737Y3159D02*
Y3225D01*
X3770Y3259D01*
X3803Y3225D01*
Y3159D01*
Y3209D01*
X3737D01*
X3837Y3259D02*
Y3242D01*
X3870Y3209D01*
X3903Y3242D01*
Y3259D01*
X3870Y3209D02*
Y3159D01*
X2046Y2959D02*
X2079D01*
X2062D01*
Y3059D01*
X2046Y3042D01*
X2196Y2959D02*
X2129D01*
X2196Y3025D01*
Y3042D01*
X2179Y3059D01*
X2146D01*
X2129Y3042D01*
X2229D02*
X2246Y3059D01*
X2279D01*
X2296Y3042D01*
Y3025D01*
X2279Y3009D01*
X2296Y2992D01*
Y2975D01*
X2279Y2959D01*
X2246D01*
X2229Y2975D01*
Y2992D01*
X2246Y3009D01*
X2229Y3025D01*
Y3042D01*
X2246Y3009D02*
X2279D01*
X2329Y3059D02*
X2396Y2959D01*
Y3059D02*
X2329Y2959D01*
X2496Y3059D02*
X2462Y3042D01*
X2429Y3009D01*
Y2975D01*
X2446Y2959D01*
X2479D01*
X2496Y2975D01*
Y2992D01*
X2479Y3009D01*
X2429D01*
X2579Y2959D02*
Y3059D01*
X2529Y3009D01*
X2595D01*
X2729Y2959D02*
Y3059D01*
X2779D01*
X2795Y3042D01*
Y3009D01*
X2779Y2992D01*
X2729D01*
X2762D02*
X2795Y2959D01*
X2895Y3059D02*
X2829D01*
Y2959D01*
X2895D01*
X2829Y3009D02*
X2862D01*
X2995Y3042D02*
X2979Y3059D01*
X2945D01*
X2929Y3042D01*
Y3025D01*
X2945Y3009D01*
X2979D01*
X2995Y2992D01*
Y2975D01*
X2979Y2959D01*
X2945D01*
X2929Y2975D01*
X3079Y3059D02*
X3045D01*
X3029Y3042D01*
Y2975D01*
X3045Y2959D01*
X3079D01*
X3095Y2975D01*
Y3042D01*
X3079Y3059D01*
X3129D02*
Y2959D01*
X3195D01*
X3229Y3059D02*
Y2975D01*
X3245Y2959D01*
X3279D01*
X3295Y2975D01*
Y3059D01*
X3329D02*
X3395D01*
X3362D01*
Y2959D01*
X3429Y3059D02*
X3462D01*
X3445D01*
Y2959D01*
X3429D01*
X3462D01*
X3562Y3059D02*
X3529D01*
X3512Y3042D01*
Y2975D01*
X3529Y2959D01*
X3562D01*
X3579Y2975D01*
Y3042D01*
X3562Y3059D01*
X3612Y2959D02*
Y3059D01*
X3678Y2959D01*
Y3059D01*
X2162Y2867D02*
X2146Y2884D01*
X2112D01*
X2096Y2867D01*
Y2850D01*
X2112Y2834D01*
X2146D01*
X2162Y2817D01*
Y2800D01*
X2146Y2784D01*
X2112D01*
X2096Y2800D01*
X2262Y2867D02*
X2246Y2884D01*
X2212D01*
X2196Y2867D01*
Y2850D01*
X2212Y2834D01*
X2246D01*
X2262Y2817D01*
Y2800D01*
X2246Y2784D01*
X2212D01*
X2196Y2800D01*
X2296Y2884D02*
Y2784D01*
X2346D01*
X2362Y2800D01*
Y2867D01*
X2346Y2884D01*
X2296D01*
X2396Y2784D02*
X2429D01*
X2412D01*
Y2884D01*
X2396Y2867D01*
X2479D02*
X2496Y2884D01*
X2529D01*
X2546Y2867D01*
Y2850D01*
X2529Y2834D01*
X2512D01*
X2529D01*
X2546Y2817D01*
Y2800D01*
X2529Y2784D01*
X2496D01*
X2479Y2800D01*
X2579Y2867D02*
X2596Y2884D01*
X2629D01*
X2645Y2867D01*
Y2800D01*
X2629Y2784D01*
X2596D01*
X2579Y2800D01*
Y2867D01*
X2679Y2800D02*
X2695Y2784D01*
X2729D01*
X2745Y2800D01*
Y2867D01*
X2729Y2884D01*
X2695D01*
X2679Y2867D01*
Y2850D01*
X2695Y2834D01*
X2745D01*
X2945Y2867D02*
X2929Y2884D01*
X2895D01*
X2879Y2867D01*
Y2800D01*
X2895Y2784D01*
X2929D01*
X2945Y2800D01*
X2979Y2884D02*
Y2784D01*
Y2834D01*
X3045D01*
Y2884D01*
Y2784D01*
X3079Y2884D02*
X3112D01*
X3095D01*
Y2784D01*
X3079D01*
X3112D01*
X3162D02*
Y2884D01*
X3212D01*
X3229Y2867D01*
Y2834D01*
X3212Y2817D01*
X3162D01*
X3329Y2867D02*
X3312Y2884D01*
X3279D01*
X3262Y2867D01*
Y2850D01*
X3279Y2834D01*
X3312D01*
X3329Y2817D01*
Y2800D01*
X3312Y2784D01*
X3279D01*
X3262Y2800D01*
X3429Y2884D02*
X3362D01*
Y2784D01*
X3429D01*
X3362Y2834D02*
X3395D01*
X3462Y2884D02*
X3529D01*
X3495D01*
Y2784D01*
X10256Y1675D02*
Y1575D01*
X10306D01*
X10323Y1591D01*
Y1608D01*
X10306Y1625D01*
X10256D01*
X10306D01*
X10323Y1641D01*
Y1658D01*
X10306Y1675D01*
X10256D01*
X10406D02*
X10373D01*
X10356Y1658D01*
Y1591D01*
X10373Y1575D01*
X10406D01*
X10423Y1591D01*
Y1658D01*
X10406Y1675D01*
X10456Y1575D02*
Y1641D01*
X10489Y1675D01*
X10523Y1641D01*
Y1575D01*
Y1625D01*
X10456D01*
X10556Y1575D02*
Y1675D01*
X10606D01*
X10623Y1658D01*
Y1625D01*
X10606Y1608D01*
X10556D01*
X10589D02*
X10623Y1575D01*
X10656Y1675D02*
Y1575D01*
X10706D01*
X10723Y1591D01*
Y1658D01*
X10706Y1675D01*
X10656D01*
X10906D02*
X10873D01*
X10856Y1658D01*
Y1591D01*
X10873Y1575D01*
X10906D01*
X10923Y1591D01*
Y1658D01*
X10906Y1675D01*
X10956D02*
Y1591D01*
X10973Y1575D01*
X11006D01*
X11023Y1591D01*
Y1675D01*
X11056D02*
X11123D01*
X11089D01*
Y1575D01*
X11156Y1675D02*
Y1575D01*
X11223D01*
X11256Y1675D02*
X11289D01*
X11273D01*
Y1575D01*
X11256D01*
X11289D01*
X11339D02*
Y1675D01*
X11406Y1575D01*
Y1675D01*
X11506D02*
X11439D01*
Y1575D01*
X11506D01*
X11439Y1625D02*
X11472D01*
D72*
X8100Y2250D02*
G03*
X7876Y2252I-112J-70D01*
G01*
Y2291D02*
X7913Y2254D01*
X7912Y2252D02*
X7913Y2254D01*
X7876Y2252D02*
X7912D01*
X7876D02*
Y2291D01*
D73*
X8045Y4852D02*
G03*
X8045Y4852I-4J0D01*
G01*
X7949Y3165D02*
G03*
X7949Y3165I-4J0D01*
G01*
X8799Y2125D02*
G03*
X8799Y2125I-4J0D01*
G01*
X6693Y3759D02*
G03*
X6693Y3759I-4J0D01*
G01*
X6583Y4713D02*
G03*
X6583Y4713I-4J0D01*
G01*
Y5047D02*
G03*
X6583Y5047I-4J0D01*
G01*
X3359Y5058D02*
G03*
X3359Y5058I-4J0D01*
G01*
X3743Y4534D02*
G03*
X3743Y4534I-4J0D01*
G01*
X4819Y4492D02*
G03*
X4819Y4492I-4J0D01*
G01*
X4858Y3646D02*
G03*
X4858Y3646I-4J0D01*
G01*
X7126Y2125D02*
G03*
X7126Y2125I-4J0D01*
G01*
X4620Y3821D02*
G03*
X4620Y3821I-4J0D01*
G01*
Y2807D02*
G03*
X4620Y2807I-4J0D01*
G01*
X3953Y1850D02*
G03*
X3953Y1850I-4J0D01*
G01*
X3037D02*
G03*
X3037Y1850I-4J0D01*
G01*
X2142D02*
G03*
X2142Y1850I-4J0D01*
G01*
X5758Y2276D02*
G03*
X5758Y2276I-4J0D01*
G01*
X7524Y5337D02*
X7575D01*
X7524Y4860D02*
Y5337D01*
Y4860D02*
X7575D01*
X7701D02*
X7752D01*
Y5337D01*
X7701D02*
X7752D01*
X8669Y5372D02*
Y5430D01*
X8772Y5372D02*
Y5430D01*
X8669D02*
X8687D01*
X8754D02*
X8772D01*
X8669Y5096D02*
Y5155D01*
X8772Y5096D02*
Y5155D01*
X8669D02*
X8687D01*
X8754D02*
X8772D01*
X8071Y5030D02*
Y5207D01*
X8248D01*
Y5030D02*
Y5207D01*
X8071Y5030D02*
X8248D01*
X8183Y3821D02*
Y3935D01*
X8116Y3821D02*
Y3935D01*
Y3858D02*
X8183D01*
X8085Y3814D02*
Y3942D01*
X7821Y3814D02*
Y3942D01*
Y3814D02*
X8085D01*
X7821Y3942D02*
X8085D01*
X8517Y3079D02*
X8575D01*
X8517Y3181D02*
X8575D01*
X8517Y3079D02*
Y3096D01*
Y3163D02*
Y3181D01*
X8604Y2415D02*
X8719D01*
X8604Y2348D02*
X8719D01*
X8681D02*
Y2415D01*
X8378D02*
X8492D01*
X8378Y2348D02*
X8492D01*
X8455D02*
Y2415D01*
X7112Y2677D02*
X7179D01*
X7112Y2640D02*
Y2754D01*
X7179Y2640D02*
Y2754D01*
X7232Y2769D02*
X7250D01*
X7317D02*
X7335D01*
X7232D02*
Y2827D01*
X7335Y2769D02*
Y2827D01*
X6498Y3569D02*
X6612D01*
X6498Y3636D02*
X6612D01*
X6535Y3569D02*
Y3636D01*
X6498Y3537D02*
X6612D01*
X6498Y3470D02*
X6612D01*
X6575D02*
Y3537D01*
X6562Y5513D02*
X7162D01*
X6562Y5413D02*
X7162D01*
X6562D02*
Y5513D01*
X7162Y5413D02*
Y5513D01*
X5662D02*
X6262D01*
X5662Y5413D02*
X6262D01*
X5662D02*
Y5513D01*
X6262Y5413D02*
Y5513D01*
X4762D02*
X5362D01*
X4762Y5413D02*
X5362D01*
X4762D02*
Y5513D01*
X5362Y5413D02*
Y5513D01*
X3862D02*
X4462D01*
X3862Y5413D02*
X4462D01*
X3862D02*
Y5513D01*
X4462Y5413D02*
Y5513D01*
X8378Y2260D02*
X8492D01*
X8378Y2327D02*
X8492D01*
X8415Y2260D02*
Y2327D01*
X8604Y2260D02*
X8719D01*
X8604Y2327D02*
X8719D01*
X8642Y2260D02*
Y2327D01*
X6503Y1831D02*
Y2039D01*
X6654D01*
X6732D02*
X6883D01*
Y1831D02*
Y2039D01*
Y1587D02*
Y1720D01*
X6503Y1587D02*
X6883D01*
X6503D02*
Y1720D01*
D74*
X8650Y5334D02*
G03*
X8650Y5334I-5J0D01*
G01*
Y5058D02*
G03*
X8650Y5058I-5J0D01*
G01*
X7867Y3692D02*
G03*
X7867Y3692I-5J0D01*
G01*
X8618Y3055D02*
G03*
X8618Y3055I-5J0D01*
G01*
X7363Y2865D02*
G03*
X7363Y2865I-5J0D01*
G01*
D75*
X6693Y2130D02*
G03*
X6693Y2126I0J-2D01*
G01*
D02*
G03*
X6693Y2130I0J2D01*
G01*
D76*
X8267Y4764D02*
X8268D01*
X8071D02*
X8071D01*
X8268D02*
Y4776D01*
Y4870D02*
Y4882D01*
X8267D02*
X8268D01*
X8071D02*
X8071D01*
X8071Y4764D02*
Y4776D01*
Y4870D02*
Y4882D01*
X7887Y3366D02*
X7901D01*
X7887Y3248D02*
X7901D01*
X8024Y2961D02*
X8197D01*
X8024Y3181D02*
X8197D01*
X8882Y2126D02*
X9071D01*
X8882Y1929D02*
X9071D01*
X6776Y3563D02*
X6965D01*
X6776Y3760D02*
X6965D01*
X6642Y4604D02*
X6705D01*
X6642Y4727D02*
X6705D01*
X6642Y4938D02*
X6705D01*
X6642Y5062D02*
X6705D01*
X3435Y4959D02*
X3553D01*
X3435Y5080D02*
X3553D01*
X3821Y4359D02*
X3974D01*
X3821Y4558D02*
X3974D01*
X4909Y4521D02*
X5209D01*
X4909Y4062D02*
X5209D01*
X4949Y3674D02*
X5248D01*
X4949Y3216D02*
X5248D01*
X7209Y1929D02*
X7398D01*
X7209Y2126D02*
X7398D01*
X4616Y3524D02*
Y3780D01*
X4380Y3524D02*
Y3780D01*
X4616Y2510D02*
Y2766D01*
X4380Y2510D02*
Y2766D01*
X3652Y1850D02*
X3907D01*
X3652Y2087D02*
X3907D01*
X2736Y1850D02*
X2992D01*
X2736Y2087D02*
X2992D01*
X1841Y1850D02*
X2096D01*
X1841Y2087D02*
X2096D01*
X6136Y2094D02*
Y2230D01*
X6124D02*
X6136D01*
Y1843D02*
Y2020D01*
Y1746D02*
Y1783D01*
X5591Y2230D02*
X5644D01*
X5665Y1598D02*
X6093D01*
X5591Y1685D02*
Y2230D01*
X7933Y2929D02*
X7928Y2934D01*
X7918D01*
X7913Y2929D01*
Y2909D01*
X7918Y2904D01*
X7928D01*
X7933Y2909D01*
X7958Y2904D02*
Y2934D01*
X7943Y2919D01*
X7963D01*
X7973Y2929D02*
X7978Y2934D01*
X7988D01*
X7993Y2929D01*
Y2924D01*
X7988Y2919D01*
X7993Y2914D01*
Y2909D01*
X7988Y2904D01*
X7978D01*
X7973Y2909D01*
Y2914D01*
X7978Y2919D01*
X7973Y2924D01*
Y2929D01*
X7978Y2919D02*
X7988D01*
X6535Y4253D02*
X6562D01*
X6549D01*
Y4213D01*
X6575D02*
Y4253D01*
X6595D01*
X6602Y4246D01*
Y4233D01*
X6595Y4226D01*
X6575D01*
X6615Y4213D02*
X6629D01*
X6622D01*
Y4253D01*
X6615Y4246D01*
X6649Y4253D02*
X6675D01*
Y4246D01*
X6649Y4219D01*
Y4213D01*
X7835Y2657D02*
Y2687D01*
X7850D01*
X7855Y2682D01*
Y2672D01*
X7850Y2667D01*
X7835D01*
X7845D02*
X7855Y2657D01*
X7865Y2687D02*
X7885D01*
Y2682D01*
X7865Y2662D01*
Y2657D01*
X7915D02*
X7895D01*
X7915Y2677D01*
Y2682D01*
X7910Y2687D01*
X7900D01*
X7895Y2682D01*
X7667Y2678D02*
X7694D01*
X7681D01*
Y2638D01*
X7707D02*
Y2678D01*
X7727D01*
X7734Y2671D01*
Y2658D01*
X7727Y2651D01*
X7707D01*
X7747Y2638D02*
X7761D01*
X7754D01*
Y2678D01*
X7747Y2671D01*
X7807Y2678D02*
X7794Y2671D01*
X7781Y2658D01*
Y2644D01*
X7787Y2638D01*
X7801D01*
X7807Y2644D01*
Y2651D01*
X7801Y2658D01*
X7781D01*
X7480Y3583D02*
Y3609D01*
Y3596D01*
X7520D01*
Y3623D02*
X7480D01*
Y3643D01*
X7486Y3649D01*
X7500D01*
X7506Y3643D01*
Y3623D01*
X7520Y3663D02*
Y3676D01*
Y3669D01*
X7480D01*
X7486Y3663D01*
X7480Y3723D02*
Y3696D01*
X7500D01*
X7493Y3709D01*
Y3716D01*
X7500Y3723D01*
X7513D01*
X7520Y3716D01*
Y3703D01*
X7513Y3696D01*
X8593Y4144D02*
X8619D01*
X8606D01*
Y4104D01*
X8633D02*
Y4144D01*
X8653D01*
X8659Y4138D01*
Y4124D01*
X8653Y4118D01*
X8633D01*
X8672Y4104D02*
X8686D01*
X8679D01*
Y4144D01*
X8672Y4138D01*
X8726Y4104D02*
Y4144D01*
X8706Y4124D01*
X8732D01*
X4065Y4951D02*
X4092D01*
X4078D01*
Y4911D01*
X4105D02*
Y4951D01*
X4125D01*
X4132Y4945D01*
Y4931D01*
X4125Y4925D01*
X4105D01*
X4145Y4911D02*
X4158D01*
X4152D01*
Y4951D01*
X4145Y4945D01*
X4178D02*
X4185Y4951D01*
X4198D01*
X4205Y4945D01*
Y4918D01*
X4198Y4911D01*
X4185D01*
X4178Y4918D01*
Y4945D01*
X4527Y4154D02*
Y4180D01*
Y4167D01*
X4567D01*
Y4194D02*
X4527D01*
Y4214D01*
X4534Y4220D01*
X4547D01*
X4554Y4214D01*
Y4194D01*
X4567Y4234D02*
Y4247D01*
Y4240D01*
X4527D01*
X4534Y4234D01*
X4567Y4293D02*
Y4267D01*
X4540Y4293D01*
X4534D01*
X4527Y4287D01*
Y4274D01*
X4534Y4267D01*
X6506Y2934D02*
X6533D01*
X6519D01*
Y2894D01*
X6546D02*
Y2934D01*
X6566D01*
X6573Y2927D01*
Y2914D01*
X6566Y2907D01*
X6546D01*
X6586Y2927D02*
X6593Y2934D01*
X6606D01*
X6613Y2927D01*
Y2920D01*
X6606Y2914D01*
X6613Y2907D01*
Y2900D01*
X6606Y2894D01*
X6593D01*
X6586Y2900D01*
Y2907D01*
X6593Y2914D01*
X6586Y2920D01*
Y2927D01*
X6593Y2914D02*
X6606D01*
X6476Y4429D02*
Y4456D01*
Y4442D01*
X6516D01*
Y4469D02*
X6476D01*
Y4489D01*
X6482Y4496D01*
X6496D01*
X6502Y4489D01*
Y4469D01*
X6476Y4536D02*
Y4509D01*
X6496D01*
X6489Y4522D01*
Y4529D01*
X6496Y4536D01*
X6509D01*
X6516Y4529D01*
Y4516D01*
X6509Y4509D01*
X4507Y5364D02*
Y5391D01*
Y5378D01*
X4547D01*
Y5404D02*
X4507D01*
Y5424D01*
X4514Y5431D01*
X4527D01*
X4534Y5424D01*
Y5404D01*
X4547Y5464D02*
X4507D01*
X4527Y5444D01*
Y5471D01*
X8140Y4745D02*
Y4720D01*
X8145Y4715D01*
X8155D01*
X8160Y4720D01*
Y4745D01*
X8170Y4715D02*
X8180D01*
X8175D01*
Y4745D01*
X8170Y4740D01*
X8195Y4715D02*
X8205D01*
X8200D01*
Y4745D01*
X8195Y4740D01*
X8071Y4503D02*
X8066Y4508D01*
X8056D01*
X8051Y4503D01*
Y4483D01*
X8056Y4478D01*
X8066D01*
X8071Y4483D01*
X8081Y4503D02*
X8086Y4508D01*
X8096D01*
X8101Y4503D01*
Y4498D01*
X8096Y4493D01*
X8091D01*
X8096D01*
X8101Y4488D01*
Y4483D01*
X8096Y4478D01*
X8086D01*
X8081Y4483D01*
X8111Y4503D02*
X8116Y4508D01*
X8126D01*
X8131Y4503D01*
Y4483D01*
X8126Y4478D01*
X8116D01*
X8111Y4483D01*
Y4503D01*
X3206Y4039D02*
X3199Y4046D01*
X3186D01*
X3179Y4039D01*
Y4013D01*
X3186Y4006D01*
X3199D01*
X3206Y4013D01*
X3246Y4046D02*
X3219D01*
Y4026D01*
X3232Y4033D01*
X3239D01*
X3246Y4026D01*
Y4013D01*
X3239Y4006D01*
X3226D01*
X3219Y4013D01*
X3088Y4266D02*
X3081Y4272D01*
X3068D01*
X3061Y4266D01*
Y4239D01*
X3068Y4232D01*
X3081D01*
X3088Y4239D01*
X3121Y4232D02*
Y4272D01*
X3101Y4252D01*
X3128D01*
X7615Y5427D02*
X7609Y5434D01*
X7595D01*
X7589Y5427D01*
Y5420D01*
X7595Y5414D01*
X7609D01*
X7615Y5407D01*
Y5400D01*
X7609Y5394D01*
X7595D01*
X7589Y5400D01*
X7629Y5434D02*
Y5394D01*
X7642Y5407D01*
X7655Y5394D01*
Y5434D01*
X7695D02*
X7682Y5427D01*
X7669Y5414D01*
Y5400D01*
X7675Y5394D01*
X7689D01*
X7695Y5400D01*
Y5407D01*
X7689Y5414D01*
X7669D01*
X8029Y4275D02*
X8022Y4282D01*
X8009D01*
X8002Y4275D01*
Y4249D01*
X8009Y4242D01*
X8022D01*
X8029Y4249D01*
X8069Y4242D02*
X8042D01*
X8069Y4269D01*
Y4275D01*
X8062Y4282D01*
X8049D01*
X8042Y4275D01*
X8082Y4249D02*
X8089Y4242D01*
X8102D01*
X8109Y4249D01*
Y4275D01*
X8102Y4282D01*
X8089D01*
X8082Y4275D01*
Y4269D01*
X8089Y4262D01*
X8109D01*
X8490Y4416D02*
X8484Y4410D01*
Y4396D01*
X8490Y4390D01*
X8517D01*
X8524Y4396D01*
Y4410D01*
X8517Y4416D01*
X8490Y4430D02*
X8484Y4436D01*
Y4450D01*
X8490Y4456D01*
X8497D01*
X8504Y4450D01*
Y4443D01*
Y4450D01*
X8510Y4456D01*
X8517D01*
X8524Y4450D01*
Y4436D01*
X8517Y4430D01*
X8484Y4496D02*
X8490Y4483D01*
X8504Y4470D01*
X8517D01*
X8524Y4476D01*
Y4490D01*
X8517Y4496D01*
X8510D01*
X8504Y4490D01*
Y4470D01*
X8490Y4249D02*
X8484Y4242D01*
Y4229D01*
X8490Y4222D01*
X8517D01*
X8524Y4229D01*
Y4242D01*
X8517Y4249D01*
X8490Y4262D02*
X8484Y4269D01*
Y4282D01*
X8490Y4289D01*
X8497D01*
X8504Y4282D01*
Y4276D01*
Y4282D01*
X8510Y4289D01*
X8517D01*
X8524Y4282D01*
Y4269D01*
X8517Y4262D01*
X8484Y4302D02*
Y4329D01*
X8490D01*
X8517Y4302D01*
X8524D01*
X9154Y5434D02*
X9180D01*
X9167D01*
Y5394D01*
X9194D02*
Y5434D01*
X9214D01*
X9220Y5427D01*
Y5414D01*
X9214Y5407D01*
X9194D01*
X9234Y5394D02*
X9247D01*
X9240D01*
Y5434D01*
X9234Y5427D01*
X9267D02*
X9274Y5434D01*
X9287D01*
X9293Y5427D01*
Y5420D01*
X9287Y5414D01*
X9280D01*
X9287D01*
X9293Y5407D01*
Y5400D01*
X9287Y5394D01*
X9274D01*
X9267Y5400D01*
X8826Y5381D02*
Y5407D01*
X8819Y5414D01*
X8806D01*
X8799Y5407D01*
Y5381D01*
X8806Y5374D01*
X8819D01*
X8813Y5387D02*
X8826Y5374D01*
X8819D02*
X8826Y5381D01*
X8866Y5374D02*
X8839D01*
X8866Y5401D01*
Y5407D01*
X8859Y5414D01*
X8846D01*
X8839Y5407D01*
X8799Y5226D02*
Y5266D01*
X8819D01*
X8826Y5260D01*
Y5246D01*
X8819Y5240D01*
X8799D01*
X8813D02*
X8826Y5226D01*
X8866Y5266D02*
X8853Y5260D01*
X8839Y5246D01*
Y5233D01*
X8846Y5226D01*
X8859D01*
X8866Y5233D01*
Y5240D01*
X8859Y5246D01*
X8839D01*
X8879Y5260D02*
X8886Y5266D01*
X8899D01*
X8906Y5260D01*
Y5253D01*
X8899Y5246D01*
X8893D01*
X8899D01*
X8906Y5240D01*
Y5233D01*
X8899Y5226D01*
X8886D01*
X8879Y5233D01*
X8826Y5105D02*
Y5132D01*
X8819Y5138D01*
X8806D01*
X8799Y5132D01*
Y5105D01*
X8806Y5098D01*
X8819D01*
X8813Y5112D02*
X8826Y5098D01*
X8819D02*
X8826Y5105D01*
X8839Y5132D02*
X8846Y5138D01*
X8859D01*
X8866Y5132D01*
Y5125D01*
X8859Y5118D01*
X8853D01*
X8859D01*
X8866Y5112D01*
Y5105D01*
X8859Y5098D01*
X8846D01*
X8839Y5105D01*
X8799Y4951D02*
Y4991D01*
X8819D01*
X8826Y4984D01*
Y4971D01*
X8819Y4964D01*
X8799D01*
X8813D02*
X8826Y4951D01*
X8866Y4991D02*
X8853Y4984D01*
X8839Y4971D01*
Y4957D01*
X8846Y4951D01*
X8859D01*
X8866Y4957D01*
Y4964D01*
X8859Y4971D01*
X8839D01*
X8906Y4991D02*
X8893Y4984D01*
X8879Y4971D01*
Y4957D01*
X8886Y4951D01*
X8899D01*
X8906Y4957D01*
Y4964D01*
X8899Y4971D01*
X8879D01*
X8747Y4876D02*
X8740Y4883D01*
X8727D01*
X8720Y4876D01*
Y4849D01*
X8727Y4843D01*
X8740D01*
X8747Y4849D01*
X8760Y4876D02*
X8767Y4883D01*
X8780D01*
X8787Y4876D01*
Y4869D01*
X8780Y4863D01*
X8774D01*
X8780D01*
X8787Y4856D01*
Y4849D01*
X8780Y4843D01*
X8767D01*
X8760Y4849D01*
X8800Y4876D02*
X8807Y4883D01*
X8820D01*
X8827Y4876D01*
Y4869D01*
X8820Y4863D01*
X8827Y4856D01*
Y4849D01*
X8820Y4843D01*
X8807D01*
X8800Y4849D01*
Y4856D01*
X8807Y4863D01*
X8800Y4869D01*
Y4876D01*
X8807Y4863D02*
X8820D01*
X8130Y5266D02*
Y5226D01*
X8157D01*
X8170D02*
X8183D01*
X8177D01*
Y5266D01*
X8170Y5260D01*
X8038Y5247D02*
X8034Y5251D01*
X8026D01*
X8022Y5247D01*
Y5231D01*
X8026Y5226D01*
X8034D01*
X8038Y5231D01*
X8047Y5247D02*
X8051Y5251D01*
X8059D01*
X8063Y5247D01*
Y5243D01*
X8059Y5239D01*
X8055D01*
X8059D01*
X8063Y5235D01*
Y5231D01*
X8059Y5226D01*
X8051D01*
X8047Y5231D01*
X8088Y5226D02*
X8072D01*
X8088Y5243D01*
Y5247D01*
X8084Y5251D01*
X8076D01*
X8072Y5247D01*
X8326Y4938D02*
X8321Y4934D01*
Y4925D01*
X8326Y4921D01*
X8342D01*
X8346Y4925D01*
Y4934D01*
X8342Y4938D01*
X8326Y4946D02*
X8321Y4950D01*
Y4959D01*
X8326Y4963D01*
X8330D01*
X8334Y4959D01*
Y4955D01*
Y4959D01*
X8338Y4963D01*
X8342D01*
X8346Y4959D01*
Y4950D01*
X8342Y4946D01*
X8326Y4971D02*
X8321Y4975D01*
Y4984D01*
X8326Y4988D01*
X8330D01*
X8334Y4984D01*
Y4980D01*
Y4984D01*
X8338Y4988D01*
X8342D01*
X8346Y4984D01*
Y4975D01*
X8342Y4971D01*
X8462Y5250D02*
X8455Y5257D01*
X8442D01*
X8435Y5250D01*
Y5223D01*
X8442Y5217D01*
X8455D01*
X8462Y5223D01*
X8475Y5250D02*
X8482Y5257D01*
X8495D01*
X8502Y5250D01*
Y5243D01*
X8495Y5237D01*
X8488D01*
X8495D01*
X8502Y5230D01*
Y5223D01*
X8495Y5217D01*
X8482D01*
X8475Y5223D01*
X8535Y5217D02*
Y5257D01*
X8515Y5237D01*
X8542D01*
X8406Y5030D02*
X8381D01*
Y5042D01*
X8385Y5046D01*
X8393D01*
X8397Y5042D01*
Y5030D01*
Y5038D02*
X8406Y5046D01*
X8381Y5071D02*
X8385Y5063D01*
X8393Y5055D01*
X8401D01*
X8406Y5059D01*
Y5067D01*
X8401Y5071D01*
X8397D01*
X8393Y5067D01*
Y5055D01*
X8406Y5080D02*
Y5088D01*
Y5084D01*
X8381D01*
X8385Y5080D01*
Y4938D02*
X8381Y4934D01*
Y4925D01*
X8385Y4921D01*
X8401D01*
X8406Y4925D01*
Y4934D01*
X8401Y4938D01*
X8385Y4946D02*
X8381Y4950D01*
Y4959D01*
X8385Y4963D01*
X8389D01*
X8393Y4959D01*
Y4955D01*
Y4959D01*
X8397Y4963D01*
X8401D01*
X8406Y4959D01*
Y4950D01*
X8401Y4946D01*
Y4971D02*
X8406Y4975D01*
Y4984D01*
X8401Y4988D01*
X8385D01*
X8381Y4984D01*
Y4975D01*
X8385Y4971D01*
X8389D01*
X8393Y4975D01*
Y4988D01*
X8406Y4833D02*
X8381D01*
Y4845D01*
X8385Y4849D01*
X8393D01*
X8397Y4845D01*
Y4833D01*
Y4841D02*
X8406Y4849D01*
X8381Y4874D02*
Y4858D01*
X8393D01*
X8389Y4866D01*
Y4870D01*
X8393Y4874D01*
X8401D01*
X8406Y4870D01*
Y4862D01*
X8401Y4858D01*
Y4883D02*
X8406Y4887D01*
Y4895D01*
X8401Y4899D01*
X8385D01*
X8381Y4895D01*
Y4887D01*
X8385Y4883D01*
X8389D01*
X8393Y4887D01*
Y4899D01*
X8406Y4734D02*
X8381D01*
Y4747D01*
X8385Y4751D01*
X8393D01*
X8397Y4747D01*
Y4734D01*
Y4743D02*
X8406Y4751D01*
X8381Y4776D02*
X8385Y4768D01*
X8393Y4759D01*
X8401D01*
X8406Y4763D01*
Y4772D01*
X8401Y4776D01*
X8397D01*
X8393Y4772D01*
Y4759D01*
X8385Y4784D02*
X8381Y4788D01*
Y4797D01*
X8385Y4801D01*
X8401D01*
X8406Y4797D01*
Y4788D01*
X8401Y4784D01*
X8385D01*
X8563Y4646D02*
Y4686D01*
X8583D01*
X8590Y4679D01*
Y4666D01*
X8583Y4659D01*
X8563D01*
X8576D02*
X8590Y4646D01*
X8630Y4686D02*
X8603D01*
Y4666D01*
X8616Y4672D01*
X8623D01*
X8630Y4666D01*
Y4652D01*
X8623Y4646D01*
X8610D01*
X8603Y4652D01*
X8643Y4686D02*
X8670D01*
Y4679D01*
X8643Y4652D01*
Y4646D01*
X8375Y4652D02*
X8371Y4648D01*
Y4640D01*
X8375Y4636D01*
X8392D01*
X8396Y4640D01*
Y4648D01*
X8392Y4652D01*
X8375Y4661D02*
X8371Y4665D01*
Y4673D01*
X8375Y4677D01*
X8379D01*
X8383Y4673D01*
Y4669D01*
Y4673D01*
X8387Y4677D01*
X8392D01*
X8396Y4673D01*
Y4665D01*
X8392Y4661D01*
X8371Y4702D02*
Y4686D01*
X8383D01*
X8379Y4694D01*
Y4698D01*
X8383Y4702D01*
X8392D01*
X8396Y4698D01*
Y4690D01*
X8392Y4686D01*
X7991Y4652D02*
X7987Y4648D01*
Y4640D01*
X7991Y4636D01*
X8008D01*
X8012Y4640D01*
Y4648D01*
X8008Y4652D01*
X7991Y4661D02*
X7987Y4665D01*
Y4673D01*
X7991Y4677D01*
X7995D01*
X7999Y4673D01*
Y4669D01*
Y4673D01*
X8003Y4677D01*
X8008D01*
X8012Y4673D01*
Y4665D01*
X8008Y4661D01*
X8012Y4686D02*
Y4694D01*
Y4690D01*
X7987D01*
X7991Y4686D01*
X7815Y4852D02*
X7790D01*
Y4865D01*
X7794Y4869D01*
X7802D01*
X7807Y4865D01*
Y4852D01*
Y4861D02*
X7815Y4869D01*
X7790Y4894D02*
Y4877D01*
X7802D01*
X7798Y4886D01*
Y4890D01*
X7802Y4894D01*
X7811D01*
X7815Y4890D01*
Y4882D01*
X7811Y4877D01*
X7794Y4902D02*
X7790Y4907D01*
Y4915D01*
X7794Y4919D01*
X7798D01*
X7802Y4915D01*
Y4911D01*
Y4915D01*
X7807Y4919D01*
X7811D01*
X7815Y4915D01*
Y4907D01*
X7811Y4902D01*
X7874Y5256D02*
Y5281D01*
X7887D01*
X7891Y5277D01*
Y5268D01*
X7887Y5264D01*
X7874D01*
X7882D02*
X7891Y5256D01*
X7916Y5281D02*
X7899D01*
Y5268D01*
X7907Y5273D01*
X7912D01*
X7916Y5268D01*
Y5260D01*
X7912Y5256D01*
X7903D01*
X7899Y5260D01*
X7941Y5281D02*
X7924D01*
Y5268D01*
X7932Y5273D01*
X7936D01*
X7941Y5268D01*
Y5260D01*
X7936Y5256D01*
X7928D01*
X7924Y5260D01*
X7707Y4764D02*
Y4804D01*
X7727D01*
X7733Y4797D01*
Y4784D01*
X7727Y4777D01*
X7707D01*
X7720D02*
X7733Y4764D01*
X7773Y4804D02*
X7747D01*
Y4784D01*
X7760Y4790D01*
X7767D01*
X7773Y4784D01*
Y4770D01*
X7767Y4764D01*
X7753D01*
X7747Y4770D01*
X7813Y4804D02*
X7800Y4797D01*
X7787Y4784D01*
Y4770D01*
X7793Y4764D01*
X7807D01*
X7813Y4770D01*
Y4777D01*
X7807Y4784D01*
X7787D01*
X7648Y4665D02*
Y4705D01*
X7668D01*
X7674Y4699D01*
Y4685D01*
X7668Y4679D01*
X7648D01*
X7661D02*
X7674Y4665D01*
X7714Y4705D02*
X7688D01*
Y4685D01*
X7701Y4692D01*
X7708D01*
X7714Y4685D01*
Y4672D01*
X7708Y4665D01*
X7694D01*
X7688Y4672D01*
X7728Y4699D02*
X7734Y4705D01*
X7748D01*
X7754Y4699D01*
Y4692D01*
X7748Y4685D01*
X7754Y4679D01*
Y4672D01*
X7748Y4665D01*
X7734D01*
X7728Y4672D01*
Y4679D01*
X7734Y4685D01*
X7728Y4692D01*
Y4699D01*
X7734Y4685D02*
X7748D01*
X7835Y5138D02*
Y5178D01*
X7855D01*
X7861Y5171D01*
Y5158D01*
X7855Y5151D01*
X7835D01*
X7848D02*
X7861Y5138D01*
X7901Y5178D02*
X7875D01*
Y5158D01*
X7888Y5164D01*
X7895D01*
X7901Y5158D01*
Y5144D01*
X7895Y5138D01*
X7881D01*
X7875Y5144D01*
X7941Y5138D02*
X7915D01*
X7941Y5164D01*
Y5171D01*
X7935Y5178D01*
X7921D01*
X7915Y5171D01*
X8406Y4055D02*
Y4085D01*
X8421D01*
X8426Y4080D01*
Y4070D01*
X8421Y4065D01*
X8406D01*
X8416D02*
X8426Y4055D01*
X8455Y4085D02*
X8436D01*
Y4070D01*
X8445Y4075D01*
X8450D01*
X8455Y4070D01*
Y4060D01*
X8450Y4055D01*
X8441D01*
X8436Y4060D01*
X8480Y4055D02*
Y4085D01*
X8465Y4070D01*
X8485D01*
X8120Y4036D02*
Y3996D01*
X8140D01*
X8147Y4003D01*
Y4029D01*
X8140Y4036D01*
X8120D01*
X8160Y4029D02*
X8167Y4036D01*
X8180D01*
X8187Y4029D01*
Y4023D01*
X8180Y4016D01*
X8187Y4009D01*
Y4003D01*
X8180Y3996D01*
X8167D01*
X8160Y4003D01*
Y4009D01*
X8167Y4016D01*
X8160Y4023D01*
Y4029D01*
X8167Y4016D02*
X8180D01*
X8255Y3790D02*
X8242D01*
X8248D01*
Y3757D01*
X8242Y3750D01*
X8235D01*
X8228Y3757D01*
X8268Y3783D02*
X8275Y3790D01*
X8288D01*
X8295Y3783D01*
Y3777D01*
X8288Y3770D01*
X8295Y3763D01*
Y3757D01*
X8288Y3750D01*
X8275D01*
X8268Y3757D01*
Y3763D01*
X8275Y3770D01*
X8268Y3777D01*
Y3783D01*
X8275Y3770D02*
X8288D01*
X8422Y3790D02*
X8409D01*
X8416D01*
Y3757D01*
X8409Y3750D01*
X8402D01*
X8396Y3757D01*
X8436D02*
X8442Y3750D01*
X8456D01*
X8462Y3757D01*
Y3783D01*
X8456Y3790D01*
X8442D01*
X8436Y3783D01*
Y3777D01*
X8442Y3770D01*
X8462D01*
X7703Y4072D02*
X7696Y4065D01*
Y4052D01*
X7703Y4045D01*
X7730D01*
X7736Y4052D01*
Y4065D01*
X7730Y4072D01*
X7736Y4105D02*
X7696D01*
X7716Y4085D01*
Y4112D01*
X7703Y4125D02*
X7696Y4132D01*
Y4145D01*
X7703Y4152D01*
X7730D01*
X7736Y4145D01*
Y4132D01*
X7730Y4125D01*
X7703D01*
X7500Y4055D02*
Y4095D01*
X7520D01*
X7527Y4088D01*
Y4075D01*
X7520Y4068D01*
X7500D01*
X7513D02*
X7527Y4055D01*
X7567Y4095D02*
X7553Y4088D01*
X7540Y4075D01*
Y4062D01*
X7547Y4055D01*
X7560D01*
X7567Y4062D01*
Y4068D01*
X7560Y4075D01*
X7540D01*
X7607Y4055D02*
X7580D01*
X7607Y4082D01*
Y4088D01*
X7600Y4095D01*
X7587D01*
X7580Y4088D01*
X7359Y3898D02*
X7346D01*
X7353D01*
Y3865D01*
X7346Y3858D01*
X7339D01*
X7333Y3865D01*
X7373Y3858D02*
X7386D01*
X7379D01*
Y3898D01*
X7373Y3892D01*
X7406D02*
X7413Y3898D01*
X7426D01*
X7433Y3892D01*
Y3865D01*
X7426Y3858D01*
X7413D01*
X7406Y3865D01*
Y3892D01*
X7904Y4095D02*
Y4062D01*
X7910Y4055D01*
X7924D01*
X7930Y4062D01*
Y4095D01*
X7944Y4055D02*
X7957D01*
X7950D01*
Y4095D01*
X7944Y4088D01*
X8004Y4055D02*
X7977D01*
X8004Y4082D01*
Y4088D01*
X7997Y4095D01*
X7984D01*
X7977Y4088D01*
X8116Y3580D02*
X8110Y3573D01*
Y3560D01*
X8116Y3553D01*
X8143D01*
X8150Y3560D01*
Y3573D01*
X8143Y3580D01*
X8150Y3613D02*
X8110D01*
X8130Y3593D01*
Y3620D01*
X8150Y3633D02*
Y3646D01*
Y3640D01*
X8110D01*
X8116Y3633D01*
X7726Y3602D02*
Y3642D01*
X7746D01*
X7753Y3636D01*
Y3622D01*
X7746Y3616D01*
X7726D01*
X7740D02*
X7753Y3602D01*
X7793Y3642D02*
X7780Y3636D01*
X7766Y3622D01*
Y3609D01*
X7773Y3602D01*
X7786D01*
X7793Y3609D01*
Y3616D01*
X7786Y3622D01*
X7766D01*
X7826Y3602D02*
Y3642D01*
X7806Y3622D01*
X7833D01*
X7726Y3504D02*
Y3544D01*
X7746D01*
X7753Y3537D01*
Y3524D01*
X7746Y3517D01*
X7726D01*
X7740D02*
X7753Y3504D01*
X7793Y3544D02*
X7780Y3537D01*
X7766Y3524D01*
Y3511D01*
X7773Y3504D01*
X7786D01*
X7793Y3511D01*
Y3517D01*
X7786Y3524D01*
X7766D01*
X7833Y3544D02*
X7806D01*
Y3524D01*
X7820Y3531D01*
X7826D01*
X7833Y3524D01*
Y3511D01*
X7826Y3504D01*
X7813D01*
X7806Y3511D01*
X7864Y3426D02*
Y3386D01*
X7891D01*
X7931D02*
X7904D01*
X7931Y3412D01*
Y3419D01*
X7924Y3426D01*
X7911D01*
X7904Y3419D01*
X7762Y3127D02*
X7755Y3120D01*
Y3107D01*
X7762Y3100D01*
X7789D01*
X7795Y3107D01*
Y3120D01*
X7789Y3127D01*
X7795Y3160D02*
X7755D01*
X7775Y3140D01*
Y3167D01*
X7795Y3207D02*
Y3180D01*
X7769Y3207D01*
X7762D01*
X7755Y3200D01*
Y3187D01*
X7762Y3180D01*
X7972Y3229D02*
Y3204D01*
X7977Y3199D01*
X7987D01*
X7992Y3204D01*
Y3229D01*
X8002Y3199D02*
X8012D01*
X8007D01*
Y3229D01*
X8002Y3224D01*
X8027D02*
X8032Y3229D01*
X8042D01*
X8047Y3224D01*
Y3219D01*
X8042Y3214D01*
X8037D01*
X8042D01*
X8047Y3209D01*
Y3204D01*
X8042Y3199D01*
X8032D01*
X8027Y3204D01*
X8088Y3399D02*
X8081Y3406D01*
X8068D01*
X8061Y3399D01*
Y3373D01*
X8068Y3366D01*
X8081D01*
X8088Y3373D01*
X8121Y3366D02*
Y3406D01*
X8101Y3386D01*
X8128D01*
X8168Y3406D02*
X8141D01*
Y3386D01*
X8154Y3393D01*
X8161D01*
X8168Y3386D01*
Y3373D01*
X8161Y3366D01*
X8148D01*
X8141Y3373D01*
X8514Y3268D02*
Y3308D01*
X8534D01*
X8540Y3301D01*
Y3288D01*
X8534Y3281D01*
X8514D01*
X8527D02*
X8540Y3268D01*
X8580Y3308D02*
X8567Y3301D01*
X8554Y3288D01*
Y3274D01*
X8560Y3268D01*
X8574D01*
X8580Y3274D01*
Y3281D01*
X8574Y3288D01*
X8554D01*
X8594Y3301D02*
X8600Y3308D01*
X8614D01*
X8620Y3301D01*
Y3294D01*
X8614Y3288D01*
X8620Y3281D01*
Y3274D01*
X8614Y3268D01*
X8600D01*
X8594Y3274D01*
Y3281D01*
X8600Y3288D01*
X8594Y3294D01*
Y3301D01*
X8600Y3288D02*
X8614D01*
X8244Y3216D02*
X8238Y3209D01*
Y3196D01*
X8244Y3189D01*
X8271D01*
X8278Y3196D01*
Y3209D01*
X8271Y3216D01*
X8278Y3249D02*
X8238D01*
X8258Y3229D01*
Y3256D01*
X8244Y3269D02*
X8238Y3276D01*
Y3289D01*
X8244Y3296D01*
X8251D01*
X8258Y3289D01*
Y3282D01*
Y3289D01*
X8264Y3296D01*
X8271D01*
X8278Y3289D01*
Y3276D01*
X8271Y3269D01*
X8720Y2943D02*
X8680D01*
Y2963D01*
X8687Y2970D01*
X8700D01*
X8707Y2963D01*
Y2943D01*
Y2956D02*
X8720Y2970D01*
X8680Y2983D02*
Y3010D01*
X8687D01*
X8714Y2983D01*
X8720D01*
X8687Y3023D02*
X8680Y3030D01*
Y3043D01*
X8687Y3050D01*
X8714D01*
X8720Y3043D01*
Y3030D01*
X8714Y3023D01*
X8687D01*
X8540Y3205D02*
Y3232D01*
X8534Y3239D01*
X8520D01*
X8514Y3232D01*
Y3205D01*
X8520Y3199D01*
X8534D01*
X8527Y3212D02*
X8540Y3199D01*
X8534D02*
X8540Y3205D01*
X8574Y3199D02*
Y3239D01*
X8554Y3219D01*
X8580D01*
X8445Y2992D02*
Y3032D01*
X8465D01*
X8472Y3025D01*
Y3012D01*
X8465Y3005D01*
X8445D01*
X8458D02*
X8472Y2992D01*
X8485Y3032D02*
X8512D01*
Y3025D01*
X8485Y2999D01*
Y2992D01*
X8525D02*
X8538D01*
X8532D01*
Y3032D01*
X8525Y3025D01*
X8445Y2894D02*
Y2934D01*
X8465D01*
X8472Y2927D01*
Y2914D01*
X8465Y2907D01*
X8445D01*
X8458D02*
X8472Y2894D01*
X8512Y2934D02*
X8498Y2927D01*
X8485Y2914D01*
Y2900D01*
X8492Y2894D01*
X8505D01*
X8512Y2900D01*
Y2907D01*
X8505Y2914D01*
X8485D01*
X8525Y2900D02*
X8532Y2894D01*
X8545D01*
X8552Y2900D01*
Y2927D01*
X8545Y2934D01*
X8532D01*
X8525Y2927D01*
Y2920D01*
X8532Y2914D01*
X8552D01*
X8334Y2750D02*
X8327Y2757D01*
X8314D01*
X8307Y2750D01*
Y2723D01*
X8314Y2717D01*
X8327D01*
X8334Y2723D01*
X8367Y2717D02*
Y2757D01*
X8347Y2737D01*
X8374D01*
X8407Y2717D02*
Y2757D01*
X8387Y2737D01*
X8414D01*
X8195Y2812D02*
X8188Y2805D01*
Y2792D01*
X8195Y2785D01*
X8222D01*
X8228Y2792D01*
Y2805D01*
X8222Y2812D01*
X8228Y2845D02*
X8188D01*
X8208Y2825D01*
Y2852D01*
X8188Y2892D02*
X8195Y2879D01*
X8208Y2865D01*
X8222D01*
X8228Y2872D01*
Y2885D01*
X8222Y2892D01*
X8215D01*
X8208Y2885D01*
Y2865D01*
X7805Y3031D02*
Y3071D01*
X7825D01*
X7832Y3065D01*
Y3051D01*
X7825Y3045D01*
X7805D01*
X7818D02*
X7832Y3031D01*
X7872Y3071D02*
X7858Y3065D01*
X7845Y3051D01*
Y3038D01*
X7852Y3031D01*
X7865D01*
X7872Y3038D01*
Y3045D01*
X7865Y3051D01*
X7845D01*
X7885Y3071D02*
X7912D01*
Y3065D01*
X7885Y3038D01*
Y3031D01*
X7783Y2740D02*
X7776Y2747D01*
X7763D01*
X7756Y2740D01*
Y2713D01*
X7763Y2707D01*
X7776D01*
X7783Y2713D01*
X7816Y2707D02*
Y2747D01*
X7796Y2727D01*
X7823D01*
X7836Y2747D02*
X7863D01*
Y2740D01*
X7836Y2713D01*
Y2707D01*
X8157Y2579D02*
X8143D01*
X8150D01*
Y2546D01*
X8143Y2539D01*
X8137D01*
X8130Y2546D01*
X8170Y2539D02*
X8183D01*
X8177D01*
Y2579D01*
X8170Y2573D01*
X8230Y2539D02*
X8203D01*
X8230Y2566D01*
Y2573D01*
X8223Y2579D01*
X8210D01*
X8203Y2573D01*
X8740Y2185D02*
Y2215D01*
X8755D01*
X8760Y2210D01*
Y2200D01*
X8755Y2195D01*
X8740D01*
X8750D02*
X8760Y2185D01*
X8770Y2210D02*
X8775Y2215D01*
X8785D01*
X8790Y2210D01*
Y2205D01*
X8785Y2200D01*
X8780D01*
X8785D01*
X8790Y2195D01*
Y2190D01*
X8785Y2185D01*
X8775D01*
X8770Y2190D01*
X8815Y2185D02*
Y2215D01*
X8800Y2200D01*
X8820D01*
X8757Y2009D02*
X8753Y2013D01*
X8744D01*
X8740Y2009D01*
Y1992D01*
X8744Y1988D01*
X8753D01*
X8757Y1992D01*
X8765Y1988D02*
X8773D01*
X8769D01*
Y2013D01*
X8765Y2009D01*
X8786D02*
X8790Y2013D01*
X8798D01*
X8803Y2009D01*
Y2005D01*
X8798Y2001D01*
X8803Y1997D01*
Y1992D01*
X8798Y1988D01*
X8790D01*
X8786Y1992D01*
Y1997D01*
X8790Y2001D01*
X8786Y2005D01*
Y2009D01*
X8790Y2001D02*
X8798D01*
X8740Y2077D02*
Y2102D01*
X8753D01*
X8757Y2098D01*
Y2089D01*
X8753Y2085D01*
X8740D01*
X8748D02*
X8757Y2077D01*
X8765Y2098D02*
X8769Y2102D01*
X8778D01*
X8782Y2098D01*
Y2093D01*
X8778Y2089D01*
X8773D01*
X8778D01*
X8782Y2085D01*
Y2081D01*
X8778Y2077D01*
X8769D01*
X8765Y2081D01*
X8790Y2102D02*
X8807D01*
Y2098D01*
X8790Y2081D01*
Y2077D01*
X8839Y2186D02*
Y2152D01*
X8845Y2146D01*
X8859D01*
X8865Y2152D01*
Y2186D01*
X8879D02*
X8905D01*
Y2179D01*
X8879Y2152D01*
Y2146D01*
X9341Y1978D02*
Y2018D01*
X9361D01*
X9367Y2012D01*
Y1998D01*
X9361Y1992D01*
X9341D01*
X9354D02*
X9367Y1978D01*
X9381Y2012D02*
X9387Y2018D01*
X9401D01*
X9407Y2012D01*
Y2005D01*
X9401Y1998D01*
X9394D01*
X9401D01*
X9407Y1992D01*
Y1985D01*
X9401Y1978D01*
X9387D01*
X9381Y1985D01*
X9421Y2012D02*
X9427Y2018D01*
X9441D01*
X9447Y2012D01*
Y2005D01*
X9441Y1998D01*
X9434D01*
X9441D01*
X9447Y1992D01*
Y1985D01*
X9441Y1978D01*
X9427D01*
X9421Y1985D01*
X9341Y1880D02*
Y1920D01*
X9361D01*
X9367Y1913D01*
Y1900D01*
X9361Y1893D01*
X9341D01*
X9354D02*
X9367Y1880D01*
X9381Y1913D02*
X9387Y1920D01*
X9401D01*
X9407Y1913D01*
Y1907D01*
X9401Y1900D01*
X9394D01*
X9401D01*
X9407Y1893D01*
Y1887D01*
X9401Y1880D01*
X9387D01*
X9381Y1887D01*
X9421Y1913D02*
X9427Y1920D01*
X9441D01*
X9447Y1913D01*
Y1907D01*
X9441Y1900D01*
X9447Y1893D01*
Y1887D01*
X9441Y1880D01*
X9427D01*
X9421Y1887D01*
Y1893D01*
X9427Y1900D01*
X9421Y1907D01*
Y1913D01*
X9427Y1900D02*
X9441D01*
X8934Y1785D02*
X8927Y1792D01*
X8914D01*
X8907Y1785D01*
Y1759D01*
X8914Y1752D01*
X8927D01*
X8934Y1759D01*
X8974Y1752D02*
X8947D01*
X8974Y1779D01*
Y1785D01*
X8967Y1792D01*
X8954D01*
X8947Y1785D01*
X8987Y1792D02*
X9014D01*
Y1785D01*
X8987Y1759D01*
Y1752D01*
X8474Y1890D02*
Y1930D01*
X8494D01*
X8501Y1923D01*
Y1910D01*
X8494Y1903D01*
X8474D01*
X8488D02*
X8501Y1890D01*
X8534D02*
Y1930D01*
X8514Y1910D01*
X8541D01*
X8554Y1890D02*
X8568D01*
X8561D01*
Y1930D01*
X8554Y1923D01*
X8474Y1791D02*
Y1831D01*
X8494D01*
X8501Y1825D01*
Y1811D01*
X8494Y1805D01*
X8474D01*
X8488D02*
X8501Y1791D01*
X8534D02*
Y1831D01*
X8514Y1811D01*
X8541D01*
X8581Y1831D02*
X8554D01*
Y1811D01*
X8568Y1818D01*
X8574D01*
X8581Y1811D01*
Y1798D01*
X8574Y1791D01*
X8561D01*
X8554Y1798D01*
X8639Y1647D02*
X8632Y1654D01*
X8619D01*
X8612Y1647D01*
Y1621D01*
X8619Y1614D01*
X8632D01*
X8639Y1621D01*
X8652Y1614D02*
X8666D01*
X8659D01*
Y1654D01*
X8652Y1647D01*
X8686Y1621D02*
X8692Y1614D01*
X8706D01*
X8712Y1621D01*
Y1647D01*
X8706Y1654D01*
X8692D01*
X8686Y1647D01*
Y1641D01*
X8692Y1634D01*
X8712D01*
X8455Y2008D02*
Y2048D01*
X8475D01*
X8481Y2041D01*
Y2028D01*
X8475Y2021D01*
X8455D01*
X8468D02*
X8481Y2008D01*
X8495Y2041D02*
X8501Y2048D01*
X8515D01*
X8521Y2041D01*
Y2035D01*
X8515Y2028D01*
X8508D01*
X8515D01*
X8521Y2021D01*
Y2015D01*
X8515Y2008D01*
X8501D01*
X8495Y2015D01*
X8561Y2048D02*
X8548Y2041D01*
X8535Y2028D01*
Y2015D01*
X8541Y2008D01*
X8555D01*
X8561Y2015D01*
Y2021D01*
X8555Y2028D01*
X8535D01*
X8622Y2471D02*
Y2431D01*
X8642D01*
X8649Y2438D01*
Y2464D01*
X8642Y2471D01*
X8622D01*
X8689D02*
X8662D01*
Y2451D01*
X8675Y2458D01*
X8682D01*
X8689Y2451D01*
Y2438D01*
X8682Y2431D01*
X8669D01*
X8662Y2438D01*
X8396Y2471D02*
Y2431D01*
X8416D01*
X8422Y2438D01*
Y2464D01*
X8416Y2471D01*
X8396D01*
X8456Y2431D02*
Y2471D01*
X8436Y2451D01*
X8462D01*
X7717Y2185D02*
Y2225D01*
X7737D01*
X7743Y2218D01*
Y2205D01*
X7737Y2198D01*
X7717D01*
X7730D02*
X7743Y2185D01*
X7777D02*
Y2225D01*
X7757Y2205D01*
X7783D01*
X7823Y2185D02*
X7797D01*
X7823Y2212D01*
Y2218D01*
X7817Y2225D01*
X7803D01*
X7797Y2218D01*
X7205Y2678D02*
Y2638D01*
X7225D01*
X7231Y2644D01*
Y2671D01*
X7225Y2678D01*
X7205D01*
X7245Y2671D02*
X7251Y2678D01*
X7265D01*
X7271Y2671D01*
Y2664D01*
X7265Y2658D01*
X7258D01*
X7265D01*
X7271Y2651D01*
Y2644D01*
X7265Y2638D01*
X7251D01*
X7245Y2644D01*
X7389Y2772D02*
Y2799D01*
X7382Y2806D01*
X7369D01*
X7362Y2799D01*
Y2772D01*
X7369Y2766D01*
X7382D01*
X7376Y2779D02*
X7389Y2766D01*
X7382D02*
X7389Y2772D01*
X7402Y2766D02*
X7416D01*
X7409D01*
Y2806D01*
X7402Y2799D01*
X7362Y2933D02*
Y2973D01*
X7382D01*
X7389Y2966D01*
Y2953D01*
X7382Y2946D01*
X7362D01*
X7376D02*
X7389Y2933D01*
X7402Y2966D02*
X7409Y2973D01*
X7422D01*
X7429Y2966D01*
Y2960D01*
X7422Y2953D01*
X7416D01*
X7422D01*
X7429Y2946D01*
Y2940D01*
X7422Y2933D01*
X7409D01*
X7402Y2940D01*
X7442Y2966D02*
X7449Y2973D01*
X7462D01*
X7469Y2966D01*
Y2940D01*
X7462Y2933D01*
X7449D01*
X7442Y2940D01*
Y2966D01*
X6747Y3110D02*
Y3150D01*
X6767D01*
X6774Y3144D01*
Y3130D01*
X6767Y3124D01*
X6747D01*
X6761D02*
X6774Y3110D01*
X6814Y3150D02*
X6787D01*
Y3110D01*
X6814D01*
X6787Y3130D02*
X6801D01*
X6827Y3150D02*
Y3110D01*
X6854D01*
X6867D02*
X6881D01*
X6874D01*
Y3150D01*
X6867Y3144D01*
X7215Y3484D02*
Y3524D01*
X7235D01*
X7241Y3518D01*
Y3504D01*
X7235Y3498D01*
X7215D01*
X7228D02*
X7241Y3484D01*
X7281D02*
X7255D01*
X7281Y3511D01*
Y3518D01*
X7275Y3524D01*
X7261D01*
X7255Y3518D01*
X7321Y3524D02*
X7295D01*
Y3504D01*
X7308Y3511D01*
X7315D01*
X7321Y3504D01*
Y3491D01*
X7315Y3484D01*
X7301D01*
X7295Y3491D01*
X7352Y3652D02*
Y3692D01*
X7372D01*
X7379Y3685D01*
Y3672D01*
X7372Y3665D01*
X7352D01*
X7366D02*
X7379Y3652D01*
X7419D02*
X7392D01*
X7419Y3678D01*
Y3685D01*
X7412Y3692D01*
X7399D01*
X7392Y3685D01*
X7459Y3692D02*
X7446Y3685D01*
X7432Y3672D01*
Y3658D01*
X7439Y3652D01*
X7452D01*
X7459Y3658D01*
Y3665D01*
X7452Y3672D01*
X7432D01*
X7379Y3793D02*
X7372Y3800D01*
X7359D01*
X7352Y3793D01*
Y3767D01*
X7359Y3760D01*
X7372D01*
X7379Y3767D01*
X7392Y3800D02*
X7419D01*
Y3793D01*
X7392Y3767D01*
Y3760D01*
X7106Y3898D02*
Y3938D01*
X7126D01*
X7133Y3931D01*
Y3918D01*
X7126Y3911D01*
X7106D01*
X7120D02*
X7133Y3898D01*
X7173D02*
X7146D01*
X7173Y3924D01*
Y3931D01*
X7166Y3938D01*
X7153D01*
X7146Y3931D01*
X7186D02*
X7193Y3938D01*
X7206D01*
X7213Y3931D01*
Y3924D01*
X7206Y3918D01*
X7200D01*
X7206D01*
X7213Y3911D01*
Y3904D01*
X7206Y3898D01*
X7193D01*
X7186Y3904D01*
X6779Y3833D02*
X6772Y3839D01*
X6759D01*
X6752Y3833D01*
Y3806D01*
X6759Y3799D01*
X6772D01*
X6779Y3806D01*
X6792Y3799D02*
X6805D01*
X6799D01*
Y3839D01*
X6792Y3833D01*
X6852Y3799D02*
X6825D01*
X6852Y3826D01*
Y3833D01*
X6845Y3839D01*
X6832D01*
X6825Y3833D01*
X7103Y3655D02*
X7097Y3662D01*
X7083D01*
X7077Y3655D01*
Y3629D01*
X7083Y3622D01*
X7097D01*
X7103Y3629D01*
X7117D02*
X7123Y3622D01*
X7137D01*
X7143Y3629D01*
Y3655D01*
X7137Y3662D01*
X7123D01*
X7117Y3655D01*
Y3649D01*
X7123Y3642D01*
X7143D01*
X6496Y3692D02*
Y3652D01*
X6516D01*
X6523Y3658D01*
Y3685D01*
X6516Y3692D01*
X6496D01*
X6536Y3652D02*
X6549D01*
X6543D01*
Y3692D01*
X6536Y3685D01*
X6319Y3524D02*
Y3484D01*
X6339D01*
X6346Y3491D01*
Y3518D01*
X6339Y3524D01*
X6319D01*
X6386Y3484D02*
X6359D01*
X6386Y3511D01*
Y3518D01*
X6379Y3524D01*
X6366D01*
X6359Y3518D01*
X6624Y3386D02*
Y3426D01*
X6644D01*
X6651Y3419D01*
Y3406D01*
X6644Y3399D01*
X6624D01*
X6637D02*
X6651Y3386D01*
X6691D02*
X6664D01*
X6691Y3412D01*
Y3419D01*
X6684Y3426D01*
X6671D01*
X6664Y3419D01*
X6724Y3386D02*
Y3426D01*
X6704Y3406D01*
X6731D01*
X6533Y3242D02*
X6526Y3249D01*
X6513D01*
X6506Y3242D01*
Y3215D01*
X6513Y3209D01*
X6526D01*
X6533Y3215D01*
X6546Y3242D02*
X6553Y3249D01*
X6566D01*
X6573Y3242D01*
Y3235D01*
X6566Y3229D01*
X6573Y3222D01*
Y3215D01*
X6566Y3209D01*
X6553D01*
X6546Y3215D01*
Y3222D01*
X6553Y3229D01*
X6546Y3235D01*
Y3242D01*
X6553Y3229D02*
X6566D01*
X6841Y3544D02*
Y3511D01*
X6847Y3504D01*
X6861D01*
X6867Y3511D01*
Y3544D01*
X6907D02*
X6881D01*
Y3524D01*
X6894Y3531D01*
X6901D01*
X6907Y3524D01*
Y3511D01*
X6901Y3504D01*
X6887D01*
X6881Y3511D01*
X6634Y3819D02*
X6594D01*
Y3839D01*
X6601Y3846D01*
X6614D01*
X6621Y3839D01*
Y3819D01*
Y3832D02*
X6634Y3846D01*
Y3886D02*
Y3859D01*
X6607Y3886D01*
X6601D01*
X6594Y3879D01*
Y3866D01*
X6601Y3859D01*
X6594Y3899D02*
Y3926D01*
X6601D01*
X6627Y3899D01*
X6634D01*
X6437Y3879D02*
X6464D01*
X6450D01*
Y3839D01*
X6477D02*
Y3879D01*
X6497D01*
X6504Y3872D01*
Y3859D01*
X6497Y3852D01*
X6477D01*
X6517Y3845D02*
X6524Y3839D01*
X6537D01*
X6544Y3845D01*
Y3872D01*
X6537Y3879D01*
X6524D01*
X6517Y3872D01*
Y3865D01*
X6524Y3859D01*
X6544D01*
X6772Y4646D02*
Y4613D01*
X6778Y4606D01*
X6792D01*
X6798Y4613D01*
Y4646D01*
X6832Y4606D02*
Y4646D01*
X6812Y4626D01*
X6838D01*
X6395Y4699D02*
X6388Y4705D01*
X6375D01*
X6368Y4699D01*
Y4672D01*
X6375Y4665D01*
X6388D01*
X6395Y4672D01*
X6408Y4665D02*
X6421D01*
X6415D01*
Y4705D01*
X6408Y4699D01*
X6441D02*
X6448Y4705D01*
X6461D01*
X6468Y4699D01*
Y4692D01*
X6461Y4685D01*
X6455D01*
X6461D01*
X6468Y4679D01*
Y4672D01*
X6461Y4665D01*
X6448D01*
X6441Y4672D01*
X6220Y4843D02*
Y4883D01*
X6240D01*
X6247Y4876D01*
Y4863D01*
X6240Y4856D01*
X6220D01*
X6234D02*
X6247Y4843D01*
X6287D02*
X6260D01*
X6287Y4869D01*
Y4876D01*
X6280Y4883D01*
X6267D01*
X6260Y4876D01*
X6300Y4849D02*
X6307Y4843D01*
X6320D01*
X6327Y4849D01*
Y4876D01*
X6320Y4883D01*
X6307D01*
X6300Y4876D01*
Y4869D01*
X6307Y4863D01*
X6327D01*
X6220Y4941D02*
Y4981D01*
X6240D01*
X6247Y4974D01*
Y4961D01*
X6240Y4954D01*
X6220D01*
X6234D02*
X6247Y4941D01*
X6287D02*
X6260D01*
X6287Y4968D01*
Y4974D01*
X6280Y4981D01*
X6267D01*
X6260Y4974D01*
X6300D02*
X6307Y4981D01*
X6320D01*
X6327Y4974D01*
Y4968D01*
X6320Y4961D01*
X6327Y4954D01*
Y4948D01*
X6320Y4941D01*
X6307D01*
X6300Y4948D01*
Y4954D01*
X6307Y4961D01*
X6300Y4968D01*
Y4974D01*
X6307Y4961D02*
X6320D01*
X6788Y4797D02*
X6782Y4804D01*
X6768D01*
X6762Y4797D01*
Y4770D01*
X6768Y4764D01*
X6782D01*
X6788Y4770D01*
X6802Y4764D02*
X6815D01*
X6808D01*
Y4804D01*
X6802Y4797D01*
X6835D02*
X6842Y4804D01*
X6855D01*
X6862Y4797D01*
Y4770D01*
X6855Y4764D01*
X6842D01*
X6835Y4770D01*
Y4797D01*
X6772Y4981D02*
Y4948D01*
X6778Y4941D01*
X6792D01*
X6798Y4948D01*
Y4981D01*
X6838D02*
X6825Y4974D01*
X6812Y4961D01*
Y4948D01*
X6818Y4941D01*
X6832D01*
X6838Y4948D01*
Y4954D01*
X6832Y4961D01*
X6812D01*
X6641Y5210D02*
X6634Y5217D01*
X6621D01*
X6614Y5210D01*
Y5184D01*
X6621Y5177D01*
X6634D01*
X6641Y5184D01*
X6654Y5177D02*
X6667D01*
X6661D01*
Y5217D01*
X6654Y5210D01*
X6687Y5177D02*
X6701D01*
X6694D01*
Y5217D01*
X6687Y5210D01*
X6339Y5276D02*
X6365D01*
X6352D01*
Y5236D01*
X6379D02*
Y5276D01*
X6399D01*
X6405Y5270D01*
Y5256D01*
X6399Y5250D01*
X6379D01*
X6445Y5276D02*
X6432Y5270D01*
X6419Y5256D01*
Y5243D01*
X6425Y5236D01*
X6439D01*
X6445Y5243D01*
Y5250D01*
X6439Y5256D01*
X6419D01*
X6503Y5483D02*
X6490D01*
X6496D01*
Y5450D01*
X6490Y5443D01*
X6483D01*
X6476Y5450D01*
X6543Y5483D02*
X6530Y5476D01*
X6516Y5463D01*
Y5450D01*
X6523Y5443D01*
X6536D01*
X6543Y5450D01*
Y5456D01*
X6536Y5463D01*
X6516D01*
X6339Y5375D02*
X6365D01*
X6352D01*
Y5335D01*
X6379D02*
Y5375D01*
X6399D01*
X6405Y5368D01*
Y5355D01*
X6399Y5348D01*
X6379D01*
X6419Y5375D02*
X6445D01*
Y5368D01*
X6419Y5341D01*
Y5335D01*
X5598Y5480D02*
X5584D01*
X5591D01*
Y5447D01*
X5584Y5441D01*
X5578D01*
X5571Y5447D01*
X5611Y5474D02*
X5618Y5480D01*
X5631D01*
X5638Y5474D01*
Y5467D01*
X5631Y5461D01*
X5624D01*
X5631D01*
X5638Y5454D01*
Y5447D01*
X5631Y5441D01*
X5618D01*
X5611Y5447D01*
X4712Y5483D02*
X4698D01*
X4705D01*
Y5450D01*
X4698Y5443D01*
X4692D01*
X4685Y5450D01*
X4725Y5443D02*
X4738D01*
X4732D01*
Y5483D01*
X4725Y5476D01*
X3796Y5483D02*
X3783D01*
X3790D01*
Y5450D01*
X3783Y5443D01*
X3776D01*
X3770Y5450D01*
X3830Y5443D02*
Y5483D01*
X3810Y5463D01*
X3836D01*
X3829Y5177D02*
Y5217D01*
X3849D01*
X3855Y5210D01*
Y5197D01*
X3849Y5190D01*
X3829D01*
X3842D02*
X3855Y5177D01*
X3889D02*
Y5217D01*
X3869Y5197D01*
X3895D01*
X3909Y5217D02*
X3935D01*
Y5210D01*
X3909Y5184D01*
Y5177D01*
X3829Y5079D02*
Y5119D01*
X3849D01*
X3855Y5112D01*
Y5099D01*
X3849Y5092D01*
X3829D01*
X3842D02*
X3855Y5079D01*
X3889D02*
Y5119D01*
X3869Y5099D01*
X3895D01*
X3909Y5112D02*
X3915Y5119D01*
X3929D01*
X3935Y5112D01*
Y5105D01*
X3929Y5099D01*
X3935Y5092D01*
Y5085D01*
X3929Y5079D01*
X3915D01*
X3909Y5085D01*
Y5092D01*
X3915Y5099D01*
X3909Y5105D01*
Y5112D01*
X3915Y5099D02*
X3929D01*
X3885Y5014D02*
X3878Y5020D01*
X3865D01*
X3858Y5014D01*
Y4987D01*
X3865Y4980D01*
X3878D01*
X3885Y4987D01*
X3898Y4980D02*
X3912D01*
X3905D01*
Y5020D01*
X3898Y5014D01*
X3958Y5020D02*
X3945Y5014D01*
X3932Y5000D01*
Y4987D01*
X3938Y4980D01*
X3952D01*
X3958Y4987D01*
Y4994D01*
X3952Y5000D01*
X3932D01*
X3718Y4797D02*
X3711Y4804D01*
X3698D01*
X3691Y4797D01*
Y4770D01*
X3698Y4764D01*
X3711D01*
X3718Y4770D01*
X3731Y4764D02*
X3744D01*
X3738D01*
Y4804D01*
X3731Y4797D01*
X3791Y4804D02*
X3764D01*
Y4784D01*
X3778Y4790D01*
X3784D01*
X3791Y4784D01*
Y4770D01*
X3784Y4764D01*
X3771D01*
X3764Y4770D01*
X3472Y5358D02*
X3465Y5365D01*
X3452D01*
X3445Y5358D01*
Y5351D01*
X3452Y5345D01*
X3465D01*
X3472Y5338D01*
Y5331D01*
X3465Y5325D01*
X3452D01*
X3445Y5331D01*
X3485Y5325D02*
Y5365D01*
X3505D01*
X3512Y5358D01*
Y5345D01*
X3505Y5338D01*
X3485D01*
X3525Y5365D02*
Y5325D01*
Y5338D01*
X3552Y5365D01*
X3532Y5345D01*
X3552Y5325D01*
X3565D02*
X3578D01*
X3572D01*
Y5365D01*
X3565Y5358D01*
X3465Y5138D02*
Y5105D01*
X3471Y5098D01*
X3485D01*
X3491Y5105D01*
Y5138D01*
X3505Y5105D02*
X3511Y5098D01*
X3525D01*
X3531Y5105D01*
Y5132D01*
X3525Y5138D01*
X3511D01*
X3505Y5132D01*
Y5125D01*
X3511Y5118D01*
X3531D01*
X3206Y5122D02*
X3199Y5129D01*
X3186D01*
X3179Y5122D01*
Y5095D01*
X3186Y5089D01*
X3199D01*
X3206Y5095D01*
X3246Y5089D02*
X3219D01*
X3246Y5115D01*
Y5122D01*
X3239Y5129D01*
X3226D01*
X3219Y5122D01*
X3259Y5089D02*
X3272D01*
X3266D01*
Y5129D01*
X3259Y5122D01*
X3297Y4872D02*
Y4912D01*
X3317D01*
X3324Y4905D01*
Y4892D01*
X3317Y4885D01*
X3297D01*
X3311D02*
X3324Y4872D01*
X3357D02*
Y4912D01*
X3337Y4892D01*
X3364D01*
X3397Y4872D02*
Y4912D01*
X3377Y4892D01*
X3404D01*
X3278Y4823D02*
Y4863D01*
X3298D01*
X3304Y4856D01*
Y4843D01*
X3298Y4836D01*
X3278D01*
X3291D02*
X3304Y4823D01*
X3344Y4863D02*
X3318D01*
Y4843D01*
X3331Y4849D01*
X3338D01*
X3344Y4843D01*
Y4829D01*
X3338Y4823D01*
X3324D01*
X3318Y4829D01*
X3358Y4856D02*
X3364Y4863D01*
X3378D01*
X3384Y4856D01*
Y4829D01*
X3378Y4823D01*
X3364D01*
X3358Y4829D01*
Y4856D01*
X3740Y4626D02*
X3700D01*
Y4646D01*
X3707Y4653D01*
X3720D01*
X3727Y4646D01*
Y4626D01*
Y4639D02*
X3740Y4653D01*
Y4686D02*
X3700D01*
X3720Y4666D01*
Y4693D01*
X3733Y4706D02*
X3740Y4713D01*
Y4726D01*
X3733Y4733D01*
X3707D01*
X3700Y4726D01*
Y4713D01*
X3707Y4706D01*
X3713D01*
X3720Y4713D01*
Y4733D01*
X3848Y4341D02*
Y4308D01*
X3855Y4301D01*
X3868D01*
X3875Y4308D01*
Y4341D01*
X3888Y4301D02*
X3902D01*
X3895D01*
Y4341D01*
X3888Y4335D01*
X3922D02*
X3928Y4341D01*
X3942D01*
X3948Y4335D01*
Y4308D01*
X3942Y4301D01*
X3928D01*
X3922Y4308D01*
Y4335D01*
X4082Y4709D02*
X4075Y4715D01*
X4062D01*
X4055Y4709D01*
Y4682D01*
X4062Y4675D01*
X4075D01*
X4082Y4682D01*
X4095Y4675D02*
X4108D01*
X4102D01*
Y4715D01*
X4095Y4709D01*
X4128Y4715D02*
X4155D01*
Y4709D01*
X4128Y4682D01*
Y4675D01*
X4055Y4568D02*
X4082D01*
X4068D01*
Y4528D01*
X4095D02*
Y4568D01*
X4115D01*
X4122Y4561D01*
Y4548D01*
X4115Y4541D01*
X4095D01*
X4135Y4528D02*
X4148D01*
X4142D01*
Y4568D01*
X4135Y4561D01*
X4168Y4528D02*
X4182D01*
X4175D01*
Y4568D01*
X4168Y4561D01*
X4183Y4439D02*
Y4479D01*
X4203D01*
X4210Y4472D01*
Y4459D01*
X4203Y4452D01*
X4183D01*
X4196D02*
X4210Y4439D01*
X4250Y4479D02*
X4223D01*
Y4459D01*
X4236Y4466D01*
X4243D01*
X4250Y4459D01*
Y4446D01*
X4243Y4439D01*
X4230D01*
X4223Y4446D01*
X4263Y4439D02*
X4276D01*
X4270D01*
Y4479D01*
X4263Y4472D01*
X4131Y4216D02*
X4124Y4223D01*
X4111D01*
X4104Y4216D01*
Y4190D01*
X4111Y4183D01*
X4124D01*
X4131Y4190D01*
X4171Y4183D02*
X4144D01*
X4171Y4210D01*
Y4216D01*
X4164Y4223D01*
X4151D01*
X4144Y4216D01*
X4184D02*
X4191Y4223D01*
X4204D01*
X4211Y4216D01*
Y4210D01*
X4204Y4203D01*
X4211Y4196D01*
Y4190D01*
X4204Y4183D01*
X4191D01*
X4184Y4190D01*
Y4196D01*
X4191Y4203D01*
X4184Y4210D01*
Y4216D01*
X4191Y4203D02*
X4204D01*
X4348Y4472D02*
X4341Y4479D01*
X4328D01*
X4321Y4472D01*
Y4446D01*
X4328Y4439D01*
X4341D01*
X4348Y4446D01*
X4381Y4439D02*
Y4479D01*
X4361Y4459D01*
X4388D01*
X4401Y4446D02*
X4408Y4439D01*
X4421D01*
X4427Y4446D01*
Y4472D01*
X4421Y4479D01*
X4408D01*
X4401Y4472D01*
Y4466D01*
X4408Y4459D01*
X4427D01*
X4603Y4756D02*
X4590D01*
X4597D01*
Y4723D01*
X4590Y4716D01*
X4583D01*
X4577Y4723D01*
X4643Y4756D02*
X4617D01*
Y4736D01*
X4630Y4743D01*
X4637D01*
X4643Y4736D01*
Y4723D01*
X4637Y4716D01*
X4623D01*
X4617Y4723D01*
X5292Y4836D02*
X5286Y4843D01*
X5272D01*
X5266Y4836D01*
Y4810D01*
X5272Y4803D01*
X5286D01*
X5292Y4810D01*
X5306Y4803D02*
X5319D01*
X5312D01*
Y4843D01*
X5306Y4836D01*
X5401Y4620D02*
X5394Y4627D01*
X5381D01*
X5374Y4620D01*
Y4593D01*
X5381Y4587D01*
X5394D01*
X5401Y4593D01*
X5441Y4587D02*
X5414D01*
X5441Y4613D01*
Y4620D01*
X5434Y4627D01*
X5421D01*
X5414Y4620D01*
X4911Y4577D02*
Y4544D01*
X4918Y4537D01*
X4931D01*
X4938Y4544D01*
Y4577D01*
X4951Y4537D02*
X4965D01*
X4958D01*
Y4577D01*
X4951Y4571D01*
X5846Y4489D02*
Y4449D01*
X5873D01*
X5913Y4489D02*
X5886D01*
Y4449D01*
X5913D01*
X5886Y4469D02*
X5900D01*
X5926Y4489D02*
Y4449D01*
X5946D01*
X5953Y4455D01*
Y4482D01*
X5946Y4489D01*
X5926D01*
X5993D02*
X5980Y4482D01*
X5966Y4469D01*
Y4455D01*
X5973Y4449D01*
X5986D01*
X5993Y4455D01*
Y4462D01*
X5986Y4469D01*
X5966D01*
X5846Y4390D02*
Y4350D01*
X5873D01*
X5913Y4390D02*
X5886D01*
Y4350D01*
X5913D01*
X5886Y4370D02*
X5900D01*
X5926Y4390D02*
Y4350D01*
X5946D01*
X5953Y4357D01*
Y4384D01*
X5946Y4390D01*
X5926D01*
X5993D02*
X5966D01*
Y4370D01*
X5980Y4377D01*
X5986D01*
X5993Y4370D01*
Y4357D01*
X5986Y4350D01*
X5973D01*
X5966Y4357D01*
X5846Y4292D02*
Y4252D01*
X5873D01*
X5913Y4292D02*
X5886D01*
Y4252D01*
X5913D01*
X5886Y4272D02*
X5900D01*
X5926Y4292D02*
Y4252D01*
X5946D01*
X5953Y4259D01*
Y4285D01*
X5946Y4292D01*
X5926D01*
X5986Y4252D02*
Y4292D01*
X5966Y4272D01*
X5993D01*
X5846Y4194D02*
Y4154D01*
X5873D01*
X5913Y4194D02*
X5886D01*
Y4154D01*
X5913D01*
X5886Y4174D02*
X5900D01*
X5926Y4194D02*
Y4154D01*
X5946D01*
X5953Y4160D01*
Y4187D01*
X5946Y4194D01*
X5926D01*
X5966Y4187D02*
X5973Y4194D01*
X5986D01*
X5993Y4187D01*
Y4180D01*
X5986Y4174D01*
X5980D01*
X5986D01*
X5993Y4167D01*
Y4160D01*
X5986Y4154D01*
X5973D01*
X5966Y4160D01*
X5846Y4095D02*
Y4055D01*
X5873D01*
X5913Y4095D02*
X5886D01*
Y4055D01*
X5913D01*
X5886Y4075D02*
X5900D01*
X5926Y4095D02*
Y4055D01*
X5946D01*
X5953Y4062D01*
Y4088D01*
X5946Y4095D01*
X5926D01*
X5993Y4055D02*
X5966D01*
X5993Y4082D01*
Y4088D01*
X5986Y4095D01*
X5973D01*
X5966Y4088D01*
X5846Y3997D02*
Y3957D01*
X5873D01*
X5913Y3997D02*
X5886D01*
Y3957D01*
X5913D01*
X5886Y3977D02*
X5900D01*
X5926Y3997D02*
Y3957D01*
X5946D01*
X5953Y3963D01*
Y3990D01*
X5946Y3997D01*
X5926D01*
X5966Y3957D02*
X5980D01*
X5973D01*
Y3997D01*
X5966Y3990D01*
X5423Y4449D02*
Y4489D01*
X5443D01*
X5450Y4482D01*
Y4469D01*
X5443Y4462D01*
X5423D01*
X5437D02*
X5450Y4449D01*
X5490Y4489D02*
X5477Y4482D01*
X5463Y4469D01*
Y4455D01*
X5470Y4449D01*
X5483D01*
X5490Y4455D01*
Y4462D01*
X5483Y4469D01*
X5463D01*
X5423Y4350D02*
Y4390D01*
X5443D01*
X5450Y4384D01*
Y4370D01*
X5443Y4364D01*
X5423D01*
X5437D02*
X5450Y4350D01*
X5490Y4390D02*
X5463D01*
Y4370D01*
X5477Y4377D01*
X5483D01*
X5490Y4370D01*
Y4357D01*
X5483Y4350D01*
X5470D01*
X5463Y4357D01*
X5423Y4252D02*
Y4292D01*
X5443D01*
X5450Y4285D01*
Y4272D01*
X5443Y4265D01*
X5423D01*
X5437D02*
X5450Y4252D01*
X5483D02*
Y4292D01*
X5463Y4272D01*
X5490D01*
X5423Y4154D02*
Y4194D01*
X5443D01*
X5450Y4187D01*
Y4174D01*
X5443Y4167D01*
X5423D01*
X5437D02*
X5450Y4154D01*
X5463Y4187D02*
X5470Y4194D01*
X5483D01*
X5490Y4187D01*
Y4180D01*
X5483Y4174D01*
X5477D01*
X5483D01*
X5490Y4167D01*
Y4160D01*
X5483Y4154D01*
X5470D01*
X5463Y4160D01*
X5423Y4055D02*
Y4095D01*
X5443D01*
X5450Y4088D01*
Y4075D01*
X5443Y4068D01*
X5423D01*
X5437D02*
X5450Y4055D01*
X5490D02*
X5463D01*
X5490Y4082D01*
Y4088D01*
X5483Y4095D01*
X5470D01*
X5463Y4088D01*
X4951Y3190D02*
Y3156D01*
X4957Y3150D01*
X4971D01*
X4977Y3156D01*
Y3190D01*
X5017Y3150D02*
X4991D01*
X5017Y3176D01*
Y3183D01*
X5011Y3190D01*
X4997D01*
X4991Y3183D01*
X5115Y3773D02*
X5109Y3780D01*
X5095D01*
X5089Y3773D01*
Y3747D01*
X5095Y3740D01*
X5109D01*
X5115Y3747D01*
X5129Y3773D02*
X5135Y3780D01*
X5149D01*
X5155Y3773D01*
Y3767D01*
X5149Y3760D01*
X5142D01*
X5149D01*
X5155Y3753D01*
Y3747D01*
X5149Y3740D01*
X5135D01*
X5129Y3747D01*
X5433Y3805D02*
X5456D01*
X5445D01*
Y3770D01*
X5468D02*
Y3805D01*
X5486D01*
X5491Y3799D01*
Y3787D01*
X5486Y3781D01*
X5468D01*
X5503Y3799D02*
X5509Y3805D01*
X5521D01*
X5526Y3799D01*
Y3793D01*
X5521Y3787D01*
X5515D01*
X5521D01*
X5526Y3781D01*
Y3776D01*
X5521Y3770D01*
X5509D01*
X5503Y3776D01*
X5436Y3706D02*
X5459D01*
X5448D01*
Y3671D01*
X5471D02*
Y3706D01*
X5488D01*
X5494Y3700D01*
Y3689D01*
X5488Y3683D01*
X5471D01*
X5529Y3671D02*
X5506D01*
X5529Y3695D01*
Y3700D01*
X5523Y3706D01*
X5512D01*
X5506Y3700D01*
X5442Y3553D02*
Y3580D01*
Y3566D01*
X5482D01*
Y3593D02*
X5442D01*
Y3613D01*
X5449Y3620D01*
X5462D01*
X5469Y3613D01*
Y3593D01*
X5482Y3633D02*
Y3646D01*
Y3640D01*
X5442D01*
X5449Y3633D01*
X5541Y3622D02*
Y3662D01*
X5561D01*
X5568Y3655D01*
Y3642D01*
X5561Y3635D01*
X5541D01*
X5555D02*
X5568Y3622D01*
X5581D02*
X5595D01*
X5588D01*
Y3662D01*
X5581Y3655D01*
X5615D02*
X5621Y3662D01*
X5635D01*
X5641Y3655D01*
Y3629D01*
X5635Y3622D01*
X5621D01*
X5615Y3629D01*
Y3655D01*
X5679Y3465D02*
Y3505D01*
X5699D01*
X5706Y3498D01*
Y3485D01*
X5699Y3478D01*
X5679D01*
X5692D02*
X5706Y3465D01*
X5719D02*
X5732D01*
X5726D01*
Y3505D01*
X5719Y3498D01*
X5752Y3465D02*
X5766D01*
X5759D01*
Y3505D01*
X5752Y3498D01*
X5679Y3356D02*
Y3396D01*
X5699D01*
X5706Y3390D01*
Y3376D01*
X5699Y3370D01*
X5679D01*
X5692D02*
X5706Y3356D01*
X5719D02*
X5732D01*
X5726D01*
Y3396D01*
X5719Y3390D01*
X5779Y3356D02*
X5752D01*
X5779Y3383D01*
Y3390D01*
X5772Y3396D01*
X5759D01*
X5752Y3390D01*
X5679Y3258D02*
Y3298D01*
X5699D01*
X5706Y3291D01*
Y3278D01*
X5699Y3271D01*
X5679D01*
X5692D02*
X5706Y3258D01*
X5719D02*
X5732D01*
X5726D01*
Y3298D01*
X5719Y3291D01*
X5752D02*
X5759Y3298D01*
X5772D01*
X5779Y3291D01*
Y3285D01*
X5772Y3278D01*
X5766D01*
X5772D01*
X5779Y3271D01*
Y3265D01*
X5772Y3258D01*
X5759D01*
X5752Y3265D01*
X5679Y3169D02*
Y3209D01*
X5699D01*
X5706Y3203D01*
Y3189D01*
X5699Y3183D01*
X5679D01*
X5692D02*
X5706Y3169D01*
X5719D02*
X5732D01*
X5726D01*
Y3209D01*
X5719Y3203D01*
X5772Y3169D02*
Y3209D01*
X5752Y3189D01*
X5779D01*
X7156Y2186D02*
Y2152D01*
X7162Y2146D01*
X7176D01*
X7182Y2152D01*
Y2186D01*
X7195Y2179D02*
X7202Y2186D01*
X7215D01*
X7222Y2179D01*
Y2172D01*
X7215Y2166D01*
X7222Y2159D01*
Y2152D01*
X7215Y2146D01*
X7202D01*
X7195Y2152D01*
Y2159D01*
X7202Y2166D01*
X7195Y2172D01*
Y2179D01*
X7202Y2166D02*
X7215D01*
X8248Y2314D02*
Y2274D01*
X8268D01*
X8275Y2280D01*
Y2307D01*
X8268Y2314D01*
X8248D01*
X8315D02*
X8301Y2307D01*
X8288Y2294D01*
Y2280D01*
X8295Y2274D01*
X8308D01*
X8315Y2280D01*
Y2287D01*
X8308Y2294D01*
X8288D01*
X8789Y2314D02*
Y2274D01*
X8809D01*
X8816Y2280D01*
Y2307D01*
X8809Y2314D01*
X8789D01*
X8829D02*
X8856D01*
Y2307D01*
X8829Y2280D01*
Y2274D01*
X7697Y1959D02*
X7657D01*
Y1979D01*
X7664Y1985D01*
X7677D01*
X7684Y1979D01*
Y1959D01*
Y1972D02*
X7697Y1985D01*
Y2019D02*
X7657D01*
X7677Y1999D01*
Y2025D01*
X7664Y2039D02*
X7657Y2045D01*
Y2059D01*
X7664Y2065D01*
X7690D01*
X7697Y2059D01*
Y2045D01*
X7690Y2039D01*
X7664D01*
X7441Y1900D02*
Y1920D01*
X7451D01*
X7454Y1916D01*
Y1910D01*
X7451Y1906D01*
X7441D01*
X7448D02*
X7454Y1900D01*
X7471D02*
Y1920D01*
X7461Y1910D01*
X7474D01*
X7494Y1920D02*
X7488Y1916D01*
X7481Y1910D01*
Y1903D01*
X7484Y1900D01*
X7491D01*
X7494Y1903D01*
Y1906D01*
X7491Y1910D01*
X7481D01*
X7530Y1713D02*
Y1753D01*
X7550D01*
X7556Y1746D01*
Y1733D01*
X7550Y1726D01*
X7530D01*
X7543D02*
X7556Y1713D01*
X7590D02*
Y1753D01*
X7570Y1733D01*
X7596D01*
X7610Y1746D02*
X7616Y1753D01*
X7629D01*
X7636Y1746D01*
Y1739D01*
X7629Y1733D01*
X7623D01*
X7629D01*
X7636Y1726D01*
Y1719D01*
X7629Y1713D01*
X7616D01*
X7610Y1719D01*
X7340Y2297D02*
X7333Y2304D01*
X7320D01*
X7313Y2297D01*
Y2270D01*
X7320Y2264D01*
X7333D01*
X7340Y2270D01*
X7380Y2264D02*
X7353D01*
X7380Y2290D01*
Y2297D01*
X7373Y2304D01*
X7360D01*
X7353Y2297D01*
X7420Y2264D02*
X7393D01*
X7420Y2290D01*
Y2297D01*
X7413Y2304D01*
X7400D01*
X7393Y2297D01*
X7399Y1746D02*
X7392Y1753D01*
X7379D01*
X7372Y1746D01*
Y1719D01*
X7379Y1713D01*
X7392D01*
X7399Y1719D01*
X7439Y1713D02*
X7412D01*
X7439Y1739D01*
Y1746D01*
X7432Y1753D01*
X7419D01*
X7412Y1746D01*
X7452D02*
X7459Y1753D01*
X7472D01*
X7479Y1746D01*
Y1719D01*
X7472Y1713D01*
X7459D01*
X7452Y1719D01*
Y1746D01*
X7222Y1785D02*
X7215Y1792D01*
X7202D01*
X7195Y1785D01*
Y1759D01*
X7202Y1752D01*
X7215D01*
X7222Y1759D01*
X7262Y1752D02*
X7235D01*
X7262Y1779D01*
Y1785D01*
X7255Y1792D01*
X7242D01*
X7235Y1785D01*
X7302Y1792D02*
X7288Y1785D01*
X7275Y1772D01*
Y1759D01*
X7282Y1752D01*
X7295D01*
X7302Y1759D01*
Y1765D01*
X7295Y1772D01*
X7275D01*
X7067Y1673D02*
X7027D01*
Y1693D01*
X7034Y1700D01*
X7047D01*
X7054Y1693D01*
Y1673D01*
Y1687D02*
X7067Y1700D01*
X7034Y1713D02*
X7027Y1720D01*
Y1733D01*
X7034Y1740D01*
X7040D01*
X7047Y1733D01*
Y1727D01*
Y1733D01*
X7054Y1740D01*
X7060D01*
X7067Y1733D01*
Y1720D01*
X7060Y1713D01*
X7027Y1780D02*
Y1753D01*
X7047D01*
X7040Y1767D01*
Y1773D01*
X7047Y1780D01*
X7060D01*
X7067Y1773D01*
Y1760D01*
X7060Y1753D01*
X6949Y1831D02*
X6909D01*
Y1851D01*
X6915Y1857D01*
X6929D01*
X6935Y1851D01*
Y1831D01*
Y1844D02*
X6949Y1857D01*
X6915Y1871D02*
X6909Y1877D01*
Y1891D01*
X6915Y1897D01*
X6922D01*
X6929Y1891D01*
Y1884D01*
Y1891D01*
X6935Y1897D01*
X6942D01*
X6949Y1891D01*
Y1877D01*
X6942Y1871D01*
Y1911D02*
X6949Y1917D01*
Y1931D01*
X6942Y1937D01*
X6915D01*
X6909Y1931D01*
Y1917D01*
X6915Y1911D01*
X6922D01*
X6929Y1917D01*
Y1937D01*
X6811Y2067D02*
Y2107D01*
X6831D01*
X6838Y2100D01*
Y2087D01*
X6831Y2080D01*
X6811D01*
X6824D02*
X6838Y2067D01*
X6851Y2100D02*
X6858Y2107D01*
X6871D01*
X6878Y2100D01*
Y2094D01*
X6871Y2087D01*
X6864D01*
X6871D01*
X6878Y2080D01*
Y2074D01*
X6871Y2067D01*
X6858D01*
X6851Y2074D01*
X6918Y2067D02*
X6891D01*
X6918Y2094D01*
Y2100D01*
X6911Y2107D01*
X6898D01*
X6891Y2100D01*
X6985Y2277D02*
X6979Y2284D01*
X6965D01*
X6959Y2277D01*
Y2251D01*
X6965Y2244D01*
X6979D01*
X6985Y2251D01*
X6999Y2244D02*
X7012D01*
X7005D01*
Y2284D01*
X6999Y2277D01*
X7052Y2244D02*
Y2284D01*
X7032Y2264D01*
X7059D01*
X6801Y2244D02*
Y2284D01*
X6821D01*
X6828Y2277D01*
Y2264D01*
X6821Y2257D01*
X6801D01*
X6815D02*
X6828Y2244D01*
X6841Y2277D02*
X6848Y2284D01*
X6861D01*
X6868Y2277D01*
Y2271D01*
X6861Y2264D01*
X6854D01*
X6861D01*
X6868Y2257D01*
Y2251D01*
X6861Y2244D01*
X6848D01*
X6841Y2251D01*
X6881Y2244D02*
X6894D01*
X6888D01*
Y2284D01*
X6881Y2277D01*
X6533Y2097D02*
X6519D01*
X6526D01*
Y2064D01*
X6519Y2057D01*
X6513D01*
X6506Y2064D01*
X6546Y2097D02*
X6573D01*
Y2090D01*
X6546Y2064D01*
Y2057D01*
X6260Y1909D02*
X6220D01*
Y1929D01*
X6227Y1936D01*
X6240D01*
X6247Y1929D01*
Y1909D01*
Y1923D02*
X6260Y1936D01*
Y1976D02*
Y1949D01*
X6233Y1976D01*
X6227D01*
X6220Y1969D01*
Y1956D01*
X6227Y1949D01*
X6260Y2016D02*
Y1989D01*
X6233Y2016D01*
X6227D01*
X6220Y2009D01*
Y1996D01*
X6227Y1989D01*
X6339Y2215D02*
X6299D01*
Y2235D01*
X6305Y2241D01*
X6319D01*
X6325Y2235D01*
Y2215D01*
Y2228D02*
X6339Y2241D01*
Y2281D02*
Y2255D01*
X6312Y2281D01*
X6305D01*
X6299Y2275D01*
Y2261D01*
X6305Y2255D01*
X6339Y2295D02*
Y2308D01*
Y2301D01*
X6299D01*
X6305Y2295D01*
X6220Y2382D02*
X6180D01*
Y2402D01*
X6187Y2408D01*
X6200D01*
X6207Y2402D01*
Y2382D01*
Y2395D02*
X6220Y2408D01*
Y2422D02*
Y2435D01*
Y2428D01*
X6180D01*
X6187Y2422D01*
X6180Y2482D02*
X6187Y2468D01*
X6200Y2455D01*
X6214D01*
X6220Y2462D01*
Y2475D01*
X6214Y2482D01*
X6207D01*
X6200Y2475D01*
Y2455D01*
X6043Y2539D02*
X6003D01*
Y2559D01*
X6010Y2566D01*
X6023D01*
X6030Y2559D01*
Y2539D01*
Y2553D02*
X6043Y2566D01*
Y2579D02*
Y2593D01*
Y2586D01*
X6003D01*
X6010Y2579D01*
X6003Y2639D02*
Y2613D01*
X6023D01*
X6017Y2626D01*
Y2633D01*
X6023Y2639D01*
X6037D01*
X6043Y2633D01*
Y2619D01*
X6037Y2613D01*
X5945Y2539D02*
X5905D01*
Y2559D01*
X5912Y2566D01*
X5925D01*
X5932Y2559D01*
Y2539D01*
Y2553D02*
X5945Y2566D01*
Y2606D02*
Y2579D01*
X5918Y2606D01*
X5912D01*
X5905Y2599D01*
Y2586D01*
X5912Y2579D01*
Y2619D02*
X5905Y2626D01*
Y2639D01*
X5912Y2646D01*
X5938D01*
X5945Y2639D01*
Y2626D01*
X5938Y2619D01*
X5912D01*
X5813Y2566D02*
X5806Y2559D01*
Y2546D01*
X5813Y2539D01*
X5840D01*
X5846Y2546D01*
Y2559D01*
X5840Y2566D01*
X5806Y2606D02*
X5813Y2593D01*
X5826Y2579D01*
X5840D01*
X5846Y2586D01*
Y2599D01*
X5840Y2606D01*
X5833D01*
X5826Y2599D01*
Y2579D01*
X5738Y2539D02*
X5698D01*
Y2559D01*
X5705Y2566D01*
X5718D01*
X5725Y2559D01*
Y2539D01*
Y2553D02*
X5738Y2566D01*
Y2579D02*
Y2593D01*
Y2586D01*
X5698D01*
X5705Y2579D01*
X5732Y2613D02*
X5738Y2619D01*
Y2633D01*
X5732Y2639D01*
X5705D01*
X5698Y2633D01*
Y2619D01*
X5705Y2613D01*
X5712D01*
X5718Y2619D01*
Y2639D01*
X5650Y2520D02*
X5610D01*
Y2540D01*
X5616Y2546D01*
X5630D01*
X5636Y2540D01*
Y2520D01*
Y2533D02*
X5650Y2546D01*
Y2560D02*
Y2573D01*
Y2566D01*
X5610D01*
X5616Y2560D01*
Y2593D02*
X5610Y2600D01*
Y2613D01*
X5616Y2620D01*
X5623D01*
X5630Y2613D01*
X5636Y2620D01*
X5643D01*
X5650Y2613D01*
Y2600D01*
X5643Y2593D01*
X5636D01*
X5630Y2600D01*
X5623Y2593D01*
X5616D01*
X5630Y2600D02*
Y2613D01*
X5551Y2539D02*
X5511D01*
Y2559D01*
X5518Y2566D01*
X5531D01*
X5538Y2559D01*
Y2539D01*
Y2553D02*
X5551Y2566D01*
Y2579D02*
Y2593D01*
Y2586D01*
X5511D01*
X5518Y2579D01*
X5511Y2613D02*
Y2639D01*
X5518D01*
X5545Y2613D01*
X5551D01*
X4327Y3629D02*
X4320Y3622D01*
Y3609D01*
X4327Y3602D01*
X4334D01*
X4340Y3609D01*
Y3622D01*
X4347Y3629D01*
X4354D01*
X4360Y3622D01*
Y3609D01*
X4354Y3602D01*
X4320Y3642D02*
X4360D01*
X4347Y3656D01*
X4360Y3669D01*
X4320D01*
X4360Y3682D02*
Y3696D01*
Y3689D01*
X4320D01*
X4327Y3682D01*
Y2615D02*
X4320Y2609D01*
Y2595D01*
X4327Y2589D01*
X4334D01*
X4340Y2595D01*
Y2609D01*
X4347Y2615D01*
X4354D01*
X4360Y2609D01*
Y2595D01*
X4354Y2589D01*
X4320Y2629D02*
X4360D01*
X4347Y2642D01*
X4360Y2655D01*
X4320D01*
X4360Y2695D02*
Y2669D01*
X4334Y2695D01*
X4327D01*
X4320Y2689D01*
Y2675D01*
X4327Y2669D01*
X3757Y2140D02*
X3750Y2146D01*
X3737D01*
X3730Y2140D01*
Y2133D01*
X3737Y2126D01*
X3750D01*
X3757Y2120D01*
Y2113D01*
X3750Y2106D01*
X3737D01*
X3730Y2113D01*
X3770Y2146D02*
Y2106D01*
X3784Y2120D01*
X3797Y2106D01*
Y2146D01*
X3810Y2140D02*
X3817Y2146D01*
X3830D01*
X3837Y2140D01*
Y2133D01*
X3830Y2126D01*
X3824D01*
X3830D01*
X3837Y2120D01*
Y2113D01*
X3830Y2106D01*
X3817D01*
X3810Y2113D01*
X2842Y2140D02*
X2835Y2146D01*
X2822D01*
X2815Y2140D01*
Y2133D01*
X2822Y2126D01*
X2835D01*
X2842Y2120D01*
Y2113D01*
X2835Y2106D01*
X2822D01*
X2815Y2113D01*
X2855Y2146D02*
Y2106D01*
X2868Y2120D01*
X2882Y2106D01*
Y2146D01*
X2915Y2106D02*
Y2146D01*
X2895Y2126D01*
X2922D01*
X1594Y1605D02*
Y1585D01*
X1608D01*
X1628Y1605D02*
X1614D01*
Y1585D01*
X1628D01*
X1614Y1595D02*
X1621D01*
X1634Y1605D02*
Y1585D01*
X1644D01*
X1648Y1588D01*
Y1601D01*
X1644Y1605D01*
X1634D01*
X1654Y1601D02*
X1658Y1605D01*
X1664D01*
X1668Y1601D01*
Y1598D01*
X1664Y1595D01*
X1668Y1591D01*
Y1588D01*
X1664Y1585D01*
X1658D01*
X1654Y1588D01*
Y1591D01*
X1658Y1595D01*
X1654Y1598D01*
Y1601D01*
X1658Y1595D02*
X1664D01*
X1946Y2140D02*
X1939Y2146D01*
X1926D01*
X1919Y2140D01*
Y2133D01*
X1926Y2126D01*
X1939D01*
X1946Y2120D01*
Y2113D01*
X1939Y2106D01*
X1926D01*
X1919Y2113D01*
X1959Y2146D02*
Y2106D01*
X1973Y2120D01*
X1986Y2106D01*
Y2146D01*
X2026D02*
X1999D01*
Y2126D01*
X2013Y2133D01*
X2019D01*
X2026Y2126D01*
Y2113D01*
X2019Y2106D01*
X2006D01*
X1999Y2113D01*
X1693Y2037D02*
X1653D01*
Y2057D01*
X1660Y2064D01*
X1673D01*
X1680Y2057D01*
Y2037D01*
Y2051D02*
X1693Y2064D01*
X1653Y2077D02*
Y2104D01*
X1660D01*
X1686Y2077D01*
X1693D01*
X1614Y2037D02*
X1574D01*
Y2057D01*
X1581Y2064D01*
X1594D01*
X1601Y2057D01*
Y2037D01*
Y2051D02*
X1614Y2064D01*
X1581Y2077D02*
X1574Y2084D01*
Y2097D01*
X1581Y2104D01*
X1588D01*
X1594Y2097D01*
X1601Y2104D01*
X1608D01*
X1614Y2097D01*
Y2084D01*
X1608Y2077D01*
X1601D01*
X1594Y2084D01*
X1588Y2077D01*
X1581D01*
X1594Y2084D02*
Y2097D01*
X1683Y1856D02*
Y1831D01*
X1700D01*
X1725Y1856D02*
X1708D01*
Y1831D01*
X1725D01*
X1708Y1843D02*
X1716D01*
X1733Y1856D02*
Y1831D01*
X1746D01*
X1750Y1835D01*
Y1852D01*
X1746Y1856D01*
X1733D01*
X1758D02*
X1775D01*
Y1852D01*
X1758Y1835D01*
Y1831D01*
X1454Y4037D02*
Y4004D01*
X1461Y3997D01*
X1474D01*
X1481Y4004D01*
Y4037D01*
X1494Y4030D02*
X1501Y4037D01*
X1514D01*
X1521Y4030D01*
Y4024D01*
X1514Y4017D01*
X1507D01*
X1514D01*
X1521Y4010D01*
Y4004D01*
X1514Y3997D01*
X1501D01*
X1494Y4004D01*
X4672Y3514D02*
Y3554D01*
X4692D01*
X4699Y3547D01*
Y3534D01*
X4692Y3527D01*
X4672D01*
X4685D02*
X4699Y3514D01*
X4712Y3521D02*
X4719Y3514D01*
X4732D01*
X4739Y3521D01*
Y3547D01*
X4732Y3554D01*
X4719D01*
X4712Y3547D01*
Y3541D01*
X4719Y3534D01*
X4739D01*
X5423Y3957D02*
Y3997D01*
X5443D01*
X5450Y3990D01*
Y3977D01*
X5443Y3970D01*
X5423D01*
X5437D02*
X5450Y3957D01*
X5463D02*
X5477D01*
X5470D01*
Y3997D01*
X5463Y3990D01*
X8886Y5333D02*
X8872D01*
X8879D01*
Y5300D01*
X8872Y5293D01*
X8866D01*
X8859Y5300D01*
X8899Y5293D02*
X8912D01*
X8906D01*
Y5333D01*
X8899Y5326D01*
X8932Y5293D02*
X8946D01*
X8939D01*
Y5333D01*
X8932Y5326D01*
X5596Y2348D02*
X5582D01*
X5589D01*
Y2315D01*
X5582Y2308D01*
X5576D01*
X5569Y2315D01*
X5636Y2308D02*
X5609D01*
X5636Y2335D01*
Y2341D01*
X5629Y2348D01*
X5616D01*
X5609Y2341D01*
X9000Y2307D02*
X8993Y2314D01*
X8980D01*
X8973Y2307D01*
Y2281D01*
X8980Y2274D01*
X8993D01*
X9000Y2281D01*
X9040Y2274D02*
X9013D01*
X9040Y2301D01*
Y2307D01*
X9033Y2314D01*
X9020D01*
X9013Y2307D01*
X9053D02*
X9060Y2314D01*
X9073D01*
X9080Y2307D01*
Y2301D01*
X9073Y2294D01*
X9066D01*
X9073D01*
X9080Y2287D01*
Y2281D01*
X9073Y2274D01*
X9060D01*
X9053Y2281D01*
M02*
