G04*
G04 #@! TF.GenerationSoftware,Altium Limited,CircuitStudio,1.5.1 (1.5.1.13)*
G04*
G04 Layer_Color=7318015*
%FSLAX23Y23*%
%MOIN*%
G70*
G01*
G75*
%ADD10R,0.050X0.047*%
%ADD11R,0.136X0.073*%
%ADD12R,0.047X0.050*%
%ADD13R,0.073X0.136*%
%ADD14R,0.010X0.134*%
G04:AMPARAMS|DCode=18|XSize=10mil|YSize=134mil|CornerRadius=2mil|HoleSize=0mil|Usage=FLASHONLY|Rotation=0.000|XOffset=0mil|YOffset=0mil|HoleType=Round|Shape=RoundedRectangle|*
%AMROUNDEDRECTD18*
21,1,0.010,0.130,0,0,0.0*
21,1,0.006,0.134,0,0,0.0*
1,1,0.004,0.003,-0.065*
1,1,0.004,-0.003,-0.065*
1,1,0.004,-0.003,0.065*
1,1,0.004,0.003,0.065*
%
%ADD18ROUNDEDRECTD18*%
%ADD19R,0.050X0.107*%
%ADD20R,0.035X0.037*%
%ADD21R,0.035X0.037*%
%ADD22R,0.047X0.150*%
%ADD23R,0.031X0.063*%
%ADD24R,0.138X0.085*%
%ADD25R,0.043X0.085*%
%ADD26R,0.043X0.085*%
%ADD27R,0.039X0.118*%
G04:AMPARAMS|DCode=29|XSize=62mil|YSize=16mil|CornerRadius=2mil|HoleSize=0mil|Usage=FLASHONLY|Rotation=0.000|XOffset=0mil|YOffset=0mil|HoleType=Round|Shape=RoundedRectangle|*
%AMROUNDEDRECTD29*
21,1,0.062,0.012,0,0,0.0*
21,1,0.058,0.016,0,0,0.0*
1,1,0.004,0.029,-0.006*
1,1,0.004,-0.029,-0.006*
1,1,0.004,-0.029,0.006*
1,1,0.004,0.029,0.006*
%
%ADD29ROUNDEDRECTD29*%
%ADD30R,0.037X0.035*%
%ADD31R,0.037X0.035*%
%ADD32R,0.107X0.050*%
%ADD33R,0.075X0.022*%
%ADD34R,0.063X0.031*%
G04:AMPARAMS|DCode=35|XSize=57mil|YSize=23mil|CornerRadius=3mil|HoleSize=0mil|Usage=FLASHONLY|Rotation=0.000|XOffset=0mil|YOffset=0mil|HoleType=Round|Shape=RoundedRectangle|*
%AMROUNDEDRECTD35*
21,1,0.057,0.017,0,0,0.0*
21,1,0.051,0.023,0,0,0.0*
1,1,0.006,0.026,-0.009*
1,1,0.006,-0.026,-0.009*
1,1,0.006,-0.026,0.009*
1,1,0.006,0.026,0.009*
%
%ADD35ROUNDEDRECTD35*%
G04:AMPARAMS|DCode=36|XSize=58mil|YSize=19mil|CornerRadius=2mil|HoleSize=0mil|Usage=FLASHONLY|Rotation=0.000|XOffset=0mil|YOffset=0mil|HoleType=Round|Shape=RoundedRectangle|*
%AMROUNDEDRECTD36*
21,1,0.058,0.014,0,0,0.0*
21,1,0.053,0.019,0,0,0.0*
1,1,0.005,0.027,-0.007*
1,1,0.005,-0.027,-0.007*
1,1,0.005,-0.027,0.007*
1,1,0.005,0.027,0.007*
%
%ADD36ROUNDEDRECTD36*%
G04:AMPARAMS|DCode=37|XSize=78mil|YSize=24mil|CornerRadius=3mil|HoleSize=0mil|Usage=FLASHONLY|Rotation=0.000|XOffset=0mil|YOffset=0mil|HoleType=Round|Shape=RoundedRectangle|*
%AMROUNDEDRECTD37*
21,1,0.078,0.018,0,0,0.0*
21,1,0.072,0.024,0,0,0.0*
1,1,0.006,0.036,-0.009*
1,1,0.006,-0.036,-0.009*
1,1,0.006,-0.036,0.009*
1,1,0.006,0.036,0.009*
%
%ADD37ROUNDEDRECTD37*%
G04:AMPARAMS|DCode=38|XSize=75mil|YSize=24mil|CornerRadius=3mil|HoleSize=0mil|Usage=FLASHONLY|Rotation=0.000|XOffset=0mil|YOffset=0mil|HoleType=Round|Shape=RoundedRectangle|*
%AMROUNDEDRECTD38*
21,1,0.075,0.018,0,0,0.0*
21,1,0.069,0.024,0,0,0.0*
1,1,0.006,0.035,-0.009*
1,1,0.006,-0.035,-0.009*
1,1,0.006,-0.035,0.009*
1,1,0.006,0.035,0.009*
%
%ADD38ROUNDEDRECTD38*%
%ADD39R,0.039X0.126*%
%ADD40R,0.126X0.039*%
%ADD41R,0.028X0.047*%
%ADD42R,0.047X0.031*%
%ADD43R,0.047X0.047*%
%ADD44R,0.047X0.126*%
%ADD45R,0.028X0.055*%
%ADD46R,0.039X0.055*%
%ADD48C,0.010*%
%ADD49C,0.020*%
G36*
X8085Y4798D02*
X8085D01*
X8085Y4798D01*
X8085D01*
X8085Y4798D01*
X8085Y4798D01*
X8086Y4798D01*
X8086Y4798D01*
X8086Y4798D01*
X8086Y4798D01*
X8086Y4798D01*
X8086Y4798D01*
X8086Y4798D01*
X8086Y4798D01*
X8086Y4797D01*
X8086Y4797D01*
X8086Y4797D01*
X8086Y4797D01*
X8086Y4797D01*
X8086Y4797D01*
X8086Y4797D01*
X8087Y4797D01*
Y4797D01*
X8087Y4797D01*
Y4797D01*
X8087Y4796D01*
Y4796D01*
Y4796D01*
Y4790D01*
Y4790D01*
Y4790D01*
X8087Y4790D01*
Y4790D01*
X8087Y4790D01*
Y4790D01*
X8086Y4790D01*
X8086Y4790D01*
X8086Y4789D01*
X8086Y4789D01*
X8086Y4789D01*
X8086Y4789D01*
X8086Y4789D01*
X8086Y4789D01*
X8086Y4789D01*
X8086Y4789D01*
X8086Y4789D01*
X8086Y4789D01*
X8086Y4789D01*
X8086Y4789D01*
X8086Y4789D01*
X8085Y4789D01*
X8085Y4789D01*
X8085Y4788D01*
X8085D01*
X8085Y4788D01*
X8085D01*
X8085Y4788D01*
X8065D01*
X8065Y4788D01*
X8065D01*
X8064Y4788D01*
X8064D01*
X8064Y4789D01*
X8064Y4789D01*
X8064Y4789D01*
X8064Y4789D01*
X8064Y4789D01*
X8064Y4789D01*
X8064Y4789D01*
X8064Y4789D01*
X8064Y4789D01*
X8064Y4789D01*
X8063Y4789D01*
X8063Y4789D01*
X8063Y4789D01*
X8063Y4789D01*
X8063Y4789D01*
X8063Y4790D01*
X8063Y4790D01*
X8063Y4790D01*
Y4790D01*
X8063Y4790D01*
Y4790D01*
X8063Y4790D01*
Y4790D01*
Y4790D01*
Y4796D01*
Y4796D01*
Y4796D01*
X8063Y4797D01*
Y4797D01*
X8063Y4797D01*
Y4797D01*
X8063Y4797D01*
X8063Y4797D01*
X8063Y4797D01*
X8063Y4797D01*
X8063Y4797D01*
X8063Y4797D01*
X8063Y4797D01*
X8064Y4798D01*
X8064Y4798D01*
X8064Y4798D01*
X8064Y4798D01*
X8064Y4798D01*
X8064Y4798D01*
X8064Y4798D01*
X8064Y4798D01*
X8064Y4798D01*
X8064Y4798D01*
X8064Y4798D01*
X8064D01*
X8065Y4798D01*
X8065D01*
X8065Y4798D01*
X8085D01*
X8085Y4798D01*
D02*
G37*
G36*
X8253Y4781D02*
X8253D01*
X8253Y4781D01*
X8253D01*
X8253Y4781D01*
X8253Y4781D01*
X8253Y4781D01*
X8254Y4781D01*
X8254Y4781D01*
X8254Y4781D01*
X8254Y4781D01*
X8254Y4781D01*
X8254Y4781D01*
X8254Y4781D01*
X8254Y4781D01*
X8254Y4781D01*
X8254Y4781D01*
X8254Y4781D01*
X8254Y4780D01*
X8254Y4780D01*
X8254Y4780D01*
X8254Y4780D01*
Y4780D01*
X8254Y4780D01*
Y4780D01*
X8255Y4780D01*
Y4780D01*
Y4780D01*
Y4758D01*
Y4758D01*
Y4758D01*
X8254Y4758D01*
Y4757D01*
X8254Y4757D01*
Y4757D01*
X8254Y4757D01*
X8254Y4757D01*
X8254Y4757D01*
X8254Y4757D01*
X8254Y4757D01*
X8254Y4757D01*
X8254Y4757D01*
X8254Y4757D01*
X8254Y4756D01*
X8254Y4756D01*
X8254Y4756D01*
X8254Y4756D01*
X8254Y4756D01*
X8254Y4756D01*
X8253Y4756D01*
X8253Y4756D01*
X8253Y4756D01*
X8253Y4756D01*
X8253D01*
X8253Y4756D01*
X8253D01*
X8253Y4756D01*
X8246D01*
X8246Y4756D01*
X8246D01*
X8246Y4756D01*
X8246D01*
X8246Y4756D01*
X8246Y4756D01*
X8246Y4756D01*
X8246Y4756D01*
X8246Y4756D01*
X8246Y4756D01*
X8245Y4756D01*
X8245Y4756D01*
X8245Y4756D01*
X8245Y4757D01*
X8245Y4757D01*
X8245Y4757D01*
X8245Y4757D01*
X8245Y4757D01*
X8245Y4757D01*
X8245Y4757D01*
X8245Y4757D01*
X8245Y4757D01*
Y4757D01*
X8245Y4757D01*
Y4758D01*
X8245Y4758D01*
Y4758D01*
Y4758D01*
Y4780D01*
Y4780D01*
Y4780D01*
X8245Y4780D01*
Y4780D01*
X8245Y4780D01*
Y4780D01*
X8245Y4780D01*
X8245Y4780D01*
X8245Y4780D01*
X8245Y4781D01*
X8245Y4781D01*
X8245Y4781D01*
X8245Y4781D01*
X8245Y4781D01*
X8245Y4781D01*
X8245Y4781D01*
X8245Y4781D01*
X8246Y4781D01*
X8246Y4781D01*
X8246Y4781D01*
X8246Y4781D01*
X8246Y4781D01*
X8246Y4781D01*
X8246Y4781D01*
X8246D01*
X8246Y4781D01*
X8246D01*
X8246Y4781D01*
X8253D01*
X8253Y4781D01*
D02*
G37*
G36*
X8085Y4818D02*
X8085D01*
X8085Y4818D01*
X8085D01*
X8085Y4818D01*
X8085Y4818D01*
X8086Y4818D01*
X8086Y4818D01*
X8086Y4818D01*
X8086Y4818D01*
X8086Y4817D01*
X8086Y4817D01*
X8086Y4817D01*
X8086Y4817D01*
X8086Y4817D01*
X8086Y4817D01*
X8086Y4817D01*
X8086Y4817D01*
X8086Y4817D01*
X8086Y4817D01*
X8086Y4817D01*
X8087Y4817D01*
Y4816D01*
X8087Y4816D01*
Y4816D01*
X8087Y4816D01*
Y4816D01*
Y4816D01*
Y4810D01*
Y4810D01*
Y4810D01*
X8087Y4810D01*
Y4810D01*
X8087Y4810D01*
Y4809D01*
X8086Y4809D01*
X8086Y4809D01*
X8086Y4809D01*
X8086Y4809D01*
X8086Y4809D01*
X8086Y4809D01*
X8086Y4809D01*
X8086Y4809D01*
X8086Y4809D01*
X8086Y4809D01*
X8086Y4809D01*
X8086Y4808D01*
X8086Y4808D01*
X8086Y4808D01*
X8086Y4808D01*
X8085Y4808D01*
X8085Y4808D01*
X8085Y4808D01*
X8085D01*
X8085Y4808D01*
X8085D01*
X8085Y4808D01*
X8065D01*
X8065Y4808D01*
X8065D01*
X8064Y4808D01*
X8064D01*
X8064Y4808D01*
X8064Y4808D01*
X8064Y4808D01*
X8064Y4808D01*
X8064Y4808D01*
X8064Y4808D01*
X8064Y4809D01*
X8064Y4809D01*
X8064Y4809D01*
X8064Y4809D01*
X8063Y4809D01*
X8063Y4809D01*
X8063Y4809D01*
X8063Y4809D01*
X8063Y4809D01*
X8063Y4809D01*
X8063Y4809D01*
X8063Y4809D01*
Y4810D01*
X8063Y4810D01*
Y4810D01*
X8063Y4810D01*
Y4810D01*
Y4810D01*
Y4816D01*
Y4816D01*
Y4816D01*
X8063Y4816D01*
Y4816D01*
X8063Y4816D01*
Y4817D01*
X8063Y4817D01*
X8063Y4817D01*
X8063Y4817D01*
X8063Y4817D01*
X8063Y4817D01*
X8063Y4817D01*
X8063Y4817D01*
X8064Y4817D01*
X8064Y4817D01*
X8064Y4817D01*
X8064Y4817D01*
X8064Y4818D01*
X8064Y4818D01*
X8064Y4818D01*
X8064Y4818D01*
X8064Y4818D01*
X8064Y4818D01*
X8064Y4818D01*
X8064D01*
X8065Y4818D01*
X8065D01*
X8065Y4818D01*
X8085D01*
X8085Y4818D01*
D02*
G37*
G36*
X8274Y4798D02*
X8274D01*
X8274Y4798D01*
X8274D01*
X8274Y4798D01*
X8274Y4798D01*
X8275Y4798D01*
X8275Y4798D01*
X8275Y4798D01*
X8275Y4798D01*
X8275Y4798D01*
X8275Y4798D01*
X8275Y4798D01*
X8275Y4798D01*
X8275Y4797D01*
X8275Y4797D01*
X8275Y4797D01*
X8275Y4797D01*
X8275Y4797D01*
X8275Y4797D01*
X8275Y4797D01*
X8276Y4797D01*
Y4797D01*
X8276Y4797D01*
Y4797D01*
X8276Y4796D01*
Y4796D01*
Y4796D01*
Y4790D01*
Y4790D01*
Y4790D01*
X8276Y4790D01*
Y4790D01*
X8276Y4790D01*
Y4790D01*
X8275Y4790D01*
X8275Y4790D01*
X8275Y4789D01*
X8275Y4789D01*
X8275Y4789D01*
X8275Y4789D01*
X8275Y4789D01*
X8275Y4789D01*
X8275Y4789D01*
X8275Y4789D01*
X8275Y4789D01*
X8275Y4789D01*
X8275Y4789D01*
X8275Y4789D01*
X8275Y4789D01*
X8274Y4789D01*
X8274Y4789D01*
X8274Y4788D01*
X8274D01*
X8274Y4788D01*
X8274D01*
X8274Y4788D01*
X8254D01*
X8254Y4788D01*
X8254D01*
X8253Y4788D01*
X8253D01*
X8253Y4789D01*
X8253Y4789D01*
X8253Y4789D01*
X8253Y4789D01*
X8253Y4789D01*
X8253Y4789D01*
X8253Y4789D01*
X8253Y4789D01*
X8253Y4789D01*
X8252Y4789D01*
X8252Y4789D01*
X8252Y4789D01*
X8252Y4789D01*
X8252Y4789D01*
X8252Y4789D01*
X8252Y4790D01*
X8252Y4790D01*
X8252Y4790D01*
Y4790D01*
X8252Y4790D01*
Y4790D01*
X8252Y4790D01*
Y4790D01*
Y4790D01*
Y4796D01*
Y4796D01*
Y4796D01*
X8252Y4797D01*
Y4797D01*
X8252Y4797D01*
Y4797D01*
X8252Y4797D01*
X8252Y4797D01*
X8252Y4797D01*
X8252Y4797D01*
X8252Y4797D01*
X8252Y4797D01*
X8252Y4797D01*
X8252Y4798D01*
X8253Y4798D01*
X8253Y4798D01*
X8253Y4798D01*
X8253Y4798D01*
X8253Y4798D01*
X8253Y4798D01*
X8253Y4798D01*
X8253Y4798D01*
X8253Y4798D01*
X8253Y4798D01*
X8253D01*
X8254Y4798D01*
X8254D01*
X8254Y4798D01*
X8274D01*
X8274Y4798D01*
D02*
G37*
G36*
X8233Y4779D02*
X8233D01*
X8233Y4779D01*
X8233D01*
X8234Y4779D01*
X8234Y4779D01*
X8234Y4779D01*
X8234Y4779D01*
X8234Y4779D01*
X8234Y4779D01*
X8234Y4779D01*
X8234Y4779D01*
X8234Y4779D01*
X8234Y4779D01*
X8234Y4779D01*
X8234Y4779D01*
X8235Y4779D01*
X8235Y4779D01*
X8235Y4778D01*
X8235Y4778D01*
X8235Y4778D01*
X8235Y4778D01*
Y4778D01*
X8235Y4778D01*
Y4778D01*
X8235Y4778D01*
Y4778D01*
Y4778D01*
Y4758D01*
Y4758D01*
Y4758D01*
X8235Y4758D01*
Y4757D01*
X8235Y4757D01*
Y4757D01*
X8235Y4757D01*
X8235Y4757D01*
X8235Y4757D01*
X8235Y4757D01*
X8235Y4757D01*
X8234Y4757D01*
X8234Y4757D01*
X8234Y4757D01*
X8234Y4756D01*
X8234Y4756D01*
X8234Y4756D01*
X8234Y4756D01*
X8234Y4756D01*
X8234Y4756D01*
X8234Y4756D01*
X8234Y4756D01*
X8234Y4756D01*
X8233Y4756D01*
X8233D01*
X8233Y4756D01*
X8233D01*
X8233Y4756D01*
X8227D01*
X8227Y4756D01*
X8227D01*
X8226Y4756D01*
X8226D01*
X8226Y4756D01*
X8226Y4756D01*
X8226Y4756D01*
X8226Y4756D01*
X8226Y4756D01*
X8226Y4756D01*
X8226Y4756D01*
X8226Y4756D01*
X8226Y4756D01*
X8226Y4757D01*
X8225Y4757D01*
X8225Y4757D01*
X8225Y4757D01*
X8225Y4757D01*
X8225Y4757D01*
X8225Y4757D01*
X8225Y4757D01*
X8225Y4757D01*
Y4757D01*
X8225Y4757D01*
Y4758D01*
X8225Y4758D01*
Y4758D01*
Y4758D01*
Y4778D01*
Y4778D01*
Y4778D01*
X8225Y4778D01*
Y4778D01*
X8225Y4778D01*
Y4778D01*
X8225Y4778D01*
X8225Y4778D01*
X8225Y4778D01*
X8225Y4779D01*
X8225Y4779D01*
X8225Y4779D01*
X8225Y4779D01*
X8226Y4779D01*
X8226Y4779D01*
X8226Y4779D01*
X8226Y4779D01*
X8226Y4779D01*
X8226Y4779D01*
X8226Y4779D01*
X8226Y4779D01*
X8226Y4779D01*
X8226Y4779D01*
X8226Y4779D01*
X8226D01*
X8227Y4779D01*
X8227D01*
X8227Y4780D01*
X8233D01*
X8233Y4779D01*
D02*
G37*
G36*
X8136Y3032D02*
X8084D01*
Y3110D01*
X8136D01*
Y3032D01*
D02*
G37*
G36*
X5634Y1620D02*
X5640Y1614D01*
X5654D01*
Y1594D01*
X5575D01*
Y1669D01*
X5634D01*
Y1620D01*
D02*
G37*
G36*
X8112Y4779D02*
X8112D01*
X8112Y4779D01*
X8112D01*
X8112Y4779D01*
X8112Y4779D01*
X8113Y4779D01*
X8113Y4779D01*
X8113Y4779D01*
X8113Y4779D01*
X8113Y4779D01*
X8113Y4779D01*
X8113Y4779D01*
X8113Y4779D01*
X8113Y4779D01*
X8113Y4779D01*
X8113Y4779D01*
X8113Y4779D01*
X8113Y4778D01*
X8113Y4778D01*
X8113Y4778D01*
X8114Y4778D01*
Y4778D01*
X8114Y4778D01*
Y4778D01*
X8114Y4778D01*
Y4778D01*
Y4778D01*
Y4758D01*
Y4758D01*
Y4758D01*
X8114Y4758D01*
Y4757D01*
X8114Y4757D01*
Y4757D01*
X8113Y4757D01*
X8113Y4757D01*
X8113Y4757D01*
X8113Y4757D01*
X8113Y4757D01*
X8113Y4757D01*
X8113Y4757D01*
X8113Y4757D01*
X8113Y4756D01*
X8113Y4756D01*
X8113Y4756D01*
X8113Y4756D01*
X8113Y4756D01*
X8113Y4756D01*
X8113Y4756D01*
X8112Y4756D01*
X8112Y4756D01*
X8112Y4756D01*
X8112D01*
X8112Y4756D01*
X8112D01*
X8112Y4756D01*
X8106D01*
X8105Y4756D01*
X8105D01*
X8105Y4756D01*
X8105D01*
X8105Y4756D01*
X8105Y4756D01*
X8105Y4756D01*
X8105Y4756D01*
X8105Y4756D01*
X8105Y4756D01*
X8104Y4756D01*
X8104Y4756D01*
X8104Y4756D01*
X8104Y4757D01*
X8104Y4757D01*
X8104Y4757D01*
X8104Y4757D01*
X8104Y4757D01*
X8104Y4757D01*
X8104Y4757D01*
X8104Y4757D01*
X8104Y4757D01*
Y4757D01*
X8104Y4757D01*
Y4758D01*
X8104Y4758D01*
Y4758D01*
Y4758D01*
Y4778D01*
Y4778D01*
Y4778D01*
X8104Y4778D01*
Y4778D01*
X8104Y4778D01*
Y4778D01*
X8104Y4778D01*
X8104Y4778D01*
X8104Y4778D01*
X8104Y4779D01*
X8104Y4779D01*
X8104Y4779D01*
X8104Y4779D01*
X8104Y4779D01*
X8104Y4779D01*
X8104Y4779D01*
X8104Y4779D01*
X8105Y4779D01*
X8105Y4779D01*
X8105Y4779D01*
X8105Y4779D01*
X8105Y4779D01*
X8105Y4779D01*
X8105Y4779D01*
X8105D01*
X8105Y4779D01*
X8105D01*
X8106Y4780D01*
X8112D01*
X8112Y4779D01*
D02*
G37*
G36*
X8092Y4781D02*
X8092D01*
X8092Y4781D01*
X8093D01*
X8093Y4781D01*
X8093Y4781D01*
X8093Y4781D01*
X8093Y4781D01*
X8093Y4781D01*
X8093Y4781D01*
X8093Y4781D01*
X8093Y4781D01*
X8093Y4781D01*
X8093Y4781D01*
X8093Y4781D01*
X8094Y4781D01*
X8094Y4781D01*
X8094Y4781D01*
X8094Y4780D01*
X8094Y4780D01*
X8094Y4780D01*
X8094Y4780D01*
Y4780D01*
X8094Y4780D01*
Y4780D01*
X8094Y4780D01*
Y4780D01*
Y4780D01*
Y4758D01*
Y4758D01*
Y4758D01*
X8094Y4758D01*
Y4757D01*
X8094Y4757D01*
Y4757D01*
X8094Y4757D01*
X8094Y4757D01*
X8094Y4757D01*
X8094Y4757D01*
X8094Y4757D01*
X8094Y4757D01*
X8093Y4757D01*
X8093Y4757D01*
X8093Y4756D01*
X8093Y4756D01*
X8093Y4756D01*
X8093Y4756D01*
X8093Y4756D01*
X8093Y4756D01*
X8093Y4756D01*
X8093Y4756D01*
X8093Y4756D01*
X8093Y4756D01*
X8092D01*
X8092Y4756D01*
X8092D01*
X8092Y4756D01*
X8086D01*
X8086Y4756D01*
X8086D01*
X8086Y4756D01*
X8085D01*
X8085Y4756D01*
X8085Y4756D01*
X8085Y4756D01*
X8085Y4756D01*
X8085Y4756D01*
X8085Y4756D01*
X8085Y4756D01*
X8085Y4756D01*
X8085Y4756D01*
X8085Y4757D01*
X8084Y4757D01*
X8084Y4757D01*
X8084Y4757D01*
X8084Y4757D01*
X8084Y4757D01*
X8084Y4757D01*
X8084Y4757D01*
X8084Y4757D01*
Y4757D01*
X8084Y4757D01*
Y4758D01*
X8084Y4758D01*
Y4758D01*
Y4758D01*
Y4780D01*
Y4780D01*
Y4780D01*
X8084Y4780D01*
Y4780D01*
X8084Y4780D01*
Y4780D01*
X8084Y4780D01*
X8084Y4780D01*
X8084Y4780D01*
X8084Y4781D01*
X8084Y4781D01*
X8084Y4781D01*
X8084Y4781D01*
X8085Y4781D01*
X8085Y4781D01*
X8085Y4781D01*
X8085Y4781D01*
X8085Y4781D01*
X8085Y4781D01*
X8085Y4781D01*
X8085Y4781D01*
X8085Y4781D01*
X8085Y4781D01*
X8085Y4781D01*
X8086D01*
X8086Y4781D01*
X8086D01*
X8086Y4781D01*
X8092D01*
X8092Y4781D01*
D02*
G37*
G36*
X8253Y4890D02*
X8253D01*
X8253Y4890D01*
X8253D01*
X8253Y4890D01*
X8253Y4890D01*
X8253Y4890D01*
X8254Y4889D01*
X8254Y4889D01*
X8254Y4889D01*
X8254Y4889D01*
X8254Y4889D01*
X8254Y4889D01*
X8254Y4889D01*
X8254Y4889D01*
X8254Y4889D01*
X8254Y4889D01*
X8254Y4889D01*
X8254Y4889D01*
X8254Y4889D01*
X8254Y4889D01*
X8254Y4888D01*
Y4888D01*
X8254Y4888D01*
Y4888D01*
X8255Y4888D01*
Y4888D01*
Y4888D01*
Y4866D01*
Y4866D01*
Y4866D01*
X8254Y4866D01*
Y4866D01*
X8254Y4866D01*
Y4866D01*
X8254Y4865D01*
X8254Y4865D01*
X8254Y4865D01*
X8254Y4865D01*
X8254Y4865D01*
X8254Y4865D01*
X8254Y4865D01*
X8254Y4865D01*
X8254Y4865D01*
X8254Y4865D01*
X8254Y4865D01*
X8254Y4865D01*
X8254Y4864D01*
X8254Y4864D01*
X8253Y4864D01*
X8253Y4864D01*
X8253Y4864D01*
X8253Y4864D01*
X8253D01*
X8253Y4864D01*
X8253D01*
X8253Y4864D01*
X8246D01*
X8246Y4864D01*
X8246D01*
X8246Y4864D01*
X8246D01*
X8246Y4864D01*
X8246Y4864D01*
X8246Y4864D01*
X8246Y4864D01*
X8246Y4864D01*
X8246Y4865D01*
X8245Y4865D01*
X8245Y4865D01*
X8245Y4865D01*
X8245Y4865D01*
X8245Y4865D01*
X8245Y4865D01*
X8245Y4865D01*
X8245Y4865D01*
X8245Y4865D01*
X8245Y4865D01*
X8245Y4865D01*
X8245Y4866D01*
Y4866D01*
X8245Y4866D01*
Y4866D01*
X8245Y4866D01*
Y4866D01*
Y4866D01*
Y4888D01*
Y4888D01*
Y4888D01*
X8245Y4888D01*
Y4888D01*
X8245Y4888D01*
Y4888D01*
X8245Y4889D01*
X8245Y4889D01*
X8245Y4889D01*
X8245Y4889D01*
X8245Y4889D01*
X8245Y4889D01*
X8245Y4889D01*
X8245Y4889D01*
X8245Y4889D01*
X8245Y4889D01*
X8245Y4889D01*
X8246Y4889D01*
X8246Y4889D01*
X8246Y4889D01*
X8246Y4890D01*
X8246Y4890D01*
X8246Y4890D01*
X8246Y4890D01*
X8246D01*
X8246Y4890D01*
X8246D01*
X8246Y4890D01*
X8253D01*
X8253Y4890D01*
D02*
G37*
G36*
X8092D02*
X8092D01*
X8092Y4890D01*
X8093D01*
X8093Y4890D01*
X8093Y4890D01*
X8093Y4890D01*
X8093Y4889D01*
X8093Y4889D01*
X8093Y4889D01*
X8093Y4889D01*
X8093Y4889D01*
X8093Y4889D01*
X8093Y4889D01*
X8093Y4889D01*
X8094Y4889D01*
X8094Y4889D01*
X8094Y4889D01*
X8094Y4889D01*
X8094Y4889D01*
X8094Y4889D01*
X8094Y4888D01*
Y4888D01*
X8094Y4888D01*
Y4888D01*
X8094Y4888D01*
Y4888D01*
Y4888D01*
Y4866D01*
Y4866D01*
Y4866D01*
X8094Y4866D01*
Y4866D01*
X8094Y4866D01*
Y4866D01*
X8094Y4865D01*
X8094Y4865D01*
X8094Y4865D01*
X8094Y4865D01*
X8094Y4865D01*
X8094Y4865D01*
X8093Y4865D01*
X8093Y4865D01*
X8093Y4865D01*
X8093Y4865D01*
X8093Y4865D01*
X8093Y4865D01*
X8093Y4864D01*
X8093Y4864D01*
X8093Y4864D01*
X8093Y4864D01*
X8093Y4864D01*
X8093Y4864D01*
X8092D01*
X8092Y4864D01*
X8092D01*
X8092Y4864D01*
X8086D01*
X8086Y4864D01*
X8086D01*
X8086Y4864D01*
X8085D01*
X8085Y4864D01*
X8085Y4864D01*
X8085Y4864D01*
X8085Y4864D01*
X8085Y4864D01*
X8085Y4865D01*
X8085Y4865D01*
X8085Y4865D01*
X8085Y4865D01*
X8085Y4865D01*
X8084Y4865D01*
X8084Y4865D01*
X8084Y4865D01*
X8084Y4865D01*
X8084Y4865D01*
X8084Y4865D01*
X8084Y4865D01*
X8084Y4866D01*
Y4866D01*
X8084Y4866D01*
Y4866D01*
X8084Y4866D01*
Y4866D01*
Y4866D01*
Y4888D01*
Y4888D01*
Y4888D01*
X8084Y4888D01*
Y4888D01*
X8084Y4888D01*
Y4888D01*
X8084Y4889D01*
X8084Y4889D01*
X8084Y4889D01*
X8084Y4889D01*
X8084Y4889D01*
X8084Y4889D01*
X8084Y4889D01*
X8085Y4889D01*
X8085Y4889D01*
X8085Y4889D01*
X8085Y4889D01*
X8085Y4889D01*
X8085Y4889D01*
X8085Y4889D01*
X8085Y4890D01*
X8085Y4890D01*
X8085Y4890D01*
X8085Y4890D01*
X8086D01*
X8086Y4890D01*
X8086D01*
X8086Y4890D01*
X8092D01*
X8092Y4890D01*
D02*
G37*
G36*
X8233D02*
X8233D01*
X8233Y4890D01*
X8233D01*
X8234Y4890D01*
X8234Y4890D01*
X8234Y4890D01*
X8234Y4889D01*
X8234Y4889D01*
X8234Y4889D01*
X8234Y4889D01*
X8234Y4889D01*
X8234Y4889D01*
X8234Y4889D01*
X8234Y4889D01*
X8234Y4889D01*
X8235Y4889D01*
X8235Y4889D01*
X8235Y4889D01*
X8235Y4889D01*
X8235Y4889D01*
X8235Y4888D01*
Y4888D01*
X8235Y4888D01*
Y4888D01*
X8235Y4888D01*
Y4888D01*
Y4888D01*
Y4868D01*
Y4868D01*
Y4868D01*
X8235Y4868D01*
Y4868D01*
X8235Y4868D01*
Y4868D01*
X8235Y4867D01*
X8235Y4867D01*
X8235Y4867D01*
X8235Y4867D01*
X8235Y4867D01*
X8234Y4867D01*
X8234Y4867D01*
X8234Y4867D01*
X8234Y4867D01*
X8234Y4867D01*
X8234Y4867D01*
X8234Y4867D01*
X8234Y4866D01*
X8234Y4866D01*
X8234Y4866D01*
X8234Y4866D01*
X8234Y4866D01*
X8233Y4866D01*
X8233D01*
X8233Y4866D01*
X8233D01*
X8233Y4866D01*
X8227D01*
X8227Y4866D01*
X8227D01*
X8226Y4866D01*
X8226D01*
X8226Y4866D01*
X8226Y4866D01*
X8226Y4866D01*
X8226Y4866D01*
X8226Y4866D01*
X8226Y4867D01*
X8226Y4867D01*
X8226Y4867D01*
X8226Y4867D01*
X8226Y4867D01*
X8225Y4867D01*
X8225Y4867D01*
X8225Y4867D01*
X8225Y4867D01*
X8225Y4867D01*
X8225Y4867D01*
X8225Y4867D01*
X8225Y4868D01*
Y4868D01*
X8225Y4868D01*
Y4868D01*
X8225Y4868D01*
Y4868D01*
Y4868D01*
Y4888D01*
Y4888D01*
Y4888D01*
X8225Y4888D01*
Y4888D01*
X8225Y4888D01*
Y4888D01*
X8225Y4889D01*
X8225Y4889D01*
X8225Y4889D01*
X8225Y4889D01*
X8225Y4889D01*
X8225Y4889D01*
X8225Y4889D01*
X8226Y4889D01*
X8226Y4889D01*
X8226Y4889D01*
X8226Y4889D01*
X8226Y4889D01*
X8226Y4889D01*
X8226Y4889D01*
X8226Y4890D01*
X8226Y4890D01*
X8226Y4890D01*
X8226Y4890D01*
X8226D01*
X8227Y4890D01*
X8227D01*
X8227Y4890D01*
X8233D01*
X8233Y4890D01*
D02*
G37*
G36*
X8112D02*
X8112D01*
X8112Y4890D01*
X8112D01*
X8112Y4890D01*
X8112Y4890D01*
X8113Y4890D01*
X8113Y4889D01*
X8113Y4889D01*
X8113Y4889D01*
X8113Y4889D01*
X8113Y4889D01*
X8113Y4889D01*
X8113Y4889D01*
X8113Y4889D01*
X8113Y4889D01*
X8113Y4889D01*
X8113Y4889D01*
X8113Y4889D01*
X8113Y4889D01*
X8113Y4889D01*
X8114Y4888D01*
Y4888D01*
X8114Y4888D01*
Y4888D01*
X8114Y4888D01*
Y4888D01*
Y4888D01*
Y4868D01*
Y4868D01*
Y4868D01*
X8114Y4868D01*
Y4868D01*
X8114Y4868D01*
Y4868D01*
X8113Y4867D01*
X8113Y4867D01*
X8113Y4867D01*
X8113Y4867D01*
X8113Y4867D01*
X8113Y4867D01*
X8113Y4867D01*
X8113Y4867D01*
X8113Y4867D01*
X8113Y4867D01*
X8113Y4867D01*
X8113Y4867D01*
X8113Y4866D01*
X8113Y4866D01*
X8113Y4866D01*
X8112Y4866D01*
X8112Y4866D01*
X8112Y4866D01*
X8112D01*
X8112Y4866D01*
X8112D01*
X8112Y4866D01*
X8106D01*
X8105Y4866D01*
X8105D01*
X8105Y4866D01*
X8105D01*
X8105Y4866D01*
X8105Y4866D01*
X8105Y4866D01*
X8105Y4866D01*
X8105Y4866D01*
X8105Y4867D01*
X8104Y4867D01*
X8104Y4867D01*
X8104Y4867D01*
X8104Y4867D01*
X8104Y4867D01*
X8104Y4867D01*
X8104Y4867D01*
X8104Y4867D01*
X8104Y4867D01*
X8104Y4867D01*
X8104Y4867D01*
X8104Y4868D01*
Y4868D01*
X8104Y4868D01*
Y4868D01*
X8104Y4868D01*
Y4868D01*
Y4868D01*
Y4888D01*
Y4888D01*
Y4888D01*
X8104Y4888D01*
Y4888D01*
X8104Y4888D01*
Y4888D01*
X8104Y4889D01*
X8104Y4889D01*
X8104Y4889D01*
X8104Y4889D01*
X8104Y4889D01*
X8104Y4889D01*
X8104Y4889D01*
X8104Y4889D01*
X8104Y4889D01*
X8104Y4889D01*
X8104Y4889D01*
X8105Y4889D01*
X8105Y4889D01*
X8105Y4889D01*
X8105Y4890D01*
X8105Y4890D01*
X8105Y4890D01*
X8105Y4890D01*
X8105D01*
X8105Y4890D01*
X8105D01*
X8106Y4890D01*
X8112D01*
X8112Y4890D01*
D02*
G37*
G36*
X8274Y4857D02*
X8274D01*
X8274Y4857D01*
X8274D01*
X8274Y4857D01*
X8274Y4857D01*
X8275Y4857D01*
X8275Y4857D01*
X8275Y4857D01*
X8275Y4857D01*
X8275Y4857D01*
X8275Y4857D01*
X8275Y4857D01*
X8275Y4857D01*
X8275Y4857D01*
X8275Y4856D01*
X8275Y4856D01*
X8275Y4856D01*
X8275Y4856D01*
X8275Y4856D01*
X8275Y4856D01*
X8276Y4856D01*
Y4856D01*
X8276Y4856D01*
Y4856D01*
X8276Y4856D01*
Y4855D01*
Y4855D01*
Y4849D01*
Y4849D01*
Y4849D01*
X8276Y4849D01*
Y4849D01*
X8276Y4849D01*
Y4849D01*
X8275Y4849D01*
X8275Y4849D01*
X8275Y4849D01*
X8275Y4848D01*
X8275Y4848D01*
X8275Y4848D01*
X8275Y4848D01*
X8275Y4848D01*
X8275Y4848D01*
X8275Y4848D01*
X8275Y4848D01*
X8275Y4848D01*
X8275Y4848D01*
X8275Y4848D01*
X8275Y4848D01*
X8274Y4848D01*
X8274Y4848D01*
X8274Y4848D01*
X8274D01*
X8274Y4847D01*
X8274D01*
X8274Y4847D01*
X8254D01*
X8254Y4847D01*
X8254D01*
X8253Y4848D01*
X8253D01*
X8253Y4848D01*
X8253Y4848D01*
X8253Y4848D01*
X8253Y4848D01*
X8253Y4848D01*
X8253Y4848D01*
X8253Y4848D01*
X8253Y4848D01*
X8253Y4848D01*
X8252Y4848D01*
X8252Y4848D01*
X8252Y4848D01*
X8252Y4848D01*
X8252Y4848D01*
X8252Y4849D01*
X8252Y4849D01*
X8252Y4849D01*
X8252Y4849D01*
Y4849D01*
X8252Y4849D01*
Y4849D01*
X8252Y4849D01*
Y4849D01*
Y4849D01*
Y4855D01*
Y4855D01*
Y4856D01*
X8252Y4856D01*
Y4856D01*
X8252Y4856D01*
Y4856D01*
X8252Y4856D01*
X8252Y4856D01*
X8252Y4856D01*
X8252Y4856D01*
X8252Y4856D01*
X8252Y4856D01*
X8252Y4857D01*
X8252Y4857D01*
X8253Y4857D01*
X8253Y4857D01*
X8253Y4857D01*
X8253Y4857D01*
X8253Y4857D01*
X8253Y4857D01*
X8253Y4857D01*
X8253Y4857D01*
X8253Y4857D01*
X8253Y4857D01*
X8253D01*
X8254Y4857D01*
X8254D01*
X8254Y4857D01*
X8274D01*
X8274Y4857D01*
D02*
G37*
G36*
X8085Y4838D02*
X8085D01*
X8085Y4838D01*
X8085D01*
X8085Y4837D01*
X8085Y4837D01*
X8086Y4837D01*
X8086Y4837D01*
X8086Y4837D01*
X8086Y4837D01*
X8086Y4837D01*
X8086Y4837D01*
X8086Y4837D01*
X8086Y4837D01*
X8086Y4837D01*
X8086Y4837D01*
X8086Y4837D01*
X8086Y4837D01*
X8086Y4837D01*
X8086Y4836D01*
X8086Y4836D01*
X8087Y4836D01*
Y4836D01*
X8087Y4836D01*
Y4836D01*
X8087Y4836D01*
Y4836D01*
Y4836D01*
Y4830D01*
Y4830D01*
Y4830D01*
X8087Y4829D01*
Y4829D01*
X8087Y4829D01*
Y4829D01*
X8086Y4829D01*
X8086Y4829D01*
X8086Y4829D01*
X8086Y4829D01*
X8086Y4829D01*
X8086Y4829D01*
X8086Y4829D01*
X8086Y4828D01*
X8086Y4828D01*
X8086Y4828D01*
X8086Y4828D01*
X8086Y4828D01*
X8086Y4828D01*
X8086Y4828D01*
X8086Y4828D01*
X8085Y4828D01*
X8085Y4828D01*
X8085Y4828D01*
X8085D01*
X8085Y4828D01*
X8085D01*
X8085Y4828D01*
X8065D01*
X8065Y4828D01*
X8065D01*
X8064Y4828D01*
X8064D01*
X8064Y4828D01*
X8064Y4828D01*
X8064Y4828D01*
X8064Y4828D01*
X8064Y4828D01*
X8064Y4828D01*
X8064Y4828D01*
X8064Y4828D01*
X8064Y4828D01*
X8064Y4828D01*
X8063Y4829D01*
X8063Y4829D01*
X8063Y4829D01*
X8063Y4829D01*
X8063Y4829D01*
X8063Y4829D01*
X8063Y4829D01*
X8063Y4829D01*
Y4829D01*
X8063Y4829D01*
Y4829D01*
X8063Y4830D01*
Y4830D01*
Y4830D01*
Y4836D01*
Y4836D01*
Y4836D01*
X8063Y4836D01*
Y4836D01*
X8063Y4836D01*
Y4836D01*
X8063Y4836D01*
X8063Y4836D01*
X8063Y4837D01*
X8063Y4837D01*
X8063Y4837D01*
X8063Y4837D01*
X8063Y4837D01*
X8064Y4837D01*
X8064Y4837D01*
X8064Y4837D01*
X8064Y4837D01*
X8064Y4837D01*
X8064Y4837D01*
X8064Y4837D01*
X8064Y4837D01*
X8064Y4837D01*
X8064Y4837D01*
X8064Y4838D01*
X8064D01*
X8065Y4838D01*
X8065D01*
X8065Y4838D01*
X8085D01*
X8085Y4838D01*
D02*
G37*
G36*
X8274Y4818D02*
X8274D01*
X8274Y4818D01*
X8274D01*
X8274Y4818D01*
X8274Y4818D01*
X8275Y4818D01*
X8275Y4818D01*
X8275Y4818D01*
X8275Y4818D01*
X8275Y4817D01*
X8275Y4817D01*
X8275Y4817D01*
X8275Y4817D01*
X8275Y4817D01*
X8275Y4817D01*
X8275Y4817D01*
X8275Y4817D01*
X8275Y4817D01*
X8275Y4817D01*
X8275Y4817D01*
X8276Y4817D01*
Y4816D01*
X8276Y4816D01*
Y4816D01*
X8276Y4816D01*
Y4816D01*
Y4816D01*
Y4810D01*
Y4810D01*
Y4810D01*
X8276Y4810D01*
Y4810D01*
X8276Y4810D01*
Y4809D01*
X8275Y4809D01*
X8275Y4809D01*
X8275Y4809D01*
X8275Y4809D01*
X8275Y4809D01*
X8275Y4809D01*
X8275Y4809D01*
X8275Y4809D01*
X8275Y4809D01*
X8275Y4809D01*
X8275Y4809D01*
X8275Y4808D01*
X8275Y4808D01*
X8275Y4808D01*
X8275Y4808D01*
X8274Y4808D01*
X8274Y4808D01*
X8274Y4808D01*
X8274D01*
X8274Y4808D01*
X8274D01*
X8274Y4808D01*
X8254D01*
X8254Y4808D01*
X8254D01*
X8253Y4808D01*
X8253D01*
X8253Y4808D01*
X8253Y4808D01*
X8253Y4808D01*
X8253Y4808D01*
X8253Y4808D01*
X8253Y4808D01*
X8253Y4809D01*
X8253Y4809D01*
X8253Y4809D01*
X8252Y4809D01*
X8252Y4809D01*
X8252Y4809D01*
X8252Y4809D01*
X8252Y4809D01*
X8252Y4809D01*
X8252Y4809D01*
X8252Y4809D01*
X8252Y4809D01*
Y4810D01*
X8252Y4810D01*
Y4810D01*
X8252Y4810D01*
Y4810D01*
Y4810D01*
Y4816D01*
Y4816D01*
Y4816D01*
X8252Y4816D01*
Y4816D01*
X8252Y4816D01*
Y4817D01*
X8252Y4817D01*
X8252Y4817D01*
X8252Y4817D01*
X8252Y4817D01*
X8252Y4817D01*
X8252Y4817D01*
X8252Y4817D01*
X8252Y4817D01*
X8253Y4817D01*
X8253Y4817D01*
X8253Y4817D01*
X8253Y4818D01*
X8253Y4818D01*
X8253Y4818D01*
X8253Y4818D01*
X8253Y4818D01*
X8253Y4818D01*
X8253Y4818D01*
X8253D01*
X8254Y4818D01*
X8254D01*
X8254Y4818D01*
X8274D01*
X8274Y4818D01*
D02*
G37*
G36*
X8085Y4857D02*
X8085D01*
X8085Y4857D01*
X8085D01*
X8085Y4857D01*
X8085Y4857D01*
X8086Y4857D01*
X8086Y4857D01*
X8086Y4857D01*
X8086Y4857D01*
X8086Y4857D01*
X8086Y4857D01*
X8086Y4857D01*
X8086Y4857D01*
X8086Y4857D01*
X8086Y4856D01*
X8086Y4856D01*
X8086Y4856D01*
X8086Y4856D01*
X8086Y4856D01*
X8086Y4856D01*
X8087Y4856D01*
Y4856D01*
X8087Y4856D01*
Y4856D01*
X8087Y4856D01*
Y4855D01*
Y4855D01*
Y4849D01*
Y4849D01*
Y4849D01*
X8087Y4849D01*
Y4849D01*
X8087Y4849D01*
Y4849D01*
X8086Y4849D01*
X8086Y4849D01*
X8086Y4849D01*
X8086Y4848D01*
X8086Y4848D01*
X8086Y4848D01*
X8086Y4848D01*
X8086Y4848D01*
X8086Y4848D01*
X8086Y4848D01*
X8086Y4848D01*
X8086Y4848D01*
X8086Y4848D01*
X8086Y4848D01*
X8086Y4848D01*
X8085Y4848D01*
X8085Y4848D01*
X8085Y4848D01*
X8085D01*
X8085Y4847D01*
X8085D01*
X8085Y4847D01*
X8065D01*
X8065Y4847D01*
X8065D01*
X8064Y4848D01*
X8064D01*
X8064Y4848D01*
X8064Y4848D01*
X8064Y4848D01*
X8064Y4848D01*
X8064Y4848D01*
X8064Y4848D01*
X8064Y4848D01*
X8064Y4848D01*
X8064Y4848D01*
X8064Y4848D01*
X8063Y4848D01*
X8063Y4848D01*
X8063Y4848D01*
X8063Y4848D01*
X8063Y4849D01*
X8063Y4849D01*
X8063Y4849D01*
X8063Y4849D01*
Y4849D01*
X8063Y4849D01*
Y4849D01*
X8063Y4849D01*
Y4849D01*
Y4849D01*
Y4855D01*
Y4855D01*
Y4856D01*
X8063Y4856D01*
Y4856D01*
X8063Y4856D01*
Y4856D01*
X8063Y4856D01*
X8063Y4856D01*
X8063Y4856D01*
X8063Y4856D01*
X8063Y4856D01*
X8063Y4856D01*
X8063Y4857D01*
X8064Y4857D01*
X8064Y4857D01*
X8064Y4857D01*
X8064Y4857D01*
X8064Y4857D01*
X8064Y4857D01*
X8064Y4857D01*
X8064Y4857D01*
X8064Y4857D01*
X8064Y4857D01*
X8064Y4857D01*
X8064D01*
X8065Y4857D01*
X8065D01*
X8065Y4857D01*
X8085D01*
X8085Y4857D01*
D02*
G37*
G36*
X8274Y4838D02*
X8274D01*
X8274Y4838D01*
X8274D01*
X8274Y4837D01*
X8274Y4837D01*
X8275Y4837D01*
X8275Y4837D01*
X8275Y4837D01*
X8275Y4837D01*
X8275Y4837D01*
X8275Y4837D01*
X8275Y4837D01*
X8275Y4837D01*
X8275Y4837D01*
X8275Y4837D01*
X8275Y4837D01*
X8275Y4837D01*
X8275Y4837D01*
X8275Y4836D01*
X8275Y4836D01*
X8276Y4836D01*
Y4836D01*
X8276Y4836D01*
Y4836D01*
X8276Y4836D01*
Y4836D01*
Y4836D01*
Y4830D01*
Y4830D01*
Y4830D01*
X8276Y4829D01*
Y4829D01*
X8276Y4829D01*
Y4829D01*
X8275Y4829D01*
X8275Y4829D01*
X8275Y4829D01*
X8275Y4829D01*
X8275Y4829D01*
X8275Y4829D01*
X8275Y4829D01*
X8275Y4828D01*
X8275Y4828D01*
X8275Y4828D01*
X8275Y4828D01*
X8275Y4828D01*
X8275Y4828D01*
X8275Y4828D01*
X8275Y4828D01*
X8274Y4828D01*
X8274Y4828D01*
X8274Y4828D01*
X8274D01*
X8274Y4828D01*
X8274D01*
X8274Y4828D01*
X8254D01*
X8254Y4828D01*
X8254D01*
X8253Y4828D01*
X8253D01*
X8253Y4828D01*
X8253Y4828D01*
X8253Y4828D01*
X8253Y4828D01*
X8253Y4828D01*
X8253Y4828D01*
X8253Y4828D01*
X8253Y4828D01*
X8253Y4828D01*
X8252Y4828D01*
X8252Y4829D01*
X8252Y4829D01*
X8252Y4829D01*
X8252Y4829D01*
X8252Y4829D01*
X8252Y4829D01*
X8252Y4829D01*
X8252Y4829D01*
Y4829D01*
X8252Y4829D01*
Y4829D01*
X8252Y4830D01*
Y4830D01*
Y4830D01*
Y4836D01*
Y4836D01*
Y4836D01*
X8252Y4836D01*
Y4836D01*
X8252Y4836D01*
Y4836D01*
X8252Y4836D01*
X8252Y4836D01*
X8252Y4837D01*
X8252Y4837D01*
X8252Y4837D01*
X8252Y4837D01*
X8252Y4837D01*
X8252Y4837D01*
X8253Y4837D01*
X8253Y4837D01*
X8253Y4837D01*
X8253Y4837D01*
X8253Y4837D01*
X8253Y4837D01*
X8253Y4837D01*
X8253Y4837D01*
X8253Y4837D01*
X8253Y4838D01*
X8253D01*
X8254Y4838D01*
X8254D01*
X8254Y4838D01*
X8274D01*
X8274Y4838D01*
D02*
G37*
D10*
X7953Y2864D02*
D03*
X7953Y2785D02*
D03*
X7717Y3996D02*
D03*
X7716Y3917D02*
D03*
X8051Y3642D02*
D03*
X8051Y3563D02*
D03*
X7854Y3110D02*
D03*
X7854Y3189D02*
D03*
X8110Y3327D02*
D03*
X8110Y3248D02*
D03*
X8701Y3170D02*
D03*
X8701Y3090D02*
D03*
X7815Y2864D02*
D03*
X7815Y2785D02*
D03*
X7106Y3583D02*
D03*
X7106Y3504D02*
D03*
X6614Y3700D02*
D03*
X6614Y3780D02*
D03*
X3799Y4715D02*
D03*
X3799Y4636D02*
D03*
X3996Y4715D02*
D03*
X3996Y4636D02*
D03*
X7047Y1910D02*
D03*
X7047Y1830D02*
D03*
X6240Y2146D02*
D03*
X6240Y2067D02*
D03*
X6240Y2224D02*
D03*
X6240Y2303D02*
D03*
X6122Y2461D02*
D03*
X6122Y2382D02*
D03*
X6024Y2461D02*
D03*
X6024Y2382D02*
D03*
X5925Y2461D02*
D03*
X5925Y2382D02*
D03*
X5827Y2382D02*
D03*
X5827Y2461D02*
D03*
X5728Y2461D02*
D03*
X5728Y2382D02*
D03*
X5630Y2461D02*
D03*
X5630Y2382D02*
D03*
X5532Y2461D02*
D03*
X5531Y2382D02*
D03*
X1693Y1988D02*
D03*
X1693Y1909D02*
D03*
X1595Y1988D02*
D03*
X1594Y1909D02*
D03*
D11*
X6614Y4134D02*
D03*
X7736Y2559D02*
D03*
X3947Y4882D02*
D03*
X4420Y4232D02*
D03*
X6565Y3012D02*
D03*
X6624Y4488D02*
D03*
D12*
X8032Y2677D02*
D03*
X7952Y2677D02*
D03*
X8051Y4567D02*
D03*
X8130Y4567D02*
D03*
X3051Y4026D02*
D03*
X3130Y4025D02*
D03*
X8760Y5246D02*
D03*
X8681Y5246D02*
D03*
X8681Y4971D02*
D03*
X8760Y4970D02*
D03*
X8602Y4862D02*
D03*
X8681Y4862D02*
D03*
X8111Y4961D02*
D03*
X8031Y4961D02*
D03*
X8208Y4961D02*
D03*
X8288Y4961D02*
D03*
X8445Y5158D02*
D03*
X8524Y5157D02*
D03*
Y5059D02*
D03*
X8445Y5059D02*
D03*
Y4961D02*
D03*
X8524Y4961D02*
D03*
X8445Y4862D02*
D03*
X8524Y4862D02*
D03*
X8445Y4764D02*
D03*
X8524Y4764D02*
D03*
X8445Y4665D02*
D03*
X8524Y4665D02*
D03*
X8327D02*
D03*
X8248Y4665D02*
D03*
X8051Y4665D02*
D03*
X8130Y4665D02*
D03*
X7933Y4882D02*
D03*
X7854Y4882D02*
D03*
X7933Y4980D02*
D03*
X7854Y4980D02*
D03*
X7933Y4783D02*
D03*
X7854Y4784D02*
D03*
X7933Y4685D02*
D03*
X7854Y4685D02*
D03*
X7854Y5079D02*
D03*
X7933Y5079D02*
D03*
X8405Y3996D02*
D03*
X8485Y3996D02*
D03*
X7599Y3996D02*
D03*
X7519Y3996D02*
D03*
X7953Y3622D02*
D03*
X7874Y3622D02*
D03*
X7874Y3524D02*
D03*
X7953Y3524D02*
D03*
X8326Y3110D02*
D03*
X8406Y3110D02*
D03*
X8406Y3012D02*
D03*
X8326Y3012D02*
D03*
X8406Y2913D02*
D03*
X8326Y2913D02*
D03*
X8406Y2815D02*
D03*
X8326Y2815D02*
D03*
X7815Y2973D02*
D03*
X7894Y2972D02*
D03*
X8701Y2205D02*
D03*
X8622Y2205D02*
D03*
X8622Y2008D02*
D03*
X8701Y2008D02*
D03*
X8701Y2106D02*
D03*
X8622Y2106D02*
D03*
X9292Y1998D02*
D03*
X9212Y1998D02*
D03*
X9212Y1900D02*
D03*
X9292Y1900D02*
D03*
X8957Y1850D02*
D03*
X8878Y1850D02*
D03*
X8622Y1910D02*
D03*
X8701Y1909D02*
D03*
X8701Y1811D02*
D03*
X8622Y1811D02*
D03*
X8701Y1712D02*
D03*
X8622Y1713D02*
D03*
X8544Y2106D02*
D03*
X8464Y2106D02*
D03*
X7323Y2953D02*
D03*
X7244Y2953D02*
D03*
X7303Y3583D02*
D03*
X7224Y3583D02*
D03*
X7224Y3681D02*
D03*
X7303Y3681D02*
D03*
X7224Y3780D02*
D03*
X7303Y3779D02*
D03*
X7146Y3838D02*
D03*
X7067Y3839D02*
D03*
X6979Y3819D02*
D03*
X6899Y3819D02*
D03*
X6496Y3406D02*
D03*
X6575Y3405D02*
D03*
X6496Y3307D02*
D03*
X6575Y3307D02*
D03*
X6457Y4764D02*
D03*
X6378Y4764D02*
D03*
X6457Y4862D02*
D03*
X6378Y4862D02*
D03*
X6378Y4961D02*
D03*
X6457Y4961D02*
D03*
X6634Y4784D02*
D03*
X6713Y4783D02*
D03*
X6614Y5118D02*
D03*
X6693Y5118D02*
D03*
X3780Y5197D02*
D03*
X3700Y5197D02*
D03*
X3780Y5098D02*
D03*
X3700Y5099D02*
D03*
Y5000D02*
D03*
X3780Y5000D02*
D03*
X3268Y5029D02*
D03*
X3189Y5030D02*
D03*
X3534Y4892D02*
D03*
X3454Y4892D02*
D03*
X4193Y4380D02*
D03*
X4114Y4380D02*
D03*
Y4282D02*
D03*
X4193Y4281D02*
D03*
X4420Y4380D02*
D03*
X4340Y4380D02*
D03*
X5246Y4606D02*
D03*
X5325Y4606D02*
D03*
X5788Y4468D02*
D03*
X5708Y4469D02*
D03*
X5788Y4370D02*
D03*
X5708Y4370D02*
D03*
X5788Y4272D02*
D03*
X5708Y4272D02*
D03*
X5788Y4173D02*
D03*
X5708Y4173D02*
D03*
X5788Y4075D02*
D03*
X5708Y4075D02*
D03*
X5788Y3976D02*
D03*
X5708Y3976D02*
D03*
X5531Y4469D02*
D03*
X5611Y4468D02*
D03*
X5531Y4370D02*
D03*
X5611Y4370D02*
D03*
X5531Y4272D02*
D03*
X5611Y4272D02*
D03*
X5531Y4173D02*
D03*
X5611Y4173D02*
D03*
X5531Y4075D02*
D03*
X5611Y4075D02*
D03*
X5276Y3760D02*
D03*
X5197Y3760D02*
D03*
X5551Y3583D02*
D03*
X5630Y3583D02*
D03*
X5551Y3484D02*
D03*
X5630Y3484D02*
D03*
X5551Y3386D02*
D03*
X5630Y3386D02*
D03*
X5551Y3288D02*
D03*
X5630Y3287D02*
D03*
X5551Y3189D02*
D03*
X5630Y3189D02*
D03*
X7618Y2008D02*
D03*
X7539Y2008D02*
D03*
X7539Y1910D02*
D03*
X7618Y1909D02*
D03*
X7618Y1811D02*
D03*
X7539Y1811D02*
D03*
X7402Y2205D02*
D03*
X7323Y2205D02*
D03*
X7461Y1811D02*
D03*
X7382Y1811D02*
D03*
X7284Y1850D02*
D03*
X7204Y1850D02*
D03*
X7048Y1988D02*
D03*
X6968Y1988D02*
D03*
X7048Y2087D02*
D03*
X6968Y2087D02*
D03*
Y2185D02*
D03*
X7048Y2185D02*
D03*
X6890Y2185D02*
D03*
X6811Y2185D02*
D03*
X1762Y1653D02*
D03*
X1683Y1654D02*
D03*
X1762Y1772D02*
D03*
X1683Y1772D02*
D03*
X4774Y3445D02*
D03*
X4695Y3445D02*
D03*
X5531Y3976D02*
D03*
X5611Y3976D02*
D03*
X9075Y2205D02*
D03*
X8996Y2205D02*
D03*
D13*
X7598Y3671D02*
D03*
X8661Y3996D02*
D03*
D14*
X8169Y4823D02*
D03*
D18*
X8210D02*
D03*
X8191D02*
D03*
X8148D02*
D03*
X8128D02*
D03*
D19*
X3153Y4154D02*
D03*
X3048D02*
D03*
X8104Y4360D02*
D03*
X7999D02*
D03*
X8333Y4449D02*
D03*
X8438D02*
D03*
X8333Y4281D02*
D03*
X8438D02*
D03*
X8419Y3248D02*
D03*
X8314D02*
D03*
X3802Y4882D02*
D03*
X3698D02*
D03*
X5348Y4724D02*
D03*
X5243D02*
D03*
D20*
X8683Y5338D02*
D03*
X8720Y5430D02*
D03*
X8683Y5062D02*
D03*
X8720Y5155D02*
D03*
X7283Y2769D02*
D03*
X7321Y2861D02*
D03*
D21*
X8758Y5338D02*
D03*
Y5062D02*
D03*
X7246Y2861D02*
D03*
D22*
X8111Y5118D02*
D03*
X8208D02*
D03*
D23*
X8150Y3945D02*
D03*
Y3811D02*
D03*
X7146Y2630D02*
D03*
Y2764D02*
D03*
D24*
X7953Y4000D02*
D03*
D25*
X8043Y3756D02*
D03*
X7862D02*
D03*
D26*
X7953D02*
D03*
D27*
X7854Y3307D02*
D03*
X7933D02*
D03*
D29*
X8223Y3160D02*
D03*
Y3135D02*
D03*
Y3109D02*
D03*
Y3084D02*
D03*
Y3058D02*
D03*
Y3032D02*
D03*
Y3007D02*
D03*
Y2981D02*
D03*
X7997D02*
D03*
Y3007D02*
D03*
Y3032D02*
D03*
Y3058D02*
D03*
Y3084D02*
D03*
Y3109D02*
D03*
Y3135D02*
D03*
Y3160D02*
D03*
D30*
X8609Y3093D02*
D03*
X8517Y3130D02*
D03*
D31*
X8609Y3167D02*
D03*
D32*
X8110Y2887D02*
D03*
Y2782D02*
D03*
D33*
X8870Y2053D02*
D03*
Y2103D02*
D03*
Y2003D02*
D03*
Y1953D02*
D03*
X9083Y2003D02*
D03*
Y2103D02*
D03*
Y2053D02*
D03*
Y1953D02*
D03*
X6976Y3586D02*
D03*
Y3686D02*
D03*
Y3736D02*
D03*
Y3636D02*
D03*
X6764Y3586D02*
D03*
Y3636D02*
D03*
Y3736D02*
D03*
Y3686D02*
D03*
X7409Y1953D02*
D03*
Y2053D02*
D03*
Y2103D02*
D03*
Y2003D02*
D03*
X7197Y1953D02*
D03*
Y2003D02*
D03*
Y2103D02*
D03*
Y2053D02*
D03*
D34*
X8594Y2382D02*
D03*
X8728D02*
D03*
X8368D02*
D03*
X8502D02*
D03*
X6622Y3602D02*
D03*
X6488D02*
D03*
Y3504D02*
D03*
X6622D02*
D03*
X8502Y2293D02*
D03*
X8368D02*
D03*
X8728D02*
D03*
X8594D02*
D03*
D35*
X6719Y4703D02*
D03*
Y4665D02*
D03*
Y4628D02*
D03*
X6628D02*
D03*
Y4665D02*
D03*
Y4703D02*
D03*
X6719Y5037D02*
D03*
Y5000D02*
D03*
Y4963D02*
D03*
X6628D02*
D03*
Y5000D02*
D03*
Y5037D02*
D03*
D36*
X3579Y5058D02*
D03*
Y5032D02*
D03*
Y5007D02*
D03*
Y4981D02*
D03*
X3409D02*
D03*
Y5007D02*
D03*
Y5032D02*
D03*
Y5058D02*
D03*
D37*
X3995Y4534D02*
D03*
Y4484D02*
D03*
Y4434D02*
D03*
Y4384D02*
D03*
X3800D02*
D03*
Y4434D02*
D03*
Y4484D02*
D03*
Y4534D02*
D03*
D38*
X4878Y4491D02*
D03*
Y4441D02*
D03*
Y4391D02*
D03*
Y4341D02*
D03*
Y4291D02*
D03*
Y4241D02*
D03*
Y4191D02*
D03*
Y4141D02*
D03*
Y4091D02*
D03*
X5241D02*
D03*
Y4141D02*
D03*
Y4191D02*
D03*
Y4241D02*
D03*
Y4291D02*
D03*
Y4341D02*
D03*
Y4391D02*
D03*
Y4441D02*
D03*
Y4491D02*
D03*
X4917Y3645D02*
D03*
Y3595D02*
D03*
Y3545D02*
D03*
Y3495D02*
D03*
Y3445D02*
D03*
Y3395D02*
D03*
Y3345D02*
D03*
Y3295D02*
D03*
Y3245D02*
D03*
X5280D02*
D03*
Y3295D02*
D03*
Y3345D02*
D03*
Y3395D02*
D03*
Y3445D02*
D03*
Y3495D02*
D03*
Y3545D02*
D03*
Y3595D02*
D03*
Y3645D02*
D03*
D39*
X4419Y3518D02*
D03*
Y3785D02*
D03*
X4577D02*
D03*
Y3518D02*
D03*
X4419Y2504D02*
D03*
Y2772D02*
D03*
X4577D02*
D03*
Y2504D02*
D03*
D40*
X3646Y2047D02*
D03*
X3913D02*
D03*
Y1890D02*
D03*
X3646D02*
D03*
X2730Y2047D02*
D03*
X2998D02*
D03*
Y1890D02*
D03*
X2730D02*
D03*
X1835Y2047D02*
D03*
X2102D02*
D03*
Y1890D02*
D03*
X1835D02*
D03*
D41*
X6094Y2226D02*
D03*
D42*
X6128Y1813D02*
D03*
D43*
Y2057D02*
D03*
D44*
Y1671D02*
D03*
D45*
X5884Y2222D02*
D03*
X5841D02*
D03*
X6057D02*
D03*
X5927D02*
D03*
X6014D02*
D03*
X5797D02*
D03*
X5754D02*
D03*
X5970D02*
D03*
D46*
X5679D02*
D03*
D48*
X1683Y4134D02*
X2825D01*
Y5394D01*
X1683D02*
X2825D01*
X1683Y4134D02*
Y5394D01*
X1378Y1575D02*
X9646D01*
Y5512D01*
X1378D02*
X9646D01*
X1378Y1575D02*
Y5512D01*
D49*
X10266Y3080D02*
X10333D01*
X10300D01*
Y2980D01*
X10416Y3080D02*
X10383D01*
X10366Y3063D01*
Y2996D01*
X10383Y2980D01*
X10416D01*
X10433Y2996D01*
Y3063D01*
X10416Y3080D01*
X10466Y2980D02*
Y3080D01*
X10516D01*
X10533Y3063D01*
Y3030D01*
X10516Y3013D01*
X10466D01*
X10666Y2980D02*
Y3080D01*
X10716D01*
X10733Y3063D01*
Y3030D01*
X10716Y3013D01*
X10666D01*
X10766Y2980D02*
Y3080D01*
X10799Y3046D01*
X10833Y3080D01*
Y2980D01*
X10256Y1675D02*
Y1575D01*
X10306D01*
X10323Y1591D01*
Y1608D01*
X10306Y1625D01*
X10256D01*
X10306D01*
X10323Y1641D01*
Y1658D01*
X10306Y1675D01*
X10256D01*
X10406D02*
X10373D01*
X10356Y1658D01*
Y1591D01*
X10373Y1575D01*
X10406D01*
X10423Y1591D01*
Y1658D01*
X10406Y1675D01*
X10456Y1575D02*
Y1641D01*
X10489Y1675D01*
X10523Y1641D01*
Y1575D01*
Y1625D01*
X10456D01*
X10556Y1575D02*
Y1675D01*
X10606D01*
X10623Y1658D01*
Y1625D01*
X10606Y1608D01*
X10556D01*
X10589D02*
X10623Y1575D01*
X10656Y1675D02*
Y1575D01*
X10706D01*
X10723Y1591D01*
Y1658D01*
X10706Y1675D01*
X10656D01*
X10906D02*
X10873D01*
X10856Y1658D01*
Y1591D01*
X10873Y1575D01*
X10906D01*
X10923Y1591D01*
Y1658D01*
X10906Y1675D01*
X10956D02*
Y1591D01*
X10973Y1575D01*
X11006D01*
X11023Y1591D01*
Y1675D01*
X11056D02*
X11123D01*
X11089D01*
Y1575D01*
X11156Y1675D02*
Y1575D01*
X11223D01*
X11256Y1675D02*
X11289D01*
X11273D01*
Y1575D01*
X11256D01*
X11289D01*
X11339D02*
Y1675D01*
X11406Y1575D01*
Y1675D01*
X11506D02*
X11439D01*
Y1575D01*
X11506D01*
X11439Y1625D02*
X11472D01*
M02*
