G04*
G04 #@! TF.GenerationSoftware,Altium Limited,CircuitStudio,1.5.1 (1.5.1.13)*
G04*
G04 Layer_Physical_Order=3*
G04 Layer_Color=56745*
%FSLAX23Y23*%
%MOIN*%
G70*
G01*
G75*
%ADD48C,0.010*%
%ADD49C,0.020*%
%ADD63C,0.060*%
%ADD64C,0.054*%
%ADD71C,0.030*%
G36*
X9626Y1594D02*
X1398D01*
Y5492D01*
X9626D01*
Y1594D01*
D02*
G37*
%LPC*%
G36*
X4690Y3499D02*
X4670D01*
X4671Y3494D01*
X4677Y3486D01*
X4685Y3480D01*
X4690Y3479D01*
Y3499D01*
D02*
G37*
G36*
X8051Y3529D02*
X8041Y3527D01*
X8033Y3522D01*
X8028Y3514D01*
X8026Y3504D01*
X8028Y3494D01*
X8033Y3486D01*
X8041Y3480D01*
X8051Y3478D01*
X8061Y3480D01*
X8069Y3486D01*
X8075Y3494D01*
X8077Y3504D01*
X8075Y3514D01*
X8069Y3522D01*
X8061Y3527D01*
X8051Y3529D01*
D02*
G37*
G36*
X4744Y3559D02*
X4734Y3557D01*
X4726Y3551D01*
X4721Y3543D01*
X4719Y3533D01*
X4721Y3524D01*
X4726Y3515D01*
X4734Y3510D01*
X4744Y3508D01*
X4754Y3510D01*
X4762Y3515D01*
X4768Y3524D01*
X4770Y3533D01*
X4768Y3543D01*
X4762Y3551D01*
X4754Y3557D01*
X4744Y3559D01*
D02*
G37*
G36*
X4719Y3499D02*
X4700D01*
Y3479D01*
X4705Y3480D01*
X4713Y3486D01*
X4718Y3494D01*
X4719Y3499D01*
D02*
G37*
G36*
X6417Y3529D02*
X6408Y3527D01*
X6399Y3522D01*
X6394Y3514D01*
X6392Y3504D01*
X6394Y3494D01*
X6399Y3486D01*
X6408Y3480D01*
X6417Y3478D01*
X6427Y3480D01*
X6435Y3486D01*
X6441Y3494D01*
X6443Y3504D01*
X6441Y3514D01*
X6435Y3522D01*
X6427Y3527D01*
X6417Y3529D01*
D02*
G37*
G36*
X8317Y3372D02*
X8307Y3370D01*
X8299Y3364D01*
X8293Y3356D01*
X8291Y3346D01*
X8293Y3337D01*
X8299Y3328D01*
X8307Y3323D01*
X8317Y3321D01*
X8327Y3323D01*
X8335Y3328D01*
X8340Y3337D01*
X8342Y3346D01*
X8340Y3356D01*
X8335Y3364D01*
X8327Y3370D01*
X8317Y3372D01*
D02*
G37*
G36*
X8012Y3333D02*
X8002Y3331D01*
X7994Y3325D01*
X7988Y3317D01*
X7986Y3307D01*
X7988Y3297D01*
X7994Y3289D01*
X8002Y3284D01*
X8012Y3282D01*
X8022Y3284D01*
X8030Y3289D01*
X8035Y3297D01*
X8037Y3307D01*
X8035Y3317D01*
X8030Y3325D01*
X8022Y3331D01*
X8012Y3333D01*
D02*
G37*
G36*
X7106Y3470D02*
X7097Y3468D01*
X7088Y3463D01*
X7083Y3455D01*
X7081Y3445D01*
X7083Y3435D01*
X7088Y3427D01*
X7097Y3421D01*
X7106Y3419D01*
X7116Y3421D01*
X7124Y3427D01*
X7130Y3435D01*
X7132Y3445D01*
X7130Y3455D01*
X7124Y3463D01*
X7116Y3468D01*
X7106Y3470D01*
D02*
G37*
G36*
X8415Y3372D02*
X8406Y3370D01*
X8397Y3364D01*
X8392Y3356D01*
X8390Y3346D01*
X8392Y3337D01*
X8397Y3328D01*
X8406Y3323D01*
X8415Y3321D01*
X8425Y3323D01*
X8433Y3328D01*
X8439Y3337D01*
X8441Y3346D01*
X8439Y3356D01*
X8433Y3364D01*
X8425Y3370D01*
X8415Y3372D01*
D02*
G37*
G36*
X4690Y3528D02*
X4685Y3527D01*
X4677Y3522D01*
X4671Y3514D01*
X4670Y3509D01*
X4690D01*
Y3528D01*
D02*
G37*
G36*
X6412Y3627D02*
X6408Y3626D01*
X6399Y3620D01*
X6394Y3612D01*
X6393Y3607D01*
X6412D01*
Y3627D01*
D02*
G37*
G36*
X6442Y3597D02*
X6422D01*
Y3578D01*
X6427Y3579D01*
X6435Y3584D01*
X6441Y3593D01*
X6442Y3597D01*
D02*
G37*
G36*
X4646Y3667D02*
X4636Y3665D01*
X4628Y3660D01*
X4622Y3651D01*
X4620Y3642D01*
X4622Y3632D01*
X4628Y3624D01*
X4636Y3618D01*
X4646Y3616D01*
X4655Y3618D01*
X4664Y3624D01*
X4669Y3632D01*
X4671Y3642D01*
X4669Y3651D01*
X4664Y3660D01*
X4655Y3665D01*
X4646Y3667D01*
D02*
G37*
G36*
X6422Y3627D02*
Y3607D01*
X6442D01*
X6441Y3612D01*
X6435Y3620D01*
X6427Y3626D01*
X6422Y3627D01*
D02*
G37*
G36*
X6412Y3597D02*
X6393D01*
X6394Y3593D01*
X6399Y3584D01*
X6408Y3579D01*
X6412Y3578D01*
Y3597D01*
D02*
G37*
G36*
X5689Y3608D02*
X5679Y3606D01*
X5671Y3601D01*
X5665Y3592D01*
X5663Y3583D01*
X5665Y3573D01*
X5671Y3565D01*
X5679Y3559D01*
X5689Y3557D01*
X5699Y3559D01*
X5707Y3565D01*
X5713Y3573D01*
X5714Y3583D01*
X5713Y3592D01*
X5707Y3601D01*
X5699Y3606D01*
X5689Y3608D01*
D02*
G37*
G36*
X4700Y3528D02*
Y3509D01*
X4719D01*
X4718Y3514D01*
X4713Y3522D01*
X4705Y3527D01*
X4700Y3528D01*
D02*
G37*
G36*
X5384Y3623D02*
X5376Y3622D01*
X5369Y3619D01*
X5362Y3614D01*
X5358Y3608D01*
X5355Y3600D01*
X5354Y3593D01*
X5355Y3585D01*
X5358Y3577D01*
X5362Y3571D01*
X5369Y3566D01*
X5376Y3563D01*
X5384Y3562D01*
X5392Y3563D01*
X5399Y3566D01*
X5405Y3571D01*
X5410Y3577D01*
X5413Y3585D01*
X5414Y3593D01*
X5413Y3600D01*
X5410Y3608D01*
X5405Y3614D01*
X5399Y3619D01*
X5392Y3622D01*
X5384Y3623D01*
D02*
G37*
G36*
X6693Y3608D02*
X6683Y3606D01*
X6675Y3601D01*
X6669Y3592D01*
X6667Y3583D01*
X6669Y3573D01*
X6675Y3565D01*
X6683Y3559D01*
X6693Y3557D01*
X6703Y3559D01*
X6711Y3565D01*
X6716Y3573D01*
X6718Y3583D01*
X6716Y3592D01*
X6711Y3601D01*
X6703Y3606D01*
X6693Y3608D01*
D02*
G37*
G36*
X4414Y2908D02*
X4410Y2907D01*
X4401Y2902D01*
X4396Y2894D01*
X4395Y2889D01*
X4414D01*
Y2908D01*
D02*
G37*
G36*
X7047Y2954D02*
X7037Y2952D01*
X7027Y2948D01*
X7019Y2942D01*
X7012Y2934D01*
X7008Y2924D01*
X7007Y2913D01*
X7008Y2903D01*
X7012Y2893D01*
X7019Y2885D01*
X7027Y2878D01*
X7037Y2874D01*
X7047Y2873D01*
X7058Y2874D01*
X7067Y2878D01*
X7076Y2885D01*
X7082Y2893D01*
X7086Y2903D01*
X7088Y2913D01*
X7086Y2924D01*
X7082Y2934D01*
X7076Y2942D01*
X7067Y2948D01*
X7058Y2952D01*
X7047Y2954D01*
D02*
G37*
G36*
X7756Y2998D02*
X7746Y2996D01*
X7738Y2991D01*
X7732Y2982D01*
X7731Y2973D01*
X7732Y2963D01*
X7738Y2955D01*
X7746Y2949D01*
X7756Y2947D01*
X7766Y2949D01*
X7774Y2955D01*
X7780Y2963D01*
X7781Y2973D01*
X7780Y2982D01*
X7774Y2991D01*
X7766Y2996D01*
X7756Y2998D01*
D02*
G37*
G36*
X4424Y2908D02*
Y2889D01*
X4444D01*
X4443Y2894D01*
X4437Y2902D01*
X4429Y2907D01*
X4424Y2908D01*
D02*
G37*
G36*
X6747Y2954D02*
X6737Y2952D01*
X6727Y2948D01*
X6719Y2942D01*
X6712Y2934D01*
X6708Y2924D01*
X6707Y2913D01*
X6708Y2903D01*
X6712Y2893D01*
X6719Y2885D01*
X6727Y2878D01*
X6737Y2874D01*
X6747Y2873D01*
X6758Y2874D01*
X6767Y2878D01*
X6776Y2885D01*
X6782Y2893D01*
X6786Y2903D01*
X6788Y2913D01*
X6786Y2924D01*
X6782Y2934D01*
X6776Y2942D01*
X6767Y2948D01*
X6758Y2952D01*
X6747Y2954D01*
D02*
G37*
G36*
X7746Y2890D02*
X7736Y2888D01*
X7728Y2882D01*
X7723Y2874D01*
X7721Y2864D01*
X7723Y2854D01*
X7728Y2846D01*
X7736Y2841D01*
X7746Y2839D01*
X7756Y2841D01*
X7764Y2846D01*
X7770Y2854D01*
X7772Y2864D01*
X7770Y2874D01*
X7764Y2882D01*
X7756Y2888D01*
X7746Y2890D01*
D02*
G37*
G36*
X8465Y2840D02*
X8455Y2839D01*
X8447Y2833D01*
X8441Y2825D01*
X8439Y2815D01*
X8441Y2805D01*
X8447Y2797D01*
X8455Y2791D01*
X8465Y2789D01*
X8474Y2791D01*
X8483Y2797D01*
X8488Y2805D01*
X8490Y2815D01*
X8488Y2825D01*
X8483Y2833D01*
X8474Y2839D01*
X8465Y2840D01*
D02*
G37*
G36*
X4444Y2879D02*
X4424D01*
Y2859D01*
X4429Y2860D01*
X4437Y2866D01*
X4443Y2874D01*
X4444Y2879D01*
D02*
G37*
G36*
X4414D02*
X4395D01*
X4396Y2874D01*
X4401Y2866D01*
X4410Y2860D01*
X4414Y2859D01*
Y2879D01*
D02*
G37*
G36*
X6747Y3054D02*
X6737Y3052D01*
X6727Y3048D01*
X6719Y3042D01*
X6712Y3034D01*
X6708Y3024D01*
X6707Y3013D01*
X6708Y3003D01*
X6712Y2993D01*
X6719Y2985D01*
X6727Y2978D01*
X6737Y2974D01*
X6747Y2973D01*
X6758Y2974D01*
X6767Y2978D01*
X6776Y2985D01*
X6782Y2993D01*
X6786Y3003D01*
X6788Y3013D01*
X6786Y3024D01*
X6782Y3034D01*
X6776Y3042D01*
X6767Y3048D01*
X6758Y3052D01*
X6747Y3054D01*
D02*
G37*
G36*
X4921Y3224D02*
X4912Y3222D01*
X4903Y3217D01*
X4898Y3209D01*
X4896Y3199D01*
X4898Y3189D01*
X4903Y3181D01*
X4912Y3175D01*
X4921Y3173D01*
X4931Y3175D01*
X4939Y3181D01*
X4945Y3189D01*
X4947Y3199D01*
X4945Y3209D01*
X4939Y3217D01*
X4931Y3222D01*
X4921Y3224D01*
D02*
G37*
G36*
X8465Y3136D02*
X8455Y3134D01*
X8447Y3128D01*
X8441Y3120D01*
X8439Y3110D01*
X8441Y3100D01*
X8447Y3092D01*
X8455Y3087D01*
X8465Y3085D01*
X8474Y3087D01*
X8483Y3092D01*
X8488Y3100D01*
X8490Y3110D01*
X8488Y3120D01*
X8483Y3128D01*
X8474Y3134D01*
X8465Y3136D01*
D02*
G37*
G36*
X8701Y3254D02*
X8691Y3252D01*
X8683Y3246D01*
X8677Y3238D01*
X8675Y3228D01*
X8677Y3219D01*
X8683Y3210D01*
X8691Y3205D01*
X8701Y3203D01*
X8711Y3205D01*
X8719Y3210D01*
X8724Y3219D01*
X8726Y3228D01*
X8724Y3238D01*
X8719Y3246D01*
X8711Y3252D01*
X8701Y3254D01*
D02*
G37*
G36*
X8612D02*
X8602Y3252D01*
X8594Y3246D01*
X8589Y3238D01*
X8587Y3228D01*
X8589Y3219D01*
X8594Y3210D01*
X8602Y3205D01*
X8612Y3203D01*
X8622Y3205D01*
X8630Y3210D01*
X8636Y3219D01*
X8638Y3228D01*
X8636Y3238D01*
X8630Y3246D01*
X8622Y3252D01*
X8612Y3254D01*
D02*
G37*
G36*
X7933Y3077D02*
X7923Y3075D01*
X7915Y3069D01*
X7910Y3061D01*
X7908Y3051D01*
X7910Y3041D01*
X7915Y3033D01*
X7923Y3028D01*
X7933Y3026D01*
X7943Y3028D01*
X7951Y3033D01*
X7957Y3041D01*
X7959Y3051D01*
X7957Y3061D01*
X7951Y3069D01*
X7943Y3075D01*
X7933Y3077D01*
D02*
G37*
G36*
X9114Y3113D02*
X9101Y3112D01*
X9089Y3108D01*
X9078Y3102D01*
X9068Y3094D01*
X9060Y3084D01*
X9054Y3073D01*
X9050Y3061D01*
X9049Y3048D01*
X9050Y3035D01*
X9054Y3023D01*
X9060Y3012D01*
X9068Y3002D01*
X9078Y2994D01*
X9089Y2988D01*
X9101Y2984D01*
X9114Y2983D01*
X9127Y2984D01*
X9139Y2988D01*
X9150Y2994D01*
X9160Y3002D01*
X9168Y3012D01*
X9175Y3023D01*
X9178Y3035D01*
X9179Y3048D01*
X9178Y3061D01*
X9175Y3073D01*
X9168Y3084D01*
X9160Y3094D01*
X9150Y3102D01*
X9139Y3108D01*
X9127Y3112D01*
X9114Y3113D01*
D02*
G37*
G36*
X7047Y3054D02*
X7037Y3052D01*
X7027Y3048D01*
X7019Y3042D01*
X7012Y3034D01*
X7008Y3024D01*
X7007Y3013D01*
X7008Y3003D01*
X7012Y2993D01*
X7019Y2985D01*
X7027Y2978D01*
X7037Y2974D01*
X7047Y2973D01*
X7058Y2974D01*
X7067Y2978D01*
X7076Y2985D01*
X7082Y2993D01*
X7086Y3003D01*
X7088Y3013D01*
X7086Y3024D01*
X7082Y3034D01*
X7076Y3042D01*
X7067Y3048D01*
X7058Y3052D01*
X7047Y3054D01*
D02*
G37*
G36*
X7244Y3037D02*
X7234Y3035D01*
X7226Y3030D01*
X7221Y3022D01*
X7219Y3012D01*
X7221Y3002D01*
X7226Y2994D01*
X7234Y2988D01*
X7244Y2986D01*
X7254Y2988D01*
X7262Y2994D01*
X7268Y3002D01*
X7270Y3012D01*
X7268Y3022D01*
X7262Y3030D01*
X7254Y3035D01*
X7244Y3037D01*
D02*
G37*
G36*
X9314Y3113D02*
X9301Y3112D01*
X9289Y3108D01*
X9278Y3102D01*
X9268Y3094D01*
X9260Y3084D01*
X9254Y3073D01*
X9250Y3061D01*
X9249Y3048D01*
X9250Y3035D01*
X9254Y3023D01*
X9260Y3012D01*
X9268Y3002D01*
X9278Y2994D01*
X9289Y2988D01*
X9301Y2984D01*
X9314Y2983D01*
X9327Y2984D01*
X9339Y2988D01*
X9350Y2994D01*
X9360Y3002D01*
X9368Y3012D01*
X9375Y3023D01*
X9378Y3035D01*
X9379Y3048D01*
X9378Y3061D01*
X9375Y3073D01*
X9368Y3084D01*
X9360Y3094D01*
X9350Y3102D01*
X9339Y3108D01*
X9327Y3112D01*
X9314Y3113D01*
D02*
G37*
G36*
X5384Y3721D02*
X5376Y3720D01*
X5369Y3717D01*
X5362Y3712D01*
X5358Y3706D01*
X5355Y3699D01*
X5354Y3691D01*
X5355Y3683D01*
X5358Y3676D01*
X5362Y3670D01*
X5369Y3665D01*
X5376Y3662D01*
X5384Y3661D01*
X5392Y3662D01*
X5399Y3665D01*
X5405Y3670D01*
X5410Y3676D01*
X5413Y3683D01*
X5414Y3691D01*
X5413Y3699D01*
X5410Y3706D01*
X5405Y3712D01*
X5399Y3717D01*
X5392Y3720D01*
X5384Y3721D01*
D02*
G37*
G36*
X2954Y3958D02*
X2944Y3956D01*
X2934Y3952D01*
X2926Y3946D01*
X2919Y3937D01*
X2915Y3928D01*
X2914Y3917D01*
X2915Y3907D01*
X2919Y3897D01*
X2926Y3889D01*
X2934Y3882D01*
X2944Y3878D01*
X2954Y3877D01*
X2965Y3878D01*
X2975Y3882D01*
X2983Y3889D01*
X2989Y3897D01*
X2993Y3907D01*
X2995Y3917D01*
X2993Y3928D01*
X2989Y3937D01*
X2983Y3946D01*
X2975Y3952D01*
X2965Y3956D01*
X2954Y3958D01*
D02*
G37*
G36*
X2854D02*
X2844Y3956D01*
X2834Y3952D01*
X2826Y3946D01*
X2819Y3937D01*
X2815Y3928D01*
X2814Y3917D01*
X2815Y3907D01*
X2819Y3897D01*
X2826Y3889D01*
X2834Y3882D01*
X2844Y3878D01*
X2854Y3877D01*
X2865Y3878D01*
X2875Y3882D01*
X2883Y3889D01*
X2889Y3897D01*
X2893Y3907D01*
X2895Y3917D01*
X2893Y3928D01*
X2889Y3937D01*
X2883Y3946D01*
X2875Y3952D01*
X2865Y3956D01*
X2854Y3958D01*
D02*
G37*
G36*
X3049Y3912D02*
X3015D01*
X3015Y3907D01*
X3019Y3897D01*
X3026Y3889D01*
X3034Y3882D01*
X3044Y3878D01*
X3049Y3878D01*
Y3912D01*
D02*
G37*
G36*
X3194Y3957D02*
X3114D01*
Y3877D01*
X3194D01*
Y3957D01*
D02*
G37*
G36*
X2754Y3958D02*
X2744Y3956D01*
X2734Y3952D01*
X2726Y3946D01*
X2719Y3937D01*
X2715Y3928D01*
X2714Y3917D01*
X2715Y3907D01*
X2719Y3897D01*
X2726Y3889D01*
X2734Y3882D01*
X2744Y3878D01*
X2754Y3877D01*
X2765Y3878D01*
X2775Y3882D01*
X2783Y3889D01*
X2789Y3897D01*
X2793Y3907D01*
X2795Y3917D01*
X2793Y3928D01*
X2789Y3937D01*
X2783Y3946D01*
X2775Y3952D01*
X2765Y3956D01*
X2754Y3958D01*
D02*
G37*
G36*
X4444Y3893D02*
X4424D01*
Y3873D01*
X4429Y3874D01*
X4437Y3880D01*
X4443Y3888D01*
X4444Y3893D01*
D02*
G37*
G36*
X4414D02*
X4395D01*
X4396Y3888D01*
X4401Y3880D01*
X4410Y3874D01*
X4414Y3873D01*
Y3893D01*
D02*
G37*
G36*
X2654Y3958D02*
X2644Y3956D01*
X2634Y3952D01*
X2626Y3946D01*
X2619Y3937D01*
X2615Y3928D01*
X2614Y3917D01*
X2615Y3907D01*
X2619Y3897D01*
X2626Y3889D01*
X2634Y3882D01*
X2644Y3878D01*
X2654Y3877D01*
X2665Y3878D01*
X2675Y3882D01*
X2683Y3889D01*
X2689Y3897D01*
X2693Y3907D01*
X2695Y3917D01*
X2693Y3928D01*
X2689Y3937D01*
X2683Y3946D01*
X2675Y3952D01*
X2665Y3956D01*
X2654Y3958D01*
D02*
G37*
G36*
X2554D02*
X2544Y3956D01*
X2534Y3952D01*
X2526Y3946D01*
X2519Y3937D01*
X2515Y3928D01*
X2514Y3917D01*
X2515Y3907D01*
X2519Y3897D01*
X2526Y3889D01*
X2534Y3882D01*
X2544Y3878D01*
X2554Y3877D01*
X2565Y3878D01*
X2575Y3882D01*
X2583Y3889D01*
X2589Y3897D01*
X2593Y3907D01*
X2595Y3917D01*
X2593Y3928D01*
X2589Y3937D01*
X2583Y3946D01*
X2575Y3952D01*
X2565Y3956D01*
X2554Y3958D01*
D02*
G37*
G36*
X3094Y3912D02*
X3059D01*
Y3878D01*
X3065Y3878D01*
X3075Y3882D01*
X3083Y3889D01*
X3089Y3897D01*
X3093Y3907D01*
X3094Y3912D01*
D02*
G37*
G36*
X8268Y4000D02*
X8257Y3999D01*
X8247Y3995D01*
X8238Y3988D01*
X8231Y3979D01*
X8227Y3969D01*
X8226Y3958D01*
X8227Y3947D01*
X8231Y3937D01*
X8238Y3929D01*
X8247Y3922D01*
X8257Y3918D01*
X8268Y3916D01*
X8279Y3918D01*
X8289Y3922D01*
X8297Y3929D01*
X8304Y3937D01*
X8308Y3947D01*
X8310Y3958D01*
X8308Y3969D01*
X8304Y3979D01*
X8297Y3988D01*
X8289Y3995D01*
X8279Y3999D01*
X8268Y4000D01*
D02*
G37*
G36*
X4424Y3922D02*
Y3903D01*
X4444D01*
X4443Y3907D01*
X4437Y3916D01*
X4429Y3921D01*
X4424Y3922D01*
D02*
G37*
G36*
X3059Y3957D02*
Y3922D01*
X3094D01*
X3093Y3928D01*
X3089Y3937D01*
X3083Y3946D01*
X3075Y3952D01*
X3065Y3956D01*
X3059Y3957D01*
D02*
G37*
G36*
X3049D02*
X3044Y3956D01*
X3034Y3952D01*
X3026Y3946D01*
X3019Y3937D01*
X3015Y3928D01*
X3015Y3922D01*
X3049D01*
Y3957D01*
D02*
G37*
G36*
X4414Y3922D02*
X4410Y3921D01*
X4401Y3916D01*
X4396Y3907D01*
X4395Y3903D01*
X4414D01*
Y3922D01*
D02*
G37*
G36*
X6974Y3902D02*
X6969Y3902D01*
X6961Y3896D01*
X6955Y3888D01*
X6954Y3883D01*
X6974D01*
Y3902D01*
D02*
G37*
G36*
X5787Y3933D02*
X5778Y3931D01*
X5769Y3926D01*
X5764Y3917D01*
X5762Y3907D01*
X5764Y3898D01*
X5769Y3889D01*
X5778Y3884D01*
X5787Y3882D01*
X5797Y3884D01*
X5805Y3889D01*
X5811Y3898D01*
X5813Y3907D01*
X5811Y3917D01*
X5805Y3926D01*
X5797Y3931D01*
X5787Y3933D01*
D02*
G37*
G36*
X7067Y3943D02*
X7057Y3941D01*
X7049Y3935D01*
X7043Y3927D01*
X7041Y3917D01*
X7043Y3908D01*
X7049Y3899D01*
X7057Y3894D01*
X7067Y3892D01*
X7077Y3894D01*
X7085Y3899D01*
X7090Y3908D01*
X7092Y3917D01*
X7090Y3927D01*
X7085Y3935D01*
X7077Y3941D01*
X7067Y3943D01*
D02*
G37*
G36*
X6984Y3902D02*
Y3883D01*
X7003D01*
X7002Y3888D01*
X6997Y3896D01*
X6988Y3902D01*
X6984Y3902D01*
D02*
G37*
G36*
X8386Y3900D02*
X8375Y3899D01*
X8365Y3895D01*
X8356Y3888D01*
X8350Y3879D01*
X8345Y3869D01*
X8344Y3858D01*
X8345Y3847D01*
X8350Y3837D01*
X8356Y3829D01*
X8365Y3822D01*
X8375Y3818D01*
X8386Y3816D01*
X8397Y3818D01*
X8407Y3822D01*
X8415Y3829D01*
X8422Y3837D01*
X8426Y3847D01*
X8428Y3858D01*
X8426Y3869D01*
X8422Y3879D01*
X8415Y3888D01*
X8407Y3895D01*
X8397Y3899D01*
X8386Y3900D01*
D02*
G37*
G36*
X5300Y3814D02*
X5281D01*
Y3794D01*
X5285Y3795D01*
X5294Y3801D01*
X5299Y3809D01*
X5300Y3814D01*
D02*
G37*
G36*
X8527Y3900D02*
X8444D01*
Y3817D01*
X8527D01*
Y3900D01*
D02*
G37*
G36*
X8309Y3900D02*
X8226D01*
Y3817D01*
X8309D01*
Y3900D01*
D02*
G37*
G36*
X5271Y3814D02*
X5251D01*
X5252Y3809D01*
X5258Y3801D01*
X5266Y3795D01*
X5271Y3794D01*
Y3814D01*
D02*
G37*
G36*
X6496Y3810D02*
X6488Y3809D01*
X6481Y3806D01*
X6475Y3801D01*
X6470Y3795D01*
X6467Y3787D01*
X6466Y3780D01*
X6467Y3772D01*
X6470Y3764D01*
X6475Y3758D01*
X6481Y3753D01*
X6488Y3750D01*
X6496Y3749D01*
X6504Y3750D01*
X6511Y3753D01*
X6517Y3758D01*
X6522Y3764D01*
X6525Y3772D01*
X6526Y3780D01*
X6525Y3787D01*
X6522Y3795D01*
X6517Y3801D01*
X6511Y3806D01*
X6504Y3809D01*
X6496Y3810D01*
D02*
G37*
G36*
X4921Y3766D02*
X4912Y3764D01*
X4903Y3758D01*
X4898Y3750D01*
X4896Y3740D01*
X4898Y3730D01*
X4903Y3722D01*
X4912Y3717D01*
X4921Y3715D01*
X4931Y3717D01*
X4939Y3722D01*
X4945Y3730D01*
X4947Y3740D01*
X4945Y3750D01*
X4939Y3758D01*
X4931Y3764D01*
X4921Y3766D01*
D02*
G37*
G36*
X5197Y3844D02*
X5187Y3842D01*
X5179Y3837D01*
X5173Y3829D01*
X5171Y3819D01*
X5173Y3809D01*
X5179Y3801D01*
X5187Y3795D01*
X5197Y3793D01*
X5207Y3795D01*
X5215Y3801D01*
X5220Y3809D01*
X5222Y3819D01*
X5220Y3829D01*
X5215Y3837D01*
X5207Y3842D01*
X5197Y3844D01*
D02*
G37*
G36*
X5384Y3820D02*
X5376Y3819D01*
X5369Y3816D01*
X5362Y3811D01*
X5358Y3804D01*
X5355Y3797D01*
X5354Y3789D01*
X5355Y3782D01*
X5358Y3774D01*
X5362Y3768D01*
X5369Y3763D01*
X5376Y3760D01*
X5384Y3759D01*
X5392Y3760D01*
X5399Y3763D01*
X5405Y3768D01*
X5410Y3774D01*
X5413Y3782D01*
X5414Y3789D01*
X5413Y3797D01*
X5410Y3804D01*
X5405Y3811D01*
X5399Y3816D01*
X5392Y3819D01*
X5384Y3820D01*
D02*
G37*
G36*
X1529Y3963D02*
X1516Y3961D01*
X1502Y3957D01*
X1490Y3951D01*
X1480Y3942D01*
X1471Y3931D01*
X1464Y3919D01*
X1460Y3906D01*
X1459Y3892D01*
X1460Y3879D01*
X1464Y3865D01*
X1471Y3853D01*
X1480Y3843D01*
X1490Y3834D01*
X1502Y3827D01*
X1516Y3823D01*
X1529Y3822D01*
X1543Y3823D01*
X1556Y3827D01*
X1568Y3834D01*
X1579Y3843D01*
X1588Y3853D01*
X1594Y3865D01*
X1598Y3879D01*
X1600Y3892D01*
X1598Y3906D01*
X1594Y3919D01*
X1588Y3931D01*
X1579Y3942D01*
X1568Y3951D01*
X1556Y3957D01*
X1543Y3961D01*
X1529Y3963D01*
D02*
G37*
G36*
X6900Y3903D02*
X6890Y3902D01*
X6882Y3896D01*
X6876Y3888D01*
X6874Y3878D01*
X6876Y3868D01*
X6882Y3860D01*
X6890Y3854D01*
X6900Y3852D01*
X6909Y3854D01*
X6918Y3860D01*
X6923Y3868D01*
X6925Y3878D01*
X6923Y3888D01*
X6918Y3896D01*
X6909Y3902D01*
X6900Y3903D01*
D02*
G37*
G36*
X7540Y3919D02*
X7457D01*
Y3836D01*
X7540D01*
Y3919D01*
D02*
G37*
G36*
X7003Y3873D02*
X6984D01*
Y3853D01*
X6988Y3854D01*
X6997Y3860D01*
X7002Y3868D01*
X7003Y3873D01*
D02*
G37*
G36*
X6974D02*
X6954D01*
X6955Y3868D01*
X6961Y3860D01*
X6969Y3854D01*
X6974Y3853D01*
Y3873D01*
D02*
G37*
G36*
X7598Y3920D02*
X7588Y3918D01*
X7577Y3914D01*
X7569Y3908D01*
X7562Y3899D01*
X7558Y3889D01*
X7557Y3878D01*
X7558Y3867D01*
X7562Y3857D01*
X7569Y3848D01*
X7577Y3842D01*
X7588Y3838D01*
X7598Y3836D01*
X7609Y3838D01*
X7619Y3842D01*
X7628Y3848D01*
X7635Y3857D01*
X7639Y3867D01*
X7640Y3878D01*
X7639Y3889D01*
X7635Y3899D01*
X7628Y3908D01*
X7619Y3914D01*
X7609Y3918D01*
X7598Y3920D01*
D02*
G37*
G36*
X5271Y3843D02*
X5266Y3842D01*
X5258Y3837D01*
X5252Y3829D01*
X5251Y3824D01*
X5271D01*
Y3843D01*
D02*
G37*
G36*
X4171Y3963D02*
X4157Y3961D01*
X4144Y3957D01*
X4132Y3951D01*
X4121Y3942D01*
X4112Y3931D01*
X4106Y3919D01*
X4102Y3906D01*
X4100Y3892D01*
X4102Y3879D01*
X4106Y3865D01*
X4112Y3853D01*
X4121Y3843D01*
X4132Y3834D01*
X4144Y3827D01*
X4157Y3823D01*
X4171Y3822D01*
X4184Y3823D01*
X4198Y3827D01*
X4210Y3834D01*
X4220Y3843D01*
X4229Y3853D01*
X4236Y3865D01*
X4240Y3879D01*
X4241Y3892D01*
X4240Y3906D01*
X4236Y3919D01*
X4229Y3931D01*
X4220Y3942D01*
X4210Y3951D01*
X4198Y3957D01*
X4184Y3961D01*
X4171Y3963D01*
D02*
G37*
G36*
X7717Y3884D02*
X7707Y3882D01*
X7699Y3876D01*
X7693Y3868D01*
X7691Y3858D01*
X7693Y3849D01*
X7699Y3840D01*
X7707Y3835D01*
X7717Y3833D01*
X7726Y3835D01*
X7735Y3840D01*
X7740Y3849D01*
X7742Y3858D01*
X7740Y3868D01*
X7735Y3876D01*
X7726Y3882D01*
X7717Y3884D01*
D02*
G37*
G36*
X5281Y3843D02*
Y3824D01*
X5300D01*
X5299Y3829D01*
X5294Y3837D01*
X5285Y3842D01*
X5281Y3843D01*
D02*
G37*
G36*
X8110Y2742D02*
X8100Y2740D01*
X8092Y2735D01*
X8087Y2726D01*
X8085Y2717D01*
X8087Y2707D01*
X8092Y2699D01*
X8100Y2693D01*
X8110Y2691D01*
X8120Y2693D01*
X8128Y2699D01*
X8134Y2707D01*
X8136Y2717D01*
X8134Y2726D01*
X8128Y2735D01*
X8120Y2740D01*
X8110Y2742D01*
D02*
G37*
G36*
X6731Y2117D02*
X6655D01*
Y2041D01*
X6731D01*
Y2117D01*
D02*
G37*
G36*
X3568Y2042D02*
X3548D01*
Y2023D01*
X3553Y2024D01*
X3561Y2029D01*
X3567Y2037D01*
X3568Y2042D01*
D02*
G37*
G36*
X6890Y2102D02*
X6880Y2100D01*
X6872Y2095D01*
X6866Y2087D01*
X6864Y2077D01*
X6866Y2067D01*
X6872Y2059D01*
X6880Y2053D01*
X6890Y2051D01*
X6900Y2053D01*
X6908Y2059D01*
X6913Y2067D01*
X6915Y2077D01*
X6913Y2087D01*
X6908Y2095D01*
X6900Y2100D01*
X6890Y2102D01*
D02*
G37*
G36*
X6299Y2092D02*
X6289Y2090D01*
X6281Y2085D01*
X6276Y2077D01*
X6274Y2067D01*
X6276Y2057D01*
X6281Y2049D01*
X6289Y2043D01*
X6299Y2041D01*
X6309Y2043D01*
X6317Y2049D01*
X6323Y2057D01*
X6325Y2067D01*
X6323Y2077D01*
X6317Y2085D01*
X6309Y2090D01*
X6299Y2092D01*
D02*
G37*
G36*
X3538Y2042D02*
X3519D01*
X3520Y2037D01*
X3525Y2029D01*
X3534Y2024D01*
X3538Y2023D01*
Y2042D01*
D02*
G37*
G36*
X1757D02*
X1737D01*
Y2023D01*
X1742Y2024D01*
X1750Y2029D01*
X1756Y2037D01*
X1757Y2042D01*
D02*
G37*
G36*
X1727D02*
X1708D01*
X1709Y2037D01*
X1714Y2029D01*
X1723Y2024D01*
X1727Y2023D01*
Y2042D01*
D02*
G37*
G36*
X2643D02*
X2623D01*
Y2023D01*
X2628Y2024D01*
X2636Y2029D01*
X2642Y2037D01*
X2643Y2042D01*
D02*
G37*
G36*
X2613D02*
X2594D01*
X2595Y2037D01*
X2600Y2029D01*
X2608Y2024D01*
X2613Y2023D01*
Y2042D01*
D02*
G37*
G36*
X7618Y2102D02*
X7608Y2100D01*
X7600Y2095D01*
X7595Y2087D01*
X7593Y2077D01*
X7595Y2067D01*
X7600Y2059D01*
X7608Y2053D01*
X7618Y2051D01*
X7628Y2053D01*
X7636Y2059D01*
X7642Y2067D01*
X7644Y2077D01*
X7642Y2087D01*
X7636Y2095D01*
X7628Y2100D01*
X7618Y2102D01*
D02*
G37*
G36*
X7913Y2236D02*
X7900Y2234D01*
X7886Y2230D01*
X7874Y2224D01*
X7864Y2215D01*
X7855Y2204D01*
X7848Y2192D01*
X7844Y2179D01*
X7843Y2165D01*
X7844Y2152D01*
X7848Y2138D01*
X7855Y2126D01*
X7864Y2116D01*
X7874Y2107D01*
X7886Y2100D01*
X7900Y2096D01*
X7913Y2095D01*
X7927Y2096D01*
X7940Y2100D01*
X7952Y2107D01*
X7963Y2116D01*
X7972Y2126D01*
X7978Y2138D01*
X7982Y2152D01*
X7984Y2165D01*
X7982Y2179D01*
X7978Y2192D01*
X7972Y2204D01*
X7963Y2215D01*
X7952Y2224D01*
X7940Y2230D01*
X7927Y2234D01*
X7913Y2236D01*
D02*
G37*
G36*
X3548Y2072D02*
Y2052D01*
X3568D01*
X3567Y2057D01*
X3561Y2065D01*
X3553Y2071D01*
X3548Y2072D01*
D02*
G37*
G36*
X5974Y2191D02*
X5965Y2189D01*
X5956Y2183D01*
X5951Y2175D01*
X5949Y2165D01*
X5951Y2156D01*
X5956Y2147D01*
X5965Y2142D01*
X5974Y2140D01*
X5984Y2142D01*
X5992Y2147D01*
X5998Y2156D01*
X6000Y2165D01*
X5998Y2175D01*
X5992Y2183D01*
X5984Y2189D01*
X5974Y2191D01*
D02*
G37*
G36*
X5679D02*
X5669Y2189D01*
X5661Y2183D01*
X5656Y2175D01*
X5654Y2165D01*
X5656Y2156D01*
X5661Y2147D01*
X5669Y2142D01*
X5679Y2140D01*
X5689Y2142D01*
X5697Y2147D01*
X5703Y2156D01*
X5705Y2165D01*
X5703Y2175D01*
X5697Y2183D01*
X5689Y2189D01*
X5679Y2191D01*
D02*
G37*
G36*
X3538Y2072D02*
X3534Y2071D01*
X3525Y2065D01*
X3520Y2057D01*
X3519Y2052D01*
X3538D01*
Y2072D01*
D02*
G37*
G36*
X1737D02*
Y2052D01*
X1757D01*
X1756Y2057D01*
X1750Y2065D01*
X1742Y2071D01*
X1737Y2072D01*
D02*
G37*
G36*
X1727D02*
X1723Y2071D01*
X1714Y2065D01*
X1709Y2057D01*
X1708Y2052D01*
X1727D01*
Y2072D01*
D02*
G37*
G36*
X2623D02*
Y2052D01*
X2643D01*
X2642Y2057D01*
X2636Y2065D01*
X2628Y2071D01*
X2623Y2072D01*
D02*
G37*
G36*
X2613D02*
X2608Y2071D01*
X2600Y2065D01*
X2595Y2057D01*
X2594Y2052D01*
X2613D01*
Y2072D01*
D02*
G37*
G36*
X8563Y1738D02*
X8553Y1736D01*
X8545Y1731D01*
X8539Y1722D01*
X8538Y1713D01*
X8539Y1703D01*
X8545Y1695D01*
X8553Y1689D01*
X8563Y1687D01*
X8573Y1689D01*
X8581Y1695D01*
X8587Y1703D01*
X8588Y1713D01*
X8587Y1722D01*
X8581Y1731D01*
X8573Y1736D01*
X8563Y1738D01*
D02*
G37*
G36*
X1762D02*
X1752Y1736D01*
X1744Y1731D01*
X1738Y1722D01*
X1736Y1713D01*
X1738Y1703D01*
X1744Y1695D01*
X1752Y1689D01*
X1762Y1687D01*
X1772Y1689D01*
X1780Y1695D01*
X1785Y1703D01*
X1787Y1713D01*
X1785Y1722D01*
X1780Y1731D01*
X1772Y1736D01*
X1762Y1738D01*
D02*
G37*
G36*
X6843Y1835D02*
X6830Y1834D01*
X6818Y1830D01*
X6807Y1824D01*
X6798Y1817D01*
X6790Y1807D01*
X6784Y1796D01*
X6780Y1784D01*
X6779Y1772D01*
X6780Y1759D01*
X6784Y1747D01*
X6790Y1736D01*
X6798Y1727D01*
X6807Y1719D01*
X6818Y1713D01*
X6830Y1709D01*
X6843Y1708D01*
X6855Y1709D01*
X6867Y1713D01*
X6878Y1719D01*
X6887Y1727D01*
X6895Y1736D01*
X6901Y1747D01*
X6905Y1759D01*
X6906Y1772D01*
X6905Y1784D01*
X6901Y1796D01*
X6895Y1807D01*
X6887Y1817D01*
X6878Y1824D01*
X6867Y1830D01*
X6855Y1834D01*
X6843Y1835D01*
D02*
G37*
G36*
X6543D02*
X6531Y1834D01*
X6519Y1830D01*
X6508Y1824D01*
X6498Y1817D01*
X6491Y1807D01*
X6485Y1796D01*
X6481Y1784D01*
X6480Y1772D01*
X6481Y1759D01*
X6485Y1747D01*
X6491Y1736D01*
X6498Y1727D01*
X6508Y1719D01*
X6519Y1713D01*
X6531Y1709D01*
X6543Y1708D01*
X6556Y1709D01*
X6568Y1713D01*
X6579Y1719D01*
X6588Y1727D01*
X6596Y1736D01*
X6602Y1747D01*
X6606Y1759D01*
X6607Y1772D01*
X6606Y1784D01*
X6602Y1796D01*
X6596Y1807D01*
X6588Y1817D01*
X6579Y1824D01*
X6568Y1830D01*
X6556Y1834D01*
X6543Y1835D01*
D02*
G37*
G36*
X7913Y1803D02*
X7900Y1801D01*
X7886Y1797D01*
X7874Y1791D01*
X7864Y1782D01*
X7855Y1771D01*
X7848Y1759D01*
X7844Y1746D01*
X7843Y1732D01*
X7844Y1719D01*
X7848Y1705D01*
X7855Y1693D01*
X7864Y1683D01*
X7874Y1674D01*
X7886Y1667D01*
X7900Y1663D01*
X7913Y1662D01*
X7927Y1663D01*
X7940Y1667D01*
X7952Y1674D01*
X7963Y1683D01*
X7972Y1693D01*
X7978Y1705D01*
X7982Y1719D01*
X7984Y1732D01*
X7982Y1746D01*
X7978Y1759D01*
X7972Y1771D01*
X7963Y1782D01*
X7952Y1791D01*
X7940Y1797D01*
X7927Y1801D01*
X7913Y1803D01*
D02*
G37*
G36*
X1516Y1802D02*
X1498Y1800D01*
X1482Y1795D01*
X1466Y1787D01*
X1453Y1776D01*
X1442Y1762D01*
X1433Y1747D01*
X1428Y1730D01*
X1427Y1713D01*
X1428Y1695D01*
X1433Y1678D01*
X1442Y1663D01*
X1453Y1650D01*
X1466Y1638D01*
X1482Y1630D01*
X1498Y1625D01*
X1516Y1623D01*
X1533Y1625D01*
X1550Y1630D01*
X1565Y1638D01*
X1579Y1650D01*
X1590Y1663D01*
X1598Y1678D01*
X1603Y1695D01*
X1605Y1713D01*
X1603Y1730D01*
X1598Y1747D01*
X1590Y1762D01*
X1579Y1776D01*
X1565Y1787D01*
X1550Y1795D01*
X1533Y1800D01*
X1516Y1802D01*
D02*
G37*
G36*
X5541Y1659D02*
X5532Y1657D01*
X5523Y1652D01*
X5518Y1644D01*
X5516Y1634D01*
X5518Y1624D01*
X5523Y1616D01*
X5532Y1610D01*
X5541Y1608D01*
X5551Y1610D01*
X5559Y1616D01*
X5565Y1624D01*
X5567Y1634D01*
X5565Y1644D01*
X5559Y1652D01*
X5551Y1657D01*
X5541Y1659D01*
D02*
G37*
G36*
X6201Y1699D02*
X6191Y1697D01*
X6183Y1691D01*
X6177Y1683D01*
X6175Y1673D01*
X6177Y1663D01*
X6183Y1655D01*
X6191Y1650D01*
X6201Y1648D01*
X6211Y1650D01*
X6219Y1655D01*
X6224Y1663D01*
X6226Y1673D01*
X6224Y1683D01*
X6219Y1691D01*
X6211Y1697D01*
X6201Y1699D01*
D02*
G37*
G36*
X9508Y1802D02*
X9490Y1800D01*
X9474Y1795D01*
X9458Y1787D01*
X9445Y1776D01*
X9434Y1762D01*
X9425Y1747D01*
X9420Y1730D01*
X9419Y1713D01*
X9420Y1695D01*
X9425Y1678D01*
X9434Y1663D01*
X9445Y1650D01*
X9458Y1638D01*
X9474Y1630D01*
X9490Y1625D01*
X9508Y1623D01*
X9525Y1625D01*
X9542Y1630D01*
X9557Y1638D01*
X9571Y1650D01*
X9582Y1663D01*
X9590Y1678D01*
X9595Y1695D01*
X9597Y1713D01*
X9595Y1730D01*
X9590Y1747D01*
X9582Y1762D01*
X9571Y1776D01*
X9557Y1787D01*
X9542Y1795D01*
X9525Y1800D01*
X9508Y1802D01*
D02*
G37*
G36*
X8351Y2186D02*
X8341D01*
X8331Y2185D01*
X8321Y2181D01*
X8313Y2174D01*
X8307Y2166D01*
X8302Y2156D01*
X8301Y2146D01*
X8302Y2135D01*
X8307Y2125D01*
X8313Y2117D01*
X8321Y2111D01*
X8325Y2109D01*
Y2104D01*
X8321Y2102D01*
X8313Y2095D01*
X8307Y2087D01*
X8302Y2077D01*
X8301Y2067D01*
X8302Y2056D01*
X8307Y2047D01*
X8313Y2038D01*
X8321Y2032D01*
X8325Y2030D01*
Y2025D01*
X8321Y2023D01*
X8313Y2017D01*
X8307Y2008D01*
X8302Y1999D01*
X8301Y1988D01*
X8302Y1978D01*
X8307Y1968D01*
X8313Y1960D01*
X8321Y1953D01*
X8325Y1952D01*
Y1946D01*
X8321Y1944D01*
X8313Y1938D01*
X8307Y1930D01*
X8302Y1920D01*
X8301Y1909D01*
X8302Y1899D01*
X8307Y1889D01*
X8313Y1881D01*
X8321Y1875D01*
X8325Y1873D01*
Y1867D01*
X8321Y1866D01*
X8313Y1859D01*
X8307Y1851D01*
X8302Y1841D01*
X8301Y1831D01*
X8302Y1820D01*
X8307Y1811D01*
X8313Y1802D01*
X8321Y1796D01*
X8325Y1794D01*
Y1789D01*
X8321Y1787D01*
X8313Y1780D01*
X8307Y1772D01*
X8302Y1762D01*
X8301Y1752D01*
X8302Y1742D01*
X8307Y1732D01*
X8313Y1723D01*
X8321Y1717D01*
X8331Y1713D01*
X8341Y1712D01*
X8351D01*
X8362Y1713D01*
X8372Y1717D01*
X8380Y1723D01*
X8386Y1732D01*
X8390Y1742D01*
X8392Y1752D01*
X8390Y1762D01*
X8386Y1772D01*
X8380Y1780D01*
X8372Y1787D01*
X8367Y1789D01*
Y1794D01*
X8372Y1796D01*
X8380Y1802D01*
X8386Y1811D01*
X8390Y1820D01*
X8392Y1831D01*
X8390Y1841D01*
X8386Y1851D01*
X8380Y1859D01*
X8372Y1866D01*
X8367Y1867D01*
Y1873D01*
X8372Y1875D01*
X8380Y1881D01*
X8386Y1889D01*
X8390Y1899D01*
X8392Y1909D01*
X8390Y1920D01*
X8386Y1930D01*
X8380Y1938D01*
X8372Y1944D01*
X8367Y1946D01*
Y1952D01*
X8372Y1953D01*
X8380Y1960D01*
X8386Y1968D01*
X8390Y1978D01*
X8392Y1988D01*
X8390Y1999D01*
X8386Y2008D01*
X8380Y2017D01*
X8372Y2023D01*
X8367Y2025D01*
Y2030D01*
X8372Y2032D01*
X8380Y2038D01*
X8386Y2047D01*
X8390Y2056D01*
X8392Y2067D01*
X8390Y2077D01*
X8386Y2087D01*
X8380Y2095D01*
X8372Y2102D01*
X8367Y2104D01*
Y2109D01*
X8372Y2111D01*
X8380Y2117D01*
X8386Y2125D01*
X8390Y2135D01*
X8392Y2146D01*
X8390Y2156D01*
X8386Y2166D01*
X8380Y2174D01*
X8372Y2181D01*
X8362Y2185D01*
X8351Y2186D01*
D02*
G37*
G36*
X7382Y1896D02*
X7372Y1894D01*
X7364Y1888D01*
X7358Y1880D01*
X7356Y1870D01*
X7358Y1860D01*
X7364Y1852D01*
X7372Y1847D01*
X7382Y1845D01*
X7392Y1847D01*
X7400Y1852D01*
X7405Y1860D01*
X7407Y1870D01*
X7405Y1880D01*
X7400Y1888D01*
X7392Y1894D01*
X7382Y1896D01*
D02*
G37*
G36*
X9016Y1876D02*
X9006Y1874D01*
X8998Y1868D01*
X8992Y1860D01*
X8990Y1850D01*
X8992Y1841D01*
X8998Y1832D01*
X9006Y1827D01*
X9016Y1825D01*
X9026Y1827D01*
X9034Y1832D01*
X9039Y1841D01*
X9041Y1850D01*
X9039Y1860D01*
X9034Y1868D01*
X9026Y1874D01*
X9016Y1876D01*
D02*
G37*
G36*
X8780Y2073D02*
X8770Y2071D01*
X8762Y2065D01*
X8756Y2057D01*
X8754Y2047D01*
X8756Y2037D01*
X8762Y2029D01*
X8770Y2024D01*
X8780Y2022D01*
X8789Y2024D01*
X8798Y2029D01*
X8803Y2037D01*
X8805Y2047D01*
X8803Y2057D01*
X8798Y2065D01*
X8789Y2071D01*
X8780Y2073D01*
D02*
G37*
G36*
X7677Y1935D02*
X7667Y1933D01*
X7659Y1927D01*
X7654Y1919D01*
X7652Y1909D01*
X7654Y1900D01*
X7659Y1891D01*
X7667Y1886D01*
X7677Y1884D01*
X7687Y1886D01*
X7695Y1891D01*
X7701Y1900D01*
X7703Y1909D01*
X7701Y1919D01*
X7695Y1927D01*
X7687Y1933D01*
X7677Y1935D01*
D02*
G37*
G36*
X6206Y1836D02*
Y1816D01*
X6225D01*
X6224Y1821D01*
X6219Y1829D01*
X6211Y1835D01*
X6206Y1836D01*
D02*
G37*
G36*
X6196Y1806D02*
X6176D01*
X6177Y1801D01*
X6183Y1793D01*
X6191Y1787D01*
X6196Y1787D01*
Y1806D01*
D02*
G37*
G36*
X8878Y1797D02*
X8868Y1795D01*
X8860Y1790D01*
X8854Y1781D01*
X8852Y1772D01*
X8854Y1762D01*
X8860Y1754D01*
X8868Y1748D01*
X8878Y1746D01*
X8888Y1748D01*
X8896Y1754D01*
X8902Y1762D01*
X8903Y1772D01*
X8902Y1781D01*
X8896Y1790D01*
X8888Y1795D01*
X8878Y1797D01*
D02*
G37*
G36*
X6196Y1836D02*
X6191Y1835D01*
X6183Y1829D01*
X6177Y1821D01*
X6176Y1816D01*
X6196D01*
Y1836D01*
D02*
G37*
G36*
X6225Y1806D02*
X6206D01*
Y1787D01*
X6211Y1787D01*
X6219Y1793D01*
X6224Y1801D01*
X6225Y1806D01*
D02*
G37*
G36*
X6752Y2211D02*
X6742Y2209D01*
X6734Y2203D01*
X6728Y2195D01*
X6726Y2185D01*
X6728Y2175D01*
X6734Y2167D01*
X6742Y2161D01*
X6752Y2160D01*
X6762Y2161D01*
X6770Y2167D01*
X6776Y2175D01*
X6777Y2185D01*
X6776Y2195D01*
X6770Y2203D01*
X6762Y2209D01*
X6752Y2211D01*
D02*
G37*
G36*
X5537Y2544D02*
Y2525D01*
X5556D01*
X5555Y2529D01*
X5550Y2538D01*
X5541Y2543D01*
X5537Y2544D01*
D02*
G37*
G36*
X5527D02*
X5522Y2543D01*
X5514Y2538D01*
X5508Y2529D01*
X5507Y2525D01*
X5527D01*
Y2544D01*
D02*
G37*
G36*
X5733Y2544D02*
Y2525D01*
X5753D01*
X5752Y2529D01*
X5746Y2538D01*
X5738Y2543D01*
X5733Y2544D01*
D02*
G37*
G36*
X5723D02*
X5719Y2543D01*
X5710Y2538D01*
X5705Y2529D01*
X5704Y2525D01*
X5723D01*
Y2544D01*
D02*
G37*
G36*
X7993Y2601D02*
X7910D01*
Y2518D01*
X7993D01*
Y2601D01*
D02*
G37*
G36*
X6117Y2515D02*
X6098D01*
X6098Y2510D01*
X6104Y2502D01*
X6112Y2496D01*
X6117Y2495D01*
Y2515D01*
D02*
G37*
G36*
X5969D02*
X5950D01*
Y2495D01*
X5955Y2496D01*
X5963Y2502D01*
X5968Y2510D01*
X5969Y2515D01*
D02*
G37*
G36*
X8051Y2601D02*
X8040Y2599D01*
X8030Y2595D01*
X8022Y2589D01*
X8015Y2580D01*
X8011Y2570D01*
X8009Y2559D01*
X8011Y2548D01*
X8015Y2538D01*
X8022Y2529D01*
X8030Y2523D01*
X8040Y2519D01*
X8051Y2517D01*
X8062Y2519D01*
X8072Y2523D01*
X8081Y2529D01*
X8087Y2538D01*
X8092Y2548D01*
X8093Y2559D01*
X8092Y2570D01*
X8087Y2580D01*
X8081Y2589D01*
X8072Y2595D01*
X8062Y2599D01*
X8051Y2601D01*
D02*
G37*
G36*
X6147Y2515D02*
X6127D01*
Y2495D01*
X6132Y2496D01*
X6140Y2502D01*
X6146Y2510D01*
X6147Y2515D01*
D02*
G37*
G36*
X5940Y2544D02*
X5935Y2543D01*
X5927Y2538D01*
X5921Y2529D01*
X5920Y2525D01*
X5940D01*
Y2544D01*
D02*
G37*
G36*
X6053Y2712D02*
X6043Y2711D01*
X6035Y2705D01*
X6030Y2697D01*
X6028Y2687D01*
X6030Y2677D01*
X6035Y2669D01*
X6043Y2663D01*
X6053Y2662D01*
X6063Y2663D01*
X6071Y2669D01*
X6077Y2677D01*
X6079Y2687D01*
X6077Y2697D01*
X6071Y2705D01*
X6063Y2711D01*
X6053Y2712D01*
D02*
G37*
G36*
Y2604D02*
X6043Y2602D01*
X6035Y2597D01*
X6030Y2588D01*
X6028Y2579D01*
X6030Y2569D01*
X6035Y2561D01*
X6043Y2555D01*
X6053Y2553D01*
X6063Y2555D01*
X6071Y2561D01*
X6077Y2569D01*
X6079Y2579D01*
X6077Y2588D01*
X6071Y2597D01*
X6063Y2602D01*
X6053Y2604D01*
D02*
G37*
G36*
X9214Y2813D02*
X9201Y2812D01*
X9189Y2808D01*
X9178Y2802D01*
X9168Y2794D01*
X9160Y2784D01*
X9154Y2773D01*
X9150Y2761D01*
X9149Y2748D01*
X9150Y2735D01*
X9154Y2723D01*
X9160Y2712D01*
X9168Y2702D01*
X9178Y2694D01*
X9189Y2688D01*
X9201Y2684D01*
X9214Y2683D01*
X9227Y2684D01*
X9239Y2688D01*
X9250Y2694D01*
X9260Y2702D01*
X9268Y2712D01*
X9275Y2723D01*
X9278Y2735D01*
X9279Y2748D01*
X9278Y2761D01*
X9275Y2773D01*
X9268Y2784D01*
X9260Y2794D01*
X9250Y2802D01*
X9239Y2808D01*
X9227Y2812D01*
X9214Y2813D01*
D02*
G37*
G36*
X6299Y2712D02*
X6289Y2711D01*
X6281Y2705D01*
X6276Y2697D01*
X6274Y2687D01*
X6276Y2677D01*
X6281Y2669D01*
X6289Y2663D01*
X6299Y2662D01*
X6309Y2663D01*
X6317Y2669D01*
X6323Y2677D01*
X6325Y2687D01*
X6323Y2697D01*
X6317Y2705D01*
X6309Y2711D01*
X6299Y2712D01*
D02*
G37*
G36*
X5768Y2604D02*
X5758Y2602D01*
X5750Y2597D01*
X5744Y2588D01*
X5742Y2579D01*
X5744Y2569D01*
X5750Y2561D01*
X5758Y2555D01*
X5768Y2553D01*
X5777Y2555D01*
X5786Y2561D01*
X5791Y2569D01*
X5793Y2579D01*
X5791Y2588D01*
X5786Y2597D01*
X5777Y2602D01*
X5768Y2604D01*
D02*
G37*
G36*
X6117Y2544D02*
X6112Y2543D01*
X6104Y2538D01*
X6098Y2529D01*
X6098Y2525D01*
X6117D01*
Y2544D01*
D02*
G37*
G36*
X5950D02*
Y2525D01*
X5969D01*
X5968Y2529D01*
X5963Y2538D01*
X5955Y2543D01*
X5950Y2544D01*
D02*
G37*
G36*
X8878Y2585D02*
X8868Y2583D01*
X8860Y2577D01*
X8854Y2569D01*
X8852Y2559D01*
X8854Y2549D01*
X8860Y2541D01*
X8868Y2536D01*
X8878Y2534D01*
X8888Y2536D01*
X8896Y2541D01*
X8902Y2549D01*
X8903Y2559D01*
X8902Y2569D01*
X8896Y2577D01*
X8888Y2583D01*
X8878Y2585D01*
D02*
G37*
G36*
X6127Y2544D02*
Y2525D01*
X6147D01*
X6146Y2529D01*
X6140Y2538D01*
X6132Y2543D01*
X6127Y2544D01*
D02*
G37*
G36*
X5900Y2328D02*
X5881D01*
Y2308D01*
X5886Y2309D01*
X5894Y2315D01*
X5900Y2323D01*
X5900Y2328D01*
D02*
G37*
G36*
X5871D02*
X5851D01*
X5852Y2323D01*
X5858Y2315D01*
X5866Y2309D01*
X5871Y2308D01*
Y2328D01*
D02*
G37*
G36*
X5881Y2357D02*
Y2338D01*
X5900D01*
X5900Y2342D01*
X5894Y2351D01*
X5886Y2356D01*
X5881Y2357D01*
D02*
G37*
G36*
X5871D02*
X5866Y2356D01*
X5858Y2351D01*
X5852Y2342D01*
X5851Y2338D01*
X5871D01*
Y2357D01*
D02*
G37*
G36*
X4171Y2404D02*
X4157Y2403D01*
X4144Y2399D01*
X4132Y2392D01*
X4121Y2383D01*
X4112Y2373D01*
X4106Y2361D01*
X4102Y2347D01*
X4100Y2334D01*
X4102Y2320D01*
X4106Y2307D01*
X4112Y2295D01*
X4121Y2284D01*
X4132Y2275D01*
X4144Y2269D01*
X4157Y2265D01*
X4171Y2263D01*
X4184Y2265D01*
X4198Y2269D01*
X4210Y2275D01*
X4220Y2284D01*
X4229Y2295D01*
X4236Y2307D01*
X4240Y2320D01*
X4241Y2334D01*
X4240Y2347D01*
X4236Y2361D01*
X4229Y2373D01*
X4220Y2383D01*
X4210Y2392D01*
X4198Y2399D01*
X4184Y2403D01*
X4171Y2404D01*
D02*
G37*
G36*
X7264Y2230D02*
X7254Y2228D01*
X7246Y2223D01*
X7240Y2214D01*
X7238Y2205D01*
X7240Y2195D01*
X7246Y2187D01*
X7254Y2181D01*
X7264Y2179D01*
X7274Y2181D01*
X7282Y2187D01*
X7287Y2195D01*
X7289Y2205D01*
X7287Y2214D01*
X7282Y2223D01*
X7274Y2228D01*
X7264Y2230D01*
D02*
G37*
G36*
X8543Y2220D02*
X8534Y2218D01*
X8525Y2213D01*
X8520Y2205D01*
X8518Y2195D01*
X8520Y2185D01*
X8525Y2177D01*
X8534Y2171D01*
X8543Y2169D01*
X8553Y2171D01*
X8561Y2177D01*
X8567Y2185D01*
X8569Y2195D01*
X8567Y2205D01*
X8561Y2213D01*
X8553Y2218D01*
X8543Y2220D01*
D02*
G37*
G36*
X1529Y2404D02*
X1516Y2403D01*
X1502Y2399D01*
X1490Y2392D01*
X1480Y2383D01*
X1471Y2373D01*
X1464Y2361D01*
X1460Y2347D01*
X1459Y2334D01*
X1460Y2320D01*
X1464Y2307D01*
X1471Y2295D01*
X1480Y2284D01*
X1490Y2275D01*
X1502Y2269D01*
X1516Y2265D01*
X1529Y2263D01*
X1543Y2265D01*
X1556Y2269D01*
X1568Y2275D01*
X1579Y2284D01*
X1588Y2295D01*
X1594Y2307D01*
X1598Y2320D01*
X1600Y2334D01*
X1598Y2347D01*
X1594Y2361D01*
X1588Y2373D01*
X1579Y2383D01*
X1568Y2392D01*
X1556Y2399D01*
X1543Y2403D01*
X1529Y2404D01*
D02*
G37*
G36*
X8937Y2230D02*
X8927Y2228D01*
X8919Y2223D01*
X8913Y2214D01*
X8912Y2205D01*
X8913Y2195D01*
X8919Y2187D01*
X8927Y2181D01*
X8937Y2179D01*
X8947Y2181D01*
X8955Y2187D01*
X8961Y2195D01*
X8962Y2205D01*
X8961Y2214D01*
X8955Y2223D01*
X8947Y2228D01*
X8937Y2230D01*
D02*
G37*
G36*
X6747Y2454D02*
X6737Y2452D01*
X6727Y2448D01*
X6719Y2442D01*
X6712Y2434D01*
X6708Y2424D01*
X6707Y2413D01*
X6708Y2403D01*
X6712Y2393D01*
X6719Y2385D01*
X6727Y2378D01*
X6737Y2374D01*
X6747Y2373D01*
X6758Y2374D01*
X6767Y2378D01*
X6776Y2385D01*
X6782Y2393D01*
X6786Y2403D01*
X6788Y2413D01*
X6786Y2424D01*
X6782Y2434D01*
X6776Y2442D01*
X6767Y2448D01*
X6758Y2452D01*
X6747Y2454D01*
D02*
G37*
G36*
X5723Y2515D02*
X5704D01*
X5705Y2510D01*
X5710Y2502D01*
X5719Y2496D01*
X5723Y2495D01*
Y2515D01*
D02*
G37*
G36*
X5556Y2515D02*
X5537D01*
Y2495D01*
X5541Y2496D01*
X5550Y2502D01*
X5555Y2510D01*
X5556Y2515D01*
D02*
G37*
G36*
X5940Y2515D02*
X5920D01*
X5921Y2510D01*
X5927Y2502D01*
X5935Y2496D01*
X5940Y2495D01*
Y2515D01*
D02*
G37*
G36*
X5753D02*
X5733D01*
Y2495D01*
X5738Y2496D01*
X5746Y2502D01*
X5752Y2510D01*
X5753Y2515D01*
D02*
G37*
G36*
X5527Y2515D02*
X5507D01*
X5508Y2510D01*
X5514Y2502D01*
X5522Y2496D01*
X5527Y2495D01*
Y2515D01*
D02*
G37*
G36*
X6747Y2554D02*
X6737Y2552D01*
X6727Y2548D01*
X6719Y2542D01*
X6712Y2534D01*
X6708Y2524D01*
X6707Y2513D01*
X6708Y2503D01*
X6712Y2493D01*
X6719Y2485D01*
X6727Y2478D01*
X6737Y2474D01*
X6747Y2473D01*
X6758Y2474D01*
X6767Y2478D01*
X6776Y2485D01*
X6782Y2493D01*
X6786Y2503D01*
X6788Y2513D01*
X6786Y2524D01*
X6782Y2534D01*
X6776Y2542D01*
X6767Y2548D01*
X6758Y2552D01*
X6747Y2554D01*
D02*
G37*
G36*
X7087Y2453D02*
X7007D01*
Y2373D01*
X7087D01*
Y2453D01*
D02*
G37*
G36*
X5827Y2545D02*
X5817Y2543D01*
X5809Y2538D01*
X5803Y2529D01*
X5801Y2520D01*
X5803Y2510D01*
X5809Y2502D01*
X5817Y2496D01*
X5827Y2494D01*
X5837Y2496D01*
X5845Y2502D01*
X5850Y2510D01*
X5852Y2520D01*
X5850Y2529D01*
X5845Y2538D01*
X5837Y2543D01*
X5827Y2545D01*
D02*
G37*
G36*
X7047Y2554D02*
X7037Y2552D01*
X7027Y2548D01*
X7019Y2542D01*
X7012Y2534D01*
X7008Y2524D01*
X7007Y2513D01*
X7008Y2503D01*
X7012Y2493D01*
X7019Y2485D01*
X7027Y2478D01*
X7037Y2474D01*
X7047Y2473D01*
X7058Y2474D01*
X7067Y2478D01*
X7076Y2485D01*
X7082Y2493D01*
X7086Y2503D01*
X7088Y2513D01*
X7086Y2524D01*
X7082Y2534D01*
X7076Y2542D01*
X7067Y2548D01*
X7058Y2552D01*
X7047Y2554D01*
D02*
G37*
G36*
X3907Y5290D02*
X3903Y5290D01*
X3894Y5286D01*
X3886Y5280D01*
X3880Y5272D01*
X3876Y5263D01*
X3876Y5259D01*
X3907D01*
Y5290D01*
D02*
G37*
G36*
X3780Y5291D02*
X3770Y5289D01*
X3762Y5284D01*
X3756Y5276D01*
X3754Y5266D01*
X3756Y5256D01*
X3762Y5248D01*
X3770Y5242D01*
X3780Y5240D01*
X3789Y5242D01*
X3798Y5248D01*
X3803Y5256D01*
X3805Y5266D01*
X3803Y5276D01*
X3798Y5284D01*
X3789Y5289D01*
X3780Y5291D01*
D02*
G37*
G36*
X5707Y5290D02*
X5703Y5290D01*
X5694Y5286D01*
X5686Y5280D01*
X5680Y5272D01*
X5676Y5263D01*
X5676Y5259D01*
X5707D01*
Y5290D01*
D02*
G37*
G36*
X4807D02*
X4803Y5290D01*
X4794Y5286D01*
X4786Y5280D01*
X4780Y5272D01*
X4776Y5263D01*
X4776Y5259D01*
X4807D01*
Y5290D01*
D02*
G37*
G36*
X6506Y5286D02*
X6498Y5285D01*
X6491Y5282D01*
X6485Y5277D01*
X6480Y5271D01*
X6477Y5264D01*
X6476Y5256D01*
X6477Y5248D01*
X6480Y5241D01*
X6485Y5235D01*
X6491Y5230D01*
X6498Y5227D01*
X6506Y5226D01*
X6514Y5227D01*
X6521Y5230D01*
X6527Y5235D01*
X6532Y5241D01*
X6535Y5248D01*
X6536Y5256D01*
X6535Y5264D01*
X6532Y5271D01*
X6527Y5277D01*
X6521Y5282D01*
X6514Y5285D01*
X6506Y5286D01*
D02*
G37*
G36*
X4849Y5249D02*
X4817D01*
Y5217D01*
X4822Y5218D01*
X4831Y5221D01*
X4839Y5227D01*
X4844Y5235D01*
X4848Y5244D01*
X4849Y5249D01*
D02*
G37*
G36*
X3949D02*
X3917D01*
Y5217D01*
X3922Y5218D01*
X3931Y5221D01*
X3939Y5227D01*
X3944Y5235D01*
X3948Y5244D01*
X3949Y5249D01*
D02*
G37*
G36*
X6649D02*
X6617D01*
Y5217D01*
X6622Y5218D01*
X6631Y5221D01*
X6639Y5227D01*
X6644Y5235D01*
X6648Y5244D01*
X6649Y5249D01*
D02*
G37*
G36*
X5749D02*
X5717D01*
Y5217D01*
X5722Y5218D01*
X5731Y5221D01*
X5739Y5227D01*
X5744Y5235D01*
X5748Y5244D01*
X5749Y5249D01*
D02*
G37*
G36*
X6607Y5290D02*
X6603Y5290D01*
X6594Y5286D01*
X6586Y5280D01*
X6580Y5272D01*
X6576Y5263D01*
X6576Y5259D01*
X6607D01*
Y5290D01*
D02*
G37*
G36*
X1516Y5463D02*
X1498Y5461D01*
X1482Y5456D01*
X1466Y5448D01*
X1453Y5437D01*
X1442Y5424D01*
X1433Y5408D01*
X1428Y5391D01*
X1427Y5374D01*
X1428Y5357D01*
X1433Y5340D01*
X1442Y5324D01*
X1453Y5311D01*
X1466Y5300D01*
X1482Y5292D01*
X1498Y5287D01*
X1516Y5285D01*
X1533Y5287D01*
X1550Y5292D01*
X1565Y5300D01*
X1579Y5311D01*
X1590Y5324D01*
X1598Y5340D01*
X1603Y5357D01*
X1605Y5374D01*
X1603Y5391D01*
X1598Y5408D01*
X1590Y5424D01*
X1579Y5437D01*
X1565Y5448D01*
X1550Y5456D01*
X1533Y5461D01*
X1516Y5463D01*
D02*
G37*
G36*
X4528Y5335D02*
X4520Y5334D01*
X4512Y5331D01*
X4506Y5327D01*
X4501Y5320D01*
X4498Y5313D01*
X4497Y5305D01*
X4498Y5297D01*
X4501Y5290D01*
X4506Y5284D01*
X4512Y5279D01*
X4520Y5276D01*
X4528Y5275D01*
X4535Y5276D01*
X4543Y5279D01*
X4549Y5284D01*
X4554Y5290D01*
X4557Y5297D01*
X4558Y5305D01*
X4557Y5313D01*
X4554Y5320D01*
X4549Y5327D01*
X4543Y5331D01*
X4535Y5334D01*
X4528Y5335D01*
D02*
G37*
G36*
X9213Y5365D02*
X9205Y5364D01*
X9197Y5361D01*
X9191Y5356D01*
X9186Y5350D01*
X9183Y5342D01*
X9182Y5335D01*
X9183Y5327D01*
X9186Y5320D01*
X9191Y5313D01*
X9197Y5308D01*
X9205Y5305D01*
X9213Y5304D01*
X9220Y5305D01*
X9228Y5308D01*
X9234Y5313D01*
X9239Y5320D01*
X9242Y5327D01*
X9243Y5335D01*
X9242Y5342D01*
X9239Y5350D01*
X9234Y5356D01*
X9228Y5361D01*
X9220Y5364D01*
X9213Y5365D01*
D02*
G37*
G36*
X9508Y5463D02*
X9490Y5461D01*
X9474Y5456D01*
X9458Y5448D01*
X9445Y5437D01*
X9434Y5424D01*
X9425Y5408D01*
X9420Y5391D01*
X9419Y5374D01*
X9420Y5357D01*
X9425Y5340D01*
X9434Y5324D01*
X9445Y5311D01*
X9458Y5300D01*
X9474Y5292D01*
X9490Y5287D01*
X9508Y5285D01*
X9525Y5287D01*
X9542Y5292D01*
X9557Y5300D01*
X9571Y5311D01*
X9582Y5324D01*
X9590Y5340D01*
X9595Y5357D01*
X9597Y5374D01*
X9595Y5391D01*
X9590Y5408D01*
X9582Y5424D01*
X9571Y5437D01*
X9557Y5448D01*
X9542Y5456D01*
X9525Y5461D01*
X9508Y5463D01*
D02*
G37*
G36*
X7638Y5384D02*
X7623Y5382D01*
X7609Y5377D01*
X7597Y5367D01*
X7588Y5355D01*
X7582Y5342D01*
X7580Y5327D01*
X7582Y5312D01*
X7588Y5298D01*
X7597Y5286D01*
X7609Y5277D01*
X7623Y5271D01*
X7638Y5269D01*
X7653Y5271D01*
X7667Y5277D01*
X7678Y5286D01*
X7688Y5298D01*
X7693Y5312D01*
X7695Y5327D01*
X7693Y5342D01*
X7688Y5355D01*
X7678Y5367D01*
X7667Y5377D01*
X7653Y5382D01*
X7638Y5384D01*
D02*
G37*
G36*
X4817Y5290D02*
Y5259D01*
X4849D01*
X4848Y5263D01*
X4844Y5272D01*
X4839Y5280D01*
X4831Y5286D01*
X4822Y5290D01*
X4817Y5290D01*
D02*
G37*
G36*
X3917D02*
Y5259D01*
X3949D01*
X3948Y5263D01*
X3944Y5272D01*
X3939Y5280D01*
X3931Y5286D01*
X3922Y5290D01*
X3917Y5290D01*
D02*
G37*
G36*
X6617D02*
Y5259D01*
X6649D01*
X6648Y5263D01*
X6644Y5272D01*
X6639Y5280D01*
X6631Y5286D01*
X6622Y5290D01*
X6617Y5290D01*
D02*
G37*
G36*
X5717D02*
Y5259D01*
X5749D01*
X5748Y5263D01*
X5744Y5272D01*
X5739Y5280D01*
X5731Y5286D01*
X5722Y5290D01*
X5717Y5290D01*
D02*
G37*
G36*
X6607Y5249D02*
X6576D01*
X6576Y5244D01*
X6580Y5235D01*
X6586Y5227D01*
X6594Y5221D01*
X6603Y5218D01*
X6607Y5217D01*
Y5249D01*
D02*
G37*
G36*
X6012Y5291D02*
X6003Y5290D01*
X5994Y5286D01*
X5986Y5280D01*
X5980Y5272D01*
X5976Y5263D01*
X5975Y5254D01*
X5976Y5244D01*
X5980Y5235D01*
X5986Y5227D01*
X5994Y5221D01*
X6003Y5218D01*
X6012Y5216D01*
X6022Y5218D01*
X6031Y5221D01*
X6039Y5227D01*
X6044Y5235D01*
X6048Y5244D01*
X6049Y5254D01*
X6048Y5263D01*
X6044Y5272D01*
X6039Y5280D01*
X6031Y5286D01*
X6022Y5290D01*
X6012Y5291D01*
D02*
G37*
G36*
X5912D02*
X5903Y5290D01*
X5894Y5286D01*
X5886Y5280D01*
X5880Y5272D01*
X5876Y5263D01*
X5875Y5254D01*
X5876Y5244D01*
X5880Y5235D01*
X5886Y5227D01*
X5894Y5221D01*
X5903Y5218D01*
X5912Y5216D01*
X5922Y5218D01*
X5931Y5221D01*
X5939Y5227D01*
X5944Y5235D01*
X5948Y5244D01*
X5949Y5254D01*
X5948Y5263D01*
X5944Y5272D01*
X5939Y5280D01*
X5931Y5286D01*
X5922Y5290D01*
X5912Y5291D01*
D02*
G37*
G36*
X6712D02*
X6703Y5290D01*
X6694Y5286D01*
X6686Y5280D01*
X6680Y5272D01*
X6676Y5263D01*
X6675Y5254D01*
X6676Y5244D01*
X6680Y5235D01*
X6686Y5227D01*
X6694Y5221D01*
X6703Y5218D01*
X6712Y5216D01*
X6722Y5218D01*
X6731Y5221D01*
X6739Y5227D01*
X6744Y5235D01*
X6748Y5244D01*
X6749Y5254D01*
X6748Y5263D01*
X6744Y5272D01*
X6739Y5280D01*
X6731Y5286D01*
X6722Y5290D01*
X6712Y5291D01*
D02*
G37*
G36*
X6112D02*
X6103Y5290D01*
X6094Y5286D01*
X6086Y5280D01*
X6080Y5272D01*
X6076Y5263D01*
X6075Y5254D01*
X6076Y5244D01*
X6080Y5235D01*
X6086Y5227D01*
X6094Y5221D01*
X6103Y5218D01*
X6112Y5216D01*
X6122Y5218D01*
X6131Y5221D01*
X6139Y5227D01*
X6144Y5235D01*
X6148Y5244D01*
X6149Y5254D01*
X6148Y5263D01*
X6144Y5272D01*
X6139Y5280D01*
X6131Y5286D01*
X6122Y5290D01*
X6112Y5291D01*
D02*
G37*
G36*
X5812D02*
X5803Y5290D01*
X5794Y5286D01*
X5786Y5280D01*
X5780Y5272D01*
X5776Y5263D01*
X5775Y5254D01*
X5776Y5244D01*
X5780Y5235D01*
X5786Y5227D01*
X5794Y5221D01*
X5803Y5218D01*
X5812Y5216D01*
X5822Y5218D01*
X5831Y5221D01*
X5839Y5227D01*
X5844Y5235D01*
X5848Y5244D01*
X5849Y5254D01*
X5848Y5263D01*
X5844Y5272D01*
X5839Y5280D01*
X5831Y5286D01*
X5822Y5290D01*
X5812Y5291D01*
D02*
G37*
G36*
X5012D02*
X5003Y5290D01*
X4994Y5286D01*
X4986Y5280D01*
X4980Y5272D01*
X4976Y5263D01*
X4975Y5254D01*
X4976Y5244D01*
X4980Y5235D01*
X4986Y5227D01*
X4994Y5221D01*
X5003Y5218D01*
X5012Y5216D01*
X5022Y5218D01*
X5031Y5221D01*
X5039Y5227D01*
X5044Y5235D01*
X5048Y5244D01*
X5049Y5254D01*
X5048Y5263D01*
X5044Y5272D01*
X5039Y5280D01*
X5031Y5286D01*
X5022Y5290D01*
X5012Y5291D01*
D02*
G37*
G36*
X4912D02*
X4903Y5290D01*
X4894Y5286D01*
X4886Y5280D01*
X4880Y5272D01*
X4876Y5263D01*
X4875Y5254D01*
X4876Y5244D01*
X4880Y5235D01*
X4886Y5227D01*
X4894Y5221D01*
X4903Y5218D01*
X4912Y5216D01*
X4922Y5218D01*
X4931Y5221D01*
X4939Y5227D01*
X4944Y5235D01*
X4948Y5244D01*
X4949Y5254D01*
X4948Y5263D01*
X4944Y5272D01*
X4939Y5280D01*
X4931Y5286D01*
X4922Y5290D01*
X4912Y5291D01*
D02*
G37*
G36*
X5212D02*
X5203Y5290D01*
X5194Y5286D01*
X5186Y5280D01*
X5180Y5272D01*
X5176Y5263D01*
X5175Y5254D01*
X5176Y5244D01*
X5180Y5235D01*
X5186Y5227D01*
X5194Y5221D01*
X5203Y5218D01*
X5212Y5216D01*
X5222Y5218D01*
X5231Y5221D01*
X5239Y5227D01*
X5244Y5235D01*
X5248Y5244D01*
X5249Y5254D01*
X5248Y5263D01*
X5244Y5272D01*
X5239Y5280D01*
X5231Y5286D01*
X5222Y5290D01*
X5212Y5291D01*
D02*
G37*
G36*
X5112D02*
X5103Y5290D01*
X5094Y5286D01*
X5086Y5280D01*
X5080Y5272D01*
X5076Y5263D01*
X5075Y5254D01*
X5076Y5244D01*
X5080Y5235D01*
X5086Y5227D01*
X5094Y5221D01*
X5103Y5218D01*
X5112Y5216D01*
X5122Y5218D01*
X5131Y5221D01*
X5139Y5227D01*
X5144Y5235D01*
X5148Y5244D01*
X5149Y5254D01*
X5148Y5263D01*
X5144Y5272D01*
X5139Y5280D01*
X5131Y5286D01*
X5122Y5290D01*
X5112Y5291D01*
D02*
G37*
G36*
X6812D02*
X6803Y5290D01*
X6794Y5286D01*
X6786Y5280D01*
X6780Y5272D01*
X6776Y5263D01*
X6775Y5254D01*
X6776Y5244D01*
X6780Y5235D01*
X6786Y5227D01*
X6794Y5221D01*
X6803Y5218D01*
X6812Y5216D01*
X6822Y5218D01*
X6831Y5221D01*
X6839Y5227D01*
X6844Y5235D01*
X6848Y5244D01*
X6849Y5254D01*
X6848Y5263D01*
X6844Y5272D01*
X6839Y5280D01*
X6831Y5286D01*
X6822Y5290D01*
X6812Y5291D01*
D02*
G37*
G36*
X3907Y5249D02*
X3876D01*
X3876Y5244D01*
X3880Y5235D01*
X3886Y5227D01*
X3894Y5221D01*
X3903Y5218D01*
X3907Y5217D01*
Y5249D01*
D02*
G37*
G36*
X7149Y5291D02*
X7075D01*
Y5217D01*
X7149D01*
Y5291D01*
D02*
G37*
G36*
X5707Y5249D02*
X5676D01*
X5676Y5244D01*
X5680Y5235D01*
X5686Y5227D01*
X5694Y5221D01*
X5703Y5218D01*
X5707Y5217D01*
Y5249D01*
D02*
G37*
G36*
X4807D02*
X4776D01*
X4776Y5244D01*
X4780Y5235D01*
X4786Y5227D01*
X4794Y5221D01*
X4803Y5218D01*
X4807Y5217D01*
Y5249D01*
D02*
G37*
G36*
X6249Y5291D02*
X6175D01*
Y5217D01*
X6249D01*
Y5291D01*
D02*
G37*
G36*
X7012Y5291D02*
X7003Y5290D01*
X6994Y5286D01*
X6986Y5280D01*
X6980Y5272D01*
X6976Y5263D01*
X6975Y5254D01*
X6976Y5244D01*
X6980Y5235D01*
X6986Y5227D01*
X6994Y5221D01*
X7003Y5218D01*
X7012Y5216D01*
X7022Y5218D01*
X7031Y5221D01*
X7039Y5227D01*
X7044Y5235D01*
X7048Y5244D01*
X7049Y5254D01*
X7048Y5263D01*
X7044Y5272D01*
X7039Y5280D01*
X7031Y5286D01*
X7022Y5290D01*
X7012Y5291D01*
D02*
G37*
G36*
X6912D02*
X6903Y5290D01*
X6894Y5286D01*
X6886Y5280D01*
X6880Y5272D01*
X6876Y5263D01*
X6875Y5254D01*
X6876Y5244D01*
X6880Y5235D01*
X6886Y5227D01*
X6894Y5221D01*
X6903Y5218D01*
X6912Y5216D01*
X6922Y5218D01*
X6931Y5221D01*
X6939Y5227D01*
X6944Y5235D01*
X6948Y5244D01*
X6949Y5254D01*
X6948Y5263D01*
X6944Y5272D01*
X6939Y5280D01*
X6931Y5286D01*
X6922Y5290D01*
X6912Y5291D01*
D02*
G37*
G36*
X5349Y5291D02*
X5275D01*
Y5217D01*
X5349D01*
Y5291D01*
D02*
G37*
G36*
X4449D02*
X4375D01*
Y5217D01*
X4449D01*
Y5291D01*
D02*
G37*
G36*
X5749Y5349D02*
X5717D01*
Y5317D01*
X5722Y5318D01*
X5731Y5321D01*
X5739Y5327D01*
X5744Y5335D01*
X5748Y5344D01*
X5749Y5349D01*
D02*
G37*
G36*
X4849D02*
X4817D01*
Y5317D01*
X4822Y5318D01*
X4831Y5321D01*
X4839Y5327D01*
X4844Y5335D01*
X4848Y5344D01*
X4849Y5349D01*
D02*
G37*
G36*
X6506Y5385D02*
X6498Y5384D01*
X6491Y5381D01*
X6485Y5376D01*
X6480Y5369D01*
X6477Y5362D01*
X6476Y5354D01*
X6477Y5346D01*
X6480Y5339D01*
X6485Y5333D01*
X6491Y5328D01*
X6498Y5325D01*
X6506Y5324D01*
X6514Y5325D01*
X6521Y5328D01*
X6527Y5333D01*
X6532Y5339D01*
X6535Y5346D01*
X6536Y5354D01*
X6535Y5362D01*
X6532Y5369D01*
X6527Y5376D01*
X6521Y5381D01*
X6514Y5384D01*
X6506Y5385D01*
D02*
G37*
G36*
X6649Y5349D02*
X6617D01*
Y5317D01*
X6622Y5318D01*
X6631Y5321D01*
X6639Y5327D01*
X6644Y5335D01*
X6648Y5344D01*
X6649Y5349D01*
D02*
G37*
G36*
X3949D02*
X3917D01*
Y5317D01*
X3922Y5318D01*
X3931Y5321D01*
X3939Y5327D01*
X3944Y5335D01*
X3948Y5344D01*
X3949Y5349D01*
D02*
G37*
G36*
X4807D02*
X4776D01*
X4776Y5344D01*
X4780Y5335D01*
X4786Y5327D01*
X4794Y5321D01*
X4803Y5318D01*
X4807Y5317D01*
Y5349D01*
D02*
G37*
G36*
X3907D02*
X3876D01*
X3876Y5344D01*
X3880Y5335D01*
X3886Y5327D01*
X3894Y5321D01*
X3903Y5318D01*
X3907Y5317D01*
Y5349D01*
D02*
G37*
G36*
X6607D02*
X6576D01*
X6576Y5344D01*
X6580Y5335D01*
X6586Y5327D01*
X6594Y5321D01*
X6603Y5318D01*
X6607Y5317D01*
Y5349D01*
D02*
G37*
G36*
X5707D02*
X5676D01*
X5676Y5344D01*
X5680Y5335D01*
X5686Y5327D01*
X5694Y5321D01*
X5703Y5318D01*
X5707Y5317D01*
Y5349D01*
D02*
G37*
G36*
X3907Y5390D02*
X3903Y5390D01*
X3894Y5386D01*
X3886Y5380D01*
X3880Y5372D01*
X3876Y5363D01*
X3876Y5359D01*
X3907D01*
Y5390D01*
D02*
G37*
G36*
X6617D02*
Y5359D01*
X6649D01*
X6648Y5363D01*
X6644Y5372D01*
X6639Y5380D01*
X6631Y5386D01*
X6622Y5390D01*
X6617Y5390D01*
D02*
G37*
G36*
X5717D02*
Y5359D01*
X5749D01*
X5748Y5363D01*
X5744Y5372D01*
X5739Y5380D01*
X5731Y5386D01*
X5722Y5390D01*
X5717Y5390D01*
D02*
G37*
G36*
X7402Y5459D02*
X7392Y5457D01*
X7384Y5451D01*
X7378Y5443D01*
X7376Y5433D01*
X7378Y5423D01*
X7384Y5415D01*
X7392Y5410D01*
X7402Y5408D01*
X7411Y5410D01*
X7420Y5415D01*
X7425Y5423D01*
X7427Y5433D01*
X7425Y5443D01*
X7420Y5451D01*
X7411Y5457D01*
X7402Y5459D01*
D02*
G37*
G36*
X8612Y5419D02*
X8602Y5417D01*
X8594Y5412D01*
X8589Y5403D01*
X8587Y5394D01*
X8589Y5384D01*
X8594Y5376D01*
X8602Y5370D01*
X8612Y5368D01*
X8622Y5370D01*
X8630Y5376D01*
X8636Y5384D01*
X8638Y5394D01*
X8636Y5403D01*
X8630Y5412D01*
X8622Y5417D01*
X8612Y5419D01*
D02*
G37*
G36*
X4817Y5390D02*
Y5359D01*
X4849D01*
X4848Y5363D01*
X4844Y5372D01*
X4839Y5380D01*
X4831Y5386D01*
X4822Y5390D01*
X4817Y5390D01*
D02*
G37*
G36*
X5707D02*
X5703Y5390D01*
X5694Y5386D01*
X5686Y5380D01*
X5680Y5372D01*
X5676Y5363D01*
X5676Y5359D01*
X5707D01*
Y5390D01*
D02*
G37*
G36*
X4807D02*
X4803Y5390D01*
X4794Y5386D01*
X4786Y5380D01*
X4780Y5372D01*
X4776Y5363D01*
X4776Y5359D01*
X4807D01*
Y5390D01*
D02*
G37*
G36*
X3917D02*
Y5359D01*
X3949D01*
X3948Y5363D01*
X3944Y5372D01*
X3939Y5380D01*
X3931Y5386D01*
X3922Y5390D01*
X3917Y5390D01*
D02*
G37*
G36*
X6607D02*
X6603Y5390D01*
X6594Y5386D01*
X6586Y5380D01*
X6580Y5372D01*
X6576Y5363D01*
X6576Y5359D01*
X6607D01*
Y5390D01*
D02*
G37*
G36*
X7112Y5391D02*
X7103Y5390D01*
X7094Y5386D01*
X7086Y5380D01*
X7080Y5372D01*
X7076Y5363D01*
X7075Y5354D01*
X7076Y5344D01*
X7080Y5335D01*
X7086Y5327D01*
X7094Y5321D01*
X7103Y5318D01*
X7112Y5316D01*
X7122Y5318D01*
X7131Y5321D01*
X7139Y5327D01*
X7144Y5335D01*
X7148Y5344D01*
X7149Y5354D01*
X7148Y5363D01*
X7144Y5372D01*
X7139Y5380D01*
X7131Y5386D01*
X7122Y5390D01*
X7112Y5391D01*
D02*
G37*
G36*
X5012D02*
X5003Y5390D01*
X4994Y5386D01*
X4986Y5380D01*
X4980Y5372D01*
X4976Y5363D01*
X4975Y5354D01*
X4976Y5344D01*
X4980Y5335D01*
X4986Y5327D01*
X4994Y5321D01*
X5003Y5318D01*
X5012Y5316D01*
X5022Y5318D01*
X5031Y5321D01*
X5039Y5327D01*
X5044Y5335D01*
X5048Y5344D01*
X5049Y5354D01*
X5048Y5363D01*
X5044Y5372D01*
X5039Y5380D01*
X5031Y5386D01*
X5022Y5390D01*
X5012Y5391D01*
D02*
G37*
G36*
X4912D02*
X4903Y5390D01*
X4894Y5386D01*
X4886Y5380D01*
X4880Y5372D01*
X4876Y5363D01*
X4875Y5354D01*
X4876Y5344D01*
X4880Y5335D01*
X4886Y5327D01*
X4894Y5321D01*
X4903Y5318D01*
X4912Y5316D01*
X4922Y5318D01*
X4931Y5321D01*
X4939Y5327D01*
X4944Y5335D01*
X4948Y5344D01*
X4949Y5354D01*
X4948Y5363D01*
X4944Y5372D01*
X4939Y5380D01*
X4931Y5386D01*
X4922Y5390D01*
X4912Y5391D01*
D02*
G37*
G36*
X5212D02*
X5203Y5390D01*
X5194Y5386D01*
X5186Y5380D01*
X5180Y5372D01*
X5176Y5363D01*
X5175Y5354D01*
X5176Y5344D01*
X5180Y5335D01*
X5186Y5327D01*
X5194Y5321D01*
X5203Y5318D01*
X5212Y5316D01*
X5222Y5318D01*
X5231Y5321D01*
X5239Y5327D01*
X5244Y5335D01*
X5248Y5344D01*
X5249Y5354D01*
X5248Y5363D01*
X5244Y5372D01*
X5239Y5380D01*
X5231Y5386D01*
X5222Y5390D01*
X5212Y5391D01*
D02*
G37*
G36*
X5112D02*
X5103Y5390D01*
X5094Y5386D01*
X5086Y5380D01*
X5080Y5372D01*
X5076Y5363D01*
X5075Y5354D01*
X5076Y5344D01*
X5080Y5335D01*
X5086Y5327D01*
X5094Y5321D01*
X5103Y5318D01*
X5112Y5316D01*
X5122Y5318D01*
X5131Y5321D01*
X5139Y5327D01*
X5144Y5335D01*
X5148Y5344D01*
X5149Y5354D01*
X5148Y5363D01*
X5144Y5372D01*
X5139Y5380D01*
X5131Y5386D01*
X5122Y5390D01*
X5112Y5391D01*
D02*
G37*
G36*
X4412D02*
X4403Y5390D01*
X4394Y5386D01*
X4386Y5380D01*
X4380Y5372D01*
X4376Y5363D01*
X4375Y5354D01*
X4376Y5344D01*
X4380Y5335D01*
X4386Y5327D01*
X4394Y5321D01*
X4403Y5318D01*
X4412Y5316D01*
X4422Y5318D01*
X4431Y5321D01*
X4439Y5327D01*
X4444Y5335D01*
X4448Y5344D01*
X4449Y5354D01*
X4448Y5363D01*
X4444Y5372D01*
X4439Y5380D01*
X4431Y5386D01*
X4422Y5390D01*
X4412Y5391D01*
D02*
G37*
G36*
X4112D02*
X4103Y5390D01*
X4094Y5386D01*
X4086Y5380D01*
X4080Y5372D01*
X4076Y5363D01*
X4075Y5354D01*
X4076Y5344D01*
X4080Y5335D01*
X4086Y5327D01*
X4094Y5321D01*
X4103Y5318D01*
X4112Y5316D01*
X4122Y5318D01*
X4131Y5321D01*
X4139Y5327D01*
X4144Y5335D01*
X4148Y5344D01*
X4149Y5354D01*
X4148Y5363D01*
X4144Y5372D01*
X4139Y5380D01*
X4131Y5386D01*
X4122Y5390D01*
X4112Y5391D01*
D02*
G37*
G36*
X4012D02*
X4003Y5390D01*
X3994Y5386D01*
X3986Y5380D01*
X3980Y5372D01*
X3976Y5363D01*
X3975Y5354D01*
X3976Y5344D01*
X3980Y5335D01*
X3986Y5327D01*
X3994Y5321D01*
X4003Y5318D01*
X4012Y5316D01*
X4022Y5318D01*
X4031Y5321D01*
X4039Y5327D01*
X4044Y5335D01*
X4048Y5344D01*
X4049Y5354D01*
X4048Y5363D01*
X4044Y5372D01*
X4039Y5380D01*
X4031Y5386D01*
X4022Y5390D01*
X4012Y5391D01*
D02*
G37*
G36*
X4312D02*
X4303Y5390D01*
X4294Y5386D01*
X4286Y5380D01*
X4280Y5372D01*
X4276Y5363D01*
X4275Y5354D01*
X4276Y5344D01*
X4280Y5335D01*
X4286Y5327D01*
X4294Y5321D01*
X4303Y5318D01*
X4312Y5316D01*
X4322Y5318D01*
X4331Y5321D01*
X4339Y5327D01*
X4344Y5335D01*
X4348Y5344D01*
X4349Y5354D01*
X4348Y5363D01*
X4344Y5372D01*
X4339Y5380D01*
X4331Y5386D01*
X4322Y5390D01*
X4312Y5391D01*
D02*
G37*
G36*
X4212D02*
X4203Y5390D01*
X4194Y5386D01*
X4186Y5380D01*
X4180Y5372D01*
X4176Y5363D01*
X4175Y5354D01*
X4176Y5344D01*
X4180Y5335D01*
X4186Y5327D01*
X4194Y5321D01*
X4203Y5318D01*
X4212Y5316D01*
X4222Y5318D01*
X4231Y5321D01*
X4239Y5327D01*
X4244Y5335D01*
X4248Y5344D01*
X4249Y5354D01*
X4248Y5363D01*
X4244Y5372D01*
X4239Y5380D01*
X4231Y5386D01*
X4222Y5390D01*
X4212Y5391D01*
D02*
G37*
G36*
X5312D02*
X5303Y5390D01*
X5294Y5386D01*
X5286Y5380D01*
X5280Y5372D01*
X5276Y5363D01*
X5275Y5354D01*
X5276Y5344D01*
X5280Y5335D01*
X5286Y5327D01*
X5294Y5321D01*
X5303Y5318D01*
X5312Y5316D01*
X5322Y5318D01*
X5331Y5321D01*
X5339Y5327D01*
X5344Y5335D01*
X5348Y5344D01*
X5349Y5354D01*
X5348Y5363D01*
X5344Y5372D01*
X5339Y5380D01*
X5331Y5386D01*
X5322Y5390D01*
X5312Y5391D01*
D02*
G37*
G36*
X6812D02*
X6803Y5390D01*
X6794Y5386D01*
X6786Y5380D01*
X6780Y5372D01*
X6776Y5363D01*
X6775Y5354D01*
X6776Y5344D01*
X6780Y5335D01*
X6786Y5327D01*
X6794Y5321D01*
X6803Y5318D01*
X6812Y5316D01*
X6822Y5318D01*
X6831Y5321D01*
X6839Y5327D01*
X6844Y5335D01*
X6848Y5344D01*
X6849Y5354D01*
X6848Y5363D01*
X6844Y5372D01*
X6839Y5380D01*
X6831Y5386D01*
X6822Y5390D01*
X6812Y5391D01*
D02*
G37*
G36*
X6712D02*
X6703Y5390D01*
X6694Y5386D01*
X6686Y5380D01*
X6680Y5372D01*
X6676Y5363D01*
X6675Y5354D01*
X6676Y5344D01*
X6680Y5335D01*
X6686Y5327D01*
X6694Y5321D01*
X6703Y5318D01*
X6712Y5316D01*
X6722Y5318D01*
X6731Y5321D01*
X6739Y5327D01*
X6744Y5335D01*
X6748Y5344D01*
X6749Y5354D01*
X6748Y5363D01*
X6744Y5372D01*
X6739Y5380D01*
X6731Y5386D01*
X6722Y5390D01*
X6712Y5391D01*
D02*
G37*
G36*
X7012D02*
X7003Y5390D01*
X6994Y5386D01*
X6986Y5380D01*
X6980Y5372D01*
X6976Y5363D01*
X6975Y5354D01*
X6976Y5344D01*
X6980Y5335D01*
X6986Y5327D01*
X6994Y5321D01*
X7003Y5318D01*
X7012Y5316D01*
X7022Y5318D01*
X7031Y5321D01*
X7039Y5327D01*
X7044Y5335D01*
X7048Y5344D01*
X7049Y5354D01*
X7048Y5363D01*
X7044Y5372D01*
X7039Y5380D01*
X7031Y5386D01*
X7022Y5390D01*
X7012Y5391D01*
D02*
G37*
G36*
X6912D02*
X6903Y5390D01*
X6894Y5386D01*
X6886Y5380D01*
X6880Y5372D01*
X6876Y5363D01*
X6875Y5354D01*
X6876Y5344D01*
X6880Y5335D01*
X6886Y5327D01*
X6894Y5321D01*
X6903Y5318D01*
X6912Y5316D01*
X6922Y5318D01*
X6931Y5321D01*
X6939Y5327D01*
X6944Y5335D01*
X6948Y5344D01*
X6949Y5354D01*
X6948Y5363D01*
X6944Y5372D01*
X6939Y5380D01*
X6931Y5386D01*
X6922Y5390D01*
X6912Y5391D01*
D02*
G37*
G36*
X6212D02*
X6203Y5390D01*
X6194Y5386D01*
X6186Y5380D01*
X6180Y5372D01*
X6176Y5363D01*
X6175Y5354D01*
X6176Y5344D01*
X6180Y5335D01*
X6186Y5327D01*
X6194Y5321D01*
X6203Y5318D01*
X6212Y5316D01*
X6222Y5318D01*
X6231Y5321D01*
X6239Y5327D01*
X6244Y5335D01*
X6248Y5344D01*
X6249Y5354D01*
X6248Y5363D01*
X6244Y5372D01*
X6239Y5380D01*
X6231Y5386D01*
X6222Y5390D01*
X6212Y5391D01*
D02*
G37*
G36*
X5912D02*
X5903Y5390D01*
X5894Y5386D01*
X5886Y5380D01*
X5880Y5372D01*
X5876Y5363D01*
X5875Y5354D01*
X5876Y5344D01*
X5880Y5335D01*
X5886Y5327D01*
X5894Y5321D01*
X5903Y5318D01*
X5912Y5316D01*
X5922Y5318D01*
X5931Y5321D01*
X5939Y5327D01*
X5944Y5335D01*
X5948Y5344D01*
X5949Y5354D01*
X5948Y5363D01*
X5944Y5372D01*
X5939Y5380D01*
X5931Y5386D01*
X5922Y5390D01*
X5912Y5391D01*
D02*
G37*
G36*
X5812D02*
X5803Y5390D01*
X5794Y5386D01*
X5786Y5380D01*
X5780Y5372D01*
X5776Y5363D01*
X5775Y5354D01*
X5776Y5344D01*
X5780Y5335D01*
X5786Y5327D01*
X5794Y5321D01*
X5803Y5318D01*
X5812Y5316D01*
X5822Y5318D01*
X5831Y5321D01*
X5839Y5327D01*
X5844Y5335D01*
X5848Y5344D01*
X5849Y5354D01*
X5848Y5363D01*
X5844Y5372D01*
X5839Y5380D01*
X5831Y5386D01*
X5822Y5390D01*
X5812Y5391D01*
D02*
G37*
G36*
X6112D02*
X6103Y5390D01*
X6094Y5386D01*
X6086Y5380D01*
X6080Y5372D01*
X6076Y5363D01*
X6075Y5354D01*
X6076Y5344D01*
X6080Y5335D01*
X6086Y5327D01*
X6094Y5321D01*
X6103Y5318D01*
X6112Y5316D01*
X6122Y5318D01*
X6131Y5321D01*
X6139Y5327D01*
X6144Y5335D01*
X6148Y5344D01*
X6149Y5354D01*
X6148Y5363D01*
X6144Y5372D01*
X6139Y5380D01*
X6131Y5386D01*
X6122Y5390D01*
X6112Y5391D01*
D02*
G37*
G36*
X6012D02*
X6003Y5390D01*
X5994Y5386D01*
X5986Y5380D01*
X5980Y5372D01*
X5976Y5363D01*
X5975Y5354D01*
X5976Y5344D01*
X5980Y5335D01*
X5986Y5327D01*
X5994Y5321D01*
X6003Y5318D01*
X6012Y5316D01*
X6022Y5318D01*
X6031Y5321D01*
X6039Y5327D01*
X6044Y5335D01*
X6048Y5344D01*
X6049Y5354D01*
X6048Y5363D01*
X6044Y5372D01*
X6039Y5380D01*
X6031Y5386D01*
X6022Y5390D01*
X6012Y5391D01*
D02*
G37*
G36*
X6565Y4691D02*
X6555Y4689D01*
X6547Y4683D01*
X6541Y4675D01*
X6539Y4665D01*
X6541Y4656D01*
X6547Y4647D01*
X6555Y4642D01*
X6565Y4640D01*
X6575Y4642D01*
X6583Y4647D01*
X6589Y4656D01*
X6590Y4665D01*
X6589Y4675D01*
X6583Y4683D01*
X6575Y4689D01*
X6565Y4691D01*
D02*
G37*
G36*
X4080Y4631D02*
X4060D01*
Y4611D01*
X4065Y4612D01*
X4073Y4618D01*
X4079Y4626D01*
X4080Y4631D01*
D02*
G37*
G36*
X4060Y4660D02*
Y4641D01*
X4080D01*
X4079Y4646D01*
X4073Y4654D01*
X4065Y4659D01*
X4060Y4660D01*
D02*
G37*
G36*
X4050D02*
X4045Y4659D01*
X4037Y4654D01*
X4032Y4646D01*
X4031Y4641D01*
X4050D01*
Y4660D01*
D02*
G37*
G36*
Y4631D02*
X4031D01*
X4032Y4626D01*
X4037Y4618D01*
X4045Y4612D01*
X4050Y4611D01*
Y4631D01*
D02*
G37*
G36*
X6624Y4582D02*
X6614Y4580D01*
X6606Y4574D01*
X6600Y4566D01*
X6599Y4556D01*
X6600Y4546D01*
X6606Y4538D01*
X6614Y4533D01*
X6624Y4531D01*
X6634Y4533D01*
X6642Y4538D01*
X6648Y4546D01*
X6650Y4556D01*
X6648Y4566D01*
X6642Y4574D01*
X6634Y4580D01*
X6624Y4582D01*
D02*
G37*
G36*
X8337Y4563D02*
X8327Y4561D01*
X8319Y4555D01*
X8313Y4547D01*
X8311Y4537D01*
X8313Y4528D01*
X8319Y4519D01*
X8327Y4514D01*
X8337Y4512D01*
X8346Y4514D01*
X8355Y4519D01*
X8360Y4528D01*
X8362Y4537D01*
X8360Y4547D01*
X8355Y4555D01*
X8346Y4561D01*
X8337Y4563D01*
D02*
G37*
G36*
X8219Y4622D02*
X8209Y4620D01*
X8200Y4614D01*
X8195Y4606D01*
X8193Y4596D01*
X8195Y4587D01*
X8200Y4578D01*
X8209Y4573D01*
X8219Y4571D01*
X8228Y4573D01*
X8237Y4578D01*
X8242Y4587D01*
X8244Y4596D01*
X8242Y4606D01*
X8237Y4614D01*
X8228Y4620D01*
X8219Y4622D01*
D02*
G37*
G36*
X7992Y4592D02*
X7982Y4590D01*
X7974Y4585D01*
X7969Y4577D01*
X7967Y4567D01*
X7969Y4557D01*
X7974Y4549D01*
X7982Y4543D01*
X7992Y4541D01*
X8002Y4543D01*
X8010Y4549D01*
X8016Y4557D01*
X8018Y4567D01*
X8016Y4577D01*
X8010Y4585D01*
X8002Y4590D01*
X7992Y4592D01*
D02*
G37*
G36*
X7795Y4711D02*
X7786Y4709D01*
X7777Y4703D01*
X7772Y4695D01*
X7770Y4685D01*
X7772Y4675D01*
X7777Y4667D01*
X7786Y4661D01*
X7795Y4660D01*
X7805Y4661D01*
X7813Y4667D01*
X7819Y4675D01*
X7821Y4685D01*
X7819Y4695D01*
X7813Y4703D01*
X7805Y4709D01*
X7795Y4711D01*
D02*
G37*
G36*
X5202Y4719D02*
X5182D01*
Y4700D01*
X5187Y4701D01*
X5195Y4706D01*
X5201Y4715D01*
X5202Y4719D01*
D02*
G37*
G36*
X5172D02*
X5153D01*
X5154Y4715D01*
X5159Y4706D01*
X5167Y4701D01*
X5172Y4700D01*
Y4719D01*
D02*
G37*
G36*
X5182Y4749D02*
Y4729D01*
X5202D01*
X5201Y4734D01*
X5195Y4742D01*
X5187Y4748D01*
X5182Y4749D01*
D02*
G37*
G36*
X5172D02*
X5167Y4748D01*
X5159Y4742D01*
X5154Y4734D01*
X5153Y4729D01*
X5172D01*
Y4749D01*
D02*
G37*
G36*
X5413Y4750D02*
X5404Y4748D01*
X5395Y4742D01*
X5390Y4734D01*
X5388Y4724D01*
X5390Y4715D01*
X5395Y4706D01*
X5404Y4701D01*
X5413Y4699D01*
X5423Y4701D01*
X5431Y4706D01*
X5437Y4715D01*
X5439Y4724D01*
X5437Y4734D01*
X5431Y4742D01*
X5423Y4748D01*
X5413Y4750D01*
D02*
G37*
G36*
X2972Y4853D02*
X2955Y4851D01*
X2938Y4846D01*
X2923Y4838D01*
X2909Y4827D01*
X2898Y4813D01*
X2890Y4798D01*
X2885Y4781D01*
X2883Y4764D01*
X2885Y4746D01*
X2890Y4730D01*
X2898Y4714D01*
X2909Y4701D01*
X2923Y4690D01*
X2938Y4681D01*
X2955Y4676D01*
X2972Y4675D01*
X2990Y4676D01*
X3007Y4681D01*
X3022Y4690D01*
X3035Y4701D01*
X3047Y4714D01*
X3055Y4730D01*
X3060Y4746D01*
X3062Y4764D01*
X3060Y4781D01*
X3055Y4798D01*
X3047Y4813D01*
X3035Y4827D01*
X3022Y4838D01*
X3007Y4846D01*
X2990Y4851D01*
X2972Y4853D01*
D02*
G37*
G36*
X1535D02*
X1518Y4851D01*
X1501Y4846D01*
X1486Y4838D01*
X1472Y4827D01*
X1461Y4813D01*
X1453Y4798D01*
X1448Y4781D01*
X1446Y4764D01*
X1448Y4746D01*
X1453Y4730D01*
X1461Y4714D01*
X1472Y4701D01*
X1486Y4690D01*
X1501Y4681D01*
X1518Y4676D01*
X1535Y4675D01*
X1553Y4676D01*
X1570Y4681D01*
X1585Y4690D01*
X1598Y4701D01*
X1610Y4714D01*
X1618Y4730D01*
X1623Y4746D01*
X1625Y4764D01*
X1623Y4781D01*
X1618Y4798D01*
X1610Y4813D01*
X1598Y4827D01*
X1585Y4838D01*
X1570Y4846D01*
X1553Y4851D01*
X1535Y4853D01*
D02*
G37*
G36*
X3565Y4753D02*
X3555Y4752D01*
X3547Y4748D01*
X3540Y4743D01*
X3534Y4735D01*
X3530Y4727D01*
X3529Y4718D01*
X3530Y4709D01*
X3534Y4700D01*
X3540Y4693D01*
X3547Y4687D01*
X3555Y4684D01*
X3565Y4682D01*
X3574Y4684D01*
X3582Y4687D01*
X3590Y4693D01*
X3595Y4700D01*
X3599Y4709D01*
X3600Y4718D01*
X3599Y4727D01*
X3595Y4735D01*
X3590Y4743D01*
X3582Y4748D01*
X3574Y4752D01*
X3565Y4753D01*
D02*
G37*
G36*
X3365D02*
X3355Y4752D01*
X3347Y4748D01*
X3340Y4743D01*
X3334Y4735D01*
X3330Y4727D01*
X3329Y4718D01*
X3330Y4709D01*
X3334Y4700D01*
X3340Y4693D01*
X3347Y4687D01*
X3355Y4684D01*
X3365Y4682D01*
X3374Y4684D01*
X3382Y4687D01*
X3390Y4693D01*
X3395Y4700D01*
X3399Y4709D01*
X3400Y4718D01*
X3399Y4727D01*
X3395Y4735D01*
X3390Y4743D01*
X3382Y4748D01*
X3374Y4752D01*
X3365Y4753D01*
D02*
G37*
G36*
X3465Y4553D02*
X3455Y4552D01*
X3447Y4548D01*
X3440Y4543D01*
X3434Y4535D01*
X3430Y4527D01*
X3429Y4518D01*
X3430Y4509D01*
X3434Y4500D01*
X3440Y4493D01*
X3447Y4487D01*
X3455Y4484D01*
X3465Y4482D01*
X3474Y4484D01*
X3482Y4487D01*
X3490Y4493D01*
X3495Y4500D01*
X3499Y4509D01*
X3500Y4518D01*
X3499Y4527D01*
X3495Y4535D01*
X3490Y4543D01*
X3482Y4548D01*
X3474Y4552D01*
X3465Y4553D01*
D02*
G37*
G36*
X8219Y4228D02*
X8209Y4226D01*
X8200Y4221D01*
X8195Y4213D01*
X8193Y4203D01*
X8195Y4193D01*
X8200Y4185D01*
X8209Y4179D01*
X8219Y4177D01*
X8228Y4179D01*
X8237Y4185D01*
X8242Y4193D01*
X8244Y4203D01*
X8242Y4213D01*
X8237Y4221D01*
X8228Y4226D01*
X8219Y4228D01*
D02*
G37*
G36*
X8337Y4218D02*
X8327Y4216D01*
X8319Y4211D01*
X8313Y4203D01*
X8311Y4193D01*
X8313Y4183D01*
X8319Y4175D01*
X8327Y4169D01*
X8337Y4167D01*
X8346Y4169D01*
X8355Y4175D01*
X8360Y4183D01*
X8362Y4193D01*
X8360Y4203D01*
X8355Y4211D01*
X8346Y4216D01*
X8337Y4218D01*
D02*
G37*
G36*
X4793Y4317D02*
X4784Y4315D01*
X4775Y4309D01*
X4770Y4301D01*
X4768Y4291D01*
X4770Y4282D01*
X4775Y4273D01*
X4784Y4268D01*
X4793Y4266D01*
X4803Y4268D01*
X4811Y4273D01*
X4817Y4282D01*
X4819Y4291D01*
X4817Y4301D01*
X4811Y4309D01*
X4803Y4315D01*
X4793Y4317D01*
D02*
G37*
G36*
X7923Y4297D02*
X7913Y4295D01*
X7905Y4290D01*
X7900Y4281D01*
X7898Y4272D01*
X7900Y4262D01*
X7905Y4254D01*
X7913Y4248D01*
X7923Y4246D01*
X7933Y4248D01*
X7941Y4254D01*
X7947Y4262D01*
X7949Y4272D01*
X7947Y4281D01*
X7941Y4290D01*
X7933Y4295D01*
X7923Y4297D01*
D02*
G37*
G36*
X2825Y5404D02*
X1683D01*
X1679Y5403D01*
X1676Y5401D01*
X1674Y5398D01*
X1673Y5394D01*
Y4134D01*
X1674Y4130D01*
X1676Y4127D01*
X1679Y4124D01*
X1683Y4124D01*
X2825D01*
X2829Y4124D01*
X2832Y4127D01*
X2834Y4130D01*
X2835Y4134D01*
Y5394D01*
X2834Y5398D01*
X2832Y5401D01*
X2829Y5403D01*
X2825Y5404D01*
D02*
G37*
G36*
X8219Y4130D02*
X8209Y4128D01*
X8200Y4122D01*
X8195Y4114D01*
X8193Y4104D01*
X8195Y4095D01*
X8200Y4086D01*
X8209Y4081D01*
X8219Y4079D01*
X8228Y4081D01*
X8237Y4086D01*
X8242Y4095D01*
X8244Y4104D01*
X8242Y4114D01*
X8237Y4122D01*
X8228Y4128D01*
X8219Y4130D01*
D02*
G37*
G36*
X4872Y4071D02*
X4862Y4069D01*
X4854Y4063D01*
X4848Y4055D01*
X4847Y4045D01*
X4848Y4036D01*
X4854Y4027D01*
X4862Y4022D01*
X4872Y4020D01*
X4882Y4022D01*
X4890Y4027D01*
X4896Y4036D01*
X4898Y4045D01*
X4896Y4055D01*
X4890Y4063D01*
X4882Y4069D01*
X4872Y4071D01*
D02*
G37*
G36*
X6742Y4159D02*
X6732Y4157D01*
X6724Y4152D01*
X6719Y4144D01*
X6717Y4134D01*
X6719Y4124D01*
X6724Y4116D01*
X6732Y4110D01*
X6742Y4108D01*
X6752Y4110D01*
X6760Y4116D01*
X6766Y4124D01*
X6768Y4134D01*
X6766Y4144D01*
X6760Y4152D01*
X6752Y4157D01*
X6742Y4159D01*
D02*
G37*
G36*
X6486D02*
X6476Y4157D01*
X6468Y4152D01*
X6463Y4144D01*
X6461Y4134D01*
X6463Y4124D01*
X6468Y4116D01*
X6476Y4110D01*
X6486Y4108D01*
X6496Y4110D01*
X6504Y4116D01*
X6510Y4124D01*
X6512Y4134D01*
X6510Y4144D01*
X6504Y4152D01*
X6496Y4157D01*
X6486Y4159D01*
D02*
G37*
G36*
X8219Y4327D02*
X8209Y4325D01*
X8200Y4319D01*
X8195Y4311D01*
X8193Y4301D01*
X8195Y4291D01*
X8200Y4283D01*
X8209Y4278D01*
X8219Y4276D01*
X8228Y4278D01*
X8237Y4283D01*
X8242Y4291D01*
X8244Y4301D01*
X8242Y4311D01*
X8237Y4319D01*
X8228Y4325D01*
X8219Y4327D01*
D02*
G37*
G36*
X4114Y4509D02*
X4106Y4508D01*
X4099Y4505D01*
X4093Y4500D01*
X4088Y4493D01*
X4085Y4486D01*
X4084Y4478D01*
X4085Y4471D01*
X4088Y4463D01*
X4093Y4457D01*
X4099Y4452D01*
X4106Y4449D01*
X4114Y4448D01*
X4122Y4449D01*
X4129Y4452D01*
X4136Y4457D01*
X4140Y4463D01*
X4143Y4471D01*
X4144Y4478D01*
X4143Y4486D01*
X4140Y4493D01*
X4136Y4500D01*
X4129Y4505D01*
X4122Y4508D01*
X4114Y4509D01*
D02*
G37*
G36*
X8100Y4474D02*
X8091Y4472D01*
X8082Y4467D01*
X8077Y4459D01*
X8075Y4449D01*
X8077Y4439D01*
X8082Y4431D01*
X8091Y4425D01*
X8100Y4423D01*
X8110Y4425D01*
X8118Y4431D01*
X8124Y4439D01*
X8126Y4449D01*
X8124Y4459D01*
X8118Y4467D01*
X8110Y4472D01*
X8100Y4474D01*
D02*
G37*
G36*
X7923Y4533D02*
X7913Y4531D01*
X7905Y4526D01*
X7900Y4518D01*
X7898Y4508D01*
X7900Y4498D01*
X7905Y4490D01*
X7913Y4484D01*
X7923Y4482D01*
X7933Y4484D01*
X7941Y4490D01*
X7947Y4498D01*
X7949Y4508D01*
X7947Y4518D01*
X7941Y4526D01*
X7933Y4531D01*
X7923Y4533D01*
D02*
G37*
G36*
X8219Y4524D02*
X8209Y4522D01*
X8200Y4516D01*
X8195Y4508D01*
X8193Y4498D01*
X8195Y4488D01*
X8200Y4480D01*
X8209Y4474D01*
X8219Y4473D01*
X8228Y4474D01*
X8237Y4480D01*
X8242Y4488D01*
X8244Y4498D01*
X8242Y4508D01*
X8237Y4516D01*
X8228Y4522D01*
X8219Y4524D01*
D02*
G37*
G36*
X8002Y4474D02*
X7992Y4472D01*
X7984Y4467D01*
X7978Y4459D01*
X7976Y4449D01*
X7978Y4439D01*
X7984Y4431D01*
X7992Y4425D01*
X8002Y4423D01*
X8012Y4425D01*
X8020Y4431D01*
X8026Y4439D01*
X8027Y4449D01*
X8026Y4459D01*
X8020Y4467D01*
X8012Y4472D01*
X8002Y4474D01*
D02*
G37*
G36*
X7923Y4386D02*
X7913Y4384D01*
X7905Y4378D01*
X7900Y4370D01*
X7898Y4360D01*
X7900Y4350D01*
X7905Y4342D01*
X7913Y4337D01*
X7923Y4335D01*
X7933Y4337D01*
X7941Y4342D01*
X7947Y4350D01*
X7949Y4360D01*
X7947Y4370D01*
X7941Y4378D01*
X7933Y4384D01*
X7923Y4386D01*
D02*
G37*
G36*
X4262Y4346D02*
X4252Y4344D01*
X4244Y4339D01*
X4238Y4331D01*
X4236Y4321D01*
X4238Y4311D01*
X4244Y4303D01*
X4252Y4297D01*
X4262Y4295D01*
X4272Y4297D01*
X4280Y4303D01*
X4285Y4311D01*
X4287Y4321D01*
X4285Y4331D01*
X4280Y4339D01*
X4272Y4344D01*
X4262Y4346D01*
D02*
G37*
G36*
X8219Y4425D02*
X8209Y4423D01*
X8200Y4418D01*
X8195Y4409D01*
X8193Y4400D01*
X8195Y4390D01*
X8200Y4382D01*
X8209Y4376D01*
X8219Y4374D01*
X8228Y4376D01*
X8237Y4382D01*
X8242Y4390D01*
X8244Y4400D01*
X8242Y4409D01*
X8237Y4418D01*
X8228Y4423D01*
X8219Y4425D01*
D02*
G37*
G36*
X3720Y4405D02*
X3711Y4403D01*
X3702Y4398D01*
X3697Y4390D01*
X3695Y4380D01*
X3697Y4370D01*
X3702Y4362D01*
X3711Y4356D01*
X3720Y4354D01*
X3730Y4356D01*
X3738Y4362D01*
X3744Y4370D01*
X3746Y4380D01*
X3744Y4390D01*
X3738Y4398D01*
X3730Y4403D01*
X3720Y4405D01*
D02*
G37*
G36*
X7815Y5065D02*
X7805Y5063D01*
X7797Y5057D01*
X7791Y5049D01*
X7789Y5039D01*
X7791Y5030D01*
X7797Y5021D01*
X7805Y5016D01*
X7815Y5014D01*
X7825Y5016D01*
X7833Y5021D01*
X7838Y5030D01*
X7840Y5039D01*
X7838Y5049D01*
X7833Y5057D01*
X7825Y5063D01*
X7815Y5065D01*
D02*
G37*
G36*
X6378D02*
X6368Y5063D01*
X6360Y5057D01*
X6354Y5049D01*
X6352Y5039D01*
X6354Y5030D01*
X6360Y5021D01*
X6368Y5016D01*
X6378Y5014D01*
X6388Y5016D01*
X6396Y5021D01*
X6402Y5030D01*
X6403Y5039D01*
X6402Y5049D01*
X6396Y5057D01*
X6388Y5063D01*
X6378Y5065D01*
D02*
G37*
G36*
X8593Y5085D02*
X8583Y5083D01*
X8574Y5077D01*
X8569Y5069D01*
X8567Y5059D01*
X8569Y5049D01*
X8574Y5041D01*
X8583Y5036D01*
X8593Y5034D01*
X8602Y5036D01*
X8611Y5041D01*
X8616Y5049D01*
X8618Y5059D01*
X8616Y5069D01*
X8611Y5077D01*
X8602Y5083D01*
X8593Y5085D01*
D02*
G37*
G36*
X3642Y5075D02*
X3632Y5073D01*
X3624Y5067D01*
X3618Y5059D01*
X3616Y5049D01*
X3618Y5039D01*
X3624Y5031D01*
X3632Y5026D01*
X3642Y5024D01*
X3651Y5026D01*
X3660Y5031D01*
X3665Y5039D01*
X3667Y5049D01*
X3665Y5059D01*
X3660Y5067D01*
X3651Y5073D01*
X3642Y5075D01*
D02*
G37*
G36*
X8022Y5153D02*
X8012Y5152D01*
X8004Y5146D01*
X7998Y5138D01*
X7996Y5128D01*
X7998Y5118D01*
X8004Y5110D01*
X8009Y5106D01*
Y5100D01*
X8004Y5097D01*
X7998Y5088D01*
X7996Y5079D01*
X7998Y5069D01*
X8004Y5061D01*
X8009Y5057D01*
Y5051D01*
X8004Y5048D01*
X7998Y5039D01*
X7996Y5030D01*
X7998Y5020D01*
X8004Y5012D01*
X8012Y5006D01*
X8022Y5004D01*
X8031Y5006D01*
X8040Y5012D01*
X8045Y5020D01*
X8047Y5030D01*
X8045Y5039D01*
X8040Y5048D01*
X8034Y5051D01*
Y5057D01*
X8040Y5061D01*
X8045Y5069D01*
X8047Y5079D01*
X8045Y5088D01*
X8040Y5097D01*
X8034Y5100D01*
Y5106D01*
X8040Y5110D01*
X8045Y5118D01*
X8047Y5128D01*
X8045Y5138D01*
X8040Y5146D01*
X8031Y5152D01*
X8022Y5153D01*
D02*
G37*
G36*
X6565Y5025D02*
X6555Y5024D01*
X6547Y5018D01*
X6541Y5010D01*
X6539Y5000D01*
X6541Y4990D01*
X6547Y4982D01*
X6555Y4976D01*
X6565Y4975D01*
X6575Y4976D01*
X6583Y4982D01*
X6589Y4990D01*
X6590Y5000D01*
X6589Y5010D01*
X6583Y5018D01*
X6575Y5024D01*
X6565Y5025D01*
D02*
G37*
G36*
X3839D02*
X3829Y5024D01*
X3821Y5018D01*
X3815Y5010D01*
X3813Y5000D01*
X3815Y4990D01*
X3821Y4982D01*
X3829Y4976D01*
X3839Y4975D01*
X3848Y4976D01*
X3857Y4982D01*
X3862Y4990D01*
X3864Y5000D01*
X3862Y5010D01*
X3857Y5018D01*
X3848Y5024D01*
X3839Y5025D01*
D02*
G37*
G36*
X3130Y5055D02*
X3120Y5053D01*
X3112Y5048D01*
X3106Y5039D01*
X3104Y5030D01*
X3106Y5020D01*
X3112Y5012D01*
X3120Y5006D01*
X3130Y5004D01*
X3140Y5006D01*
X3148Y5012D01*
X3153Y5020D01*
X3155Y5030D01*
X3153Y5039D01*
X3148Y5048D01*
X3140Y5053D01*
X3130Y5055D01*
D02*
G37*
G36*
X4648Y5064D02*
X4565D01*
Y4981D01*
X4648D01*
Y5064D01*
D02*
G37*
G36*
X9214Y5188D02*
X9201Y5187D01*
X9189Y5183D01*
X9178Y5177D01*
X9168Y5169D01*
X9160Y5159D01*
X9154Y5148D01*
X9150Y5136D01*
X9149Y5123D01*
X9150Y5110D01*
X9154Y5098D01*
X9160Y5087D01*
X9168Y5077D01*
X9178Y5069D01*
X9189Y5062D01*
X9201Y5059D01*
X9214Y5058D01*
X9227Y5059D01*
X9239Y5062D01*
X9250Y5069D01*
X9260Y5077D01*
X9268Y5087D01*
X9275Y5098D01*
X9278Y5110D01*
X9279Y5123D01*
X9278Y5136D01*
X9275Y5148D01*
X9268Y5159D01*
X9260Y5169D01*
X9250Y5177D01*
X9239Y5183D01*
X9227Y5187D01*
X9214Y5188D01*
D02*
G37*
G36*
X4112Y5291D02*
X4103Y5290D01*
X4094Y5286D01*
X4086Y5280D01*
X4080Y5272D01*
X4076Y5263D01*
X4075Y5254D01*
X4076Y5244D01*
X4080Y5235D01*
X4086Y5227D01*
X4094Y5221D01*
X4103Y5218D01*
X4112Y5216D01*
X4122Y5218D01*
X4131Y5221D01*
X4139Y5227D01*
X4144Y5235D01*
X4148Y5244D01*
X4149Y5254D01*
X4148Y5263D01*
X4144Y5272D01*
X4139Y5280D01*
X4131Y5286D01*
X4122Y5290D01*
X4112Y5291D01*
D02*
G37*
G36*
X4012D02*
X4003Y5290D01*
X3994Y5286D01*
X3986Y5280D01*
X3980Y5272D01*
X3976Y5263D01*
X3975Y5254D01*
X3976Y5244D01*
X3980Y5235D01*
X3986Y5227D01*
X3994Y5221D01*
X4003Y5218D01*
X4012Y5216D01*
X4022Y5218D01*
X4031Y5221D01*
X4039Y5227D01*
X4044Y5235D01*
X4048Y5244D01*
X4049Y5254D01*
X4048Y5263D01*
X4044Y5272D01*
X4039Y5280D01*
X4031Y5286D01*
X4022Y5290D01*
X4012Y5291D01*
D02*
G37*
G36*
X4312D02*
X4303Y5290D01*
X4294Y5286D01*
X4286Y5280D01*
X4280Y5272D01*
X4276Y5263D01*
X4275Y5254D01*
X4276Y5244D01*
X4280Y5235D01*
X4286Y5227D01*
X4294Y5221D01*
X4303Y5218D01*
X4312Y5216D01*
X4322Y5218D01*
X4331Y5221D01*
X4339Y5227D01*
X4344Y5235D01*
X4348Y5244D01*
X4349Y5254D01*
X4348Y5263D01*
X4344Y5272D01*
X4339Y5280D01*
X4331Y5286D01*
X4322Y5290D01*
X4312Y5291D01*
D02*
G37*
G36*
X4212D02*
X4203Y5290D01*
X4194Y5286D01*
X4186Y5280D01*
X4180Y5272D01*
X4176Y5263D01*
X4175Y5254D01*
X4176Y5244D01*
X4180Y5235D01*
X4186Y5227D01*
X4194Y5221D01*
X4203Y5218D01*
X4212Y5216D01*
X4222Y5218D01*
X4231Y5221D01*
X4239Y5227D01*
X4244Y5235D01*
X4248Y5244D01*
X4249Y5254D01*
X4248Y5263D01*
X4244Y5272D01*
X4239Y5280D01*
X4231Y5286D01*
X4222Y5290D01*
X4212Y5291D01*
D02*
G37*
G36*
X3506Y5297D02*
X3423D01*
Y5214D01*
X3506D01*
Y5297D01*
D02*
G37*
G36*
X8445Y5183D02*
X8435Y5181D01*
X8427Y5176D01*
X8421Y5167D01*
X8419Y5157D01*
X8421Y5148D01*
X8427Y5139D01*
X8435Y5134D01*
X8445Y5132D01*
X8455Y5134D01*
X8463Y5139D01*
X8468Y5148D01*
X8470Y5157D01*
X8468Y5167D01*
X8463Y5176D01*
X8455Y5181D01*
X8445Y5183D01*
D02*
G37*
G36*
X7638Y5139D02*
X7627Y5137D01*
X7618Y5133D01*
X7609Y5127D01*
X7603Y5119D01*
X7599Y5109D01*
X7598Y5098D01*
X7599Y5088D01*
X7603Y5078D01*
X7609Y5070D01*
X7618Y5064D01*
X7627Y5060D01*
X7638Y5058D01*
X7648Y5060D01*
X7658Y5064D01*
X7666Y5070D01*
X7673Y5078D01*
X7677Y5088D01*
X7678Y5098D01*
X7677Y5109D01*
X7673Y5119D01*
X7666Y5127D01*
X7658Y5133D01*
X7648Y5137D01*
X7638Y5139D01*
D02*
G37*
G36*
X3565Y5298D02*
X3554Y5296D01*
X3544Y5292D01*
X3535Y5286D01*
X3528Y5277D01*
X3524Y5267D01*
X3523Y5256D01*
X3524Y5245D01*
X3528Y5235D01*
X3535Y5226D01*
X3544Y5220D01*
X3554Y5215D01*
X3565Y5214D01*
X3575Y5215D01*
X3585Y5220D01*
X3594Y5226D01*
X3601Y5235D01*
X3605Y5245D01*
X3606Y5256D01*
X3605Y5267D01*
X3601Y5277D01*
X3594Y5286D01*
X3585Y5292D01*
X3575Y5296D01*
X3565Y5298D01*
D02*
G37*
G36*
X7678Y5256D02*
X7598D01*
Y5177D01*
X7678D01*
Y5256D01*
D02*
G37*
G36*
X7795Y5006D02*
X7786Y5004D01*
X7777Y4998D01*
X7772Y4990D01*
X7770Y4980D01*
X7772Y4971D01*
X7777Y4962D01*
X7786Y4957D01*
X7795Y4955D01*
X7805Y4957D01*
X7813Y4962D01*
X7819Y4971D01*
X7821Y4980D01*
X7819Y4990D01*
X7813Y4998D01*
X7805Y5004D01*
X7795Y5006D01*
D02*
G37*
G36*
X6329Y4838D02*
X6319Y4837D01*
X6311Y4831D01*
X6305Y4823D01*
X6303Y4813D01*
X6305Y4803D01*
X6311Y4795D01*
X6319Y4789D01*
X6329Y4788D01*
X6338Y4789D01*
X6347Y4795D01*
X6352Y4803D01*
X6354Y4813D01*
X6352Y4823D01*
X6347Y4831D01*
X6338Y4837D01*
X6329Y4838D01*
D02*
G37*
G36*
X4606Y4865D02*
X4595Y4863D01*
X4585Y4859D01*
X4577Y4852D01*
X4570Y4844D01*
X4566Y4834D01*
X4564Y4823D01*
X4566Y4812D01*
X4570Y4802D01*
X4577Y4793D01*
X4585Y4787D01*
X4595Y4782D01*
X4606Y4781D01*
X4617Y4782D01*
X4627Y4787D01*
X4636Y4793D01*
X4643Y4802D01*
X4647Y4812D01*
X4648Y4823D01*
X4647Y4834D01*
X4643Y4844D01*
X4636Y4852D01*
X4627Y4859D01*
X4617Y4863D01*
X4606Y4865D01*
D02*
G37*
G36*
X6713Y4868D02*
X6703Y4866D01*
X6695Y4861D01*
X6689Y4852D01*
X6687Y4843D01*
X6689Y4833D01*
X6695Y4824D01*
X6703Y4819D01*
X6713Y4817D01*
X6722Y4819D01*
X6731Y4824D01*
X6736Y4833D01*
X6738Y4843D01*
X6736Y4852D01*
X6731Y4861D01*
X6722Y4866D01*
X6713Y4868D01*
D02*
G37*
G36*
X7638Y4928D02*
X7623Y4926D01*
X7609Y4920D01*
X7597Y4911D01*
X7588Y4899D01*
X7582Y4885D01*
X7580Y4870D01*
X7582Y4855D01*
X7588Y4841D01*
X7597Y4829D01*
X7609Y4820D01*
X7623Y4815D01*
X7638Y4813D01*
X7653Y4815D01*
X7667Y4820D01*
X7678Y4829D01*
X7688Y4841D01*
X7693Y4855D01*
X7695Y4870D01*
X7693Y4885D01*
X7688Y4899D01*
X7678Y4911D01*
X7667Y4920D01*
X7653Y4926D01*
X7638Y4928D01*
D02*
G37*
G36*
X9314Y4888D02*
X9301Y4887D01*
X9289Y4883D01*
X9278Y4877D01*
X9268Y4869D01*
X9260Y4859D01*
X9254Y4848D01*
X9250Y4836D01*
X9249Y4823D01*
X9250Y4810D01*
X9254Y4798D01*
X9260Y4787D01*
X9268Y4777D01*
X9278Y4769D01*
X9289Y4762D01*
X9301Y4759D01*
X9314Y4758D01*
X9327Y4759D01*
X9339Y4762D01*
X9350Y4769D01*
X9360Y4777D01*
X9368Y4787D01*
X9375Y4798D01*
X9378Y4810D01*
X9379Y4823D01*
X9378Y4836D01*
X9375Y4848D01*
X9368Y4859D01*
X9360Y4869D01*
X9350Y4877D01*
X9339Y4883D01*
X9327Y4887D01*
X9314Y4888D01*
D02*
G37*
G36*
X8583Y4789D02*
X8573Y4787D01*
X8565Y4782D01*
X8559Y4774D01*
X8557Y4764D01*
X8559Y4754D01*
X8565Y4746D01*
X8573Y4740D01*
X8583Y4738D01*
X8592Y4740D01*
X8601Y4746D01*
X8606Y4754D01*
X8608Y4764D01*
X8606Y4774D01*
X8601Y4782D01*
X8592Y4787D01*
X8583Y4789D01*
D02*
G37*
G36*
X8051D02*
X8041Y4787D01*
X8033Y4782D01*
X8028Y4774D01*
X8026Y4764D01*
X8028Y4754D01*
X8033Y4746D01*
X8041Y4740D01*
X8051Y4738D01*
X8061Y4740D01*
X8069Y4746D01*
X8075Y4754D01*
X8077Y4764D01*
X8075Y4774D01*
X8069Y4782D01*
X8061Y4787D01*
X8051Y4789D01*
D02*
G37*
G36*
X9114Y4888D02*
X9101Y4887D01*
X9089Y4883D01*
X9078Y4877D01*
X9068Y4869D01*
X9060Y4859D01*
X9054Y4848D01*
X9050Y4836D01*
X9049Y4823D01*
X9050Y4810D01*
X9054Y4798D01*
X9060Y4787D01*
X9068Y4777D01*
X9078Y4769D01*
X9089Y4762D01*
X9101Y4759D01*
X9114Y4758D01*
X9127Y4759D01*
X9139Y4762D01*
X9150Y4769D01*
X9160Y4777D01*
X9168Y4787D01*
X9175Y4798D01*
X9178Y4810D01*
X9179Y4823D01*
X9178Y4836D01*
X9175Y4848D01*
X9168Y4859D01*
X9160Y4869D01*
X9150Y4877D01*
X9139Y4883D01*
X9127Y4887D01*
X9114Y4888D01*
D02*
G37*
G36*
X3996Y4799D02*
X3986Y4797D01*
X3978Y4792D01*
X3973Y4783D01*
X3971Y4774D01*
X3973Y4764D01*
X3978Y4756D01*
X3986Y4750D01*
X3996Y4748D01*
X4006Y4750D01*
X4014Y4756D01*
X4020Y4764D01*
X4022Y4774D01*
X4020Y4783D01*
X4014Y4792D01*
X4006Y4797D01*
X3996Y4799D01*
D02*
G37*
G36*
X6629Y4838D02*
X6609D01*
X6610Y4833D01*
X6616Y4824D01*
X6624Y4819D01*
X6629Y4818D01*
Y4838D01*
D02*
G37*
G36*
X4606Y4965D02*
X4595Y4963D01*
X4585Y4959D01*
X4577Y4952D01*
X4570Y4944D01*
X4566Y4934D01*
X4564Y4923D01*
X4566Y4912D01*
X4570Y4902D01*
X4577Y4893D01*
X4585Y4887D01*
X4595Y4882D01*
X4606Y4881D01*
X4617Y4882D01*
X4627Y4887D01*
X4636Y4893D01*
X4643Y4902D01*
X4647Y4912D01*
X4648Y4923D01*
X4647Y4934D01*
X4643Y4944D01*
X4636Y4952D01*
X4627Y4959D01*
X4617Y4963D01*
X4606Y4965D01*
D02*
G37*
G36*
X8760Y4927D02*
X8750Y4925D01*
X8742Y4920D01*
X8737Y4912D01*
X8735Y4902D01*
X8737Y4892D01*
X8742Y4884D01*
X8750Y4878D01*
X8760Y4876D01*
X8770Y4878D01*
X8778Y4884D01*
X8784Y4892D01*
X8786Y4902D01*
X8784Y4912D01*
X8778Y4920D01*
X8770Y4925D01*
X8760Y4927D01*
D02*
G37*
G36*
X7480Y4996D02*
X7471Y4994D01*
X7462Y4988D01*
X7457Y4980D01*
X7455Y4970D01*
X7457Y4961D01*
X7462Y4952D01*
X7471Y4947D01*
X7480Y4945D01*
X7490Y4947D01*
X7498Y4952D01*
X7504Y4961D01*
X7506Y4970D01*
X7504Y4980D01*
X7498Y4988D01*
X7490Y4994D01*
X7480Y4996D01*
D02*
G37*
G36*
X7638Y5020D02*
X7627Y5019D01*
X7618Y5015D01*
X7609Y5009D01*
X7603Y5000D01*
X7599Y4991D01*
X7598Y4980D01*
X7599Y4970D01*
X7603Y4960D01*
X7609Y4952D01*
X7618Y4946D01*
X7627Y4942D01*
X7638Y4940D01*
X7648Y4942D01*
X7658Y4946D01*
X7666Y4952D01*
X7673Y4960D01*
X7677Y4970D01*
X7678Y4980D01*
X7677Y4991D01*
X7673Y5000D01*
X7666Y5009D01*
X7658Y5015D01*
X7648Y5019D01*
X7638Y5020D01*
D02*
G37*
G36*
X7854Y4907D02*
X7845Y4905D01*
X7836Y4900D01*
X7831Y4892D01*
X7829Y4882D01*
X7831Y4872D01*
X7836Y4864D01*
X7845Y4858D01*
X7854Y4856D01*
X7864Y4858D01*
X7872Y4864D01*
X7878Y4872D01*
X7880Y4882D01*
X7878Y4892D01*
X7872Y4900D01*
X7864Y4905D01*
X7854Y4907D01*
D02*
G37*
G36*
X6629Y4867D02*
X6624Y4866D01*
X6616Y4861D01*
X6610Y4852D01*
X6609Y4848D01*
X6629D01*
Y4867D01*
D02*
G37*
G36*
X6658Y4838D02*
X6639D01*
Y4818D01*
X6644Y4819D01*
X6652Y4824D01*
X6657Y4833D01*
X6658Y4838D01*
D02*
G37*
G36*
X8031Y4907D02*
X8022Y4905D01*
X8013Y4900D01*
X8008Y4892D01*
X8006Y4882D01*
X8008Y4872D01*
X8013Y4864D01*
X8022Y4858D01*
X8031Y4856D01*
X8041Y4858D01*
X8050Y4864D01*
X8055Y4872D01*
X8057Y4882D01*
X8055Y4892D01*
X8050Y4900D01*
X8041Y4905D01*
X8031Y4907D01*
D02*
G37*
G36*
X6639Y4867D02*
Y4848D01*
X6658D01*
X6657Y4852D01*
X6652Y4861D01*
X6644Y4866D01*
X6639Y4867D01*
D02*
G37*
%LPD*%
D48*
X1683Y4134D02*
X2825D01*
Y5394D01*
X1683D02*
X2825D01*
X1683Y4134D02*
Y5394D01*
X1378Y1575D02*
X9646D01*
Y5512D01*
X1378D02*
X9646D01*
X1378Y1575D02*
Y5512D01*
D49*
X10323Y1816D02*
X10306Y1832D01*
X10273D01*
X10256Y1816D01*
Y1799D01*
X10273Y1782D01*
X10306D01*
X10323Y1766D01*
Y1749D01*
X10306Y1732D01*
X10273D01*
X10256Y1749D01*
X10356Y1832D02*
X10390D01*
X10373D01*
Y1732D01*
X10356D01*
X10390D01*
X10506Y1816D02*
X10489Y1832D01*
X10456D01*
X10439Y1816D01*
Y1749D01*
X10456Y1732D01*
X10489D01*
X10506Y1749D01*
Y1782D01*
X10473D01*
X10539Y1732D02*
Y1832D01*
X10606Y1732D01*
Y1832D01*
X10639Y1732D02*
Y1799D01*
X10673Y1832D01*
X10706Y1799D01*
Y1732D01*
Y1782D01*
X10639D01*
X10739Y1832D02*
Y1732D01*
X10806D01*
X10939Y1832D02*
Y1732D01*
X11006D01*
X11039D02*
Y1799D01*
X11073Y1832D01*
X11106Y1799D01*
Y1732D01*
Y1782D01*
X11039D01*
X11139Y1832D02*
Y1816D01*
X11173Y1782D01*
X11206Y1816D01*
Y1832D01*
X11173Y1782D02*
Y1732D01*
X11306Y1832D02*
X11239D01*
Y1732D01*
X11306D01*
X11239Y1782D02*
X11273D01*
X11339Y1732D02*
Y1832D01*
X11389D01*
X11406Y1816D01*
Y1782D01*
X11389Y1766D01*
X11339D01*
X11373D02*
X11406Y1732D01*
X11606D02*
X11539D01*
X11606Y1799D01*
Y1816D01*
X11589Y1832D01*
X11556D01*
X11539Y1816D01*
X10256Y1675D02*
Y1575D01*
X10306D01*
X10323Y1591D01*
Y1608D01*
X10306Y1625D01*
X10256D01*
X10306D01*
X10323Y1641D01*
Y1658D01*
X10306Y1675D01*
X10256D01*
X10406D02*
X10373D01*
X10356Y1658D01*
Y1591D01*
X10373Y1575D01*
X10406D01*
X10423Y1591D01*
Y1658D01*
X10406Y1675D01*
X10456Y1575D02*
Y1641D01*
X10489Y1675D01*
X10523Y1641D01*
Y1575D01*
Y1625D01*
X10456D01*
X10556Y1575D02*
Y1675D01*
X10606D01*
X10623Y1658D01*
Y1625D01*
X10606Y1608D01*
X10556D01*
X10589D02*
X10623Y1575D01*
X10656Y1675D02*
Y1575D01*
X10706D01*
X10723Y1591D01*
Y1658D01*
X10706Y1675D01*
X10656D01*
X10906D02*
X10873D01*
X10856Y1658D01*
Y1591D01*
X10873Y1575D01*
X10906D01*
X10923Y1591D01*
Y1658D01*
X10906Y1675D01*
X10956D02*
Y1591D01*
X10973Y1575D01*
X11006D01*
X11023Y1591D01*
Y1675D01*
X11056D02*
X11123D01*
X11089D01*
Y1575D01*
X11156Y1675D02*
Y1575D01*
X11223D01*
X11256Y1675D02*
X11289D01*
X11273D01*
Y1575D01*
X11256D01*
X11289D01*
X11339D02*
Y1675D01*
X11406Y1575D01*
Y1675D01*
X11506D02*
X11439D01*
Y1575D01*
X11506D01*
X11439Y1625D02*
X11472D01*
D63*
X3054Y3917D02*
D03*
D64*
X6612Y5254D02*
D03*
Y5354D02*
D03*
X5712Y5254D02*
D03*
Y5354D02*
D03*
X4812Y5254D02*
D03*
Y5354D02*
D03*
X3912Y5254D02*
D03*
Y5354D02*
D03*
D71*
X5532Y2520D02*
D03*
X5728Y2520D02*
D03*
X6417Y3602D02*
D03*
X6979Y3878D02*
D03*
X6634Y4843D02*
D03*
X6201Y1811D02*
D03*
X6122Y2520D02*
D03*
X5945D02*
D03*
X5876Y2333D02*
D03*
X5177Y4724D02*
D03*
X4695Y3504D02*
D03*
X5276Y3819D02*
D03*
X1732Y2047D02*
D03*
X2618D02*
D03*
X3543D02*
D03*
X4419Y2884D02*
D03*
Y3898D02*
D03*
X4055Y4636D02*
D03*
M02*
