M48
;Layer_Color=6321
;FILE_FORMAT=2:3
INCH,TZ
;TYPE=PLATED
T1F00S00C0.015
T2F00S00C0.020
T3F00S00C0.030
T4F00S00C0.035
T5F00S00C0.036
T6F00S00C0.040
T7F00S00C0.063
T8F00S00C0.070
T9F00S00C0.071
T10F00S00C0.083
T11F00S00C0.130
;TYPE=NON_PLATED
T12F00S00C0.120
T13F00S00C0.130
%
T01
X8563Y1713
X8878Y1772
X9016Y1850
X8780Y2047
X8937Y2205
X8543Y2195
X8465Y2815
Y3110
X7933Y3051
X8110Y2717
X8878Y2559
X7746Y2864
X7756Y2973
X7244Y3012
X7264Y2205
X7382Y1870
X7677Y1909
X7618Y2077
X6890
X6752Y2185
X6299Y2067
Y2687
X6053
Y2579
X6122Y2520
X5945
X5827Y2520
X5728Y2520
X5768Y2579
X5532Y2520
X5679Y2165
X5974
X5876Y2333
X6201Y1811
Y1673
X5541Y1634
X4419Y2884
X3543Y2047
X2618
X1732
X1762Y1713
X3720Y4380
X4055Y4636
X4262Y4321
X4419Y3898
X4646Y3642
X4695Y3504
X4744Y3533
X4921Y3740
X4872Y4045
X4793Y4291
X5197Y3819
X5276
X5787Y3907
X5689Y3583
X4921Y3199
X6417Y3504
Y3602
X6693Y3583
X6900Y3878
X6979
X7067Y3917
X7106Y3445
X7717Y3858
X7795Y4685
X6565Y4665
X6624Y4556
X6742Y4134
X6486
X7923Y4272
Y4360
Y4508
X7992Y4567
X8002Y4449
X8100
X8219Y4400
Y4498
Y4596
X8337Y4537
Y4193
X8219Y4203
Y4301
Y4104
X8051Y3504
X8012Y3307
X8317Y3346
X8415
X8612Y3228
X8701
X8583Y4764
X8593Y5059
X8445Y5157
X8612Y5394
X8760Y4902
X8031Y4882
X8051Y4764
X8022Y5030
Y5079
Y5128
X7815Y5039
X7854Y4882
X7795Y4980
X7480Y4970
X7402Y5433
X6565Y5000
X6378Y5039
X6329Y4813
X6634Y4843
X6713
X5413Y4724
X5177
X3996Y4774
X3839Y5000
X3642Y5049
X3780Y5266
X3130Y5030
T02
X4114Y4478
X5384Y3789
Y3691
Y3593
X6496Y3780
X9213Y5335
X6506Y5354
Y5256
X4528Y5305
T03
X6747Y2413
Y2513
X7047
Y2413
Y2913
Y3013
X6747
Y2913
X3465Y4518
X3365Y4718
X3565
T04
X7951Y2559
X8051
X3054Y3917
X2954
X2854
X2754
X2654
X2554
X3154
X7498Y3878
X7598
X8268Y3858
Y3958
X8386Y3858
X8486
X4606Y4823
Y4923
Y5023
X3565Y5256
X3465
T05
X6693Y2079
T06
X8346Y1752
Y1831
Y1909
Y1988
Y2067
Y2146
X7638Y4980
Y5098
Y5217
X7112Y5254
X7012
X6912
X6812
X6712
X6612
Y5354
X6712
X6812
X6912
X7012
X7112
X6212
X6112
X6012
X5912
X5812
X5712
Y5254
X5812
X5912
X6012
X6112
X6212
X5312
X5212
X5112
X5012
X4912
X4812
Y5354
X4912
X5012
X5112
X5212
X5312
X4412
X4312
X4212
X4112
X4012
X3912
Y5254
X4012
X4112
X4212
X4312
X4412
T07
X7638Y4870
Y5327
T08
X9214Y2748
X9314Y3048
X9114
Y4823
X9314
X9214Y5123
T09
X6543Y1772
X6843
T10
X7913Y1732
Y2165
T11
X9508Y1713
X1516
X9508Y5374
X1516
T12
X4171Y2334
X1529
Y3892
X4171
T13
X2972Y4764
X1535
M30
