<?xml version="1.0" encoding="utf-8"?>
<!DOCTYPE svg PUBLIC "-//W3C//DTD SVG 20010904//EN" "http://www.w3.org/TR/2001/REC-SVG-20010904/DTD/svg10.dtd">
<svg version="1.0" xmlns="http://www.w3.org/2000/svg" width="700px" height="175px" viewBox="0 0 700 175" preserveAspectRatio="xMidYMid meet">
 <g fill="#858781">
  <path d="M30 127.5 c0 -6.8 0.2 -7.5 2 -7.5 1.8 0 2 0.7 2 7.5 0 6.8 -0.2 7.5 -2 7.5 -1.8 0 -2 -0.7 -2 -7.5z"/>
  <path d="M35.8 132.5 c-1.7 -3.8 0 -7.9 3.5 -8.3 1.9 -0.2 2.7 -0.9 2.7 -2.3 0 -1 0.7 -1.9 1.5 -1.9 1.2 0 1.5 1.5 1.5 7.5 l0 7.5 -4 0 c-3.4 0 -4.2 -0.4 -5.2 -2.5z m6 -3.6 c-0.3 -2.6 -1.8 -2.9 -3.2 -0.6 -0.7 1 -0.5 2.1 0.4 3.2 1.7 2 3.3 0.6 2.8 -2.6z"/>
  <path d="M46.8 132.5 c-0.8 -1.8 -0.9 -3.5 -0.2 -5.3 1.7 -5 10.4 -3.8 10.4 1.5 0 0.9 -1.4 1.3 -4.1 1.3 -3.6 0 -4 0.2 -2.9 1.5 1.5 1.8 5.5 1 8.1 -1.6 1.1 -1.1 2.8 -1.9 4 -1.9 1.1 0 1.7 -0.4 1.4 -1 -0.3 -0.5 -2 -0.6 -3.8 -0.3 -2.9 0.6 -3.1 0.5 -1.8 -1.1 1 -1.2 2.6 -1.6 5 -1.4 3.4 0.3 3.6 0.5 4.1 4.3 0.5 3.7 0.7 4 3.8 4.1 1.7 0.1 3.2 -0.2 3.2 -0.7 0 -0.5 -0.6 -0.9 -1.3 -0.9 -2.7 0 -5 -2.6 -4.2 -4.9 0.5 -1.8 1.3 -2.2 4.3 -1.9 1.9 0.2 3.8 0.9 4 1.7 0.3 1 -0.2 1.3 -2.2 0.9 -3.3 -0.7 -3.4 0.8 -0.1 1.6 3.1 0.8 4.2 3.1 2.5 5 -1.4 1.7 -17.6 2.1 -19.6 0.5 -0.8 -0.7 -1.4 -0.7 -1.9 0.1 -0.3 0.5 -2.2 1 -4.1 1 -2.7 0 -3.7 -0.5 -4.6 -2.5z"/>
  <path d="M84 127.4 c0 -7.2 0.1 -7.5 2.2 -7.2 1.6 0.2 2.6 1.6 3.7 5.1 l1.6 4.7 1.8 -5 c1.3 -3.7 2.3 -5 3.7 -5 1.8 0 2 0.7 2 7.5 0 6 -0.3 7.5 -1.5 7.5 -1.1 0 -1.5 -1.2 -1.6 -4.2 l-0.1 -4.3 -1.5 4.3 c-1.8 5.2 -4.1 5.3 -5.9 0.2 l-1.2 -3.5 -0.1 3.8 c-0.1 2.6 -0.5 3.7 -1.6 3.7 -1.2 0 -1.5 -1.5 -1.5 -7.6z"/>
  <path d="M100.4 133.5 c-1 -2.5 0.4 -4.5 3.6 -5.1 1.6 -0.4 2.7 -1 2.4 -1.5 -0.2 -0.5 -1.9 -0.5 -3.7 -0.2 -2.9 0.6 -3.1 0.5 -1.8 -1 1.6 -2 8 -2.3 8.5 -0.4 0.3 0.6 0.7 3.1 0.9 5.5 l0.5 4.2 -4.9 0 c-3.5 0 -5.1 -0.4 -5.5 -1.5z"/>
  <path d="M111.8 132.5 c-1.7 -3.8 0 -7.9 3.5 -8.3 1.9 -0.2 2.7 -0.9 2.7 -2.3 0 -1 0.7 -1.9 1.5 -1.9 1.2 0 1.5 1.5 1.5 7.5 l0 7.5 -4 0 c-3.4 0 -4.2 -0.4 -5.2 -2.5z m6 -3.6 c-0.3 -2.6 -1.8 -2.9 -3.2 -0.6 -0.7 1 -0.5 2.1 0.4 3.2 1.7 2 3.3 0.6 2.8 -2.6z"/>
  <path d="M122.8 132.5 c-0.8 -1.8 -0.9 -3.5 -0.2 -5.3 1.7 -5 10.4 -3.8 10.4 1.5 0 0.9 -1.4 1.3 -4.1 1.3 -3.5 0 -4 0.2 -2.9 1.5 0.8 1 2.2 1.2 4.3 0.8 2.9 -0.6 3.1 -0.5 1.8 1 -0.8 1 -2.8 1.7 -4.7 1.7 -2.7 0 -3.7 -0.5 -4.6 -2.5z"/>
  <path d="M140 127.5 l0 -7.5 5.5 0 c5 0 5.5 0.2 6.1 2.6 0.4 1.7 0.1 3.1 -0.9 4.1 -1.3 1.4 -1.3 1.9 0.5 4.9 1.9 3.3 1.9 3.4 0.1 3.4 -1 -0.1 -2.7 -1.5 -3.8 -3.2 -2.9 -4.6 -4.5 -4.7 -4.5 -0.4 0 2.5 -0.4 3.6 -1.5 3.6 -1.2 0 -1.5 -1.5 -1.5 -7.5z m8.5 -3.5 c0 -0.9 -1.1 -1.6 -2.7 -1.8 -2.3 -0.3 -2.8 0.1 -2.8 1.8 0 1.7 0.5 2.1 2.8 1.8 1.6 -0.2 2.7 -0.9 2.7 -1.8z"/>
  <path d="M153.8 132.5 c-0.8 -1.8 -0.9 -3.5 -0.2 -5.3 1.7 -5 10.4 -3.8 10.4 1.5 0 0.9 -1.4 1.3 -4.1 1.3 -3.6 0 -4 0.2 -2.9 1.5 1.5 1.8 5.5 1 8.1 -1.6 1.1 -1.1 2.8 -1.9 4 -1.9 1.1 0 1.7 -0.4 1.4 -1 -0.3 -0.5 -2 -0.6 -3.8 -0.3 -2.9 0.6 -3.1 0.5 -1.8 -1.1 1 -1.2 2.6 -1.6 5 -1.4 3.4 0.3 3.6 0.5 4.2 4.8 0.5 4.1 0.6 3.9 0.7 -2.2 0.2 -6.1 0.4 -6.8 2.2 -6.8 1.8 0 2 0.7 2 7.5 l0 7.5 -6.8 0 c-3.7 0 -7.3 -0.5 -7.9 -1.1 -0.8 -0.8 -1.3 -0.8 -1.7 0 -0.4 0.6 -2.3 1.1 -4.2 1.1 -2.7 0 -3.7 -0.5 -4.6 -2.5z"/>
  <path d="M318.3 112.1 c-4.4 -2.1 -7.3 -6.2 -7.3 -10.6 0 -2.4 0.2 -2.5 5.9 -2.5 5.3 0 6.1 0.3 7.9 2.8 1.8 2.3 2.7 2.7 6.7 2.6 6.1 -0.1 7.7 -1.9 8.2 -9.1 0.3 -4.4 0.1 -5.4 -0.7 -4.1 -2.1 3.3 -7.6 5.8 -12.8 5.8 -4.4 0 -5.7 -0.5 -8.8 -3.2 -5.4 -4.7 -7.4 -9.8 -7.4 -18.8 0 -8.8 2.1 -14.2 6.9 -18.3 4 -3.3 6.9 -4.1 12.7 -3.4 3.2 0.3 5.5 1.3 7.5 3.3 l2.9 2.8 0 -2.7 c0 -2.6 0.2 -2.7 5.5 -2.7 l5.5 0 0 23.8 c0 21.3 -0.2 24.1 -2 28 -2.7 5.9 -7.8 8.2 -18.5 8.2 -5.7 0 -9.2 -0.6 -12.2 -1.9z m16.4 -26.1 c5.7 -3.4 6.7 -15.1 1.8 -20.8 -2.7 -3.2 -8.4 -3.5 -11.5 -0.7 -5.8 5.3 -4.4 19.8 2.3 22.5 3.2 1.3 3.9 1.2 7.4 -1z"/>
  <path d="M638.3 112.1 c-4.4 -2.1 -7.3 -6.2 -7.3 -10.6 0 -2.4 0.2 -2.5 5.9 -2.5 5.3 0 6.1 0.3 7.9 2.8 1.8 2.3 2.7 2.7 6.7 2.6 6.1 -0.1 7.7 -1.9 8.2 -9.1 0.3 -4.4 0.1 -5.4 -0.7 -4.1 -2.1 3.3 -7.6 5.8 -12.8 5.8 -4.4 0 -5.7 -0.5 -8.8 -3.2 -5.4 -4.7 -7.4 -9.8 -7.4 -18.8 0 -8.8 2.1 -14.2 6.9 -18.3 4 -3.3 6.9 -4.1 12.7 -3.4 3.2 0.3 5.5 1.3 7.5 3.3 l2.9 2.8 0 -2.7 c0 -2.6 0.2 -2.7 5.5 -2.7 l5.5 0 0 23.8 c0 21.3 -0.2 24.1 -2 28 -2.7 5.9 -7.8 8.2 -18.5 8.2 -5.7 0 -9.2 -0.6 -12.2 -1.9z m16.4 -26.1 c5.7 -3.4 6.7 -15.1 1.8 -20.8 -2.7 -3.2 -8.4 -3.5 -11.5 -0.7 -5.8 5.3 -4.4 19.8 2.3 22.5 3.2 1.3 3.9 1.2 7.4 -1z"/>
  <path d="M442.7 95.9 c-6.1 -3.2 -9 -8.6 -9.5 -17.8 -0.5 -9.2 0.7 -13.8 5.1 -18.7 4.2 -4.8 7.7 -6.4 14.2 -6.4 7 0 11.2 1.7 15.2 6.3 3.6 4.1 5.3 9.1 5.3 15.5 l0 4.2 -14.4 0 -14.4 0 0.5 2.3 c0.8 3 4 6.4 6.8 7.1 3.2 0.8 7.6 -1 8.2 -3.4 0.5 -1.7 1.4 -2 5.9 -2 4.1 0 5.6 0.4 6.1 1.6 0.8 2.2 -4.5 9.3 -8.7 11.5 -4.8 2.6 -15.2 2.5 -20.3 -0.2z m19.3 -24.3 c0 -0.1 -0.5 -1.7 -1.1 -3.5 -2.9 -8.3 -15.9 -6.9 -15.9 1.8 0 2 0.6 2.1 8.5 2.1 4.7 0 8.5 -0.2 8.5 -0.4z"/>
  <path d="M488.7 95.9 c-6.1 -3.2 -9 -8.6 -9.5 -17.8 -0.5 -9.2 0.7 -13.8 5.1 -18.7 4.2 -4.8 7.7 -6.4 14.2 -6.4 7 0 11.2 1.7 15.2 6.3 3.6 4.1 5.3 9.1 5.3 15.5 l0 4.2 -14.4 0 -14.4 0 0.5 2.3 c0.8 3 4 6.4 6.8 7.1 3.2 0.8 7.6 -1 8.2 -3.4 0.5 -1.7 1.4 -2 5.9 -2 4.1 0 5.6 0.4 6.1 1.6 0.8 2.2 -4.5 9.3 -8.7 11.5 -4.8 2.6 -15.2 2.5 -20.3 -0.2z m19.3 -24.3 c0 -0.1 -0.5 -1.7 -1.1 -3.5 -2.9 -8.3 -15.9 -6.9 -15.9 1.8 0 2 0.6 2.1 8.5 2.1 4.7 0 8.5 -0.2 8.5 -0.4z"/>
  <path d="M208 67.5 l0 -29.5 22 0 22 0 0 5 0 5 -16.5 0 -16.5 0 0 6.5 0 6.5 15.5 0 15.5 0 0 5 0 5 -15.5 0 -15.5 0 0 8 0 8 17 0 17 0 0 5 0 5 -22.5 0 -22.5 0 0 -29.5z"/>
  <path d="M263 75.5 l0 -21.5 5.5 0 c5.3 0 5.5 0.1 5.5 2.7 l0 2.6 2.3 -2 c1.2 -1.1 3.2 -2.6 4.4 -3.2 3.1 -1.6 10.9 -1.4 14.3 0.4 5.3 2.8 6 5.5 6 25 l0 17.5 -5.5 0 -5.5 0 -0.1 -13.2 c-0.1 -7.3 -0.4 -14.6 -0.8 -16.3 -0.8 -3.9 -4.7 -5.9 -8.7 -4.5 -5 1.7 -5.7 4.2 -6.2 19.8 l-0.5 14.2 -5.3 0 -5.4 0 0 -21.5z"/>
  <path d="M363 75.5 l0 -21.5 5.5 0 5.5 0 0 21.5 0 21.5 -5.5 0 -5.5 0 0 -21.5z"/>
  <path d="M386 75.5 l0 -21.5 5.5 0 c5.3 0 5.5 0.1 5.5 2.7 l0 2.6 2.3 -2 c1.2 -1.1 3.2 -2.6 4.4 -3.2 3.1 -1.6 10.9 -1.4 14.3 0.4 5.3 2.8 6 5.5 6 25 l0 17.5 -5.5 0 -5.5 0 -0.1 -13.2 c-0.1 -7.3 -0.4 -14.6 -0.8 -16.3 -0.8 -3.9 -4.7 -5.9 -8.7 -4.5 -5 1.7 -5.7 4.2 -6.2 19.8 l-0.5 14.2 -5.3 0 -5.4 0 0 -21.5z"/>
  <path d="M528 75.5 l0 -21.5 5.5 0 c5 0 5.5 0.2 5.5 2.2 0 2.1 0.1 2.1 2.8 -0.5 2.1 -2 3.8 -2.7 6.9 -2.7 5.7 0 6.8 1.7 5.3 8 -1.1 4.5 -1.4 5 -3.4 4.3 -3.1 -1.1 -6.6 -0.7 -8.2 0.9 -1.9 1.9 -3.4 11.4 -3.4 22.1 l0 8.7 -5.5 0 -5.5 0 0 -21.5z"/>
  <path d="M560 75.5 l0 -21.5 5.5 0 5.5 0 0 21.5 0 21.5 -5.5 0 -5.5 0 0 -21.5z"/>
  <path d="M583 75.5 l0 -21.5 5.5 0 c5.3 0 5.5 0.1 5.5 2.7 l0 2.6 2.3 -2 c1.2 -1.1 3.2 -2.6 4.4 -3.2 3.1 -1.6 10.9 -1.4 14.3 0.4 5.3 2.8 6 5.5 6 25 l0 17.5 -5.5 0 -5.5 0 -0.1 -13.2 c-0.1 -7.3 -0.4 -14.6 -0.8 -16.3 -0.8 -3.9 -4.7 -5.9 -8.7 -4.5 -5 1.7 -5.7 4.2 -6.2 19.8 l-0.5 14.2 -5.3 0 -5.4 0 0 -21.5z"/>
  <path d="M363 43 l0 -5 5.5 0 5.5 0 0 5 0 5 -5.5 0 -5.5 0 0 -5z"/>
  <path d="M560 43 l0 -5 5.5 0 5.5 0 0 5 0 5 -5.5 0 -5.5 0 0 -5z"/>
 </g>
 <g fill="#92d050">
  <path d="M30.3 127.5 c0 -4.4 0.2 -6.1 0.4 -3.7 0.2 2.3 0.2 5.9 0 8 -0.2 2 -0.4 0.1 -0.4 -4.3z"/>
  <path d="M33.3 127.5 c0 -4.4 0.2 -6.1 0.4 -3.7 0.2 2.3 0.2 5.9 0 8 -0.2 2 -0.4 0.1 -0.4 -4.3z"/>
  <path d="M57.4 133.8 c-1.7 -2.8 -1.3 -6.6 0.9 -8.4 2.2 -1.9 2.2 -1.9 0.5 0.2 -1.8 2 -2.5 4.9 -1 4.1 0.4 -0.3 0.7 0.8 0.7 2.4 0 3.3 -0.1 3.4 -1.1 1.7z"/>
  <path d="M84.3 127.5 c0 -4.4 0.2 -6.1 0.4 -3.7 0.2 2.3 0.2 5.9 0 8 -0.2 2 -0.4 0.1 -0.4 -4.3z"/>
  <path d="M100.7 134.3 c-0.9 -0.9 -0.9 -4.1 0.1 -4.6 0.4 -0.3 0.7 0.8 0.7 2.4 0 1.6 0 2.9 -0.1 2.9 0 0 -0.4 -0.3 -0.7 -0.7z"/>
  <path d="M164.4 133.8 c-1.7 -2.8 -1.3 -6.6 0.9 -8.4 2.2 -1.9 2.2 -1.9 0.5 0.2 -1.8 2 -2.5 4.9 -1 4.1 0.4 -0.3 0.7 0.8 0.7 2.4 0 3.3 -0.1 3.4 -1.1 1.7z"/>
  <path d="M174.7 128.8 c0.6 -9.6 1.1 -10.1 1.2 -1.5 0 4.2 -0.3 7.7 -0.7 7.7 -0.5 0 -0.7 -2.8 -0.5 -6.2z"/>
  <path d="M178.3 127.5 c0 -4.4 0.2 -6.1 0.4 -3.7 0.2 2.3 0.2 5.9 0 8 -0.2 2 -0.4 0.1 -0.4 -4.3z"/>
  <path d="M35 67.5 l0 -29.5 5.5 0 5.5 0 0 29.5 0 29.5 -5.5 0 -5.5 0 0 -29.5z"/>
  <path d="M58 67.5 l0 -29.6 9.7 0.3 9.7 0.3 4.6 19 4.5 19 4.5 -19 4.6 -19 9.7 -0.3 9.7 -0.3 0 29.6 0 29.5 -5.5 0 -5.5 0 -0.1 -3.7 c-0.1 -2.1 -0.5 -11.2 -0.8 -20.3 l-0.6 -16.4 -4.5 19.9 -4.6 20 -6.9 0 -7 0 -4.5 -20 -4.5 -20 -0.6 16.5 c-0.3 9.1 -0.7 18.2 -0.8 20.3 l-0.1 3.7 -5.5 0 -5.5 0 0 -29.5z"/>
  <path d="M127 67.5 l0 -29.5 17.8 0 c16.5 0 18.1 0.2 22.2 2.2 5.4 2.8 8 7.4 8 14.3 0 6.5 -2.6 11.2 -7.6 13.9 -2.1 1.1 -4.1 2.2 -4.3 2.4 -0.3 0.1 0.7 1.5 2.1 3 2.2 2.4 14.8 21.8 14.8 22.8 0 0.2 -3 0.4 -6.7 0.4 l-6.8 0 -4.2 -6.8 c-8.2 -13.4 -14.1 -18.2 -22 -18.2 -2.3 0 -2.3 0.2 -2.3 12.5 l0 12.5 -5.5 0 -5.5 0 0 -29.5z m33.3 -7 c2.5 -1 3.9 -4.9 2.7 -7.9 -1.2 -3.3 -5.8 -4.6 -16.1 -4.6 l-8.9 0 0 7.1 0 7.2 10.3 -0.6 c5.6 -0.3 11 -0.8 12 -1.2z"/>
 </g>
</svg>